<?xml version="1.0" standalone="no"?>
<!DOCTYPE svg PUBLIC "-//W3C//DTD SVG 1.1//EN" "http://www.w3.org/Graphics/SVG/1.1/DTD/svg11.dtd" >
<svg xmlns="http://www.w3.org/2000/svg" xmlns:xlink="http://www.w3.org/1999/xlink" version="1.1">
<metadata>
Created by FontForge 20170731 at Fri Dec  9 10:59:15 2022
 By Aleksey,,,
(c) Pangram Pangram 2022
</metadata>
<defs>
<font id="PPWriter-ThinText" horiz-adv-x="0" >
  <font-face 
    font-family="PP Writer Thin Text"
    font-weight="100"
    font-stretch="normal"
    units-per-em="2048"
    panose-1="0 0 0 0 0 0 0 0 0 0"
    ascent="1638"
    descent="-410"
    x-height="1004"
    cap-height="1454"
    bbox="-307 -573 12669 2068"
    underline-thickness="102"
    underline-position="-358"
    unicode-range="U+0021-1F415"
  />
<missing-glyph horiz-adv-x="1013" 
d="M831 1556v-2027h-643v2027h643zM338 -332h338v68h-207l141 96h66v66h-338v-66h143l-143 -96v-68zM338 -55h338v229h-338v-229zM338 295h338v229h-203v-112h68v45h67v-95h-202v162h-68v-229zM338 569h338v203h-68v-133h-270v-70zM338 684h203v143h135v66h-338v-66h135v-75
h-135v-68zM338 948h338v70h-135v141h-203v-211zM338 1212h338v66h-135v76h135v67h-336v-67h133v-76h-135v-66zM406 12v94h202v-94h-202zM406 1018v72h67v-72h-67z" />
    <glyph glyph-name="f_f" unicode="ff" horiz-adv-x="1320" 
d="M84 0l20 63l107 3q27 0 47.5 18t20.5 53v799h-177v49l177 19v98q0 86 19.5 156.5t61.5 127.5t116.5 89t176.5 32q169 0 265 -104q80 174 290 174q108 0 267 -47q0 -28 -26 -58t-52 -30q-17 0 -50 9t-87 26t-80 24h-21q-90 0 -142 -77.5t-52 -221.5v-198h327v-68h-327
v-866l262 2l-21 -72h-528l20 63l107 3q27 0 47 18t20 53v799h-501v-866l262 2l-21 -72h-528zM371 1004h501v157q0 17 5 84q-19 99 -84.5 146t-147.5 47q-142 0 -208 -80.5t-66 -222.5v-131z" />
    <glyph glyph-name="f_f_i" unicode="ffi" horiz-adv-x="1841" 
d="M102 936v49l177 19v98q0 86 19.5 156.5t62 127.5t118 89t178.5 32q178 0 271 -116q51 90 140 138t206 48q135 0 214 -67t79 -177q0 -30 -42.5 -56.5t-56.5 -8.5q-8 111 -63 175t-148 64q-135 0 -213.5 -88t-78.5 -237v-178h518l41 77h35q-9 -211 -9 -315v-696l203 2
l-20 -72h-473l22 63l109 3q27 0 47 18t20 53v799h-493v-866l262 2l-21 -72h-528l20 63l107 3q27 0 47 18t20 53v799h-501v-866l262 2l-21 -72h-528l20 63l107 3q27 0 47.5 18t20.5 53v799h-177zM371 1004h501v157q0 35 2 51q-20 122 -83.5 174t-145.5 52q-142 0 -208 -80.5
t-66 -222.5v-131z" />
    <glyph glyph-name="f_f_l" unicode="ffl" horiz-adv-x="1835" 
d="M674 0l20 63l107 3q27 0 47 18t20 53v799h-497v-866l262 2l-21 -72h-528l20 63l107 3q27 0 47.5 18t20.5 53v799h-177v49l177 19v98q0 86 19.5 156.5t61.5 127.5t116.5 89t176.5 32q170 0 267 -108q90 178 317 178q173 0 258 -94q11 33 33 73h31q-9 -170 -9 -329v-1157
l203 2l-20 -72h-471l20 63l109 3q28 0 47.5 17.5t19.5 53.5v1202q0 71 -63.5 119.5t-167.5 48.5q-121 0 -193.5 -83t-72.5 -228v-192h313v-68h-313v-866l262 2l-21 -72h-528zM371 1004h497v157q0 26 4 76q-16 104 -80 152.5t-149 48.5q-140 0 -206 -80.5t-66 -222.5v-131z
" />
    <glyph glyph-name="f_i" unicode="fi" horiz-adv-x="1247" 
d="M84 0l20 63l107 3q27 0 47.5 18t20.5 53v799h-177v49l177 19v157q0 190 110 303t291 113q135 0 214 -67t79 -177q0 -30 -42.5 -56.5t-56.5 -8.5q-8 112 -62.5 175.5t-147.5 63.5q-135 0 -214 -88t-79 -237v-178h518l41 77h35q-9 -211 -9 -315v-696l203 2l-20 -72h-473
l22 63l109 3q27 0 47 18t20 53v799h-493v-866l262 2l-21 -72h-528z" />
    <glyph glyph-name="f_l" unicode="fl" horiz-adv-x="1245" 
d="M84 0l20 63l107 3q27 0 47.5 18t20.5 53v799h-177v49l177 19v157q0 192 94.5 304t273.5 112q173 0 258 -94q11 33 33 73h31q-8 -151 -8 -329v-1157l202 2l-20 -72h-471l20 63l109 3q28 0 47.5 17.5t19.5 53.5v1202q0 71 -63.5 119.5t-167.5 48.5q-121 0 -193.5 -83
t-72.5 -228v-192h313v-68h-313v-866l262 2l-21 -72h-528z" />
    <glyph glyph-name=".notdef" horiz-adv-x="1013" 
d="M831 1556v-2027h-643v2027h643zM338 -332h338v68h-207l141 96h66v66h-338v-66h143l-143 -96v-68zM338 -55h338v229h-338v-229zM338 295h338v229h-203v-112h68v45h67v-95h-202v162h-68v-229zM338 569h338v203h-68v-133h-270v-70zM338 684h203v143h135v66h-338v-66h135v-75
h-135v-68zM338 948h338v70h-135v141h-203v-211zM338 1212h338v66h-135v76h135v67h-336v-67h133v-76h-135v-66zM406 12v94h202v-94h-202zM406 1018v72h67v-72h-67z" />
    <glyph glyph-name=".null" 
 />
    <glyph glyph-name="nonmarkingreturn" horiz-adv-x="682" 
 />
    <glyph glyph-name="space" unicode="&#xa0;" horiz-adv-x="573" 
 />
    <glyph glyph-name="space" unicode=" " horiz-adv-x="573" 
 />
    <glyph glyph-name="exclam" unicode="!" horiz-adv-x="622" 
d="M264 354q0 169 -6.5 386t-16.5 448.5t-12 310.5q-3 38 15.5 58t50.5 20q66 0 63 -78q-2 -68 -11 -308.5t-15 -453.5t-6 -383h-62zM205 70q0 37 25.5 62.5t62.5 25.5t62.5 -25.5t25.5 -62.5q0 -38 -25.5 -64t-62.5 -26t-62.5 26t-25.5 64z" />
    <glyph glyph-name="quotedbl" unicode="&#x22;" horiz-adv-x="843" 
d="M207 1481q-5 38 9.5 56.5t51.5 18.5q69 0 60 -75l-41 -314h-39zM479 1481q-9 75 62 75q68 0 59 -75l-41 -314h-39z" />
    <glyph glyph-name="numbersign" unicode="#" horiz-adv-x="1478" 
d="M725 0l104 410h-350l-104 -410h-80l104 410h-256l21 61h252l129 512h-262l22 61h256l105 410h79l-104 -410h350l105 410h80l-105 -410h227l-22 -61h-221l-129 -512h231l-20 -61h-228l-104 -410h-80zM496 471h350l129 512h-350z" />
    <glyph glyph-name="dollar" unicode="$" horiz-adv-x="1202" 
d="M567 1628q-7 45 8 66.5t43 21.5q27 0 42 -22t8 -66l-23 -153q170 -3 332 -97l61 -338h-53q-30 110 -67.5 182t-87 111t-103.5 53.5t-129 14.5q-152 0 -244 -82t-92 -205q0 -112 95.5 -189t304.5 -153q215 -76 313 -165t98 -234q0 -160 -106.5 -269.5t-292.5 -121.5
l24 -166q7 -43 -7.5 -64.5t-41.5 -21.5q-28 0 -42.5 21t-8.5 65l23 164q-268 3 -439 129l-61 356h51q27 -119 74 -202t109.5 -127.5t129.5 -63.5t148 -19q93 0 170.5 32.5t126.5 101.5t49 163q0 114 -95 192.5t-311 157.5q-101 37 -170.5 73t-124.5 83t-81.5 107t-26.5 135
q0 155 114 259t304 116z" />
    <glyph glyph-name="percent" unicode="%" horiz-adv-x="1718" 
d="M438 0l756 1249h86l-754 -1249h-88zM51 885q0 159 92.5 259.5t235.5 100.5q147 0 239.5 -99.5t92.5 -260.5q0 -162 -92.5 -263.5t-239.5 -101.5q-143 0 -235.5 101.5t-92.5 263.5zM145 883q0 -131 66 -212t168 -81q104 0 170.5 81t66.5 212t-66.5 212t-170.5 81
q-102 0 -168 -81t-66 -212zM1008 346q0 159 91.5 260t233.5 101q146 0 239 -100.5t93 -260.5q0 -162 -92.5 -263t-239.5 -101q-142 0 -233.5 101t-91.5 263zM1100 344q0 -131 65.5 -212t167.5 -81q105 0 172.5 81t67.5 212t-67.5 212t-172.5 81q-102 0 -167.5 -81
t-65.5 -212z" />
    <glyph glyph-name="ampersand" unicode="&#x26;" horiz-adv-x="1652" 
d="M1352 0q-195 153 -262 205q-110 -113 -224.5 -169t-257.5 -56q-135 0 -243 42.5t-175 131.5t-67 211q0 131 84.5 248.5t224.5 195.5q-127 169 -127 321q0 151 105.5 248t269.5 97q144 0 242 -79t98 -206q0 -124 -80.5 -211t-198.5 -105l-12 50q191 67 191 262
q0 97 -72.5 158t-179.5 61q-116 0 -186 -74t-70 -192q0 -41 11.5 -83.5t27.5 -80t49 -83t59.5 -79.5t76.5 -82.5t83 -79.5t95.5 -83.5t97 -80.5t104.5 -84q40 -32 98 -77q57 81 87 156t30 175q0 87 -50 117.5t-182 30.5l13 59h561l-14 -69l-232 2q0 -172 -43.5 -293.5
t-116.5 -218.5q190 -142 375 -258l-10 -27h-180zM231 393q0 -105 56.5 -181t145.5 -112.5t198 -36.5q217 0 405 185l-69 57q-14 12 -78 65.5t-83.5 70t-72 62t-78 69.5t-64.5 61t-68.5 69t-55.5 64q-106 -68 -171 -167t-65 -206z" />
    <glyph glyph-name="quotesingle" unicode="'" horiz-adv-x="571" 
d="M207 1481q-5 38 9.5 56.5t51.5 18.5q69 0 60 -75l-41 -314h-39z" />
    <glyph glyph-name="parenleft" unicode="(" horiz-adv-x="700" 
d="M596 -362q-90 65 -169 159.5t-143.5 216t-102.5 276t-38 318.5q0 165 38 319.5t103 275.5t144 215t168 159l37 -45q-79 -77 -145.5 -168.5t-123 -206.5t-88.5 -256.5t-32 -292.5t32 -293t88.5 -258t123.5 -208.5t145 -165.5z" />
    <glyph glyph-name="parenright" unicode=")" horiz-adv-x="700" 
d="M68 -317q78 73 145 165.5t123.5 208.5t88.5 258t32 293t-32 292.5t-88.5 256.5t-123 206.5t-145.5 168.5l36 45q89 -65 168 -159t144 -215t103 -275.5t38 -319.5q0 -164 -38 -318.5t-102.5 -276t-143.5 -216t-169 -159.5z" />
    <glyph glyph-name="asterisk" unicode="*" horiz-adv-x="1212" 
d="M823 836q-29 -24 -62.5 6t-66.5 100l-106 215l178 -166q55 -50 71.5 -89.5t-14.5 -65.5zM209 1280q22 70 168 -10l211 -113l-240 27q-75 11 -113.5 34.5t-25.5 61.5zM354 834q-59 41 62 155l172 168l-101 -219q-71 -149 -133 -104zM541 1393q-27 163 45 163t45 -163
l-43 -236zM588 1157l211 119q43 23 78 33t59.5 4t32.5 -31q11 -36 -27.5 -58.5t-116.5 -33.5z" />
    <glyph glyph-name="plus" unicode="+" horiz-adv-x="1105" 
d="M514 102v375h-371v70h371v375h80v-375h369v-70h-369v-375h-80z" />
    <glyph glyph-name="comma" unicode="," horiz-adv-x="655" 
d="M205 -313q56 80 81 135.5t25 109.5q0 35 -16.5 61.5t-35.5 38.5t-35.5 21t-16.5 13q-2 37 21 66.5t57 29.5q55 0 92 -42t37 -104q0 -85 -47.5 -183t-124.5 -169z" />
    <glyph glyph-name="hyphen" unicode="-" horiz-adv-x="808" 
d="M141 471v84h516v-84h-516z" />
    <glyph glyph-name="period" unicode="." horiz-adv-x="622" 
d="M293 -20q-37 0 -62.5 26t-25.5 64q0 37 25.5 62.5t62.5 25.5t62.5 -25.5t25.5 -62.5q0 -38 -25.5 -64t-62.5 -26z" />
    <glyph glyph-name="slash" unicode="/" horiz-adv-x="1337" 
d="M143 -342l924 1898h90l-924 -1898h-90z" />
    <glyph glyph-name="zero" unicode="0" horiz-adv-x="1230" 
d="M614 -20q-140 0 -258 78.5t-186 214.5t-68 298t68 298t186 214t258 78q141 0 259.5 -78t186.5 -214t68 -298t-68 -298t-186.5 -214.5t-259.5 -78.5zM182 571q0 -206 126 -348.5t306 -142.5q119 0 219 64.5t158 177.5t58 249q0 204 -127 347t-308 143q-118 0 -217.5 -65.5
t-157 -178t-57.5 -246.5z" />
    <glyph glyph-name="one" unicode="1" horiz-adv-x="774" 
d="M115 0l20 63l146 3q33 0 56 22t23 62v800l-247 -6v55q136 3 205 41t106 121l51 -20q-9 -50 -15.5 -143t-6.5 -150v-778l241 2l-20 -72h-559z" />
    <glyph glyph-name="two" unicode="2" horiz-adv-x="1038" 
d="M78 61q146 93 255 178t202.5 183t142.5 202.5t49 211.5q0 110 -66.5 175.5t-175.5 65.5q-102 0 -174 -41t-151 -125l-47 39q74 98 176.5 154.5t218.5 56.5q138 0 229.5 -82.5t91.5 -232.5q0 -192 -152.5 -379.5t-455.5 -384.5h492q76 0 109.5 40.5t74.5 182.5h43
l-49 -330q-113 25 -260 25h-541z" />
    <glyph glyph-name="three" unicode="3" horiz-adv-x="960" 
d="M-14 -406q339 66 526.5 207.5t187.5 345.5q0 133 -103 214t-288 81l-22 50q153 65 246.5 168t93.5 221q0 89 -62.5 142.5t-171.5 53.5q-89 0 -153.5 -39t-143.5 -125l-49 41q164 207 387 207q130 0 211.5 -76t81.5 -196q0 -124 -73 -215.5t-199 -163.5q156 -15 252 -107
t96 -239q0 -155 -99.5 -286.5t-276.5 -220.5t-409 -128z" />
    <glyph glyph-name="four" unicode="4" horiz-adv-x="1148" 
d="M743 -471v471h-675l-21 53l727 1104l62 -16v-1065h270l-21 -76h-249v-471h-93zM152 76h591v905z" />
    <glyph glyph-name="five" unicode="5" horiz-adv-x="968" 
d="M-27 -406q332 65 523.5 222t191.5 366q0 152 -127 270t-332 177q32 76 50.5 169t23.5 155.5t12 187.5h193q207 0 336 22v-104h-449l-45 -367q197 -71 319 -198t122 -299q0 -235 -218.5 -421.5t-566.5 -244.5z" />
    <glyph glyph-name="six" unicode="6" horiz-adv-x="1071" 
d="M524 -20q-194 0 -308 141t-114 368q0 172 69.5 333.5t187 287t268 220t317.5 145.5l35 -62q-134 -43 -259 -115.5t-233 -171t-181.5 -229.5t-94.5 -276q69 91 165.5 143.5t203.5 52.5q155 0 259.5 -110.5t104.5 -276.5q0 -196 -117.5 -323t-302.5 -127zM203 508
q0 -204 89 -327.5t249 -123.5q135 0 222 100t87 257q0 138 -82.5 230.5t-204.5 92.5q-103 0 -200.5 -61.5t-159.5 -163.5v-4z" />
    <glyph glyph-name="seven" unicode="7" horiz-adv-x="1030" 
d="M164 -471l719 1530h-543q-40 0 -69 -23.5t-61 -89t-71 -188.5h-43l68 407q151 -24 264 -24h528l13 -62l-703 -1550h-102z" />
    <glyph glyph-name="eight" unicode="8" horiz-adv-x="1048" 
d="M537 -20q-192 0 -313.5 99.5t-121.5 248.5q0 134 88 236.5t252 195.5q-134 95 -203 184.5t-69 196.5q0 146 103.5 240t269.5 94q152 0 245 -89.5t93 -230.5q0 -123 -74.5 -215t-218.5 -162q1 0 2 -1t2 -1q91 -57 151 -103t109 -98.5t71.5 -109.5t22.5 -123
q0 -156 -111.5 -259t-297.5 -103zM199 344q0 -120 97.5 -204.5t248.5 -84.5q140 0 223.5 79t83.5 194q0 33 -9 63t-21 55t-39.5 55t-49.5 51t-67 54t-76.5 54.5t-91.5 62.5l-6 4q-142 -95 -217.5 -185.5t-75.5 -197.5zM260 1155q0 -95 70 -173.5t213 -172.5
q128 73 186.5 150.5t58.5 187.5t-69.5 181t-181.5 71q-122 0 -199.5 -69.5t-77.5 -174.5z" />
    <glyph glyph-name="nine" unicode="9" horiz-adv-x="1036" 
d="M35 -410q138 46 273 141t245 220.5t184 283t90 316.5q-64 -93 -153 -144t-193 -51t-191 45.5t-141.5 135.5t-54.5 208q0 188 118.5 302t303.5 114q195 0 306.5 -142t111.5 -376q0 -117 -34 -239t-93.5 -232.5t-142 -214t-177.5 -186.5t-202.5 -146t-214.5 -96zM193 762
q0 -148 89 -236t212 -88q101 0 189.5 55.5t147.5 153.5q-3 200 -88.5 319t-238.5 119q-137 0 -224 -87t-87 -236z" />
    <glyph glyph-name="colon" unicode=":" horiz-adv-x="622" 
d="M293 -20q-37 0 -62.5 26t-25.5 64q0 37 25.5 62.5t62.5 25.5t62.5 -25.5t25.5 -62.5q0 -38 -25.5 -64t-62.5 -26zM205 786q0 37 25.5 62.5t62.5 25.5t62.5 -25.5t25.5 -62.5q0 -38 -25.5 -64t-62.5 -26t-62.5 26t-25.5 64z" />
    <glyph glyph-name="semicolon" unicode=";" horiz-adv-x="655" 
d="M305 696q-37 0 -62.5 26t-25.5 64q0 37 25.5 62.5t62.5 25.5t62.5 -25.5t25.5 -62.5q0 -38 -25.5 -64t-62.5 -26zM205 -313q56 80 81 135.5t25 109.5q0 35 -16.5 61.5t-35.5 38.5t-35.5 21t-16.5 13q-2 37 21 66.5t57 29.5q55 0 92 -42t37 -104q0 -85 -47.5 -183
t-124.5 -169z" />
    <glyph glyph-name="less" unicode="&#x3c;" horiz-adv-x="942" 
d="M113 549l716 455v-95l-645 -407l645 -408v-94l-716 455v94z" />
    <glyph glyph-name="equal" unicode="=" horiz-adv-x="993" 
d="M143 602v70h707v-70h-707zM143 266v70h707v-70h-707z" />
    <glyph glyph-name="greater" unicode="&#x3e;" horiz-adv-x="942" 
d="M829 455l-716 -455v94l645 408l-645 407v95l716 -455v-94z" />
    <glyph glyph-name="question" unicode="?" horiz-adv-x="802" 
d="M248 313q-43 209 -43 289q0 56 36.5 114t88 107.5t103 100t88 109.5t36.5 118q0 172 -262 293q-32 13 -58 43t-26 51q0 17 12 28t37 11q52 0 116 -35.5t121.5 -94.5t96.5 -150.5t39 -190.5q0 -51 -19 -99t-49.5 -86.5t-67.5 -75t-74 -71.5t-67.5 -69.5t-49.5 -75
t-19 -82.5q0 -80 22 -234h-61zM213 70q0 37 25.5 62.5t62.5 25.5t62.5 -25.5t25.5 -62.5q0 -38 -25.5 -64t-62.5 -26t-62.5 26t-25.5 64z" />
    <glyph glyph-name="at" unicode="@" horiz-adv-x="1912" 
d="M965 -332q-171 0 -326.5 62.5t-268.5 168t-180 251.5t-67 307q0 181 70 346.5t187 285t276.5 190.5t332.5 71q219 0 403.5 -104t291 -280.5t106.5 -383.5q0 -268 -110 -433t-298 -165q-99 0 -175 40.5t-79 104.5h-20q-165 -149 -322 -149q-100 0 -155.5 52t-55.5 124
q0 157 193 239l354 156v205q0 190 -133 190q-60 0 -98.5 -15.5t-67.5 -51.5l-32 -62q-21 -38 -51 -61t-60 -23q-33 0 -47.5 18t-14.5 40q0 14 40 51.5t98 78t133.5 72t136.5 31.5q116 0 157 -64.5t38 -187.5q-9 -286 -2 -588q3 -59 54.5 -93t129.5 -34q145 0 216 136t71 378
q0 142 -55 272.5t-149.5 226.5t-228 153t-282.5 57q-150 0 -288.5 -64.5t-239.5 -174t-161.5 -260.5t-60.5 -316q0 -197 100.5 -363.5t273 -263t376.5 -96.5q92 0 196 25.5t170 60.5l33 -55q-67 -45 -182 -75t-227 -30zM684 178q0 -50 33.5 -81t99.5 -31q79 0 161.5 41
t143.5 122v248l-299 -131q-139 -61 -139 -168z" />
    <glyph glyph-name="A" unicode="A" horiz-adv-x="1595" 
d="M1032 0l21 66l100 4q37 1 55 4t29.5 13.5t7.5 31t-20 55.5l-117 248h-672l-137 -350l240 2l-21 -74h-471l21 66l55 4q56 2 85 20.5t50 71.5l436 1116q-46 69 -105 91.5t-188 27.5l11 57h315l655 -1382l166 2l-20 -74h-496zM465 492h610l-307 647l-27 55z" />
    <glyph glyph-name="B" unicode="B" horiz-adv-x="1306" 
d="M84 0l20 66l111 4q38 2 54 16t16 55v1241l-205 -2l20 74h566q215 0 331.5 -93.5t116.5 -254.5q0 -123 -64.5 -212.5t-175.5 -125.5q150 -32 236 -125t86 -225q0 -195 -135.5 -306.5t-364.5 -111.5h-612zM387 72h297q190 0 296.5 89t106.5 251q0 147 -106 230t-289 83
h-305v-653zM387 791h318q138 0 222.5 84.5t84.5 222.5q0 134 -94 209t-271 75h-260v-591z" />
    <glyph glyph-name="C" unicode="C" horiz-adv-x="1507" 
d="M874 -20q-218 0 -388.5 87t-266.5 247.5t-96 369.5q0 180 56 329.5t154 250t231.5 156t287.5 55.5q230 0 428 -103l74 -373h-51q-31 99 -72 171t-84 114t-97 67t-104 33.5t-112 8.5q-125 0 -233.5 -46.5t-188.5 -132t-126 -214.5t-46 -287q0 -198 83.5 -347t229 -227
t330.5 -78q63 0 106.5 5t89 20t79 43.5t67.5 74t63.5 112.5t59.5 159h51l-96 -414q-190 -81 -429 -81z" />
    <glyph glyph-name="D" unicode="D" horiz-adv-x="1519" 
d="M84 0l20 66l109 4q37 2 53.5 14.5t16.5 50.5v1247l-203 -2l20 74h566q337 0 534 -194t197 -519q0 -338 -199.5 -539.5t-531.5 -201.5h-582zM385 72h279q284 0 450 178t166 479q0 302 -167 477.5t-462 175.5h-266v-1310z" />
    <glyph glyph-name="E" unicode="E" horiz-adv-x="1343" 
d="M84 0l20 66l109 4q38 2 54 15t16 54v1243l-203 -2l20 74h731q167 0 314 25l47 -422h-51q-17 79 -28.5 126.5t-25.5 87.5t-26 59t-30.5 32.5t-38 16.5t-50.5 3h-557v-587h369q35 0 55.5 5.5t35.5 17.5t22 41.5t10 65.5t4 101h59v-530h-59q-3 143 -24.5 184t-102.5 41h-369
v-649h569q35 0 58.5 4.5t46 21.5t37.5 39t34 67.5t35 97t41 136.5h51l-98 -463q-128 25 -244 25h-831z" />
    <glyph glyph-name="F" unicode="F" horiz-adv-x="1130" 
d="M84 0l20 66l109 4q38 2 54 15t16 56v1241l-203 -2l20 74h711q152 0 283 25l47 -422h-51q-19 93 -33 147t-28.5 93.5t-33 55.5t-38.5 22.5t-54 6.5h-518v-628h338q30 0 48.5 5.5t31.5 18t19.5 41t9.5 65.5t4 101h59v-530h-59q-3 142 -23 183.5t-90 41.5h-338v-608l211 2
l-21 -74h-491z" />
    <glyph glyph-name="G" unicode="G" horiz-adv-x="1605" 
d="M879 -20q-359 0 -557.5 196t-198.5 529q0 230 86 403.5t250 270t385 96.5q116 0 245 -28.5t203 -78.5l54 -375h-52q-22 101 -59.5 175t-81 117.5t-102.5 69t-114 34t-126 8.5q-271 0 -424.5 -180.5t-153.5 -489.5q0 -306 170 -486t474 -180q177 0 265.5 36.5t88.5 119.5
v477l-332 -4l21 76h577l-20 -68q-90 0 -117 -13t-27 -62v-385q0 -64 21.5 -80t85.5 -4l8 -50q-172 -62 -299 -93t-270 -31z" />
    <glyph glyph-name="H" unicode="H" horiz-adv-x="1697" 
d="M1114 0l21 66l112 4q36 2 52 15.5t16 55.5v561h-930v-630l201 2l-21 -74h-481l20 66l109 4q38 2 54 15t16 56v1241l-203 -2l20 74h482l-21 -65l-108 -5q-37 -2 -52.5 -15.5t-15.5 -57.5v-539h930v610l-201 -2l21 74h481l-21 -65l-108 -5q-38 -2 -54 -15.5t-16 -57.5
v-1239l201 2l-21 -74h-483z" />
    <glyph glyph-name="I" unicode="I" horiz-adv-x="665" 
d="M84 0l20 66l109 4q37 2 53.5 14.5t16.5 50.5v1247l-203 -2l20 74h482l-21 -65l-108 -5q-35 -2 -51.5 -15t-16.5 -52v-1245l201 2l-21 -74h-481z" />
    <glyph glyph-name="J" unicode="J" horiz-adv-x="641" 
d="M-31 -422q57 40 99.5 78.5t86 95.5t71.5 120.5t45.5 152t17.5 192.5v1165l-248 -2l20 74h533l-21 -65l-114 -5q-35 -2 -51.5 -15t-16.5 -52v-1079q0 -94 -12 -175.5t-32 -144t-51 -117t-62.5 -93t-73.5 -74t-77.5 -58.5t-80.5 -47z" />
    <glyph glyph-name="K" unicode="K" horiz-adv-x="1554" 
d="M1415 -20q-249 0 -405 167l-518 539v16l682 678h-250l20 74h563l-20 -65q-120 -3 -184.5 -26t-114.5 -73l-580 -577l482 -498q139 -149 344 -188zM80 1380l20 74h482l-21 -65l-108 -5q-35 -2 -51.5 -15t-16.5 -52v-1245l197 2l-21 -74h-477l20 66l109 4q38 2 54 15t16 56
v1241z" />
    <glyph glyph-name="L" unicode="L" horiz-adv-x="1181" 
d="M84 0l20 66l109 4q38 2 54 15.5t16 55.5v1241l-203 -2l20 74h512l-20 -65l-133 -5q-41 -2 -57.5 -15.5t-16.5 -57.5v-1239h432q63 0 101 26.5t74.5 104t80.5 235.5h51l-96 -463q-128 25 -244 25h-700z" />
    <glyph glyph-name="M" unicode="M" horiz-adv-x="1941" 
d="M84 0l20 66l121 2q39 3 57 18t19 47l53 1180q-38 44 -98 61.5t-176 22.5l10 57h328l567 -1276l553 1274h10v2h334l-20 -65l-121 -5q-90 -6 -84 -108l39 -1204l198 2l-20 -74h-481l20 66l109 4q40 2 55 16t14 61l-39 1153l-569 -1320h-20l-541 1212l-43 -1120l199 2
l-21 -74h-473z" />
    <glyph glyph-name="N" unicode="N" horiz-adv-x="1644" 
d="M92 0l21 66l110 4q41 2 57.5 14.5t16.5 56.5v1188q-45 33 -103.5 47.5t-158.5 20.5l10 57h295l1003 -1304v1232l-213 -2l21 74h473l-20 -65l-107 -5q-45 -3 -62.5 -18t-17.5 -63v-1272l-74 -51l-972 1269v-1177l219 2l-21 -74h-477z" />
    <glyph glyph-name="O" unicode="O" horiz-adv-x="1632" 
d="M817 -20q-199 0 -357.5 94.5t-247.5 264.5t-89 384q0 217 87.5 388.5t246 267.5t360.5 96q198 0 356 -95t247 -265t89 -384q0 -217 -87.5 -388t-245.5 -267t-359 -96zM240 737q0 -298 162.5 -487t424.5 -189q252 0 409 183t157 473q0 196 -73.5 349.5t-208.5 240
t-308 86.5q-166 0 -294.5 -83.5t-198.5 -232.5t-70 -340z" />
    <glyph glyph-name="P" unicode="P" horiz-adv-x="1261" 
d="M84 0l20 66l109 4q38 2 54 18t16 57v1237l-203 -2l20 74h568q236 0 374 -111.5t138 -304.5q0 -191 -137 -309.5t-365 -118.5h-293v-538l211 2l-21 -74h-491zM385 680h281q185 0 293 95t108 257q0 157 -108.5 253.5t-292.5 96.5h-281v-702z" />
    <glyph glyph-name="Q" unicode="Q" horiz-adv-x="1617" 
d="M1681 -360q-70 0 -136 24t-117 59.5t-106 95t-93.5 110t-89.5 126.5q-144 -75 -322 -75q-199 0 -357.5 94.5t-247.5 264.5t-89 384q0 217 87.5 388.5t246 267.5t360.5 96q198 0 356 -95t247 -265t89 -384q0 -203 -78 -367t-217 -264q48 -70 84 -117.5t87 -102t97.5 -87
t106 -54.5t121.5 -22q138 0 295 72l10 -57q-212 -92 -334 -92zM240 737q0 -145 41 -266q186 123 346 123q58 0 111 -15t102 -47.5t88 -66t84.5 -89t75.5 -96t75 -106.5q109 88 169.5 228t60.5 315q0 196 -73.5 349.5t-208.5 240t-308 86.5q-166 0 -294.5 -83.5
t-198.5 -232.5t-70 -340zM305 408q70 -162 206 -254.5t316 -92.5q145 0 265 66q-44 64 -71.5 102.5t-70 92t-77.5 85t-78.5 62.5t-90 45t-96.5 14q-140 0 -303 -120z" />
    <glyph glyph-name="R" unicode="R" horiz-adv-x="1370" 
d="M84 0l20 66l109 4q37 2 53.5 17t16.5 56v1239l-203 -2l20 74h555q228 0 361 -109t133 -288q0 -165 -109 -275.5t-274 -128.5l305 -438q51 -76 122 -120.5t177 -67.5l-16 -47q-248 0 -365 170l-340 487h-264v-565l201 2l-21 -74h-481zM385 702h287q162 0 264 92.5
t102 241.5q0 155 -104.5 250.5t-276.5 95.5h-272v-680z" />
    <glyph glyph-name="S" unicode="S" horiz-adv-x="1202" 
d="M631 -20q-273 0 -449 129l-61 356h51q27 -119 74 -202t109.5 -127.5t129.5 -63.5t148 -19q93 0 170.5 32.5t126.5 101.5t49 163q0 114 -95 192.5t-311 157.5q-101 37 -170.5 73t-124.5 83t-81.5 107t-26.5 135q0 165 127 271t336 106q176 0 344 -97l61 -338h-53
q-30 110 -67.5 182t-87 111t-103.5 53.5t-129 14.5q-152 0 -244 -82t-92 -205q0 -112 95.5 -189t304.5 -153q215 -76 313 -165t98 -234q0 -169 -119 -281t-323 -112z" />
    <glyph glyph-name="T" unicode="T" horiz-adv-x="1388" 
d="M403 0l21 66l147 2q40 3 56 16.5t16 56.5v1241h-315q-36 0 -57.5 -3t-43 -17t-34 -35t-26.5 -63.5t-24.5 -96.5t-25.5 -141h-51l40 453q156 -25 283 -25h610q127 0 283 25l41 -453h-51q-15 87 -26 140.5t-25 97t-26.5 64t-33.5 34.5t-42.5 17t-57.5 3h-316v-1310l242 2
l-20 -74h-564z" />
    <glyph glyph-name="U" unicode="U" horiz-adv-x="1669" 
d="M844 -20q-264 0 -412.5 131.5t-148.5 359.5v911l-203 -2l20 74h498l-20 -65l-125 -5q-35 -2 -51.5 -15t-16.5 -52v-832q0 -194 128 -305.5t353 -111.5q205 0 326 109t121 298v907l-209 -2l20 74h465l-20 -65l-109 -5q-36 -2 -51.5 -15t-15.5 -54v-840q0 -229 -148.5 -362
t-400.5 -133z" />
    <glyph glyph-name="V" unicode="V" horiz-adv-x="1646" 
d="M793 -20l-566 1402l-180 -2l12 74h553l-12 -65l-170 -5q-49 -2 -62.5 -18t3.5 -63l452 -1129l496 1208l-236 -2l13 74h503l-12 -65l-125 -5q-39 -1 -57 -17t-37 -62l-545 -1325h-30z" />
    <glyph glyph-name="W" unicode="W" horiz-adv-x="2265" 
d="M1534 -20l-360 993l-406 -993h-31l-522 1402l-168 -2l12 74h527l-15 -65l-168 -5q-82 -3 -45 -96l412 -1108l365 895l-111 307l-190 -2l12 74h573l-14 -65l-193 -5q-81 -3 -47 -96l394 -1083l370 1177l-213 -2l15 74h487l-12 -65l-140 -5q-34 -1 -52 -21t-36 -73
l-413 -1310h-31z" />
    <glyph glyph-name="X" unicode="X" horiz-adv-x="1581" 
d="M889 0l12 66l197 4q58 2 72 17.5t-11 53.5l-379 523l-434 -592l242 2l-15 -74h-522l12 66l105 4q46 2 77 19.5t62 60.5l426 575l-477 657l-209 -2l12 74h596l-12 -65l-164 -5q-49 -2 -62 -17.5t11 -53.5l379 -518l444 587l-243 -2l14 74h512l-12 -65l-105 -5
q-40 -3 -69.5 -20.5t-59.5 -58.5l-436 -572l481 -661l189 2l-13 -74h-620z" />
    <glyph glyph-name="Y" unicode="Y" horiz-adv-x="1495" 
d="M496 0l20 66l107 4q42 3 60.5 18.5t18.5 58.5v467l-487 768l-168 -2l21 74h526l-21 -65l-153 -5q-47 -1 -55.5 -20.5t16.5 -60.5l387 -609l426 688l-223 -2l14 74h463l-12 -65l-84 -3q-40 -3 -65 -20.5t-54 -62.5l-428 -689v-542l207 2l-21 -74h-495z" />
    <glyph glyph-name="Z" unicode="Z" horiz-adv-x="1314" 
d="M137 0l-20 72l950 1317l-653 -7q-41 -1 -67.5 -6t-51 -23t-41 -44t-35 -76t-33.5 -111.5t-36 -158.5h-52l68 516q121 -25 283 -25h718l21 -72l-952 -1316l657 6q49 1 79.5 6t59 24t45 46t33 81.5t28.5 120t27 170.5h52l-41 -545q-121 25 -283 25h-756z" />
    <glyph glyph-name="bracketleft" unicode="[" horiz-adv-x="671" 
d="M205 -342v1915h385v-70h-291v-1775h305v-70h-399z" />
    <glyph glyph-name="backslash" unicode="\" horiz-adv-x="1214" 
d="M1096 -342h-90l-924 1898h90z" />
    <glyph glyph-name="bracketright" unicode="]" horiz-adv-x="671" 
d="M467 -342h-399v70h305v1775h-291v70h385v-1915z" />
    <glyph glyph-name="asciicircum" unicode="^" horiz-adv-x="708" 
d="M606 1004l-250 397l-252 -397h-90l285 450h111l284 -450h-88z" />
    <glyph glyph-name="underscore" unicode="_" horiz-adv-x="1099" 
d="M31 -342v76h1040v-76h-1040z" />
    <glyph glyph-name="grave" unicode="`" horiz-adv-x="538" 
d="M510 1167l-29 -28l-280 264q-5 4 -15.5 13.5t-14.5 13t-12.5 11t-12 11.5t-9.5 11t-8 11.5t-5 11t-4 12.5t-1 13q0 19 15 34.5t34 15.5q12 0 62.5 -56.5t153.5 -183t126 -154.5z" />
    <glyph glyph-name="a" unicode="a" horiz-adv-x="983" 
d="M715 -18q-12 0 -21 4t-15.5 14t-11 18.5t-7.5 25.5t-4.5 26.5t-3.5 29.5t-3 27h-20q-83 -69 -154.5 -108t-155.5 -39q-106 0 -157 56t-51 132t50 139.5t150 108.5l336 151v199q0 94 -36.5 139t-102.5 45q-59 0 -99.5 -17t-74.5 -54l-35 -60q-22 -36 -50.5 -58t-55.5 -22
q-33 0 -47.5 17t-14.5 39q0 13 40 50t98.5 77t135.5 71t140 31q112 0 155 -64t41 -184q-3 -120 -3.5 -238.5t0.5 -263t1 -192.5l176 -6v-56q-127 -38 -200 -38zM213 188q0 -54 34 -90.5t99 -36.5q77 0 156 43.5t145 126.5v263l-280 -125q-154 -68 -154 -181z" />
    <glyph glyph-name="b" unicode="b" horiz-adv-x="1093" 
d="M541 -20q-224 0 -367 47l-4 10q16 59 16 184v1233l-172 10v58q28 4 86 12t104 14t68 8h15q-8 -131 -8 -380v-252q48 39 126 69.5t164 30.5q187 0 304.5 -137t117.5 -363q0 -238 -122.5 -391t-327.5 -153zM279 180q0 -129 262 -129q154 0 252 127t98 332
q0 197 -97.5 316.5t-248.5 119.5q-129 0 -266 -92v-674z" />
    <glyph glyph-name="c" unicode="c" horiz-adv-x="927" 
d="M535 -20q-187 0 -310 138.5t-123 364.5q0 234 133.5 387.5t331.5 153.5q62 0 161 -21t99 -36q0 -25 -30 -55.5t-56 -30.5q-18 0 -133 41l-76 28h-20q-116 0 -211.5 -129.5t-95.5 -316.5q0 -200 97.5 -319t250.5 -119q74 0 149.5 35t131.5 94l34 -43q-52 -78 -141 -125
t-192 -47z" />
    <glyph glyph-name="d" unicode="d" horiz-adv-x="1142" 
d="M551 -20q-139 0 -242.5 65.5t-155 173.5t-51.5 244q0 249 135.5 405t337.5 156q119 0 240 -66v496l-170 10v58q14 2 114 17t144 17h12q-8 -159 -8 -354v-1118l170 -10v-58q-131 -23 -233 -36h-15l-4 104h-12q-123 -104 -262 -104zM203 473q0 -115 40.5 -208t125 -150.5
t200.5 -57.5q111 0 246 103v651q0 49 -75 95t-169 46q-71 0 -137 -33t-117.5 -93t-82.5 -152t-31 -201z" />
    <glyph glyph-name="e" unicode="e" horiz-adv-x="964" 
d="M537 -20q-198 0 -316.5 138t-118.5 380q0 241 113 383.5t313 142.5q141 0 231.5 -87.5t90.5 -217.5q0 -77 -31 -125h-610q-4 -54 -4 -82q0 -204 96 -325t256 -121q77 0 161.5 34t137.5 88l33 -41q-51 -75 -149 -121t-203 -46zM219 662h496q19 0 27 15t8 50q0 97 -64 160
t-174 63q-115 0 -191 -75t-102 -213z" />
    <glyph glyph-name="f" unicode="f" horiz-adv-x="727" 
d="M84 0l20 63l107 3q27 0 47.5 18t20.5 53v799h-177v49l177 19v157q0 91 18 164t56 131t104.5 89.5t156.5 31.5q108 0 267 -47q0 -28 -26 -58t-52 -30q-17 0 -50 9t-87 26t-80 24h-21q-90 0 -142 -77.5t-52 -221.5v-198h327v-68h-327v-866l262 2l-21 -72h-528z" />
    <glyph glyph-name="g" unicode="g" horiz-adv-x="1032" 
d="M506 -492q-193 0 -322 84t-129 209q0 98 59 172.5t142 108.5q-34 34 -65 74.5t-31 54.5q0 21 57.5 67.5t128.5 73.5q-101 36 -159 120t-58 200q0 156 98.5 254t257.5 98q108 0 185 -47q25 15 81.5 50.5t90 55.5t73 38t60.5 18q46 0 39 -42q-6 -36 -37 -62q-10 -8 -19 -11
l-245 -76q110 -96 110 -262q0 -156 -95 -255t-249 -99q-54 0 -124 -36t-70 -77q0 -31 35 -55.5t88 -28.5l297 -22q130 -10 199 -76.5t69 -167.5q0 -158 -129.5 -259.5t-337.5 -101.5zM152 -170q0 -77 55.5 -135t139 -85.5t179.5 -27.5q153 0 249.5 66.5t96.5 181.5
q0 90 -53 139.5t-174 59.5l-299 24q-32 -8 -63 -23.5t-62 -41.5t-50 -67t-19 -91zM229 684q0 -128 70 -207.5t186 -79.5q107 0 173.5 77t66.5 198q0 128 -67 207t-179 79q-113 0 -181.5 -77t-68.5 -197z" />
    <glyph glyph-name="h" unicode="h" horiz-adv-x="1265" 
d="M84 0l20 63l109 3q27 0 47.5 18t20.5 53v1317l-172 10v58q24 3 84 11.5t105 14.5t69 8h12q-6 -109 -6 -331v-344h12q204 143 367 143q124 0 189 -67t65 -183v-704l204 2l-20 -72h-471l20 63l107 3q27 0 47 18t20 53v611q0 192 -194 192q-153 0 -346 -145v-725l198 2
l-20 -72h-467z" />
    <glyph glyph-name="i" unicode="i" horiz-adv-x="653" 
d="M74 0l20 63l107 3q28 0 47.5 17.5t19.5 53.5v789l-166 6v57q27 4 84 12.5t103 14.5t69 8h11q-1 -33 -5 -122t-4 -136v-696l205 2l-20 -72h-471zM213 1372q0 36 26 62t62 26q34 0 58 -26.5t24 -61.5q0 -34 -24 -59t-58 -25q-36 0 -62 25t-26 59z" />
    <glyph glyph-name="j" unicode="j" horiz-adv-x="462" 
d="M0 -455q33 30 56.5 54.5t55.5 70.5t52.5 94t35.5 119.5t15 151.5v891l-168 6v57q22 3 80 12.5t99.5 15t74.5 7.5h14q-8 -115 -8 -258v-713q0 -110 -23 -202.5t-63.5 -157.5t-86.5 -109.5t-101 -75.5zM160 1372q0 36 26 62t62 26q34 0 58 -26.5t24 -61.5q0 -34 -24 -59
t-58 -25q-36 0 -62 25t-26 59z" />
    <glyph glyph-name="k" unicode="k" horiz-adv-x="1241" 
d="M987 -20q-67 0 -120 32t-109 105l-283 364v21l410 432l-211 -2l20 72h498l-21 -68q-125 -3 -177 -21.5t-120 -89.5l-305 -317q169 -225 303 -363q91 -94 168 -94h88l19 -47q-77 -24 -160 -24zM84 0l20 63l107 3q27 0 47.5 18t20.5 53v1317l-170 10v58q24 3 126.5 17.5
t131.5 16.5h12q-8 -159 -8 -354v-1132l192 2l-20 -72h-459z" />
    <glyph glyph-name="l" unicode="l" horiz-adv-x="657" 
d="M84 0l20 63l107 3q28 0 48 17.5t20 53.5v1317l-170 10v58q23 3 125 17.5t133 16.5h12q-8 -151 -8 -329v-1157l204 2l-20 -72h-471z" />
    <glyph glyph-name="m" unicode="m" horiz-adv-x="1794" 
d="M1247 0l21 63l108 3q27 0 47.5 18t20.5 53v604q0 108 -49 153.5t-138 45.5q-146 0 -311 -131q2 -12 2 -37v-702l201 2l-21 -72h-466l20 63l106 3q28 0 48 17.5t20 53.5v604q0 110 -48.5 154.5t-135.5 44.5q-150 0 -310 -131v-739l199 2l-20 -72h-467l20 63l107 3
q27 0 48 18t21 53v785l-172 10v57q209 32 244 35h14l2 -127h17q56 40 94 63t102 43.5t131 20.5q178 0 228 -139h18q55 40 96 65t110 49.5t134 24.5q126 0 187 -68t61 -184v-702l203 2l-21 -72h-471z" />
    <glyph glyph-name="n" unicode="n" horiz-adv-x="1245" 
d="M698 0l21 63l106 3q27 0 47.5 18t20.5 53v604q0 199 -191 199q-152 0 -340 -145v-725l199 2l-20 -72h-467l20 63l107 3q27 0 48 18t21 53v785l-172 10v57q173 29 246 35h12l4 -141h15q58 40 103 65.5t117 50.5t136 25q127 0 190.5 -66.5t63.5 -183.5v-704l205 2l-21 -72
h-471z" />
    <glyph glyph-name="o" unicode="o" horiz-adv-x="1112" 
d="M557 -20q-201 0 -328 145t-127 375q0 232 125.5 378t329.5 146q202 0 327.5 -144.5t125.5 -375.5q0 -232 -124.5 -378t-328.5 -146zM205 510q0 -201 99 -328t259 -127q156 0 250 121.5t94 317.5q0 201 -99 327.5t-259 126.5q-156 0 -250 -121t-94 -317z" />
    <glyph glyph-name="p" unicode="p" horiz-adv-x="1177" 
d="M74 -471l20 63l107 2q27 0 48 18.5t21 53.5v1260l-168 6v57q24 3 120 18t130 17h10v-115h13q49 43 127 79t168 36q183 0 294 -135.5t111 -364.5q0 -256 -117.5 -400t-312.5 -144q-77 0 -153 21.5t-130 51.5v-454l244 2l-20 -72h-512zM362 182q0 -43 92.5 -87t188.5 -44
q145 0 237.5 121t92.5 338q0 200 -90 316t-234 116q-72 0 -148.5 -30.5t-138.5 -77.5v-652z" />
    <glyph glyph-name="q" unicode="q" horiz-adv-x="1095" 
d="M545 -20q-191 0 -317 131.5t-126 351.5q0 244 138 402.5t350 158.5q98 0 192 -13.5t146 -33.5l4 -10q-25 -77 -25 -209v-1159l174 2l-20 -72h-512l20 63l168 2q30 0 54 18.5t24 57.5v404q-126 -94 -270 -94zM203 475q0 -187 102.5 -302.5t257.5 -115.5q124 0 252 93v669
q0 133 -242 133q-149 0 -259.5 -135.5t-110.5 -341.5z" />
    <glyph glyph-name="r" unicode="r" horiz-adv-x="821" 
d="M74 0l20 63l107 3q27 0 48 18t21 53v785l-172 10v57q23 3 82 13.5t99.5 16t64.5 5.5h12l4 -213h23q41 26 125 83t140 93.5t69 36.5q16 0 29.5 -12t13.5 -31q0 -58 -64 -88l-309 -150q-16 -8 -20.5 -15t-4.5 -30v-628l207 2l-20 -72h-475z" />
    <glyph glyph-name="s" unicode="s" horiz-adv-x="870" 
d="M446 -20q-186 0 -313 86l-37 256h43q25 -81 61.5 -137t81 -84.5t89 -40t98.5 -11.5q72 0 133.5 49.5t61.5 130.5q0 78 -59 135t-181 111q-168 70 -229.5 124t-61.5 155q0 108 82.5 189t226.5 81q143 0 265 -68l30 -254h-43q-34 144 -99 197t-161 53q-93 0 -152 -47
t-59 -127q0 -39 15.5 -68.5t53 -56t75 -45t106.5 -47.5q151 -65 216 -133.5t65 -163.5q0 -117 -85.5 -200.5t-222.5 -83.5z" />
    <glyph glyph-name="t" unicode="t" horiz-adv-x="722" 
d="M408 -20q-215 0 -215 245v711h-144v49l133 43l56 180h47v-204h340v-68h-340v-686q0 -103 39 -149t116 -46q55 0 111 17t90 39l21 -48q-125 -83 -254 -83z" />
    <glyph glyph-name="u" unicode="u" horiz-adv-x="1193" 
d="M483 -20q-241 0 -241 256v690l-166 6v57q18 3 63.5 11t70.5 12t58 8t54 4h12v-762q0 -109 45 -154t133 -45q146 0 330 146v717l-164 6v57q21 3 64.5 11t69.5 12t58.5 8t53.5 4h10v-942l176 -6v-56q-164 -40 -244 -40h-14l-4 141h-14q-182 -141 -351 -141z" />
    <glyph glyph-name="v" unicode="v" horiz-adv-x="1110" 
d="M535 -20l-375 954l-152 -2l21 72h477l-21 -64l-149 -2q-41 0 -51.5 -19t4.5 -63l276 -700l307 778l-202 -2l20 72h410l-21 -64l-71 -2q-33 -1 -52.5 -20.5t-37.5 -63.5l-345 -874h-38z" />
    <glyph glyph-name="w" unicode="w" horiz-adv-x="1585" 
d="M1067 -20l-258 692l-295 -692h-41l-313 954l-152 -2l21 72h463l-21 -64l-139 -2q-41 0 -52 -17.5t3 -60.5l229 -704l260 614l-61 164l-154 -2l21 72h462l-20 -64l-135 -2q-41 0 -52.5 -18.5t3.5 -59.5l258 -688l247 762l-192 -2l20 72h406l-21 -64l-71 -6
q-34 -3 -55.5 -21t-34.5 -59l-285 -874h-41z" />
    <glyph glyph-name="x" unicode="x" horiz-adv-x="1210" 
d="M662 63q164 0 181 27q11 17 -20 57l-229 297l-295 -374l201 2l-21 -72h-432l21 63l69 3q49 1 74 16.5t61 60.5l281 357l-334 434l-158 -2l21 72h485l-20 -64q-179 0 -178 -40q0 -11 12 -26l240 -313l288 373l-196 -2l20 72h430l-20 -64l-68 -2q-49 -1 -73.5 -16
t-61.5 -62l-276 -354l331 -436l162 2l-20 -72h-496z" />
    <glyph glyph-name="y" unicode="y" horiz-adv-x="1138" 
d="M246 -492q-73 0 -120 54q-29 33 -19 48q2 4 8 5l164 20q61 7 102.5 57t83.5 154l67 168l-368 920l-156 -2l21 72h483l-20 -64l-148 -2q-42 0 -54 -19t7 -65l285 -717l321 797l-194 -2l20 72h399l-20 -64l-70 -2q-30 -1 -50 -21t-38 -63l-391 -983q-70 -177 -150.5 -270
t-162.5 -93z" />
    <glyph glyph-name="z" unicode="z" horiz-adv-x="1009" 
d="M129 0l-14 61l639 879l-394 -4q-64 -1 -112 -62.5t-96 -197.5h-43l90 368q108 -40 235 -40h428l12 -62l-636 -879l393 3q26 1 46 7.5t45 27t48 55.5t51 95.5t58 145.5h41l-99 -397h-692z" />
    <glyph glyph-name="braceleft" unicode="{" horiz-adv-x="606" 
d="M82 651q107 5 146.5 39.5t39.5 128.5q0 56 -20 126t-44.5 125.5t-44.5 126.5t-20 128q0 44 10 80t36.5 68.5t69 55t111 35.5t158.5 13l-12 -82h-135q-64 0 -101.5 -40t-37.5 -122q0 -46 20 -111.5t43.5 -123t43.5 -132.5t20 -137q0 -99 -47 -156t-111 -57q64 0 111 -57
t47 -156q0 -62 -20 -136.5t-43.5 -132t-43.5 -123t-20 -111.5q0 -82 37.5 -122t101.5 -40l135 2l12 -84q-112 0 -190 19t-119 55t-58.5 78.5t-17.5 97.5q0 58 20 129t44.5 127.5t44.5 126.5t20 127q0 93 -39.5 127t-146.5 39v69z" />
    <glyph glyph-name="bar" unicode="|" horiz-adv-x="452" 
d="M184 -342v1970h84v-1970h-84z" />
    <glyph glyph-name="braceright" unicode="}" horiz-adv-x="606" 
d="M524 651v-69q-107 -5 -146.5 -39t-39.5 -127q0 -57 20 -127t44.5 -126.5t44.5 -127.5t20 -129q0 -55 -17.5 -97.5t-58.5 -78.5t-119 -55t-190 -19l12 84l135 -2q64 0 102 40t38 122q0 57 -31.5 144.5t-63.5 184t-32 174.5q0 99 46.5 156t110.5 57q-64 0 -110.5 57
t-46.5 156q0 62 20 137t43.5 132.5t43.5 123t20 111.5q0 82 -38 122t-102 40h-135l-12 82q90 0 158.5 -13t111 -35.5t69 -55t36.5 -68.5t10 -80q0 -57 -20 -128t-44.5 -126.5t-44.5 -125.5t-20 -126q0 -94 39.5 -128.5t146.5 -39.5z" />
    <glyph glyph-name="asciitilde" unicode="~" horiz-adv-x="1028" 
d="M98 309q84 254 250 254q54 0 108.5 -23.5t91 -52t81.5 -52t84 -23.5q106 0 149 188l68 -10q-16 -110 -78.5 -185t-155.5 -75q-49 0 -100 24t-86.5 52.5t-83.5 52.5t-92 24q-55 0 -90.5 -42.5t-79.5 -141.5z" />
    <glyph glyph-name="exclamdown" unicode="&#xa1;" horiz-adv-x="622" 
d="M326 649q0 -170 6 -383t15 -453.5t11 -308.5q3 -77 -63 -77q-32 0 -50.5 19.5t-15.5 57.5q2 79 12 310.5t16.5 448.5t6.5 386h62zM205 934q0 38 25.5 64t62.5 26t62.5 -26t25.5 -64q0 -37 -25.5 -62.5t-62.5 -25.5t-62.5 25.5t-25.5 62.5z" />
    <glyph glyph-name="cent" unicode="&#xa2;" horiz-adv-x="927" 
d="M498 1389q-7 43 8 64.5t43 21.5q27 0 41.5 -21.5t7.5 -64.5l-20 -158q65 -2 157 -22t92 -35q0 -25 -30 -56t-56 -31q-18 0 -133 41l-76 29h-20q-116 0 -211.5 -129.5t-95.5 -316.5q0 -200 97.5 -319.5t250.5 -119.5q74 0 149.5 35t131.5 94l34 -43q-45 -68 -121.5 -114
t-166.5 -56l18 -122q7 -43 -7.5 -64.5t-41.5 -21.5q-28 0 -43 21.5t-8 64.5l16 120q-178 8 -295 146t-117 358q0 219 117.5 369t298.5 170z" />
    <glyph glyph-name="sterling" unicode="&#xa3;" horiz-adv-x="1318" 
d="M111 66q40 1 73.5 5.5t71.5 16t67.5 28.5t57.5 46.5t47 67.5t30 93t11 123q0 94 -23 181h-311v71h289q-8 23 -44.5 113.5t-50.5 150.5t-14 132q0 178 111.5 279.5t296.5 101.5q175 0 332 -103l73 -366h-51q-35 122 -74.5 201t-86 120.5t-93.5 56.5t-110 15
q-136 0 -216.5 -78.5t-80.5 -216.5q0 -67 17.5 -131t51 -146t47.5 -129h441l-10 -71h-412q18 -77 18 -170q0 -295 -223 -391q335 4 506 12q166 9 246 103.5t86 295.5h63q0 -135 -26 -229t-77.5 -147.5t-120 -77t-163.5 -23.5h-788l20 66h19z" />
    <glyph glyph-name="currency" unicode="&#xa4;" horiz-adv-x="1220" 
d="M639 190q-203 0 -330 146l-166 -164l-49 51l172 172q-82 133 -82 316q0 184 82 317l-174 172l51 53l166 -166q126 148 330 148q193 0 317 -133l150 149l51 -51l-156 -156q91 -140 91 -329q0 -194 -91 -334l156 -156l-51 -53l-152 152q-124 -134 -315 -134zM287 721
q0 -201 99 -328t259 -127q156 0 250 121.5t94 317.5q0 201 -99 327.5t-259 126.5q-156 0 -250 -121t-94 -317z" />
    <glyph glyph-name="yen" unicode="&#xa5;" horiz-adv-x="1495" 
d="M496 0l20 66l107 4q42 3 60.5 18.5t18.5 58.5v154h-436v72h436v162h-436v71h436v8l-487 768l-168 -2l21 74h526l-21 -65l-153 -5q-47 -1 -55.5 -20.5t16.5 -60.5l387 -609l426 688l-223 -2l14 74h463l-12 -65l-84 -3q-40 -3 -65 -20.5t-54 -62.5l-428 -689v-8h362v-71
h-362v-162h362v-72h-362v-229l207 2l-21 -74h-495z" />
    <glyph glyph-name="brokenbar" unicode="&#xa6;" horiz-adv-x="452" 
d="M184 956v672h84v-672h-84zM184 -342v672h84v-672h-84z" />
    <glyph glyph-name="section" unicode="&#xa7;" horiz-adv-x="1124" 
d="M494 -362q-159 0 -318 67l-55 373h57q79 -359 357 -359q113 0 172 59.5t59 170.5q0 46 -14.5 90t-33 76.5t-59 76t-68 69t-85 76.5t-88.5 79q-131 124 -195.5 262t-50.5 259t102 198v20q0 148 98.5 234t276.5 86q127 0 289 -68l57 -373h-59q-44 198 -123 278.5t-203 80.5
q-123 0 -184 -59t-61 -171q0 -46 14.5 -90.5t32 -76t59 -76t66.5 -68.5t85.5 -77.5t88.5 -78.5q131 -122 195 -259.5t50.5 -258t-100.5 -198.5v-23q0 -149 -93.5 -234t-268.5 -85zM289 1051q-30 -47 -34 -111t18 -139t78.5 -161.5t142.5 -168.5q25 -23 89.5 -83t90.5 -86
t67.5 -72t64 -86t36.5 -83q30 47 33.5 111t-18.5 139t-79 161.5t-143 168.5q-25 24 -75.5 71t-75 70t-62.5 62.5t-59 68t-42 65.5t-32 73z" />
    <glyph glyph-name="dieresis" unicode="&#xa8;" horiz-adv-x="505" 
d="M391 1280q-35 0 -60.5 24.5t-25.5 59.5q0 34 25.5 60t60.5 26t59.5 -26t24.5 -60q0 -35 -24.5 -59.5t-59.5 -24.5zM29 1364q0 34 25.5 60t60.5 26t59.5 -26t24.5 -60q0 -35 -24.5 -59.5t-59.5 -24.5t-60.5 24.5t-25.5 59.5z" />
    <glyph glyph-name="copyright" unicode="&#xa9;" horiz-adv-x="1708" 
d="M854 -20q-154 0 -290 58.5t-232.5 158.5t-152.5 238t-56 292t56 292t152.5 238.5t232.5 159t290 58.5t290 -58.5t232.5 -159t152.5 -238.5t56 -292t-56 -292t-152.5 -238t-232.5 -158.5t-290 -58.5zM211 727q0 -184 86.5 -340t234.5 -246t322 -90q175 0 323 90t234 246
t86 340t-86 340t-234 246t-323 90q-174 0 -322 -90t-234.5 -246t-86.5 -340zM467 719q0 187 122.5 317.5t297.5 130.5q147 0 258 -51l51 -239h-55q-16 49 -36.5 86.5t-52.5 70.5t-78.5 50.5t-105.5 17.5q-121 0 -211 -109t-90 -258q0 -157 98.5 -270t233.5 -113
q55 0 98.5 19t74 55t51 76.5t38.5 95.5h56l-78 -268q-96 -43 -240 -43q-181 0 -306.5 126t-125.5 306z" />
    <glyph glyph-name="ordfeminine" unicode="&#xaa;" horiz-adv-x="854" 
d="M618 627q-55 0 -55 118h-16q-147 -120 -268 -120q-79 0 -123.5 42.5t-44.5 100.5q0 132 155 199l295 125v165q0 78 -29.5 111t-85.5 33q-48 0 -77.5 -11t-55.5 -40l-28 -47q-45 -70 -95 -70q-26 0 -38.5 15t-12.5 32q0 11 33.5 42t81.5 65.5t110.5 61t112.5 26.5
q181 0 174 -205q-2 -108 -2 -553l137 -4v-49q-107 -37 -168 -37zM211 793q0 -88 100 -88q65 0 132.5 34.5t117.5 100.5v188l-246 -106q-57 -25 -80.5 -54t-23.5 -75z" />
    <glyph glyph-name="guillemotleft" unicode="&#xab;" horiz-adv-x="948" 
d="M528 502l310 -307h-82l-340 301v12l340 301h82zM133 496v12l309 356h72l-268 -362l268 -363h-72z" />
    <glyph glyph-name="logicalnot" unicode="&#xac;" horiz-adv-x="870" 
d="M102 616v72h666v-401h-74v329h-592z" />
    <glyph glyph-name="uni00AD" unicode="&#xad;" horiz-adv-x="808" 
d="M141 471v84h516v-84h-516z" />
    <glyph glyph-name="registered" unicode="&#xae;" horiz-adv-x="1038" 
d="M518 848q-166 0 -280.5 112t-114.5 273q0 163 114.5 276t280.5 113q167 0 282 -113t115 -276q0 -161 -115 -273t-282 -112zM184 1235q0 -138 97 -234t237 -96q141 0 238.5 96t97.5 234t-97.5 234t-238.5 96q-140 0 -237 -96t-97 -234zM322 1024l10 41h33q16 0 21 8t5 27
v311h-59l10 43h176q76 0 124 -36.5t48 -96.5q0 -40 -23 -69.5t-63 -43.5l45 -71q40 -62 105 -82l-6 -31q-111 0 -140 45l-78 125h-12h-51v-129h68l-11 -41h-202zM467 1233h43q43 0 68.5 24.5t25.5 65.5q0 39 -26.5 64.5t-71.5 25.5h-39v-180z" />
    <glyph glyph-name="macron" unicode="&#xaf;" horiz-adv-x="536" 
d="M10 1253q0 30 16.5 52t36.5 22h463q0 -28 -16 -51t-37 -23h-463z" />
    <glyph glyph-name="degree" unicode="&#xb0;" horiz-adv-x="546" 
d="M274 1004q-99 0 -168 69t-69 168q0 97 69.5 165.5t167.5 68.5q97 0 166.5 -68.5t69.5 -165.5q0 -99 -69.5 -168t-166.5 -69zM109 1239q0 -70 48 -117t117 -47q67 0 115.5 47.5t48.5 116.5q0 70 -48.5 118t-115.5 48q-69 0 -117 -48t-48 -118z" />
    <glyph glyph-name="plusminus" unicode="&#xb1;" horiz-adv-x="993" 
d="M457 209v342h-314v72h314v340h82v-340h311v-72h-311v-342h-82zM143 0v72h707v-72h-707z" />
    <glyph glyph-name="uni00B2" unicode="&#xb2;" horiz-adv-x="776" 
d="M25 913q212 142 276 193q150 120 186 232q13 42 13 87q0 81 -44 131t-118 50q-70 0 -124.5 -33.5t-113.5 -108.5l-41 43q56 83 134 132t167 49q113 0 175.5 -68t62.5 -180q0 -79 -30.5 -148t-94.5 -131.5t-136.5 -113.5t-182.5 -115h313q59 0 92 42t76 183h49l-61 -321
q-43 12 -88 17.5t-74 6t-103 0.5h-313z" />
    <glyph glyph-name="uni00B3" unicode="&#xb3;" horiz-adv-x="745" 
d="M360 842q-153 0 -251 55l-11 264h43q10 -81 28.5 -134t48.5 -79t62.5 -35.5t79.5 -9.5q87 0 145 53t58 125q0 90 -58 131t-179 41l-17 45q98 41 145.5 84.5t47.5 104.5q0 57 -34 90t-91 33q-60 0 -120.5 -33.5t-106.5 -91.5l-39 41q45 76 122.5 120t161.5 44
q94 0 149.5 -51t55.5 -136q0 -118 -158 -200q99 -8 157 -64t58 -154q0 -105 -85.5 -174t-211.5 -69z" />
    <glyph glyph-name="acute" unicode="&#xb4;" horiz-adv-x="538" 
d="M27 1167q29 35 79 96t88 107.5t77.5 93t64.5 72t33 25.5q19 0 34 -15.5t15 -34.5q0 -7 -1 -13t-4 -12.5t-5 -11t-8 -11.5t-9.5 -11t-12 -11.5t-12.5 -11t-14.5 -13t-15.5 -13.5l-281 -264z" />
    <glyph glyph-name="uni00B5" unicode="&#xb5;" horiz-adv-x="1193" 
d="M483 -20q-132 0 -192 79q9 -256 74 -473l-115 -78q-24 99 -29 321t2 468l19 -6v635l-166 6v57q18 3 63.5 11t70.5 12t58 8t54 4h12v-762q0 -109 45 -154t133 -45q146 0 330 146v717l-164 6v57q21 3 64.5 11t69.5 12t58.5 8t53.5 4h10v-942l176 -6v-56q-164 -40 -244 -40
h-14l-4 141h-14q-182 -141 -351 -141z" />
    <glyph glyph-name="paragraph" unicode="&#xb6;" horiz-adv-x="1241" 
d="M598 557q-85 0 -169.5 32.5t-152.5 89t-110.5 142.5t-42.5 185q0 95 46 180t119.5 143t166 91.5t184.5 33.5h522l-20 -65l-115 -3q-45 -3 -61.5 -16.5t-16.5 -58.5v-1133q0 -406 -272 -528l-31 43q49 36 84.5 75.5t68 98.5t49.5 142t17 188v1185h-121v-825h-145z" />
    <glyph glyph-name="periodcentered" unicode="&#xb7;" horiz-adv-x="616" 
d="M289 416q-35 0 -59.5 25.5t-24.5 62.5t24.5 61.5t59.5 24.5q37 0 61.5 -24.5t24.5 -61.5t-24.5 -62.5t-61.5 -25.5z" />
    <glyph glyph-name="cedilla" unicode="&#xb8;" horiz-adv-x="319" 
d="M80 -494q56 38 90.5 87t34.5 88q0 85 -129 149l51 180h63l-30 -125q121 -71 121 -164q0 -74 -51 -138t-130 -105z" />
    <glyph glyph-name="uni00B9" unicode="&#xb9;" horiz-adv-x="696" 
d="M115 858l20 62l113 4q39 3 63.5 25t24.5 65v467l-244 -15v56q138 6 206.5 41t107.5 125l43 -21q-27 -129 -27 -338v-403l194 2l-20 -70h-481z" />
    <glyph glyph-name="ordmasculine" unicode="&#xba;" horiz-adv-x="962" 
d="M483 625q-164 0 -272.5 119t-108.5 305t106.5 306t270.5 120q165 0 273 -118.5t108 -303.5q0 -188 -105.5 -308t-271.5 -120zM205 1065q0 -163 78.5 -266t205.5 -103q117 0 194 94t77 246q0 162 -80 265.5t-207 103.5q-118 0 -193 -94.5t-75 -245.5z" />
    <glyph glyph-name="guillemotright" unicode="&#xbb;" horiz-adv-x="948" 
d="M420 502l-309 307h82l339 -301v-12l-339 -301h-82zM434 139l268 363l-268 362h72l309 -356v-12l-309 -357h-72z" />
    <glyph glyph-name="onequarter" unicode="&#xbc;" horiz-adv-x="1579" 
d="M115 645l20 62l113 4q39 3 63.5 25t24.5 65v467l-244 -15v56q138 6 206.5 41t107.5 125l43 -21q-27 -129 -27 -338v-403l194 2l-20 -70h-481zM459 4l792 1471l68 -29l-793 -1471zM877 225l428 602l51 -8v-567h143l-20 -72h-123v-180h-88v180h-375zM971 252h297v418z" />
    <glyph glyph-name="onehalf" unicode="&#xbd;" horiz-adv-x="1624" 
d="M115 645l20 62l113 4q39 3 63.5 25t24.5 65v467l-244 -15v56q138 6 206.5 41t107.5 125l43 -21q-27 -129 -27 -338v-403l194 2l-20 -70h-481zM358 4l793 1471l68 -29l-793 -1471zM885 53q212 142 276 193q150 120 186 232q13 42 13 87q0 80 -44 130t-118 50
q-70 0 -124 -33.5t-113 -107.5l-41 43q56 83 134 131.5t167 48.5q113 0 175 -67.5t62 -179.5q0 -79 -30.5 -148t-94.5 -131.5t-136.5 -113.5t-182.5 -115h313q59 0 92 42t76 183h49l-61 -322q-62 17 -113 21t-151 4h-314z" />
    <glyph glyph-name="threequarters" unicode="&#xbe;" horiz-adv-x="1554" 
d="M360 627q-153 0 -251 55l-11 264h43q10 -81 28.5 -134t48.5 -79t62.5 -35.5t79.5 -9.5q87 0 145 53t58 125q0 90 -58 131t-179 41l-17 45q98 41 145.5 84.5t47.5 104.5q0 57 -34 90t-91 33q-60 0 -120.5 -33.5t-106.5 -91.5l-39 41q45 76 122.5 120t161.5 44
q94 0 149.5 -51t55.5 -136q0 -119 -158 -201q99 -8 157 -64t58 -153q0 -105 -85.5 -174t-211.5 -69zM438 4l793 1471l67 -29l-792 -1471zM844 225l428 602l51 -8v-567h143l-20 -72h-123v-180h-88v180h-375zM938 252h297v418z" />
    <glyph glyph-name="questiondown" unicode="&#xbf;" horiz-adv-x="802" 
d="M555 692q43 -209 43 -289q0 -56 -36.5 -114t-88 -107.5t-103 -99.5t-88 -109t-36.5 -118q0 -172 262 -293q32 -13 58 -43t26 -51q0 -17 -12 -28t-37 -11q-52 0 -116 35.5t-121.5 94.5t-96.5 150.5t-39 190.5q0 51 19 99t49.5 86.5t67.5 75t74 71.5t67.5 69.5t49.5 75
t19 82.5q0 79 -22 233h61zM414 936q0 38 25.5 64t62.5 26t62.5 -26t25.5 -64q0 -37 -25.5 -62.5t-62.5 -25.5t-62.5 25.5t-25.5 62.5z" />
    <glyph glyph-name="Agrave" unicode="&#xc0;" horiz-adv-x="1595" 
d="M1032 0l21 66l100 4q37 1 55 4t29.5 13.5t7.5 31t-20 55.5l-117 248h-672l-137 -350l240 2l-21 -74h-471l21 66l55 4q56 2 85 20.5t50 71.5l436 1116q-46 69 -105 91.5t-188 27.5l11 57h315l655 -1382l166 2l-20 -74h-496zM442 1911q0 18 12.5 34.5t30.5 16.5
q11 0 65.5 -53.5t145.5 -148.5t135 -138l-22 -25l-285 205q-44 31 -63 55.5t-19 53.5zM465 492h610l-307 647l-27 55z" />
    <glyph glyph-name="Aacute" unicode="&#xc1;" horiz-adv-x="1595" 
d="M1032 0l21 66l100 4q37 1 55 4t29.5 13.5t7.5 31t-20 55.5l-117 248h-672l-137 -350l240 2l-21 -74h-471l21 66l55 4q56 2 85 20.5t50 71.5l436 1116q-46 69 -105 91.5t-188 27.5l11 57h315l655 -1382l166 2l-20 -74h-496zM465 492h610l-307 647l-27 55zM483 1622
q44 43 135 138t145.5 148.5t65.5 53.5q18 0 30.5 -16.5t12.5 -34.5q0 -30 -19 -54t-62 -55l-285 -205z" />
    <glyph glyph-name="Acircumflex" unicode="&#xc2;" horiz-adv-x="1595" 
d="M1032 0l21 66l100 4q37 1 55 4t29.5 13.5t7.5 31t-20 55.5l-117 248h-672l-137 -350l240 2l-21 -74h-471l21 66l55 4q56 2 85 20.5t50 71.5l436 1116q-46 69 -105 91.5t-188 27.5l11 57h315l655 -1382l166 2l-20 -74h-496zM371 1645q16 20 61.5 79.5t71.5 92.5t61 75.5
t57 63t31 20.5q10 0 31.5 -19.5t58.5 -64.5t61 -74.5t73.5 -94t60.5 -78.5l-33 -25l-252 246l-250 -246zM465 492h610l-307 647l-27 55z" />
    <glyph glyph-name="Atilde" unicode="&#xc3;" horiz-adv-x="1595" 
d="M1032 0l21 66l100 4q37 1 55 4t29.5 13.5t7.5 31t-20 55.5l-117 248h-672l-137 -350l240 2l-21 -74h-471l21 66l55 4q56 2 85 20.5t50 71.5l436 1116q-46 69 -105 91.5t-188 27.5l11 57h315l655 -1382l166 2l-20 -74h-496zM377 1688q29 70 84 114.5t108 44.5
q33 0 64.5 -17t53 -38t52 -38t62.5 -17q34 0 69 32t64 84l37 -20q-25 -74 -76 -120t-107 -46q-31 0 -58 11t-47.5 26.5t-39.5 31.5t-42 27t-48 11q-31 0 -68.5 -30.5t-68.5 -76.5zM465 492h610l-307 647l-27 55z" />
    <glyph glyph-name="Adieresis" unicode="&#xc4;" horiz-adv-x="1595" 
d="M1032 0l21 66l100 4q37 1 55 4t29.5 13.5t7.5 31t-20 55.5l-117 248h-672l-137 -350l240 2l-21 -74h-471l21 66l55 4q56 2 85 20.5t50 71.5l436 1116q-46 69 -105 91.5t-188 27.5l11 57h315l655 -1382l166 2l-20 -74h-496zM457 1792q0 31 22.5 54.5t52.5 23.5
q32 0 54 -23.5t22 -54.5t-22 -52.5t-54 -21.5q-31 0 -53 21.5t-22 52.5zM465 492h610l-307 647l-27 55zM705 1792q0 31 22.5 54.5t54.5 23.5t54 -23.5t22 -54.5t-22 -52.5t-54 -21.5t-54.5 21.5t-22.5 52.5z" />
    <glyph glyph-name="Aring" unicode="&#xc5;" horiz-adv-x="1595" 
d="M1032 0l21 66l100 4q37 1 55 4t29.5 13.5t7.5 31t-20 55.5l-117 248h-672l-137 -350l240 2l-21 -74h-471l21 66l55 4q56 2 85 20.5t50 71.5l436 1116q-46 69 -105 91.5t-188 27.5l11 57h315l655 -1382l166 2l-20 -74h-496zM465 492h610l-307 647l-27 55zM510 1761
q0 61 40.5 98t106.5 37t106 -37t40 -98q0 -60 -40 -98.5t-106 -38.5t-106.5 38.5t-40.5 98.5zM584 1761q0 -41 18.5 -65.5t54.5 -24.5q34 0 53 24.5t19 65.5q0 39 -19 63.5t-53 24.5q-36 0 -54.5 -24t-18.5 -64z" />
    <glyph glyph-name="AE" unicode="&#xc6;" horiz-adv-x="2078" 
d="M20 0l21 66l55 4q55 2 85.5 20.5t62.5 71.5l657 1112q21 37 13 63.5t-63.5 41.5t-164.5 18l10 57h871q166 0 313 25l47 -422h-51q-17 79 -28.5 126.5t-25.5 87.5t-25.5 59t-30 32.5t-37.5 16.5t-50 3h-567v-637h399q44 0 67 7t37.5 35.5t18.5 68t6 121.5h52v-531h-52
q-2 75 -7 114t-19.5 67t-38.5 36.5t-68 8.5h-395v-600h578q35 0 58.5 4.5t46 21.5t37.5 39t34 67.5t35 97t41 136.5h51l-99 -463q-128 25 -243 25h-840l20 66l109 4q38 2 54 15t16 54v533h-375l-354 -600l237 2l-20 -74h-478zM678 745h332v562z" />
    <glyph glyph-name="Ccedilla" unicode="&#xc7;" horiz-adv-x="1507" 
d="M874 -20h-4l-18 -78q121 -71 121 -164q0 -74 -50.5 -138.5t-129.5 -105.5l-21 29q56 38 90.5 86.5t34.5 87.5q0 85 -129 149l39 136q-305 22 -494.5 213t-189.5 489q0 180 56 329.5t154 250t231.5 156t287.5 55.5q230 0 428 -103l74 -373h-51q-31 99 -72 171t-84 114
t-97 67t-104 33.5t-112 8.5q-125 0 -233.5 -46.5t-188.5 -132t-126 -214.5t-46 -287q0 -198 83.5 -347t229 -227t330.5 -78q63 0 106.5 5t89 20t79 43.5t67.5 74t63.5 112.5t59.5 159h51l-96 -414q-190 -81 -429 -81z" />
    <glyph glyph-name="Egrave" unicode="&#xc8;" horiz-adv-x="1343" 
d="M84 0l20 66l109 4q38 2 54 15t16 54v1243l-203 -2l20 74h731q167 0 314 25l47 -422h-51q-17 79 -28.5 126.5t-25.5 87.5t-26 59t-30.5 32.5t-38 16.5t-50.5 3h-557v-587h369q35 0 55.5 5.5t35.5 17.5t22 41.5t10 65.5t4 101h59v-530h-59q-3 143 -24.5 184t-102.5 41h-369
v-649h569q35 0 58.5 4.5t46 21.5t37.5 39t34 67.5t35 97t41 136.5h51l-98 -463q-128 25 -244 25h-831zM475 1911q0 18 12.5 34.5t30.5 16.5q11 0 65.5 -53.5t145.5 -148.5t135 -138l-22 -25l-285 205q-44 31 -63 55.5t-19 53.5z" />
    <glyph glyph-name="Eacute" unicode="&#xc9;" horiz-adv-x="1343" 
d="M84 0l20 66l109 4q38 2 54 15t16 54v1243l-203 -2l20 74h731q167 0 314 25l47 -422h-51q-17 79 -28.5 126.5t-25.5 87.5t-26 59t-30.5 32.5t-38 16.5t-50.5 3h-557v-587h369q35 0 55.5 5.5t35.5 17.5t22 41.5t10 65.5t4 101h59v-530h-59q-3 143 -24.5 184t-102.5 41h-369
v-649h569q35 0 58.5 4.5t46 21.5t37.5 39t34 67.5t35 97t41 136.5h51l-98 -463q-128 25 -244 25h-831zM516 1622q44 43 135 138t145.5 148.5t65.5 53.5q18 0 30.5 -16.5t12.5 -34.5q0 -29 -19 -53.5t-63 -55.5l-284 -205z" />
    <glyph glyph-name="Ecircumflex" unicode="&#xca;" horiz-adv-x="1343" 
d="M84 0l20 66l109 4q38 2 54 15t16 54v1243l-203 -2l20 74h731q167 0 314 25l47 -422h-51q-17 79 -28.5 126.5t-25.5 87.5t-26 59t-30.5 32.5t-38 16.5t-50.5 3h-557v-587h369q35 0 55.5 5.5t35.5 17.5t22 41.5t10 65.5t4 101h59v-530h-59q-3 143 -24.5 184t-102.5 41h-369
v-649h569q35 0 58.5 4.5t46 21.5t37.5 39t34 67.5t35 97t41 136.5h51l-98 -463q-128 25 -244 25h-831zM403 1645q13 17 61 79t72.5 93t61 75t58 64t30.5 20q10 0 31.5 -19.5t58.5 -64.5t61 -74.5t73.5 -94t60.5 -78.5l-33 -25l-252 246l-250 -246z" />
    <glyph glyph-name="Edieresis" unicode="&#xcb;" horiz-adv-x="1343" 
d="M84 0l20 66l109 4q38 2 54 15t16 54v1243l-203 -2l20 74h731q167 0 314 25l47 -422h-51q-17 79 -28.5 126.5t-25.5 87.5t-26 59t-30.5 32.5t-38 16.5t-50.5 3h-557v-587h369q35 0 55.5 5.5t35.5 17.5t22 41.5t10 65.5t4 101h59v-530h-59q-3 143 -24.5 184t-102.5 41h-369
v-649h569q35 0 58.5 4.5t46 21.5t37.5 39t34 67.5t35 97t41 136.5h51l-98 -463q-128 25 -244 25h-831zM489 1792q0 31 22.5 54.5t53.5 23.5q32 0 54 -23.5t22 -54.5t-22 -52.5t-54 -21.5q-31 0 -53.5 21.5t-22.5 52.5zM737 1792q0 31 23 54.5t55 23.5t54 -23.5t22 -54.5
t-22 -52.5t-54 -21.5t-55 21.5t-23 52.5z" />
    <glyph glyph-name="Igrave" unicode="&#xcc;" horiz-adv-x="665" 
d="M84 0l20 66l109 4q37 2 53.5 14.5t16.5 50.5v1247l-203 -2l20 74h482l-21 -65l-108 -5q-35 -2 -51.5 -15t-16.5 -52v-1245l201 2l-21 -74h-481zM125 1911q0 18 12.5 34.5t30.5 16.5q11 0 65.5 -53.5t145.5 -148.5t135 -138l-22 -25l-285 205q-44 31 -63 55.5t-19 53.5z
" />
    <glyph glyph-name="Iacute" unicode="&#xcd;" horiz-adv-x="665" 
d="M84 0l20 66l109 4q37 2 53.5 14.5t16.5 50.5v1247l-203 -2l20 74h482l-21 -65l-108 -5q-35 -2 -51.5 -15t-16.5 -52v-1245l201 2l-21 -74h-481zM166 1622q44 43 135 138t145.5 148.5t65.5 53.5q18 0 30.5 -16.5t12.5 -34.5q0 -29 -19 -53.5t-63 -55.5l-285 -205z" />
    <glyph glyph-name="Icircumflex" unicode="&#xce;" horiz-adv-x="665" 
d="M84 0l20 66l109 4q37 2 53.5 14.5t16.5 50.5v1247l-203 -2l20 74h482l-21 -65l-108 -5q-35 -2 -51.5 -15t-16.5 -52v-1245l201 2l-21 -74h-481zM53 1645q13 17 61 79t72.5 93t61 75t58 64t30.5 20q10 0 31.5 -19.5t58.5 -64.5t61 -74.5t73.5 -94t60.5 -78.5l-33 -25
l-252 246l-250 -246z" />
    <glyph glyph-name="Idieresis" unicode="&#xcf;" horiz-adv-x="665" 
d="M84 0l20 66l109 4q37 2 53.5 14.5t16.5 50.5v1247l-203 -2l20 74h482l-21 -65l-108 -5q-35 -2 -51.5 -15t-16.5 -52v-1245l201 2l-21 -74h-481zM139 1792q0 31 22.5 54.5t53.5 23.5q32 0 54 -23.5t22 -54.5t-22 -52.5t-54 -21.5q-31 0 -53.5 21.5t-22.5 52.5zM387 1792
q0 31 23 54.5t55 23.5t54 -23.5t22 -54.5t-22 -52.5t-54 -21.5t-55 21.5t-23 52.5z" />
    <glyph glyph-name="Eth" unicode="&#xd0;" horiz-adv-x="1519" 
d="M92 696v66h191v620l-203 -2l20 74h566q337 0 534 -194t197 -519q0 -338 -199.5 -539.5t-531.5 -201.5h-582l20 66l109 4q37 2 53.5 14.5t16.5 50.5v561h-191zM385 72h279q284 0 450 178t166 479q0 302 -167 477.5t-462 175.5h-266v-620h332v-66h-332v-624z" />
    <glyph glyph-name="Ntilde" unicode="&#xd1;" horiz-adv-x="1644" 
d="M92 0l21 66l110 4q41 2 57.5 14.5t16.5 56.5v1188q-45 33 -103.5 47.5t-158.5 20.5l10 57h295l1003 -1304v1232l-213 -2l21 74h473l-20 -65l-107 -5q-45 -3 -62.5 -18t-17.5 -63v-1272l-74 -51l-972 1269v-1177l219 2l-21 -74h-477zM580 1688q29 70 84 114.5t108 44.5
q33 0 64.5 -17t53 -38t52 -38t62.5 -17q34 0 69 32t64 84l37 -20q-25 -74 -76 -120t-107 -46q-31 0 -58 11t-47.5 26.5t-39.5 31.5t-42 27t-48 11q-31 0 -69.5 -30.5t-68.5 -76.5z" />
    <glyph glyph-name="Ograve" unicode="&#xd2;" horiz-adv-x="1632" 
d="M817 -20q-199 0 -357.5 94.5t-247.5 264.5t-89 384q0 217 87.5 388.5t246 267.5t360.5 96q198 0 356 -95t247 -265t89 -384q0 -217 -87.5 -388t-245.5 -267t-359 -96zM240 737q0 -298 162.5 -487t424.5 -189q252 0 409 183t157 473q0 196 -73.5 349.5t-208.5 240
t-308 86.5q-166 0 -294.5 -83.5t-198.5 -232.5t-70 -340zM610 1911q0 18 12.5 34.5t30.5 16.5q11 0 65.5 -53.5t145.5 -148.5t135 -138l-22 -25l-285 205q-44 31 -63 55.5t-19 53.5z" />
    <glyph glyph-name="Oacute" unicode="&#xd3;" horiz-adv-x="1632" 
d="M817 -20q-199 0 -357.5 94.5t-247.5 264.5t-89 384q0 217 87.5 388.5t246 267.5t360.5 96q198 0 356 -95t247 -265t89 -384q0 -217 -87.5 -388t-245.5 -267t-359 -96zM240 737q0 -298 162.5 -487t424.5 -189q252 0 409 183t157 473q0 196 -73.5 349.5t-208.5 240
t-308 86.5q-166 0 -294.5 -83.5t-198.5 -232.5t-70 -340zM651 1622q44 43 135 138t145.5 148.5t65.5 53.5q18 0 30.5 -16.5t12.5 -34.5q0 -29 -19 -53.5t-63 -55.5l-284 -205z" />
    <glyph glyph-name="Ocircumflex" unicode="&#xd4;" horiz-adv-x="1632" 
d="M817 -20q-199 0 -357.5 94.5t-247.5 264.5t-89 384q0 217 87.5 388.5t246 267.5t360.5 96q198 0 356 -95t247 -265t89 -384q0 -217 -87.5 -388t-245.5 -267t-359 -96zM240 737q0 -298 162.5 -487t424.5 -189q252 0 409 183t157 473q0 196 -73.5 349.5t-208.5 240
t-308 86.5q-166 0 -294.5 -83.5t-198.5 -232.5t-70 -340zM539 1645q16 20 61.5 79.5t71.5 92.5t61 75.5t57 63t31 20.5q10 0 31.5 -19.5t58.5 -64.5t61 -74.5t73.5 -94t60.5 -78.5l-33 -25l-252 246l-250 -246z" />
    <glyph glyph-name="Otilde" unicode="&#xd5;" horiz-adv-x="1632" 
d="M817 -20q-199 0 -357.5 94.5t-247.5 264.5t-89 384q0 217 87.5 388.5t246 267.5t360.5 96q198 0 356 -95t247 -265t89 -384q0 -217 -87.5 -388t-245.5 -267t-359 -96zM240 737q0 -298 162.5 -487t424.5 -189q252 0 409 183t157 473q0 196 -73.5 349.5t-208.5 240
t-308 86.5q-166 0 -294.5 -83.5t-198.5 -232.5t-70 -340zM545 1688q29 70 84 114.5t108 44.5q33 0 64.5 -17t53 -38t52 -38t62.5 -17q34 0 69 32t64 84l37 -20q-25 -74 -76 -120t-107 -46q-31 0 -58 11t-47.5 26.5t-39.5 31.5t-42 27t-48 11q-31 0 -68.5 -30.5t-68.5 -76.5z
" />
    <glyph glyph-name="Odieresis" unicode="&#xd6;" horiz-adv-x="1632" 
d="M817 -20q-199 0 -357.5 94.5t-247.5 264.5t-89 384q0 217 87.5 388.5t246 267.5t360.5 96q198 0 356 -95t247 -265t89 -384q0 -217 -87.5 -388t-245.5 -267t-359 -96zM240 737q0 -298 162.5 -487t424.5 -189q252 0 409 183t157 473q0 196 -73.5 349.5t-208.5 240
t-308 86.5q-166 0 -294.5 -83.5t-198.5 -232.5t-70 -340zM625 1792q0 31 22.5 54.5t52.5 23.5q32 0 54 -23.5t22 -54.5t-22 -52.5t-54 -21.5q-31 0 -53 21.5t-22 52.5zM872 1792q0 31 23 54.5t55 23.5t54 -23.5t22 -54.5t-22 -52.5t-54 -21.5t-55 21.5t-23 52.5z" />
    <glyph glyph-name="multiply" unicode="&#xd7;" horiz-adv-x="921" 
d="M143 193l265 264l-263 262l50 49l262 -262l266 266l55 -57l-264 -264l260 -263l-49 -49l-260 262l-266 -266z" />
    <glyph glyph-name="Oslash" unicode="&#xd8;" horiz-adv-x="1703" 
d="M123 0l209 223q-166 206 -166 500q0 217 87.5 388.5t246 267.5t360.5 96q279 0 469 -181l152 162h100l-201 -217q172 -204 172 -508q0 -217 -87.5 -388t-245.5 -267t-359 -96q-288 0 -479 188l-158 -168h-100zM283 737q0 -257 123 -434l854 916q-160 174 -414 174
q-166 0 -294.5 -83.5t-198.5 -232.5t-70 -340zM451 244q78 -88 185 -135.5t234 -47.5q252 0 409 183t157 473q0 260 -129 444z" />
    <glyph glyph-name="Ugrave" unicode="&#xd9;" horiz-adv-x="1669" 
d="M844 -20q-264 0 -412.5 131.5t-148.5 359.5v911l-203 -2l20 74h498l-20 -65l-125 -5q-35 -2 -51.5 -15t-16.5 -52v-832q0 -194 128 -305.5t353 -111.5q205 0 326 109t121 298v907l-209 -2l20 74h465l-20 -65l-109 -5q-36 -2 -51.5 -15t-15.5 -54v-840q0 -229 -148.5 -362
t-400.5 -133zM639 1911q0 18 12.5 34.5t30.5 16.5q11 0 65.5 -53.5t145.5 -148.5t135 -138l-22 -25l-285 205q-44 31 -63 55.5t-19 53.5z" />
    <glyph glyph-name="Uacute" unicode="&#xda;" horiz-adv-x="1669" 
d="M844 -20q-264 0 -412.5 131.5t-148.5 359.5v911l-203 -2l20 74h498l-20 -65l-125 -5q-35 -2 -51.5 -15t-16.5 -52v-832q0 -194 128 -305.5t353 -111.5q205 0 326 109t121 298v907l-209 -2l20 74h465l-20 -65l-109 -5q-36 -2 -51.5 -15t-15.5 -54v-840q0 -229 -148.5 -362
t-400.5 -133zM680 1622q44 43 135 138t145.5 148.5t65.5 53.5q18 0 30.5 -16.5t12.5 -34.5q0 -29 -19 -53.5t-63 -55.5l-285 -205z" />
    <glyph glyph-name="Ucircumflex" unicode="&#xdb;" horiz-adv-x="1669" 
d="M844 -20q-264 0 -412.5 131.5t-148.5 359.5v911l-203 -2l20 74h498l-20 -65l-125 -5q-35 -2 -51.5 -15t-16.5 -52v-832q0 -194 128 -305.5t353 -111.5q205 0 326 109t121 298v907l-209 -2l20 74h465l-20 -65l-109 -5q-36 -2 -51.5 -15t-15.5 -54v-840q0 -229 -148.5 -362
t-400.5 -133zM567 1645q13 17 61 79t72.5 93t61 75t58 64t30.5 20q10 0 31.5 -19.5t58.5 -64.5t61 -74.5t73.5 -94t60.5 -78.5l-33 -25l-252 246l-250 -246z" />
    <glyph glyph-name="Udieresis" unicode="&#xdc;" horiz-adv-x="1669" 
d="M844 -20q-264 0 -412.5 131.5t-148.5 359.5v911l-203 -2l20 74h498l-20 -65l-125 -5q-35 -2 -51.5 -15t-16.5 -52v-832q0 -194 128 -305.5t353 -111.5q205 0 326 109t121 298v907l-209 -2l20 74h465l-20 -65l-109 -5q-36 -2 -51.5 -15t-15.5 -54v-840q0 -229 -148.5 -362
t-400.5 -133zM653 1792q0 31 22.5 54.5t53.5 23.5q32 0 54 -23.5t22 -54.5t-22 -52.5t-54 -21.5q-31 0 -53.5 21.5t-22.5 52.5zM901 1792q0 31 23 54.5t55 23.5t54 -23.5t22 -54.5t-22 -52.5t-54 -21.5t-55 21.5t-23 52.5z" />
    <glyph glyph-name="Yacute" unicode="&#xdd;" horiz-adv-x="1495" 
d="M496 0l20 66l107 4q42 3 60.5 18.5t18.5 58.5v467l-487 768l-168 -2l21 74h526l-21 -65l-153 -5q-47 -1 -55.5 -20.5t16.5 -60.5l387 -609l426 688l-223 -2l14 74h463l-12 -65l-84 -3q-40 -3 -65 -20.5t-54 -62.5l-428 -689v-542l207 2l-21 -74h-495zM606 1622
q44 43 135 138t145.5 148.5t65.5 53.5q18 0 30.5 -16.5t12.5 -34.5q0 -29 -19 -53.5t-63 -55.5l-284 -205z" />
    <glyph glyph-name="Thorn" unicode="&#xde;" horiz-adv-x="1253" 
d="M84 0l20 66l109 4q37 2 53.5 14.5t16.5 50.5v1247l-203 -2l20 74h482l-21 -65l-108 -5q-35 -2 -51.5 -15t-16.5 -52v-168h285q228 0 364.5 -112.5t136.5 -303.5q0 -189 -137.5 -307.5t-363.5 -118.5h-285v-235l201 2l-21 -74h-481zM385 377h272q183 0 292.5 94t109.5 254
q0 163 -109.5 257.5t-292.5 94.5h-272v-700z" />
    <glyph glyph-name="germandbls" unicode="&#xdf;" horiz-adv-x="1333" 
d="M885 -20q-194 0 -305 77l-37 289h43q24 -90 59 -151.5t77.5 -91.5t82.5 -42t88 -12q99 0 163 61t64 187q0 49 -16 94.5t-39 81.5t-65.5 74.5t-76.5 64t-93 59.5t-94 52.5t-99 50.5q160 106 240.5 211.5t80.5 233.5q0 137 -76.5 209.5t-203.5 72.5q-145 0 -225 -96.5
t-80 -269.5v-1135h-289l20 63l107 3q28 0 49 18t21 53v977q0 212 108 337.5t297 125.5q168 0 270.5 -94t102.5 -262q0 -89 -47 -178t-106 -147.5t-122 -96.5q46 -25 67.5 -36.5t66 -37.5t67.5 -42.5t60 -44.5t57 -50.5t45.5 -54.5t38.5 -62.5t22 -68t9 -76.5
q0 -153 -94 -249.5t-238 -96.5z" />
    <glyph glyph-name="agrave" unicode="&#xe0;" horiz-adv-x="983" 
d="M715 -18q-12 0 -21 4t-15.5 14t-11 18.5t-7.5 25.5t-4.5 26.5t-3.5 29.5t-3 27h-20q-83 -69 -154.5 -108t-155.5 -39q-106 0 -157 56t-51 132t50 139.5t150 108.5l336 151v199q0 94 -36.5 139t-102.5 45q-59 0 -99.5 -17t-74.5 -54l-35 -60q-22 -36 -50.5 -58t-55.5 -22
q-33 0 -47.5 17t-14.5 39q0 13 40 50t98.5 77t135.5 71t140 31q112 0 155 -64t41 -184q-3 -120 -3.5 -238.5t0.5 -263t1 -192.5l176 -6v-56q-127 -38 -200 -38zM213 188q0 -54 34 -90.5t99 -36.5q77 0 156 43.5t145 126.5v263l-280 -125q-154 -68 -154 -181zM272 1511
q0 19 15.5 34.5t34.5 15.5q12 0 62.5 -56.5t153.5 -183t126 -154.5l-29 -28l-281 264q-5 4 -15.5 13.5t-14.5 13t-12.5 11t-12 11.5t-9.5 11t-8 11.5t-5 11t-4 12.5t-1 13z" />
    <glyph glyph-name="aacute" unicode="&#xe1;" horiz-adv-x="983" 
d="M715 -18q-12 0 -21 4t-15.5 14t-11 18.5t-7.5 25.5t-4.5 26.5t-3.5 29.5t-3 27h-20q-83 -69 -154.5 -108t-155.5 -39q-106 0 -157 56t-51 132t50 139.5t150 108.5l336 151v199q0 94 -36.5 139t-102.5 45q-59 0 -99.5 -17t-74.5 -54l-35 -60q-22 -36 -50.5 -58t-55.5 -22
q-33 0 -47.5 17t-14.5 39q0 13 40 50t98.5 77t135.5 71t140 31q112 0 155 -64t41 -184q-3 -120 -3.5 -238.5t0.5 -263t1 -192.5l176 -6v-56q-127 -38 -200 -38zM213 188q0 -54 34 -90.5t99 -36.5q77 0 156 43.5t145 126.5v263l-280 -125q-154 -68 -154 -181zM332 1167
q29 35 79 96t88 107.5t77.5 93t64.5 72t33 25.5q19 0 34 -15.5t15 -34.5q0 -7 -1 -13t-4 -12.5t-5 -11t-8 -11.5t-9.5 -11t-12 -11.5t-12.5 -11t-14.5 -13t-15.5 -13.5l-281 -264z" />
    <glyph glyph-name="acircumflex" unicode="&#xe2;" horiz-adv-x="983" 
d="M715 -18q-12 0 -21 4t-15.5 14t-11 18.5t-7.5 25.5t-4.5 26.5t-3.5 29.5t-3 27h-20q-83 -69 -154.5 -108t-155.5 -39q-106 0 -157 56t-51 132t50 139.5t150 108.5l336 151v199q0 94 -36.5 139t-102.5 45q-59 0 -99.5 -17t-74.5 -54l-35 -60q-22 -36 -50.5 -58t-55.5 -22
q-33 0 -47.5 17t-14.5 39q0 13 40 50t98.5 77t135.5 71t140 31q112 0 155 -64t41 -184q-3 -120 -3.5 -238.5t0.5 -263t1 -192.5l176 -6v-56q-127 -38 -200 -38zM213 188q0 -54 34 -90.5t99 -36.5q77 0 156 43.5t145 126.5v263l-280 -125q-154 -68 -154 -181zM217 1159
q244 402 281 402q34 0 278 -402l-37 -20l-241 307l-244 -307z" />
    <glyph glyph-name="atilde" unicode="&#xe3;" horiz-adv-x="983" 
d="M715 -18q-12 0 -21 4t-15.5 14t-11 18.5t-7.5 25.5t-4.5 26.5t-3.5 29.5t-3 27h-20q-83 -69 -154.5 -108t-155.5 -39q-106 0 -157 56t-51 132t50 139.5t150 108.5l336 151v199q0 94 -36.5 139t-102.5 45q-59 0 -99.5 -17t-74.5 -54l-35 -60q-22 -36 -50.5 -58t-55.5 -22
q-33 0 -47.5 17t-14.5 39q0 13 40 50t98.5 77t135.5 71t140 31q112 0 155 -64t41 -184q-3 -120 -3.5 -238.5t0.5 -263t1 -192.5l176 -6v-56q-127 -38 -200 -38zM199 1217q26 90 74 137t110 47q35 0 72 -19t64 -42.5t62 -42.5t66 -19q42 0 77 38.5t48 104.5l43 -20
q-12 -90 -63.5 -143.5t-114.5 -53.5q-37 0 -76 18.5t-66 41t-61.5 41t-64.5 18.5q-41 0 -71.5 -30.5t-59.5 -96.5zM213 188q0 -54 34 -90.5t99 -36.5q77 0 156 43.5t145 126.5v263l-280 -125q-154 -68 -154 -181z" />
    <glyph glyph-name="adieresis" unicode="&#xe4;" horiz-adv-x="983" 
d="M715 -18q-12 0 -21 4t-15.5 14t-11 18.5t-7.5 25.5t-4.5 26.5t-3.5 29.5t-3 27h-20q-83 -69 -154.5 -108t-155.5 -39q-106 0 -157 56t-51 132t50 139.5t150 108.5l336 151v199q0 94 -36.5 139t-102.5 45q-59 0 -99.5 -17t-74.5 -54l-35 -60q-22 -36 -50.5 -58t-55.5 -22
q-33 0 -47.5 17t-14.5 39q0 13 40 50t98.5 77t135.5 71t140 31q112 0 155 -64t41 -184q-3 -120 -3.5 -238.5t0.5 -263t1 -192.5l176 -6v-56q-127 -38 -200 -38zM213 188q0 -54 34 -90.5t99 -36.5q77 0 156 43.5t145 126.5v263l-280 -125q-154 -68 -154 -181zM274 1364
q0 34 25.5 60t60.5 26t59.5 -26t24.5 -60q0 -35 -24.5 -59.5t-59.5 -24.5t-60.5 24.5t-25.5 59.5zM551 1364q0 34 25.5 60t60.5 26t59.5 -26t24.5 -60q0 -35 -24.5 -59.5t-59.5 -24.5t-60.5 24.5t-25.5 59.5z" />
    <glyph glyph-name="aring" unicode="&#xe5;" horiz-adv-x="983" 
d="M715 -18q-12 0 -21 4t-15.5 14t-11 18.5t-7.5 25.5t-4.5 26.5t-3.5 29.5t-3 27h-20q-83 -69 -154.5 -108t-155.5 -39q-106 0 -157 56t-51 132t50 139.5t150 108.5l336 151v199q0 94 -36.5 139t-102.5 45q-59 0 -99.5 -17t-74.5 -54l-35 -60q-22 -36 -50.5 -58t-55.5 -22
q-33 0 -47.5 17t-14.5 39q0 13 40 50t98.5 77t135.5 71t140 31q112 0 155 -64t41 -184q-3 -120 -3.5 -238.5t0.5 -263t1 -192.5l176 -6v-56q-127 -38 -200 -38zM213 188q0 -54 34 -90.5t99 -36.5q77 0 156 43.5t145 126.5v263l-280 -125q-154 -68 -154 -181zM334 1309
q0 69 46.5 109t117.5 40t116 -40t45 -109q0 -68 -45.5 -109t-115.5 -41q-71 0 -117.5 41t-46.5 109zM410 1309q0 -48 22.5 -76.5t65.5 -28.5t65.5 28.5t22.5 76.5q0 49 -22.5 76.5t-65.5 27.5t-65.5 -27.5t-22.5 -76.5z" />
    <glyph glyph-name="ae" unicode="&#xe6;" horiz-adv-x="1480" 
d="M1079 -20q-198 0 -322 134t-128 361l-287 -129q-71 -33 -105 -74.5t-34 -97.5q0 -50 33.5 -81.5t99.5 -31.5q134 0 252 103l24 -39q-59 -63 -137.5 -104t-165.5 -41q-97 0 -153 52.5t-56 123.5q0 150 187 235l344 160v215q3 92 -35.5 138t-103.5 46q-82 0 -150 -71
l-35 -60q-53 -80 -108 -80q-32 0 -46 17t-14 39q0 13 42.5 50t101 77t128.5 71t117 31q95 0 140 -45.5t55 -132.5q120 178 332 178q140 0 230.5 -87.5t90.5 -217.5q0 -76 -28 -107h-445v41l340 27q37 6 37 47q0 96 -67 159.5t-179 63.5q-132 0 -217.5 -125.5t-85.5 -322.5
q0 -201 102 -318.5t269 -117.5q74 0 149 33t129 89l35 -41q-52 -76 -142.5 -121.5t-193.5 -45.5z" />
    <glyph glyph-name="ccedilla" unicode="&#xe7;" horiz-adv-x="927" 
d="M440 -477q56 38 90.5 86.5t34.5 87.5q0 85 -129 149l39 138q-165 22 -269 156.5t-104 342.5q0 234 133.5 387.5t331.5 153.5q62 0 161 -21t99 -36q0 -25 -30 -55.5t-56 -30.5q-18 0 -133 41l-76 28h-20q-116 0 -211.5 -129.5t-95.5 -316.5q0 -200 97.5 -319t250.5 -119
q74 0 149.5 35t131.5 94l34 -43q-52 -76 -140 -123.5t-189 -48.5l-19 -78q121 -71 121 -164q0 -74 -50.5 -138.5t-129.5 -105.5z" />
    <glyph glyph-name="egrave" unicode="&#xe8;" horiz-adv-x="964" 
d="M537 -20q-198 0 -316.5 138t-118.5 380q0 241 113 383.5t313 142.5q141 0 231.5 -87.5t90.5 -217.5q0 -77 -31 -125h-610q-4 -54 -4 -82q0 -204 96 -325t256 -121q77 0 161.5 34t137.5 88l33 -41q-51 -75 -149 -121t-203 -46zM219 662h496q19 0 27 15t8 50q0 97 -64 160
t-174 63q-115 0 -191 -75t-102 -213zM303 1511q0 19 15 34.5t34 15.5q12 0 62.5 -56.5t153.5 -183t126 -154.5l-28 -28l-281 264q-5 4 -15.5 13.5t-14.5 13t-12.5 11t-12 11.5t-9.5 11t-8 11.5t-5 11t-4 12.5t-1 13z" />
    <glyph glyph-name="eacute" unicode="&#xe9;" horiz-adv-x="964" 
d="M537 -20q-198 0 -316.5 138t-118.5 380q0 241 113 383.5t313 142.5q141 0 231.5 -87.5t90.5 -217.5q0 -77 -31 -125h-610q-4 -54 -4 -82q0 -204 96 -325t256 -121q77 0 161.5 34t137.5 88l33 -41q-51 -75 -149 -121t-203 -46zM219 662h496q19 0 27 15t8 50q0 97 -64 160
t-174 63q-115 0 -191 -75t-102 -213zM362 1167q29 34 79.5 96t88 107.5t77.5 92.5t65 72.5t33 25.5q19 0 34 -15.5t15 -34.5q0 -7 -1 -13t-4 -12.5t-5 -11t-8 -11.5t-9.5 -11t-12 -11.5t-12.5 -11t-14.5 -13t-15.5 -13.5l-281 -264z" />
    <glyph glyph-name="ecircumflex" unicode="&#xea;" horiz-adv-x="964" 
d="M537 -20q-198 0 -316.5 138t-118.5 380q0 241 113 383.5t313 142.5q141 0 231.5 -87.5t90.5 -217.5q0 -77 -31 -125h-610q-4 -54 -4 -82q0 -204 96 -325t256 -121q77 0 161.5 34t137.5 88l33 -41q-51 -75 -149 -121t-203 -46zM219 662h496q19 0 27 15t8 50q0 97 -64 160
t-174 63q-115 0 -191 -75t-102 -213zM248 1159q244 402 280 402q35 0 279 -402l-37 -20l-242 307l-243 -307z" />
    <glyph glyph-name="edieresis" unicode="&#xeb;" horiz-adv-x="964" 
d="M537 -20q-198 0 -316.5 138t-118.5 380q0 241 113 383.5t313 142.5q141 0 231.5 -87.5t90.5 -217.5q0 -77 -31 -125h-610q-4 -54 -4 -82q0 -204 96 -325t256 -121q77 0 161.5 34t137.5 88l33 -41q-51 -75 -149 -121t-203 -46zM219 662h496q19 0 27 15t8 50q0 97 -64 160
t-174 63q-115 0 -191 -75t-102 -213zM305 1364q0 34 25.5 60t60.5 26t59.5 -26t24.5 -60q0 -35 -24.5 -59.5t-59.5 -24.5t-60.5 24.5t-25.5 59.5zM582 1364q0 34 25.5 60t60.5 26t59.5 -26t24.5 -60q0 -35 -24.5 -59.5t-59.5 -24.5t-60.5 24.5t-25.5 59.5z" />
    <glyph glyph-name="igrave" unicode="&#xec;" horiz-adv-x="653" 
d="M74 0l20 63l107 3q28 0 47.5 17.5t19.5 53.5v789l-166 6v57q27 4 84 12.5t103 14.5t69 8h11q-1 -33 -5 -122t-4 -136v-696l205 2l-20 -72h-471zM72 1511q0 19 15 34.5t34 15.5q12 0 62.5 -56.5t153.5 -183t126 -154.5l-29 -28l-280 264q-5 4 -15.5 13.5t-14.5 13
t-12.5 11t-12 11.5t-9.5 11t-8 11.5t-5 11t-4 12.5t-1 13z" />
    <glyph glyph-name="iacute" unicode="&#xed;" horiz-adv-x="653" 
d="M74 0l20 63l107 3q28 0 47.5 17.5t19.5 53.5v789l-166 6v57q27 4 84 12.5t103 14.5t69 8h11q-1 -33 -5 -122t-4 -136v-696l205 2l-20 -72h-471zM131 1167q29 35 79 96t88 107.5t77.5 93t64.5 72t33 25.5q19 0 34 -15.5t15 -34.5q0 -7 -1 -13t-4 -12.5t-5 -11t-8 -11.5
t-9.5 -11t-12 -11.5t-12.5 -11t-14.5 -13t-15.5 -13.5l-280 -264z" />
    <glyph glyph-name="icircumflex" unicode="&#xee;" horiz-adv-x="653" 
d="M74 0l20 63l107 3q28 0 47.5 17.5t19.5 53.5v789l-166 6v57q27 4 84 12.5t103 14.5t69 8h11q-1 -33 -5 -122t-4 -136v-696l205 2l-20 -72h-471zM16 1159q244 402 281 402q34 0 278 -402l-36 -20l-242 307l-244 -307z" />
    <glyph glyph-name="idieresis" unicode="&#xef;" horiz-adv-x="653" 
d="M74 0l20 63l107 3q28 0 47.5 17.5t19.5 53.5v789l-166 6v57q27 4 84 12.5t103 14.5t69 8h11q-1 -33 -5 -122t-4 -136v-696l205 2l-20 -72h-471zM74 1364q0 34 25.5 60t60.5 26t59.5 -26t24.5 -60q0 -35 -24.5 -59.5t-59.5 -24.5t-60.5 24.5t-25.5 59.5zM350 1364
q0 34 25.5 60t60.5 26t59.5 -26t24.5 -60q0 -35 -24.5 -59.5t-59.5 -24.5t-60.5 24.5t-25.5 59.5z" />
    <glyph glyph-name="eth" unicode="&#xf0;" horiz-adv-x="1126" 
d="M578 -20q-131 0 -239.5 65t-172.5 184.5t-64 268.5q0 231 135 378.5t351 147.5q120 0 252 -66q-92 213 -283 353l-180 -181l-49 44l176 176q-144 95 -336 151l27 55q214 -57 366 -149l152 152l49 -43l-146 -146q408 -284 408 -838q0 -251 -119.5 -401.5t-326.5 -150.5z
M205 506q0 -194 110.5 -322.5t270.5 -128.5q157 0 247.5 126t90.5 341q0 174 -41 314q-55 50 -135.5 81t-161.5 31q-170 0 -275.5 -123t-105.5 -319z" />
    <glyph glyph-name="ntilde" unicode="&#xf1;" horiz-adv-x="1245" 
d="M698 0l21 63l106 3q27 0 47.5 18t20.5 53v604q0 199 -191 199q-152 0 -340 -145v-725l199 2l-20 -72h-467l20 63l107 3q27 0 48 18t21 53v785l-172 10v57q173 29 246 35h12l4 -141h15q58 40 103 65.5t117 50.5t136 25q127 0 190.5 -66.5t63.5 -183.5v-704l205 2l-21 -72
h-471zM344 1217q26 90 74 137t110 47q35 0 72 -19t64 -42.5t62.5 -42.5t66.5 -19q42 0 77 38.5t48 104.5l43 -20q-12 -90 -64 -143.5t-115 -53.5q-37 0 -76 18.5t-66 41t-61.5 41t-64.5 18.5q-41 0 -71.5 -30.5t-59.5 -96.5z" />
    <glyph glyph-name="ograve" unicode="&#xf2;" horiz-adv-x="1112" 
d="M557 -20q-201 0 -328 145t-127 375q0 232 125.5 378t329.5 146q202 0 327.5 -144.5t125.5 -375.5q0 -232 -124.5 -378t-328.5 -146zM205 510q0 -201 99 -328t259 -127q156 0 250 121.5t94 317.5q0 201 -99 327.5t-259 126.5q-156 0 -250 -121t-94 -317zM344 1511
q0 19 15 34.5t34 15.5q12 0 62.5 -56.5t153.5 -183t126 -154.5l-28 -28l-281 264q-5 4 -15.5 13.5t-14.5 13t-12.5 11t-12 11.5t-9.5 11t-8 11.5t-5 11t-4 12.5t-1 13z" />
    <glyph glyph-name="oacute" unicode="&#xf3;" horiz-adv-x="1112" 
d="M557 -20q-201 0 -328 145t-127 375q0 232 125.5 378t329.5 146q202 0 327.5 -144.5t125.5 -375.5q0 -232 -124.5 -378t-328.5 -146zM205 510q0 -201 99 -328t259 -127q156 0 250 121.5t94 317.5q0 201 -99 327.5t-259 126.5q-156 0 -250 -121t-94 -317zM403 1167
q29 35 79 96t88 107.5t77.5 93t64.5 72t33 25.5q19 0 34.5 -15.5t15.5 -34.5q0 -7 -1 -13t-4 -12.5t-5 -11t-8 -11.5t-9.5 -11t-12 -11.5t-12.5 -11t-14.5 -13t-15.5 -13.5l-281 -264z" />
    <glyph glyph-name="ocircumflex" unicode="&#xf4;" horiz-adv-x="1112" 
d="M557 -20q-201 0 -328 145t-127 375q0 232 125.5 378t329.5 146q202 0 327.5 -144.5t125.5 -375.5q0 -232 -124.5 -378t-328.5 -146zM205 510q0 -201 99 -328t259 -127q156 0 250 121.5t94 317.5q0 201 -99 327.5t-259 126.5q-156 0 -250 -121t-94 -317zM289 1159
q244 402 280 402q35 0 279 -402l-37 -20l-242 307l-243 -307z" />
    <glyph glyph-name="otilde" unicode="&#xf5;" horiz-adv-x="1112" 
d="M557 -20q-201 0 -328 145t-127 375q0 232 125.5 378t329.5 146q202 0 327.5 -144.5t125.5 -375.5q0 -232 -124.5 -378t-328.5 -146zM205 510q0 -201 99 -328t259 -127q156 0 250 121.5t94 317.5q0 201 -99 327.5t-259 126.5q-156 0 -250 -121t-94 -317zM270 1217
q26 90 74.5 137t110.5 47q35 0 72 -19t64 -42.5t62 -42.5t66 -19q42 0 77 38.5t48 104.5l43 -20q-12 -90 -63.5 -143.5t-114.5 -53.5q-47 0 -95.5 30t-92.5 59.5t-81 29.5q-41 0 -71.5 -30.5t-59.5 -96.5z" />
    <glyph glyph-name="odieresis" unicode="&#xf6;" horiz-adv-x="1112" 
d="M557 -20q-201 0 -328 145t-127 375q0 232 125.5 378t329.5 146q202 0 327.5 -144.5t125.5 -375.5q0 -232 -124.5 -378t-328.5 -146zM205 510q0 -201 99 -328t259 -127q156 0 250 121.5t94 317.5q0 201 -99 327.5t-259 126.5q-156 0 -250 -121t-94 -317zM346 1364
q0 34 25.5 60t60.5 26t59.5 -26t24.5 -60q0 -35 -24.5 -59.5t-59.5 -24.5t-60.5 24.5t-25.5 59.5zM623 1364q0 34 25.5 60t60.5 26t59.5 -26t24.5 -60q0 -35 -24.5 -59.5t-59.5 -24.5t-60.5 24.5t-25.5 59.5z" />
    <glyph glyph-name="divide" unicode="&#xf7;" horiz-adv-x="1085" 
d="M143 469v70h799v-70h-799zM459 219q0 35 25 60.5t59 25.5t59 -25.5t25 -60.5t-25 -59.5t-59 -24.5t-59 24.5t-25 59.5zM459 788q0 35 25 60.5t59 25.5t59 -25.5t25 -60.5q0 -34 -25 -60t-59 -26t-59 25.5t-25 60.5z" />
    <glyph glyph-name="oslash" unicode="&#xf8;" horiz-adv-x="1173" 
d="M88 0l141 150q-106 140 -106 350q0 232 125.5 378t329.5 146q207 0 335 -154l125 134h88l-176 -189q80 -132 80 -311q0 -232 -124 -378t-328 -146q-183 0 -304 118l-92 -98h-94zM225 510q0 -168 74 -291l545 580q-46 71 -117 110t-158 39q-156 0 -250 -121t-94 -317z
M338 166q97 -111 246 -111q156 0 250 121.5t94 317.5q0 139 -51 247z" />
    <glyph glyph-name="ugrave" unicode="&#xf9;" horiz-adv-x="1193" 
d="M483 -20q-241 0 -241 256v690l-166 6v57q18 3 63.5 11t70.5 12t58 8t54 4h12v-762q0 -109 45 -154t133 -45q146 0 330 146v717l-164 6v57q21 3 64.5 11t69.5 12t58.5 8t53.5 4h10v-942l176 -6v-56q-164 -40 -244 -40h-14l-4 141h-14q-182 -141 -351 -141zM338 1511
q0 19 15 34.5t34 15.5q12 0 62.5 -56.5t153.5 -183t126 -154.5l-29 -28l-280 264q-5 4 -15.5 13.5t-14.5 13t-12.5 11t-12 11.5t-9.5 11t-8 11.5t-5 11t-4 12.5t-1 13z" />
    <glyph glyph-name="uacute" unicode="&#xfa;" horiz-adv-x="1193" 
d="M483 -20q-241 0 -241 256v690l-166 6v57q18 3 63.5 11t70.5 12t58 8t54 4h12v-762q0 -109 45 -154t133 -45q146 0 330 146v717l-164 6v57q21 3 64.5 11t69.5 12t58.5 8t53.5 4h10v-942l176 -6v-56q-164 -40 -244 -40h-14l-4 141h-14q-182 -141 -351 -141zM397 1167
q29 35 79 96t88 107.5t77.5 93t64.5 72t33 25.5q19 0 34 -15.5t15 -34.5q0 -6 -1 -12t-2.5 -10.5t-5 -10.5t-5.5 -10t-8 -10.5t-9 -9.5t-11 -10.5t-11.5 -10.5t-13.5 -12t-14 -12l-281 -264z" />
    <glyph glyph-name="ucircumflex" unicode="&#xfb;" horiz-adv-x="1193" 
d="M483 -20q-241 0 -241 256v690l-166 6v57q18 3 63.5 11t70.5 12t58 8t54 4h12v-762q0 -109 45 -154t133 -45q146 0 330 146v717l-164 6v57q21 3 64.5 11t69.5 12t58.5 8t53.5 4h10v-942l176 -6v-56q-164 -40 -244 -40h-14l-4 141h-14q-182 -141 -351 -141zM283 1159
q244 402 280 402q35 0 279 -402l-37 -20l-242 307l-244 -307z" />
    <glyph glyph-name="udieresis" unicode="&#xfc;" horiz-adv-x="1193" 
d="M483 -20q-241 0 -241 256v690l-166 6v57q18 3 63.5 11t70.5 12t58 8t54 4h12v-762q0 -109 45 -154t133 -45q146 0 330 146v717l-164 6v57q21 3 64.5 11t69.5 12t58.5 8t53.5 4h10v-942l176 -6v-56q-164 -40 -244 -40h-14l-4 141h-14q-182 -141 -351 -141zM340 1364
q0 34 25.5 60t60.5 26t59.5 -26t24.5 -60q0 -35 -24.5 -59.5t-59.5 -24.5t-60.5 24.5t-25.5 59.5zM616 1364q0 34 25.5 60t60.5 26t59.5 -26t24.5 -60q0 -35 -24.5 -59.5t-59.5 -24.5t-60.5 24.5t-25.5 59.5z" />
    <glyph glyph-name="yacute" unicode="&#xfd;" horiz-adv-x="1138" 
d="M246 -492q-73 0 -120 54q-29 33 -19 48q2 4 8 5l164 20q61 7 102.5 57t83.5 154l67 168l-368 920l-156 -2l21 72h483l-20 -64l-148 -2q-42 0 -54 -19t7 -65l285 -717l321 797l-194 -2l20 72h399l-20 -64l-70 -2q-30 -1 -50 -21t-38 -63l-391 -983q-70 -177 -150.5 -270
t-162.5 -93zM438 1167q29 35 79 96t88 107.5t77.5 93t64.5 72t33 25.5q19 0 34 -15.5t15 -34.5q0 -6 -1 -12t-2.5 -10.5t-5 -10.5t-5.5 -10t-8 -10.5t-9 -9.5t-11 -10.5t-11.5 -10.5t-13.5 -12t-14 -12l-281 -264z" />
    <glyph glyph-name="thorn" unicode="&#xfe;" horiz-adv-x="1185" 
d="M84 -471l20 63l107 2q27 0 48.5 18.5t21.5 53.5v1788l-172 10v58q244 33 258 34h12q-6 -109 -6 -331v-316h10q49 43 127 79t168 36q183 0 294 -135.5t111 -364.5q0 -242 -130 -393t-324 -151q-137 0 -256 69v-450l243 2l-20 -72h-512zM373 182q0 -44 80 -87.5t174 -43.5
q69 0 133 32.5t113 91t78.5 146t29.5 189.5q0 200 -90 316t-234 116q-134 0 -284 -106v-654z" />
    <glyph glyph-name="ydieresis" unicode="&#xff;" horiz-adv-x="1138" 
d="M246 -492q-73 0 -120 54q-29 33 -19 48q2 4 8 5l164 20q61 7 102.5 57t83.5 154l67 168l-368 920l-156 -2l21 72h483l-20 -64l-148 -2q-42 0 -54 -19t7 -65l285 -717l321 797l-194 -2l20 72h399l-20 -64l-70 -2q-30 -1 -50 -21t-38 -63l-391 -983q-70 -177 -150.5 -270
t-162.5 -93zM381 1364q0 34 25.5 60t60.5 26t59.5 -26t24.5 -60q0 -35 -24.5 -59.5t-59.5 -24.5t-60.5 24.5t-25.5 59.5zM657 1364q0 34 25.5 60t60.5 26t59.5 -26t24.5 -60q0 -35 -24.5 -59.5t-59.5 -24.5t-60.5 24.5t-25.5 59.5z" />
    <glyph glyph-name="Amacron" unicode="&#x100;" horiz-adv-x="1595" 
d="M1032 0l21 66l100 4q37 1 55 4t29.5 13.5t7.5 31t-20 55.5l-117 248h-672l-137 -350l240 2l-21 -74h-471l21 66l55 4q56 2 85 20.5t50 71.5l436 1116q-46 69 -105 91.5t-188 27.5l11 57h315l655 -1382l166 2l-20 -74h-496zM397 1704q0 30 17 52t37 22h462q0 -28 -16 -51
t-37 -23h-463zM465 492h610l-307 647l-27 55z" />
    <glyph glyph-name="amacron" unicode="&#x101;" horiz-adv-x="983" 
d="M715 -18q-12 0 -21 4t-15.5 14t-11 18.5t-7.5 25.5t-4.5 26.5t-3.5 29.5t-3 27h-20q-83 -69 -154.5 -108t-155.5 -39q-106 0 -157 56t-51 132t50 139.5t150 108.5l336 151v199q0 94 -36.5 139t-102.5 45q-59 0 -99.5 -17t-74.5 -54l-35 -60q-22 -36 -50.5 -58t-55.5 -22
q-33 0 -47.5 17t-14.5 39q0 13 40 50t98.5 77t135.5 71t140 31q112 0 155 -64t41 -184q-3 -120 -3.5 -238.5t0.5 -263t1 -192.5l176 -6v-56q-127 -38 -200 -38zM213 188q0 -54 34 -90.5t99 -36.5q77 0 156 43.5t145 126.5v263l-280 -125q-154 -68 -154 -181zM238 1253
q0 30 16.5 52t36.5 22h463q0 -28 -16.5 -51t-37.5 -23h-462z" />
    <glyph glyph-name="Abreve" unicode="&#x102;" horiz-adv-x="1595" 
d="M1032 0l21 66l100 4q37 1 55 4t29.5 13.5t7.5 31t-20 55.5l-117 248h-672l-137 -350l240 2l-21 -74h-471l21 66l55 4q56 2 85 20.5t50 71.5l436 1116q-46 69 -105 91.5t-188 27.5l11 57h315l655 -1382l166 2l-20 -74h-496zM412 1935l51 4q3 -113 55 -178t139 -65
q84 0 138.5 65t58.5 178l49 -4q0 -142 -66.5 -231.5t-179.5 -89.5q-117 0 -181 88.5t-64 232.5zM465 492h610l-307 647l-27 55z" />
    <glyph glyph-name="abreve" unicode="&#x103;" horiz-adv-x="983" 
d="M715 -18q-12 0 -21 4t-15.5 14t-11 18.5t-7.5 25.5t-4.5 26.5t-3.5 29.5t-3 27h-20q-83 -69 -154.5 -108t-155.5 -39q-106 0 -157 56t-51 132t50 139.5t150 108.5l336 151v199q0 94 -36.5 139t-102.5 45q-59 0 -99.5 -17t-74.5 -54l-35 -60q-22 -36 -50.5 -58t-55.5 -22
q-33 0 -47.5 17t-14.5 39q0 13 40 50t98.5 77t135.5 71t140 31q112 0 155 -64t41 -184q-3 -120 -3.5 -238.5t0.5 -263t1 -192.5l176 -6v-56q-127 -38 -200 -38zM213 188q0 -54 34 -90.5t99 -36.5q77 0 156 43.5t145 126.5v263l-280 -125q-154 -68 -154 -181zM252 1485l51 4
q3 -113 55.5 -178.5t139.5 -65.5q84 0 138 65.5t58 178.5l49 -4q0 -142 -66 -232t-179 -90q-117 0 -181.5 89t-64.5 233z" />
    <glyph glyph-name="Aogonek" unicode="&#x104;" horiz-adv-x="1595" 
d="M1032 0l21 66l100 4q37 1 55 4t29.5 13.5t7.5 31t-20 55.5l-117 248h-672l-137 -350l240 2l-21 -74h-471l21 66l55 4q56 2 85 20.5t50 71.5l436 1116q-46 69 -105 91.5t-188 27.5l11 57h315l655 -1382l166 2l-20 -74h-156q-54 -45 -88.5 -102.5t-34.5 -112.5
q0 -54 33 -88.5t84 -34.5q46 0 85 20.5t83 61.5l22 -29q-54 -63 -111 -97t-104 -34q-72 0 -124 46t-52 118q0 62 34.5 129.5t98.5 122.5h-266zM465 492h610l-307 647l-27 55z" />
    <glyph glyph-name="aogonek" unicode="&#x105;" horiz-adv-x="983" 
d="M715 -18q-12 0 -21 4t-15.5 14t-11 18.5t-7.5 25.5t-4.5 26.5t-3.5 29.5t-3 27h-20q-83 -69 -154.5 -108t-155.5 -39q-106 0 -157 56t-51 132t50 139.5t150 108.5l336 151v199q0 94 -36.5 139t-102.5 45q-59 0 -99.5 -17t-74.5 -54l-35 -60q-22 -36 -50.5 -58t-55.5 -22
q-33 0 -47.5 17t-14.5 39q0 13 40 50t98.5 77t135.5 71t140 31q112 0 155 -64t41 -184q-3 -120 -3.5 -238.5t0.5 -263t1 -192.5l176 -6v-56q-79 -22 -112 -28q-59 -45 -98 -107t-39 -121q0 -54 32.5 -88t83.5 -34q46 0 85 20.5t83 61.5l23 -29q-54 -63 -111 -97t-104 -34
q-72 0 -124 46t-52 118q0 62 35 130.5t100 123.5h-2zM213 188q0 -54 34 -90.5t99 -36.5q77 0 156 43.5t145 126.5v263l-280 -125q-154 -68 -154 -181z" />
    <glyph glyph-name="Cacute" unicode="&#x106;" horiz-adv-x="1507" 
d="M874 -20q-218 0 -388.5 87t-266.5 247.5t-96 369.5q0 180 56 329.5t154 250t231.5 156t287.5 55.5q230 0 428 -103l74 -373h-51q-31 99 -72 171t-84 114t-97 67t-104 33.5t-112 8.5q-125 0 -233.5 -46.5t-188.5 -132t-126 -214.5t-46 -287q0 -198 83.5 -347t229 -227
t330.5 -78q63 0 106.5 5t89 20t79 43.5t67.5 74t63.5 112.5t59.5 159h51l-96 -414q-190 -81 -429 -81zM668 1622q44 43 135 138t145.5 148.5t65.5 53.5q18 0 30.5 -16.5t12.5 -34.5q0 -29 -19 -53.5t-63 -55.5l-285 -205z" />
    <glyph glyph-name="cacute" unicode="&#x107;" horiz-adv-x="927" 
d="M535 -20q-187 0 -310 138.5t-123 364.5q0 234 133.5 387.5t331.5 153.5q62 0 161 -21t99 -36q0 -25 -30 -55.5t-56 -30.5q-18 0 -133 41l-76 28h-20q-116 0 -211.5 -129.5t-95.5 -316.5q0 -200 97.5 -319t250.5 -119q74 0 149.5 35t131.5 94l34 -43q-52 -78 -141 -125
t-192 -47zM360 1167q29 35 79 96t88 107.5t77.5 93t64.5 72t33 25.5q19 0 34.5 -15.5t15.5 -34.5q0 -7 -1 -13t-4 -12.5t-5 -11t-8 -11.5t-9.5 -11t-12 -11.5t-12.5 -11t-14.5 -13t-15.5 -13.5l-281 -264z" />
    <glyph glyph-name="Ccircumflex" unicode="&#x108;" horiz-adv-x="1507" 
d="M874 -20q-218 0 -388.5 87t-266.5 247.5t-96 369.5q0 180 56 329.5t154 250t231.5 156t287.5 55.5q230 0 428 -103l74 -373h-51q-31 99 -72 171t-84 114t-97 67t-104 33.5t-112 8.5q-125 0 -233.5 -46.5t-188.5 -132t-126 -214.5t-46 -287q0 -198 83.5 -347t229 -227
t330.5 -78q63 0 106.5 5t89 20t79 43.5t67.5 74t63.5 112.5t59.5 159h51l-96 -414q-190 -81 -429 -81zM555 1645q13 17 61 79t72.5 93t61 75t58 64t30.5 20q10 0 32 -20t57.5 -63.5t61 -75.5t72.5 -93t61 -79l-32 -25l-252 246l-250 -246z" />
    <glyph glyph-name="ccircumflex" unicode="&#x109;" horiz-adv-x="927" 
d="M535 -20q-187 0 -310 138.5t-123 364.5q0 234 133.5 387.5t331.5 153.5q62 0 161 -21t99 -36q0 -25 -30 -55.5t-56 -30.5q-18 0 -133 41l-76 28h-20q-116 0 -211.5 -129.5t-95.5 -316.5q0 -200 97.5 -319t250.5 -119q74 0 149.5 35t131.5 94l34 -43q-52 -78 -141 -125
t-192 -47zM246 1159q244 402 280 402q35 0 279 -402l-37 -20l-242 307l-243 -307z" />
    <glyph glyph-name="Cdotaccent" unicode="&#x10a;" horiz-adv-x="1507" 
d="M874 -20q-218 0 -388.5 87t-266.5 247.5t-96 369.5q0 180 56 329.5t154 250t231.5 156t287.5 55.5q230 0 428 -103l74 -373h-51q-31 99 -72 171t-84 114t-97 67t-104 33.5t-112 8.5q-125 0 -233.5 -46.5t-188.5 -132t-126 -214.5t-46 -287q0 -198 83.5 -347t229 -227
t330.5 -78q63 0 106.5 5t89 20t79 43.5t67.5 74t63.5 112.5t59.5 159h51l-96 -414q-190 -81 -429 -81zM758 1823q0 36 26 62t62 26q34 0 58 -26.5t24 -61.5q0 -34 -24 -59t-58 -25q-36 0 -62 25t-26 59z" />
    <glyph glyph-name="cdotaccent" unicode="&#x10b;" horiz-adv-x="927" 
d="M535 -20q-187 0 -310 138.5t-123 364.5q0 234 133.5 387.5t331.5 153.5q62 0 161 -21t99 -36q0 -25 -30 -55.5t-56 -30.5q-18 0 -133 41l-76 28h-20q-116 0 -211.5 -129.5t-95.5 -316.5q0 -200 97.5 -319t250.5 -119q74 0 149.5 35t131.5 94l34 -43q-52 -78 -141 -125
t-192 -47zM442 1372q0 36 26 62t62 26q34 0 58 -26.5t24 -61.5q0 -34 -24 -59t-58 -25q-36 0 -62 25t-26 59z" />
    <glyph glyph-name="Ccaron" unicode="&#x10c;" horiz-adv-x="1507" 
d="M874 -20q-218 0 -388.5 87t-266.5 247.5t-96 369.5q0 180 56 329.5t154 250t231.5 156t287.5 55.5q230 0 428 -103l74 -373h-51q-31 99 -72 171t-84 114t-97 67t-104 33.5t-112 8.5q-125 0 -233.5 -46.5t-188.5 -132t-126 -214.5t-46 -287q0 -198 83.5 -347t229 -227
t330.5 -78q63 0 106.5 5t89 20t79 43.5t67.5 74t63.5 112.5t59.5 159h51l-96 -414q-190 -81 -429 -81zM555 1944l33 24l250 -246l252 246l32 -24q-16 -21 -61.5 -80t-72 -92.5t-61.5 -76t-57 -63t-32 -20.5q-9 0 -31 20.5t-57.5 63.5t-61.5 76t-72 93t-61 79z" />
    <glyph glyph-name="ccaron" unicode="&#x10d;" horiz-adv-x="927" 
d="M535 -20q-187 0 -310 138.5t-123 364.5q0 234 133.5 387.5t331.5 153.5q62 0 161 -21t99 -36q0 -25 -30 -55.5t-56 -30.5q-18 0 -133 41l-76 28h-20q-116 0 -211.5 -129.5t-95.5 -316.5q0 -200 97.5 -319t250.5 -119q74 0 149.5 35t131.5 94l34 -43q-52 -78 -141 -125
t-192 -47zM244 1548l37 21l243 -307l242 307l37 -21q-244 -401 -279 -401q-36 0 -280 401z" />
    <glyph glyph-name="Dcaron" unicode="&#x10e;" horiz-adv-x="1519" 
d="M84 0l20 66l109 4q37 2 53.5 14.5t16.5 50.5v1247l-203 -2l20 74h566q337 0 534 -194t197 -519q0 -338 -199.5 -539.5t-531.5 -201.5h-582zM385 72h279q284 0 450 178t166 479q0 302 -167 477.5t-462 175.5h-266v-1310zM440 1944l33 24l250 -246l252 246l33 -24
q-14 -18 -61 -79.5t-72.5 -93t-61.5 -75.5t-58 -64t-32 -20q-9 0 -31 20.5t-57.5 63.5t-61.5 76t-72 93t-61 79z" />
    <glyph glyph-name="dcaron" unicode="&#x10f;" horiz-adv-x="1142" 
d="M551 -20q-139 0 -242.5 65.5t-155 173.5t-51.5 244q0 249 135.5 405t337.5 156q119 0 240 -66v496l-170 10v58q14 2 114 17t144 17h12q-8 -159 -8 -354v-1118l170 -10v-58q-131 -23 -233 -36h-15l-4 104h-12q-123 -104 -262 -104zM203 473q0 -115 40.5 -208t125 -150.5
t200.5 -57.5q111 0 246 103v651q0 49 -75 95t-169 46q-71 0 -137 -33t-117.5 -93t-82.5 -152t-31 -201zM1034 1137v327q0 42 16 67t46 25q36 0 49.5 -28.5t-2.5 -79.5l-80 -311h-29z" />
    <glyph glyph-name="Dcroat" unicode="&#x110;" horiz-adv-x="1519" 
d="M92 696v66h191v620l-203 -2l20 74h566q337 0 534 -194t197 -519q0 -338 -199.5 -539.5t-531.5 -201.5h-582l20 66l109 4q37 2 53.5 14.5t16.5 50.5v561h-191zM385 72h279q284 0 450 178t166 479q0 302 -167 477.5t-462 175.5h-266v-620h332v-66h-332v-624z" />
    <glyph glyph-name="dcroat" unicode="&#x111;" horiz-adv-x="1189" 
d="M449 1194v66h366v194l-170 10v58q14 2 114 17t144 17h12q-8 -133 -8 -296h217v-66h-217v-1110l170 -10v-58q-131 -23 -233 -36h-15l-4 104h-12q-123 -104 -262 -104t-242.5 65.5t-155 173.5t-51.5 244q0 249 135.5 405t337.5 156q119 0 240 -66v236h-366zM203 473
q0 -115 40.5 -208t125 -150.5t200.5 -57.5q111 0 246 103v651q0 49 -75 95t-169 46q-71 0 -137 -33t-117.5 -93t-82.5 -152t-31 -201z" />
    <glyph glyph-name="Emacron" unicode="&#x112;" horiz-adv-x="1343" 
d="M84 0l20 66l109 4q38 2 54 15t16 54v1243l-203 -2l20 74h731q167 0 314 25l47 -422h-51q-17 79 -28.5 126.5t-25.5 87.5t-26 59t-30.5 32.5t-38 16.5t-50.5 3h-557v-587h369q35 0 55.5 5.5t35.5 17.5t22 41.5t10 65.5t4 101h59v-530h-59q-3 143 -24.5 184t-102.5 41h-369
v-649h569q35 0 58.5 4.5t46 21.5t37.5 39t34 67.5t35 97t41 136.5h51l-98 -463q-128 25 -244 25h-831zM430 1704q0 30 16.5 52t36.5 22h463q0 -28 -16 -51t-37 -23h-463z" />
    <glyph glyph-name="emacron" unicode="&#x113;" horiz-adv-x="964" 
d="M537 -20q-198 0 -316.5 138t-118.5 380q0 241 113 383.5t313 142.5q141 0 231.5 -87.5t90.5 -217.5q0 -77 -31 -125h-610q-4 -54 -4 -82q0 -204 96 -325t256 -121q77 0 161.5 34t137.5 88l33 -41q-51 -75 -149 -121t-203 -46zM219 662h496q19 0 27 15t8 50q0 97 -64 160
t-174 63q-115 0 -191 -75t-102 -213zM268 1253q0 30 17 52t37 22h462q0 -28 -16 -51t-37 -23h-463z" />
    <glyph glyph-name="Edotaccent" unicode="&#x116;" horiz-adv-x="1343" 
d="M84 0l20 66l109 4q38 2 54 15t16 54v1243l-203 -2l20 74h731q167 0 314 25l47 -422h-51q-17 79 -28.5 126.5t-25.5 87.5t-26 59t-30.5 32.5t-38 16.5t-50.5 3h-557v-587h369q35 0 55.5 5.5t35.5 17.5t22 41.5t10 65.5t4 101h59v-530h-59q-3 143 -24.5 184t-102.5 41h-369
v-649h569q35 0 58.5 4.5t46 21.5t37.5 39t34 67.5t35 97t41 136.5h51l-98 -463q-128 25 -244 25h-831zM606 1823q0 36 26 62t62 26q34 0 58 -26.5t24 -61.5q0 -34 -24 -59t-58 -25q-36 0 -62 25t-26 59z" />
    <glyph glyph-name="edotaccent" unicode="&#x117;" horiz-adv-x="964" 
d="M537 -20q-198 0 -316.5 138t-118.5 380q0 241 113 383.5t313 142.5q141 0 231.5 -87.5t90.5 -217.5q0 -77 -31 -125h-610q-4 -54 -4 -82q0 -204 96 -325t256 -121q77 0 161.5 34t137.5 88l33 -41q-51 -75 -149 -121t-203 -46zM219 662h496q19 0 27 15t8 50q0 97 -64 160
t-174 63q-115 0 -191 -75t-102 -213zM444 1372q0 36 26 62t62 26q34 0 58 -26.5t24 -61.5q0 -34 -24 -59t-58 -25q-36 0 -62 25t-26 59z" />
    <glyph glyph-name="Eogonek" unicode="&#x118;" horiz-adv-x="1343" 
d="M84 0l20 66l109 4q38 2 54 15t16 54v1243l-203 -2l20 74h731q167 0 314 25l47 -422h-51q-17 79 -28.5 126.5t-25.5 87.5t-26 59t-30.5 32.5t-38 16.5t-50.5 3h-557v-587h369q35 0 55.5 5.5t35.5 17.5t22 41.5t10 65.5t4 101h59v-530h-59q-3 143 -24.5 184t-102.5 41h-369
v-649h569q35 0 58.5 4.5t46 21.5t37.5 39t34 67.5t35 97t41 136.5h51l-98 -463q-123 23 -221 25q-55 -45 -91 -104t-36 -115q0 -54 33 -88.5t84 -34.5q46 0 85 20.5t83 61.5l22 -29q-54 -63 -111 -97t-104 -34q-72 0 -124 46t-52 118q0 62 36 131.5t101 124.5h-780z" />
    <glyph glyph-name="eogonek" unicode="&#x119;" horiz-adv-x="964" 
d="M537 -20q-198 0 -316.5 138t-118.5 380q0 241 113 383.5t313 142.5q141 0 231.5 -87.5t90.5 -217.5q0 -77 -31 -125h-610q-4 -54 -4 -82q0 -204 96 -325t256 -121q77 0 161.5 34t137.5 88l33 -41q-60 -87 -176 -133q-59 -46 -99.5 -108.5t-40.5 -120.5q0 -54 33 -88.5
t84 -34.5q46 0 85 20.5t83 61.5l23 -29q-54 -63 -111 -97t-104 -34q-73 0 -125 46t-52 118q0 58 30 121t87 117q-34 -6 -69 -6zM219 662h496q19 0 27 15t8 50q0 97 -64 160t-174 63q-115 0 -191 -75t-102 -213z" />
    <glyph glyph-name="Ecaron" unicode="&#x11a;" horiz-adv-x="1343" 
d="M84 0l20 66l109 4q38 2 54 15t16 54v1243l-203 -2l20 74h731q167 0 314 25l47 -422h-51q-17 79 -28.5 126.5t-25.5 87.5t-26 59t-30.5 32.5t-38 16.5t-50.5 3h-557v-587h369q35 0 55.5 5.5t35.5 17.5t22 41.5t10 65.5t4 101h59v-530h-59q-3 143 -24.5 184t-102.5 41h-369
v-649h569q35 0 58.5 4.5t46 21.5t37.5 39t34 67.5t35 97t41 136.5h51l-98 -463q-128 25 -244 25h-831zM403 1944l33 24l250 -246l252 246l33 -24q-14 -18 -61 -79.5t-72.5 -93t-61.5 -75.5t-58 -64t-32 -20q-9 0 -31 20.5t-57.5 63.5t-61.5 76t-72 93t-61 79z" />
    <glyph glyph-name="ecaron" unicode="&#x11b;" horiz-adv-x="964" 
d="M537 -20q-198 0 -316.5 138t-118.5 380q0 241 113 383.5t313 142.5q141 0 231.5 -87.5t90.5 -217.5q0 -77 -31 -125h-610q-4 -54 -4 -82q0 -204 96 -325t256 -121q77 0 161.5 34t137.5 88l33 -41q-51 -75 -149 -121t-203 -46zM219 662h496q19 0 27 15t8 50q0 97 -64 160
t-174 63q-115 0 -191 -75t-102 -213zM246 1548l37 21l243 -307l242 307l37 -21q-244 -401 -279 -401q-36 0 -280 401z" />
    <glyph glyph-name="Gcircumflex" unicode="&#x11c;" horiz-adv-x="1605" 
d="M879 -20q-359 0 -557.5 196t-198.5 529q0 230 86 403.5t250 270t385 96.5q116 0 245 -28.5t203 -78.5l54 -375h-52q-22 101 -59.5 175t-81 117.5t-102.5 69t-114 34t-126 8.5q-271 0 -424.5 -180.5t-153.5 -489.5q0 -306 170 -486t474 -180q177 0 265.5 36.5t88.5 119.5
v477l-332 -4l21 76h577l-20 -68q-90 0 -117 -13t-27 -62v-385q0 -64 21.5 -80t85.5 -4l8 -50q-172 -62 -299 -93t-270 -31zM561 1645q13 17 61 79t72.5 93t61 75t58 64t30.5 20q10 0 32 -20t57.5 -63.5t61 -75.5t72.5 -93t61 -79l-32 -25l-252 246l-250 -246z" />
    <glyph glyph-name="gcircumflex" unicode="&#x11d;" horiz-adv-x="1032" 
d="M506 -492q-193 0 -322 84t-129 209q0 98 59 172.5t142 108.5q-34 34 -65 74.5t-31 54.5q0 21 57.5 67.5t128.5 73.5q-101 36 -159 120t-58 200q0 156 98.5 254t257.5 98q108 0 185 -47q25 15 81.5 50.5t90 55.5t73 38t60.5 18q46 0 39 -42q-6 -36 -37 -62q-10 -8 -19 -11
l-245 -76q110 -96 110 -262q0 -156 -95 -255t-249 -99q-54 0 -124 -36t-70 -77q0 -31 35 -55.5t88 -28.5l297 -22q130 -10 199 -76.5t69 -167.5q0 -158 -129.5 -259.5t-337.5 -101.5zM152 -170q0 -77 55.5 -135t139 -85.5t179.5 -27.5q153 0 249.5 66.5t96.5 181.5
q0 90 -53 139.5t-174 59.5l-299 24q-32 -8 -63 -23.5t-62 -41.5t-50 -67t-19 -91zM221 1159q244 402 281 402q34 0 278 -402l-37 -20l-241 307l-244 -307zM229 684q0 -128 70 -207.5t186 -79.5q107 0 173.5 77t66.5 198q0 128 -67 207t-179 79q-113 0 -181.5 -77t-68.5 -197
z" />
    <glyph glyph-name="Gbreve" unicode="&#x11e;" horiz-adv-x="1605" 
d="M879 -20q-359 0 -557.5 196t-198.5 529q0 230 86 403.5t250 270t385 96.5q116 0 245 -28.5t203 -78.5l54 -375h-52q-22 101 -59.5 175t-81 117.5t-102.5 69t-114 34t-126 8.5q-271 0 -424.5 -180.5t-153.5 -489.5q0 -306 170 -486t474 -180q177 0 265.5 36.5t88.5 119.5
v477l-332 -4l21 76h577l-20 -68q-90 0 -117 -13t-27 -62v-385q0 -64 21.5 -80t85.5 -4l8 -50q-172 -62 -299 -93t-270 -31zM602 1935l51 4q3 -113 55.5 -178t139.5 -65q84 0 138 65t58 178l50 -4q0 -142 -66.5 -231.5t-179.5 -89.5q-117 0 -181.5 88.5t-64.5 232.5z" />
    <glyph glyph-name="gbreve" unicode="&#x11f;" horiz-adv-x="1032" 
d="M506 -492q-193 0 -322 84t-129 209q0 98 59 172.5t142 108.5q-34 34 -65 74.5t-31 54.5q0 21 57.5 67.5t128.5 73.5q-101 36 -159 120t-58 200q0 156 98.5 254t257.5 98q108 0 185 -47q25 15 81.5 50.5t90 55.5t73 38t60.5 18q46 0 39 -42q-6 -36 -37 -62q-10 -8 -19 -11
l-245 -76q110 -96 110 -262q0 -156 -95 -255t-249 -99q-54 0 -124 -36t-70 -77q0 -31 35 -55.5t88 -28.5l297 -22q130 -10 199 -76.5t69 -167.5q0 -158 -129.5 -259.5t-337.5 -101.5zM152 -170q0 -77 55.5 -135t139 -85.5t179.5 -27.5q153 0 249.5 66.5t96.5 181.5
q0 90 -53 139.5t-174 59.5l-299 24q-32 -8 -63 -23.5t-62 -41.5t-50 -67t-19 -91zM229 684q0 -128 70 -207.5t186 -79.5q107 0 173.5 77t66.5 198q0 128 -67 207t-179 79q-113 0 -181.5 -77t-68.5 -197zM256 1485l51 4q3 -113 55.5 -178.5t139.5 -65.5q84 0 138 65.5
t58 178.5l50 -4q0 -142 -66.5 -232t-179.5 -90q-117 0 -181.5 89t-64.5 233z" />
    <glyph glyph-name="Gdotaccent" unicode="&#x120;" horiz-adv-x="1605" 
d="M879 -20q-359 0 -557.5 196t-198.5 529q0 230 86 403.5t250 270t385 96.5q116 0 245 -28.5t203 -78.5l54 -375h-52q-22 101 -59.5 175t-81 117.5t-102.5 69t-114 34t-126 8.5q-271 0 -424.5 -180.5t-153.5 -489.5q0 -306 170 -486t474 -180q177 0 265.5 36.5t88.5 119.5
v477l-332 -4l21 76h577l-20 -68q-90 0 -117 -13t-27 -62v-385q0 -64 21.5 -80t85.5 -4l8 -50q-172 -62 -299 -93t-270 -31zM764 1823q0 36 26 62t62 26q34 0 58 -26.5t24 -61.5q0 -34 -24 -59t-58 -25q-36 0 -62 25t-26 59z" />
    <glyph glyph-name="gdotaccent" unicode="&#x121;" horiz-adv-x="1032" 
d="M506 -492q-193 0 -322 84t-129 209q0 98 59 172.5t142 108.5q-34 34 -65 74.5t-31 54.5q0 21 57.5 67.5t128.5 73.5q-101 36 -159 120t-58 200q0 156 98.5 254t257.5 98q108 0 185 -47q25 15 81.5 50.5t90 55.5t73 38t60.5 18q46 0 39 -42q-6 -36 -37 -62q-10 -8 -19 -11
l-245 -76q110 -96 110 -262q0 -156 -95 -255t-249 -99q-54 0 -124 -36t-70 -77q0 -31 35 -55.5t88 -28.5l297 -22q130 -10 199 -76.5t69 -167.5q0 -158 -129.5 -259.5t-337.5 -101.5zM152 -170q0 -77 55.5 -135t139 -85.5t179.5 -27.5q153 0 249.5 66.5t96.5 181.5
q0 90 -53 139.5t-174 59.5l-299 24q-32 -8 -63 -23.5t-62 -41.5t-50 -67t-19 -91zM229 684q0 -128 70 -207.5t186 -79.5q107 0 173.5 77t66.5 198q0 128 -67 207t-179 79q-113 0 -181.5 -77t-68.5 -197zM418 1372q0 36 26 62t62 26q34 0 58 -26.5t24 -61.5q0 -34 -24 -59
t-58 -25q-36 0 -62 25t-26 59z" />
    <glyph glyph-name="uni0122" unicode="&#x122;" horiz-adv-x="1605" 
d="M879 -20q-359 0 -557.5 196t-198.5 529q0 230 86 403.5t250 270t385 96.5q116 0 245 -28.5t203 -78.5l54 -375h-52q-22 101 -59.5 175t-81 117.5t-102.5 69t-114 34t-126 8.5q-271 0 -424.5 -180.5t-153.5 -489.5q0 -306 170 -486t474 -180q177 0 265.5 36.5t88.5 119.5
v477l-332 -4l21 76h577l-20 -68q-90 0 -117 -13t-27 -62v-385q0 -64 21.5 -80t85.5 -4l8 -50q-172 -62 -299 -93t-270 -31zM745 -203q0 38 22 60t56 22q48 0 82.5 -39.5t34.5 -107.5q0 -143 -145 -273l-33 13q29 37 43.5 60t26.5 60t12 80q0 29 -15.5 51.5t-34 33t-34 21.5
t-15.5 19z" />
    <glyph glyph-name="uni0123" unicode="&#x123;" horiz-adv-x="1032" 
d="M506 -492q-193 0 -322 84t-129 209q0 98 59 172.5t142 108.5q-34 34 -65 74.5t-31 54.5q0 21 57.5 67.5t128.5 73.5q-101 36 -159 120t-58 200q0 156 98.5 254t257.5 98q108 0 185 -47q25 15 81.5 50.5t90 55.5t73 38t60.5 18q46 0 39 -42q-6 -36 -37 -62q-10 -8 -19 -11
l-245 -76q110 -96 110 -262q0 -156 -95 -255t-249 -99q-54 0 -124 -36t-70 -77q0 -31 35 -55.5t88 -28.5l297 -22q130 -10 199 -76.5t69 -167.5q0 -158 -129.5 -259.5t-337.5 -101.5zM152 -170q0 -77 55.5 -135t139 -85.5t179.5 -27.5q153 0 249.5 66.5t96.5 181.5
q0 90 -53 139.5t-174 59.5l-299 24q-32 -8 -63 -23.5t-62 -41.5t-50 -67t-19 -91zM229 684q0 -128 70 -207.5t186 -79.5q107 0 173.5 77t66.5 198q0 128 -67 207t-179 79q-113 0 -181.5 -77t-68.5 -197zM393 1300q0 142 146 273l32 -12q-43 -55 -62.5 -97.5t-19.5 -103.5
q0 -29 15.5 -51.5t34 -33t34 -21.5t15.5 -19q0 -38 -22 -60t-56 -22q-48 0 -82.5 39.5t-34.5 107.5z" />
    <glyph glyph-name="Hcircumflex" unicode="&#x124;" horiz-adv-x="1697" 
d="M1114 0l21 66l112 4q36 2 52 15.5t16 55.5v561h-930v-630l201 2l-21 -74h-481l20 66l109 4q38 2 54 15t16 56v1241l-203 -2l20 74h482l-21 -65l-108 -5q-37 -2 -52.5 -15.5t-15.5 -57.5v-539h930v610l-201 -2l21 74h481l-21 -65l-108 -5q-38 -2 -54 -15.5t-16 -57.5
v-1239l201 2l-21 -74h-483zM553 1645q13 17 61 79t72.5 93t61 75t58 64t30.5 20q10 0 32 -20t57.5 -63.5t61 -75.5t72.5 -93t61 -79l-33 -25l-251 246l-250 -246z" />
    <glyph glyph-name="hcircumflex" unicode="&#x125;" horiz-adv-x="1265" 
d="M84 0l20 63l109 3q27 0 47.5 18t20.5 53v1317l-172 10v58q24 3 84 11.5t105 14.5t69 8h12q-6 -109 -6 -331v-344h12q204 143 367 143q124 0 189 -67t65 -183v-704l204 2l-20 -72h-471l20 63l107 3q27 0 47 18t20 53v611q0 192 -194 192q-153 0 -346 -145v-725l198 2
l-20 -72h-467zM20 1667q244 401 281 401q35 0 279 -401l-37 -20l-242 307l-244 -307z" />
    <glyph glyph-name="Hbar" unicode="&#x126;" horiz-adv-x="1718" 
d="M104 1034v66h189v282l-203 -2l21 74h481l-21 -65l-108 -5q-37 -2 -52.5 -15.5t-15.5 -57.5v-211h930v282l-201 -2l21 74h481l-20 -65l-109 -5q-38 -2 -54 -15.5t-16 -57.5v-211h172v-66h-172v-962l201 2l-20 -74h-484l21 66l112 4q36 2 52 15.5t16 55.5v561h-930v-630
l201 2l-21 -74h-481l21 66l108 4q38 2 54 15t16 56v893h-189zM395 772h930v262h-930v-262z" />
    <glyph glyph-name="hbar" unicode="&#x127;" horiz-adv-x="1271" 
d="M84 1194v66h203v194l-172 10v58q24 3 84 11.5t105 14.5t69 8h12q-6 -96 -6 -296h364v-66h-364v-313h12q204 143 367 143q124 0 189 -67t65 -183v-704l205 2l-21 -72h-471l20 63l107 3q27 0 47.5 18t20.5 53v611q0 192 -195 192q-153 0 -346 -145v-725l199 2l-21 -72h-467
l21 63l108 3q27 0 47.5 18t20.5 53v1057h-203z" />
    <glyph glyph-name="Itilde" unicode="&#x128;" horiz-adv-x="665" 
d="M84 0l20 66l109 4q37 2 53.5 14.5t16.5 50.5v1247l-203 -2l20 74h482l-21 -65l-108 -5q-35 -2 -51.5 -15t-16.5 -52v-1245l201 2l-21 -74h-481zM59 1688q29 69 84.5 114t108.5 45q33 0 64.5 -17t52.5 -38t51.5 -38t62.5 -17q34 0 69 32t64 84l37 -20q-25 -74 -75.5 -120
t-106.5 -46q-31 0 -58 11t-47.5 26.5t-39.5 31.5t-42 27t-48 11q-31 0 -69.5 -30.5t-68.5 -76.5z" />
    <glyph glyph-name="itilde" unicode="&#x129;" horiz-adv-x="653" 
d="M74 0l20 63l107 3q28 0 47.5 17.5t19.5 53.5v789l-166 6v57q27 4 84 12.5t103 14.5t69 8h11q-1 -33 -5 -122t-4 -136v-696l205 2l-20 -72h-471zM-2 1217q26 90 74 137t110 47q35 0 72 -19t64 -42.5t62 -42.5t66 -19q42 0 77 38.5t48 104.5l43 -20q-12 -90 -63.5 -143.5
t-114.5 -53.5q-37 0 -76 18.5t-66 41t-61.5 41t-64.5 18.5q-41 0 -71.5 -30.5t-59.5 -96.5z" />
    <glyph glyph-name="Imacron" unicode="&#x12a;" horiz-adv-x="665" 
d="M84 0l20 66l109 4q37 2 53.5 14.5t16.5 50.5v1247l-203 -2l20 74h482l-21 -65l-108 -5q-35 -2 -51.5 -15t-16.5 -52v-1245l201 2l-21 -74h-481zM80 1704q0 30 16.5 52t36.5 22h463q0 -28 -16 -51t-37 -23h-463z" />
    <glyph glyph-name="imacron" unicode="&#x12b;" horiz-adv-x="653" 
d="M74 0l20 63l107 3q28 0 47.5 17.5t19.5 53.5v789l-166 6v57q27 4 84 12.5t103 14.5t69 8h11q-1 -33 -5 -122t-4 -136v-696l205 2l-20 -72h-471zM37 1253q0 30 16.5 52t36.5 22h463q0 -28 -16 -51t-37 -23h-463z" />
    <glyph glyph-name="Iogonek" unicode="&#x12e;" horiz-adv-x="665" 
d="M84 0l20 66l109 4q37 2 53.5 14.5t16.5 50.5v1247l-203 -2l20 74h482l-21 -65l-108 -5q-35 -2 -51.5 -15t-16.5 -52v-1245l201 2l-21 -74h-157q-54 -45 -88.5 -102.5t-34.5 -112.5q0 -54 32.5 -88.5t83.5 -34.5q46 0 85 20.5t83 61.5l23 -29q-54 -63 -111 -97t-104 -34
q-72 0 -124 46t-52 118q0 62 34.5 129.5t98.5 122.5h-250z" />
    <glyph glyph-name="iogonek" unicode="&#x12f;" horiz-adv-x="653" 
d="M74 0l20 63l107 3q28 0 47.5 17.5t19.5 53.5v789l-166 6v57q27 4 84 12.5t103 14.5t69 8h11q-1 -33 -5 -122t-4 -136v-696l205 2l-20 -72h-180q-54 -45 -88.5 -102.5t-34.5 -112.5q0 -54 32.5 -88.5t83.5 -34.5q46 0 85 20.5t83 61.5l23 -29q-54 -63 -111 -97t-104 -34
q-72 0 -124 46t-52 118q0 62 34.5 129.5t98.5 122.5h-217zM213 1372q0 36 26 62t62 26q34 0 58 -26.5t24 -61.5q0 -34 -24 -59t-58 -25q-36 0 -62 25t-26 59z" />
    <glyph glyph-name="Idotaccent" unicode="&#x130;" horiz-adv-x="665" 
d="M84 0l20 66l109 4q37 2 53.5 14.5t16.5 50.5v1247l-203 -2l20 74h482l-21 -65l-108 -5q-35 -2 -51.5 -15t-16.5 -52v-1245l201 2l-21 -74h-481zM256 1823q0 36 26 62t62 26q34 0 58 -26.5t24 -61.5q0 -34 -24 -59t-58 -25q-36 0 -62 25t-26 59z" />
    <glyph glyph-name="dotlessi" unicode="&#x131;" horiz-adv-x="653" 
d="M74 0l20 63l107 3q28 0 47.5 17.5t19.5 53.5v789l-166 6v57q27 4 84 12.5t103 14.5t69 8h11q-1 -33 -5 -122t-4 -136v-696l205 2l-20 -72h-471z" />
    <glyph glyph-name="IJ" unicode="&#x132;" horiz-adv-x="1306" 
d="M84 0l20 66l109 4q37 2 53.5 14.5t16.5 50.5v1247l-203 -2l20 74h482l-21 -65l-108 -5q-35 -2 -51.5 -15t-16.5 -52v-1245l201 2l-21 -74h-481zM635 -422q56 40 99 78.5t86.5 95.5t71 120.5t45 152t17.5 192.5v1165l-247 -2l20 74h533l-21 -65l-115 -5q-35 -2 -51 -14.5
t-16 -52.5v-1079q0 -94 -12 -175.5t-32 -144t-51 -117t-62.5 -93t-73.5 -74t-77.5 -58.5t-80.5 -47z" />
    <glyph glyph-name="ij" unicode="&#x133;" horiz-adv-x="1075" 
d="M74 0l20 63l107 3q28 0 47.5 17.5t19.5 53.5v789l-166 6v57q27 4 84 12.5t103 14.5t69 8h11q-1 -33 -5 -122t-4 -136v-696l205 2l-20 -72h-471zM213 1372q0 36 26 62t62 26q34 0 58 -26.5t24 -61.5q0 -34 -24 -59t-58 -25q-36 0 -62 25t-26 59zM612 -455q33 30 56.5 54.5
t55.5 70.5t52.5 94t35.5 119.5t15 151.5v891l-168 6v57q22 3 80 12.5t99.5 15t74.5 7.5h15q-8 -115 -8 -258v-713q0 -110 -23 -202.5t-63.5 -157.5t-87 -109.5t-101.5 -75.5zM772 1372q0 36 26 62t62 26q34 0 58 -26.5t24 -61.5q0 -34 -24 -59t-58 -25q-36 0 -62 25t-26 59z
" />
    <glyph glyph-name="Jcircumflex" unicode="&#x134;" horiz-adv-x="641" 
d="M-31 -422q57 40 99.5 78.5t86 95.5t71.5 120.5t45.5 152t17.5 192.5v1165l-248 -2l20 74h533l-21 -65l-114 -5q-35 -2 -51.5 -15t-16.5 -52v-1079q0 -94 -12 -175.5t-32 -144t-51 -117t-62.5 -93t-73.5 -74t-77.5 -58.5t-80.5 -47zM55 1645q13 17 61 79t72.5 93t61 75
t58 64t30.5 20q10 0 31.5 -19.5t58.5 -64.5t61 -74.5t73.5 -94t60.5 -78.5l-33 -25l-252 246l-250 -246z" />
    <glyph glyph-name="jcircumflex" unicode="&#x135;" horiz-adv-x="462" 
d="M0 -455q33 30 56.5 54.5t55.5 70.5t52.5 94t35.5 119.5t15 151.5v891l-168 6v57q22 3 80 12.5t99.5 15t74.5 7.5h14q-8 -115 -8 -258v-713q0 -110 -23 -202.5t-63.5 -157.5t-86.5 -109.5t-101 -75.5zM-37 1159q244 402 281 402q34 0 278 -402l-37 -20l-241 307l-244 -307
z" />
    <glyph glyph-name="uni0136" unicode="&#x136;" horiz-adv-x="1554" 
d="M1415 -20q-249 0 -405 167l-518 539v16l682 678h-250l20 74h563l-20 -65q-120 -3 -184.5 -26t-114.5 -73l-580 -577l482 -498q139 -149 344 -188zM80 1380l20 74h482l-21 -65l-108 -5q-35 -2 -51.5 -15t-16.5 -52v-1245l197 2l-21 -74h-477l20 66l109 4q38 2 54 15t16 56
v1241zM641 -203q0 38 22 60t56 22q48 0 82.5 -39.5t34.5 -107.5q0 -142 -146 -273l-33 13q29 37 43.5 60t26.5 60t12 80q0 37 -24.5 62.5t-49 39t-24.5 23.5z" />
    <glyph glyph-name="uni0137" unicode="&#x137;" horiz-adv-x="1241" 
d="M987 -20q-67 0 -120 32t-109 105l-283 364v21l410 432l-211 -2l20 72h498l-21 -68q-125 -3 -177 -21.5t-120 -89.5l-305 -317q169 -225 303 -363q91 -94 168 -94h88l19 -47q-77 -24 -160 -24zM84 0l20 63l107 3q27 0 47.5 18t20.5 53v1317l-170 10v58q24 3 126.5 17.5
t131.5 16.5h12q-8 -159 -8 -354v-1132l192 2l-20 -72h-459zM555 -203q0 38 22 60t56 22q48 0 82.5 -39.5t34.5 -107.5q0 -142 -146 -273l-33 13q29 37 43.5 60t26.5 60t12 80q0 37 -24.5 62.5t-49 39t-24.5 23.5z" />
    <glyph glyph-name="kgreenlandic" unicode="&#x138;" horiz-adv-x="1216" 
d="M963 -20q-68 0 -120 31.5t-110 105.5l-282 364v21l407 432l-211 -2l21 72h499l-20 -68q-127 -3 -179 -21t-120 -90l-301 -319q10 -12 49 -62t48.5 -61.5t39.5 -49t43 -52.5t36.5 -43t43 -49t41.5 -44q46 -47 85 -70.5t85 -23.5h86l18 -47q-77 -24 -159 -24zM74 0l20 63
l107 3q27 0 47 18t20 53v783l-170 12v57q216 32 252 33h10v-952l201 2l-20 -72h-467z" />
    <glyph glyph-name="Lacute" unicode="&#x139;" horiz-adv-x="1181" 
d="M84 0l20 66l109 4q38 2 54 15.5t16 55.5v1241l-203 -2l20 74h512l-20 -65l-133 -5q-41 -2 -57.5 -15.5t-16.5 -57.5v-1239h432q63 0 101 26.5t74.5 104t80.5 235.5h51l-96 -463q-128 25 -244 25h-700zM135 1618q29 34 79 96t88 107.5t77.5 92t64.5 72t33 25.5
q19 0 34 -15t15 -34q0 -6 -1 -12t-2.5 -11t-5 -11t-6 -9.5t-8.5 -10.5t-9 -10t-11 -10.5t-11.5 -10.5t-13.5 -12t-14 -12l-280 -264z" />
    <glyph glyph-name="lacute" unicode="&#x13a;" horiz-adv-x="657" 
d="M84 0l20 63l107 3q28 0 48 17.5t20 53.5v1317l-170 10v58q23 3 125 17.5t133 16.5h12q-8 -151 -8 -329v-1157l204 2l-20 -72h-471zM160 1661q29 34 79 96t88 107.5t77.5 92t64.5 72t33 25.5q19 0 34 -15t15 -34q0 -6 -1 -12t-2.5 -11t-5 -11t-6 -9.5t-8.5 -10.5t-9 -10
t-11 -10.5t-11.5 -10.5t-13.5 -12t-14 -12l-281 -264z" />
    <glyph glyph-name="uni013B" unicode="&#x13b;" horiz-adv-x="1181" 
d="M84 0l20 66l109 4q38 2 54 15.5t16 55.5v1241l-203 -2l20 74h512l-20 -65l-133 -5q-41 -2 -57.5 -15.5t-16.5 -57.5v-1239h432q63 0 101 26.5t74.5 104t80.5 235.5h51l-96 -463q-128 25 -244 25h-700zM510 -203q0 38 22 60t56 22q48 0 82.5 -39.5t34.5 -107.5
q0 -142 -146 -273l-33 13q29 37 43.5 60t26.5 60t12 80q0 37 -24.5 62.5t-49 39t-24.5 23.5z" />
    <glyph glyph-name="uni013C" unicode="&#x13c;" horiz-adv-x="657" 
d="M84 0l20 63l107 3q28 0 48 17.5t20 53.5v1317l-170 10v58q23 3 125 17.5t133 16.5h12q-8 -151 -8 -329v-1157l204 2l-20 -72h-471zM231 -203q0 38 22 60t56 22q48 0 82.5 -39.5t34.5 -107.5q0 -143 -145 -273l-33 13q29 37 43.5 60t26.5 60t12 80q0 29 -15.5 51.5t-34 33
t-34 21.5t-15.5 19z" />
    <glyph glyph-name="Lcaron" unicode="&#x13d;" horiz-adv-x="1181" 
d="M84 0l20 66l109 4q38 2 54 15.5t16 55.5v1241l-203 -2l20 74h512l-20 -65l-133 -5q-41 -2 -57.5 -15.5t-16.5 -57.5v-1239h432q63 0 101 26.5t74.5 104t80.5 235.5h51l-96 -463q-128 25 -244 25h-700zM829 1034v328q0 42 16 67t46 25q36 0 49.5 -28.5t-2.5 -79.5
l-80 -312h-29z" />
    <glyph glyph-name="lcaron" unicode="&#x13e;" horiz-adv-x="657" 
d="M84 0l20 63l107 3q28 0 48 17.5t20 53.5v1317l-170 10v58q23 3 125 17.5t133 16.5h12q-8 -151 -8 -329v-1157l204 2l-20 -72h-471zM508 1139v327q0 43 15.5 68t45.5 25q36 0 49.5 -29t-2.5 -80l-79 -311h-29z" />
    <glyph glyph-name="Lslash" unicode="&#x141;" horiz-adv-x="1290" 
d="M84 584v71l197 66v661l-203 -2l20 74h512l-20 -65l-133 -5q-41 -2 -57.5 -15.5t-16.5 -57.5v-555l397 135v-72l-397 -135v-612h432q63 0 101 26.5t74.5 104t80.5 235.5h51l-96 -463q-128 25 -244 25h-700l20 66l109 4q38 2 54 15.5t16 55.5v508z" />
    <glyph glyph-name="lslash" unicode="&#x142;" horiz-adv-x="657" 
d="M115 584v71l164 76v723l-170 10v58q23 3 125 17.5t133 16.5h12q-8 -151 -8 -329v-453l174 82v-74l-174 -80v-632l204 2l-20 -72h-471l20 63l107 3q28 0 48 17.5t20 53.5v522z" />
    <glyph glyph-name="Nacute" unicode="&#x143;" horiz-adv-x="1644" 
d="M92 0l21 66l110 4q41 2 57.5 14.5t16.5 56.5v1188q-45 33 -103.5 47.5t-158.5 20.5l10 57h295l1003 -1304v1232l-213 -2l21 74h473l-20 -65l-107 -5q-45 -3 -62.5 -18t-17.5 -63v-1272l-74 -51l-972 1269v-1177l219 2l-21 -74h-477zM686 1622q44 43 135 138t145.5 148.5
t65.5 53.5q18 0 30.5 -16.5t12.5 -34.5q0 -29 -19 -53.5t-63 -55.5l-284 -205z" />
    <glyph glyph-name="nacute" unicode="&#x144;" horiz-adv-x="1245" 
d="M698 0l21 63l106 3q27 0 47.5 18t20.5 53v604q0 199 -191 199q-152 0 -340 -145v-725l199 2l-20 -72h-467l20 63l107 3q27 0 48 18t21 53v785l-172 10v57q173 29 246 35h12l4 -141h15q58 40 103 65.5t117 50.5t136 25q127 0 190.5 -66.5t63.5 -183.5v-704l205 2l-21 -72
h-471zM477 1167q29 35 79 96t88 107.5t77.5 93t64.5 72t33 25.5q19 0 34 -15.5t15 -34.5q0 -7 -1 -13t-4 -12.5t-5 -11t-8 -11.5t-9.5 -11t-12 -11.5t-12.5 -11t-14.5 -13t-15.5 -13.5l-280 -264z" />
    <glyph glyph-name="uni0145" unicode="&#x145;" horiz-adv-x="1644" 
d="M92 0l21 66l110 4q41 2 57.5 14.5t16.5 56.5v1188q-45 33 -103.5 47.5t-158.5 20.5l10 57h295l1003 -1304v1232l-213 -2l21 74h473l-20 -65l-107 -5q-45 -3 -62.5 -18t-17.5 -63v-1272l-74 -51l-972 1269v-1177l219 2l-21 -74h-477zM803 -203q0 38 22 60t56 22
q48 0 82 -39.5t34 -107.5q0 -143 -145 -273l-33 13q29 37 43.5 60t26.5 60t12 80q0 37 -24.5 62.5t-49 39t-24.5 23.5z" />
    <glyph glyph-name="uni0146" unicode="&#x146;" horiz-adv-x="1245" 
d="M698 0l21 63l106 3q27 0 47.5 18t20.5 53v604q0 199 -191 199q-152 0 -340 -145v-725l199 2l-20 -72h-467l20 63l107 3q27 0 48 18t21 53v785l-172 10v57q173 29 246 35h12l4 -141h15q58 40 103 65.5t117 50.5t136 25q127 0 190.5 -66.5t63.5 -183.5v-704l205 2l-21 -72
h-471zM539 -203q0 39 21.5 60.5t55.5 21.5q48 0 82.5 -39.5t34.5 -107.5q0 -143 -145 -273l-33 13q29 37 43.5 60t26.5 60t12 80q0 37 -24.5 62.5t-49 39t-24.5 23.5z" />
    <glyph glyph-name="Ncaron" unicode="&#x147;" horiz-adv-x="1644" 
d="M92 0l21 66l110 4q41 2 57.5 14.5t16.5 56.5v1188q-45 33 -103.5 47.5t-158.5 20.5l10 57h295l1003 -1304v1232l-213 -2l21 74h473l-20 -65l-107 -5q-45 -3 -62.5 -18t-17.5 -63v-1272l-74 -51l-972 1269v-1177l219 2l-21 -74h-477zM573 1944l33 24l250 -246l252 246
l33 -24q-14 -18 -61 -79.5t-72.5 -93t-61.5 -75.5t-58 -64t-32 -20q-9 0 -31 20.5t-57.5 63.5t-61.5 76t-72 93t-61 79z" />
    <glyph glyph-name="ncaron" unicode="&#x148;" horiz-adv-x="1245" 
d="M698 0l21 63l106 3q27 0 47.5 18t20.5 53v604q0 199 -191 199q-152 0 -340 -145v-725l199 2l-20 -72h-467l20 63l107 3q27 0 48 18t21 53v785l-172 10v57q173 29 246 35h12l4 -141h15q58 40 103 65.5t117 50.5t136 25q127 0 190.5 -66.5t63.5 -183.5v-704l205 2l-21 -72
h-471zM360 1548l37 21l244 -307l242 307l37 -21q-244 -401 -279 -401q-37 0 -281 401z" />
    <glyph glyph-name="Eng" unicode="&#x14a;" horiz-adv-x="1644" 
d="M1073 -422q96 54 167.5 165.5t88.5 252.5l-958 1251v-1175l219 2l-21 -74h-477l21 66l110 4q41 2 57.5 14.5t16.5 56.5v1186q-76 58 -262 70l10 57h295l1003 -1307v1235l-213 -2l21 74h473l-20 -65l-107 -5q-45 -3 -62.5 -18t-17.5 -63v-1272q0 -152 -93 -298.5
t-218 -203.5z" />
    <glyph glyph-name="eng" unicode="&#x14b;" horiz-adv-x="1177" 
d="M680 -455q32 29 55.5 54t55.5 71t52.5 94t35 119.5t14.5 151.5v706q0 199 -191 199q-152 0 -340 -145v-725l199 2l-20 -72h-467l20 63l107 3q27 0 48 18t21 53v785l-172 10v57q173 29 246 35h12l4 -141h15q58 40 103 65.5t117 50.5t136 25q127 0 190.5 -66.5t63.5 -183.5
v-721q0 -110 -23 -202.5t-63.5 -157.5t-86.5 -109.5t-101 -75.5z" />
    <glyph glyph-name="Omacron" unicode="&#x14c;" horiz-adv-x="1632" 
d="M817 -20q-199 0 -357.5 94.5t-247.5 264.5t-89 384q0 217 87.5 388.5t246 267.5t360.5 96q198 0 356 -95t247 -265t89 -384q0 -217 -87.5 -388t-245.5 -267t-359 -96zM240 737q0 -298 162.5 -487t424.5 -189q252 0 409 183t157 473q0 196 -73.5 349.5t-208.5 240
t-308 86.5q-166 0 -294.5 -83.5t-198.5 -232.5t-70 -340zM565 1704q0 30 16.5 52t36.5 22h463q0 -28 -16 -51t-37 -23h-463z" />
    <glyph glyph-name="omacron" unicode="&#x14d;" horiz-adv-x="1112" 
d="M557 -20q-201 0 -328 145t-127 375q0 232 125.5 378t329.5 146q202 0 327.5 -144.5t125.5 -375.5q0 -232 -124.5 -378t-328.5 -146zM205 510q0 -201 99 -328t259 -127q156 0 250 121.5t94 317.5q0 201 -99 327.5t-259 126.5q-156 0 -250 -121t-94 -317zM309 1253
q0 30 16.5 52t36.5 22h463q0 -28 -16 -51t-37 -23h-463z" />
    <glyph glyph-name="Ohungarumlaut" unicode="&#x150;" horiz-adv-x="1632" 
d="M817 -20q-199 0 -357.5 94.5t-247.5 264.5t-89 384q0 217 87.5 388.5t246 267.5t360.5 96q198 0 356 -95t247 -265t89 -384q0 -217 -87.5 -388t-245.5 -267t-359 -96zM240 737q0 -298 162.5 -487t424.5 -189q252 0 409 183t157 473q0 196 -73.5 349.5t-208.5 240
t-308 86.5q-166 0 -294.5 -83.5t-198.5 -232.5t-70 -340zM686 1618q52 136 113.5 264.5t85.5 128.5q23 0 35 -18t12 -41q0 -8 -4.5 -21t-10.5 -25.5t-16.5 -30t-18.5 -30t-21 -31.5t-19.5 -27.5t-18 -24.5t-12.5 -17l-104 -148zM885 1618q57 121 122.5 236.5t84.5 115.5
q16 0 32.5 -17.5t16.5 -37.5q0 -47 -135 -203l-101 -115z" />
    <glyph glyph-name="ohungarumlaut" unicode="&#x151;" horiz-adv-x="1112" 
d="M557 -20q-201 0 -328 145t-127 375q0 232 125.5 378t329.5 146q202 0 327.5 -144.5t125.5 -375.5q0 -232 -124.5 -378t-328.5 -146zM205 510q0 -201 99 -328t259 -127q156 0 250 121.5t94 317.5q0 201 -99 327.5t-259 126.5q-156 0 -250 -121t-94 -317zM430 1167
q52 136 113.5 265t85.5 129q23 0 35 -18.5t12 -41.5q0 -8 -4.5 -21t-10.5 -25.5t-16.5 -30t-18.5 -30t-21 -31.5t-19.5 -27.5t-18 -24.5t-12.5 -17l-104 -147zM629 1167q57 122 122.5 237.5t84.5 115.5q16 0 32.5 -18t16.5 -38q0 -27 -32 -73.5t-103 -128.5l-101 -115z" />
    <glyph glyph-name="OE" unicode="&#x152;" horiz-adv-x="2220" 
d="M860 0q-217 0 -384.5 90.5t-260 255t-92.5 377.5q0 329 205.5 530t541.5 201h838q166 0 313 25l47 -422h-51q-20 95 -33.5 147.5t-28 92.5t-33.5 56t-40.5 22.5t-58.5 6.5h-570v-587h402q35 0 56 5.5t36 18t21.5 41t9.5 65.5t4 101h51v-530h-51q-3 143 -24.5 184
t-102.5 41h-402v-649h578q43 0 70.5 9t51 28.5t44 65.5t39.5 104t47 159h51l-96 -463q-128 25 -244 25h-934zM236 737q0 -196 77.5 -346t220.5 -233t330 -84h287v1304h-291q-141 -1 -258 -46.5t-197.5 -128.5t-124.5 -202.5t-44 -263.5z" />
    <glyph glyph-name="oe" unicode="&#x153;" horiz-adv-x="1779" 
d="M1368 -20q-140 0 -246.5 71t-160.5 199q-53 -127 -158.5 -198.5t-245.5 -71.5q-201 0 -328 145t-127 375q0 232 125.5 378t329.5 146q140 0 246.5 -72.5t159.5 -199.5q50 128 148.5 200t231.5 72q140 0 232 -87.5t92 -217.5q0 -76 -31 -107h-444v41l340 27q39 6 39 47
q0 96 -67.5 159.5t-180.5 63.5q-131 0 -217 -125.5t-86 -322.5q0 -201 102 -318.5t269 -117.5q74 0 149 33t129 89l35 -41q-50 -76 -141 -121.5t-195 -45.5zM205 510q0 -201 99 -328t259 -127q156 0 250 121.5t94 317.5q0 201 -99 327.5t-259 126.5q-156 0 -250 -121
t-94 -317z" />
    <glyph glyph-name="Racute" unicode="&#x154;" horiz-adv-x="1370" 
d="M84 0l20 66l109 4q37 2 53.5 17t16.5 56v1239l-203 -2l20 74h555q228 0 361 -109t133 -288q0 -165 -109 -275.5t-274 -128.5l305 -438q51 -76 122 -120.5t177 -67.5l-16 -47q-248 0 -365 170l-340 487h-264v-565l201 2l-21 -74h-481zM385 702h287q162 0 264 92.5
t102 241.5q0 155 -104.5 250.5t-276.5 95.5h-272v-680zM473 1622q44 43 135 138t145.5 148.5t65.5 53.5q18 0 30.5 -16.5t12.5 -34.5q0 -29 -19 -53.5t-63 -55.5l-284 -205z" />
    <glyph glyph-name="racute" unicode="&#x155;" horiz-adv-x="821" 
d="M74 0l20 63l107 3q27 0 48 18t21 53v785l-172 10v57q23 3 82 13.5t99.5 16t64.5 5.5h12l4 -213h23q41 26 125 83t140 93.5t69 36.5q16 0 29.5 -12t13.5 -31q0 -58 -64 -88l-309 -150q-16 -8 -20.5 -15t-4.5 -30v-628l207 2l-20 -72h-475zM346 1167q29 35 79 96t88 107.5
t77.5 93t64.5 72t33 25.5q19 0 34 -15.5t15 -34.5q0 -7 -1 -13t-4 -12.5t-5 -11t-8 -11.5t-9.5 -11t-12 -11.5t-12.5 -11t-14.5 -13t-15.5 -13.5l-280 -264z" />
    <glyph glyph-name="uni0156" unicode="&#x156;" horiz-adv-x="1370" 
d="M84 0l20 66l109 4q37 2 53.5 17t16.5 56v1239l-203 -2l20 74h555q228 0 361 -109t133 -288q0 -165 -109 -275.5t-274 -128.5l305 -438q51 -76 122 -120.5t177 -67.5l-16 -47q-248 0 -365 170l-340 487h-264v-565l201 2l-21 -74h-481zM385 702h287q162 0 264 92.5
t102 241.5q0 155 -104.5 250.5t-276.5 95.5h-272v-680zM688 -203q0 38 22 60t56 22q48 0 82.5 -39.5t34.5 -107.5q0 -142 -146 -273l-32 13q42 55 61.5 97t19.5 103q0 37 -24.5 62.5t-49 39t-24.5 23.5z" />
    <glyph glyph-name="uni0157" unicode="&#x157;" horiz-adv-x="821" 
d="M74 0l20 63l107 3q27 0 48 18t21 53v785l-172 10v57q23 3 82 13.5t99.5 16t64.5 5.5h12l4 -213h23q41 26 125 83t140 93.5t69 36.5q16 0 29.5 -12t13.5 -31q0 -58 -64 -88l-309 -150q-16 -8 -20.5 -15t-4.5 -30v-628l207 2l-20 -72h-475zM223 -203q0 38 22 60t56 22
q48 0 82.5 -39.5t34.5 -107.5q0 -142 -146 -273l-32 13q29 37 43.5 60t26.5 60t12 80q0 29 -15.5 51.5t-34 33t-34 21.5t-15.5 19z" />
    <glyph glyph-name="Rcaron" unicode="&#x158;" horiz-adv-x="1370" 
d="M84 0l20 66l109 4q37 2 53.5 17t16.5 56v1239l-203 -2l20 74h555q228 0 361 -109t133 -288q0 -165 -109 -275.5t-274 -128.5l305 -438q51 -76 122 -120.5t177 -67.5l-16 -47q-248 0 -365 170l-340 487h-264v-565l201 2l-21 -74h-481zM360 1944l33 24l250 -246l252 246
l33 -24q-14 -18 -61 -79.5t-72.5 -93t-61.5 -75.5t-58 -64t-32 -20q-9 0 -31 20.5t-57.5 63.5t-61.5 76t-72 93t-61 79zM385 702h287q162 0 264 92.5t102 241.5q0 155 -104.5 250.5t-276.5 95.5h-272v-680z" />
    <glyph glyph-name="rcaron" unicode="&#x159;" horiz-adv-x="821" 
d="M74 0l20 63l107 3q27 0 48 18t21 53v785l-172 10v57q23 3 82 13.5t99.5 16t64.5 5.5h12l4 -213h23q41 26 125 83t140 93.5t69 36.5q16 0 29.5 -12t13.5 -31q0 -58 -64 -88l-309 -150q-16 -8 -20.5 -15t-4.5 -30v-628l207 2l-20 -72h-475zM229 1548l37 21l244 -307
l242 307l36 -21q-244 -401 -278 -401q-37 0 -281 401z" />
    <glyph glyph-name="Sacute" unicode="&#x15a;" horiz-adv-x="1202" 
d="M631 -20q-273 0 -449 129l-61 356h51q27 -119 74 -202t109.5 -127.5t129.5 -63.5t148 -19q93 0 170.5 32.5t126.5 101.5t49 163q0 114 -95 192.5t-311 157.5q-101 37 -170.5 73t-124.5 83t-81.5 107t-26.5 135q0 165 127 271t336 106q176 0 344 -97l61 -338h-53
q-30 110 -67.5 182t-87 111t-103.5 53.5t-129 14.5q-152 0 -244 -82t-92 -205q0 -112 95.5 -189t304.5 -153q215 -76 313 -165t98 -234q0 -169 -119 -281t-323 -112zM473 1622q44 43 135 138t145.5 148.5t65.5 53.5q18 0 30.5 -16.5t12.5 -34.5q0 -29 -19 -53.5t-63 -55.5
l-284 -205z" />
    <glyph glyph-name="sacute" unicode="&#x15b;" horiz-adv-x="870" 
d="M446 -20q-186 0 -313 86l-37 256h43q25 -81 61.5 -137t81 -84.5t89 -40t98.5 -11.5q72 0 133.5 49.5t61.5 130.5q0 78 -59 135t-181 111q-168 70 -229.5 124t-61.5 155q0 108 82.5 189t226.5 81q143 0 265 -68l30 -254h-43q-34 144 -99 197t-161 53q-93 0 -152 -47
t-59 -127q0 -39 15.5 -68.5t53 -56t75 -45t106.5 -47.5q151 -65 216 -133.5t65 -163.5q0 -117 -85.5 -200.5t-222.5 -83.5zM291 1167q29 35 79 96t88 107.5t77.5 93t64.5 72t33 25.5q19 0 34 -15.5t15 -34.5q0 -7 -1 -13t-4 -12.5t-5 -11t-8 -11.5t-9.5 -11t-12 -11.5
t-12.5 -11t-14.5 -13t-15.5 -13.5l-281 -264z" />
    <glyph glyph-name="Scircumflex" unicode="&#x15c;" horiz-adv-x="1202" 
d="M631 -20q-273 0 -449 129l-61 356h51q27 -119 74 -202t109.5 -127.5t129.5 -63.5t148 -19q93 0 170.5 32.5t126.5 101.5t49 163q0 114 -95 192.5t-311 157.5q-101 37 -170.5 73t-124.5 83t-81.5 107t-26.5 135q0 165 127 271t336 106q176 0 344 -97l61 -338h-53
q-30 110 -67.5 182t-87 111t-103.5 53.5t-129 14.5q-152 0 -244 -82t-92 -205q0 -112 95.5 -189t304.5 -153q215 -76 313 -165t98 -234q0 -169 -119 -281t-323 -112zM360 1645q13 17 61 79t72.5 93t61 75t58 64t30.5 20q10 0 31.5 -19.5t58.5 -64.5t61 -74.5t73.5 -94
t60.5 -78.5l-33 -25l-252 246l-250 -246z" />
    <glyph glyph-name="scircumflex" unicode="&#x15d;" horiz-adv-x="870" 
d="M446 -20q-186 0 -313 86l-37 256h43q25 -81 61.5 -137t81 -84.5t89 -40t98.5 -11.5q72 0 133.5 49.5t61.5 130.5q0 78 -59 135t-181 111q-168 70 -229.5 124t-61.5 155q0 108 82.5 189t226.5 81q143 0 265 -68l30 -254h-43q-34 144 -99 197t-161 53q-93 0 -152 -47
t-59 -127q0 -39 15.5 -68.5t53 -56t75 -45t106.5 -47.5q151 -65 216 -133.5t65 -163.5q0 -117 -85.5 -200.5t-222.5 -83.5zM176 1159q244 402 281 402q34 0 278 -402l-37 -20l-241 307l-244 -307z" />
    <glyph glyph-name="Scedilla" unicode="&#x15e;" horiz-adv-x="1202" 
d="M582 -477q56 38 90.5 86.5t34.5 87.5q0 85 -129 149l36 134q-261 3 -432 129l-61 356h51q27 -119 74 -202t109.5 -127.5t129.5 -63.5t148 -19q93 0 170.5 32.5t126.5 101.5t49 163q0 114 -95 192.5t-311 157.5q-101 37 -170.5 73t-124.5 83t-81.5 107t-26.5 135
q0 165 127 271t336 106q176 0 344 -97l61 -338h-53q-30 110 -67.5 182t-87 111t-103.5 53.5t-129 14.5q-152 0 -244 -82t-92 -205q0 -112 95.5 -189t304.5 -153q215 -76 313 -165t98 -234q0 -157 -105 -266.5t-286 -124.5l-20 -80q120 -70 120 -164q0 -74 -50.5 -138.5
t-129.5 -105.5z" />
    <glyph glyph-name="scedilla" unicode="&#x15f;" horiz-adv-x="870" 
d="M446 -20q-186 0 -313 86l-37 256h43q25 -81 61.5 -137t81 -84.5t89 -40t98.5 -11.5q72 0 133.5 49.5t61.5 130.5q0 78 -59 135t-181 111q-168 70 -229.5 124t-61.5 155q0 108 82.5 189t226.5 81q143 0 265 -68l30 -254h-43q-34 144 -99 197t-161 53q-93 0 -152 -47
t-59 -127q0 -39 15.5 -68.5t53 -56t75 -45t106.5 -47.5q151 -65 216 -133.5t65 -163.5q0 -99 -64 -177t-170 -99l-20 -86q121 -71 121 -164q0 -74 -51 -138.5t-130 -105.5l-20 29q56 38 90.5 86.5t34.5 87.5q0 85 -129 149l37 134h-7z" />
    <glyph glyph-name="Scaron" unicode="&#x160;" horiz-adv-x="1202" 
d="M631 -20q-273 0 -449 129l-61 356h51q27 -119 74 -202t109.5 -127.5t129.5 -63.5t148 -19q93 0 170.5 32.5t126.5 101.5t49 163q0 114 -95 192.5t-311 157.5q-101 37 -170.5 73t-124.5 83t-81.5 107t-26.5 135q0 165 127 271t336 106q176 0 344 -97l61 -338h-53
q-30 110 -67.5 182t-87 111t-103.5 53.5t-129 14.5q-152 0 -244 -82t-92 -205q0 -112 95.5 -189t304.5 -153q215 -76 313 -165t98 -234q0 -169 -119 -281t-323 -112zM360 1944l33 24l250 -246l252 246l33 -24q-14 -18 -61 -79.5t-72.5 -93t-61.5 -75.5t-58 -64t-32 -20
q-9 0 -31 20.5t-57.5 63.5t-61.5 76t-72 93t-61 79z" />
    <glyph glyph-name="scaron" unicode="&#x161;" horiz-adv-x="870" 
d="M446 -20q-186 0 -313 86l-37 256h43q25 -81 61.5 -137t81 -84.5t89 -40t98.5 -11.5q72 0 133.5 49.5t61.5 130.5q0 78 -59 135t-181 111q-168 70 -229.5 124t-61.5 155q0 108 82.5 189t226.5 81q143 0 265 -68l30 -254h-43q-34 144 -99 197t-161 53q-93 0 -152 -47
t-59 -127q0 -39 15.5 -68.5t53 -56t75 -45t106.5 -47.5q151 -65 216 -133.5t65 -163.5q0 -117 -85.5 -200.5t-222.5 -83.5zM174 1548l37 21l244 -307l241 307l37 -21q-244 -401 -278 -401q-37 0 -281 401z" />
    <glyph glyph-name="uni0162" unicode="&#x162;" horiz-adv-x="1388" 
d="M403 0l21 66l147 2q40 3 56 16.5t16 56.5v1241h-315q-36 0 -57.5 -3t-43 -17t-34 -35t-26.5 -63.5t-24.5 -96.5t-25.5 -141h-51l40 453q156 -25 283 -25h610q127 0 283 25l41 -453h-51q-15 87 -26 140.5t-25 97t-26.5 64t-33.5 34.5t-42.5 17t-57.5 3h-316v-1310l242 2
l-20 -74h-250l-25 -98q121 -71 121 -164q0 -74 -50.5 -138.5t-129.5 -105.5l-21 29q56 38 90.5 86.5t34.5 87.5q0 85 -129 149l43 154h-248z" />
    <glyph glyph-name="uni0163" unicode="&#x163;" horiz-adv-x="722" 
d="M354 -477q56 38 90.5 86.5t34.5 87.5q0 85 -129 149l39 134q-196 12 -196 245v711h-144v49l133 43l56 180h47v-204h340v-68h-340v-686q0 -103 39 -149t116 -46q55 0 111 17t90 39l21 -48q-100 -67 -207 -79l-21 -82q121 -71 121 -164q0 -74 -50.5 -138.5t-129.5 -105.5z
" />
    <glyph glyph-name="Tcaron" unicode="&#x164;" horiz-adv-x="1388" 
d="M403 0l21 66l147 2q40 3 56 16.5t16 56.5v1241h-315q-36 0 -57.5 -3t-43 -17t-34 -35t-26.5 -63.5t-24.5 -96.5t-25.5 -141h-51l40 453q156 -25 283 -25h610q127 0 283 25l41 -453h-51q-15 87 -26 140.5t-25 97t-26.5 64t-33.5 34.5t-42.5 17t-57.5 3h-316v-1310l242 2
l-20 -74h-564zM401 1944l33 24l250 -246l252 246l33 -24q-14 -18 -61 -79.5t-72.5 -93t-61.5 -75.5t-58 -64t-32 -20q-9 0 -31 20.5t-57.5 63.5t-61.5 76t-72 93t-61 79z" />
    <glyph glyph-name="tcaron" unicode="&#x165;" horiz-adv-x="722" 
d="M408 -20q-215 0 -215 245v711h-144v49l133 43l56 180h47v-204h340v-68h-340v-686q0 -103 39 -149t116 -46q55 0 111 17t90 39l21 -48q-125 -83 -254 -83zM514 1124v328q0 43 15.5 67.5t45.5 24.5q36 0 50 -28.5t-2 -79.5l-80 -312h-29z" />
    <glyph glyph-name="Tbar" unicode="&#x166;" horiz-adv-x="1388" 
d="M258 643v66h385v673h-315q-36 0 -57.5 -3t-43 -17t-34 -35t-26.5 -63.5t-24.5 -96.5t-25.5 -141h-51l40 453q156 -25 283 -25h610q127 0 283 25l41 -453h-51q-15 87 -26 140.5t-25 97t-26.5 64t-33.5 34.5t-42.5 17t-57.5 3h-316v-673h383v-66h-383v-571l242 2l-20 -74
h-564l21 66l147 2q40 3 56 16.5t16 56.5v502h-385z" />
    <glyph glyph-name="tbar" unicode="&#x167;" horiz-adv-x="722" 
d="M82 487v66h111v383h-144v49l133 43l56 180h47v-204h340v-68h-340v-383h333v-66h-333v-237q0 -103 39 -149t116 -46q55 0 111 17t90 39l21 -48q-125 -83 -254 -83q-215 0 -215 245v262h-111z" />
    <glyph glyph-name="Utilde" unicode="&#x168;" horiz-adv-x="1669" 
d="M844 -20q-264 0 -412.5 131.5t-148.5 359.5v911l-203 -2l20 74h498l-20 -65l-125 -5q-35 -2 -51.5 -15t-16.5 -52v-832q0 -194 128 -305.5t353 -111.5q205 0 326 109t121 298v907l-209 -2l20 74h465l-20 -65l-109 -5q-36 -2 -51.5 -15t-15.5 -54v-840q0 -229 -148.5 -362
t-400.5 -133zM573 1688q29 69 84.5 114t108.5 45q33 0 64.5 -17t52.5 -38t51.5 -38t62.5 -17q34 0 69 32t64 84l37 -20q-25 -74 -75.5 -120t-106.5 -46q-31 0 -58 11t-47.5 26.5t-39.5 31.5t-42 27t-48 11q-31 0 -69.5 -30.5t-68.5 -76.5z" />
    <glyph glyph-name="utilde" unicode="&#x169;" horiz-adv-x="1193" 
d="M483 -20q-241 0 -241 256v690l-166 6v57q18 3 63.5 11t70.5 12t58 8t54 4h12v-762q0 -109 45 -154t133 -45q146 0 330 146v717l-164 6v57q21 3 64.5 11t69.5 12t58.5 8t53.5 4h10v-942l176 -6v-56q-164 -40 -244 -40h-14l-4 141h-14q-182 -141 -351 -141zM264 1217
q26 90 74.5 137t110.5 47q35 0 72 -19t64 -42.5t62 -42.5t66 -19q42 0 77 38.5t48 104.5l43 -20q-12 -90 -64 -143.5t-115 -53.5q-37 0 -76 18.5t-66 41t-61.5 41t-64.5 18.5q-41 0 -71.5 -30.5t-59.5 -96.5z" />
    <glyph glyph-name="Umacron" unicode="&#x16a;" horiz-adv-x="1669" 
d="M844 -20q-264 0 -412.5 131.5t-148.5 359.5v911l-203 -2l20 74h498l-20 -65l-125 -5q-35 -2 -51.5 -15t-16.5 -52v-832q0 -194 128 -305.5t353 -111.5q205 0 326 109t121 298v907l-209 -2l20 74h465l-20 -65l-109 -5q-36 -2 -51.5 -15t-15.5 -54v-840q0 -229 -148.5 -362
t-400.5 -133zM594 1704q0 30 16.5 52t36.5 22h463q0 -28 -16 -51t-37 -23h-463z" />
    <glyph glyph-name="umacron" unicode="&#x16b;" horiz-adv-x="1193" 
d="M483 -20q-241 0 -241 256v690l-166 6v57q18 3 63.5 11t70.5 12t58 8t54 4h12v-762q0 -109 45 -154t133 -45q146 0 330 146v717l-164 6v57q21 3 64.5 11t69.5 12t58.5 8t53.5 4h10v-942l176 -6v-56q-164 -40 -244 -40h-14l-4 141h-14q-182 -141 -351 -141zM303 1253
q0 30 16.5 52t36.5 22h463q0 -28 -16 -51t-37 -23h-463z" />
    <glyph glyph-name="Ubreve" unicode="&#x16c;" horiz-adv-x="1669" 
d="M844 -20q-264 0 -412.5 131.5t-148.5 359.5v911l-203 -2l20 74h498l-20 -65l-125 -5q-35 -2 -51.5 -15t-16.5 -52v-832q0 -194 128 -305.5t353 -111.5q205 0 326 109t121 298v907l-209 -2l20 74h465l-20 -65l-109 -5q-36 -2 -51.5 -15t-15.5 -54v-840q0 -229 -148.5 -362
t-400.5 -133zM608 1935l51 4q3 -113 55.5 -178t139.5 -65q84 0 138.5 65t58.5 178l49 -4q0 -142 -66.5 -231.5t-179.5 -89.5q-117 0 -181.5 88.5t-64.5 232.5z" />
    <glyph glyph-name="ubreve" unicode="&#x16d;" horiz-adv-x="1193" 
d="M483 -20q-241 0 -241 256v690l-166 6v57q18 3 63.5 11t70.5 12t58 8t54 4h12v-762q0 -109 45 -154t133 -45q146 0 330 146v717l-164 6v57q21 3 64.5 11t69.5 12t58.5 8t53.5 4h10v-942l176 -6v-56q-164 -40 -244 -40h-14l-4 141h-14q-182 -141 -351 -141zM317 1485l52 4
q3 -114 55 -179t139 -65q84 0 138.5 65.5t58.5 178.5l49 -4q0 -142 -66.5 -232t-179.5 -90q-117 0 -181.5 89t-64.5 233z" />
    <glyph glyph-name="Uring" unicode="&#x16e;" horiz-adv-x="1669" 
d="M844 -20q-264 0 -412.5 131.5t-148.5 359.5v911l-203 -2l20 74h498l-20 -65l-125 -5q-35 -2 -51.5 -15t-16.5 -52v-832q0 -194 128 -305.5t353 -111.5q205 0 326 109t121 298v907l-209 -2l20 74h465l-20 -65l-109 -5q-36 -2 -51.5 -15t-15.5 -54v-840q0 -229 -148.5 -362
t-400.5 -133zM707 1761q0 61 40.5 98t106.5 37t105.5 -37t39.5 -98t-40 -99t-105 -38q-66 0 -106.5 38.5t-40.5 98.5zM780 1761q0 -41 19 -65.5t55 -24.5q34 0 53 24.5t19 65.5q0 39 -19 63.5t-53 24.5q-36 0 -55 -24t-19 -64z" />
    <glyph glyph-name="uring" unicode="&#x16f;" horiz-adv-x="1193" 
d="M483 -20q-241 0 -241 256v690l-166 6v57q18 3 63.5 11t70.5 12t58 8t54 4h12v-762q0 -109 45 -154t133 -45q146 0 330 146v717l-164 6v57q21 3 64.5 11t69.5 12t58.5 8t53.5 4h10v-942l176 -6v-56q-164 -40 -244 -40h-14l-4 141h-14q-182 -141 -351 -141zM399 1309
q0 69 46.5 109t117.5 40t116.5 -40t45.5 -109q0 -68 -46 -109t-116 -41q-71 0 -117.5 41t-46.5 109zM475 1309q0 -48 22.5 -76.5t65.5 -28.5t65.5 28.5t22.5 76.5q0 49 -22.5 76.5t-65.5 27.5t-65.5 -27.5t-22.5 -76.5z" />
    <glyph glyph-name="Uhungarumlaut" unicode="&#x170;" horiz-adv-x="1669" 
d="M844 -20q-264 0 -412.5 131.5t-148.5 359.5v911l-203 -2l20 74h498l-20 -65l-125 -5q-35 -2 -51.5 -15t-16.5 -52v-832q0 -194 128 -305.5t353 -111.5q205 0 326 109t121 298v907l-209 -2l20 74h465l-20 -65l-109 -5q-36 -2 -51.5 -15t-15.5 -54v-840q0 -229 -148.5 -362
t-400.5 -133zM715 1618q53 137 113.5 265t84.5 128q23 0 35.5 -18t12.5 -41q0 -8 -4.5 -21t-10.5 -25.5t-16.5 -30t-18.5 -30t-21 -31.5t-19.5 -27.5t-18 -24.5t-12.5 -17l-105 -148zM913 1618q57 121 122.5 236.5t84.5 115.5q16 0 32.5 -17.5t16.5 -37.5q0 -47 -135 -203
l-100 -115z" />
    <glyph glyph-name="uhungarumlaut" unicode="&#x171;" horiz-adv-x="1193" 
d="M483 -20q-241 0 -241 256v690l-166 6v57q18 3 63.5 11t70.5 12t58 8t54 4h12v-762q0 -109 45 -154t133 -45q146 0 330 146v717l-164 6v57q21 3 64.5 11t69.5 12t58.5 8t53.5 4h10v-942l176 -6v-56q-164 -40 -244 -40h-14l-4 141h-14q-182 -141 -351 -141zM424 1167
q52 136 113.5 265t85.5 129q23 0 35 -18.5t12 -41.5q0 -8 -4.5 -21t-10.5 -25.5t-16.5 -30t-18.5 -30t-21 -31.5t-19.5 -27.5t-18 -24.5t-12.5 -17l-105 -147zM623 1167q58 123 122.5 238t83.5 115q16 0 33 -18t17 -38q0 -26 -32 -72.5t-104 -129.5l-100 -115z" />
    <glyph glyph-name="Uogonek" unicode="&#x172;" horiz-adv-x="1669" 
d="M844 -20q-264 0 -412.5 131.5t-148.5 359.5v911l-203 -2l20 74h498l-20 -65l-125 -5q-35 -2 -51.5 -15t-16.5 -52v-832q0 -194 128 -305.5t353 -111.5q205 0 326 109t121 298v907l-209 -2l20 74h465l-20 -65l-109 -5q-36 -2 -51.5 -15t-15.5 -54v-840q0 -164 -79.5 -282
t-221.5 -173q-43 -42 -70 -92t-27 -98q0 -54 33 -88.5t84 -34.5q46 0 85 20.5t83 61.5l23 -29q-54 -63 -111.5 -97t-104.5 -34q-72 0 -124 46t-52 118q0 103 82 201q-66 -14 -149 -14z" />
    <glyph glyph-name="uogonek" unicode="&#x173;" horiz-adv-x="1193" 
d="M483 -20q-241 0 -241 256v690l-166 6v57q18 3 63.5 11t70.5 12t58 8t54 4h12v-762q0 -109 45 -154t133 -45q146 0 330 146v717l-164 6v57q21 3 64.5 11t69.5 12t58.5 8t53.5 4h10v-942l176 -6v-56q-17 -4 -49.5 -11.5t-46.5 -10.5q-54 -45 -87.5 -101.5t-33.5 -111.5
q0 -54 33 -88.5t84 -34.5q46 0 85 20.5t83 61.5l22 -29q-54 -63 -111 -97t-104 -34q-72 0 -124 46t-52 118q0 57 30 120.5t85 115.5q-40 -4 -58 -4h-14l-4 141h-14q-182 -141 -351 -141z" />
    <glyph glyph-name="Wcircumflex" unicode="&#x174;" horiz-adv-x="2265" 
d="M1534 -20l-360 993l-406 -993h-31l-522 1402l-168 -2l12 74h527l-15 -65l-168 -5q-82 -3 -45 -96l412 -1108l365 895l-111 307l-190 -2l12 74h573l-14 -65l-193 -5q-81 -3 -47 -96l394 -1083l370 1177l-213 -2l15 74h487l-12 -65l-140 -5q-34 -1 -52 -21t-36 -73
l-413 -1310h-31zM831 1645q13 17 61 79t72.5 93t61 75t58 64t30.5 20q10 0 31.5 -19.5t58.5 -64.5t61 -74.5t73.5 -94t60.5 -78.5l-33 -25l-252 246l-250 -246z" />
    <glyph glyph-name="wcircumflex" unicode="&#x175;" horiz-adv-x="1585" 
d="M1067 -20l-258 692l-295 -692h-41l-313 954l-152 -2l21 72h463l-21 -64l-139 -2q-41 0 -52 -17.5t3 -60.5l229 -704l260 614l-61 164l-154 -2l21 72h462l-20 -64l-135 -2q-41 0 -52.5 -18.5t3.5 -59.5l258 -688l247 762l-192 -2l20 72h406l-21 -64l-71 -6
q-34 -3 -55.5 -21t-34.5 -59l-285 -874h-41zM504 1159q244 402 280 402q35 0 279 -402l-37 -20l-242 307l-243 -307z" />
    <glyph glyph-name="Ycircumflex" unicode="&#x176;" horiz-adv-x="1495" 
d="M496 0l20 66l107 4q42 3 60.5 18.5t18.5 58.5v467l-487 768l-168 -2l21 74h526l-21 -65l-153 -5q-47 -1 -55.5 -20.5t16.5 -60.5l387 -609l426 688l-223 -2l14 74h463l-12 -65l-84 -3q-40 -3 -65 -20.5t-54 -62.5l-428 -689v-542l207 2l-21 -74h-495zM494 1645
q16 20 61.5 79.5t71.5 92.5t61 75.5t57 63t31 20.5q10 0 31.5 -19.5t58.5 -64.5t61 -74.5t73.5 -94t60.5 -78.5l-33 -25l-252 246l-250 -246z" />
    <glyph glyph-name="ycircumflex" unicode="&#x177;" horiz-adv-x="1138" 
d="M246 -492q-73 0 -120 54q-29 33 -19 48q2 4 8 5l164 20q61 7 102.5 57t83.5 154l67 168l-368 920l-156 -2l21 72h483l-20 -64l-148 -2q-42 0 -54 -19t7 -65l285 -717l321 797l-194 -2l20 72h399l-20 -64l-70 -2q-30 -1 -50 -21t-38 -63l-391 -983q-70 -177 -150.5 -270
t-162.5 -93zM324 1159q244 402 280 402q35 0 279 -402l-37 -20l-242 307l-244 -307z" />
    <glyph glyph-name="Ydieresis" unicode="&#x178;" horiz-adv-x="1495" 
d="M496 0l20 66l107 4q42 3 60.5 18.5t18.5 58.5v467l-487 768l-168 -2l21 74h526l-21 -65l-153 -5q-47 -1 -55.5 -20.5t16.5 -60.5l387 -609l426 688l-223 -2l14 74h463l-12 -65l-84 -3q-40 -3 -65 -20.5t-54 -62.5l-428 -689v-542l207 2l-21 -74h-495zM580 1792
q0 31 22.5 54.5t52.5 23.5q32 0 54 -23.5t22 -54.5t-22 -52.5t-54 -21.5q-31 0 -53 21.5t-22 52.5zM827 1792q0 31 23 54.5t55 23.5t54 -23.5t22 -54.5t-22 -52.5t-54 -21.5t-55 21.5t-23 52.5z" />
    <glyph glyph-name="Zacute" unicode="&#x179;" horiz-adv-x="1314" 
d="M137 0l-20 72l950 1317l-653 -7q-41 -1 -67.5 -6t-51 -23t-41 -44t-35 -76t-33.5 -111.5t-36 -158.5h-52l68 516q121 -25 283 -25h718l21 -72l-952 -1316l657 6q49 1 79.5 6t59 24t45 46t33 81.5t28.5 120t27 170.5h52l-41 -545q-121 25 -283 25h-756zM559 1622
q44 43 135 138t145.5 148.5t65.5 53.5q18 0 30.5 -16.5t12.5 -34.5q0 -29 -19 -53.5t-63 -55.5l-284 -205z" />
    <glyph glyph-name="zacute" unicode="&#x17a;" horiz-adv-x="1009" 
d="M129 0l-14 61l639 879l-394 -4q-64 -1 -112 -62.5t-96 -197.5h-43l90 368q108 -40 235 -40h428l12 -62l-636 -879l393 3q26 1 46 7.5t45 27t48 55.5t51 95.5t58 145.5h41l-99 -397h-692zM381 1167q29 35 79 96t88 107.5t77.5 93t64.5 72t33 25.5q19 0 34 -15.5t15 -34.5
q0 -7 -1 -13t-4 -12.5t-5 -11t-8 -11.5t-9.5 -11t-12 -11.5t-12.5 -11t-14.5 -13t-15.5 -13.5l-280 -264z" />
    <glyph glyph-name="Zdotaccent" unicode="&#x17b;" horiz-adv-x="1314" 
d="M137 0l-20 72l950 1317l-653 -7q-41 -1 -67.5 -6t-51 -23t-41 -44t-35 -76t-33.5 -111.5t-36 -158.5h-52l68 516q121 -25 283 -25h718l21 -72l-952 -1316l657 6q49 1 79.5 6t59 24t45 46t33 81.5t28.5 120t27 170.5h52l-41 -545q-121 25 -283 25h-756zM649 1823
q0 36 26 62t62 26q34 0 58 -26.5t24 -61.5q0 -34 -24 -59t-58 -25q-36 0 -62 25t-26 59z" />
    <glyph glyph-name="zdotaccent" unicode="&#x17c;" horiz-adv-x="1009" 
d="M129 0l-14 61l639 879l-394 -4q-64 -1 -112 -62.5t-96 -197.5h-43l90 368q108 -40 235 -40h428l12 -62l-636 -879l393 3q26 1 46 7.5t45 27t48 55.5t51 95.5t58 145.5h41l-99 -397h-692zM463 1372q0 36 26 62t62 26q34 0 58 -26.5t24 -61.5q0 -34 -24 -59t-58 -25
q-36 0 -62 25t-26 59z" />
    <glyph glyph-name="Zcaron" unicode="&#x17d;" horiz-adv-x="1314" 
d="M137 0l-20 72l950 1317l-653 -7q-41 -1 -67.5 -6t-51 -23t-41 -44t-35 -76t-33.5 -111.5t-36 -158.5h-52l68 516q121 -25 283 -25h718l21 -72l-952 -1316l657 6q49 1 79.5 6t59 24t45 46t33 81.5t28.5 120t27 170.5h52l-41 -545q-121 25 -283 25h-756zM446 1944l33 24
l250 -246l252 246l33 -24q-14 -18 -61 -79.5t-72.5 -93t-61.5 -75.5t-58 -64t-32 -20q-9 0 -31 20.5t-57.5 63.5t-61.5 76t-72 93t-61 79z" />
    <glyph glyph-name="zcaron" unicode="&#x17e;" horiz-adv-x="1009" 
d="M129 0l-14 61l639 879l-394 -4q-64 -1 -112 -62.5t-96 -197.5h-43l90 368q108 -40 235 -40h428l12 -62l-636 -879l393 3q26 1 46 7.5t45 27t48 55.5t51 95.5t58 145.5h41l-99 -397h-692zM264 1548l37 21l244 -307l241 307l37 -21q-244 -401 -278 -401q-37 0 -281 401z
" />
    <glyph glyph-name="florin" unicode="&#x192;" horiz-adv-x="1234" 
d="M637 1151q10 79 23 136t38 114.5t60 92.5t90.5 57t128.5 22q113 0 266 -49q0 -31 -25.5 -61.5t-50.5 -30.5q-17 0 -52.5 10t-88.5 27.5t-80 25.5h-20q-82 0 -126 -74t-63 -229l-24 -188h374v-72h-382l-107 -848q-8 -65 -18.5 -114t-27.5 -100t-42 -86t-59.5 -63.5
t-83 -42.5t-109.5 -14q-121 0 -268 47q0 32 26.5 63t51.5 31q17 0 50.5 -9.5t91.5 -29t79 -26.5h20q81 0 125.5 75t63.5 230l112 887h-219v51l225 25h2z" />
    <glyph glyph-name="uni0218" unicode="&#x218;" horiz-adv-x="1202" 
d="M631 -20q-273 0 -449 129l-61 356h51q27 -119 74 -202t109.5 -127.5t129.5 -63.5t148 -19q93 0 170.5 32.5t126.5 101.5t49 163q0 114 -95 192.5t-311 157.5q-101 37 -170.5 73t-124.5 83t-81.5 107t-26.5 135q0 165 127 271t336 106q176 0 344 -97l61 -338h-53
q-30 110 -67.5 182t-87 111t-103.5 53.5t-129 14.5q-152 0 -244 -82t-92 -205q0 -112 95.5 -189t304.5 -153q215 -76 313 -165t98 -234q0 -169 -119 -281t-323 -112zM551 -203q0 38 22 60t56 22q48 0 82 -39.5t34 -107.5q0 -143 -145 -273l-33 13q29 37 43.5 60t26.5 60
t12 80q0 37 -24.5 62.5t-49 39t-24.5 23.5z" />
    <glyph glyph-name="uni0219" unicode="&#x219;" horiz-adv-x="870" 
d="M446 -20q-186 0 -313 86l-37 256h43q25 -81 61.5 -137t81 -84.5t89 -40t98.5 -11.5q72 0 133.5 49.5t61.5 130.5q0 78 -59 135t-181 111q-168 70 -229.5 124t-61.5 155q0 108 82.5 189t226.5 81q143 0 265 -68l30 -254h-43q-34 144 -99 197t-161 53q-93 0 -152 -47
t-59 -127q0 -39 15.5 -68.5t53 -56t75 -45t106.5 -47.5q151 -65 216 -133.5t65 -163.5q0 -117 -85.5 -200.5t-222.5 -83.5zM389 -203q0 38 22 60t56 22q48 0 82.5 -39.5t34.5 -107.5q0 -142 -146 -273l-32 13q42 55 61.5 97t19.5 103q0 37 -24.5 62.5t-49 39t-24.5 23.5z
" />
    <glyph glyph-name="uni021A" unicode="&#x21a;" horiz-adv-x="1388" 
d="M403 0l21 66l147 2q40 3 56 16.5t16 56.5v1241h-315q-36 0 -57.5 -3t-43 -17t-34 -35t-26.5 -63.5t-24.5 -96.5t-25.5 -141h-51l40 453q156 -25 283 -25h610q127 0 283 25l41 -453h-51q-15 87 -26 140.5t-25 97t-26.5 64t-33.5 34.5t-42.5 17t-57.5 3h-316v-1310l242 2
l-20 -74h-564zM582 -203q0 39 22 60.5t55 21.5q48 0 82.5 -39.5t34.5 -107.5q0 -143 -145 -273l-33 13q29 37 43.5 60t26.5 60t12 80q0 37 -24.5 62.5t-49 39t-24.5 23.5z" />
    <glyph glyph-name="uni021B" unicode="&#x21b;" horiz-adv-x="722" 
d="M408 -20q-215 0 -215 245v711h-144v49l133 43l56 180h47v-204h340v-68h-340v-686q0 -103 39 -149t116 -46q55 0 111 17t90 39l21 -48q-125 -83 -254 -83zM324 -203q0 39 22 60.5t55 21.5q48 0 82.5 -39.5t34.5 -107.5q0 -143 -145 -273l-33 13q29 37 43.5 60t26.5 60
t12 80q0 37 -24.5 62.5t-49 39t-24.5 23.5z" />
    <glyph glyph-name="uni0237" unicode="&#x237;" horiz-adv-x="462" 
d="M0 -455q33 30 56.5 54.5t55.5 70.5t52.5 94t35.5 119.5t15 151.5v891l-168 6v57q22 3 80 12.5t99.5 15t74.5 7.5h14q-8 -115 -8 -258v-713q0 -110 -23 -202.5t-63.5 -157.5t-86.5 -109.5t-101 -75.5z" />
    <glyph glyph-name="circumflex" unicode="&#x2c6;" horiz-adv-x="628" 
d="M557 1139l-242 307l-243 -307l-37 20q244 402 280 402q35 0 279 -402z" />
    <glyph glyph-name="caron" unicode="&#x2c7;" horiz-adv-x="628" 
d="M594 1548q-244 -401 -279 -401q-36 0 -280 401l37 21l243 -307l242 307z" />
    <glyph glyph-name="breve" unicode="&#x2d8;" horiz-adv-x="518" 
d="M258 1163q-117 0 -181.5 89t-64.5 233l51 4q3 -113 55.5 -178.5t139.5 -65.5q84 0 138.5 65.5t58.5 178.5l49 -4q0 -142 -66.5 -232t-179.5 -90z" />
    <glyph glyph-name="dotaccent" unicode="&#x2d9;" horiz-adv-x="221" 
d="M113 1288q-36 0 -62 25t-26 59q0 36 26 62t62 26q34 0 58 -26.5t24 -61.5q0 -34 -24 -59t-58 -25z" />
    <glyph glyph-name="ring" unicode="&#x2da;" horiz-adv-x="370" 
d="M186 1159q-70 0 -116.5 41t-46.5 109q0 69 46 109t117 40t116.5 -40t45.5 -109q0 -68 -46 -109t-116 -41zM98 1309q0 -48 22.5 -76.5t65.5 -28.5t65.5 28.5t22.5 76.5q0 49 -22.5 76.5t-65.5 27.5t-65.5 -27.5t-22.5 -76.5z" />
    <glyph glyph-name="ogonek" unicode="&#x2db;" horiz-adv-x="409" 
d="M233 -416q-72 0 -124 46t-52 118q0 83 60.5 172t169.5 143l26 -26q-70 -44 -121 -114.5t-51 -137.5q0 -54 33 -88.5t84 -34.5q46 0 85 20.5t83 61.5l23 -29q-54 -63 -111.5 -97t-104.5 -34z" />
    <glyph glyph-name="tilde" unicode="&#x2dc;" horiz-adv-x="729" 
d="M61 1217q26 90 74.5 137t110.5 47q35 0 72 -19t64 -42.5t62 -42.5t66 -19q42 0 77 38.5t48 104.5l43 -20q-12 -90 -63.5 -143.5t-114.5 -53.5q-47 0 -95.5 30t-92.5 59.5t-81 29.5q-41 0 -71.5 -30.5t-59.5 -96.5z" />
    <glyph glyph-name="hungarumlaut" unicode="&#x2dd;" horiz-adv-x="450" 
d="M12 1167q52 136 113.5 265t85.5 129q23 0 35 -18.5t12 -41.5q0 -8 -4.5 -21t-10.5 -25.5t-16.5 -30t-18.5 -30t-21 -31.5t-19.5 -27.5t-18 -24.5t-12.5 -17l-104 -147zM211 1167q57 122 122.5 237.5t84.5 115.5q16 0 32.5 -18t16.5 -38q0 -27 -32 -73.5t-103 -128.5
l-101 -115z" />
    <glyph glyph-name="gravecomb" unicode="&#x300;" 
d="M510 1167l-29 -28l-280 264q-5 4 -15.5 13.5t-14.5 13t-12.5 11t-12 11.5t-9.5 11t-8 11.5t-5 11t-4 12.5t-1 13q0 19 15 34.5t34 15.5q12 0 62.5 -56.5t153.5 -183t126 -154.5z" />
    <glyph glyph-name="acutecomb" unicode="&#x301;" 
d="M27 1167q29 35 79 96t88 107.5t77.5 93t64.5 72t33 25.5q19 0 34 -15.5t15 -34.5q0 -7 -1 -13t-4 -12.5t-5 -11t-8 -11.5t-9.5 -11t-12 -11.5t-12.5 -11t-14.5 -13t-15.5 -13.5l-281 -264z" />
    <glyph glyph-name="uni0302" unicode="&#x302;" 
d="M557 1139l-242 307l-243 -307l-37 20q244 402 280 402q35 0 279 -402z" />
    <glyph glyph-name="tildecomb" unicode="&#x303;" 
d="M61 1217q26 90 74.5 137t110.5 47q35 0 72 -19t64 -42.5t62 -42.5t66 -19q42 0 77 38.5t48 104.5l43 -20q-12 -90 -63.5 -143.5t-114.5 -53.5q-47 0 -95.5 30t-92.5 59.5t-81 29.5q-41 0 -71.5 -30.5t-59.5 -96.5z" />
    <glyph glyph-name="uni0304" unicode="&#x304;" 
d="M10 1253q0 30 16.5 52t36.5 22h463q0 -28 -16 -51t-37 -23h-463z" />
    <glyph glyph-name="uni0306" unicode="&#x306;" 
d="M258 1163q-117 0 -181.5 89t-64.5 233l51 4q3 -113 55.5 -178.5t139.5 -65.5q84 0 138.5 65.5t58.5 178.5l49 -4q0 -142 -66.5 -232t-179.5 -90z" />
    <glyph glyph-name="uni0307" unicode="&#x307;" 
d="M113 1288q-36 0 -62 25t-26 59q0 36 26 62t62 26q34 0 58 -26.5t24 -61.5q0 -34 -24 -59t-58 -25z" />
    <glyph glyph-name="uni0308" unicode="&#x308;" 
d="M391 1280q-35 0 -60.5 24.5t-25.5 59.5q0 34 25.5 60t60.5 26t59.5 -26t24.5 -60q0 -35 -24.5 -59.5t-59.5 -24.5zM29 1364q0 34 25.5 60t60.5 26t59.5 -26t24.5 -60q0 -35 -24.5 -59.5t-59.5 -24.5t-60.5 24.5t-25.5 59.5z" />
    <glyph glyph-name="uni030A" unicode="&#x30a;" 
d="M186 1159q-70 0 -116.5 41t-46.5 109q0 69 46 109t117 40t116.5 -40t45.5 -109q0 -68 -46 -109t-116 -41zM98 1309q0 -48 22.5 -76.5t65.5 -28.5t65.5 28.5t22.5 76.5q0 49 -22.5 76.5t-65.5 27.5t-65.5 -27.5t-22.5 -76.5z" />
    <glyph glyph-name="uni030B" unicode="&#x30b;" 
d="M12 1167q52 136 113.5 265t85.5 129q23 0 35 -18.5t12 -41.5q0 -8 -4.5 -21t-10.5 -25.5t-16.5 -30t-18.5 -30t-21 -31.5t-19.5 -27.5t-18 -24.5t-12.5 -17l-104 -147zM211 1167q57 122 122.5 237.5t84.5 115.5q16 0 32.5 -18t16.5 -38q0 -27 -32 -73.5t-103 -128.5
l-101 -115z" />
    <glyph glyph-name="uni030C" unicode="&#x30c;" 
d="M594 1548q-244 -401 -279 -401q-36 0 -280 401l37 21l243 -307l242 307z" />
    <glyph glyph-name="uni0312" unicode="&#x312;" 
d="M291 1561q-43 -55 -62.5 -97.5t-19.5 -103.5q0 -37 24.5 -62.5t49 -39t24.5 -23.5q0 -38 -22 -60t-56 -22q-48 0 -82 39.5t-34 107.5q0 143 145 273z" />
    <glyph glyph-name="uni0326" unicode="&#x326;" 
d="M100 -528q29 37 43.5 60t26.5 60t12 80q0 37 -24.5 62.5t-49 39t-24.5 23.5q0 38 22 60t56 22q48 0 82.5 -39.5t34.5 -107.5q0 -142 -146 -273z" />
    <glyph glyph-name="uni0327" unicode="&#x327;" 
d="M80 -494q56 38 90.5 87t34.5 88q0 85 -129 149l51 180h63l-30 -125q121 -71 121 -164q0 -74 -51 -138t-130 -105z" />
    <glyph glyph-name="uni0328" unicode="&#x328;" 
d="M233 -416q-72 0 -124 46t-52 118q0 83 60.5 172t169.5 143l26 -26q-70 -44 -121 -114.5t-51 -137.5q0 -54 33 -88.5t84 -34.5q46 0 85 20.5t83 61.5l23 -29q-54 -63 -111.5 -97t-104.5 -34z" />
    <glyph glyph-name="uni0394" unicode="&#x394;" horiz-adv-x="1331" 
d="M47 0l608 1454h21l608 -1454h-1237zM162 72h981l-494 1177z" />
    <glyph glyph-name="uni03A9" unicode="&#x3a9;" horiz-adv-x="1619" 
d="M885 72q250 153 371.5 327.5t121.5 409.5q0 253 -162 417.5t-405 164.5q-244 0 -406.5 -164.5t-162.5 -417.5q0 -235 121.5 -409.5t371.5 -327.5l-35 -72h-591l-21 98l496 -10q-217 118 -337 297.5t-120 402.5q0 194 90 352t246.5 246.5t347.5 88.5q142 0 268.5 -52
t217 -142.5t143.5 -218.5t53 -274q0 -223 -120 -402.5t-337 -297.5l496 10l-21 -98h-591z" />
    <glyph glyph-name="uni03BC" unicode="&#x3bc;" horiz-adv-x="1193" 
d="M483 -20q-132 0 -192 79q9 -256 74 -473l-115 -78q-24 99 -29 321t2 468l19 -6v635l-166 6v57q18 3 63.5 11t70.5 12t58 8t54 4h12v-762q0 -109 45 -154t133 -45q146 0 330 146v717l-164 6v57q21 3 64.5 11t69.5 12t58.5 8t53.5 4h10v-942l176 -6v-56q-164 -40 -244 -40
h-14l-4 141h-14q-182 -141 -351 -141z" />
    <glyph glyph-name="pi" unicode="&#x3c0;" horiz-adv-x="1132" 
d="M909 -20q-61 0 -103 78.5t-56 211.5q-24 277 32 639h-293q0 -228 -16 -506.5t-43 -422.5q-67 -3 -129 47q54 115 83 382.5t22 499.5h-7q-156 0 -286 -100l-37 37q58 83 140 120.5t218 37.5h662q2 -19 -10.5 -48t-30.5 -47h-185q-22 -186 -28 -350.5t8 -261.5
q21 -126 75 -165.5t183 -0.5l14 -47q-64 -41 -90.5 -57t-62 -31.5t-60.5 -15.5z" />
    <glyph glyph-name="uni0400" unicode="&#x400;" horiz-adv-x="1343" 
d="M84 0l20 66l109 4q38 2 54 15t16 54v1243l-203 -2l20 74h731q167 0 314 25l47 -422h-51q-17 79 -28.5 126.5t-25.5 87.5t-26 59t-30.5 32.5t-38 16.5t-50.5 3h-557v-587h369q35 0 55.5 5.5t35.5 17.5t22 41.5t10 65.5t4 101h59v-530h-59q-3 143 -24.5 184t-102.5 41h-369
v-649h569q35 0 58.5 4.5t46 21.5t37.5 39t34 67.5t35 97t41 136.5h51l-98 -463q-128 25 -244 25h-831zM475 1911q0 18 12.5 34.5t30.5 16.5q11 0 65.5 -53.5t145.5 -148.5t135 -138l-22 -25l-285 205q-44 31 -63 55.5t-19 53.5z" />
    <glyph glyph-name="uni0401" unicode="&#x401;" horiz-adv-x="1343" 
d="M84 0l20 66l109 4q38 2 54 15t16 54v1243l-203 -2l20 74h731q167 0 314 25l47 -422h-51q-17 79 -28.5 126.5t-25.5 87.5t-26 59t-30.5 32.5t-38 16.5t-50.5 3h-557v-587h369q35 0 55.5 5.5t35.5 17.5t22 41.5t10 65.5t4 101h59v-530h-59q-3 143 -24.5 184t-102.5 41h-369
v-649h569q35 0 58.5 4.5t46 21.5t37.5 39t34 67.5t35 97t41 136.5h51l-98 -463q-128 25 -244 25h-831zM489 1792q0 31 22.5 54.5t53.5 23.5q32 0 54 -23.5t22 -54.5t-22 -52.5t-54 -21.5q-31 0 -53.5 21.5t-22.5 52.5zM737 1792q0 31 23 54.5t55 23.5t54 -23.5t22 -54.5
t-22 -52.5t-54 -21.5t-55 21.5t-23 52.5z" />
    <glyph glyph-name="uni0402" unicode="&#x402;" horiz-adv-x="1716" 
d="M1171 -356q-73 0 -136.5 26.5t-63.5 63.5q0 57 57 57l244 -70q104 64 166.5 215.5t62.5 344.5q0 230 -95 363.5t-280 133.5q-186 0 -381 -112v-594l242 2l-20 -74h-564l21 66l147 2q40 3 56 16.5t16 56.5v1241h-315q-36 0 -57.5 -3t-43 -17t-34 -35t-26.5 -63.5
t-24.5 -96.5t-25.5 -141h-51l40 453q156 -25 283 -25h610q127 0 283 25l41 -453h-51q-15 87 -26 140.5t-25 97t-26.5 64t-33.5 34.5t-42.5 17t-57.5 3h-316v-641q231 123 404 123q154 0 258.5 -71.5t152.5 -196t48 -295.5q0 -186 -57 -336.5t-157.5 -235.5t-222.5 -85z" />
    <glyph glyph-name="uni0403" unicode="&#x403;" horiz-adv-x="1155" 
d="M84 0l20 66l109 4q38 2 54 15t16 56v1241l-203 -2l20 74h645q136 0 283 25l41 -453h-51q-15 88 -26 141t-25 96.5t-26 64t-34 34.5t-44 17t-60 3h-334q-46 0 -65 -13.5t-19 -57.5v-1239l201 2l-21 -74h-481zM444 1622q43 43 135 138t146.5 148.5t65.5 53.5
q18 0 30.5 -16.5t12.5 -34.5q0 -29 -19 -53.5t-63 -55.5l-285 -205z" />
    <glyph glyph-name="uni0404" unicode="&#x404;" horiz-adv-x="1482" 
d="M821 -20q-213 0 -373.5 100.5t-242.5 270t-82 380.5q0 170 57 312t153 235.5t222 145t266 51.5q255 0 457 -109l72 -367h-52q-38 122 -89.5 204t-115 124.5t-128 59t-146.5 16.5q-116 0 -221.5 -46.5t-184.5 -129t-127.5 -203.5t-52.5 -262h449q36 0 57 6t36 18t22 41.5
t10 65t4 100.5h59v-536h-59q-3 148 -25 190.5t-104 42.5h-446q5 -136 45.5 -251t111.5 -200.5t177 -133.5t237 -48q179 0 307 78t176 191q40 0 67 -24t27 -62q0 -62 -82 -123t-213.5 -99t-267.5 -38z" />
    <glyph glyph-name="uni0405" unicode="&#x405;" horiz-adv-x="1202" 
d="M631 -20q-273 0 -449 129l-61 356h51q27 -119 74 -202t109.5 -127.5t129.5 -63.5t148 -19q93 0 170.5 32.5t126.5 101.5t49 163q0 114 -95 192.5t-311 157.5q-101 37 -170.5 73t-124.5 83t-81.5 107t-26.5 135q0 165 127 271t336 106q176 0 344 -97l61 -338h-53
q-30 110 -67.5 182t-87 111t-103.5 53.5t-129 14.5q-152 0 -244 -82t-92 -205q0 -112 95.5 -189t304.5 -153q215 -76 313 -165t98 -234q0 -169 -119 -281t-323 -112z" />
    <glyph glyph-name="uni0406" unicode="&#x406;" horiz-adv-x="665" 
d="M84 0l20 66l109 4q37 2 53.5 14.5t16.5 50.5v1247l-203 -2l20 74h482l-21 -65l-108 -5q-35 -2 -51.5 -15t-16.5 -52v-1245l201 2l-21 -74h-481z" />
    <glyph glyph-name="uni0407" unicode="&#x407;" horiz-adv-x="665" 
d="M84 0l20 66l109 4q37 2 53.5 14.5t16.5 50.5v1247l-203 -2l20 74h482l-21 -65l-108 -5q-35 -2 -51.5 -15t-16.5 -52v-1245l201 2l-21 -74h-481zM139 1792q0 31 22.5 54.5t53.5 23.5q32 0 54 -23.5t22 -54.5t-22 -52.5t-54 -21.5q-31 0 -53.5 21.5t-22.5 52.5zM387 1792
q0 31 23 54.5t55 23.5t54 -23.5t22 -54.5t-22 -52.5t-54 -21.5t-55 21.5t-23 52.5z" />
    <glyph glyph-name="uni0408" unicode="&#x408;" horiz-adv-x="641" 
d="M-31 -422q57 40 99.5 78.5t86 95.5t71.5 120.5t45.5 152t17.5 192.5v1165l-248 -2l20 74h533l-21 -65l-114 -5q-35 -2 -51.5 -15t-16.5 -52v-1079q0 -94 -12 -175.5t-32 -144t-51 -117t-62.5 -93t-73.5 -74t-77.5 -58.5t-80.5 -47z" />
    <glyph glyph-name="uni0409" unicode="&#x409;" horiz-adv-x="2007" 
d="M193 -16q-40 0 -72.5 25t-32.5 67q60 18 107.5 49.5t81.5 71.5t58.5 96t39 113.5t23 133.5t11.5 146.5t3 161.5v534l-217 -2l20 74h1102l-21 -65l-108 -5q-36 -2 -51 -15t-15 -56v-477h283q225 0 358 -108t133 -290q0 -218 -131.5 -328t-367.5 -110h-580l21 66l112 4
q38 2 54 15t16 56v1241h-528v-510q0 -395 -64 -600.5t-235 -287.5zM1122 72h262q191 0 296.5 89t105.5 271q0 154 -106 244t-287 90h-271v-694z" />
    <glyph glyph-name="uni040A" unicode="&#x40a;" horiz-adv-x="2222" 
d="M84 0l20 66l109 4q38 2 54 15t16 56v1241l-203 -2l20 74h482l-21 -65l-108 -5q-37 -2 -52.5 -15.5t-15.5 -57.5v-502h834v573l-203 -2l20 74h482l-21 -65l-108 -5q-37 -2 -52.5 -15.5t-15.5 -57.5v-502h299q228 0 359.5 -99.5t131.5 -279.5q0 -218 -130.5 -324
t-368.5 -106h-596l20 66l115 4q36 2 52 15.5t16 55.5v596h-834v-665l201 2l-21 -74h-481zM1321 72h278q402 0 402 350q0 152 -104.5 233.5t-288.5 81.5h-287v-665z" />
    <glyph glyph-name="uni040B" unicode="&#x40b;" horiz-adv-x="1880" 
d="M1296 0l21 66l108 4q39 2 54.5 15.5t15.5 57.5v355q0 145 -78.5 212.5t-212.5 67.5q-107 0 -235.5 -35.5t-223.5 -85.5v-585l242 2l-20 -74h-564l21 66l147 2q40 3 56 16.5t16 56.5v1241h-315q-36 0 -57.5 -3t-43 -17t-34 -35t-26.5 -63.5t-24.5 -96.5t-25.5 -141h-51
l40 453q156 -25 283 -25h610q127 0 283 25l41 -453h-51q-15 87 -26 140.5t-25 97t-26.5 64t-33.5 34.5t-42.5 17t-57.5 3h-316v-647q108 57 244 93t238 36q370 0 370 -358v-434l203 2l-20 -74h-484z" />
    <glyph glyph-name="uni040C" unicode="&#x40c;" horiz-adv-x="1554" 
d="M1415 -20q-249 0 -405 167l-518 539v16l682 678h-250l20 74h563l-20 -65q-120 -3 -184.5 -26t-114.5 -73l-580 -577l482 -498q139 -149 344 -188zM80 1380l20 74h482l-21 -65l-108 -5q-35 -2 -51.5 -15t-16.5 -52v-1245l197 2l-21 -74h-477l20 66l109 4q38 2 54 15t16 56
v1241zM588 1622q44 43 135 138t145.5 148.5t65.5 53.5q18 0 30.5 -16.5t12.5 -34.5q0 -29 -19 -53.5t-63 -55.5l-285 -205z" />
    <glyph glyph-name="uni040D" unicode="&#x40d;" horiz-adv-x="1656" 
d="M387 66l-2 8v-74h-301l20 66l109 4q38 2 54 15t16 56v1241l-203 -2l20 74h482l-21 -65l-108 -5q-37 -2 -52.5 -15.5t-15.5 -57.5v-1039l829 957q60 68 60 160v65h301l-21 -65l-108 -5q-38 -2 -54 -15.5t-16 -57.5v-1239l201 2l-21 -74h-483l21 66l112 4q36 2 52 15.5
t16 55.5v1039l-836 -963q-51 -59 -51 -151zM694 1911q0 18 12.5 34.5t30.5 16.5q11 0 65.5 -53.5t145.5 -148.5t135 -138l-22 -25l-285 205q-44 31 -63 55.5t-19 53.5z" />
    <glyph glyph-name="uni040E" unicode="&#x40e;" horiz-adv-x="1484" 
d="M270 -20q-57 0 -78.5 28.5t-21.5 77.5q334 0 451 201q39 66 38.5 135.5t-47.5 167.5l-389 792l-176 -2l12 74h547l-12 -65l-166 -5q-46 -2 -58.5 -20t7.5 -61l373 -768l413 847l-233 -2l14 74h494l-13 -65l-120 -3q-38 -3 -57.5 -19t-41.5 -62l-483 -988
q-46 -95 -104 -163.5t-119 -104.5t-117.5 -52.5t-112.5 -16.5zM502 1823q0 58 31 88.5t81 30.5q-29 -139 12 -211t144 -72t145 72t13 211q50 0 81 -30.5t31 -88.5q0 -100 -71 -164t-199 -64q-127 0 -197.5 64t-70.5 164z" />
    <glyph glyph-name="uni040F" unicode="&#x40f;" horiz-adv-x="1601" 
d="M80 0l20 74l187 -2v1310l-203 -2l20 74h488l-21 -65l-114 -5q-37 -2 -52.5 -15t-15.5 -56v-1241h741q45 0 66 13.5t21 57.5v1239l-203 -2l20 74h479l-20 -65l-107 -5q-37 -2 -52 -15t-15 -56v-1241l203 2l-21 -74h-655q3 -50 13 -216t13 -255h-118q3 86 28 471h-702z" />
    <glyph glyph-name="uni0410" unicode="&#x410;" horiz-adv-x="1595" 
d="M1032 0l21 66l100 4q37 1 55 4t29.5 13.5t7.5 31t-20 55.5l-117 248h-672l-137 -350l240 2l-21 -74h-471l21 66l55 4q56 2 85 20.5t50 71.5l436 1116q-46 69 -105 91.5t-188 27.5l11 57h315l655 -1382l166 2l-20 -74h-496zM465 492h610l-307 647l-27 55z" />
    <glyph glyph-name="uni0411" unicode="&#x411;" horiz-adv-x="1284" 
d="M84 0l20 66l109 4q38 2 54 15t16 56v1241l-203 -2l20 74h676q136 0 283 25l41 -406h-51q-15 76 -26 121t-25 83.5t-26.5 56t-34 30t-44 15.5t-59.5 3h-371q-42 0 -60 -13.5t-18 -57.5v-475h305q227 0 359.5 -108t132.5 -290q0 -218 -132 -328t-368 -110h-598zM385 72h285
q192 0 296.5 88.5t104.5 271.5q0 154 -105.5 244t-287.5 90h-293v-694z" />
    <glyph glyph-name="uni0412" unicode="&#x412;" horiz-adv-x="1306" 
d="M84 0l20 66l111 4q38 2 54 16t16 55v1241l-205 -2l20 74h566q215 0 331.5 -93.5t116.5 -254.5q0 -123 -64.5 -212.5t-175.5 -125.5q150 -32 236 -125t86 -225q0 -195 -135.5 -306.5t-364.5 -111.5h-612zM387 72h297q190 0 296.5 89t106.5 251q0 147 -106 230t-289 83
h-305v-653zM387 791h318q138 0 222.5 84.5t84.5 222.5q0 134 -94 209t-271 75h-260v-591z" />
    <glyph glyph-name="uni0413" unicode="&#x413;" horiz-adv-x="1155" 
d="M84 0l20 66l109 4q38 2 54 15t16 56v1241l-203 -2l20 74h645q136 0 283 25l41 -453h-51q-15 88 -26 141t-25 96.5t-26 64t-34 34.5t-44 17t-60 3h-334q-46 0 -65 -13.5t-19 -57.5v-1239l201 2l-21 -74h-481z" />
    <glyph glyph-name="uni0414" unicode="&#x414;" horiz-adv-x="1566" 
d="M115 -471q-65 282 -62 547l162 -2q58 20 103 54t76 74.5t53 98.5t34.5 113.5t19.5 133t9 143.5t2 157v534l-221 -2l20 74h1180l-21 -65l-108 -5q-37 -2 -52.5 -15t-15.5 -56v-1239l215 2q8 -252 -67 -547h-51q11 111 16 181.5t2 127t-12.5 85.5t-32 48t-50 24t-73.5 5
h-952q-38 0 -60.5 -5.5t-41.5 -24t-26.5 -48t-10.5 -85t1.5 -127.5t14.5 -181h-51zM420 72h702q39 0 54.5 13t15.5 56v1241h-600v-510q0 -335 -35.5 -519.5t-136.5 -280.5z" />
    <glyph glyph-name="uni0415" unicode="&#x415;" horiz-adv-x="1343" 
d="M84 0l20 66l109 4q38 2 54 15t16 54v1243l-203 -2l20 74h731q167 0 314 25l47 -422h-51q-17 79 -28.5 126.5t-25.5 87.5t-26 59t-30.5 32.5t-38 16.5t-50.5 3h-557v-587h369q35 0 55.5 5.5t35.5 17.5t22 41.5t10 65.5t4 101h59v-530h-59q-3 143 -24.5 184t-102.5 41h-369
v-649h569q35 0 58.5 4.5t46 21.5t37.5 39t34 67.5t35 97t41 136.5h51l-98 -463q-128 25 -244 25h-831z" />
    <glyph glyph-name="uni0416" unicode="&#x416;" horiz-adv-x="2271" 
d="M877 0l20 66l109 4q35 2 50 14.5t15 50.5v1247l-203 -2l21 74h483l-20 -65l-109 -5q-36 -2 -52.5 -14.5t-16.5 -52.5v-1245l202 2l-20 -74h-479zM49 1389l21 65h563l-21 -74h-252l588 -639v-18l-422 -576q-72 -97 -168 -132t-241 -35l-17 47q137 22 212.5 65.5
t133.5 122.5l394 537l-496 538q-46 50 -111.5 73t-183.5 26zM1298 723v18l594 639h-252l21 74h563l-20 -65q-121 -3 -185.5 -26t-111.5 -73l-496 -538l408 -537q61 -79 136 -122.5t212 -65.5l-19 -47q-144 0 -239.5 35.5t-169.5 131.5z" />
    <glyph glyph-name="uni0417" unicode="&#x417;" horiz-adv-x="1202" 
d="M588 -20q-131 0 -244.5 44.5t-176.5 114t-63 142.5q0 32 25 51.5t61 19.5q130 -299 412 -299q162 0 265.5 92.5t103.5 251.5q0 148 -137 231t-394 83l-22 73q248 0 377 89.5t129 244.5q0 122 -85 203.5t-229 81.5q-158 0 -256 -90.5t-161 -308.5h-52l78 380
q189 91 395 91q177 0 294.5 -99t117.5 -260q0 -144 -93 -235.5t-247 -122.5q183 -19 288 -112.5t105 -242.5q0 -195 -136.5 -309t-354.5 -114z" />
    <glyph glyph-name="uni0418" unicode="&#x418;" horiz-adv-x="1656" 
d="M387 66l-2 8v-74h-301l20 66l109 4q38 2 54 15t16 56v1241l-203 -2l20 74h482l-21 -65l-108 -5q-37 -2 -52.5 -15.5t-15.5 -57.5v-1039l829 957q60 68 60 160v65h301l-21 -65l-108 -5q-38 -2 -54 -15.5t-16 -57.5v-1239l201 2l-21 -74h-483l21 66l112 4q36 2 52 15.5
t16 55.5v1039l-836 -963q-51 -59 -51 -151z" />
    <glyph glyph-name="uni0419" unicode="&#x419;" horiz-adv-x="1656" 
d="M387 66l-2 8v-74h-301l20 66l109 4q38 2 54 15t16 56v1241l-203 -2l20 74h482l-21 -65l-108 -5q-37 -2 -52.5 -15.5t-15.5 -57.5v-1039l829 957q60 68 60 160v65h301l-21 -65l-108 -5q-38 -2 -54 -15.5t-16 -57.5v-1239l201 2l-21 -74h-483l21 66l112 4q36 2 52 15.5
t16 55.5v1039l-836 -963q-51 -59 -51 -151zM641 1823q0 58 31.5 88.5t81.5 30.5q-29 -139 11.5 -211t143.5 -72t145 72t13 211q50 0 81.5 -30.5t31.5 -88.5q0 -100 -71.5 -164t-199.5 -64q-127 0 -197.5 64t-70.5 164z" />
    <glyph glyph-name="uni041A" unicode="&#x41a;" horiz-adv-x="1554" 
d="M1415 -20q-249 0 -405 167l-518 539v16l682 678h-250l20 74h563l-20 -65q-120 -3 -184.5 -26t-114.5 -73l-580 -577l482 -498q139 -149 344 -188zM80 1380l20 74h482l-21 -65l-108 -5q-35 -2 -51.5 -15t-16.5 -52v-1245l197 2l-21 -74h-477l20 66l109 4q38 2 54 15t16 56
v1241z" />
    <glyph glyph-name="uni041B" unicode="&#x41b;" horiz-adv-x="1474" 
d="M176 -20q-39 0 -63.5 31t-24.5 75q60 18 107.5 47.5t81 66.5t57 90t38 107t23 128t11 143.5t2.5 162.5v551l-224 -2l21 74h1186l-21 -65l-108 -5q-38 -2 -54 -15t-16 -56v-1241l203 2l-21 -74h-485l20 66l115 4q36 2 51 15t15 56v1241h-605v-526q0 -398 -66 -596.5
t-243 -279.5z" />
    <glyph glyph-name="uni041C" unicode="&#x41c;" horiz-adv-x="1941" 
d="M84 0l20 66l121 2q39 3 57 18t19 47l53 1180q-38 44 -98 61.5t-176 22.5l10 57h328l567 -1276l553 1274h10v2h334l-20 -65l-121 -5q-90 -6 -84 -108l39 -1204l198 2l-20 -74h-481l20 66l109 4q40 2 55 16t14 61l-39 1153l-569 -1320h-20l-541 1212l-43 -1120l199 2
l-21 -74h-473z" />
    <glyph glyph-name="uni041D" unicode="&#x41d;" horiz-adv-x="1697" 
d="M1114 0l21 66l112 4q36 2 52 15.5t16 55.5v561h-930v-630l201 2l-21 -74h-481l20 66l109 4q38 2 54 15t16 56v1241l-203 -2l20 74h482l-21 -65l-108 -5q-37 -2 -52.5 -15.5t-15.5 -57.5v-539h930v610l-201 -2l21 74h481l-21 -65l-108 -5q-38 -2 -54 -15.5t-16 -57.5
v-1239l201 2l-21 -74h-483z" />
    <glyph glyph-name="uni041E" unicode="&#x41e;" horiz-adv-x="1632" 
d="M817 -20q-199 0 -357.5 94.5t-247.5 264.5t-89 384q0 217 87.5 388.5t246 267.5t360.5 96q198 0 356 -95t247 -265t89 -384q0 -217 -87.5 -388t-245.5 -267t-359 -96zM240 737q0 -298 162.5 -487t424.5 -189q252 0 409 183t157 473q0 196 -73.5 349.5t-208.5 240
t-308 86.5q-166 0 -294.5 -83.5t-198.5 -232.5t-70 -340z" />
    <glyph glyph-name="uni041F" unicode="&#x41f;" horiz-adv-x="1595" 
d="M84 0l20 66l109 4q38 2 54 15t16 56v1241l-203 -2l20 74h1411l-20 -65l-109 -5q-38 -2 -53.5 -15.5t-15.5 -57.5v-1239l203 2l-21 -74h-485l20 66l113 4q36 2 51.5 15t15.5 56v1241h-741q-46 0 -65 -13.5t-19 -57.5v-1239l201 2l-21 -74h-481z" />
    <glyph glyph-name="uni0420" unicode="&#x420;" horiz-adv-x="1261" 
d="M84 0l20 66l109 4q38 2 54 18t16 57v1237l-203 -2l20 74h568q236 0 374 -111.5t138 -304.5q0 -191 -137 -309.5t-365 -118.5h-293v-538l211 2l-21 -74h-491zM385 680h281q185 0 293 95t108 257q0 157 -108.5 253.5t-292.5 96.5h-281v-702z" />
    <glyph glyph-name="uni0421" unicode="&#x421;" horiz-adv-x="1507" 
d="M874 -20q-218 0 -388.5 87t-266.5 247.5t-96 369.5q0 180 56 329.5t154 250t231.5 156t287.5 55.5q230 0 428 -103l74 -373h-51q-31 99 -72 171t-84 114t-97 67t-104 33.5t-112 8.5q-125 0 -233.5 -46.5t-188.5 -132t-126 -214.5t-46 -287q0 -198 83.5 -347t229 -227
t330.5 -78q63 0 106.5 5t89 20t79 43.5t67.5 74t63.5 112.5t59.5 159h51l-96 -414q-190 -81 -429 -81z" />
    <glyph glyph-name="uni0422" unicode="&#x422;" horiz-adv-x="1388" 
d="M403 0l21 66l147 2q40 3 56 16.5t16 56.5v1241h-315q-36 0 -57.5 -3t-43 -17t-34 -35t-26.5 -63.5t-24.5 -96.5t-25.5 -141h-51l40 453q156 -25 283 -25h610q127 0 283 25l41 -453h-51q-15 87 -26 140.5t-25 97t-26.5 64t-33.5 34.5t-42.5 17t-57.5 3h-316v-1310l242 2
l-20 -74h-564z" />
    <glyph glyph-name="uni0423" unicode="&#x423;" horiz-adv-x="1484" 
d="M270 -20q-57 0 -78.5 28.5t-21.5 77.5q334 0 451 201q39 66 38.5 135.5t-47.5 167.5l-389 792l-176 -2l12 74h547l-12 -65l-166 -5q-46 -2 -58.5 -20t7.5 -61l373 -768l413 847l-233 -2l14 74h494l-13 -65l-120 -3q-38 -3 -57.5 -19t-41.5 -62l-483 -988
q-46 -95 -104 -163.5t-119 -104.5t-117.5 -52.5t-112.5 -16.5z" />
    <glyph glyph-name="uni0424" unicode="&#x424;" horiz-adv-x="1595" 
d="M535 0l20 66l125 4q36 2 52 17.5t16 57.5v129q-282 11 -453.5 145t-171.5 347t171.5 346.5t453.5 144.5v187l-213 -2l20 74h504l-21 -66l-120 -4q-36 -2 -52 -16t-16 -58v-115q282 -11 452.5 -144.5t170.5 -346.5t-170.5 -347t-452.5 -145v-202l213 2l-21 -74h-507z
M236 766q0 -187 137.5 -300t374.5 -124v848q-237 -11 -374.5 -124t-137.5 -300zM850 342q237 11 374.5 124t137.5 300t-137.5 300t-374.5 124v-848z" />
    <glyph glyph-name="uni0425" unicode="&#x425;" horiz-adv-x="1581" 
d="M889 0l12 66l197 4q58 2 72 17.5t-11 53.5l-379 523l-434 -592l242 2l-15 -74h-522l12 66l105 4q46 2 77 19.5t62 60.5l426 575l-477 657l-209 -2l12 74h596l-12 -65l-164 -5q-49 -2 -62 -17.5t11 -53.5l379 -518l444 587l-243 -2l14 74h512l-12 -65l-105 -5
q-40 -3 -69.5 -20.5t-59.5 -58.5l-436 -572l481 -661l189 2l-13 -74h-620z" />
    <glyph glyph-name="uni0426" unicode="&#x426;" horiz-adv-x="1562" 
d="M1434 -471q12 111 17 181t1.5 127t-13.5 85.5t-34.5 48t-55 24.5t-81.5 5h-1188l20 74l187 -2v1310l-203 -2l20 74h488l-21 -65l-114 -5q-37 -2 -52.5 -15t-15.5 -56v-1241h741q45 0 66 13.5t21 57.5v1239l-203 -2l20 74h479l-20 -65l-107 -5q-37 -2 -52 -15t-15 -56
v-1241l231 2q10 -248 -65 -545h-51z" />
    <glyph glyph-name="uni0427" unicode="&#x427;" horiz-adv-x="1572" 
d="M664 549q-381 0 -381 358v475l-203 -2l20 74h482l-21 -65l-108 -5q-37 -2 -52.5 -15.5t-15.5 -57.5v-396q0 -143 79 -211.5t220 -68.5q130 0 267 41t237 106v600l-203 -2l21 74h483l-21 -65l-108 -5q-39 -2 -54.5 -15.5t-15.5 -57.5v-1239l203 2l-20 -74h-486l21 66
l112 4q36 2 52 15.5t16 55.5v568q-119 -72 -262.5 -116t-261.5 -44z" />
    <glyph glyph-name="uni0428" unicode="&#x428;" horiz-adv-x="2115" 
d="M80 0l20 74l187 -2v1310l-203 -2l20 74h488l-21 -65l-114 -5q-37 -2 -52.5 -15t-15.5 -56v-1241h535q24 0 36.5 2t25.5 9.5t18.5 24t5.5 44.5v1230l-193 -2l21 74h465l-21 -65l-104 -5q-37 -3 -51.5 -16t-14.5 -55v-1241h541q43 0 60.5 13t17.5 56v1241l-193 -2l21 74
h473l-21 -65l-108 -5q-39 -2 -54.5 -15.5t-15.5 -57.5v-1239l203 2l-21 -74h-1935z" />
    <glyph glyph-name="uni0429" unicode="&#x429;" horiz-adv-x="2115" 
d="M80 0l20 74l187 -2v1310l-203 -2l20 74h488l-21 -65l-114 -5q-37 -2 -52.5 -15t-15.5 -56v-1241h535q24 0 36.5 2t25.5 9.5t18.5 24t5.5 44.5v1230l-193 -2l21 74h465l-21 -65l-104 -5q-37 -3 -51.5 -16t-14.5 -55v-1241h541q43 0 60.5 13t17.5 56v1241l-193 -2l21 74
h473l-21 -65l-108 -5q-39 -2 -54.5 -15.5t-15.5 -57.5v-1237l223 2q10 -250 -65 -547h-52q12 109 17 181t3 127t-9.5 85t-26.5 48.5t-41.5 24t-60.5 5.5h-1741z" />
    <glyph glyph-name="uni042A" unicode="&#x42a;" horiz-adv-x="1581" 
d="M391 0l21 66l108 4q38 2 54 15t16 56v1241h-252q-41 0 -65.5 -2.5t-47 -16t-34.5 -29.5t-26 -57t-23 -83t-25 -121h-51l40 406q150 -25 283 -25h500l-21 -65l-108 -5q-37 -2 -52.5 -15.5t-15.5 -57.5v-475h287q226 0 358.5 -108t132.5 -290q0 -218 -131.5 -328
t-367.5 -110h-580zM692 72h266q192 0 298 89t106 271q0 154 -106 244t-287 90h-277v-694z" />
    <glyph glyph-name="uni042B" unicode="&#x42b;" horiz-adv-x="1767" 
d="M84 0l20 66l109 4q38 2 54 15t16 56v1241l-203 -2l20 74h482l-21 -65l-108 -5q-37 -2 -52.5 -15.5t-15.5 -57.5v-475h283q225 0 358 -108t133 -290q0 -218 -132 -328t-368 -110h-575zM385 72h262q192 0 297 89t105 271q0 154 -105.5 244t-288.5 90h-270v-694zM1182 1380
l20 74h481l-20 -65l-109 -5q-35 -2 -51 -14.5t-16 -52.5v-1245l201 2l-21 -74h-481l20 66l109 4q36 2 52.5 14.5t16.5 50.5v1247z" />
    <glyph glyph-name="uni042C" unicode="&#x42c;" horiz-adv-x="1294" 
d="M84 0l20 66l109 4q38 2 54 15t16 56v1241l-203 -2l20 74h482l-21 -65l-108 -5q-37 -2 -52.5 -15.5t-15.5 -57.5v-475h307q227 0 359.5 -108t132.5 -290q0 -218 -131.5 -328t-366.5 -110h-602zM385 72h287q192 0 297.5 89t105.5 271q0 154 -106 244t-289 90h-295v-694z
" />
    <glyph glyph-name="uni042D" unicode="&#x42d;" horiz-adv-x="1482" 
d="M662 -20q-136 0 -268 38t-214 99t-82 123q0 38 27.5 62t67.5 24q48 -113 176 -191t307 -78q131 0 237 48t177 133.5t111.5 200.5t45.5 251h-446q-82 0 -104 -42.5t-25 -190.5h-60v536h60q1 -65 4 -100.5t10 -65t22 -41.5t36 -18t57 -6h448q-4 141 -52 262t-127.5 203.5
t-184.5 129t-221 46.5q-82 0 -146.5 -16.5t-128.5 -59t-115.5 -124.5t-89.5 -204h-51l72 367q202 109 457 109q140 0 266 -51.5t222 -145t153 -235.5t57 -312q0 -211 -82 -380.5t-242.5 -270t-373.5 -100.5z" />
    <glyph glyph-name="uni042E" unicode="&#x42e;" horiz-adv-x="2142" 
d="M1386 -20q-178 0 -321 92t-225.5 256.5t-87.5 371.5h-367v-628l201 2l-21 -74h-481l20 66l109 4q37 2 53.5 14.5t16.5 50.5v1247l-203 -2l20 74h482l-21 -65l-108 -5q-35 -2 -51.5 -15t-16.5 -52v-547h369q9 203 92.5 363.5t224.5 251t315 90.5q181 0 326 -95.5
t226 -265.5t81 -383q0 -160 -47.5 -300t-131 -239t-201 -155.5t-253.5 -56.5zM864 737q0 -196 67 -351t188.5 -242t275.5 -87q226 0 369 185t143 475q0 196 -67 351t-188.5 242t-275.5 87q-150 0 -267 -84.5t-181 -234.5t-64 -341z" />
    <glyph glyph-name="uni042F" unicode="&#x42f;" horiz-adv-x="1429" 
d="M844 0l20 66l113 4q38 2 54 15t16 56v1241h-269q-172 0 -277.5 -90t-105.5 -233q0 -141 116 -227.5t327 -86.5v-24l-392 -571q-118 -170 -364 -170l-19 47q108 23 180 67.5t124 120.5l329 477q-185 15 -298 115t-113 254q0 172 133.5 282.5t359.5 110.5h568l-21 -65
l-108 -5q-37 -2 -52.5 -15.5t-15.5 -57.5v-1239l201 2l-21 -74h-485z" />
    <glyph glyph-name="uni0430" unicode="&#x430;" horiz-adv-x="983" 
d="M715 -18q-12 0 -21 4t-15.5 14t-11 18.5t-7.5 25.5t-4.5 26.5t-3.5 29.5t-3 27h-20q-83 -69 -154.5 -108t-155.5 -39q-106 0 -157 56t-51 132t50 139.5t150 108.5l336 151v199q0 94 -36.5 139t-102.5 45q-59 0 -99.5 -17t-74.5 -54l-35 -60q-22 -36 -50.5 -58t-55.5 -22
q-33 0 -47.5 17t-14.5 39q0 13 40 50t98.5 77t135.5 71t140 31q112 0 155 -64t41 -184q-3 -120 -3.5 -238.5t0.5 -263t1 -192.5l176 -6v-56q-127 -38 -200 -38zM213 188q0 -54 34 -90.5t99 -36.5q77 0 156 43.5t145 126.5v263l-280 -125q-154 -68 -154 -181z" />
    <glyph glyph-name="uni0431" unicode="&#x431;" horiz-adv-x="1185" 
d="M586 -20q-148 0 -259 72.5t-168 195.5t-57 278q0 358 117.5 584t329.5 256q54 8 153 16t152 19q129 26 129 176l66 -21q0 -115 -48.5 -175.5t-109.5 -69.5q-67 -11 -175.5 -21.5t-156.5 -17.5q-83 -13 -147.5 -59t-107.5 -119t-70 -150.5t-48 -177.5h9q54 124 159 191
t242 67q194 0 315 -138t121 -370q0 -153 -52.5 -274t-155 -191.5t-238.5 -70.5zM205 520q0 -133 44.5 -237.5t133 -166t207.5 -61.5q159 0 250.5 126t91.5 325q0 200 -95.5 320t-250.5 120q-166 0 -273.5 -117t-107.5 -309z" />
    <glyph glyph-name="uni0432" unicode="&#x432;" horiz-adv-x="1034" 
d="M74 0l20 63l107 3q27 0 48 18t21 53v797l-200 -2l20 72h481q167 0 257 -68t90 -188q0 -92 -60 -156t-149 -78q118 -13 182.5 -80.5t64.5 -157.5q0 -131 -96 -203.5t-262 -72.5h-524zM362 66h211q131 0 206 55.5t75 157.5q0 84 -70 141t-215 57h-207v-411zM362 543h216
q110 0 174.5 53.5t64.5 144.5t-65 144t-179 53h-211v-395z" />
    <glyph glyph-name="uni0433" unicode="&#x433;" horiz-adv-x="985" 
d="M74 0l20 63l107 3q27 0 48 18t21 53v797l-200 -2l20 72h576q64 0 104.5 8t103.5 32l46 -385h-43q-38 169 -77.5 224t-135.5 55h-234q-27 0 -47.5 -18.5t-20.5 -53.5v-796l207 2l-20 -72h-475z" />
    <glyph glyph-name="uni0434" unicode="&#x434;" horiz-adv-x="1234" 
d="M90 -471q-57 233 -70 543l130 -4q150 55 219 268t69 602l-209 -6l21 72h919l-20 -64l-109 -2q-26 0 -46.5 -18.5t-20.5 -53.5v-796l229 2q-13 -315 -69 -543h-52q32 275 28 350q-5 85 -51 107q-28 14 -85 14h-723q-85 0 -112 -37q-31 -43 -21 -189q4 -69 24 -245h-51z
M332 66h481q27 0 47.5 18t20.5 53v801h-367q0 -669 -182 -872z" />
    <glyph glyph-name="uni0435" unicode="&#x435;" horiz-adv-x="956" 
d="M532 -20q-197 0 -315.5 138t-118.5 380q0 241 113 383.5t313 142.5q141 0 231.5 -87.5t90.5 -217.5q0 -77 -31 -125h-610q-4 -54 -4 -82q0 -204 96 -325t256 -121q77 0 161.5 34t137.5 88l33 -41q-51 -74 -149.5 -120.5t-203.5 -46.5zM215 662h496q19 0 26.5 15t7.5 50
q0 97 -63.5 160t-173.5 63q-115 0 -191 -75t-102 -213z" />
    <glyph glyph-name="uni0436" unicode="&#x436;" horiz-adv-x="1769" 
d="M1565 -20q-67 0 -119 32t-107 105l-280 381v20l401 416l-207 -2l21 72h489l-20 -64q-121 -2 -168 -18t-115 -84l-305 -320q18 -25 62.5 -85.5t63 -85.5t51.5 -67t60 -73t56 -62q46 -48 84.5 -71t85.5 -23h86l20 -47q-77 -24 -159 -24zM6 940l21 64h491l-20 -72l-189 2
l400 -416v-20l-277 -381q-57 -73 -108 -105t-117 -32q-85 0 -162 24l21 47h86q47 0 85.5 23t84.5 71q48 50 99.5 114t87 112t105.5 147l-305 320q-67 67 -122 83.5t-181 18.5zM647 0l21 63l108 3q64 9 64 71v797l-193 -2l21 72h454l-20 -64l-107 -2q-25 -2 -44 -19.5
t-19 -52.5v-796l186 2l-20 -72h-451z" />
    <glyph glyph-name="uni0437" unicode="&#x437;" horiz-adv-x="937" 
d="M483 -20q-102 0 -195.5 30t-147.5 75.5t-54 90.5q0 31 20.5 53.5t55.5 22.5q3 -3 22.5 -29t44.5 -52t61.5 -54t89.5 -46t112 -18q120 0 192 59t72 152q0 91 -68 145t-176 54q-68 0 -78 -2l-6 65q131 17 212 80.5t81 151.5q0 86 -66 140t-170 54q-68 0 -118.5 -13.5
t-84 -36.5t-57.5 -62t-38 -83t-25 -106h-43l24 291q173 82 334 82q154 0 249 -73t95 -191q0 -86 -57 -151.5t-139 -90.5q103 -14 168 -80.5t65 -167.5q0 -128 -103.5 -209t-271.5 -81z" />
    <glyph glyph-name="uni0438" unicode="&#x438;" horiz-adv-x="1300" 
d="M367 33v-33h-289l20 63l107 3q27 0 48 18t21 53v797l-200 -2l20 72h467l-20 -64l-107 -2q-28 0 -47.5 -18t-19.5 -54v-626l507 561q60 63 60 170v33h289l-21 -64l-108 -2q-27 0 -47.5 -18.5t-20.5 -53.5v-796l201 2l-21 -72h-467l21 63l108 3q26 0 46 18t20 53v627
l-512 -565q-55 -58 -55 -166z" />
    <glyph glyph-name="uni0439" unicode="&#x439;" horiz-adv-x="1300" 
d="M367 33v-33h-289l20 63l107 3q27 0 48 18t21 53v797l-200 -2l20 72h467l-20 -64l-107 -2q-28 0 -47.5 -18t-19.5 -54v-626l507 561q60 63 60 170v33h289l-21 -64l-108 -2q-27 0 -47.5 -18.5t-20.5 -53.5v-796l201 2l-21 -72h-467l21 63l108 3q26 0 46 18t20 53v627
l-512 -565q-55 -58 -55 -166zM432 1372q0 58 31.5 88.5t81.5 30.5q-29 -139 11.5 -211t143.5 -72t145 72t13 211q50 0 81.5 -30.5t31.5 -88.5q0 -100 -71.5 -163.5t-199.5 -63.5q-127 0 -197.5 63.5t-70.5 163.5z" />
    <glyph glyph-name="uni043A" unicode="&#x43a;" horiz-adv-x="1243" 
d="M61 0l21 63l106 3q26 0 46 18t20 53v797l-193 -2l21 72h455l-21 -64l-106 -2q-26 0 -45 -18t-19 -54v-796l186 2l-20 -72h-451zM477 498v20l410 416l-211 -2l20 72h500l-20 -68q-125 -3 -177 -21.5t-122 -89.5l-299 -305q13 -18 55.5 -74.5t55 -73.5t44.5 -58.5
t49.5 -62.5t43.5 -50.5t51 -55.5q91 -94 170 -94h86l18 -47q-77 -24 -160 -24q-68 0 -121 32t-108 105z" />
    <glyph glyph-name="uni043B" unicode="&#x43b;" horiz-adv-x="1132" 
d="M569 0l21 63l108 3q68 8 68 71v801h-350q0 -414 -67 -642.5t-202 -315.5q-41 0 -68.5 33t-27.5 75q155 51 224 248t69 602l-209 -6l21 72h899l-21 -64l-108 -2q-68 -9 -68 -72v-796l201 2l-21 -72h-469z" />
    <glyph glyph-name="uni043C" unicode="&#x43c;" horiz-adv-x="1452" 
d="M340 784v-714l188 2l-20 -72h-442l20 63l115 3q27 0 47 14.5t20 44.5v768q-32 29 -72 37t-118 10l20 64h240l387 -844l375 844h307l-21 -64l-110 -2q-32 -2 -55 -19t-23 -53v-796l209 2l-21 -72h-471l21 63l100 3q32 4 51 19t19 52v705l-383 -862h-21v4z" />
    <glyph glyph-name="uni043D" unicode="&#x43d;" horiz-adv-x="1294" 
d="M731 0l21 63l108 3q26 0 46 18t20 53v340h-559v-407l198 2l-20 -72h-467l20 63l107 3q27 0 48 18t21 53v797l-200 -2l20 72h467l-20 -64l-107 -2q-28 0 -47.5 -18t-19.5 -54v-323h559v391l-199 -2l21 72h466l-20 -64l-107 -2q-28 0 -48.5 -18t-20.5 -54v-796l203 2
l-21 -72h-469z" />
    <glyph glyph-name="uni043E" unicode="&#x43e;" horiz-adv-x="1112" 
d="M557 -20q-201 0 -328 145t-127 375q0 232 125.5 378t329.5 146q202 0 327.5 -144.5t125.5 -375.5q0 -232 -124.5 -378t-328.5 -146zM205 510q0 -201 99 -328t259 -127q156 0 250 121.5t94 317.5q0 201 -99 327.5t-259 126.5q-156 0 -250 -121t-94 -317z" />
    <glyph glyph-name="uni043F" unicode="&#x43f;" horiz-adv-x="1273" 
d="M78 0l20 63l107 3q27 0 48 18t21 53v797l-200 -2l20 72h1100l-20 -64l-107 -2q-28 0 -49 -18.5t-21 -53.5v-796l203 2l-20 -72h-469l20 63l109 3q26 0 45.5 18t19.5 53v801h-471q-27 0 -47 -16.5t-20 -51.5v-800l198 2l-20 -72h-467z" />
    <glyph glyph-name="uni0440" unicode="&#x440;" horiz-adv-x="1177" 
d="M74 -471l20 63l107 2q27 0 48 18.5t21 53.5v1260l-168 6v57q24 3 120 18t130 17h10v-115h13q49 43 127 79t168 36q183 0 294 -135.5t111 -364.5q0 -256 -117.5 -400t-312.5 -144q-77 0 -153 21.5t-130 51.5v-454l244 2l-20 -72h-512zM362 182q0 -43 92.5 -87t188.5 -44
q145 0 237.5 121t92.5 338q0 200 -90 316t-234 116q-72 0 -148.5 -30.5t-138.5 -77.5v-652z" />
    <glyph glyph-name="uni0441" unicode="&#x441;" horiz-adv-x="950" 
d="M535 -20q-187 0 -310 138.5t-123 364.5q0 234 133.5 387.5t331.5 153.5q62 0 161 -21t99 -36q0 -25 -30 -55.5t-56 -30.5q-18 0 -133 41l-76 28h-20q-116 0 -211.5 -129.5t-95.5 -316.5q0 -200 97.5 -319t250.5 -119q74 0 149.5 35t131.5 94l34 -43q-52 -78 -141 -125
t-192 -47z" />
    <glyph glyph-name="uni0442" unicode="&#x442;" horiz-adv-x="1210" 
d="M358 0l21 63l113 3q27 0 48 18t21 53v801h-203q-96 0 -135.5 -55t-77.5 -224h-43l45 385q65 -24 105.5 -32t103.5 -8h498q63 0 103.5 8t105.5 32l45 -385h-43q-38 169 -77.5 224t-135.5 55h-199v-868l199 2l-21 -72h-473z" />
    <glyph glyph-name="uni0443" unicode="&#x443;" horiz-adv-x="1138" 
d="M246 -492q-73 0 -120 54q-29 33 -19 48q2 4 8 5l164 20q61 7 102.5 57t83.5 154l67 168l-368 920l-156 -2l21 72h483l-20 -64l-148 -2q-42 0 -54 -19t7 -65l285 -717l321 797l-194 -2l20 72h399l-20 -64l-70 -2q-30 -1 -50 -21t-38 -63l-391 -983q-70 -177 -150.5 -270
t-162.5 -93z" />
    <glyph glyph-name="uni0444" unicode="&#x444;" horiz-adv-x="1542" 
d="M530 -475l21 63h106q68 9 68 72v354q-90 -34 -186 -34q-196 0 -316.5 141.5t-120.5 374.5q0 237 121 382.5t330 145.5q86 0 172 -35v465l-170 10v58q244 33 258 34h10q-6 -163 -6 -331v-236q93 35 187 35q195 0 315.5 -141.5t120.5 -374.5q0 -237 -122 -382.5
t-331 -145.5q-87 0 -170 34v-420h199l-21 -69h-465zM205 506q0 -200 93.5 -325.5t250.5 -125.5q95 0 176 31v827q-68 35 -170 35q-163 0 -256.5 -122.5t-93.5 -319.5zM817 90q68 -35 170 -35q162 0 256 123t94 320q0 200 -94.5 325t-249.5 125q-101 0 -176 -30v-828z" />
    <glyph glyph-name="uni0445" unicode="&#x445;" horiz-adv-x="1210" 
d="M662 63q164 0 181 27q11 17 -20 57l-229 297l-295 -374l201 2l-21 -72h-432l21 63l69 3q49 1 74 16.5t61 60.5l281 357l-334 434l-158 -2l21 72h485l-20 -64q-179 0 -178 -40q0 -11 12 -26l240 -313l288 373l-196 -2l20 72h430l-20 -64l-68 -2q-49 -1 -73.5 -16
t-61.5 -62l-276 -354l331 -436l162 2l-20 -72h-496z" />
    <glyph glyph-name="uni0446" unicode="&#x446;" horiz-adv-x="1234" 
d="M1083 -471q33 283 26 361t-53 98q-27 12 -83 12h-899l20 72l185 -2v864l-201 -2l20 72h463l-20 -64l-107 -2q-25 0 -44 -18.5t-19 -53.5v-800h454q28 0 48 15t20 48v805l-197 -2l21 72h463l-21 -64l-106 -2q-28 0 -48 -18t-20 -54v-796l219 2q-13 -315 -69 -543h-52z" />
    <glyph glyph-name="uni0447" unicode="&#x447;" horiz-adv-x="1253" 
d="M553 338q-144 0 -220.5 71.5t-76.5 202.5v322l-201 -2l21 72h467l-21 -64l-106 -2q-68 -9 -68 -72v-241q0 -201 227 -201q81 0 172 30t140 66v414l-199 -2l21 72h465l-21 -64l-104 -2q-70 -8 -70 -72v-796l201 2l-21 -72h-467l21 63l106 3q68 8 68 71v314h-10
q-192 -113 -324 -113z" />
    <glyph glyph-name="uni0448" unicode="&#x448;" horiz-adv-x="1675" 
d="M74 0l20 72l182 -2v864l-198 -2l20 72h463l-20 -64l-107 -2q-25 0 -45 -18.5t-20 -53.5v-800h360q68 0 68 61v807l-195 -2l21 72h458l-20 -64l-109 -2q-25 0 -44 -18.5t-19 -53.5v-800h360q68 0 68 61v807l-195 -2l21 72h461l-21 -64l-106 -2q-27 0 -47.5 -18.5
t-20.5 -53.5v-796l199 2l-21 -72h-1513z" />
    <glyph glyph-name="uni0449" unicode="&#x449;" horiz-adv-x="1675" 
d="M74 0l20 72l182 -2v864l-198 -2l20 72h463l-20 -64l-107 -2q-25 0 -45 -18.5t-20 -53.5v-800h360q68 0 68 61v807l-195 -2l21 72h458l-20 -64l-109 -2q-25 0 -44 -18.5t-19 -53.5v-800h360q68 0 68 61v807l-195 -2l21 72h461l-21 -64l-106 -2q-27 0 -47.5 -18.5
t-20.5 -53.5v-796h8v2l223 2q-10 -309 -71 -547h-51q10 83 16 136.5t9.5 106.5t2.5 83.5t-6.5 59.5t-15.5 42.5t-27 25t-38 14.5t-52 3v2h-1333z" />
    <glyph glyph-name="uni044A" unicode="&#x44a;" horiz-adv-x="1232" 
d="M305 0l21 63l106 3q28 0 49 18t21 53v797h-183q-95 0 -135.5 -53.5t-77.5 -221.5h-40l45 385q63 -24 103 -32t103 -8h471l-20 -64l-106 -2q-27 0 -47.5 -18.5t-20.5 -53.5v-323h182q187 0 283 -71.5t96 -195.5q0 -131 -95.5 -203.5t-262.5 -72.5h-492zM594 66h178
q281 0 281 213q0 198 -281 198h-178v-411z" />
    <glyph glyph-name="uni044B" unicode="&#x44b;" horiz-adv-x="1488" 
d="M940 0l21 63l108 3q26 0 45 17.5t19 53.5v797l-193 -2l21 72h454l-20 -64l-107 -2q-25 0 -44 -18.5t-19 -53.5v-796l190 2l-20 -72h-455zM74 932l20 72h467l-20 -64l-107 -2q-28 0 -47.5 -18t-19.5 -54v-323h184q187 0 284 -71.5t97 -195.5q0 -131 -96.5 -203.5
t-262.5 -72.5h-495l20 63l107 3q27 0 48 18t21 53v797zM367 66h182q280 0 280 213q0 40 -13 73.5t-43 62.5t-87 45.5t-137 16.5h-182v-411z" />
    <glyph glyph-name="uni044C" unicode="&#x44c;" horiz-adv-x="1015" 
d="M74 0l20 63l107 3q27 0 48 18t21 53v797l-200 -2l20 72h467l-20 -64l-107 -2q-28 0 -48 -18t-20 -54v-323h199q184 0 280.5 -72t96.5 -195q0 -131 -95 -203.5t-261 -72.5h-508zM362 66h195q133 0 207 52t74 161q0 86 -64 142t-217 56h-195v-411z" />
    <glyph glyph-name="uni044D" unicode="&#x44d;" horiz-adv-x="1081" 
d="M502 -20q-102 0 -197.5 27t-154 70t-58.5 87q0 30 21 53t57 23q13 -17 37 -41.5t68.5 -60t106.5 -59.5t126 -24q159 0 259 113.5t110 306.5l-451 -22q-43 -1 -55 39q-10 31 8 48q7 7 16 7q150 -4 482 -4q-9 189 -118 297t-263 108q-156 0 -232 -77t-114 -253h-46l37 320
q168 86 351 86q102 0 190.5 -34.5t154.5 -98.5t104 -162t38 -217q0 -248 -129 -390t-348 -142z" />
    <glyph glyph-name="uni044E" unicode="&#x44e;" horiz-adv-x="1601" 
d="M70 0l20 63l109 3q26 0 44.5 17.5t18.5 53.5v797l-192 -2l20 72h455l-21 -64l-106 -2q-25 0 -44.5 -18.5t-19.5 -53.5v-321h240q12 214 135.5 346.5t317.5 132.5q202 0 327 -144.5t125 -375.5q0 -232 -124 -378t-328 -146q-197 0 -323 138t-132 361h-238v-409l191 2
l-21 -72h-454zM694 510q0 -201 99.5 -328t259.5 -127q156 0 250 121.5t94 317.5q0 201 -99.5 327.5t-259.5 126.5q-156 0 -250 -121t-94 -317z" />
    <glyph glyph-name="uni044F" unicode="&#x44f;" horiz-adv-x="1126" 
d="M184 -20q-87 0 -157 24l18 47h86q104 0 182 105q50 58 126.5 164.5t105.5 142.5q-182 6 -276.5 70.5t-94.5 199.5q0 125 93 198t270 73h512l-21 -64l-106 -2q-68 -8 -68 -72v-796l199 2l-21 -72h-461l21 63l104 3q66 9 66 71v801h-230q-123 0 -189.5 -55t-66.5 -152
q0 -209 306 -209h88v-20l-260 -385q-52 -74 -105 -105.5t-121 -31.5z" />
    <glyph glyph-name="uni0450" unicode="&#x450;" horiz-adv-x="956" 
d="M532 -20q-197 0 -315.5 138t-118.5 380q0 241 113 383.5t313 142.5q141 0 231.5 -87.5t90.5 -217.5q0 -77 -31 -125h-610q-4 -54 -4 -82q0 -204 96 -325t256 -121q77 0 161.5 34t137.5 88l33 -41q-51 -74 -149.5 -120.5t-203.5 -46.5zM215 662h496q19 0 26.5 15t7.5 50
q0 97 -63.5 160t-173.5 63q-115 0 -191 -75t-102 -213zM299 1511q0 19 15 34.5t34 15.5q12 0 62.5 -56.5t153.5 -183t126 -154.5l-28 -28l-281 264q-5 4 -15.5 13.5t-14.5 13t-12.5 11t-12 11.5t-9.5 11t-8 11.5t-5 11t-4 12.5t-1 13z" />
    <glyph glyph-name="uni0451" unicode="&#x451;" horiz-adv-x="956" 
d="M532 -20q-197 0 -315.5 138t-118.5 380q0 241 113 383.5t313 142.5q141 0 231.5 -87.5t90.5 -217.5q0 -77 -31 -125h-610q-4 -54 -4 -82q0 -204 96 -325t256 -121q77 0 161.5 34t137.5 88l33 -41q-51 -74 -149.5 -120.5t-203.5 -46.5zM215 662h496q19 0 26.5 15t7.5 50
q0 97 -63.5 160t-173.5 63q-115 0 -191 -75t-102 -213zM301 1364q0 34 25.5 60t60.5 26t59.5 -26t24.5 -60q0 -35 -24.5 -59.5t-59.5 -24.5t-60.5 24.5t-25.5 59.5zM578 1364q0 34 25.5 60t60.5 26t59.5 -26t24.5 -60q0 -35 -24.5 -59.5t-59.5 -24.5t-60.5 24.5t-25.5 59.5z
" />
    <glyph glyph-name="uni0452" unicode="&#x452;" horiz-adv-x="1140" 
d="M700 -455q33 31 55.5 54.5t55.5 70t53.5 94.5t35.5 119.5t15 151.5v706q0 199 -198 199q-156 0 -344 -145v-725l198 2l-20 -72h-467l20 63l109 3q27 0 47.5 18t20.5 53v1057h-154v66h154v194l-172 10v58q24 3 84 11.5t105 14.5t69 8h12q-6 -96 -6 -296h415v-66h-415v-313
h10q204 143 367 143q126 0 192 -67.5t66 -184.5v-719q0 -110 -23 -202.5t-64 -157.5t-87.5 -109.5t-102.5 -75.5z" />
    <glyph glyph-name="uni0453" unicode="&#x453;" horiz-adv-x="985" 
d="M74 0l20 63l107 3q27 0 48 18t21 53v797l-200 -2l20 72h576q64 0 104.5 8t103.5 32l46 -385h-43q-38 169 -77.5 224t-135.5 55h-234q-27 0 -47.5 -18.5t-20.5 -53.5v-796l207 2l-20 -72h-475zM389 1167q29 35 79 96t88 107.5t77.5 93t64.5 72t33 25.5q19 0 34 -15.5
t15 -34.5q0 -7 -1 -13t-4 -12.5t-5 -11t-8 -11.5t-9.5 -11t-12 -11.5t-12.5 -11t-14.5 -13t-15.5 -13.5l-280 -264z" />
    <glyph glyph-name="uni0454" unicode="&#x454;" horiz-adv-x="1081" 
d="M580 -20q-220 0 -349 142t-129 390q0 237 138.5 374.5t349.5 137.5q182 0 350 -86l37 -320h-45q-38 176 -114 253t-232 77q-154 0 -263 -108t-118 -297q331 0 481 4q22 0 26 -28q6 -36 -21 -56q-15 -11 -36 -10l-450 22q10 -193 110 -306.5t258 -113.5q64 0 126 24
t106.5 59.5t68.5 60t37 41.5q36 0 57 -23t21 -53q0 -44 -58 -87t-153.5 -70t-197.5 -27z" />
    <glyph glyph-name="uni0455" unicode="&#x455;" horiz-adv-x="870" 
d="M446 -20q-186 0 -313 86l-37 256h43q25 -81 61.5 -137t81 -84.5t89 -40t98.5 -11.5q72 0 133.5 49.5t61.5 130.5q0 78 -59 135t-181 111q-168 70 -229.5 124t-61.5 155q0 108 82.5 189t226.5 81q143 0 265 -68l30 -254h-43q-34 144 -99 197t-161 53q-93 0 -152 -47
t-59 -127q0 -39 15.5 -68.5t53 -56t75 -45t106.5 -47.5q151 -65 216 -133.5t65 -163.5q0 -117 -85.5 -200.5t-222.5 -83.5z" />
    <glyph glyph-name="uni0456" unicode="&#x456;" horiz-adv-x="653" 
d="M74 0l20 63l107 3q28 0 47.5 17.5t19.5 53.5v789l-166 6v57q27 4 84 12.5t103 14.5t69 8h11q-1 -33 -5 -122t-4 -136v-696l205 2l-20 -72h-471zM213 1372q0 36 26 62t62 26q34 0 58 -26.5t24 -61.5q0 -34 -24 -59t-58 -25q-36 0 -62 25t-26 59z" />
    <glyph glyph-name="uni0457" unicode="&#x457;" horiz-adv-x="653" 
d="M74 0l20 63l107 3q28 0 47.5 17.5t19.5 53.5v789l-166 6v57q27 4 84 12.5t103 14.5t69 8h11q-1 -33 -5 -122t-4 -136v-696l205 2l-20 -72h-471zM74 1364q0 34 25.5 60t60.5 26t59.5 -26t24.5 -60q0 -35 -24.5 -59.5t-59.5 -24.5t-60.5 24.5t-25.5 59.5zM350 1364
q0 34 25.5 60t60.5 26t59.5 -26t24.5 -60q0 -35 -24.5 -59.5t-59.5 -24.5t-60.5 24.5t-25.5 59.5z" />
    <glyph glyph-name="uni0458" unicode="&#x458;" horiz-adv-x="462" 
d="M0 -455q33 30 56.5 54.5t55.5 70.5t52.5 94t35.5 119.5t15 151.5v891l-168 6v57q22 3 80 12.5t99.5 15t74.5 7.5h14q-8 -115 -8 -258v-713q0 -110 -23 -202.5t-63.5 -157.5t-86.5 -109.5t-101 -75.5zM160 1372q0 36 26 62t62 26q34 0 58 -26.5t24 -61.5q0 -34 -24 -59
t-58 -25q-36 0 -62 25t-26 59z" />
    <glyph glyph-name="uni0459" unicode="&#x459;" horiz-adv-x="1540" 
d="M147 -20q-41 0 -68.5 33t-27.5 75q155 51 224 248t69 602l-209 -6l21 72h923l-20 -64l-107 -2q-26 0 -46.5 -18.5t-20.5 -53.5v-323h196q187 0 284 -71.5t97 -195.5q0 -131 -96 -203.5t-262 -72.5h-508l20 63l109 3q27 0 47.5 18t20.5 53v801h-377q0 -414 -67 -642.5
t-202 -315.5zM885 66h194q281 0 281 213q0 86 -64 142t-217 56h-194v-411z" />
    <glyph glyph-name="uni045A" unicode="&#x45a;" horiz-adv-x="1673" 
d="M78 0l20 63l107 3q27 0 48 18t21 53v797l-200 -2l20 72h467l-20 -64l-107 -2q-28 0 -47.5 -18t-19.5 -54v-323h559v391l-201 -2l20 72h467l-20 -64l-107 -2q-28 0 -47.5 -18t-19.5 -54v-323h199q184 0 281 -72t97 -195q0 -131 -96 -203.5t-262 -72.5h-506l21 63l106 3
q27 0 47.5 18t20.5 53v340h-559v-407l198 2l-20 -72h-467zM1018 66h194q281 0 281 213q0 86 -64 142t-217 56h-194v-411z" />
    <glyph glyph-name="uni045B" unicode="&#x45b;" horiz-adv-x="1271" 
d="M84 1194v66h203v194l-172 10v58q24 3 84 11.5t105 14.5t69 8h12q-6 -96 -6 -296h364v-66h-364v-313h12q204 143 367 143q124 0 189 -67t65 -183v-704l205 2l-21 -72h-471l20 63l107 3q27 0 47.5 18t20.5 53v611q0 192 -195 192q-153 0 -346 -145v-725l199 2l-21 -72h-467
l21 63l108 3q27 0 47.5 18t20.5 53v1057h-203z" />
    <glyph glyph-name="uni045C" unicode="&#x45c;" horiz-adv-x="1243" 
d="M61 0l21 63l106 3q26 0 46 18t20 53v797l-193 -2l21 72h455l-21 -64l-106 -2q-26 0 -45 -18t-19 -54v-796l186 2l-20 -72h-451zM475 1167q29 35 79 96t88 107.5t77.5 93t64.5 72t33 25.5q19 0 34 -15.5t15 -34.5q0 -7 -1 -13t-4 -12.5t-5 -11t-8 -11.5t-9.5 -11
t-12 -11.5t-12.5 -11t-14.5 -13t-15.5 -13.5l-280 -264zM477 498v20l410 416l-211 -2l20 72h500l-20 -68q-125 -3 -177 -21.5t-122 -89.5l-299 -305q13 -18 55.5 -74.5t55 -73.5t44.5 -58.5t49.5 -62.5t43.5 -50.5t51 -55.5q91 -94 170 -94h86l18 -47q-77 -24 -160 -24
q-68 0 -121 32t-108 105z" />
    <glyph glyph-name="uni045D" unicode="&#x45d;" horiz-adv-x="1300" 
d="M367 33v-33h-289l20 63l107 3q27 0 48 18t21 53v797l-200 -2l20 72h467l-20 -64l-107 -2q-28 0 -47.5 -18t-19.5 -54v-626l507 561q60 63 60 170v33h289l-21 -64l-108 -2q-27 0 -47.5 -18.5t-20.5 -53.5v-796l201 2l-21 -72h-467l21 63l108 3q26 0 46 18t20 53v627
l-512 -565q-55 -58 -55 -166zM475 1511q0 19 15 34.5t34 15.5q12 0 62.5 -56.5t153.5 -183t126 -154.5l-28 -28l-281 264q-5 4 -15.5 13.5t-14.5 13t-12.5 11t-12 11.5t-9.5 11t-8 11.5t-5 11t-4 12.5t-1 13z" />
    <glyph glyph-name="uni045E" unicode="&#x45e;" horiz-adv-x="1138" 
d="M246 -492q-73 0 -120 54q-29 33 -19 48q2 4 8 5l164 20q61 7 102.5 57t83.5 154l67 168l-368 920l-156 -2l21 72h483l-20 -64l-148 -2q-42 0 -54 -19t7 -65l285 -717l321 797l-194 -2l20 72h399l-20 -64l-70 -2q-30 -1 -50 -21t-38 -63l-391 -983q-70 -177 -150.5 -270
t-162.5 -93zM336 1372q0 58 31.5 88.5t81.5 30.5q-29 -139 11.5 -211t143.5 -72t145 72t13 211q50 0 81 -30.5t31 -88.5q0 -100 -71 -163.5t-199 -63.5q-127 0 -197.5 63.5t-70.5 163.5z" />
    <glyph glyph-name="uni045F" unicode="&#x45f;" horiz-adv-x="1251" 
d="M74 0l20 72l182 -2v864l-198 -2l20 72h463l-20 -64l-107 -2q-25 0 -45 -18.5t-20 -53.5v-800h454q28 0 48 15t20 48v805l-193 -2l21 72h461l-21 -64l-108 -2q-27 0 -47.5 -18.5t-20.5 -53.5v-796l201 2l-21 -72h-501q15 -277 20 -471h-98q5 166 24 471h-534z" />
    <glyph glyph-name="uni0490" unicode="&#x490;" horiz-adv-x="1136" 
d="M84 0l20 66l109 4q38 2 54 15t16 56v1241l-203 -2l20 74h703q52 0 80.5 8t55.5 40t47 88t46 159h51l-55 -391q-161 24 -283 24h-276q-46 0 -65 -13.5t-19 -57.5v-1239l201 2l-21 -74h-481z" />
    <glyph glyph-name="uni0491" unicode="&#x491;" horiz-adv-x="966" 
d="M74 0l20 63l107 3q27 0 48 18t21 53v797l-200 -2l20 72h574q97 0 136.5 55t76.5 233h43l-46 -399q-63 27 -103.5 36t-104.5 9h-236q-27 0 -47.5 -18.5t-20.5 -53.5v-796l199 2l-20 -72h-467z" />
    <glyph glyph-name="uni0492" unicode="&#x492;" horiz-adv-x="1146" 
d="M102 690v66h181v626l-203 -2l20 74h645q136 0 283 25l41 -453h-51q-15 88 -26 141t-25 96.5t-26 64t-34 34.5t-44 17t-60 3h-334q-46 0 -65 -13.5t-19 -57.5v-555h410v-66h-410v-618l201 2l-21 -74h-481l20 66l109 4q38 2 54 15t16 56v549h-181z" />
    <glyph glyph-name="uni0493" unicode="&#x493;" horiz-adv-x="985" 
d="M86 477v66h184v391l-200 -2l20 72h576q64 0 104.5 8t103.5 32l46 -385h-43q-38 169 -77.5 224t-135.5 55h-234q-27 0 -47.5 -18.5t-20.5 -53.5v-323h314v-66h-314v-407l207 2l-20 -72h-475l20 63l107 3q27 0 48 18t21 53v340h-184z" />
    <glyph glyph-name="uni0496" unicode="&#x496;" horiz-adv-x="2271" 
d="M877 0l20 66l109 4q35 2 50 14.5t15 50.5v1247l-203 -2l21 74h483l-20 -65l-109 -5q-36 -2 -52.5 -14.5t-16.5 -52.5v-1245l202 2l-20 -74h-479zM49 1389l21 65h563l-21 -74h-252l588 -639v-18l-422 -576q-72 -97 -168 -132t-241 -35l-17 47q137 22 212.5 65.5
t133.5 122.5l394 537l-496 538q-46 50 -111.5 73t-183.5 26zM1298 723v18l594 639h-252l21 74h563l-20 -65q-121 -3 -185.5 -26t-111.5 -73l-496 -538l408 -537q42 -56 88.5 -92.5t115.5 -61.5l211 2q10 -249 -65 -546h-51q20 184 20.5 278.5t-19.5 137t-67 51.5
q-11 0 -31 4h-22v2q-158 27 -260 157z" />
    <glyph glyph-name="uni0497" unicode="&#x497;" horiz-adv-x="1769" 
d="M1565 -20q-67 0 -119 32t-107 105l-280 381v20l401 416l-207 -2l21 72h489l-20 -64q-121 -2 -168 -18t-115 -84l-305 -320q18 -25 62.5 -85.5t63 -85.5t51.5 -67t60 -73t56 -62q74 -78 135 -90l223 2q-10 -308 -71 -546h-52q13 104 19.5 166.5t8 121t-3.5 87.5
t-18.5 52.5t-35 32t-54.5 11.5q-10 -2 -34 -2zM6 940l21 64h491l-20 -72l-189 2l400 -416v-20l-277 -381q-57 -73 -108 -105t-117 -32q-85 0 -162 24l21 47h86q47 0 85.5 23t84.5 71q48 50 99.5 114t87 112t105.5 147l-305 320q-67 67 -122 83.5t-181 18.5zM647 0l21 63
l108 3q64 9 64 71v797l-193 -2l21 72h454l-20 -64l-107 -2q-25 -2 -44 -19.5t-19 -52.5v-796l186 2l-20 -72h-451z" />
    <glyph glyph-name="uni049A" unicode="&#x49a;" horiz-adv-x="1554" 
d="M84 0l20 66l109 4q38 2 54 15t16 56v1241l-203 -2l20 74h482l-21 -65l-108 -5q-35 -2 -51.5 -15t-16.5 -52v-1245l197 2l-21 -74h-477zM492 686v16l682 678h-250l20 74h563l-20 -65q-120 -3 -184.5 -26t-114.5 -73l-580 -577l482 -498q92 -99 204 -147l187 2
q10 -246 -66 -547h-51q12 109 17 181t3 127t-10 85t-27 48.5t-41.5 24t-60.5 5.5l2 8q-141 41 -237 145z" />
    <glyph glyph-name="uni049B" unicode="&#x49b;" horiz-adv-x="1243" 
d="M61 0l21 63l106 3q26 0 46 18t20 53v797l-193 -2l21 72h455l-21 -64l-106 -2q-26 0 -45 -18t-19 -54v-796l186 2l-20 -72h-451zM477 498v20l410 416l-211 -2l20 72h500l-20 -68q-125 -3 -177 -21.5t-122 -89.5l-299 -305q13 -18 55.5 -74.5t55 -73.5t44.5 -58.5
t49.5 -62.5t43.5 -50.5t51 -55.5q75 -75 133 -90l207 2q-10 -304 -72 -546h-51q12 103 18.5 164t8.5 119.5t-2.5 87.5t-17 53.5t-32.5 33t-51 11.5h-27q-68 0 -121 32t-108 105z" />
    <glyph glyph-name="uni04A2" unicode="&#x4a2;" horiz-adv-x="1697" 
d="M1114 0l21 66l112 4q36 2 52 15.5t16 55.5v561h-930v-630l201 2l-21 -74h-481l20 66l109 4q38 2 54 15t16 56v1241l-203 -2l20 74h482l-21 -65l-108 -5q-37 -2 -52.5 -15.5t-15.5 -57.5v-539h930v610l-201 -2l21 74h481l-21 -65l-108 -5q-38 -2 -54 -15.5t-16 -57.5
v-1237l193 2v-2h8l-8 -27q7 -228 -66 -518h-51q12 109 17 181t3 127t-10 85t-27 48.5t-41.5 24t-60.5 5.5h-260z" />
    <glyph glyph-name="uni04A3" unicode="&#x4a3;" horiz-adv-x="1294" 
d="M731 0l21 63l108 3q26 0 46 18t20 53v340h-559v-407l198 2l-20 -72h-467l20 63l107 3q27 0 48 18t21 53v797l-200 -2l20 72h467l-20 -64l-107 -2q-28 0 -47.5 -18t-19.5 -54v-323h559v391l-199 -2l21 72h466l-20 -64l-107 -2q-28 0 -48.5 -18t-20.5 -54v-796h14v2l223 2
q-10 -309 -71 -547h-51q10 83 16 136.5t9.5 106.5t2.5 83.5t-6.5 59.5t-15.5 42.5t-27 25t-38 14.5t-52 3v2h-291z" />
    <glyph glyph-name="uni04AE" unicode="&#x4ae;" horiz-adv-x="1495" 
d="M496 0l20 66l107 4q42 3 60.5 18.5t18.5 58.5v467l-487 768l-168 -2l21 74h526l-21 -65l-153 -5q-47 -1 -55.5 -20.5t16.5 -60.5l387 -609l426 688l-223 -2l14 74h463l-12 -65l-84 -3q-40 -3 -65 -20.5t-54 -62.5l-428 -689v-542l207 2l-21 -74h-495z" />
    <glyph glyph-name="uni04AF" unicode="&#x4af;" horiz-adv-x="1114" 
d="M307 -471l21 63l116 2q27 0 47.5 18.5t20.5 53.5v406l-352 862l-152 -2l21 72h477l-21 -64l-149 -2q-41 0 -51.5 -19.5t6.5 -62.5l276 -680l307 758l-200 -2l20 72h410l-21 -64l-73 -2q-33 -1 -51.5 -20t-36.5 -64l-318 -782v-473l203 2l-21 -72h-479z" />
    <glyph glyph-name="uni04B0" unicode="&#x4b0;" horiz-adv-x="1495" 
d="M301 518v66h401v30l-487 768l-168 -2l21 74h526l-21 -65l-153 -5q-47 -1 -55.5 -20.5t16.5 -60.5l387 -609l426 688l-223 -2l14 74h463l-12 -65l-84 -3q-40 -3 -65 -20.5t-54 -62.5l-428 -689v-30h409v-66h-409v-446l207 2l-21 -74h-495l20 66l107 4q42 3 60.5 18.5
t18.5 58.5v371h-401z" />
    <glyph glyph-name="uni04B1" unicode="&#x4b1;" horiz-adv-x="1114" 
d="M217 0v66h295v6l-352 862l-152 -2l21 72h477l-21 -64l-149 -2q-41 0 -51.5 -19.5t6.5 -62.5l276 -680l307 758l-200 -2l20 72h410l-21 -64l-73 -2q-33 -1 -51.5 -20t-36.5 -64l-318 -782v-6h295v-66h-295v-401l203 2l-21 -72h-479l21 63l116 2q27 0 47.5 18.5t20.5 53.5
v334h-295z" />
    <glyph glyph-name="uni04B2" unicode="&#x4b2;" horiz-adv-x="1581" 
d="M889 0l12 66l197 4q58 2 72 17.5t-11 53.5l-379 523l-434 -592l242 2l-15 -74h-522l12 66l105 4q46 2 77 19.5t62 60.5l426 575l-477 657l-209 -2l12 74h596l-12 -65l-164 -5q-49 -2 -62 -17.5t11 -53.5l379 -518l444 587l-243 -2l14 74h512l-12 -65l-105 -5
q-40 -3 -69.5 -20.5t-59.5 -58.5l-436 -572l479 -659l195 2q10 -246 -66 -547h-51q12 109 17 181t3 127t-10 85t-27 48.5t-41.5 24t-60.5 5.5h-401z" />
    <glyph glyph-name="uni04B3" unicode="&#x4b3;" horiz-adv-x="1210" 
d="M662 63q164 0 181 27q11 17 -20 57l-229 297l-295 -374l201 2l-21 -72h-432l21 63l69 3q49 1 74 16.5t61 60.5l281 357l-334 434l-158 -2l21 72h485l-20 -64q-179 0 -178 -40q0 -11 12 -26l240 -313l288 373l-196 -2l20 72h430l-20 -64l-68 -2q-49 -1 -73.5 -16
t-61.5 -62l-276 -354l327 -432l197 2q-10 -305 -72 -547h-51q10 83 16 136.5t9.5 106.5t2.5 83.5t-6.5 59.5t-15.5 42.5t-27 25t-38 14.5t-52 3h-313z" />
    <glyph glyph-name="uni04B6" unicode="&#x4b6;" horiz-adv-x="1572" 
d="M664 549q-381 0 -381 358v475l-203 -2l20 74h482l-21 -65l-108 -5q-37 -2 -52.5 -15.5t-15.5 -57.5v-396q0 -143 79 -211.5t220 -68.5q130 0 267 41t237 106v600l-203 -2l21 74h483l-21 -65l-108 -5q-39 -2 -54.5 -15.5t-15.5 -57.5v-1237l223 2q10 -250 -65 -547h-51
q12 109 17 181t3 127t-10 85t-27 48.5t-41.5 24t-60.5 5.5h-291l21 66l112 4q36 2 52 15.5t16 55.5v568q-119 -72 -262.5 -116t-261.5 -44z" />
    <glyph glyph-name="uni04B7" unicode="&#x4b7;" horiz-adv-x="1253" 
d="M553 338q-144 0 -220.5 71.5t-76.5 202.5v322l-201 -2l21 72h467l-21 -64l-106 -2q-68 -9 -68 -72v-241q0 -201 227 -201q81 0 172 30t140 66v414l-199 -2l21 72h465l-21 -64l-104 -2q-70 -8 -70 -72v-796h16v2l224 2q-10 -305 -72 -547h-51q10 83 16 136.5t9.5 106.5
t2.5 83.5t-6.5 59.5t-15.5 42.5t-27 25t-38 14.5t-52 3v2h-293l21 63l106 3q68 8 68 71v314h-10q-192 -113 -324 -113z" />
    <glyph glyph-name="uni04BA" unicode="&#x4ba;" horiz-adv-x="1527" 
d="M965 0l20 66l109 2q37 3 52 16.5t15 56.5v381q0 144 -79 213.5t-220 69.5q-125 0 -253 -37.5t-224 -99.5v-596l201 2l-21 -74h-481l20 66l109 4q37 2 53.5 14.5t16.5 50.5v1247l-203 -2l20 74h482l-21 -65l-108 -5q-35 -2 -51.5 -15t-16.5 -52v-574q115 66 250.5 107
t245.5 41q383 0 383 -359v-460l202 2l-20 -74h-481z" />
    <glyph glyph-name="uni04BB" unicode="&#x4bb;" horiz-adv-x="1265" 
d="M84 0l20 63l109 3q27 0 47.5 18t20.5 53v1317l-172 10v58q24 3 84 11.5t105 14.5t69 8h12q-6 -109 -6 -331v-344h12q204 143 367 143q124 0 189 -67t65 -183v-704l204 2l-20 -72h-471l20 63l107 3q27 0 47 18t20 53v611q0 192 -194 192q-153 0 -346 -145v-725l198 2
l-20 -72h-467z" />
    <glyph glyph-name="uni04C0" unicode="&#x4c0;" horiz-adv-x="665" 
d="M84 0l20 66l109 4q37 2 53.5 14.5t16.5 50.5v1247l-203 -2l20 74h482l-21 -65l-108 -5q-35 -2 -51.5 -15t-16.5 -52v-1245l201 2l-21 -74h-481z" />
    <glyph glyph-name="uni04D8" unicode="&#x4d8;" horiz-adv-x="1501" 
d="M735 -20q-198 0 -342 88t-217.5 245.5t-73.5 366.5q0 41 21.5 63.5t60.5 22.5h1086q-12 301 -172 469t-412 168q-64 0 -117.5 -10.5t-109 -37.5t-100.5 -71.5t-85 -116.5t-69 -168h-51l73 373q210 103 459 103q150 0 276.5 -51.5t219 -147t144.5 -239.5t52 -320
q0 -209 -79.5 -376.5t-227 -264t-336.5 -96.5zM213 637q0 -258 147 -419t377 -161q234 0 379.5 175.5t153.5 459.5h-994q-63 0 -63 -55z" />
    <glyph glyph-name="uni04D9" unicode="&#x4d9;" horiz-adv-x="1093" 
d="M537 -20q-208 0 -328.5 121t-120.5 327q0 45 14 70h787v8q0 198 -101.5 320t-271.5 122q-164 0 -241 -76.5t-117 -253.5h-41l35 320q49 25 90.5 41t116 30.5t157.5 14.5q218 0 346.5 -145t128.5 -373q0 -232 -126.5 -379t-327.5 -147zM190 403q0 -93 37.5 -170.5
t118 -127.5t191.5 -50q140 0 234.5 103t113.5 274h-664q-13 0 -22 -8.5t-9 -20.5z" />
    <glyph glyph-name="uni04E2" unicode="&#x4e2;" horiz-adv-x="1656" 
d="M387 66l-2 8v-74h-301l20 66l109 4q38 2 54 15t16 56v1241l-203 -2l20 74h482l-21 -65l-108 -5q-37 -2 -52.5 -15.5t-15.5 -57.5v-1039l829 957q60 68 60 160v65h301l-21 -65l-108 -5q-38 -2 -54 -15.5t-16 -57.5v-1239l201 2l-21 -74h-483l21 66l112 4q36 2 52 15.5
t16 55.5v1039l-836 -963q-51 -59 -51 -151zM649 1704q0 30 16.5 52t36.5 22h463q0 -28 -16 -51t-37 -23h-463z" />
    <glyph glyph-name="uni04E3" unicode="&#x4e3;" horiz-adv-x="1300" 
d="M367 33v-33h-289l20 63l107 3q27 0 48 18t21 53v797l-200 -2l20 72h467l-20 -64l-107 -2q-28 0 -47.5 -18t-19.5 -54v-626l507 561q60 63 60 170v33h289l-21 -64l-108 -2q-27 0 -47.5 -18.5t-20.5 -53.5v-796l201 2l-21 -72h-467l21 63l108 3q26 0 46 18t20 53v627
l-512 -565q-55 -58 -55 -166zM440 1253q0 30 17 52t37 22h462q0 -28 -16 -51t-37 -23h-463z" />
    <glyph glyph-name="uni04E8" unicode="&#x4e8;" horiz-adv-x="1632" 
d="M817 -20q-199 0 -357.5 94.5t-247.5 264.5t-89 384q0 217 87.5 388.5t246 267.5t360.5 96q198 0 356 -95t247 -265t89 -384q0 -217 -87.5 -388t-245.5 -267t-359 -96zM240 702q7 -187 81.5 -332.5t206 -227t299.5 -81.5q249 0 405 178.5t161 462.5h-1153zM240 768h1151
q-14 278 -175.5 451.5t-412.5 173.5q-245 0 -399.5 -173.5t-163.5 -451.5z" />
    <glyph glyph-name="uni04E9" unicode="&#x4e9;" horiz-adv-x="1112" 
d="M557 -20q-201 0 -328 145t-127 375q0 232 125.5 378t329.5 146q202 0 327.5 -144.5t125.5 -375.5q0 -232 -124.5 -378t-328.5 -146zM205 477q9 -188 106.5 -305t251.5 -117q153 0 246 116t98 306h-702zM205 543h700q-12 181 -109 293t-247 112q-149 0 -242 -111
t-102 -294z" />
    <glyph glyph-name="uni04EE" unicode="&#x4ee;" horiz-adv-x="1484" 
d="M270 -20q-57 0 -78.5 28.5t-21.5 77.5q334 0 451 201q39 66 38.5 135.5t-47.5 167.5l-389 792l-176 -2l12 74h547l-12 -65l-166 -5q-46 -2 -58.5 -20t7.5 -61l373 -768l413 847l-233 -2l14 74h494l-13 -65l-120 -3q-38 -3 -57.5 -19t-41.5 -62l-483 -988
q-46 -95 -104 -163.5t-119 -104.5t-117.5 -52.5t-112.5 -16.5zM510 1704q0 30 16.5 52t36.5 22h463q0 -28 -16 -51t-37 -23h-463z" />
    <glyph glyph-name="uni04EF" unicode="&#x4ef;" horiz-adv-x="1138" 
d="M246 -492q-73 0 -120 54q-29 33 -19 48q2 4 8 5l164 20q61 7 102.5 57t83.5 154l67 168l-368 920l-156 -2l21 72h483l-20 -64l-148 -2q-42 0 -54 -19t7 -65l285 -717l321 797l-194 -2l20 72h399l-20 -64l-70 -2q-30 -1 -50 -21t-38 -63l-391 -983q-70 -177 -150.5 -270
t-162.5 -93zM344 1253q0 30 16.5 52t36.5 22h463q0 -28 -16 -51t-37 -23h-463z" />
    <glyph glyph-name="uni1E20" unicode="&#x1e20;" horiz-adv-x="1605" 
d="M879 -20q-359 0 -557.5 196t-198.5 529q0 230 86 403.5t250 270t385 96.5q116 0 245 -28.5t203 -78.5l54 -375h-52q-22 101 -59.5 175t-81 117.5t-102.5 69t-114 34t-126 8.5q-271 0 -424.5 -180.5t-153.5 -489.5q0 -306 170 -486t474 -180q177 0 265.5 36.5t88.5 119.5
v477l-332 -4l21 76h577l-20 -68q-90 0 -117 -13t-27 -62v-385q0 -64 21.5 -80t85.5 -4l8 -50q-172 -62 -299 -93t-270 -31zM588 1704q0 30 16.5 52t36.5 22h463q0 -28 -16 -51t-37 -23h-463z" />
    <glyph glyph-name="uni1E21" unicode="&#x1e21;" horiz-adv-x="1032" 
d="M506 -492q-193 0 -322 84t-129 209q0 98 59 172.5t142 108.5q-34 34 -65 74.5t-31 54.5q0 21 57.5 67.5t128.5 73.5q-101 36 -159 120t-58 200q0 156 98.5 254t257.5 98q108 0 185 -47q25 15 81.5 50.5t90 55.5t73 38t60.5 18q46 0 39 -42q-6 -36 -37 -62q-10 -8 -19 -11
l-245 -76q110 -96 110 -262q0 -156 -95 -255t-249 -99q-54 0 -124 -36t-70 -77q0 -31 35 -55.5t88 -28.5l297 -22q130 -10 199 -76.5t69 -167.5q0 -158 -129.5 -259.5t-337.5 -101.5zM152 -170q0 -77 55.5 -135t139 -85.5t179.5 -27.5q153 0 249.5 66.5t96.5 181.5
q0 90 -53 139.5t-174 59.5l-299 24q-32 -8 -63 -23.5t-62 -41.5t-50 -67t-19 -91zM229 684q0 -128 70 -207.5t186 -79.5q107 0 173.5 77t66.5 198q0 128 -67 207t-179 79q-113 0 -181.5 -77t-68.5 -197zM242 1253q0 30 16.5 52t36.5 22h463q0 -28 -16 -51t-37 -23h-463z" />
    <glyph glyph-name="Wgrave" unicode="&#x1e80;" horiz-adv-x="2265" 
d="M1534 -20l-360 993l-406 -993h-31l-522 1402l-168 -2l12 74h527l-15 -65l-168 -5q-82 -3 -45 -96l412 -1108l365 895l-111 307l-190 -2l12 74h573l-14 -65l-193 -5q-81 -3 -47 -96l394 -1083l370 1177l-213 -2l15 74h487l-12 -65l-140 -5q-34 -1 -52 -21t-36 -73
l-413 -1310h-31zM903 1911q0 18 12.5 34.5t30.5 16.5q11 0 65.5 -53.5t145.5 -148.5t135 -138l-22 -25l-285 205q-44 31 -63 55.5t-19 53.5z" />
    <glyph glyph-name="wgrave" unicode="&#x1e81;" horiz-adv-x="1585" 
d="M1067 -20l-258 692l-295 -692h-41l-313 954l-152 -2l21 72h463l-21 -64l-139 -2q-41 0 -52 -17.5t3 -60.5l229 -704l260 614l-61 164l-154 -2l21 72h462l-20 -64l-135 -2q-41 0 -52.5 -18.5t3.5 -59.5l258 -688l247 762l-192 -2l20 72h406l-21 -64l-71 -6
q-34 -3 -55.5 -21t-34.5 -59l-285 -874h-41zM559 1511q0 19 15 34.5t34 15.5q12 0 62.5 -56.5t153.5 -183t126 -154.5l-28 -28l-281 264q-5 4 -15.5 13.5t-14.5 13t-12.5 11t-12 11.5t-9.5 11t-8 11.5t-5 11t-4 12.5t-1 13z" />
    <glyph glyph-name="Wacute" unicode="&#x1e82;" horiz-adv-x="2265" 
d="M1534 -20l-360 993l-406 -993h-31l-522 1402l-168 -2l12 74h527l-15 -65l-168 -5q-82 -3 -45 -96l412 -1108l365 895l-111 307l-190 -2l12 74h573l-14 -65l-193 -5q-81 -3 -47 -96l394 -1083l370 1177l-213 -2l15 74h487l-12 -65l-140 -5q-34 -1 -52 -21t-36 -73
l-413 -1310h-31zM944 1622q44 43 135 138t145.5 148.5t65.5 53.5q18 0 30.5 -16.5t12.5 -34.5q0 -29 -19 -53.5t-63 -55.5l-284 -205z" />
    <glyph glyph-name="wacute" unicode="&#x1e83;" horiz-adv-x="1585" 
d="M1067 -20l-258 692l-295 -692h-41l-313 954l-152 -2l21 72h463l-21 -64l-139 -2q-41 0 -52 -17.5t3 -60.5l229 -704l260 614l-61 164l-154 -2l21 72h462l-20 -64l-135 -2q-41 0 -52.5 -18.5t3.5 -59.5l258 -688l247 762l-192 -2l20 72h406l-21 -64l-71 -6
q-34 -3 -55.5 -21t-34.5 -59l-285 -874h-41zM618 1167q29 34 79.5 96t88 107.5t77.5 92.5t65 72.5t33 25.5q19 0 34 -15.5t15 -34.5q0 -7 -1 -13t-4 -12.5t-5 -11t-8 -11.5t-9.5 -11t-12 -11.5t-12.5 -11t-14.5 -13t-15.5 -13.5l-281 -264z" />
    <glyph glyph-name="Wdieresis" unicode="&#x1e84;" horiz-adv-x="2265" 
d="M1534 -20l-360 993l-406 -993h-31l-522 1402l-168 -2l12 74h527l-15 -65l-168 -5q-82 -3 -45 -96l412 -1108l365 895l-111 307l-190 -2l12 74h573l-14 -65l-193 -5q-81 -3 -47 -96l394 -1083l370 1177l-213 -2l15 74h487l-12 -65l-140 -5q-34 -1 -52 -21t-36 -73
l-413 -1310h-31zM918 1792q0 31 22.5 54.5t52.5 23.5q32 0 54 -23.5t22 -54.5t-22 -52.5t-54 -21.5q-31 0 -53 21.5t-22 52.5zM1165 1792q0 31 23 54.5t55 23.5t54 -23.5t22 -54.5t-22 -52.5t-54 -21.5t-55 21.5t-23 52.5z" />
    <glyph glyph-name="wdieresis" unicode="&#x1e85;" horiz-adv-x="1585" 
d="M1067 -20l-258 692l-295 -692h-41l-313 954l-152 -2l21 72h463l-21 -64l-139 -2q-41 0 -52 -17.5t3 -60.5l229 -704l260 614l-61 164l-154 -2l21 72h462l-20 -64l-135 -2q-41 0 -52.5 -18.5t3.5 -59.5l258 -688l247 762l-192 -2l20 72h406l-21 -64l-71 -6
q-34 -3 -55.5 -21t-34.5 -59l-285 -874h-41zM561 1364q0 34 25.5 60t60.5 26t59.5 -26t24.5 -60q0 -35 -24.5 -59.5t-59.5 -24.5t-60.5 24.5t-25.5 59.5zM838 1364q0 34 25.5 60t60.5 26t59.5 -26t24.5 -60q0 -35 -24.5 -59.5t-59.5 -24.5t-60.5 24.5t-25.5 59.5z" />
    <glyph glyph-name="uni1E9E" unicode="&#x1e9e;" horiz-adv-x="1480" 
d="M961 -20q-99 0 -169.5 19t-162.5 62l-66 416h51q42 -170 91.5 -262t113 -127t164.5 -35q68 0 127.5 29t100 92.5t40.5 151.5q0 75 -37.5 144t-109 129.5t-152 110t-190.5 103.5l420 569h-705q-52 0 -72 -21t-20 -83v-1278h-301l20 66l109 4q38 2 54 15t16 56v1241
l-203 -2l20 74h1155l29 -82l-381 -520q76 -40 135.5 -77.5t120.5 -87t101.5 -100t66 -114t25.5 -131.5q0 -157 -105.5 -259.5t-285.5 -102.5z" />
    <glyph glyph-name="uni1EBC" unicode="&#x1ebc;" horiz-adv-x="1343" 
d="M84 0l20 66l109 4q38 2 54 15t16 54v1243l-203 -2l20 74h731q167 0 314 25l47 -422h-51q-17 79 -28.5 126.5t-25.5 87.5t-26 59t-30.5 32.5t-38 16.5t-50.5 3h-557v-587h369q35 0 55.5 5.5t35.5 17.5t22 41.5t10 65.5t4 101h59v-530h-59q-3 143 -24.5 184t-102.5 41h-369
v-649h569q35 0 58.5 4.5t46 21.5t37.5 39t34 67.5t35 97t41 136.5h51l-98 -463q-128 25 -244 25h-831zM391 1667q26 90 74 137t110 47q35 0 72 -19t64 -42t62.5 -42t66.5 -19q42 0 77 38.5t48 104.5l43 -21q-12 -90 -64 -143t-115 -53q-37 0 -76 18.5t-66 41t-61.5 41
t-64.5 18.5q-41 0 -71.5 -30.5t-59.5 -96.5z" />
    <glyph glyph-name="uni1EBD" unicode="&#x1ebd;" horiz-adv-x="964" 
d="M537 -20q-198 0 -316.5 138t-118.5 380q0 241 113 383.5t313 142.5q141 0 231.5 -87.5t90.5 -217.5q0 -77 -31 -125h-610q-4 -54 -4 -82q0 -204 96 -325t256 -121q77 0 161.5 34t137.5 88l33 -41q-51 -75 -149 -121t-203 -46zM219 662h496q19 0 27 15t8 50q0 97 -64 160
t-174 63q-115 0 -191 -75t-102 -213zM229 1217q26 90 74.5 137t110.5 47q35 0 72 -19t64 -42.5t62 -42.5t66 -19q42 0 77 38.5t48 104.5l43 -20q-12 -90 -63.5 -143.5t-114.5 -53.5q-47 0 -95.5 30t-92.5 59.5t-81 29.5q-41 0 -71.5 -30.5t-59.5 -96.5z" />
    <glyph glyph-name="Ygrave" unicode="&#x1ef2;" horiz-adv-x="1495" 
d="M496 0l20 66l107 4q42 3 60.5 18.5t18.5 58.5v467l-487 768l-168 -2l21 74h526l-21 -65l-153 -5q-47 -1 -55.5 -20.5t16.5 -60.5l387 -609l426 688l-223 -2l14 74h463l-12 -65l-84 -3q-40 -3 -65 -20.5t-54 -62.5l-428 -689v-542l207 2l-21 -74h-495zM565 1911
q0 18 12.5 34.5t30.5 16.5q11 0 65.5 -53.5t145.5 -148.5t135 -138l-22 -25l-285 205q-44 31 -63 55.5t-19 53.5z" />
    <glyph glyph-name="ygrave" unicode="&#x1ef3;" horiz-adv-x="1138" 
d="M246 -492q-73 0 -120 54q-29 33 -19 48q2 4 8 5l164 20q61 7 102.5 57t83.5 154l67 168l-368 920l-156 -2l21 72h483l-20 -64l-148 -2q-42 0 -54 -19t7 -65l285 -717l321 797l-194 -2l20 72h399l-20 -64l-70 -2q-30 -1 -50 -21t-38 -63l-391 -983q-70 -177 -150.5 -270
t-162.5 -93zM379 1511q0 19 15 34.5t34 15.5q12 0 62.5 -56.5t153.5 -183t126 -154.5l-29 -28l-280 264q-5 4 -15.5 13.5t-14.5 13t-12.5 11t-12 11.5t-9.5 11t-8 11.5t-5 11t-4 12.5t-1 13z" />
    </font>
</defs>
</svg>
