<?xml version="1.0" standalone="no"?>
<!DOCTYPE svg PUBLIC "-//W3C//DTD SVG 1.1//EN" "http://www.w3.org/Graphics/SVG/1.1/DTD/svg11.dtd" >
<svg xmlns="http://www.w3.org/2000/svg" xmlns:xlink="http://www.w3.org/1999/xlink" version="1.1">
<metadata>
Created by FontForge 20170731 at Fri Dec  9 10:59:10 2022
 By Aleksey,,,
(c) Pangram Pangram 2022
</metadata>
<defs>
<font id="PPWriter-BoldItalic" horiz-adv-x="0" >
  <font-face 
    font-family="PP Writer Italic"
    font-weight="700"
    font-style="italic"
    font-stretch="normal"
    units-per-em="2048"
    panose-1="0 0 0 0 0 0 0 0 0 0"
    ascent="1638"
    descent="-410"
    x-height="1049"
    cap-height="1454"
    bbox="-503.2 -643 12661 2105"
    underline-thickness="102"
    underline-position="-358"
    slope="-14"
    unicode-range="U+0021-1F415"
  />
<missing-glyph horiz-adv-x="1013" 
d="M831 1556v-2027h-643v2027h643zM338 -332h338v68h-207l141 96h66v66h-338v-66h143l-143 -96v-68zM338 -55h338v229h-338v-229zM338 295h338v229h-203v-112h68v45h67v-95h-202v162h-68v-229zM338 569h338v203h-68v-133h-270v-70zM338 684h203v143h135v66h-338v-66h135v-75
h-135v-68zM338 948h338v70h-135v141h-203v-211zM338 1212h338v66h-135v76h135v67h-336v-67h133v-76h-135v-66zM406 12v94h202v-94h-202zM406 1018v72h67v-72h-67z" />
    <glyph glyph-name="f_f" unicode="ff" horiz-adv-x="1468" 
d="M-416 -492q-84 0 -84 68q0 57 46 116.5t85 59.5q32 0 139 -34.5t150 -34.5q44 0 77.5 22.5t58 68t41 100.5t32.5 134l182 918h-215l21 102h221q66 206 230 333.5t350 127.5q213 0 329 -113q219 201 639 201q41 0 64.5 -17.5t17.5 -50.5q-9 -60 -50.5 -117t-78.5 -57
q-33 0 -140 35t-149 35q-43 0 -76.5 -26.5t-58.5 -78t-43 -113.5t-35 -147l-2 -12h260l-20 -102h-260l-164 -828q-62 -306 -275.5 -448t-576.5 -142q-84 0 -84 68q0 57 46 116.5t85 59.5q32 0 139 -34.5t150 -34.5q44 0 77.5 22.5t58 68t41 100.5t32.5 134l182 918h-426
l-164 -828q-62 -306 -275.5 -448t-576.5 -142zM621 1028h428q27 102 65 172q-107 168 -233 168q-103 0 -164 -88.5t-96 -251.5z" />
    <glyph glyph-name="f_f_i" unicode="ffi" horiz-adv-x="2170" 
d="M299 -492q-84 0 -84 68q0 57 46 116.5t85 59.5q32 0 139 -34.5t150 -34.5q44 0 77.5 22.5t58 68t41 100.5t32.5 134l182 918h-426l-164 -828q-62 -306 -275.5 -448t-576.5 -142q-84 0 -84 68q0 57 46 116.5t85 59.5q32 0 139 -34.5t150 -34.5q44 0 77.5 22.5t58 68
t41 100.5t32.5 134l182 918h-215l21 102h221q66 206 230 333.5t350 127.5q207 0 325 -109q206 197 598 197q126 0 189 -33t63 -74q0 -62 -49 -124t-94 -62q-35 0 -104.5 30t-152.5 60.5t-151 30.5q-76 0 -123.5 -94.5t-81.5 -270.5l-2 -12h154q101 0 209.5 17t184.5 34
t99 17q42 0 50 -34t-11 -101l-155 -658q-18 -82 41 -82q73 0 190 60l-6 -107q-89 -76 -225 -135t-221 -59q-78 0 -96.5 52t12.5 187l120 529q24 97 -2.5 134.5t-107.5 43.5h-256l-164 -828q-62 -306 -275.5 -448t-576.5 -142zM621 1028h428q25 100 63 174q-107 166 -231 166
q-103 0 -164 -88.5t-96 -251.5z" />
    <glyph glyph-name="f_f_l" unicode="ffl" horiz-adv-x="2177" 
d="M299 -492q-84 0 -84 68q0 57 46 116.5t85 59.5q32 0 139 -34.5t150 -34.5q44 0 77.5 22.5t58 68t41 100.5t32.5 134l182 918h-426l-164 -828q-62 -306 -275.5 -448t-576.5 -142q-84 0 -84 68q0 57 46 116.5t85 59.5q32 0 139 -34.5t150 -34.5q44 0 77.5 22.5t58 68
t41 100.5t32.5 134l182 918h-215l21 102h221q66 206 230 333.5t350 127.5q208 0 323 -107q192 195 492 195q132 0 227 -59q102 59 199 59l-289 -1274q-10 -47 0.5 -64.5t40.5 -17.5q69 0 186 60l-6 -107q-90 -77 -221 -135.5t-215 -58.5q-77 0 -93.5 52t15.5 187l248 1118
q-50 34 -132 61t-137 27q-45 0 -80.5 -29t-61 -86t-43 -119.5t-34.5 -150.5l-2 -12h260l-20 -102h-260l-164 -828q-62 -306 -275.5 -448t-576.5 -142zM621 1028h428q25 100 63 174q-107 166 -231 166q-103 0 -164 -88.5t-96 -251.5z" />
    <glyph glyph-name="f_i" unicode="fi" horiz-adv-x="1456" 
d="M-416 -492q-84 0 -84 68q0 57 46 116.5t85 59.5q32 0 139 -34.5t150 -34.5q44 0 77.5 22.5t58 68t41 100.5t32.5 134l182 918h-215l21 102h217q139 549 792 549q126 0 189 -33t63 -74q0 -62 -49 -124t-94 -62q-35 0 -104.5 30t-152.5 60.5t-151 30.5q-40 0 -72 -26.5
t-56 -78t-41.5 -113.5t-34.5 -147l-2 -12h153q101 0 209.5 17t185 34t99.5 17q42 0 50 -34t-11 -101l-156 -658q-18 -82 41 -82q73 0 190 60l-6 -107q-89 -76 -225 -135t-221 -59q-78 0 -96.5 52t12.5 187l121 529q24 97 -3 134.5t-108 43.5h-256l-164 -828
q-62 -306 -275.5 -448t-576.5 -142z" />
    <glyph glyph-name="f_l" unicode="fl" horiz-adv-x="1462" 
d="M-416 -492q-84 0 -84 68q0 57 46 116.5t85 59.5q32 0 139 -34.5t150 -34.5q44 0 77.5 22.5t58 68t41 100.5t32.5 134l182 918h-215l21 102h217q66 263 249 406t435 143q132 0 227 -59q102 59 199 59l-289 -1274q-10 -47 0.5 -64.5t40.5 -17.5q69 0 186 60l-6 -107
q-90 -77 -221 -135.5t-215 -58.5q-77 0 -93.5 52t15.5 187l248 1118q-50 34 -131.5 61t-136.5 27q-45 0 -80.5 -29t-61 -86t-43 -119.5t-34.5 -150.5l-2 -12h260l-21 -102h-260l-164 -828q-62 -306 -275.5 -448t-576.5 -142z" />
    <glyph glyph-name=".notdef" horiz-adv-x="1013" 
d="M831 1556v-2027h-643v2027h643zM338 -332h338v68h-207l141 96h66v66h-338v-66h143l-143 -96v-68zM338 -55h338v229h-338v-229zM338 295h338v229h-203v-112h68v45h67v-95h-202v162h-68v-229zM338 569h338v203h-68v-133h-270v-70zM338 684h203v143h135v66h-338v-66h135v-75
h-135v-68zM338 948h338v70h-135v141h-203v-211zM338 1212h338v66h-135v76h135v67h-336v-67h133v-76h-135v-66zM406 12v94h202v-94h-202zM406 1018v72h67v-72h-67z" />
    <glyph glyph-name=".null" 
 />
    <glyph glyph-name="nonmarkingreturn" horiz-adv-x="682" 
 />
    <glyph glyph-name="space" unicode="&#xa0;" horiz-adv-x="446" 
 />
    <glyph glyph-name="space" unicode=" " horiz-adv-x="446" 
 />
    <glyph glyph-name="exclam" unicode="!" horiz-adv-x="604" 
d="M244 489q14 65 25.5 145t18 138.5t13 161t8.5 143.5t7 158t6 137q3 92 69.5 148.5t151.5 56.5q64 0 101 -38.5t28 -108.5q-18 -103 -147.5 -454t-159.5 -487h-121zM53 125q0 87 67 151t154 64q64 0 104 -38.5t40 -98.5q0 -88 -66.5 -153.5t-150.5 -65.5q-66 0 -107 39.5
t-41 101.5z" />
    <glyph glyph-name="quotedbl" unicode="&#x22;" horiz-adv-x="880" 
d="M332 1384q-6 79 37.5 125.5t128.5 46.5t108.5 -46t-18.5 -126l-160 -327h-74zM729 1384q-6 79 37.5 125.5t128.5 46.5t108.5 -46t-18.5 -126l-160 -327h-73z" />
    <glyph glyph-name="numbersign" unicode="#" horiz-adv-x="1261" 
d="M485 0l181 385h-281l-180 -385h-150l181 385h-226l62 131h225l197 422h-226l64 131h223l180 385h150l-180 -385h280l180 385h150l-180 -385h225l-62 -131h-225l-196 -422h223l-62 -131h-223l-180 -385h-150zM446 516h281l197 422h-281z" />
    <glyph glyph-name="dollar" unicode="$" horiz-adv-x="1165" 
d="M754 1536q-9 90 18 134t98 44q67 0 73.5 -45t-42.5 -133l-33 -61q145 -7 332 -64l-65 -416h-76q-23 184 -101 268.5t-221 84.5q-136 0 -222.5 -80t-86.5 -183q0 -70 75.5 -121.5t258.5 -107.5q182 -54 268 -137.5t86 -204.5q0 -134 -74 -252.5t-207 -194.5t-294 -85
l4 -78q8 -90 -18.5 -134t-94.5 -44q-71 0 -78.5 45t43.5 133l43 78q-221 7 -417 81l45 453h75q40 -199 146 -305.5t264 -106.5q132 0 221.5 78t89.5 185q0 80 -76.5 132.5t-244.5 108.5q-197 61 -283 139.5t-86 192.5q0 140 80 257t213 187.5t293 85.5z" />
    <glyph glyph-name="percent" unicode="%" horiz-adv-x="1898" 
d="M395 0l1020 1249h158l-1018 -1249h-160zM166 809q0 87 40 168.5t105.5 140t153 94t178.5 35.5q138 0 225.5 -78t87.5 -204q0 -114 -64.5 -216.5t-173 -164.5t-229.5 -62q-144 0 -233.5 79.5t-89.5 207.5zM401 791q0 -75 30 -119.5t81 -44.5q48 0 89.5 40t66.5 98t39 117
t14 103q0 74 -26 116t-72 42q-52 0 -96 -38.5t-70.5 -95t-41 -114.5t-14.5 -104zM1008 268q0 115 67 217t177.5 162t232.5 60q138 0 225.5 -78.5t87.5 -204.5q0 -113 -64 -215t-172.5 -164.5t-230.5 -62.5q-145 0 -234 79t-89 207zM1243 252q0 -76 30 -121t81 -45
q48 0 90 40t66.5 98.5t38.5 116.5t14 101q0 73 -27.5 116.5t-73.5 43.5q-41 0 -77.5 -25.5t-61.5 -65t-43.5 -87t-27.5 -92t-9 -80.5z" />
    <glyph glyph-name="ampersand" unicode="&#x26;" horiz-adv-x="1765" 
d="M627 -227q-123 0 -223 32t-166.5 85t-111.5 125.5t-65 151t-20 163.5q0 122 58 251.5t151 232t219.5 169t253.5 66.5q83 0 139 -35.5t70 -93.5q224 186 344 378l100 -34q-115 -228 -279.5 -391t-402.5 -293q-132 -79 -364 -162q0 -62 10.5 -116.5t40.5 -110t76.5 -95.5
t124.5 -65t180 -25q69 0 142.5 22.5t144 67.5t128.5 107.5t99.5 149t54.5 184.5q-322 -60 -338 -269h-98q0 214 102.5 344.5t288.5 171.5l76 17q80 18 140 39t113 53t83.5 78.5t34.5 105.5h98q0 -216 -97.5 -347.5t-275.5 -170.5q-13 -170 -91.5 -319.5t-195 -250
t-259 -158.5t-285.5 -58zM342 530q142 65 219.5 130.5t77.5 146.5q0 86 -70 86q-47 0 -94.5 -58t-80.5 -138.5t-52 -166.5z" />
    <glyph glyph-name="quotesingle" unicode="'" horiz-adv-x="483" 
d="M332 1384q-6 79 37.5 125.5t128.5 46.5t108.5 -46t-18.5 -126l-160 -327h-74z" />
    <glyph glyph-name="parenleft" unicode="(" horiz-adv-x="731" 
d="M432 -362q-178 97 -285.5 288.5t-107.5 440.5q0 189 65.5 379.5t176 349t257.5 285t308 196.5l41 -43q-267 -238 -420.5 -579t-153.5 -676q0 -190 48.5 -344t132.5 -254z" />
    <glyph glyph-name="parenright" unicode=")" horiz-adv-x="733" 
d="M346 1577q178 -97 285.5 -288.5t107.5 -440.5q0 -189 -65.5 -379.5t-176 -349t-257.5 -285t-308 -196.5l-41 43q267 238 420.5 579t153.5 676q0 190 -48 344t-132 254z" />
    <glyph glyph-name="asterisk" unicode="*" horiz-adv-x="978" 
d="M821 834q-60 -38 -105.5 -14t-47.5 95l-4 220l174 -111q56 -39 50.5 -95t-67.5 -95zM299 1280q34 63 92.5 73t102.5 -38l137 -148l-230 -26q-75 -7 -105 34.5t3 104.5zM350 831q-44 38 -24.5 95.5t90.5 95.5l219 115l-94 -224q-32 -71 -89.5 -95t-101.5 13zM610 1391
q-15 67 23 116t104 49t82.5 -49.5t-26.5 -115.5l-131 -207zM680 1165l201 152q66 50 120 38.5t60 -73.5t-42 -103t-118 -34z" />
    <glyph glyph-name="plus" unicode="+" horiz-adv-x="1052" 
d="M369 90l75 359h-354l27 126h356l76 359h137l-76 -359h351l-27 -126h-352l-76 -359h-137z" />
    <glyph glyph-name="comma" unicode="," horiz-adv-x="579" 
d="M-86 -381q85 88 146 187t61 149q0 29 -20 51.5t-43.5 33t-43 21.5t-18.5 21q6 58 70.5 129.5t152.5 71.5q75 0 115.5 -40.5t40.5 -109.5q0 -65 -36.5 -143t-96.5 -151.5t-133 -140.5t-148 -118z" />
    <glyph glyph-name="hyphen" unicode="-" horiz-adv-x="839" 
d="M96 412l45 211h602l-45 -211h-602z" />
    <glyph glyph-name="period" unicode="." horiz-adv-x="563" 
d="M160 -16q-66 0 -107 39.5t-41 101.5q0 87 67 151t154 64q64 0 104 -38.5t40 -98.5q0 -88 -66.5 -153.5t-150.5 -65.5z" />
    <glyph glyph-name="slash" unicode="/" horiz-adv-x="782" 
d="M-172 -342l1012 1898h161l-1011 -1898h-162z" />
    <glyph glyph-name="zero" unicode="0" horiz-adv-x="1148" 
d="M461 -20q-174 0 -281.5 125t-107.5 321q0 133 52.5 268.5t139 241.5t206 173t243.5 67q183 0 289 -125t106 -324q0 -181 -89 -354t-240 -283t-318 -110zM193 518q0 -109 92.5 -180.5t234.5 -71.5q121 0 229 51t173 136.5t65 181.5q0 112 -91.5 183t-242.5 71
q-118 0 -225 -53t-171 -139t-64 -179z" />
    <glyph glyph-name="one" unicode="1" horiz-adv-x="886" 
d="M-31 0l37 84l64 10q171 27 213 223l120 574l-260 -19l19 84q71 15 177 55.5t230 94.5t166 70l29 -21q-52 -145 -88 -311l-156 -735l219 16l-47 -125h-723z" />
    <glyph glyph-name="two" unicode="2" horiz-adv-x="1132" 
d="M-35 80q118 67 239 157.5t226 191t171.5 205.5t66.5 187q0 70 -38.5 111t-105.5 41q-66 0 -149 -35.5t-158 -95.5l-53 57q116 130 259 204.5t277 74.5q135 0 213 -65t78 -175q0 -59 -22 -119.5t-55 -111.5t-87 -106.5t-101.5 -97t-117 -91t-115.5 -79t-112 -71.5h315
q80 0 146 34.5t141 115.5h70l-195 -453q-91 41 -315 41h-580z" />
    <glyph glyph-name="three" unicode="3" horiz-adv-x="1024" 
d="M-199 -389q137 37 263.5 96t229.5 135t164.5 171.5t61.5 193.5q0 100 -75 147t-201 47l-23 50q165 96 272 220.5t107 223.5q0 49 -28 74.5t-80 25.5q-124 0 -306 -135l-26 82q121 109 248.5 172.5t238.5 63.5q121 0 192.5 -53t71.5 -142q0 -68 -38.5 -135t-104.5 -124
t-135.5 -101.5t-149.5 -83.5q369 -16 369 -224q0 -126 -99 -259t-251 -237.5t-331.5 -182.5t-344.5 -107z" />
    <glyph glyph-name="four" unicode="4" horiz-adv-x="1183" 
d="M457 -471l100 471h-641l-6 63l1089 1106l60 -20l-199 -936h217l-67 -213h-195l-100 -471h-258zM209 213h393l111 518z" />
    <glyph glyph-name="five" unicode="5" horiz-adv-x="987" 
d="M-236 -389q101 27 200.5 68.5t193.5 99t166 123t115.5 145t43.5 160.5q0 56 -29.5 103t-84 83t-117 63t-143.5 52q118 121 185 302t81 347h256q230 0 348 39l-64 -301h-477l-78 -193q72 -20 133.5 -45t119 -60t98 -76.5t64.5 -96.5t24 -117q0 -108 -63 -216.5t-167 -197
t-235.5 -163.5t-272.5 -126t-274 -75z" />
    <glyph glyph-name="six" unicode="6" horiz-adv-x="1169" 
d="M469 -20q-193 0 -304.5 101.5t-111.5 270.5q0 129 47 259t129.5 242.5t194 215t240 182t269 137.5t279.5 87l39 -70q-289 -86 -504.5 -265.5t-312.5 -424.5q174 143 369 143q134 0 217.5 -82t83.5 -209q0 -114 -48.5 -221t-131.5 -188t-202.5 -129.5t-252.5 -48.5z
M367 356q0 -130 47 -200t133 -70q74 0 138 73.5t97 167t33 169.5q0 87 -45 142.5t-121 55.5q-111 0 -254 -96q-28 -118 -28 -242z" />
    <glyph glyph-name="seven" unicode="7" horiz-adv-x="1046" 
d="M-86 -469l993 1389h-393q-121 0 -190 -54t-162 -213h-70l182 545q116 -41 258 -41h578l4 -80l-993 -1546h-207z" />
    <glyph glyph-name="eight" unicode="8" horiz-adv-x="1157" 
d="M467 -20q-197 0 -319.5 85t-122.5 216q0 76 31.5 145.5t88.5 126t128.5 102t158.5 82.5q-78 71 -118 136t-40 145q0 124 81.5 231t207 166.5t256.5 59.5q164 0 259.5 -69.5t95.5 -176.5q0 -122 -109.5 -230t-255.5 -153q53 -41 84 -67t69 -64t58.5 -69t34.5 -71.5
t14 -82.5q0 -133 -86.5 -252t-226 -189.5t-289.5 -70.5zM303 311q0 -105 62 -167t159 -62q120 0 190 77t70 171q0 19 -3.5 37t-12.5 37t-17 33.5t-25.5 34t-28 31.5t-35 34t-36.5 33t-42 36.5t-43 36.5q-30 26 -47 39q-191 -198 -191 -371zM535 1159q0 -67 50.5 -122.5
t170.5 -147.5q74 66 124 153.5t50 167.5q0 77 -47.5 119.5t-126.5 42.5q-86 0 -153.5 -65t-67.5 -148z" />
    <glyph glyph-name="nine" unicode="9" horiz-adv-x="1163" 
d="M-150 -401q188 56 371.5 190t325 311.5t219.5 368.5q-75 -84 -167 -136t-183 -52q-142 0 -239 90.5t-97 228.5q0 101 56 206t144.5 186.5t207 133.5t235.5 52q189 0 302.5 -105t113.5 -293q0 -126 -53.5 -265t-145 -267.5t-215.5 -249.5t-261.5 -216t-287 -162
t-287.5 -91zM381 690q0 -97 49.5 -164t134.5 -67q64 0 126 30t108 74q43 130 43 258q0 126 -44.5 190t-127.5 64q-72 0 -141 -65t-108.5 -154t-39.5 -166z" />
    <glyph glyph-name="colon" unicode=":" horiz-adv-x="585" 
d="M182 -16q-66 0 -106.5 39.5t-40.5 101.5q0 87 67 151t154 64q64 0 103.5 -38.5t39.5 -98.5q0 -88 -66.5 -153.5t-150.5 -65.5zM182 807q0 87 67 151t154 64q64 0 104 -38.5t40 -98.5q0 -88 -66.5 -153.5t-150.5 -65.5q-66 0 -107 39.5t-41 101.5z" />
    <glyph glyph-name="semicolon" unicode=";" horiz-adv-x="602" 
d="M328 653q-66 0 -107 40t-41 102q0 87 67 151t154 64q64 0 104 -39t40 -99q0 -88 -66.5 -153.5t-150.5 -65.5zM-63 -381q84 87 145 186.5t61 149.5q0 29 -20 51.5t-43.5 33t-43 21.5t-18.5 21q6 58 71 129.5t153 71.5q75 0 115 -40.5t40 -109.5q0 -65 -36.5 -143
t-96.5 -151.5t-132.5 -140.5t-147.5 -118z" />
    <glyph glyph-name="less" unicode="&#x3c;" horiz-adv-x="884" 
d="M879 1004l-33 -158l-649 -354l495 -367l-30 -137l-588 430l28 129l9 41z" />
    <glyph glyph-name="equal" unicode="=" horiz-adv-x="962" 
d="M123 573l27 127h737l-27 -127h-737zM53 238l25 127h737l-24 -127h-738z" />
    <glyph glyph-name="greater" unicode="&#x3e;" horiz-adv-x="884" 
d="M0 0l33 158l649 354l-496 367l31 137l588 -430l-29 -129l-8 -41z" />
    <glyph glyph-name="question" unicode="?" horiz-adv-x="858" 
d="M264 449q-2 8 -18 56t-21 66.5t-11.5 56.5t-6.5 72q0 59 39.5 114t98.5 95.5t128 80.5t128 70t98.5 63.5t39.5 62.5q0 16 -7.5 29t-26 24t-35.5 19t-51.5 17t-58 14.5t-70 15.5t-72.5 16q-30 5 -50 65t-18 107q6 84 115 84q84 0 162 -33.5t137.5 -92t95 -146t35.5 -189.5
q0 -64 -28.5 -117.5t-74.5 -90t-101 -68.5t-110 -61t-101 -59.5t-74.5 -72t-28.5 -90.5q0 -73 8 -108h-121zM115 125q0 87 67 151t154 64q64 0 103.5 -38.5t39.5 -98.5q0 -88 -66.5 -153.5t-150.5 -65.5q-66 0 -106.5 39.5t-40.5 101.5z" />
    <glyph glyph-name="at" unicode="@" horiz-adv-x="2035" 
d="M729 -373q-197 0 -356.5 79.5t-251.5 223t-92 322.5q0 133 46 268.5t127 256.5t197 227t250.5 182.5t292.5 121t318 44.5q149 0 284.5 -46.5t235.5 -126.5t159.5 -196t59.5 -248t-52.5 -267.5t-140.5 -243t-213.5 -176t-259.5 -68.5q-131 0 -202.5 60.5t-53.5 168.5
l17 94h-23q-86 -150 -184 -236.5t-189 -86.5q-103 0 -152.5 78.5t-49.5 213.5q0 200 78.5 377t225.5 288.5t328 111.5q67 0 189 -95l129 111h57l-176 -815q-20 -87 7 -127.5t85 -40.5q66 0 124.5 47.5t98.5 120t69.5 158.5t43.5 164.5t14 136.5q0 246 -162 397t-429 151
q-152 0 -294.5 -58.5t-252 -158t-192.5 -225.5t-127 -267t-44 -276q0 -236 143.5 -377t385.5 -141q113 0 228.5 17.5t191.5 46.5l28 -62q-265 -129 -516 -129zM770 295q0 -80 49 -80q79 0 185.5 159.5t171.5 413.5q-49 43 -96 71t-74 28q-55 0 -112.5 -120t-90.5 -258
t-33 -214z" />
    <glyph glyph-name="A" unicode="A" horiz-adv-x="1650" 
d="M825 0l39 94l76 17q64 15 91.5 45t27.5 86l-2 157h-572l-243 -284l211 16l-47 -131h-525l41 94l107 17q14 3 27.5 8t23 9.5t23 15.5t20 16.5t21.5 22t20 22.5t23.5 28t23.5 29l825 957q-50 138 -250 194l19 41h520l18 -1339l201 16l-49 -131h-670zM584 514h471l-6 543z
" />
    <glyph glyph-name="B" unicode="B" horiz-adv-x="1476" 
d="M-18 0l38 94l66 15q53 12 80.5 44t38.5 87l235 1099l-188 -16l49 131h694q208 0 325.5 -76.5t117.5 -201.5q0 -149 -118.5 -262.5t-291.5 -143.5q166 -22 259 -96.5t93 -188.5q0 -129 -92 -242t-237 -178t-299 -65h-770zM471 115h191q90 0 160.5 24t113.5 61.5t70.5 88
t38 98.5t10.5 98q0 102 -66 157.5t-188 55.5h-205zM616 799h218q70 0 128 35t93.5 89t55 114t19.5 116q0 92 -60 139t-175 47h-164z" />
    <glyph glyph-name="C" unicode="C" horiz-adv-x="1523" 
d="M768 -20q-303 0 -484.5 155.5t-181.5 411.5q0 144 49.5 282.5t140.5 254t212.5 204t274 138t315.5 49.5q254 0 473 -107l-66 -410h-76q-37 202 -132.5 297t-272.5 95q-97 0 -183 -36t-149 -98t-113 -142t-80.5 -170.5t-46.5 -181t-16 -175.5q0 -211 99 -327t278 -116
q86 0 156 22t136.5 73.5t127 122t137.5 182.5h76l-178 -455q-213 -69 -496 -69z" />
    <glyph glyph-name="D" unicode="D" horiz-adv-x="1697" 
d="M-16 0l41 94l63 15q51 12 87 46t46 85l234 1099l-203 -16l49 131h715q158 0 288.5 -41.5t217.5 -114.5t134.5 -173t47.5 -216q0 -135 -47 -268t-136 -248t-208 -203.5t-273 -139t-321 -50.5h-735zM485 115h254q95 0 182 32.5t156 89t126 133t94.5 165t58 184.5t20.5 192
q0 199 -115.5 313.5t-342.5 114.5h-173z" />
    <glyph glyph-name="E" unicode="E" horiz-adv-x="1456" 
d="M-18 0l41 94l65 15q109 26 129 129l236 1101l-201 -16l49 131h852q144 0 289 53l-41 -499h-76q-15 69 -28.5 115t-35 90.5t-49 69.5t-67.5 40.5t-92 15.5h-310l-114 -538h170q99 0 156.5 48.5t107.5 182.5h76l-119 -561h-76q4 129 -33 175t-135 46h-170l-123 -577h379
q61 0 120 30t114 86t101.5 120t96.5 149h76l-211 -553q-106 53 -258 53h-919z" />
    <glyph glyph-name="F" unicode="F" horiz-adv-x="1196" 
d="M-18 0l41 94l65 15q109 26 131 135l234 1095l-201 -16l49 131h825q144 0 289 53l-51 -487h-76q-13 83 -30 138t-45 98t-70.5 63t-102.5 20h-297l-122 -579h198q95 0 146.5 48t93.5 181h76l-119 -561h-76q12 130 -18.5 176.5t-124.5 46.5h-199l-115 -536l252 16l-49 -131
h-704z" />
    <glyph glyph-name="G" unicode="G" horiz-adv-x="1691" 
d="M801 -20q-329 0 -515 150t-186 405q0 146 50 287t142.5 258t216.5 206t281.5 139t327.5 50q241 0 459 -62l-53 -438h-76q-64 375 -426 375q-111 0 -208.5 -48.5t-166 -129.5t-118 -185t-73.5 -215.5t-24 -220.5q0 -206 103.5 -326.5t291.5 -120.5q136 0 222.5 45.5
t107.5 141.5l82 379l-326 -17l48 119h731l-41 -92q-126 0 -148 -109l-59 -288q-4 -24 -4 -33q0 -64 86 -64l-6 -61q-228 -77 -387 -111t-332 -34z" />
    <glyph glyph-name="H" unicode="H" horiz-adv-x="1835" 
d="M993 0l41 94l72 15q96 23 121 137l92 432h-717l-119 -563l199 16l-49 -131h-651l41 94l65 15q57 15 88 47.5t43 89.5l232 1093l-199 -16l49 131h643l-41 -94l-67 -17q-51 -13 -80 -47t-41 -92l-88 -411h716l115 546l-198 -16l49 131h643l-41 -94l-68 -17
q-99 -25 -123 -139l-229 -1089l199 16l-50 -131h-647z" />
    <glyph glyph-name="I" unicode="I" horiz-adv-x="847" 
d="M-8 0l41 94l65 15q57 15 87.5 47t41.5 84l236 1099l-201 -16l49 131h645l-41 -94l-67 -17q-98 -25 -119 -131l-235 -1097l198 16l-49 -131h-651z" />
    <glyph glyph-name="J" unicode="J" horiz-adv-x="684" 
d="M-291 -406q107 74 194 164.5t159 220t102 275.5l231 1085l-256 -16l47 131h709l-39 -94l-82 -19q-43 -9 -74 -45t-41 -90l-194 -913q-32 -152 -92.5 -278.5t-134 -212.5t-160.5 -147.5t-171 -91t-167 -34.5z" />
    <glyph glyph-name="K" unicode="K" horiz-adv-x="1687" 
d="M1534 -20q-244 0 -375 48.5t-198 166.5l-277 467l8 30l776 643l-243 -12l47 131h579l-39 -94q-110 -12 -177.5 -46t-141.5 -95l-543 -451l293 -461q73 -114 135.5 -174.5t175.5 -112.5zM-16 0l41 94l65 15q51 12 85 47.5t46 89.5l232 1093l-201 -16l49 131h643l-39 -94
l-67 -17q-98 -25 -119 -131l-234 -1097l179 16l-50 -131h-630z" />
    <glyph glyph-name="L" unicode="L" horiz-adv-x="1277" 
d="M-18 0l41 94l65 15q52 12 85 46t44 85l236 1099l-201 -16l49 131h705l-39 -94l-121 -17q-58 -8 -86 -36.5t-45 -102.5l-256 -1204h-477zM459 0l24 115h244q110 0 224.5 107t215.5 278h76l-211 -553q-112 53 -258 53h-315z" />
    <glyph glyph-name="M" unicode="M" horiz-adv-x="2091" 
d="M4 0l41 94l82 17q92 18 115 108l262 1026q-62 74 -230 168l19 41h512l272 -997l652 997h495l-35 -70l-53 -16q-74 -25 -111 -63.5t-47 -102.5l-190 -1087l197 16l-48 -131h-643l41 94l64 15q53 13 81.5 48.5t39.5 98.5l159 918l-772 -1194h-33l3 6l-5 -6l-297 1103
l-239 -968l219 16l-49 -131h-502z" />
    <glyph glyph-name="N" unicode="N" horiz-adv-x="1656" 
d="M-39 0l41 94l100 10q59 6 89 31.5t42 83.5l216 1006q-84 107 -226 188l19 41h444l643 -1026l195 911l-264 -16l49 131h585l-39 -94l-92 -10q-62 -7 -96.5 -42t-48.5 -100l-242 -1134l-141 -94l-694 1103l-207 -968l262 16l-49 -131h-586z" />
    <glyph glyph-name="O" unicode="O" horiz-adv-x="1712" 
d="M758 -20q-142 0 -263.5 45.5t-206 124.5t-132 188.5t-47.5 234.5q0 134 48.5 267.5t138.5 246.5t207 200.5t264 137.5t300 50q139 0 259 -46t203.5 -125t131 -188.5t47.5 -234.5q0 -141 -48.5 -276.5t-137.5 -247t-206 -197t-261.5 -133t-296.5 -47.5zM442 606
q0 -220 106.5 -361t282.5 -141q101 0 189.5 44.5t151.5 119t109 171t68.5 201t22.5 208.5q0 219 -105 360.5t-274 141.5q-103 0 -193.5 -47t-154.5 -124t-111 -174.5t-69.5 -199.5t-22.5 -199z" />
    <glyph glyph-name="P" unicode="P" horiz-adv-x="1429" 
d="M-18 0l38 94l82 21q96 26 119 137l232 1087l-201 -16l49 131h662q263 0 406.5 -87t143.5 -251q0 -92 -37.5 -175t-103.5 -146t-152.5 -109t-187 -70t-203.5 -24h-243l-103 -477l228 16l-49 -131h-680zM606 696h172q92 0 170 33t128.5 87.5t79 121.5t28.5 137
q0 119 -70.5 191.5t-200.5 72.5h-170z" />
    <glyph glyph-name="Q" unicode="Q" horiz-adv-x="1728" 
d="M1493 -362q-65 0 -121.5 22.5t-98 56.5t-82 89.5t-68 105t-60.5 119.5q-148 -51 -305 -51q-142 0 -263.5 45.5t-206 124.5t-132 188.5t-47.5 234.5q0 134 48.5 267.5t138.5 246.5t207 200.5t264 137.5t300 50q139 0 259 -46t203.5 -125t131 -188.5t47.5 -234.5
q0 -224 -117.5 -423.5t-314.5 -324.5q32 -60 57.5 -101.5t62.5 -87.5t74 -73.5t87.5 -45.5t107.5 -18q113 0 217 19l4 -47q-78 -37 -223 -89t-170 -52zM442 606q0 -30 4 -84q188 94 330 94q76 0 139.5 -25t114 -74.5t86.5 -100.5t76 -125q87 110 133.5 258t46.5 299
q0 219 -105 360.5t-274 141.5q-103 0 -193.5 -47t-154.5 -124t-111 -174.5t-69.5 -199.5t-22.5 -199zM457 463q31 -163 130 -261t244 -98q95 0 181 39q-39 87 -69 142t-74 113t-96.5 86t-115.5 28q-89 0 -200 -49z" />
    <glyph glyph-name="R" unicode="R" horiz-adv-x="1648" 
d="M-18 0l41 94l77 19q95 23 121 143l232 1083l-201 -16l49 131h633q251 0 400 -87t149 -249q0 -114 -65.5 -212.5t-167 -158t-218.5 -77.5l166 -363q50 -110 117 -169t194 -118l-20 -40q-262 0 -398 45.5t-178 173.5l-153 426h-168l-109 -510l199 16l-49 -131h-651z
M612 719h160q114 0 204 58t135.5 147.5t45.5 189.5q0 105 -68 165t-186 60h-160z" />
    <glyph glyph-name="S" unicode="S" horiz-adv-x="1165" 
d="M500 -20q-255 0 -477 83l45 453h75q40 -199 146 -305.5t264 -106.5q132 0 221.5 78t89.5 185q0 80 -76.5 132.5t-244.5 108.5q-197 61 -283 139.5t-86 192.5q0 150 92 274t243 192.5t325 68.5q147 0 366 -64l-65 -416h-76q-23 184 -101 268.5t-221 84.5
q-136 0 -222.5 -80t-86.5 -183q0 -70 75.5 -121.5t258.5 -107.5q182 -54 268 -137.5t86 -204.5q0 -104 -47.5 -201.5t-128.5 -171t-196.5 -117.5t-243.5 -44z" />
    <glyph glyph-name="T" unicode="T" horiz-adv-x="1425" 
d="M262 0l39 94l94 23q109 24 137 151l228 1071h-162q-53 0 -99 -21t-87.5 -66t-74.5 -93.5t-77 -126.5h-76l140 463q127 -41 274 -41h674q147 0 291 41l-58 -463h-75q-9 50 -14 75.5t-15 64t-19.5 58.5t-24.5 44.5t-33 36t-43.5 20t-57.5 8.5h-170l-260 -1224l237 16
l-47 -131h-721z" />
    <glyph glyph-name="U" unicode="U" horiz-adv-x="1632" 
d="M776 -20q-292 0 -438.5 131.5t-99.5 353.5l186 874l-188 -16l49 131h671l-38 -94l-95 -17q-112 -28 -141 -163l-137 -641q-38 -186 54 -292t284 -106q171 0 288.5 95.5t155.5 273.5l178 829l-225 -16l47 131h504l-39 -94l-55 -10q-57 -11 -87.5 -43t-45.5 -99l-144 -673
q-56 -264 -238 -409.5t-446 -145.5z" />
    <glyph glyph-name="V" unicode="V" horiz-adv-x="1628" 
d="M432 -20l-53 1359l-168 -16l49 131h703l-41 -94l-123 -14q-75 -7 -103.5 -44t-25.5 -114l30 -787l791 938l-264 -16l49 131h575l-41 -94l-67 -12q-70 -11 -115 -44.5t-106 -105.5l-1035 -1218h-55z" />
    <glyph glyph-name="W" unicode="W" horiz-adv-x="2248" 
d="M1423 -20l-149 894l-615 -894h-55l-213 1359l-178 -10l47 125h680l-39 -94l-80 -17q-118 -24 -94 -176l111 -727l409 594l-51 305l-172 -10l47 125h705l-41 -94l-93 -17q-68 -11 -92.5 -52t-11.5 -128l98 -663l475 839l-233 -10l47 125h549l-41 -94l-98 -17
q-59 -10 -99 -48t-92 -126l-665 -1189h-56z" />
    <glyph glyph-name="X" unicode="X" horiz-adv-x="1656" 
d="M721 0l41 94l115 17q66 9 92.5 37t3.5 71l-187 354l-446 -464l240 22l-50 -131h-593l40 94l115 17q103 16 215 131l422 438l-348 659l-170 -16l49 131h774l-39 -94l-96 -17q-73 -14 -101 -41.5t-7 -66.5l194 -373l473 477l-237 -16l49 131h553l-39 -94l-86 -17
q-49 -9 -94 -36.5t-103 -87.5l-459 -463l336 -641l174 16l-49 -131h-782z" />
    <glyph glyph-name="Y" unicode="Y" horiz-adv-x="1550" 
d="M350 0l39 94l53 17q73 25 113.5 66t54.5 104l70 327l-295 731l-174 -16l49 131h709l-41 -94l-103 -17q-70 -10 -88.5 -42t6.5 -93l193 -469l489 600l-213 -16l50 131h514l-41 -94l-88 -14q-43 -6 -81 -34t-93 -95l-500 -609l-105 -493l230 16l-47 -131h-701z" />
    <glyph glyph-name="Z" unicode="Z" horiz-adv-x="1247" 
d="M-70 0l-12 115l1174 1239l-437 -15q-244 -8 -454 -389h-76l190 545q124 -41 297 -41h811l15 -115l-1180 -1239l422 15q78 2 137 23.5t113 73.5t101 126t108 194h75l-137 -573q-128 41 -299 41h-848z" />
    <glyph glyph-name="bracketleft" unicode="[" horiz-adv-x="724" 
d="M-41 -342l403 1898h523l-23 -110h-260l-358 -1677h260l-23 -111h-522z" />
    <glyph glyph-name="backslash" unicode="\" horiz-adv-x="931" 
d="M739 -342h-143l-356 1898h143z" />
    <glyph glyph-name="bracketright" unicode="]" horiz-adv-x="724" 
d="M811 1552l-403 -1898h-523l23 110h260l358 1678h-260l23 110h522z" />
    <glyph glyph-name="asciicircum" unicode="^" horiz-adv-x="733" 
d="M696 1004l-131 348l-282 -348h-148l369 450h168l172 -450h-148z" />
    <glyph glyph-name="underscore" unicode="_" horiz-adv-x="1048" 
d="M-205 -342l41 201h1041l-41 -201h-1041z" />
    <glyph glyph-name="grave" unicode="`" horiz-adv-x="579" 
d="M401 1272q-159 80 -159 186q0 51 27.5 108.5t66.5 57.5q19 0 84.5 -89.5t148 -212.5t115.5 -163l-22 -24z" />
    <glyph glyph-name="a" unicode="a" horiz-adv-x="1132" 
d="M236 -20q-103 0 -153 79t-50 213q0 149 47 289.5t129 248.5t201.5 173.5t255.5 65.5q71 0 176 -84l180 188h57l-209 -848q-22 -84 45 -84q58 0 175 60l-7 -107q-95 -81 -205.5 -137.5t-191.5 -56.5q-115 0 -88 139l33 184h-23q-86 -151 -183.5 -237t-188.5 -86zM307 295
q0 -37 13 -58.5t36 -21.5q78 0 185.5 159.5t173.5 413.5q-119 99 -172 99q-55 0 -112.5 -120t-90.5 -258t-33 -214z" />
    <glyph glyph-name="b" unicode="b" horiz-adv-x="1083" 
d="M412 -20q-59 0 -170 27.5t-183 58.5l281 1208q20 86 -45.5 105t-167.5 -1q-14 -1 -21 -2v99q90 43 261 72.5t315 29.5l-233 -862h20q79 157 170 245.5t182 88.5q114 0 171 -87.5t57 -228.5q0 -206 -80 -377.5t-227 -273.5t-330 -102zM362 213q51 -33 111.5 -52.5
t106.5 -19.5q51 0 97.5 103t70.5 221t24 192q0 156 -65 156q-72 0 -168 -150t-162 -391v-4q-2 -9 -7.5 -27.5t-7.5 -27.5z" />
    <glyph glyph-name="c" unicode="c" horiz-adv-x="921" 
d="M395 -20q-157 0 -252.5 102t-95.5 264q0 93 32 193t92 190t138 162.5t177 115t202 42.5q78 0 176.5 -27.5t98.5 -60.5q0 -63 -38.5 -127t-76.5 -64q-12 0 -42.5 16.5t-63 37t-76 37t-78.5 16.5q-68 0 -128.5 -74t-94 -176.5t-33.5 -196.5q0 -103 42.5 -160t125.5 -57
q147 0 301 164l24 -107q-73 -131 -188.5 -210.5t-241.5 -79.5z" />
    <glyph glyph-name="d" unicode="d" horiz-adv-x="1169" 
d="M252 -20q-105 0 -158 81.5t-53 214.5q0 204 78 379.5t224.5 284.5t330.5 109q46 0 112 -37l62 262q21 87 -41.5 105.5t-180.5 -2.5q-7 -1 -10 -1v99q90 43 261 72.5t315 29.5l-295 -1272q-9 -37 1.5 -60.5t41.5 -23.5q32 0 86.5 16.5t106.5 43.5l-7 -107
q-96 -82 -204.5 -138t-188.5 -56q-68 0 -103 47t-16 137l27 133h-25q-86 -147 -181 -232t-183 -85zM315 293q0 -78 43 -78q80 0 193.5 160.5t179.5 412.5q-119 99 -196 99q-42 0 -84.5 -72t-71 -171t-46.5 -196.5t-18 -154.5z" />
    <glyph glyph-name="e" unicode="e" horiz-adv-x="937" 
d="M43 330q0 122 58 251.5t151 232t219.5 169t253.5 66.5q97 0 155 -46.5t58 -119.5q0 -254 -606 -465q0 -205 164 -205q87 0 178.5 47.5t171.5 132.5l24 -106q-81 -133 -213.5 -220t-287.5 -87q-146 0 -236 95.5t-90 254.5zM344 530q142 65 219.5 130.5t77.5 146.5
q0 86 -70 86q-47 0 -94.5 -58t-80.5 -138.5t-52 -166.5z" />
    <glyph glyph-name="f" unicode="f" horiz-adv-x="751" 
d="M-416 -492q-84 0 -84 68q0 57 46 116.5t85 59.5q32 0 139 -34.5t150 -34.5q44 0 77.5 22.5t58 68t41 100.5t32.5 134l182 918h-215l21 102h217q142 549 837 549q41 0 64.5 -17.5t17.5 -50.5q-9 -60 -50.5 -117t-78.5 -57q-32 0 -139 35t-149 35q-43 0 -76.5 -26.5
t-58.5 -78t-43 -113.5t-35 -147l-2 -12h260l-21 -102h-260l-164 -828q-62 -306 -275.5 -448t-576.5 -142z" />
    <glyph glyph-name="g" unicode="g" horiz-adv-x="1071" 
d="M410 -492q-104 0 -196.5 14.5t-171.5 45t-125 85t-46 126.5q0 49 26 92t71 73.5t100 52t118 34.5q-61 61 -61 123q0 28 70 82.5t159 99.5q-131 17 -208.5 88.5t-77.5 175.5q0 116 74 220t196 165.5t258 61.5q79 0 158 -27q172 235 422 235q36 0 36 -41q0 -70 -37.5 -140
t-84.5 -70q-133 0 -254 -31q104 -77 104 -205q0 -112 -66 -211.5t-177 -160t-238 -66.5q-10 -21 -18.5 -51t-8.5 -41q0 -17 27.5 -39.5t77.5 -38.5l245 -84q98 -33 143.5 -75t45.5 -112q0 -65 -37 -131t-105 -122.5t-177.5 -92t-241.5 -35.5zM164 -170q0 -83 99.5 -126.5
t256.5 -43.5q97 0 153 28.5t56 63.5q0 48 -92 82l-365 146q-108 -54 -108 -150zM350 750q0 -57 23 -122.5t69.5 -116t102.5 -50.5q52 0 78 45t26 119q0 58 -19 123t-63 117.5t-100 52.5q-57 0 -87 -48t-30 -120z" />
    <glyph glyph-name="h" unicode="h" horiz-adv-x="1277" 
d="M346 1276q19 78 -30 97.5t-210 2.5v99q89 43 264 72.5t320 29.5l-280 -1092h20q61 113 127 210t141 178.5t155 128.5t155 47q85 0 136 -56.5t23 -150.5l-161 -539q-13 -46 -0.5 -64t43.5 -18q57 0 174 60l-6 -107q-91 -78 -216 -136t-208 -58q-80 0 -101 53.5t15 185.5
l155 533q8 38 2.5 48.5t-24.5 10.5q-49 0 -156.5 -131.5t-213.5 -322t-146 -337.5l-281 -40z" />
    <glyph glyph-name="i" unicode="i" horiz-adv-x="739" 
d="M217 -20q-79 0 -99 53.5t17 185.5l137 471q17 56 -27.5 85.5t-156.5 10.5l-12 99q301 164 489 164q49 0 64 -22.5t-2 -90.5l-187 -633q-12 -40 0 -61t41 -21q74 0 191 60l-6 -107q-89 -76 -226.5 -135t-222.5 -59zM408 1352q4 77 71 137.5t146 60.5q64 0 101 -41t32 -102
q-3 -78 -67.5 -139.5t-141.5 -61.5q-65 0 -104.5 42t-36.5 104z" />
    <glyph glyph-name="j" unicode="j" horiz-adv-x="708" 
d="M-350 -492q-47 0 -70.5 20t-23.5 48q0 61 39 129t77 68q39 0 143 -40t144 -40q33 0 58.5 14.5t44 37t35.5 65t28.5 83t26.5 105.5l159 692q14 69 -27.5 92.5t-160.5 3.5l-12 99q62 34 106 56t110.5 50.5t129 43t118.5 14.5q47 0 62 -24t0 -89l-178 -803
q-69 -316 -261.5 -470.5t-547.5 -154.5zM416 1352q4 77 71 137.5t146 60.5q64 0 101 -41t32 -102q-3 -78 -67.5 -139.5t-141.5 -61.5q-65 0 -104.5 42t-36.5 104z" />
    <glyph glyph-name="k" unicode="k" horiz-adv-x="1187" 
d="M750 -20q-66 0 -103.5 58.5t-60.5 176.5l-41 219q-163 -184 -213 -407l-2 -7l-279 -40l299 1318q12 54 -4 78.5t-72 31.5t-161 -7v98q90 43 260.5 73t314.5 30l-258 -1141q153 244 346 416t340 172q27 0 44.5 -14.5t17.5 -39.5q0 -48 -29 -130t-70 -95
q-229 -72 -401 -211l90 -197q26 -57 68.5 -87.5t91.5 -30.5q73 0 176 53l6 -107q-91 -91 -189.5 -150.5t-170.5 -59.5z" />
    <glyph glyph-name="l" unicode="l" horiz-adv-x="690" 
d="M340 1274q19 79 -27.5 99t-206.5 3v99q90 43 262.5 72.5t317.5 29.5l-303 -1274q-11 -47 0 -64.5t41 -17.5q69 0 186 60l-6 -107q-90 -77 -221 -135.5t-215 -58.5q-78 0 -94.5 52t16.5 187z" />
    <glyph glyph-name="m" unicode="m" horiz-adv-x="1849" 
d="M70 860q105 77 236 133t239 56q47 0 61.5 -25t-2.5 -88l-123 -406h21l-2 -6q57 108 116 198t124.5 165.5t134.5 118.5t133 43q91 0 131.5 -55t9.5 -152l-92 -291h20q54 103 110.5 189t119 157.5t129 111.5t127.5 40q100 0 155.5 -56t26.5 -151l-168 -539
q-13 -46 -0.5 -64t43.5 -18q57 0 174 60l-6 -107q-94 -80 -214 -137t-210 -57q-80 0 -101 53.5t15 185.5l156 516q12 51 6.5 63.5t-25.5 12.5q-48 0 -143.5 -132t-188 -320.5t-133.5 -338.5l-284 -40l215 763q10 44 4.5 56t-25.5 12q-48 0 -146 -132t-194.5 -321
t-136.5 -338l-281 -40l168 710q8 27 2 46.5t-24.5 30.5t-60.5 10t-105 -15z" />
    <glyph glyph-name="n" unicode="n" horiz-adv-x="1327" 
d="M70 860q105 77 236 133t239 56q48 0 61.5 -23.5t-4.5 -89.5l-131 -438h21q60 112 123 206t134.5 174t147.5 125.5t147 45.5q94 0 148.5 -56t26.5 -151l-160 -539q-25 -82 41 -82q57 0 174 60l-6 -107q-91 -78 -216 -136t-208 -58q-80 0 -101 53.5t15 185.5l155 533
q9 38 3.5 48.5t-25.5 10.5q-48 0 -153.5 -131.5t-210 -322t-144.5 -337.5l-281 -40l166 710q9 38 -2.5 58.5t-55 27.5t-128.5 -14z" />
    <glyph glyph-name="o" unicode="o" horiz-adv-x="997" 
d="M346 -18q-143 0 -221 97.5t-78 258.5q0 116 47 242t125.5 230t192 171.5t235.5 67.5q98 0 166.5 -51.5t99.5 -134t31 -189.5q0 -119 -46 -242.5t-124 -223t-191 -163t-237 -63.5zM317 573q0 -88 26 -179t73 -153.5t100 -62.5q48 0 85 44t55 108t18 133q0 90 -26.5 179.5
t-72.5 148.5t-96 59q-41 0 -73.5 -24.5t-51 -65t-28 -88.5t-9.5 -99z" />
    <glyph glyph-name="p" unicode="p" horiz-adv-x="1146" 
d="M-135 -399q84 17 123.5 57t58.5 121l215 911q9 38 -3 58.5t-56 27.5t-129 -14l-13 98q107 79 231.5 134t231.5 55q32 0 49.5 -9.5t22.5 -35t-14 -68.5l-86 -211h16q84 151 179.5 237.5t185.5 86.5q114 0 170.5 -87.5t56.5 -228.5q0 -206 -80 -377.5t-227 -273.5
t-330 -102q-37 0 -96 16l-82 -365l317 35l-22 -137l-738 -18zM426 240q126 -99 209 -99q51 0 97.5 103t70.5 221t24 192q0 156 -65 156q-78 0 -175 -154.5t-161 -418.5z" />
    <glyph glyph-name="q" unicode="q" horiz-adv-x="1052" 
d="M260 -20q-114 0 -169.5 87t-55.5 228q0 154 47 292.5t129.5 240t202.5 161.5t258 60q58 0 170.5 -27.5t183.5 -58.5l-260 -1123q-15 -67 7.5 -100t76.5 -35.5t133 8.5v-98q-102 -43 -275 -73.5t-292 -30.5l192 753h-20l2 4q-76 -136 -160.5 -212t-169.5 -76zM309 371
q0 -156 66 -156q77 0 178.5 167.5t165.5 432.5q-50 33 -110 52.5t-107 19.5q-50 0 -97 -103t-71.5 -221.5t-24.5 -191.5z" />
    <glyph glyph-name="r" unicode="r" horiz-adv-x="946" 
d="M70 860q257 189 446 189q49 0 62.5 -22.5t-5.5 -90.5l-100 -322h19q105 201 225.5 318t243.5 117q29 0 46 -19t17 -53q0 -87 -50.5 -167t-121.5 -103l-178 -54q-93 -57 -163.5 -201.5t-143.5 -396.5l-9 -35l-284 -40l194 710q10 38 -2 58.5t-55.5 27.5t-128.5 -14z" />
    <glyph glyph-name="s" unicode="s" horiz-adv-x="907" 
d="M-6 115q0 43 11.5 88.5t36 80.5t56.5 35q36 0 112.5 -49t153.5 -98t113 -49q21 0 33 13.5t12 35.5q0 94 -168 262q-196 188 -196 309q0 120 121 213t311 93q43 0 97.5 -7.5t110 -22.5t93 -41.5t37.5 -59.5q0 -44 -39 -118.5t-78 -74.5q-24 0 -70 28.5t-89 62.5
t-92.5 62.5t-80.5 28.5q-57 0 -57 -65q0 -86 164 -250q200 -204 200 -322q0 -125 -104 -207.5t-287 -82.5q-120 0 -260.5 46t-140.5 89z" />
    <glyph glyph-name="t" unicode="t" horiz-adv-x="860" 
d="M145 201l168 725h-192l20 102l232 59l258 277h71l-77 -336h315l-20 -102h-320l-143 -615q-20 -94 61 -94q45 0 124.5 33.5t139.5 79.5v-107q-110 -109 -240.5 -176t-236.5 -67q-101 0 -142 61.5t-18 159.5z" />
    <glyph glyph-name="u" unicode="u" horiz-adv-x="1290" 
d="M250 -20q-94 0 -149 56t-19 138q109 251 188 551q10 40 -1 61t-40 21q-59 0 -174 -59l6 106q92 78 215.5 136.5t206.5 58.5q78 0 102.5 -50.5t-3.5 -156.5q-68 -264 -183 -574q-7 -20 1.5 -30.5t25.5 -10.5q59 0 160.5 130t195 315t133.5 336l281 41l-178 -746
q-11 -47 0 -64.5t41 -17.5q32 0 88 16.5t108 43.5l-6 -107q-91 -78 -216 -136t-208 -58q-80 0 -101.5 53.5t15.5 185.5l88 295h-16q-56 -106 -122 -199.5t-139 -169.5t-151 -120.5t-149 -44.5z" />
    <glyph glyph-name="v" unicode="v" horiz-adv-x="1083" 
d="M25 862q62 68 155.5 127.5t157.5 59.5q82 0 133.5 -65t83 -213t49.5 -409q47 61 80 114.5t67.5 129.5t54 170.5t23.5 204.5q0 32 19.5 50t50.5 18q36 0 88 -16t91.5 -42t37.5 -49q-37 -303 -717 -962h-32q-14 264 -32.5 433t-44 256t-52.5 117.5t-66 30.5q-57 0 -141 -61
z" />
    <glyph glyph-name="w" unicode="w" horiz-adv-x="1544" 
d="M25 862q58 69 151.5 128t159.5 59q108 0 173.5 -174t84.5 -510q58 66 91.5 115.5t56.5 111t20 129.5t-31 151q-17 50 41 113.5t125 63.5q30 0 45.5 -15t34.5 -61q56 -133 86 -312.5t16 -345.5q86 127 141 295.5t64 345.5q3 93 70 93q47 0 99 -16.5t86.5 -41.5t33.5 -49
q-8 -103 -57 -218t-118.5 -215.5t-161 -203t-174.5 -179.5t-169 -146h-33q11 220 -24 485q-131 -162 -449 -485h-31q-18 352 -44 537t-57 242.5t-83 57.5q-57 0 -141 -61z" />
    <glyph glyph-name="x" unicode="x" horiz-adv-x="1140" 
d="M717 -20q-68 0 -119 44.5t-74 129.5l-55 213l-147 -277q-55 -110 -234 -110q-73 0 -112 35q-41 37 5 77l5 4l458 369l-63 250q-12 49 -38.5 75.5t-63.5 26.5q-28 0 -86.5 -22.5t-112.5 -59.5l-6 107q66 79 162.5 136.5t181.5 57.5q69 0 122.5 -44.5t75.5 -129.5l62 -244
l156 320q54 111 241 111q77 0 113 -34t-8 -71l-478 -420l58 -223q25 -102 96 -102q33 0 88 22t111 60l6 -107q-66 -79 -162.5 -136.5t-181.5 -57.5z" />
    <glyph glyph-name="y" unicode="y" horiz-adv-x="1120" 
d="M-233 -336q29 -2 88 -2q160 0 287 49t190 160q69 117 69 348q0 139 -33 278.5t-86.5 229.5t-109.5 90q-66 0 -141 -61l-6 106q65 68 161 127.5t164 59.5q88 0 156 -92.5t101.5 -237t33.5 -311.5q0 -76 -10 -193q84 147 149 346t84 420q1 32 20 50t50 18q36 0 88 -16
t91.5 -42t37.5 -49q-10 -106 -86 -260t-211.5 -348t-287 -387.5t-353.5 -435.5q-104 0 -227 16.5t-219 46.5v90z" />
    <glyph glyph-name="z" unicode="z" horiz-adv-x="972" 
d="M610 -207q-64 0 -121.5 25.5t-100 62t-82.5 72.5t-85 61.5t-90 24.5q-20 0 -58.5 -19t-60.5 -40l-106 40l768 777h-146q-128 0 -204 -38.5t-168 -160.5h-78l166 471q64 -41 299 -41h401l39 -72l-694 -708q40 -13 83.5 -44.5t74.5 -59.5t75.5 -50t91.5 -22q45 0 74 8.5
t57 34t50.5 71.5t48.5 123h78q-4 -139 -43.5 -256t-110.5 -188.5t-158 -71.5z" />
    <glyph glyph-name="braceleft" unicode="{" horiz-adv-x="833" 
d="M133 670q113 6 152 49t39 141q0 45 -14.5 147t-14.5 158q0 85 25.5 151.5t74 110.5t108.5 74.5t139 46.5t155 22.5t166 6.5l-50 -131l-131 4q-55 2 -94 -12t-59.5 -34.5t-32 -53.5t-14 -59t-2.5 -62q0 -51 15 -153t15 -152q0 -132 -75 -220t-185 -88q26 0 52.5 -8
t52.5 -25t42.5 -49.5t16.5 -76.5q0 -52 -23.5 -114t-57 -121t-66.5 -117t-56.5 -119.5t-23.5 -112.5q0 -54 35 -73.5t108 -16.5l131 4l-8 -131q-533 0 -533 248q0 56 23.5 118.5t57 119t67 112t57 115t23.5 110.5q0 78 -135 84z" />
    <glyph glyph-name="bar" unicode="|" horiz-adv-x="473" 
d="M-14 -342l420 1970h147l-420 -1970h-147z" />
    <glyph glyph-name="braceright" unicode="}" horiz-adv-x="831" 
d="M750 561q-113 -6 -152 -49t-39 -141q0 -45 14.5 -147t14.5 -158q0 -85 -25.5 -151.5t-74 -110.5t-108.5 -74.5t-139 -46.5t-155 -22.5t-166 -6.5l49 131l131 -4q55 -2 94 12t59.5 34.5t32.5 53.5t14.5 59t2.5 62q0 51 -15.5 153t-15.5 152q0 132 75 219.5t185 87.5
q-26 0 -52.5 8t-52.5 25.5t-42 50t-16 76.5q0 52 23.5 114t56.5 121t66.5 117t57 119.5t23.5 112.5q0 54 -35 73.5t-108 16.5l-131 -4l8 131q532 0 532 -248q0 -56 -23.5 -118.5t-57 -119t-66.5 -112t-56.5 -115t-23.5 -110.5q0 -78 135 -84z" />
    <glyph glyph-name="asciitilde" unicode="~" horiz-adv-x="983" 
d="M31 354q69 124 165 200.5t169 76.5q54 0 100.5 -19t74 -41.5t64.5 -41.5t76 -19q49 0 94 34t111 118l61 -11q-72 -129 -159.5 -200.5t-172.5 -71.5q-45 0 -83.5 12.5t-65.5 30.5t-51.5 35.5t-54.5 30t-62 12.5q-48 0 -93 -35.5t-112 -120.5z" />
    <glyph glyph-name="exclamdown" unicode="&#xa1;" horiz-adv-x="604" 
d="M362 545q-14 -65 -25.5 -143.5t-18 -141t-12.5 -159t-8.5 -145t-7 -156t-5.5 -138.5q-3 -92 -70 -148.5t-152 -56.5q-64 0 -101 39t-28 109q18 103 148 453.5t160 486.5h120zM188 831q0 88 67 154t151 66q65 0 106 -40t41 -102q0 -87 -67 -151t-154 -64q-64 0 -104 38.5
t-40 98.5z" />
    <glyph glyph-name="cent" unicode="&#xa2;" horiz-adv-x="919" 
d="M397 -20q-117 0 -41 153l31 62q-132 20 -210.5 118t-78.5 244q0 140 69.5 286.5t194.5 258.5t271 145l-2 74q-6 154 110 154q111 0 37 -154l-28 -61q79 -2 171.5 -30t92.5 -59q0 -63 -38.5 -126.5t-76.5 -63.5q-14 0 -58 26.5t-100.5 53t-101.5 26.5q-68 0 -128.5 -73.5
t-94 -176t-33.5 -196.5q0 -103 42.5 -160t125.5 -57q147 0 301 164l25 -107q-65 -117 -163.5 -193t-209.5 -93v-62q2 -76 -23.5 -114.5t-83.5 -38.5z" />
    <glyph glyph-name="sterling" unicode="&#xa3;" horiz-adv-x="1351" 
d="M-14 106h20q65 1 118 17.5t88 42.5t61 65t40 76.5t22 86.5t10.5 86.5t2.5 82.5v33h-211l29 127h172q-14 147 -14 188q0 171 84 301t224.5 196.5t315.5 66.5q79 0 182 -26t187 -71l-62 -407h-77q-28 192 -99 285.5t-194 93.5q-75 0 -132.5 -32.5t-89.5 -86t-47.5 -113.5
t-15.5 -125q0 -40 5 -84t15 -102t13 -84h416l-39 -127h-365v-10q0 -164 -74 -283t-213 -186q207 16 359 53q368 86 491 324h76q-27 -127 -72.5 -220t-96.5 -144.5t-118 -82t-122.5 -39t-124.5 -8.5h-809z" />
    <glyph glyph-name="currency" unicode="&#xa4;" horiz-adv-x="1175" 
d="M508 188q-161 0 -240 125l-192 -157l-72 90l217 178q-12 56 -12 121q0 108 39.5 224.5t109.5 215.5l-153 197l106 92l142 -178q162 159 356 159q154 0 235 -125l175 144l69 -92l-198 -162q16 -69 16 -139q0 -115 -42.5 -234.5t-117.5 -218.5l141 -182l-106 -90l-133 168
q-159 -136 -340 -136zM479 780q0 -88 26 -179t73 -153.5t100 -62.5q48 0 85 44t55 108t18 133q0 90 -26.5 179.5t-72.5 148.5t-96 59q-41 0 -73.5 -24.5t-51 -65t-28 -88.5t-9.5 -99z" />
    <glyph glyph-name="yen" unicode="&#xa5;" horiz-adv-x="1550" 
d="M350 0l39 94l53 17q68 23 106.5 58t55.5 89h-334l27 127h336l24 119h-335l26 127h324l-287 708l-174 -16l49 131h709l-41 -94l-103 -17q-70 -10 -88.5 -42t6.5 -93l193 -469l489 600l-213 -16l50 131h514l-41 -94l-88 -14q-43 -6 -81 -34t-93 -95l-482 -586h322l-27 -127
h-336l-24 -119h336l-27 -127h-336l-31 -143l230 16l-47 -131h-701z" />
    <glyph glyph-name="brokenbar" unicode="&#xa6;" horiz-adv-x="473" 
d="M262 956l144 672h147l-143 -672h-148zM-14 -342l143 672h147l-143 -672h-147z" />
    <glyph glyph-name="section" unicode="&#xa7;" horiz-adv-x="1056" 
d="M248 -362q-177 0 -359 65l60 408h78q71 -367 309 -367q100 0 160.5 75t60.5 167q0 27 -5 53.5t-20 58.5t-26 54.5t-39 63.5t-43 62t-53.5 73t-55.5 75q-151 213 -151 395q0 234 244 406q46 114 167.5 181t268.5 67q176 0 360 -66l-59 -408h-78q-74 367 -309 367
q-99 0 -159 -75t-60 -167q0 -27 5 -53.5t20 -59t24.5 -53.5t38.5 -64t41.5 -61.5t53 -73.5t54.5 -75q154 -216 154 -397q0 -232 -244 -404q-49 -113 -169.5 -180t-268.5 -67zM295 901q0 -167 145 -369q17 -23 56 -77t53.5 -74.5t44.5 -64.5t42 -65.5t31 -58t26.5 -61.5
t13.5 -56.5t6 -60.5q0 -20 -2 -32q88 102 88 229q0 160 -146 369q-15 21 -55.5 77t-54 74.5t-44.5 64t-41.5 66t-30.5 58t-26.5 62t-13 56t-6.5 60.5q0 20 2 32q-88 -102 -88 -229z" />
    <glyph glyph-name="dieresis" unicode="&#xa8;" horiz-adv-x="782" 
d="M741 1225q-52 0 -84 32t-32 80q0 67 56 118.5t124 51.5q49 0 79.5 -31t30.5 -79q0 -67 -54.5 -119.5t-119.5 -52.5zM256 1337q0 67 56 118.5t124 51.5q49 0 80 -31t31 -79q0 -67 -53.5 -119.5t-120.5 -52.5q-52 0 -84.5 32t-32.5 80z" />
    <glyph glyph-name="copyright" unicode="&#xa9;" horiz-adv-x="1654" 
d="M721 -20q-283 0 -449 161.5t-166 417.5q0 175 74.5 342.5t199 293.5t298 203t360.5 77q142 0 259 -43.5t195 -121t120.5 -184t42.5 -231.5q0 -175 -74 -342t-198.5 -293t-298.5 -203t-363 -77zM256 588q0 -218 138 -361t349 -143q139 0 278 66t244.5 173t171.5 251.5
t66 291.5q0 219 -137.5 361.5t-349.5 142.5q-139 0 -278 -66t-244.5 -173t-171.5 -251.5t-66 -291.5zM430 623q0 95 48 193t126.5 175.5t189.5 126.5t228 49q79 0 163 -17.5t126 -43.5l-37 -227h-84q-22 92 -69.5 153.5t-108.5 61.5q-65 0 -125 -50t-99 -124t-62.5 -155.5
t-23.5 -148.5q0 -112 46 -184t122 -72q50 0 101 33.5t78.5 65.5t87.5 109q11 13 16 20h84l-123 -254q-53 -20 -136.5 -33.5t-150.5 -13.5q-174 0 -285.5 95.5t-111.5 240.5z" />
    <glyph glyph-name="ordfeminine" unicode="&#xaa;" horiz-adv-x="966" 
d="M367 625q-86 0 -141.5 66t-55.5 167q0 119 45 233.5t119 200.5t177 138.5t212 52.5q49 0 129 -66l141 148h80l-166 -670q-11 -29 -6.5 -49.5t33.5 -20.5q49 0 139 49l-4 -94q-74 -62 -175.5 -108.5t-168.5 -46.5q-90 0 -68 112l25 148h-18q-67 -120 -145.5 -190
t-151.5 -70zM442 901q0 -55 39 -55q65 0 141 109t126 311q-30 33 -66 56.5t-57 23.5q-34 0 -69 -53t-59 -126t-39.5 -147t-15.5 -119z" />
    <glyph glyph-name="guillemotleft" unicode="&#xab;" horiz-adv-x="1097" 
d="M764 502l166 -350h-84l-350 333l2 17l4 16l491 334h84zM43 485l4 17l2 16l522 387h84l-329 -403l157 -404h-84z" />
    <glyph glyph-name="logicalnot" unicode="&#xac;" horiz-adv-x="890" 
d="M106 561l27 127h696l-8 -43l-76 -358h-137l58 274h-560z" />
    <glyph glyph-name="uni00AD" unicode="&#xad;" horiz-adv-x="839" 
d="M96 412l45 211h602l-45 -211h-602z" />
    <glyph glyph-name="registered" unicode="&#xae;" horiz-adv-x="997" 
d="M586 807q-154 0 -250 95t-96 241q0 97 44 192.5t116 167t169.5 116t198.5 44.5q155 0 250.5 -95.5t95.5 -244.5q0 -98 -44 -192.5t-116 -165.5t-169.5 -114.5t-198.5 -43.5zM328 1161q0 -117 76.5 -192.5t199.5 -75.5q107 0 205.5 58t158.5 155t60 203q0 117 -79 192.5
t-208 75.5q-106 0 -202 -58.5t-153.5 -155t-57.5 -202.5zM381 1024l25 59h22q16 0 23 8t10 27l57 277h-53l24 59h285q79 0 122.5 -28.5t43.5 -71.5q0 -52 -40.5 -91t-104.5 -53l43 -77q17 -29 30 -45t39 -35l-28 -29q-140 0 -162 55l-55 123h-29l-25 -119h51l-24 -59h-254z
M645 1260h51q35 0 60.5 24t25.5 62q0 49 -65 49h-43z" />
    <glyph glyph-name="macron" unicode="&#xaf;" horiz-adv-x="714" 
d="M207 1225q7 30 43 77.5t59 47.5h584q-7 -37 -38.5 -81t-63.5 -44h-584z" />
    <glyph glyph-name="degree" unicode="&#xb0;" horiz-adv-x="538" 
d="M401 1004q-86 0 -139 52t-53 134q0 112 90.5 198.5t202.5 86.5q84 0 137 -53.5t53 -133.5q0 -113 -90.5 -198.5t-200.5 -85.5zM328 1212q0 -42 27 -69t71 -27q58 0 103.5 45.5t45.5 104.5q0 42 -27 69t-71 27q-59 0 -104 -45t-45 -105z" />
    <glyph glyph-name="plusminus" unicode="&#xb1;" horiz-adv-x="991" 
d="M356 213l68 317h-313l26 127h314l67 318h137l-67 -318h311l-27 -127h-311l-67 -317h-138zM-2 0l27 127h761l-26 -127h-762z" />
    <glyph glyph-name="uni00B2" unicode="&#xb2;" horiz-adv-x="899" 
d="M147 926q62 38 90 55.5t82.5 52.5t81 53.5t71 49.5t67 51.5t54 49t47.5 50.5t32.5 48.5t23 51.5t6.5 50q0 46 -26 73t-82 27q-107 0 -270 -123l-39 62q95 98 212 164.5t238 66.5q106 0 164.5 -54.5t58.5 -140.5q0 -66 -27.5 -126t-71 -106t-109.5 -89.5t-129.5 -75
t-143.5 -63.5h174q88 0 147.5 36.5t127.5 122.5h63l-129 -374q-59 26 -118 33.5t-164 7.5h-408z" />
    <glyph glyph-name="uni00B3" unicode="&#xb3;" horiz-adv-x="837" 
d="M485 856q-165 0 -299 59l62 277h63q12 -135 59.5 -193.5t137.5 -58.5q79 0 126.5 49t47.5 113q0 112 -215 112l-6 54q10 4 36 13.5t41.5 15.5t41 17.5t41.5 21t35.5 24.5t30.5 30t18.5 34.5t7.5 41.5q0 40 -28 60t-73 20q-62 0 -119.5 -31t-138.5 -96l-41 62
q214 225 426 225q99 0 166.5 -41t67.5 -111q0 -53 -22 -93.5t-73.5 -71.5t-82.5 -44.5t-103 -38.5q-11 -4 -16 -6q260 -18 260 -159q0 -85 -71 -152.5t-172.5 -100t-207.5 -32.5z" />
    <glyph glyph-name="acute" unicode="&#xb4;" horiz-adv-x="593" 
d="M193 1159q125 163 264.5 314t187.5 151q37 0 55 -44.5t11 -90.5q-7 -41 -42.5 -79.5t-67.5 -58.5t-83 -48l-305 -168z" />
    <glyph glyph-name="uni00B5" unicode="&#xb5;" horiz-adv-x="1345" 
d="M256 -20q-27 0 -51 6q-3 -174 84 -355l-285 -123q-37 105 2.5 350t104.5 380h4q95 234 161 487q10 40 -1 61t-39 21q-60 0 -175 -59l7 106q92 79 215 137t206 58q78 0 102.5 -50.5t-3.5 -156.5q-70 -273 -182 -574q-7 -20 1 -30.5t25 -10.5q59 0 161 130t195.5 315
t133.5 336l280 41l-178 -746q-11 -47 0 -64.5t41 -17.5q32 0 88.5 16.5t108.5 43.5l-7 -107q-91 -78 -216 -136t-208 -58q-80 0 -101.5 53.5t15.5 185.5l89 295h-17q-56 -106 -122 -199.5t-139 -169.5t-151 -120.5t-149 -44.5z" />
    <glyph glyph-name="paragraph" unicode="&#xb6;" horiz-adv-x="1202" 
d="M526 557q-150 0 -248 93.5t-98 248.5q0 113 50.5 217.5t131.5 177.5t185.5 116.5t210.5 43.5h626l-41 -94l-77 -17q-62 -11 -92.5 -45t-43.5 -94l-225 -1059q-51 -237 -151 -350.5t-295 -136.5l-4 49q64 31 111 69.5t78.5 80t56.5 104.5t41 123.5t36 155.5l234 1099h-103
l-166 -782h-217z" />
    <glyph glyph-name="periodcentered" unicode="&#xb7;" horiz-adv-x="526" 
d="M233 354q-60 0 -96.5 35.5t-36.5 91.5q0 77 61 136t138 59q58 0 93.5 -35t35.5 -90q0 -78 -60 -137.5t-135 -59.5z" />
    <glyph glyph-name="cedilla" unicode="&#xb8;" horiz-adv-x="395" 
d="M-195 -547q42 34 66.5 56t50 62t25.5 77q0 38 -22.5 63.5t-76.5 63.5l199 272h66l-66 -147q109 -66 109 -152q0 -62 -52 -129t-126.5 -116t-151.5 -74z" />
    <glyph glyph-name="uni00B9" unicode="&#xb9;" horiz-adv-x="811" 
d="M160 877l39 94l63 10q90 14 137.5 54t65.5 126l67 312l-243 -39l16 84q97 13 254.5 74t263.5 114l29 -20q-48 -103 -76.5 -201t-68.5 -287l-45 -207l219 10l-47 -124h-674z" />
    <glyph glyph-name="ordmasculine" unicode="&#xba;" horiz-adv-x="1011" 
d="M530 625q-148 0 -242.5 88t-94.5 229q0 101 43 197.5t116.5 170t177.5 118.5t218 45q150 0 243.5 -87.5t93.5 -228.5q0 -101 -43 -197.5t-116.5 -170.5t-177.5 -119t-218 -45zM467 958q0 -108 36.5 -170.5t102.5 -62.5q52 0 93.5 47t64.5 116t35 135.5t12 117.5
q0 109 -37 171t-102 62q-52 0 -93.5 -47t-64.5 -116t-35 -135.5t-12 -117.5z" />
    <glyph glyph-name="guillemotright" unicode="&#xbb;" horiz-adv-x="1097" 
d="M328 502l-166 350h84l350 -334l-2 -16l-4 -17l-492 -333h-84zM436 98l330 404l-158 403h84l357 -387l-5 -16l-2 -17l-522 -387h-84z" />
    <glyph glyph-name="onequarter" unicode="&#xbc;" horiz-adv-x="1722" 
d="M106 659l39 95l64 10q90 14 137.5 54t65.5 126l67 311l-243 -38l16 83q97 13 254 74.5t264 114.5l29 -21q-49 -104 -78 -202t-68 -285l-45 -207l219 10l-47 -125h-674zM473 2l1102 1475l88 -41l-1102 -1475zM868 195l701 632l33 -10l-107 -504h129l-55 -155h-107
l-32 -158h-203l33 158h-386zM1116 313h176l43 201z" />
    <glyph glyph-name="onehalf" unicode="&#xbd;" horiz-adv-x="1888" 
d="M106 659l39 95l64 10q90 14 137.5 54t65.5 126l67 311l-243 -38l16 83q97 13 254 74.5t264 114.5l29 -21q-49 -104 -78 -202t-68 -285l-45 -207l219 10l-47 -125h-674zM393 0l1102 1475l88 -41l-1102 -1475zM950 47q62 38 90 55.5t82.5 52.5t81 53.5t71 49.5t67 51.5
t54 49t47.5 50.5t32.5 48.5t23 51.5t6.5 50q0 46 -26 73t-82 27q-109 0 -271 -122l-39 61q95 98 212.5 164.5t238.5 66.5q106 0 164.5 -54t58.5 -140q0 -81 -39.5 -152.5t-112.5 -128t-150 -98t-179 -82.5h174q88 0 147.5 36.5t127.5 123.5h63l-129 -375q-59 26 -118.5 33.5
t-164.5 7.5h-407z" />
    <glyph glyph-name="threequarters" unicode="&#xbe;" horiz-adv-x="1787" 
d="M430 637q-165 0 -299 59l62 277h63q12 -135 59.5 -193.5t137.5 -58.5q79 0 126.5 49t47.5 113q0 112 -215 112l-6 54q8 3 41 15t49 19t45.5 21t46 27t35 30.5t26.5 39t8 46.5q0 40 -27.5 60t-72.5 20q-62 0 -119.5 -31t-138.5 -96l-41 62q214 225 426 225q99 0 166.5 -41
t67.5 -111q0 -53 -22 -93.5t-73.5 -71.5t-82.5 -44.5t-103 -38.5q-11 -4 -16 -6q260 -18 260 -159q0 -85 -71 -152.5t-172.5 -100t-207.5 -32.5zM492 0l1101 1475l88 -41l-1101 -1475zM934 195l700 632l33 -10l-106 -504h129l-56 -155h-106l-33 -158h-203l33 158h-385z
M1182 313h176l43 201z" />
    <glyph glyph-name="questiondown" unicode="&#xbf;" horiz-adv-x="858" 
d="M592 571q4 -14 15 -46.5t16.5 -50.5t12.5 -46.5t10 -55t3 -53.5q0 -69 -55 -133t-133 -110.5t-156 -87.5t-133 -80.5t-55 -73.5q0 -16 7.5 -29t26 -24t35.5 -19t51.5 -17t58 -14.5t70 -15.5t72.5 -16q30 -5 50 -65t18 -107q-6 -84 -115 -84q-84 0 -162 33.5t-137.5 92
t-95 146t-35.5 189.5q0 64 28.5 117.5t74.5 90t101 68.5t110 61t101 59.5t74.5 72t28.5 90.5q0 73 -8 108h121zM377 817q0 88 66.5 153.5t150.5 65.5q66 0 106.5 -39.5t40.5 -101.5q0 -87 -67 -151t-154 -64q-64 0 -103.5 38.5t-39.5 98.5z" />
    <glyph glyph-name="Agrave" unicode="&#xc0;" horiz-adv-x="1650" 
d="M825 0l39 94l76 17q64 15 91.5 45t27.5 86l-2 157h-572l-243 -284l211 16l-47 -131h-525l41 94l107 17q14 3 27.5 8t23 9.5t23 15.5t20 16.5t21.5 22t20 22.5t23.5 28t23.5 29l825 957q-50 138 -250 194l19 41h520l18 -1339l201 16l-49 -131h-670zM584 514h471l-6 543z
M887 1890q8 44 37.5 80.5t62.5 36.5q37 0 130 -144t145 -251l-25 -25l-221 117q-73 38 -96 61q-47 47 -33 125z" />
    <glyph glyph-name="Aacute" unicode="&#xc1;" horiz-adv-x="1650" 
d="M825 0l39 94l76 17q64 15 91.5 45t27.5 86l-2 157h-572l-243 -284l211 16l-47 -131h-525l41 94l107 17q14 3 27.5 8t23 9.5t23 15.5t20 16.5t21.5 22t20 22.5t23.5 28t23.5 29l825 957q-50 138 -250 194l19 41h520l18 -1339l201 16l-49 -131h-670zM584 514h471l-6 543z
M934 1612q210 224 286 296q105 99 136 99q30 0 47.5 -34.5t9.5 -76.5q-7 -40 -25.5 -71t-48.5 -53t-53.5 -34t-62.5 -28l-269 -123z" />
    <glyph glyph-name="Acircumflex" unicode="&#xc2;" horiz-adv-x="1650" 
d="M825 0l39 94l76 17q64 15 91.5 45t27.5 86l-2 157h-572l-243 -284l211 16l-47 -131h-525l41 94l107 17q14 3 27.5 8t23 9.5t23 15.5t20 16.5t21.5 22t20 22.5t23.5 28t23.5 29l825 957q-50 138 -250 194l19 41h520l18 -1339l201 16l-49 -131h-670zM584 514h471l-6 543z
M811 1612q120 144 240 269.5t153 125.5q23 0 65 -72t78 -153t70 -170l-28 -25l-234 201l-324 -201z" />
    <glyph glyph-name="Atilde" unicode="&#xc3;" horiz-adv-x="1650" 
d="M825 0l39 94l76 17q64 15 91.5 45t27.5 86l-2 157h-572l-243 -284l211 16l-47 -131h-525l41 94l107 17q14 3 27.5 8t23 9.5t23 15.5t20 16.5t21.5 22t20 22.5t23.5 28t23.5 29l825 957q-50 138 -250 194l19 41h520l18 -1339l201 16l-49 -131h-670zM584 514h471l-6 543z
M807 1671q60 110 145.5 193.5t149.5 83.5q36 0 138 -63.5t130 -63.5q44 0 93 36t93 93l17 -21q-53 -115 -138 -199.5t-149 -84.5q-33 0 -77.5 28.5t-94.5 57t-96 28.5q-51 0 -195 -108z" />
    <glyph glyph-name="Adieresis" unicode="&#xc4;" horiz-adv-x="1650" 
d="M825 0l39 94l76 17q64 15 91.5 45t27.5 86l-2 157h-572l-243 -284l211 16l-47 -131h-525l41 94l107 17q14 3 27.5 8t23 9.5t23 15.5t20 16.5t21.5 22t20 22.5t23.5 28t23.5 29l825 957q-50 138 -250 194l19 41h520l18 -1339l201 16l-49 -131h-670zM584 514h471l-6 543z
M846 1755q0 59 50 105.5t112 46.5q44 0 72 -28t28 -71q0 -61 -48.5 -108t-109.5 -47q-46 0 -75 29t-29 73zM1178 1755q0 60 49.5 106t111.5 46q44 0 72.5 -28t28.5 -71q0 -61 -49.5 -108t-108.5 -47q-46 0 -75 29t-29 73z" />
    <glyph glyph-name="Aring" unicode="&#xc5;" horiz-adv-x="1650" 
d="M825 0l39 94l76 17q64 15 91.5 45t27.5 86l-2 157h-572l-243 -284l211 16l-47 -131h-525l41 94l107 17q14 3 27.5 8t23 9.5t23 15.5t20 16.5t21.5 22t20 22.5t23.5 28t23.5 29l825 957q-50 138 -250 194l19 41h520l18 -1339l201 16l-49 -131h-670zM584 514h471l-6 543z
M907 1722q0 94 82.5 152.5t196.5 58.5q93 0 145.5 -37t52.5 -100q0 -88 -76.5 -147.5t-199.5 -59.5q-94 0 -147.5 35.5t-53.5 97.5zM1075 1702q0 -60 45 -60q32 0 56 35t33.5 74.5t9.5 71.5q0 57 -45 57q-33 0 -57 -35t-33 -73.5t-9 -69.5z" />
    <glyph glyph-name="AE" unicode="&#xc6;" horiz-adv-x="2226" 
d="M-119 0l41 94l107 17q14 3 27.5 8t23 9.5t23 15.5t20 16.5t21.5 22t20 22.5t23.5 28t23.5 29l786 961q25 30 32 55.5t-5.5 48t-43 39.5t-82.5 29t-124 18l19 41h1132q146 0 287 53l-39 -499h-76q-20 87 -38.5 140.5t-49 101t-76 68.5t-110.5 21h-307l-119 -563h174
q97 0 154.5 49t107.5 183h76l-119 -562h-76q4 129 -32.5 175.5t-135.5 46.5h-174l-117 -553h379q61 0 120 30t113.5 86t101 120.5t95.5 148.5h76l-211 -553q-106 53 -256 53h-919l39 94l67 15q106 27 129 129l90 430h-385l-452 -553l227 16l-47 -131h-541zM782 776h322
l110 529z" />
    <glyph glyph-name="Ccedilla" unicode="&#xc7;" horiz-adv-x="1523" 
d="M768 -20h-2l-31 -68q109 -66 109 -152q0 -62 -52 -129t-126.5 -116t-151.5 -74l-20 24q30 24 49 41t43.5 43.5t36.5 54.5t12 56q0 38 -22.5 63.5t-75.5 63.5l143 197q-266 23 -422 175t-156 388q0 144 49.5 282.5t140.5 254t212.5 204t274 138t315.5 49.5q254 0 473 -107
l-66 -410h-76q-37 202 -132.5 297t-272.5 95q-97 0 -183 -36t-149 -98t-113 -142t-80.5 -170.5t-46.5 -181t-16 -175.5q0 -211 99 -327t278 -116q86 0 156 22t136.5 73.5t127 122t137.5 182.5h76l-178 -455q-213 -69 -496 -69z" />
    <glyph glyph-name="Egrave" unicode="&#xc8;" horiz-adv-x="1456" 
d="M-18 0l41 94l65 15q109 26 129 129l236 1101l-201 -16l49 131h852q144 0 289 53l-41 -499h-76q-15 69 -28.5 115t-35 90.5t-49 69.5t-67.5 40.5t-92 15.5h-310l-114 -538h170q99 0 156.5 48.5t107.5 182.5h76l-119 -561h-76q4 129 -33 175t-135 46h-170l-123 -577h379
q61 0 120 30t114 86t101.5 120t96.5 149h76l-211 -553q-106 53 -258 53h-919zM745 1888q8 44 38 80.5t63 36.5q25 0 83.5 -78.5t110 -167t80.5 -149.5l-24 -25l-222 117q-73 38 -96 61q-47 47 -33 125z" />
    <glyph glyph-name="Eacute" unicode="&#xc9;" horiz-adv-x="1456" 
d="M-18 0l41 94l65 15q109 26 129 129l236 1101l-201 -16l49 131h852q144 0 289 53l-41 -499h-76q-15 69 -28.5 115t-35 90.5t-49 69.5t-67.5 40.5t-92 15.5h-310l-114 -538h170q99 0 156.5 48.5t107.5 182.5h76l-119 -561h-76q4 129 -33 175t-135 46h-170l-123 -577h379
q61 0 120 30t114 86t101.5 120t96.5 149h76l-211 -553q-106 53 -258 53h-919zM793 1610q9 10 42 45t51.5 55t53 56.5t57.5 59.5t54.5 54t53.5 50.5t44.5 38t38.5 27.5t26 9q30 0 48 -34.5t10 -76.5q-7 -40 -25.5 -71t-49 -53t-54 -34t-62.5 -28l-268 -123z" />
    <glyph glyph-name="Ecircumflex" unicode="&#xca;" horiz-adv-x="1456" 
d="M-18 0l41 94l65 15q109 26 129 129l236 1101l-201 -16l49 131h852q144 0 289 53l-41 -499h-76q-15 69 -28.5 115t-35 90.5t-49 69.5t-67.5 40.5t-92 15.5h-310l-114 -538h170q99 0 156.5 48.5t107.5 182.5h76l-119 -561h-76q4 129 -33 175t-135 46h-170l-123 -577h379
q61 0 120 30t114 86t101.5 120t96.5 149h76l-211 -553q-106 53 -258 53h-919zM670 1610q120 144 240 269.5t153 125.5q23 0 65 -72t78 -153t70 -170l-29 -25l-233 201l-324 -201z" />
    <glyph glyph-name="Edieresis" unicode="&#xcb;" horiz-adv-x="1456" 
d="M-18 0l41 94l65 15q109 26 129 129l236 1101l-201 -16l49 131h852q144 0 289 53l-41 -499h-76q-15 69 -28.5 115t-35 90.5t-49 69.5t-67.5 40.5t-92 15.5h-310l-114 -538h170q99 0 156.5 48.5t107.5 182.5h76l-119 -561h-76q4 129 -33 175t-135 46h-170l-123 -577h379
q61 0 120 30t114 86t101.5 120t96.5 149h76l-211 -553q-106 53 -258 53h-919zM705 1753q0 61 49.5 107.5t111.5 46.5q44 0 72.5 -29t28.5 -72q0 -60 -49 -106.5t-109 -46.5q-47 0 -75.5 28.5t-28.5 71.5zM1036 1753q0 61 50 107.5t112 46.5q44 0 72 -29t28 -72
q0 -59 -49 -106t-108 -47q-47 0 -76 28.5t-29 71.5z" />
    <glyph glyph-name="Igrave" unicode="&#xcc;" horiz-adv-x="847" 
d="M-8 0l41 94l65 15q57 15 87.5 47t41.5 84l236 1099l-201 -16l49 131h645l-41 -94l-67 -17q-98 -25 -119 -131l-235 -1097l198 16l-49 -131h-651zM444 1888q8 44 38 80.5t63 36.5q25 0 83.5 -78.5t110 -167t80.5 -149.5l-24 -25l-222 117q-73 38 -96 61q-47 47 -33 125z
" />
    <glyph glyph-name="Iacute" unicode="&#xcd;" horiz-adv-x="847" 
d="M-8 0l41 94l65 15q57 15 87.5 47t41.5 84l236 1099l-201 -16l49 131h645l-41 -94l-67 -17q-98 -25 -119 -131l-235 -1097l198 16l-49 -131h-651zM489 1610q210 224 286 296q105 98 136 99q30 0 48 -34.5t10 -76.5q-7 -40 -25.5 -71t-49 -53t-54 -34t-62.5 -28l-268 -123z
" />
    <glyph glyph-name="Icircumflex" unicode="&#xce;" horiz-adv-x="847" 
d="M-8 0l41 94l65 15q57 15 87.5 47t41.5 84l236 1099l-201 -16l49 131h645l-41 -94l-67 -17q-98 -25 -119 -131l-235 -1097l198 16l-49 -131h-651zM369 1610q120 144 240 269.5t153 125.5q23 0 65 -72t78 -153t70 -170l-29 -25l-233 201l-324 -201z" />
    <glyph glyph-name="Idieresis" unicode="&#xcf;" horiz-adv-x="847" 
d="M-8 0l41 94l65 15q57 15 87.5 47t41.5 84l236 1099l-201 -16l49 131h645l-41 -94l-67 -17q-98 -25 -119 -131l-235 -1097l198 16l-49 -131h-651zM401 1753q0 61 50.5 107.5t111.5 46.5q44 0 72.5 -29t28.5 -72q0 -60 -49 -106.5t-109 -46.5q-46 0 -75.5 28.5t-29.5 71.5z
M733 1753q0 61 50.5 107.5t111.5 46.5q44 0 72 -29t28 -72q0 -59 -49 -106t-108 -47q-46 0 -75.5 28.5t-29.5 71.5z" />
    <glyph glyph-name="Eth" unicode="&#xd0;" horiz-adv-x="1697" 
d="M121 690l20 94h195l119 555l-203 -16l49 131h715q158 0 288.5 -41.5t217.5 -114.5t134.5 -173t47.5 -216q0 -135 -47 -268t-136 -248t-208 -203.5t-273 -139t-321 -50.5h-735l41 94l63 15q51 12 87 46t46 85l96 450h-196zM485 115h254q95 0 182 32.5t156 89t126 133
t94.5 165t58 184.5t20.5 192q0 199 -115.5 313.5t-342.5 114.5h-173l-118 -555h241l-18 -94h-242z" />
    <glyph glyph-name="Ntilde" unicode="&#xd1;" horiz-adv-x="1656" 
d="M-39 0l41 94l100 10q59 6 89 31.5t42 83.5l216 1006q-84 107 -226 188l19 41h444l643 -1026l195 911l-264 -16l49 131h585l-39 -94l-92 -10q-62 -7 -96.5 -42t-48.5 -100l-242 -1134l-141 -94l-694 1103l-207 -968l262 16l-49 -131h-586zM801 1669q60 110 145.5 193.5
t149.5 83.5q36 0 138 -63.5t130 -63.5q44 0 93 36t93 93l17 -21q-53 -115 -138 -200t-149 -85q-33 0 -77.5 29t-94.5 57.5t-96 28.5q-51 0 -195 -108z" />
    <glyph glyph-name="Ograve" unicode="&#xd2;" horiz-adv-x="1712" 
d="M758 -20q-142 0 -263.5 45.5t-206 124.5t-132 188.5t-47.5 234.5q0 134 48.5 267.5t138.5 246.5t207 200.5t264 137.5t300 50q139 0 259 -46t203.5 -125t131 -188.5t47.5 -234.5q0 -141 -48.5 -276.5t-137.5 -247t-206 -197t-261.5 -133t-296.5 -47.5zM442 606
q0 -220 106.5 -361t282.5 -141q101 0 189.5 44.5t151.5 119t109 171t68.5 201t22.5 208.5q0 219 -105 360.5t-274 141.5q-103 0 -193.5 -47t-154.5 -124t-111 -174.5t-69.5 -199.5t-22.5 -199zM868 1888q8 44 38 80.5t63 36.5q25 0 83.5 -78.5t110 -167t80.5 -149.5l-24 -25
l-222 117q-73 38 -96 61q-47 47 -33 125z" />
    <glyph glyph-name="Oacute" unicode="&#xd3;" horiz-adv-x="1712" 
d="M758 -20q-142 0 -263.5 45.5t-206 124.5t-132 188.5t-47.5 234.5q0 134 48.5 267.5t138.5 246.5t207 200.5t264 137.5t300 50q139 0 259 -46t203.5 -125t131 -188.5t47.5 -234.5q0 -141 -48.5 -276.5t-137.5 -247t-206 -197t-261.5 -133t-296.5 -47.5zM442 606
q0 -220 106.5 -361t282.5 -141q101 0 189.5 44.5t151.5 119t109 171t68.5 201t22.5 208.5q0 219 -105 360.5t-274 141.5q-103 0 -193.5 -47t-154.5 -124t-111 -174.5t-69.5 -199.5t-22.5 -199zM915 1610q210 224 286 296q105 99 136 99q30 0 48 -34.5t10 -76.5
q-7 -40 -25.5 -71t-49 -53t-54 -34t-62.5 -28l-268 -123z" />
    <glyph glyph-name="Ocircumflex" unicode="&#xd4;" horiz-adv-x="1712" 
d="M758 -20q-142 0 -263.5 45.5t-206 124.5t-132 188.5t-47.5 234.5q0 134 48.5 267.5t138.5 246.5t207 200.5t264 137.5t300 50q139 0 259 -46t203.5 -125t131 -188.5t47.5 -234.5q0 -141 -48.5 -276.5t-137.5 -247t-206 -197t-261.5 -133t-296.5 -47.5zM442 606
q0 -220 106.5 -361t282.5 -141q101 0 189.5 44.5t151.5 119t109 171t68.5 201t22.5 208.5q0 219 -105 360.5t-274 141.5q-103 0 -193.5 -47t-154.5 -124t-111 -174.5t-69.5 -199.5t-22.5 -199zM793 1610q120 144 240 269.5t153 125.5q23 0 65 -72t78 -153t70 -170l-29 -25
l-233 201l-324 -201z" />
    <glyph glyph-name="Otilde" unicode="&#xd5;" horiz-adv-x="1712" 
d="M758 -20q-142 0 -263.5 45.5t-206 124.5t-132 188.5t-47.5 234.5q0 134 48.5 267.5t138.5 246.5t207 200.5t264 137.5t300 50q139 0 259 -46t203.5 -125t131 -188.5t47.5 -234.5q0 -141 -48.5 -276.5t-137.5 -247t-206 -197t-261.5 -133t-296.5 -47.5zM442 606
q0 -220 106.5 -361t282.5 -141q101 0 189.5 44.5t151.5 119t109 171t68.5 201t22.5 208.5q0 219 -105 360.5t-274 141.5q-103 0 -193.5 -47t-154.5 -124t-111 -174.5t-69.5 -199.5t-22.5 -199zM788 1669q60 110 145.5 193.5t149.5 83.5q36 0 138.5 -63.5t130.5 -63.5
q44 0 93 36t93 93l16 -21q-53 -115 -137.5 -200t-148.5 -85q-26 0 -60.5 18t-63 39.5t-68.5 39.5t-77 18q-50 0 -194 -108z" />
    <glyph glyph-name="Odieresis" unicode="&#xd6;" horiz-adv-x="1712" 
d="M758 -20q-142 0 -263.5 45.5t-206 124.5t-132 188.5t-47.5 234.5q0 134 48.5 267.5t138.5 246.5t207 200.5t264 137.5t300 50q139 0 259 -46t203.5 -125t131 -188.5t47.5 -234.5q0 -141 -48.5 -276.5t-137.5 -247t-206 -197t-261.5 -133t-296.5 -47.5zM442 606
q0 -220 106.5 -361t282.5 -141q101 0 189.5 44.5t151.5 119t109 171t68.5 201t22.5 208.5q0 219 -105 360.5t-274 141.5q-103 0 -193.5 -47t-154.5 -124t-111 -174.5t-69.5 -199.5t-22.5 -199zM827 1753q0 61 50 107.5t112 46.5q44 0 72.5 -29t28.5 -72q0 -60 -49 -106.5
t-109 -46.5q-47 0 -76 28.5t-29 71.5zM1159 1753q0 61 50 107.5t112 46.5q44 0 72 -29t28 -72q0 -59 -49 -106t-108 -47q-47 0 -76 28.5t-29 71.5z" />
    <glyph glyph-name="multiply" unicode="&#xd7;" horiz-adv-x="909" 
d="M43 213l307 254l-196 250l106 90l199 -252l307 254l76 -96l-307 -254l196 -248l-110 -90l-195 248l-307 -252z" />
    <glyph glyph-name="Oslash" unicode="&#xd8;" horiz-adv-x="1734" 
d="M758 -20q-282 0 -467 167l-180 -147h-160l272 223q-114 148 -114 350q0 134 48.5 267.5t138.5 246.5t207 200.5t264 137.5t300 50q142 0 262 -47t207 -132l197 160h159l-290 -237q106 -147 106 -338q0 -141 -48.5 -276.5t-137.5 -247t-206 -197t-261.5 -133t-296.5 -47.5
zM442 606q0 -92 23 -186l854 698q-48 108 -133 170t-193 62q-103 0 -193.5 -47t-154.5 -124t-111 -174.5t-69.5 -199.5t-22.5 -199zM504 322q48 -102 132.5 -160t194.5 -58q101 0 189.5 44.5t151.5 119t109 171t68.5 201t22.5 208.5q0 92 -18 168z" />
    <glyph glyph-name="Ugrave" unicode="&#xd9;" horiz-adv-x="1632" 
d="M776 -20q-292 0 -438.5 131.5t-99.5 353.5l186 874l-188 -16l49 131h671l-38 -94l-95 -17q-112 -28 -141 -163l-137 -641q-38 -186 54 -292t284 -106q171 0 288.5 95.5t155.5 273.5l178 829l-225 -16l47 131h504l-39 -94l-55 -10q-57 -11 -87.5 -43t-45.5 -99l-144 -673
q-56 -264 -238 -409.5t-446 -145.5zM948 1888q8 44 38 80.5t63 36.5q25 0 83.5 -78.5t110 -167t80.5 -149.5l-25 -25l-221 117q-73 38 -96 61q-47 47 -33 125z" />
    <glyph glyph-name="Uacute" unicode="&#xda;" horiz-adv-x="1632" 
d="M776 -20q-292 0 -438.5 131.5t-99.5 353.5l186 874l-188 -16l49 131h671l-38 -94l-95 -17q-112 -28 -141 -163l-137 -641q-38 -186 54 -292t284 -106q171 0 288.5 95.5t155.5 273.5l178 829l-225 -16l47 131h504l-39 -94l-55 -10q-57 -11 -87.5 -43t-45.5 -99l-144 -673
q-56 -264 -238 -409.5t-446 -145.5zM993 1610q210 224 286 296q105 99 136 99q30 0 48 -34.5t10 -76.5q-7 -40 -25.5 -71t-49 -53t-54 -34t-62.5 -28l-268 -123z" />
    <glyph glyph-name="Ucircumflex" unicode="&#xdb;" horiz-adv-x="1632" 
d="M776 -20q-292 0 -438.5 131.5t-99.5 353.5l186 874l-188 -16l49 131h671l-38 -94l-95 -17q-112 -28 -141 -163l-137 -641q-38 -186 54 -292t284 -106q171 0 288.5 95.5t155.5 273.5l178 829l-225 -16l47 131h504l-39 -94l-55 -10q-57 -11 -87.5 -43t-45.5 -99l-144 -673
q-56 -264 -238 -409.5t-446 -145.5zM872 1610q119 142 240 268.5t154 126.5q23 0 65 -72t78 -153t70 -170l-29 -25l-233 201l-324 -201z" />
    <glyph glyph-name="Udieresis" unicode="&#xdc;" horiz-adv-x="1632" 
d="M776 -20q-292 0 -438.5 131.5t-99.5 353.5l186 874l-188 -16l49 131h671l-38 -94l-95 -17q-112 -28 -141 -163l-137 -641q-38 -186 54 -292t284 -106q171 0 288.5 95.5t155.5 273.5l178 829l-225 -16l47 131h504l-39 -94l-55 -10q-57 -11 -87.5 -43t-45.5 -99l-144 -673
q-56 -264 -238 -409.5t-446 -145.5zM905 1753q0 61 51 107.5t113 46.5q42 0 70 -29t28 -72q0 -59 -48 -106t-107 -47q-47 0 -77 28.5t-30 71.5zM1237 1753q0 61 51 107.5t113 46.5q42 0 70 -29t28 -72q0 -59 -49 -106t-107 -47q-47 0 -76.5 28.5t-29.5 71.5z" />
    <glyph glyph-name="Yacute" unicode="&#xdd;" horiz-adv-x="1550" 
d="M350 0l39 94l53 17q73 25 113.5 66t54.5 104l70 327l-295 731l-174 -16l49 131h709l-41 -94l-103 -17q-70 -10 -88.5 -42t6.5 -93l193 -469l489 600l-213 -16l50 131h514l-41 -94l-88 -14q-43 -6 -81 -34t-93 -95l-500 -609l-105 -493l230 16l-47 -131h-701zM928 1610
q210 224 286 296q105 99 136 99q30 0 47.5 -34.5t9.5 -76.5q-7 -40 -25.5 -71t-48.5 -53t-53.5 -34t-62.5 -28l-269 -123z" />
    <glyph glyph-name="Thorn" unicode="&#xde;" horiz-adv-x="1447" 
d="M-18 0l41 94l65 15q57 15 87.5 47t41.5 84l236 1099l-201 -16l49 131h645l-41 -94l-67 -17q-98 -25 -119 -131l-12 -55h198q263 0 407 -87t144 -251q0 -92 -37.5 -175t-103.5 -146t-152.5 -109t-187 -70t-203.5 -24h-250l-39 -180l199 16l-49 -131h-651zM545 399h176
q92 0 170 33.5t128.5 87.5t78.5 122t28 138q0 119 -70 190.5t-200 71.5h-174z" />
    <glyph glyph-name="germandbls" unicode="&#xdf;" horiz-adv-x="1480" 
d="M-418 -492q-42 0 -66 18t-18 50q9 60 51.5 118t79.5 58q33 0 139 -34.5t148 -34.5q86 0 132 81t79 244l180 914h-213l21 106h215q68 264 255.5 406.5t454.5 142.5q173 0 282.5 -75.5t109.5 -196.5q0 -66 -46 -125.5t-111 -102.5t-130.5 -82t-111.5 -79t-46 -78
q0 -19 12.5 -41.5t36.5 -49t46.5 -48t57 -52.5t52.5 -49q168 -168 168 -315q0 -133 -102.5 -218t-286.5 -85q-57 0 -122.5 13t-118.5 32.5t-88.5 44t-35.5 45.5q0 61 29 116.5t76 55.5q36 0 112.5 -44.5l153 -89t113.5 -44.5q20 0 33.5 13.5t13.5 35.5q0 100 -170 282
q-113 119 -140 153q-65 84 -65 155q0 49 28 99t70 90.5t91.5 87t91.5 88t70 93.5t28 103q0 73 -41.5 110t-120.5 37q-83 0 -142 -21t-98.5 -67t-63.5 -106.5t-42 -151.5l-201 -1012q-60 -306 -273.5 -448t-576.5 -142z" />
    <glyph glyph-name="agrave" unicode="&#xe0;" horiz-adv-x="1132" 
d="M236 -20q-103 0 -153 79t-50 213q0 149 47 289.5t129 248.5t201.5 173.5t255.5 65.5q71 0 176 -84l180 188h57l-209 -848q-22 -84 45 -84q58 0 175 60l-7 -107q-95 -81 -205.5 -137.5t-191.5 -56.5q-115 0 -88 139l33 184h-23q-86 -151 -183.5 -237t-188.5 -86zM307 295
q0 -37 13 -58.5t36 -21.5q78 0 185.5 159.5t173.5 413.5q-119 99 -172 99q-55 0 -112.5 -120t-90.5 -258t-33 -214zM395 1458q0 51 27.5 108.5t66.5 57.5q19 0 84.5 -89.5t148.5 -212.5t116 -163l-23 -24l-260 137q-160 80 -160 186z" />
    <glyph glyph-name="aacute" unicode="&#xe1;" horiz-adv-x="1132" 
d="M236 -20q-103 0 -153 79t-50 213q0 149 47 289.5t129 248.5t201.5 173.5t255.5 65.5q71 0 176 -84l180 188h57l-209 -848q-22 -84 45 -84q58 0 175 60l-7 -107q-95 -81 -205.5 -137.5t-191.5 -56.5q-115 0 -88 139l33 184h-23q-86 -151 -183.5 -237t-188.5 -86zM307 295
q0 -37 13 -58.5t36 -21.5q78 0 185.5 159.5t173.5 413.5q-119 99 -172 99q-55 0 -112.5 -120t-90.5 -258t-33 -214zM487 1159q125 162 265 313.5t188 151.5q37 0 55 -44.5t11 -90.5q-7 -41 -42.5 -79.5t-67.5 -58.5t-83 -48l-305 -168z" />
    <glyph glyph-name="acircumflex" unicode="&#xe2;" horiz-adv-x="1132" 
d="M236 -20q-103 0 -153 79t-50 213q0 149 47 289.5t129 248.5t201.5 173.5t255.5 65.5q71 0 176 -84l180 188h57l-209 -848q-22 -84 45 -84q58 0 175 60l-7 -107q-95 -81 -205.5 -137.5t-191.5 -56.5q-115 0 -88 139l33 184h-23q-86 -151 -183.5 -237t-188.5 -86zM307 295
q0 -37 13 -58.5t36 -21.5q78 0 185.5 159.5t173.5 413.5q-119 99 -172 99q-55 0 -112.5 -120t-90.5 -258t-33 -214zM383 1184q345 440 397 440q10 0 23.5 -16t30 -49.5t30 -63.5t33.5 -82.5t30.5 -81t30 -82.5t23.5 -65l-29 -25l-225 230l-324 -230z" />
    <glyph glyph-name="atilde" unicode="&#xe3;" horiz-adv-x="1132" 
d="M236 -20q-103 0 -153 79t-50 213q0 149 47 289.5t129 248.5t201.5 173.5t255.5 65.5q71 0 176 -84l180 188h57l-209 -848q-22 -84 45 -84q58 0 175 60l-7 -107q-95 -81 -205.5 -137.5t-191.5 -56.5q-115 0 -88 139l33 184h-23q-86 -151 -183.5 -237t-188.5 -86zM307 295
q0 -37 13 -58.5t36 -21.5q78 0 185.5 159.5t173.5 413.5q-119 99 -172 99q-55 0 -112.5 -120t-90.5 -258t-33 -214zM336 1235q66 110 154.5 191t152.5 81q36 0 138 -63.5t130 -63.5q44 0 93.5 36t93.5 93l22 -24q-52 -113 -140 -197t-153 -84q-33 0 -77.5 29t-94.5 57.5
t-96 28.5q-33 0 -93 -34t-108 -75z" />
    <glyph glyph-name="adieresis" unicode="&#xe4;" horiz-adv-x="1132" 
d="M236 -20q-103 0 -153 79t-50 213q0 149 47 289.5t129 248.5t201.5 173.5t255.5 65.5q71 0 176 -84l180 188h57l-209 -848q-22 -84 45 -84q58 0 175 60l-7 -107q-95 -81 -205.5 -137.5t-191.5 -56.5q-115 0 -88 139l33 184h-23q-86 -151 -183.5 -237t-188.5 -86zM307 295
q0 -37 13 -58.5t36 -21.5q78 0 185.5 159.5t173.5 413.5q-119 99 -172 99q-55 0 -112.5 -120t-90.5 -258t-33 -214zM391 1350q0 67 56 118.5t124 51.5q49 0 80 -31.5t31 -79.5q0 -67 -53.5 -119.5t-120.5 -52.5q-52 0 -84.5 32.5t-32.5 80.5zM760 1350q0 67 56 118.5
t124 51.5q49 0 80 -31.5t31 -79.5q0 -67 -54.5 -119.5t-119.5 -52.5q-52 0 -84.5 32.5t-32.5 80.5z" />
    <glyph glyph-name="aring" unicode="&#xe5;" horiz-adv-x="1132" 
d="M236 -20q-103 0 -153 79t-50 213q0 149 47 289.5t129 248.5t201.5 173.5t255.5 65.5q71 0 176 -84l180 188h57l-209 -848q-22 -84 45 -84q58 0 175 60l-7 -107q-95 -81 -205.5 -137.5t-191.5 -56.5q-115 0 -88 139l33 184h-23q-86 -151 -183.5 -237t-188.5 -86zM307 295
q0 -37 13 -58.5t36 -21.5q78 0 185.5 159.5t173.5 413.5q-119 99 -172 99q-55 0 -112.5 -120t-90.5 -258t-33 -214zM465 1298q0 99 85 165.5t208 66.5q96 0 152.5 -41.5t56.5 -110.5q0 -97 -87 -163t-206 -66q-96 0 -152.5 40.5t-56.5 108.5zM633 1282q0 -36 13 -58t38 -22
q34 0 62.5 37t41.5 80t13 76q0 35 -14 58.5t-39 23.5q-34 0 -62 -37t-40.5 -80.5t-12.5 -77.5z" />
    <glyph glyph-name="ae" unicode="&#xe6;" horiz-adv-x="1476" 
d="M233 -20q-103 0 -154.5 83t-51.5 218q0 158 47 299t129 244.5t200.5 164t255.5 60.5q94 0 242 -144q182 144 373 144q97 0 155 -46.5t58 -119.5q0 -232 -504 -426l-10 94q99 51 162 123t63 141q0 86 -70 86q-60 0 -118.5 -76.5t-93.5 -190.5t-35 -222q0 -207 163 -207
q86 0 177.5 50.5t173.5 137.5l24 -106q-81 -133 -213.5 -220t-287.5 -87q-146 0 -236 95.5t-90 254.5q0 100 38 204.5t107 198.5q-77 86 -125 120t-92 34q-42 0 -84 -72.5t-70.5 -171.5t-46.5 -196t-18 -152q0 -37 13 -58.5t36 -21.5q69 0 162 80l20 -102
q-72 -101 -149 -157t-150 -56z" />
    <glyph glyph-name="ccedilla" unicode="&#xe7;" horiz-adv-x="921" 
d="M152 -535q30 24 49 41t43.5 43.5t36.5 54.5t12 56q0 38 -22.5 63.5t-75.5 63.5l143 197q-133 19 -212 117t-79 245q0 93 32 193t92 190t138 162.5t177 115t202 42.5q78 0 176.5 -27.5t98.5 -60.5q0 -63 -38.5 -127t-76.5 -64q-12 0 -42.5 16.5t-63 37t-76 37t-78.5 16.5
q-68 0 -128.5 -74t-94 -176.5t-33.5 -196.5q0 -103 42.5 -160t125.5 -57q147 0 301 164l24 -107q-68 -123 -175.5 -201t-225.5 -87l-31 -70q109 -66 109 -152q0 -62 -52 -129t-126.5 -116t-151.5 -74z" />
    <glyph glyph-name="egrave" unicode="&#xe8;" horiz-adv-x="937" 
d="M526 1272q-159 80 -159 186q0 51 27.5 108.5t66.5 57.5q19 0 84.5 -89.5t148 -212.5t115.5 -163l-23 -24zM43 330q0 122 58 251.5t151 232t219.5 169t253.5 66.5q97 0 155 -46.5t58 -119.5q0 -254 -606 -465q0 -205 164 -205q87 0 178.5 47.5t171.5 132.5l24 -106
q-81 -133 -213.5 -220t-287.5 -87q-146 0 -236 95.5t-90 254.5zM344 530q142 65 219.5 130.5t77.5 146.5q0 86 -70 86q-47 0 -94.5 -58t-80.5 -138.5t-52 -166.5z" />
    <glyph glyph-name="eacute" unicode="&#xe9;" horiz-adv-x="937" 
d="M461 1159q125 163 264.5 314t187.5 151q37 0 55 -44.5t11 -90.5q-7 -41 -42.5 -79.5t-67.5 -58.5t-83 -48l-305 -168zM43 330q0 122 58 251.5t151 232t219.5 169t253.5 66.5q97 0 155 -46.5t58 -119.5q0 -254 -606 -465q0 -205 164 -205q87 0 178.5 47.5t171.5 132.5
l24 -106q-81 -133 -213.5 -220t-287.5 -87q-146 0 -236 95.5t-90 254.5zM344 530q142 65 219.5 130.5t77.5 146.5q0 86 -70 86q-47 0 -94.5 -58t-80.5 -138.5t-52 -166.5z" />
    <glyph glyph-name="ecircumflex" unicode="&#xea;" horiz-adv-x="937" 
d="M924 1159l-226 230l-323 -230l-21 25q345 440 398 440q10 0 23.5 -16t29.5 -49t30.5 -64.5t33.5 -82t30 -81t29.5 -81.5t23.5 -66zM43 330q0 122 58 251.5t151 232t219.5 169t253.5 66.5q97 0 155 -46.5t58 -119.5q0 -254 -606 -465q0 -205 164 -205q87 0 178.5 47.5
t171.5 132.5l24 -106q-81 -133 -213.5 -220t-287.5 -87q-146 0 -236 95.5t-90 254.5zM344 530q142 65 219.5 130.5t77.5 146.5q0 86 -70 86q-47 0 -94.5 -58t-80.5 -138.5t-52 -166.5z" />
    <glyph glyph-name="edieresis" unicode="&#xeb;" horiz-adv-x="937" 
d="M850 1237q-52 0 -84.5 32.5t-32.5 80.5q0 67 56 118.5t124 51.5q49 0 80 -31.5t31 -79.5q0 -67 -54.5 -119.5t-119.5 -52.5zM43 330q0 122 58 251.5t151 232t219.5 169t253.5 66.5q97 0 155 -46.5t58 -119.5q0 -254 -606 -465q0 -205 164 -205q87 0 178.5 47.5
t171.5 132.5l24 -106q-81 -133 -213.5 -220t-287.5 -87q-146 0 -236 95.5t-90 254.5zM344 530q142 65 219.5 130.5t77.5 146.5q0 86 -70 86q-47 0 -94.5 -58t-80.5 -138.5t-52 -166.5zM365 1350q0 67 56 118.5t124 51.5q49 0 79.5 -31.5t30.5 -79.5q0 -67 -53.5 -119.5
t-120.5 -52.5q-52 0 -84 32.5t-32 80.5z" />
    <glyph glyph-name="igrave" unicode="&#xec;" horiz-adv-x="739" 
d="M217 -20q-79 0 -99 53.5t17 185.5l137 471q17 56 -27.5 85.5t-156.5 10.5l-12 99q301 164 489 164q49 0 64 -22.5t-2 -90.5l-187 -633q-12 -40 0 -61t41 -21q74 0 191 60l-6 -107q-89 -76 -226.5 -135t-222.5 -59zM254 1458q0 51 27.5 108.5t66.5 57.5q19 0 84.5 -89.5
t148 -212.5t115.5 -163l-22 -24l-260 137q-160 80 -160 186z" />
    <glyph glyph-name="iacute" unicode="&#xed;" horiz-adv-x="739" 
d="M217 -20q-79 0 -99 53.5t17 185.5l137 471q17 56 -27.5 85.5t-156.5 10.5l-12 99q301 164 489 164q49 0 64 -22.5t-2 -90.5l-187 -633q-12 -40 0 -61t41 -21q74 0 191 60l-6 -107q-89 -76 -226.5 -135t-222.5 -59zM348 1159q125 162 265 313.5t188 151.5q37 0 54.5 -44
t10.5 -91q-6 -31 -25 -59.5t-50 -52.5t-55.5 -39t-61.5 -35l-305 -168z" />
    <glyph glyph-name="icircumflex" unicode="&#xee;" horiz-adv-x="739" 
d="M217 -20q-79 0 -99 53.5t17 185.5l137 471q17 56 -27.5 85.5t-156.5 10.5l-12 99q301 164 489 164q49 0 64 -22.5t-2 -90.5l-187 -633q-12 -40 0 -61t41 -21q74 0 191 60l-6 -107q-89 -76 -226.5 -135t-222.5 -59zM242 1184q345 440 397 440q10 0 23.5 -16t30 -49.5
t30 -63.5t33.5 -82.5t30.5 -81t30 -82.5t23.5 -65l-29 -25l-225 230l-324 -230z" />
    <glyph glyph-name="idieresis" unicode="&#xef;" horiz-adv-x="739" 
d="M217 -20q-79 0 -99 53.5t17 185.5l137 471q17 56 -27.5 85.5t-156.5 10.5l-12 99q301 164 489 164q49 0 64 -22.5t-2 -90.5l-187 -633q-12 -40 0 -61t41 -21q74 0 191 60l-6 -107q-89 -76 -226.5 -135t-222.5 -59zM252 1350q0 67 56 118.5t124 51.5q49 0 80 -31.5
t31 -79.5q0 -67 -53.5 -119.5t-120.5 -52.5q-52 0 -84.5 32.5t-32.5 80.5zM621 1350q0 67 56 118.5t124 51.5q49 0 79.5 -31.5t30.5 -79.5q0 -67 -54.5 -119.5t-119.5 -52.5q-52 0 -84 32.5t-32 80.5z" />
    <glyph glyph-name="eth" unicode="&#xf0;" horiz-adv-x="1132" 
d="M446 -20q-153 0 -250.5 108.5t-97.5 288.5q0 95 23 188.5t71 178.5t114.5 150t160 103.5t201.5 38.5q42 0 75 -8q-44 142 -112 240l-223 -152l-58 68l223 153q-94 101 -229 148l57 71q165 -47 301 -133l213 146l58 -68l-195 -133q147 -116 230.5 -277t83.5 -352
q0 -106 -25.5 -212.5t-79.5 -205t-129 -174.5t-182 -121.5t-230 -45.5zM383 422q0 -147 40 -230t112 -83q54 0 102.5 62t79.5 156t49 200.5t18 199.5q0 47 -2 72q-78 116 -190 116q-209 0 -209 -493z" />
    <glyph glyph-name="ntilde" unicode="&#xf1;" horiz-adv-x="1327" 
d="M70 860q105 77 236 133t239 56q48 0 61.5 -23.5t-4.5 -89.5l-131 -438h21q60 112 123 206t134.5 174t147.5 125.5t147 45.5q94 0 148.5 -56t26.5 -151l-160 -539q-25 -82 41 -82q57 0 174 60l-6 -107q-91 -78 -216 -136t-208 -58q-80 0 -101 53.5t15 185.5l155 533
q9 38 3.5 48.5t-25.5 10.5q-48 0 -153.5 -131.5t-210 -322t-144.5 -337.5l-281 -40l166 710q9 38 -2.5 58.5t-55 27.5t-128.5 -14zM512 1235q66 110 154.5 191t152.5 81q36 0 138 -63.5t130 -63.5q44 0 93.5 36t93.5 93l22 -24q-52 -113 -139.5 -197t-152.5 -84
q-26 0 -60.5 18t-63 39.5t-68.5 39.5t-77 18q-33 0 -92.5 -33.5t-107.5 -75.5z" />
    <glyph glyph-name="ograve" unicode="&#xf2;" horiz-adv-x="997" 
d="M346 -18q-143 0 -221 97.5t-78 258.5q0 116 47 242t125.5 230t192 171.5t235.5 67.5q98 0 166.5 -51.5t99.5 -134t31 -189.5q0 -119 -46 -242.5t-124 -223t-191 -163t-237 -63.5zM317 573q0 -88 26 -179t73 -153.5t100 -62.5q48 0 85 44t55 108t18 133q0 90 -26.5 179.5
t-72.5 148.5t-96 59q-41 0 -73.5 -24.5t-51 -65t-28 -88.5t-9.5 -99zM328 1458q0 51 27.5 108.5t66.5 57.5q19 0 84.5 -89.5t148 -212.5t115.5 -163l-22 -24l-261 137q-159 80 -159 186z" />
    <glyph glyph-name="oacute" unicode="&#xf3;" horiz-adv-x="997" 
d="M346 -18q-143 0 -221 97.5t-78 258.5q0 116 47 242t125.5 230t192 171.5t235.5 67.5q98 0 166.5 -51.5t99.5 -134t31 -189.5q0 -119 -46 -242.5t-124 -223t-191 -163t-237 -63.5zM317 573q0 -88 26 -179t73 -153.5t100 -62.5q48 0 85 44t55 108t18 133q0 90 -26.5 179.5
t-72.5 148.5t-96 59q-41 0 -73.5 -24.5t-51 -65t-28 -88.5t-9.5 -99zM422 1159q125 163 264.5 314t187.5 151q37 0 55 -44.5t11 -90.5q-6 -31 -25 -59.5t-50 -52.5t-55.5 -39t-61.5 -35l-306 -168z" />
    <glyph glyph-name="ocircumflex" unicode="&#xf4;" horiz-adv-x="997" 
d="M346 -18q-143 0 -221 97.5t-78 258.5q0 116 47 242t125.5 230t192 171.5t235.5 67.5q98 0 166.5 -51.5t99.5 -134t31 -189.5q0 -119 -46 -242.5t-124 -223t-191 -163t-237 -63.5zM315 1184q345 440 398 440q10 0 23.5 -16t29.5 -49t30.5 -64.5t33.5 -82t30 -81
t29.5 -81.5t23.5 -66l-28 -25l-226 230l-323 -230zM317 573q0 -88 26 -179t73 -153.5t100 -62.5q48 0 85 44t55 108t18 133q0 90 -26.5 179.5t-72.5 148.5t-96 59q-41 0 -73.5 -24.5t-51 -65t-28 -88.5t-9.5 -99z" />
    <glyph glyph-name="otilde" unicode="&#xf5;" horiz-adv-x="997" 
d="M346 -18q-143 0 -221 97.5t-78 258.5q0 116 47 242t125.5 230t192 171.5t235.5 67.5q98 0 166.5 -51.5t99.5 -134t31 -189.5q0 -119 -46 -242.5t-124 -223t-191 -163t-237 -63.5zM268 1235q66 110 154.5 191t152.5 81q36 0 138.5 -63.5t130.5 -63.5q44 0 93 36t93 93
l23 -24q-52 -113 -140 -197t-153 -84q-33 0 -77.5 29t-94.5 57.5t-96 28.5q-33 0 -93 -34t-108 -75zM317 573q0 -88 26 -179t73 -153.5t100 -62.5q48 0 85 44t55 108t18 133q0 90 -26.5 179.5t-72.5 148.5t-96 59q-41 0 -73.5 -24.5t-51 -65t-28 -88.5t-9.5 -99z" />
    <glyph glyph-name="odieresis" unicode="&#xf6;" horiz-adv-x="997" 
d="M346 -18q-143 0 -221 97.5t-78 258.5q0 116 47 242t125.5 230t192 171.5t235.5 67.5q98 0 166.5 -51.5t99.5 -134t31 -189.5q0 -119 -46 -242.5t-124 -223t-191 -163t-237 -63.5zM317 573q0 -88 26 -179t73 -153.5t100 -62.5q48 0 85 44t55 108t18 133q0 90 -26.5 179.5
t-72.5 148.5t-96 59q-41 0 -73.5 -24.5t-51 -65t-28 -88.5t-9.5 -99zM326 1350q0 67 56 118.5t124 51.5q49 0 79.5 -31.5t30.5 -79.5q0 -67 -53.5 -119.5t-120.5 -52.5q-52 0 -84 32.5t-32 80.5zM694 1350q0 67 56 118.5t124 51.5q49 0 80 -31.5t31 -79.5
q0 -67 -54.5 -119.5t-119.5 -52.5q-52 0 -84.5 32.5t-32.5 80.5z" />
    <glyph glyph-name="divide" unicode="&#xf7;" horiz-adv-x="1032" 
d="M88 440l27 127h823l-27 -127h-823zM330 166q0 53 43 94t96 41q41 0 65.5 -24.5t24.5 -63.5q0 -55 -42 -96t-95 -41q-41 0 -66.5 25.5t-25.5 64.5zM465 795q0 55 42 96t95 41q41 0 66.5 -25.5t25.5 -64.5q0 -53 -43 -94t-96 -41q-41 0 -65.5 24.5t-24.5 63.5z" />
    <glyph glyph-name="oslash" unicode="&#xf8;" horiz-adv-x="999" 
d="M346 -18q-92 0 -158 42t-102 117l-162 -141h-135l268 229q-10 58 -10 109q0 116 47 242t125.5 230t192 171.5t235.5 67.5q166 0 244 -142l141 121h133l-239 -207q18 -67 18 -147q0 -119 -46 -242.5t-124 -223t-191 -163t-237 -63.5zM317 573q0 -52 15 -133l297 254
q-29 71 -68 113.5t-82 42.5q-41 0 -73.5 -24.5t-51 -65t-28 -88.5t-9.5 -99zM358 350q29 -77 70.5 -124.5t87.5 -47.5q48 0 85 44t55 108t18 133q0 63 -17 143z" />
    <glyph glyph-name="ugrave" unicode="&#xf9;" horiz-adv-x="1290" 
d="M250 -20q-94 0 -149 56t-19 138q109 251 188 551q10 40 -1 61t-40 21q-59 0 -174 -59l6 106q92 78 215.5 136.5t206.5 58.5q78 0 102.5 -50.5t-3.5 -156.5q-68 -264 -183 -574q-7 -20 1.5 -30.5t25.5 -10.5q59 0 160.5 130t195 315t133.5 336l281 41l-178 -746
q-11 -47 0 -64.5t41 -17.5q32 0 88 16.5t108 43.5l-6 -107q-91 -78 -216 -136t-208 -58q-80 0 -101.5 53.5t15.5 185.5l88 295h-16q-56 -106 -122 -199.5t-139 -169.5t-151 -120.5t-149 -44.5zM500 1458q0 51 27.5 108.5t66.5 57.5q19 0 84.5 -89.5t148 -212.5t115.5 -163
l-22 -24l-261 137q-159 80 -159 186z" />
    <glyph glyph-name="uacute" unicode="&#xfa;" horiz-adv-x="1290" 
d="M250 -20q-94 0 -149 56t-19 138q109 251 188 551q10 40 -1 61t-40 21q-59 0 -174 -59l6 106q92 78 215.5 136.5t206.5 58.5q78 0 102.5 -50.5t-3.5 -156.5q-68 -264 -183 -574q-7 -20 1.5 -30.5t25.5 -10.5q59 0 160.5 130t195 315t133.5 336l281 41l-178 -746
q-11 -47 0 -64.5t41 -17.5q32 0 88 16.5t108 43.5l-6 -107q-91 -78 -216 -136t-208 -58q-80 0 -101.5 53.5t15.5 185.5l88 295h-16q-56 -106 -122 -199.5t-139 -169.5t-151 -120.5t-149 -44.5zM594 1159q125 162 265 313.5t188 151.5q37 0 54.5 -44t10.5 -91
q-6 -31 -25 -59.5t-50 -52.5t-55.5 -39t-61.5 -35l-306 -168z" />
    <glyph glyph-name="ucircumflex" unicode="&#xfb;" horiz-adv-x="1290" 
d="M250 -20q-94 0 -149 56t-19 138q109 251 188 551q10 40 -1 61t-40 21q-59 0 -174 -59l6 106q92 78 215.5 136.5t206.5 58.5q78 0 102.5 -50.5t-3.5 -156.5q-68 -264 -183 -574q-7 -20 1.5 -30.5t25.5 -10.5q59 0 160.5 130t195 315t133.5 336l281 41l-178 -746
q-11 -47 0 -64.5t41 -17.5q32 0 88 16.5t108 43.5l-6 -107q-91 -78 -216 -136t-208 -58q-80 0 -101.5 53.5t15.5 185.5l88 295h-16q-56 -106 -122 -199.5t-139 -169.5t-151 -120.5t-149 -44.5zM487 1184q345 440 398 440q10 0 23.5 -16t29.5 -49t30.5 -64.5t33.5 -82t30 -81
t29.5 -81.5t23.5 -66l-28 -25l-226 230l-323 -230z" />
    <glyph glyph-name="udieresis" unicode="&#xfc;" horiz-adv-x="1290" 
d="M250 -20q-94 0 -149 56t-19 138q109 251 188 551q10 40 -1 61t-40 21q-59 0 -174 -59l6 106q92 78 215.5 136.5t206.5 58.5q78 0 102.5 -50.5t-3.5 -156.5q-68 -264 -183 -574q-7 -20 1.5 -30.5t25.5 -10.5q59 0 160.5 130t195 315t133.5 336l281 41l-178 -746
q-11 -47 0 -64.5t41 -17.5q32 0 88 16.5t108 43.5l-6 -107q-91 -78 -216 -136t-208 -58q-80 0 -101.5 53.5t15.5 185.5l88 295h-16q-56 -106 -122 -199.5t-139 -169.5t-151 -120.5t-149 -44.5zM498 1350q0 67 56 118.5t124 51.5q49 0 79.5 -31.5t30.5 -79.5
q0 -67 -53.5 -119.5t-120.5 -52.5q-52 0 -84 32.5t-32 80.5zM866 1350q0 67 56.5 118.5t124.5 51.5q49 0 79.5 -31.5t30.5 -79.5q0 -67 -54.5 -119.5t-119.5 -52.5q-52 0 -84.5 32.5t-32.5 80.5z" />
    <glyph glyph-name="yacute" unicode="&#xfd;" horiz-adv-x="1120" 
d="M-233 -336q29 -2 88 -2q160 0 287 49t190 160q69 117 69 348q0 139 -33 278.5t-86.5 229.5t-109.5 90q-66 0 -141 -61l-6 106q65 68 161 127.5t164 59.5q88 0 156 -92.5t101.5 -237t33.5 -311.5q0 -76 -10 -193q84 147 149 346t84 420q1 32 20 50t50 18q36 0 88 -16
t91.5 -42t37.5 -49q-10 -106 -86 -260t-211.5 -348t-287 -387.5t-353.5 -435.5q-104 0 -227 16.5t-219 46.5v90zM526 1159q125 162 265 313.5t188 151.5q37 0 54.5 -44t10.5 -91q-6 -31 -25 -59.5t-50 -52.5t-55.5 -39t-61.5 -35l-305 -168z" />
    <glyph glyph-name="thorn" unicode="&#xfe;" horiz-adv-x="1099" 
d="M-182 -399q83 17 120.5 56.5t57.5 121.5l344 1495q12 55 -3 79t-70.5 30.5t-160.5 -7.5v99q90 43 263 72.5t319 29.5l-239 -852h16q84 151 179 237.5t185 86.5q114 0 171 -87.5t57 -228.5q0 -206 -80 -377.5t-227 -273.5t-330 -102q-37 0 -96 16l-82 -365l317 35
l-22 -137l-738 -18zM379 240q126 -99 209 -99q51 0 97.5 103t70.5 221t24 192q0 156 -65 156q-78 0 -175 -154.5t-161 -418.5z" />
    <glyph glyph-name="ydieresis" unicode="&#xff;" horiz-adv-x="1120" 
d="M-233 -336q29 -2 88 -2q160 0 287 49t190 160q69 117 69 348q0 139 -33 278.5t-86.5 229.5t-109.5 90q-66 0 -141 -61l-6 106q65 68 161 127.5t164 59.5q88 0 156 -92.5t101.5 -237t33.5 -311.5q0 -76 -10 -193q84 147 149 346t84 420q1 32 20 50t50 18q36 0 88 -16
t91.5 -42t37.5 -49q-10 -106 -86 -260t-211.5 -348t-287 -387.5t-353.5 -435.5q-104 0 -227 16.5t-219 46.5v90zM430 1350q0 67 56 118.5t124 51.5q49 0 80 -31.5t31 -79.5q0 -67 -53.5 -119.5t-120.5 -52.5q-52 0 -84.5 32.5t-32.5 80.5zM799 1350q0 67 56 118.5t124 51.5
q49 0 80 -31.5t31 -79.5q0 -67 -55 -119.5t-120 -52.5q-52 0 -84 32.5t-32 80.5z" />
    <glyph glyph-name="Amacron" unicode="&#x100;" horiz-adv-x="1650" 
d="M825 0l39 94l76 17q64 15 91.5 45t27.5 86l-2 157h-572l-243 -284l211 16l-47 -131h-525l41 94l107 17q14 3 27.5 8t23 9.5t23 15.5t20 16.5t21.5 22t20 22.5t23.5 28t23.5 29l825 957q-50 138 -250 194l19 41h520l18 -1339l201 16l-49 -131h-670zM584 514h471l-6 543z
M807 1653q7 30 43 77.5t59 47.5h584q-7 -37 -38.5 -81t-63.5 -44h-584z" />
    <glyph glyph-name="amacron" unicode="&#x101;" horiz-adv-x="1132" 
d="M236 -20q-103 0 -153 79t-50 213q0 149 47 289.5t129 248.5t201.5 173.5t255.5 65.5q71 0 176 -84l180 188h57l-209 -848q-22 -84 45 -84q58 0 175 60l-7 -107q-95 -81 -205.5 -137.5t-191.5 -56.5q-115 0 -88 139l33 184h-23q-86 -151 -183.5 -237t-188.5 -86zM307 295
q0 -37 13 -58.5t36 -21.5q78 0 185.5 159.5t173.5 413.5q-119 99 -172 99q-55 0 -112.5 -120t-90.5 -258t-33 -214zM373 1225q7 30 43 77.5t59 47.5h584q-7 -37 -39 -81t-64 -44h-583z" />
    <glyph glyph-name="Abreve" unicode="&#x102;" horiz-adv-x="1650" 
d="M825 0l39 94l76 17q64 15 91.5 45t27.5 86l-2 157h-572l-243 -284l211 16l-47 -131h-525l41 94l107 17q14 3 27.5 8t23 9.5t23 15.5t20 16.5t21.5 22t20 22.5t23.5 28t23.5 29l825 957q-50 138 -250 194l19 41h520l18 -1339l201 16l-49 -131h-670zM584 514h471l-6 543z
M920 1978l30 17q-8 -95 47 -158t156 -63t182 61t115 160l27 -17q-39 -161 -141 -276t-226 -115q-67 0 -113.5 32.5t-67 86.5t-24.5 124.5t15 147.5z" />
    <glyph glyph-name="abreve" unicode="&#x103;" horiz-adv-x="1132" 
d="M236 -20q-103 0 -153 79t-50 213q0 149 47 289.5t129 248.5t201.5 173.5t255.5 65.5q71 0 176 -84l180 188h57l-209 -848q-22 -84 45 -84q58 0 175 60l-7 -107q-95 -81 -205.5 -137.5t-191.5 -56.5q-115 0 -88 139l33 184h-23q-86 -151 -183.5 -237t-188.5 -86zM307 295
q0 -37 13 -58.5t36 -21.5q78 0 185.5 159.5t173.5 413.5q-119 99 -172 99q-55 0 -112.5 -120t-90.5 -258t-33 -214zM485 1550l31 17q-8 -95 47 -158t156 -63t182 61t115 160l26 -17q-39 -161 -140.5 -276t-225.5 -115q-88 0 -141 56t-61.5 142.5t11.5 192.5z" />
    <glyph glyph-name="Aogonek" unicode="&#x104;" horiz-adv-x="1650" 
d="M825 0l39 94l76 17q64 15 91.5 45t27.5 86l-2 157h-572l-243 -284l211 16l-47 -131h-525l41 94l107 17q14 3 27.5 8t23 9.5t23 15.5t20 16.5t21.5 22t20 22.5t23.5 28t23.5 29l825 957q-50 138 -250 194l19 41h520l18 -1339l201 16l-49 -131h-227q-72 -51 -119 -121
t-47 -106q0 -39 27 -64.5t69 -25.5q74 0 131 34l23 -26q-44 -40 -153 -105t-124 -65q-79 0 -124.5 34t-45.5 93q0 73 64 170t168 182h-312zM584 514h471l-6 543z" />
    <glyph glyph-name="aogonek" unicode="&#x105;" horiz-adv-x="1132" 
d="M236 -20q-103 0 -153 79t-50 213q0 149 47 289.5t129 248.5t201.5 173.5t255.5 65.5q71 0 176 -84l180 188h57l-209 -848q-22 -84 45 -84q58 0 175 60l-7 -107q-110 -96 -239 -154q-73 -52 -121.5 -123.5t-48.5 -107.5q0 -39 27 -64.5t69 -25.5q73 0 131 35l23 -27
q-44 -40 -153 -105t-124 -65q-79 0 -124.5 34t-45.5 93q0 66 52 152t139 166q-95 10 -70 137l33 184h-23q-86 -151 -183.5 -237t-188.5 -86zM307 295q0 -37 13 -58.5t36 -21.5q78 0 185.5 159.5t173.5 413.5q-119 99 -172 99q-55 0 -112.5 -120t-90.5 -258t-33 -214z" />
    <glyph glyph-name="Cacute" unicode="&#x106;" horiz-adv-x="1523" 
d="M768 -20q-303 0 -484.5 155.5t-181.5 411.5q0 144 49.5 282.5t140.5 254t212.5 204t274 138t315.5 49.5q254 0 473 -107l-66 -410h-76q-37 202 -132.5 297t-272.5 95q-97 0 -183 -36t-149 -98t-113 -142t-80.5 -170.5t-46.5 -181t-16 -175.5q0 -211 99 -327t278 -116
q86 0 156 22t136.5 73.5t127 122t137.5 182.5h76l-178 -455q-213 -69 -496 -69zM901 1610q210 224 286 296q105 99 136 99q30 0 47.5 -34.5t9.5 -76.5q-7 -40 -25.5 -71t-48.5 -53t-53.5 -34t-62.5 -28l-268 -123z" />
    <glyph glyph-name="cacute" unicode="&#x107;" horiz-adv-x="921" 
d="M395 -20q-157 0 -252.5 102t-95.5 264q0 93 32 193t92 190t138 162.5t177 115t202 42.5q78 0 176.5 -27.5t98.5 -60.5q0 -63 -38.5 -127t-76.5 -64q-12 0 -42.5 16.5t-63 37t-76 37t-78.5 16.5q-68 0 -128.5 -74t-94 -176.5t-33.5 -196.5q0 -103 42.5 -160t125.5 -57
q147 0 301 164l24 -107q-73 -131 -188.5 -210.5t-241.5 -79.5zM504 1159q125 163 264.5 314t187.5 151q37 0 55 -44.5t11 -90.5q-7 -41 -42.5 -79.5t-67.5 -58.5t-83 -48l-305 -168z" />
    <glyph glyph-name="Ccircumflex" unicode="&#x108;" horiz-adv-x="1523" 
d="M768 -20q-303 0 -484.5 155.5t-181.5 411.5q0 144 49.5 282.5t140.5 254t212.5 204t274 138t315.5 49.5q254 0 473 -107l-66 -410h-76q-37 202 -132.5 297t-272.5 95q-97 0 -183 -36t-149 -98t-113 -142t-80.5 -170.5t-46.5 -181t-16 -175.5q0 -211 99 -327t278 -116
q86 0 156 22t136.5 73.5t127 122t137.5 182.5h76l-178 -455q-213 -69 -496 -69zM780 1610q119 142 240 268.5t154 126.5q23 0 65 -72t77 -152.5t70 -170.5l-28 -25l-234 201l-323 -201z" />
    <glyph glyph-name="ccircumflex" unicode="&#x109;" horiz-adv-x="921" 
d="M395 -20q-157 0 -252.5 102t-95.5 264q0 93 32 193t92 190t138 162.5t177 115t202 42.5q78 0 176.5 -27.5t98.5 -60.5q0 -63 -38.5 -127t-76.5 -64q-12 0 -42.5 16.5t-63 37t-76 37t-78.5 16.5q-68 0 -128.5 -74t-94 -176.5t-33.5 -196.5q0 -103 42.5 -160t125.5 -57
q147 0 301 164l24 -107q-73 -131 -188.5 -210.5t-241.5 -79.5zM399 1184q345 440 398 440q10 0 23.5 -16t29.5 -49t30.5 -64.5t33.5 -82t30 -81t29.5 -81.5t23.5 -66l-28 -25l-226 230l-323 -230z" />
    <glyph glyph-name="Cdotaccent" unicode="&#x10a;" horiz-adv-x="1523" 
d="M768 -20q-303 0 -484.5 155.5t-181.5 411.5q0 144 49.5 282.5t140.5 254t212.5 204t274 138t315.5 49.5q254 0 473 -107l-66 -410h-76q-37 202 -132.5 297t-272.5 95q-97 0 -183 -36t-149 -98t-113 -142t-80.5 -170.5t-46.5 -181t-16 -175.5q0 -211 99 -327t278 -116
q86 0 156 22t136.5 73.5t127 122t137.5 182.5h76l-178 -455q-213 -69 -496 -69zM952 1778q4 77 71 137.5t146 60.5q64 0 101.5 -41t32.5 -102q-3 -78 -67.5 -139.5t-141.5 -61.5q-65 0 -105 42t-37 104z" />
    <glyph glyph-name="cdotaccent" unicode="&#x10b;" horiz-adv-x="921" 
d="M395 -20q-157 0 -252.5 102t-95.5 264q0 93 32 193t92 190t138 162.5t177 115t202 42.5q78 0 176.5 -27.5t98.5 -60.5q0 -63 -38.5 -127t-76.5 -64q-12 0 -42.5 16.5t-63 37t-76 37t-78.5 16.5q-68 0 -128.5 -74t-94 -176.5t-33.5 -196.5q0 -103 42.5 -160t125.5 -57
q147 0 301 164l24 -107q-73 -131 -188.5 -210.5t-241.5 -79.5zM565 1352q4 77 71 137.5t146 60.5q64 0 101 -41t32 -102q-3 -78 -67 -139.5t-141 -61.5q-65 0 -105 42t-37 104z" />
    <glyph glyph-name="Ccaron" unicode="&#x10c;" horiz-adv-x="1523" 
d="M768 -20q-303 0 -484.5 155.5t-181.5 411.5q0 144 49.5 282.5t140.5 254t212.5 204t274 138t315.5 49.5q254 0 473 -107l-66 -410h-76q-37 202 -132.5 297t-272.5 95q-97 0 -183 -36t-149 -98t-113 -142t-80.5 -170.5t-46.5 -181t-16 -175.5q0 -211 99 -327t278 -116
q86 0 156 22t136.5 73.5t127 122t137.5 182.5h76l-178 -455q-213 -69 -496 -69zM856 1980l29 25l233 -201l324 201l20 -25q-120 -144 -240 -269.5t-153 -125.5q-23 0 -65 72t-78 153t-70 170z" />
    <glyph glyph-name="ccaron" unicode="&#x10d;" horiz-adv-x="921" 
d="M395 -20q-157 0 -252.5 102t-95.5 264q0 93 32 193t92 190t138 162.5t177 115t202 42.5q78 0 176.5 -27.5t98.5 -60.5q0 -63 -38.5 -127t-76.5 -64q-12 0 -42.5 16.5t-63 37t-76 37t-78.5 16.5q-68 0 -128.5 -74t-94 -176.5t-33.5 -196.5q0 -103 42.5 -160t125.5 -57
q147 0 301 164l24 -107q-73 -131 -188.5 -210.5t-241.5 -79.5zM477 1599l27 25l227 -229l330 229l20 -25q-121 -153 -246 -296.5t-157 -143.5q-48 0 -201 440z" />
    <glyph glyph-name="Dcaron" unicode="&#x10e;" horiz-adv-x="1697" 
d="M-16 0l41 94l63 15q51 12 87 46t46 85l234 1099l-203 -16l49 131h715q158 0 288.5 -41.5t217.5 -114.5t134.5 -173t47.5 -216q0 -135 -47 -268t-136 -248t-208 -203.5t-273 -139t-321 -50.5h-735zM485 115h254q95 0 182 32.5t156 89t126 133t94.5 165t58 184.5t20.5 192
q0 199 -115.5 313.5t-342.5 114.5h-173zM799 1980l28 25l234 -201l323 201l21 -25q-120 -144 -240 -269.5t-153 -125.5q-23 0 -65 72t-78 153t-70 170z" />
    <glyph glyph-name="dcaron" unicode="&#x10f;" horiz-adv-x="1169" 
d="M252 -20q-105 0 -158 81.5t-53 214.5q0 204 78 379.5t224.5 284.5t330.5 109q46 0 112 -37l62 262q21 87 -41.5 105.5t-180.5 -2.5q-7 -1 -10 -1v99q90 43 261 72.5t315 29.5l-295 -1272q-9 -37 1.5 -60.5t41.5 -23.5q32 0 86.5 16.5t106.5 43.5l-7 -107
q-96 -82 -204.5 -138t-188.5 -56q-68 0 -103 47t-16 137l27 133h-25q-86 -147 -181 -232t-183 -85zM315 293q0 -78 43 -78q80 0 193.5 160.5t179.5 412.5q-119 99 -196 99q-42 0 -84.5 -72t-71 -171t-46.5 -196.5t-18 -154.5zM1212 1055l72 327q21 91 54.5 131.5t113.5 40.5
q44 0 70 -19.5t26 -55.5q0 -24 -16 -55t-84 -120.5t-203 -248.5h-33z" />
    <glyph glyph-name="Dcroat" unicode="&#x110;" horiz-adv-x="1697" 
d="M121 690l20 94h195l119 555l-203 -16l49 131h715q158 0 288.5 -41.5t217.5 -114.5t134.5 -173t47.5 -216q0 -135 -47 -268t-136 -248t-208 -203.5t-273 -139t-321 -50.5h-735l41 94l63 15q51 12 87 46t46 85l96 450h-196zM485 115h254q95 0 182 32.5t156 89t126 133
t94.5 165t58 184.5t20.5 192q0 199 -115.5 313.5t-342.5 114.5h-173l-118 -555h241l-18 -94h-242z" />
    <glyph glyph-name="dcroat" unicode="&#x111;" horiz-adv-x="1169" 
d="M549 1153l16 94h277l6 27q21 87 -41.5 105.5t-180.5 -2.5q-7 -1 -10 -1v99q90 43 261 72.5t315 29.5l-76 -330h158l-17 -94h-163l-197 -848q-9 -37 1.5 -60.5t41.5 -23.5q32 0 86.5 16.5t106.5 43.5l-7 -107q-96 -82 -204.5 -138t-188.5 -56q-68 0 -103 47t-16 137
l27 133h-25q-86 -147 -181 -232t-183 -85q-105 0 -158 81.5t-53 214.5q0 204 78 379.5t224.5 284.5t330.5 109q46 0 112 -37l33 141h-270zM315 293q0 -78 43 -78q80 0 193.5 160.5t179.5 412.5q-119 99 -196 99q-42 0 -84.5 -72t-71 -171t-46.5 -196.5t-18 -154.5z" />
    <glyph glyph-name="Emacron" unicode="&#x112;" horiz-adv-x="1456" 
d="M-18 0l41 94l65 15q109 26 129 129l236 1101l-201 -16l49 131h852q144 0 289 53l-41 -499h-76q-15 69 -28.5 115t-35 90.5t-49 69.5t-67.5 40.5t-92 15.5h-310l-114 -538h170q99 0 156.5 48.5t107.5 182.5h76l-119 -561h-76q4 129 -33 175t-135 46h-170l-123 -577h379
q61 0 120 30t114 86t101.5 120t96.5 149h76l-211 -553q-106 53 -258 53h-919zM666 1651q7 30 43 77.5t59 47.5h584q-7 -37 -39 -81t-64 -44h-583z" />
    <glyph glyph-name="emacron" unicode="&#x113;" horiz-adv-x="937" 
d="M344 1225q7 30 43 77.5t59 47.5h584q-7 -37 -38.5 -81t-63.5 -44h-584zM43 330q0 122 58 251.5t151 232t219.5 169t253.5 66.5q97 0 155 -46.5t58 -119.5q0 -254 -606 -465q0 -205 164 -205q87 0 178.5 47.5t171.5 132.5l24 -106q-81 -133 -213.5 -220t-287.5 -87
q-146 0 -236 95.5t-90 254.5zM344 530q142 65 219.5 130.5t77.5 146.5q0 86 -70 86q-47 0 -94.5 -58t-80.5 -138.5t-52 -166.5z" />
    <glyph glyph-name="Edotaccent" unicode="&#x116;" horiz-adv-x="1456" 
d="M-18 0l41 94l65 15q109 26 129 129l236 1101l-201 -16l49 131h852q144 0 289 53l-41 -499h-76q-15 69 -28.5 115t-35 90.5t-49 69.5t-67.5 40.5t-92 15.5h-310l-114 -538h170q99 0 156.5 48.5t107.5 182.5h76l-119 -561h-76q4 129 -33 175t-135 46h-170l-123 -577h379
q61 0 120 30t114 86t101.5 120t96.5 149h76l-211 -553q-106 53 -258 53h-919zM842 1778q4 77 71 137.5t146 60.5q64 0 101 -41t32 -102q-3 -78 -67.5 -139.5t-141.5 -61.5q-65 0 -104.5 42t-36.5 104z" />
    <glyph glyph-name="edotaccent" unicode="&#x117;" horiz-adv-x="937" 
d="M662 1206q-65 0 -105 42t-37 104q4 77 71 137.5t146 60.5q64 0 101 -41t32 -102q-3 -78 -67 -139.5t-141 -61.5zM43 330q0 122 58 251.5t151 232t219.5 169t253.5 66.5q97 0 155 -46.5t58 -119.5q0 -254 -606 -465q0 -205 164 -205q87 0 178.5 47.5t171.5 132.5l24 -106
q-81 -133 -213.5 -220t-287.5 -87q-146 0 -236 95.5t-90 254.5zM344 530q142 65 219.5 130.5t77.5 146.5q0 86 -70 86q-47 0 -94.5 -58t-80.5 -138.5t-52 -166.5z" />
    <glyph glyph-name="Eogonek" unicode="&#x118;" horiz-adv-x="1456" 
d="M-18 0l41 94l65 15q109 26 129 129l236 1101l-201 -16l49 131h852q144 0 289 53l-41 -499h-76q-15 69 -28.5 115t-35 90.5t-49 69.5t-67.5 40.5t-92 15.5h-310l-114 -538h170q99 0 156.5 48.5t107.5 182.5h76l-119 -561h-76q4 129 -33 175t-135 46h-170l-123 -577h379
q61 0 120 30t114 86t101.5 120t96.5 149h76l-211 -553q-106 53 -258 53h-8q-72 -51 -119 -121t-47 -106q0 -39 27 -64.5t69 -25.5q74 0 131 34l23 -26q-44 -40 -153 -105t-124 -65q-79 0 -124.5 34t-45.5 93q0 73 64 170t168 182h-780z" />
    <glyph glyph-name="eogonek" unicode="&#x119;" horiz-adv-x="937" 
d="M391 -455q-79 0 -124.5 34t-45.5 93q0 64 49 147.5t131 162.5q-10 -2 -32 -2q-146 0 -236 95.5t-90 254.5q0 122 58 251.5t151 232t219.5 169t253.5 66.5q97 0 155 -46.5t58 -119.5q0 -254 -606 -465q0 -205 164 -205q87 0 178.5 47.5t171.5 132.5l24 -106
q-107 -177 -278 -256q-75 -51 -124.5 -124.5t-49.5 -109.5q0 -39 27 -64.5t69 -25.5q73 0 131 35l23 -27q-44 -40 -153 -105t-124 -65zM344 530q142 65 219.5 130.5t77.5 146.5q0 86 -70 86q-47 0 -94.5 -58t-80.5 -138.5t-52 -166.5z" />
    <glyph glyph-name="Ecaron" unicode="&#x11a;" horiz-adv-x="1456" 
d="M-18 0l41 94l65 15q109 26 129 129l236 1101l-201 -16l49 131h852q144 0 289 53l-41 -499h-76q-15 69 -28.5 115t-35 90.5t-49 69.5t-67.5 40.5t-92 15.5h-310l-114 -538h170q99 0 156.5 48.5t107.5 182.5h76l-119 -561h-76q4 129 -33 175t-135 46h-170l-123 -577h379
q61 0 120 30t114 86t101.5 120t96.5 149h76l-211 -553q-106 53 -258 53h-919zM745 1980l29 25l234 -201l323 201l21 -25q-119 -142 -240 -268.5t-154 -126.5q-23 0 -65 72t-78 153t-70 170z" />
    <glyph glyph-name="ecaron" unicode="&#x11b;" horiz-adv-x="937" 
d="M635 1159q-48 0 -201 440l27 25l227 -229l330 229l20 -25q-121 -153 -246 -296.5t-157 -143.5zM43 330q0 122 58 251.5t151 232t219.5 169t253.5 66.5q97 0 155 -46.5t58 -119.5q0 -254 -606 -465q0 -205 164 -205q87 0 178.5 47.5t171.5 132.5l24 -106
q-81 -133 -213.5 -220t-287.5 -87q-146 0 -236 95.5t-90 254.5zM344 530q142 65 219.5 130.5t77.5 146.5q0 86 -70 86q-47 0 -94.5 -58t-80.5 -138.5t-52 -166.5z" />
    <glyph glyph-name="Gcircumflex" unicode="&#x11c;" horiz-adv-x="1691" 
d="M801 -20q-329 0 -515 150t-186 405q0 146 50 287t142.5 258t216.5 206t281.5 139t327.5 50q241 0 459 -62l-53 -438h-76q-64 375 -426 375q-111 0 -208.5 -48.5t-166 -129.5t-118 -185t-73.5 -215.5t-24 -220.5q0 -206 103.5 -326.5t291.5 -120.5q136 0 222.5 45.5
t107.5 141.5l82 379l-326 -17l48 119h731l-41 -92q-126 0 -148 -109l-59 -288q-4 -24 -4 -33q0 -64 86 -64l-6 -61q-228 -77 -387 -111t-332 -34zM831 1610q119 142 240 268.5t154 126.5q23 0 65 -72t78 -153t70 -170l-29 -25l-233 201l-324 -201z" />
    <glyph glyph-name="gcircumflex" unicode="&#x11d;" horiz-adv-x="1071" 
d="M410 -492q-104 0 -196.5 14.5t-171.5 45t-125 85t-46 126.5q0 49 26 92t71 73.5t100 52t118 34.5q-61 61 -61 123q0 28 70 82.5t159 99.5q-131 17 -208.5 88.5t-77.5 175.5q0 116 74 220t196 165.5t258 61.5q79 0 158 -27q172 235 422 235q36 0 36 -41q0 -70 -37.5 -140
t-84.5 -70q-133 0 -254 -31q104 -77 104 -205q0 -112 -66 -211.5t-177 -160t-238 -66.5q-10 -21 -18.5 -51t-8.5 -41q0 -17 27.5 -39.5t77.5 -38.5l245 -84q98 -33 143.5 -75t45.5 -112q0 -65 -37 -131t-105 -122.5t-177.5 -92t-241.5 -35.5zM164 -170q0 -83 99.5 -126.5
t256.5 -43.5q97 0 153 28.5t56 63.5q0 48 -92 82l-365 146q-108 -54 -108 -150zM303 1184q345 440 397 440q10 0 23.5 -16t30 -49.5t30 -63.5t33.5 -82.5t30.5 -81t30 -82.5t23.5 -65l-29 -25l-225 230l-323 -230zM350 750q0 -57 23 -122.5t69.5 -116t102.5 -50.5
q52 0 78 45t26 119q0 58 -19 123t-63 117.5t-100 52.5q-57 0 -87 -48t-30 -120z" />
    <glyph glyph-name="Gbreve" unicode="&#x11e;" horiz-adv-x="1691" 
d="M801 -20q-329 0 -515 150t-186 405q0 146 50 287t142.5 258t216.5 206t281.5 139t327.5 50q241 0 459 -62l-53 -438h-76q-64 375 -426 375q-111 0 -208.5 -48.5t-166 -129.5t-118 -185t-73.5 -215.5t-24 -220.5q0 -206 103.5 -326.5t291.5 -120.5q136 0 222.5 45.5
t107.5 141.5l82 379l-326 -17l48 119h731l-41 -92q-126 0 -148 -109l-59 -288q-4 -24 -4 -33q0 -64 86 -64l-6 -61q-228 -77 -387 -111t-332 -34zM938 1976l31 17q-8 -95 46.5 -158t155.5 -63t182 61t115 160l27 -17q-39 -161 -141 -276t-226 -115q-67 0 -113.5 32.5
t-67 86.5t-24.5 124.5t15 147.5z" />
    <glyph glyph-name="gbreve" unicode="&#x11f;" horiz-adv-x="1071" 
d="M410 -492q-104 0 -196.5 14.5t-171.5 45t-125 85t-46 126.5q0 49 26 92t71 73.5t100 52t118 34.5q-61 61 -61 123q0 28 70 82.5t159 99.5q-131 17 -208.5 88.5t-77.5 175.5q0 116 74 220t196 165.5t258 61.5q79 0 158 -27q172 235 422 235q36 0 36 -41q0 -70 -37.5 -140
t-84.5 -70q-133 0 -254 -31q104 -77 104 -205q0 -112 -66 -211.5t-177 -160t-238 -66.5q-10 -21 -18.5 -51t-8.5 -41q0 -17 27.5 -39.5t77.5 -38.5l245 -84q98 -33 143.5 -75t45.5 -112q0 -65 -37 -131t-105 -122.5t-177.5 -92t-241.5 -35.5zM164 -170q0 -83 99.5 -126.5
t256.5 -43.5q97 0 153 28.5t56 63.5q0 48 -92 82l-365 146q-108 -54 -108 -150zM350 750q0 -57 23 -122.5t69.5 -116t102.5 -50.5q52 0 78 45t26 119q0 58 -19 123t-63 117.5t-100 52.5q-57 0 -87 -48t-30 -120zM406 1550l30 17q-8 -95 47 -158t156 -63t182 61t115 160
l27 -17q-39 -161 -141 -276t-226 -115q-67 0 -113.5 32.5t-67 86.5t-24.5 124.5t15 147.5z" />
    <glyph glyph-name="Gdotaccent" unicode="&#x120;" horiz-adv-x="1691" 
d="M801 -20q-329 0 -515 150t-186 405q0 146 50 287t142.5 258t216.5 206t281.5 139t327.5 50q241 0 459 -62l-53 -438h-76q-64 375 -426 375q-111 0 -208.5 -48.5t-166 -129.5t-118 -185t-73.5 -215.5t-24 -220.5q0 -206 103.5 -326.5t291.5 -120.5q136 0 222.5 45.5
t107.5 141.5l82 379l-326 -17l48 119h731l-41 -92q-126 0 -148 -109l-59 -288q-4 -24 -4 -33q0 -64 86 -64l-6 -61q-228 -77 -387 -111t-332 -34zM1001 1778q4 77 71.5 137.5t146.5 60.5q64 0 101 -41t32 -102q-3 -78 -67.5 -139.5t-141.5 -61.5q-65 0 -105 42t-37 104z" />
    <glyph glyph-name="gdotaccent" unicode="&#x121;" horiz-adv-x="1071" 
d="M410 -492q-104 0 -196.5 14.5t-171.5 45t-125 85t-46 126.5q0 49 26 92t71 73.5t100 52t118 34.5q-61 61 -61 123q0 28 70 82.5t159 99.5q-131 17 -208.5 88.5t-77.5 175.5q0 116 74 220t196 165.5t258 61.5q79 0 158 -27q172 235 422 235q36 0 36 -41q0 -70 -37.5 -140
t-84.5 -70q-133 0 -254 -31q104 -77 104 -205q0 -112 -66 -211.5t-177 -160t-238 -66.5q-10 -21 -18.5 -51t-8.5 -41q0 -17 27.5 -39.5t77.5 -38.5l245 -84q98 -33 143.5 -75t45.5 -112q0 -65 -37 -131t-105 -122.5t-177.5 -92t-241.5 -35.5zM164 -170q0 -83 99.5 -126.5
t256.5 -43.5q97 0 153 28.5t56 63.5q0 48 -92 82l-365 146q-108 -54 -108 -150zM350 750q0 -57 23 -122.5t69.5 -116t102.5 -50.5q52 0 78 45t26 119q0 58 -19 123t-63 117.5t-100 52.5q-57 0 -87 -48t-30 -120zM469 1352q4 77 71 137.5t146 60.5q64 0 101 -41t32 -102
q-3 -78 -67.5 -139.5t-141.5 -61.5q-65 0 -104.5 42t-36.5 104z" />
    <glyph glyph-name="uni0122" unicode="&#x122;" horiz-adv-x="1691" 
d="M801 -20q-329 0 -515 150t-186 405q0 146 50 287t142.5 258t216.5 206t281.5 139t327.5 50q241 0 459 -62l-53 -438h-76q-64 375 -426 375q-111 0 -208.5 -48.5t-166 -129.5t-118 -185t-73.5 -215.5t-24 -220.5q0 -206 103.5 -326.5t291.5 -120.5q136 0 222.5 45.5
t107.5 141.5l82 379l-326 -17l48 119h731l-41 -92q-126 0 -148 -109l-59 -288q-4 -24 -4 -33q0 -64 86 -64l-6 -61q-228 -77 -387 -111t-332 -34zM561 -618q146 131 146 235q0 32 -16.5 54.5t-35.5 32.5t-34.5 25t-14.5 33q3 52 56 97t118 45q64 0 99.5 -36t35.5 -97
t-29.5 -122.5t-80.5 -115t-104.5 -95.5t-116.5 -81z" />
    <glyph glyph-name="uni0123" unicode="&#x123;" horiz-adv-x="1071" 
d="M410 -492q-104 0 -196.5 14.5t-171.5 45t-125 85t-46 126.5q0 49 26 92t71 73.5t100 52t118 34.5q-61 61 -61 123q0 28 70 82.5t159 99.5q-131 17 -208.5 88.5t-77.5 175.5q0 116 74 220t196 165.5t258 61.5q79 0 158 -27q172 235 422 235q36 0 36 -41q0 -70 -37.5 -140
t-84.5 -70q-133 0 -254 -31q104 -77 104 -205q0 -112 -66 -211.5t-177 -160t-238 -66.5q-10 -21 -18.5 -51t-8.5 -41q0 -17 27.5 -39.5t77.5 -38.5l245 -84q98 -33 143.5 -75t45.5 -112q0 -65 -37 -131t-105 -122.5t-177.5 -92t-241.5 -35.5zM164 -170q0 -83 99.5 -126.5
t256.5 -43.5q97 0 153 28.5t56 63.5q0 48 -92 82l-365 146q-108 -54 -108 -150zM350 750q0 -57 23 -122.5t69.5 -116t102.5 -50.5q52 0 78 45t26 119q0 58 -19 123t-63 117.5t-100 52.5q-57 0 -87 -48t-30 -120zM477 1282q0 61 29.5 122.5t80.5 115t105 95.5t117 81l22 -25
q-145 -130 -145 -235q0 -32 16 -54.5t35.5 -33t34.5 -25.5t14 -33q-3 -52 -56 -96.5t-118 -44.5q-64 0 -99.5 36t-35.5 97z" />
    <glyph glyph-name="Hcircumflex" unicode="&#x124;" horiz-adv-x="1835" 
d="M993 0l41 94l72 15q96 23 121 137l92 432h-717l-119 -563l199 16l-49 -131h-651l41 94l65 15q57 15 88 47.5t43 89.5l232 1093l-199 -16l49 131h643l-41 -94l-67 -17q-51 -13 -80 -47t-41 -92l-88 -411h716l115 546l-198 -16l49 131h643l-41 -94l-68 -17
q-99 -25 -123 -139l-229 -1089l199 16l-50 -131h-647zM842 1610q120 144 240 269.5t153 125.5q23 0 65 -72t78 -153t70 -170l-29 -25l-233 201l-324 -201z" />
    <glyph glyph-name="hcircumflex" unicode="&#x125;" horiz-adv-x="1277" 
d="M346 1276q19 78 -30 97.5t-210 2.5v99q89 43 264 72.5t320 29.5l-280 -1092h20q61 113 127 210t141 178.5t155 128.5t155 47q85 0 136 -56.5t23 -150.5l-161 -539q-13 -46 -0.5 -64t43.5 -18q57 0 174 60l-6 -107q-91 -78 -216 -136t-208 -58q-80 0 -101 53.5t15 185.5
l155 533q8 38 2.5 48.5t-24.5 10.5q-49 0 -156.5 -131.5t-213.5 -322t-146 -337.5l-281 -40zM201 1653q345 440 397 440q10 0 23.5 -16t30 -49.5t30 -63.5t33.5 -82.5t30.5 -81t30 -82.5t23.5 -65l-29 -25l-225 230l-324 -230z" />
    <glyph glyph-name="Hbar" unicode="&#x126;" horiz-adv-x="1857" 
d="M213 1018l20 94h183l47 227l-199 -16l49 131h643l-41 -94l-67 -17q-51 -13 -80 -47t-41 -92l-20 -92h716l47 227l-198 -16l49 131h643l-41 -94l-68 -17q-98 -25 -122 -139l-19 -92h180l-18 -94h-182l-191 -903l199 16l-49 -131h-647l41 94l71 15q96 23 121 137l92 432
h-717l-118 -563l198 16l-49 -131h-651l41 94l65 15q57 15 88 47.5t43 89.5l164 772h-182zM639 793h717l47 225h-715z" />
    <glyph glyph-name="hbar" unicode="&#x127;" horiz-adv-x="1277" 
d="M166 1153l16 94h158l6 29q19 78 -30 97.5t-210 2.5v99q89 43 264 72.5t320 29.5l-84 -330h285l-17 -94h-292l-172 -668h20q61 113 127 210t141 178.5t155 128.5t155 47q85 0 136 -56.5t23 -150.5l-161 -539q-13 -46 -0.5 -64t43.5 -18q57 0 174 60l-6 -107
q-91 -78 -216 -136t-208 -58q-80 0 -101 53.5t15 185.5l155 533q8 38 2.5 48.5t-24.5 10.5q-49 0 -156.5 -131.5t-213.5 -322t-146 -337.5l-281 -40l274 1173h-151z" />
    <glyph glyph-name="Itilde" unicode="&#x128;" horiz-adv-x="847" 
d="M-8 0l41 94l65 15q57 15 87.5 47t41.5 84l236 1099l-201 -16l49 131h645l-41 -94l-67 -17q-98 -25 -119 -131l-235 -1097l198 16l-49 -131h-651zM362 1669q60 110 145.5 193.5t149.5 83.5q36 0 138.5 -63.5t130.5 -63.5q44 0 93 36t93 93l16 -21q-53 -115 -137.5 -200
t-148.5 -85q-26 0 -60.5 18t-63 39.5t-68.5 39.5t-77 18q-50 0 -194 -108z" />
    <glyph glyph-name="itilde" unicode="&#x129;" horiz-adv-x="739" 
d="M217 -20q-79 0 -99 53.5t17 185.5l137 471q17 56 -27.5 85.5t-156.5 10.5l-12 99q301 164 489 164q49 0 64 -22.5t-2 -90.5l-187 -633q-12 -40 0 -61t41 -21q74 0 191 60l-6 -107q-89 -76 -226.5 -135t-222.5 -59zM195 1235q66 110 154.5 191t152.5 81q36 0 138 -63.5
t130 -63.5q44 0 93 36t93 93l23 -24q-52 -113 -140 -197t-153 -84q-33 0 -77.5 29t-94.5 57.5t-96 28.5q-33 0 -93 -34t-108 -75z" />
    <glyph glyph-name="Imacron" unicode="&#x12a;" horiz-adv-x="847" 
d="M-8 0l41 94l65 15q57 15 87.5 47t41.5 84l236 1099l-201 -16l49 131h645l-41 -94l-67 -17q-98 -25 -119 -131l-235 -1097l198 16l-49 -131h-651zM362 1651q7 30 43.5 77.5t59.5 47.5h584q-7 -37 -39 -81t-64 -44h-584z" />
    <glyph glyph-name="imacron" unicode="&#x12b;" horiz-adv-x="739" 
d="M217 -20q-79 0 -99 53.5t17 185.5l137 471q17 56 -27.5 85.5t-156.5 10.5l-12 99q301 164 489 164q49 0 64 -22.5t-2 -90.5l-187 -633q-12 -40 0 -61t41 -21q74 0 191 60l-6 -107q-89 -76 -226.5 -135t-222.5 -59zM231 1225q7 30 43.5 77.5t59.5 47.5h584q-7 -37 -39 -81
t-64 -44h-584z" />
    <glyph glyph-name="Iogonek" unicode="&#x12e;" horiz-adv-x="847" 
d="M-8 0l41 94l65 15q57 15 87.5 47t41.5 84l236 1099l-201 -16l49 131h645l-41 -94l-67 -17q-98 -25 -119 -131l-235 -1097l198 16l-49 -131h-221q-72 -51 -119 -121t-47 -106q0 -39 27 -64.5t69 -25.5q74 0 131 34l23 -26q-44 -40 -153 -105t-124 -65q-79 0 -124.5 34
t-45.5 93q0 73 64 170t168 182h-299z" />
    <glyph glyph-name="iogonek" unicode="&#x12f;" horiz-adv-x="739" 
d="M217 -20q-79 0 -99 53.5t17 185.5l137 471q17 56 -27.5 85.5t-156.5 10.5l-12 99q301 164 489 164q49 0 64 -22.5t-2 -90.5l-187 -633q-12 -40 0 -61t41 -21q74 0 191 60l-6 -107q-76 -67 -213 -129q-83 -51 -139 -129.5t-56 -118.5q0 -39 27 -64.5t69 -25.5q73 0 131 35
l23 -27q-44 -40 -153 -105t-124 -65q-79 0 -124.5 34t-45.5 93q0 64 49 147.5t132 162.5q-8 -2 -25 -2zM408 1352q4 77 71 137.5t146 60.5q64 0 101 -41t32 -102q-3 -78 -67.5 -139.5t-141.5 -61.5q-65 0 -104.5 42t-36.5 104z" />
    <glyph glyph-name="Idotaccent" unicode="&#x130;" horiz-adv-x="847" 
d="M-8 0l41 94l65 15q57 15 87.5 47t41.5 84l236 1099l-201 -16l49 131h645l-41 -94l-67 -17q-98 -25 -119 -131l-235 -1097l198 16l-49 -131h-651zM539 1778q4 77 71 137.5t146 60.5q64 0 101 -41t32 -102q-3 -78 -67.5 -139.5t-141.5 -61.5q-65 0 -104.5 42t-36.5 104z
" />
    <glyph glyph-name="dotlessi" unicode="&#x131;" horiz-adv-x="739" 
d="M217 -20q-79 0 -99 53.5t17 185.5l137 471q17 56 -27.5 85.5t-156.5 10.5l-12 99q301 164 489 164q49 0 64 -22.5t-2 -90.5l-187 -633q-12 -40 0 -61t41 -21q74 0 191 60l-6 -107q-89 -76 -226.5 -135t-222.5 -59z" />
    <glyph glyph-name="IJ" unicode="&#x132;" horiz-adv-x="1533" 
d="M-8 0l41 94l65 15q57 15 87.5 47t41.5 84l236 1099l-201 -16l49 131h645l-41 -94l-67 -17q-98 -25 -119 -131l-235 -1097l198 16l-49 -131h-651zM557 -406q107 74 194 164.5t159 220t102 275.5l231 1085l-256 -16l47 131h709l-39 -94l-82 -19q-43 -9 -74 -45t-41 -90
l-194 -913q-32 -152 -92.5 -278.5t-134 -212.5t-160.5 -147.5t-171 -91t-167 -34.5z" />
    <glyph glyph-name="ij" unicode="&#x133;" horiz-adv-x="1433" 
d="M217 -20q-79 0 -99 53.5t17 185.5l137 471q17 56 -27.5 85.5t-156.5 10.5l-12 99q301 164 489 164q49 0 64 -22.5t-2 -90.5l-187 -633q-12 -40 0 -61t41 -21q74 0 191 60l-6 -107q-89 -76 -226.5 -135t-222.5 -59zM281 -424q0 61 39 129t77 68q39 0 143 -40t144 -40
q33 0 58.5 14.5t44 37t35.5 65t28.5 83t26.5 105.5l159 692q14 69 -27.5 92.5t-160.5 3.5l-12 99q62 34 106 56t110.5 50.5t129 43t118.5 14.5q47 0 62 -24t0 -89l-178 -803q-69 -316 -261.5 -470.5t-547.5 -154.5q-47 0 -70.5 20t-23.5 48zM408 1352q4 77 71 137.5
t146 60.5q64 0 101 -41t32 -102q-3 -78 -67.5 -139.5t-141.5 -61.5q-65 0 -104.5 42t-36.5 104zM1141 1352q4 77 71 137.5t146 60.5q64 0 101 -41t32 -102q-3 -78 -67.5 -139.5t-141.5 -61.5q-65 0 -104.5 42t-36.5 104z" />
    <glyph glyph-name="Jcircumflex" unicode="&#x134;" horiz-adv-x="684" 
d="M-291 -406q107 74 194 164.5t159 220t102 275.5l231 1085l-256 -16l47 131h709l-39 -94l-82 -19q-43 -9 -74 -45t-41 -90l-194 -913q-32 -152 -92.5 -278.5t-134 -212.5t-160.5 -147.5t-171 -91t-167 -34.5zM285 1610q120 144 240 269.5t153 125.5q23 0 65 -72t78 -153
t70 -170l-29 -25l-233 201l-324 -201z" />
    <glyph glyph-name="jcircumflex" unicode="&#x135;" horiz-adv-x="708" 
d="M-350 -492q-47 0 -70.5 20t-23.5 48q0 61 39 129t77 68q39 0 143 -40t144 -40q33 0 58.5 14.5t44 37t35.5 65t28.5 83t26.5 105.5l159 692q14 69 -27.5 92.5t-160.5 3.5l-12 99q62 34 106 56t110.5 50.5t129 43t118.5 14.5q47 0 62 -24t0 -89l-178 -803
q-69 -316 -261.5 -470.5t-547.5 -154.5zM250 1184q345 440 397 440q10 0 23.5 -16t30 -49.5t30 -63.5t33.5 -82.5t30.5 -81t30 -82.5t23.5 -65l-29 -25l-225 230l-324 -230z" />
    <glyph glyph-name="uni0136" unicode="&#x136;" horiz-adv-x="1687" 
d="M1534 -20q-244 0 -375 48.5t-198 166.5l-277 467l8 30l776 643l-243 -12l47 131h579l-39 -94q-110 -12 -177.5 -46t-141.5 -95l-543 -451l293 -461q73 -114 135.5 -174.5t175.5 -112.5zM-16 0l41 94l65 15q51 12 85 47.5t46 89.5l232 1093l-201 -16l49 131h643l-39 -94
l-67 -17q-98 -25 -119 -131l-234 -1097l179 16l-50 -131h-630zM555 -618q145 130 145 235q0 32 -16 54.5t-35.5 32.5t-34.5 25t-14 33q3 52 56 97t118 45q64 0 99.5 -36t35.5 -97t-29.5 -122.5t-80.5 -115t-104.5 -95.5t-116.5 -81z" />
    <glyph glyph-name="uni0137" unicode="&#x137;" horiz-adv-x="1187" 
d="M750 -20q-66 0 -103.5 58.5t-60.5 176.5l-41 219q-163 -184 -213 -407l-2 -7l-279 -40l299 1318q12 54 -4 78.5t-72 31.5t-161 -7v98q90 43 260.5 73t314.5 30l-258 -1141q153 244 346 416t340 172q27 0 44.5 -14.5t17.5 -39.5q0 -48 -29 -130t-70 -95
q-229 -72 -401 -211l90 -197q26 -57 68.5 -87.5t91.5 -30.5q73 0 176 53l6 -107q-91 -91 -189.5 -150.5t-170.5 -59.5zM246 -618q145 130 145 235q0 32 -16 54.5t-35.5 32.5t-34.5 25t-14 33q3 52 56 97t118 45q64 0 99.5 -36t35.5 -97t-29.5 -122.5t-80.5 -115t-105 -95.5
t-117 -81z" />
    <glyph glyph-name="kgreenlandic" unicode="&#x138;" horiz-adv-x="1239" 
d="M268 690q9 38 -2.5 58.5t-55 27.5t-128.5 -14l-12 98q105 77 236 133t239 56q47 0 60.5 -23.5t-3.5 -89.5l-131 -455h21l-3 -4q153 239 342.5 405.5t333.5 166.5q29 0 46.5 -14t17.5 -40q0 -48 -30 -130t-71 -95q-225 -71 -399 -211l92 -205q26 -51 68.5 -80.5
t89.5 -29.5q73 0 176 53l6 -107q-91 -91 -189.5 -150.5t-170.5 -59.5q-66 0 -103.5 58.5t-60.5 176.5l-41 219q-136 -151 -197 -344l-16 -70l-281 -40z" />
    <glyph glyph-name="Lacute" unicode="&#x139;" horiz-adv-x="1277" 
d="M-18 0l41 94l65 15q52 12 85 46t44 85l236 1099l-201 -16l49 131h705l-39 -94l-121 -17q-58 -8 -86 -36.5t-45 -102.5l-256 -1204h-477zM459 0l24 115h244q110 0 224.5 107t215.5 278h76l-211 -553q-112 53 -258 53h-315zM494 1585q125 163 264.5 314t187.5 151
q37 0 55 -44.5t11 -90.5q-7 -41 -42.5 -79.5t-67.5 -58.5t-83 -48l-305 -168z" />
    <glyph glyph-name="lacute" unicode="&#x13a;" horiz-adv-x="690" 
d="M340 1274q19 79 -27.5 99t-206.5 3v99q90 43 262.5 72.5t317.5 29.5l-303 -1274q-11 -47 0 -64.5t41 -17.5q69 0 186 60l-6 -107q-90 -77 -221 -135.5t-215 -58.5q-78 0 -94.5 52t16.5 187zM332 1640q125 163 264.5 314t187.5 151q37 0 55 -44.5t11 -90.5
q-7 -41 -42.5 -79.5t-67.5 -58.5t-83 -48l-305 -168z" />
    <glyph glyph-name="uni013B" unicode="&#x13b;" horiz-adv-x="1277" 
d="M-18 0l41 94l65 15q52 12 85 46t44 85l236 1099l-201 -16l49 131h705l-39 -94l-121 -17q-58 -8 -86 -36.5t-45 -102.5l-256 -1204h-477zM362 -618q146 131 146 235q0 32 -16 54.5t-35.5 32.5t-34.5 25t-14 33q3 52 56 97t118 45q64 0 99.5 -36t35.5 -97t-29.5 -122.5
t-80.5 -115t-105 -95.5t-117 -81zM459 0l24 115h244q110 0 224.5 107t215.5 278h76l-211 -553q-112 53 -258 53h-315z" />
    <glyph glyph-name="uni013C" unicode="&#x13c;" horiz-adv-x="690" 
d="M340 1274q19 79 -27.5 99t-206.5 3v99q90 43 262.5 72.5t317.5 29.5l-303 -1274q-11 -47 0 -64.5t41 -17.5q69 0 186 60l-6 -107q-90 -77 -221 -135.5t-215 -58.5q-78 0 -94.5 52t16.5 187zM-18 -618q145 130 145 235q0 32 -16 54.5t-35.5 32.5t-34.5 25t-14 33
q3 52 56 97t118 45q64 0 99.5 -36t35.5 -97t-29.5 -122.5t-80.5 -115t-105 -95.5t-117 -81z" />
    <glyph glyph-name="Lcaron" unicode="&#x13d;" horiz-adv-x="1277" 
d="M-18 0l41 94l65 15q52 12 85 46t44 85l236 1099l-201 -16l49 131h705l-39 -94l-121 -17q-58 -8 -86 -36.5t-45 -102.5l-256 -1204h-477zM459 0l24 115h244q110 0 224.5 107t215.5 278h76l-211 -553q-112 53 -258 53h-315zM1118 954l72 328q21 91 54.5 131.5t113.5 40.5
q44 0 70 -20t26 -56q0 -24 -16 -55t-84 -120.5t-203 -248.5h-33z" />
    <glyph glyph-name="lcaron" unicode="&#x13e;" horiz-adv-x="690" 
d="M340 1274q19 79 -27.5 99t-206.5 3v99q90 43 262.5 72.5t317.5 29.5l-303 -1274q-11 -47 0 -64.5t41 -17.5q69 0 186 60l-6 -107q-90 -77 -221 -135.5t-215 -58.5q-78 0 -94.5 52t16.5 187zM700 1055l72 327q21 91 54.5 131.5t113.5 40.5q44 0 70 -19.5t26 -55.5
q0 -24 -16 -55t-84 -120.5t-203 -248.5h-33z" />
    <glyph glyph-name="Lslash" unicode="&#x141;" horiz-adv-x="1277" 
d="M-18 0l41 94l65 15q52 12 85 46t44 85l80 374l-197 -59l23 100l196 60l134 624l-201 -16l49 131h705l-39 -94l-121 -17q-58 -8 -86 -36.5t-45 -102.5l-84 -393l362 111l-22 -101l-361 -110l-151 -711h-477zM459 0l24 115h244q110 0 224.5 107t215.5 278h76l-211 -553
q-112 53 -258 53h-315z" />
    <glyph glyph-name="lslash" unicode="&#x142;" horiz-adv-x="690" 
d="M340 1274q19 79 -27.5 99t-206.5 3v99q90 43 262.5 72.5t317.5 29.5l-172 -725l174 70l-20 -107l-181 -72l-104 -440q-11 -47 0 -64.5t41 -17.5q69 0 186 60l-6 -107q-90 -77 -221 -135.5t-215 -58.5q-78 0 -94.5 52t16.5 187l96 404l-182 -74l21 106l186 76z" />
    <glyph glyph-name="Nacute" unicode="&#x143;" horiz-adv-x="1656" 
d="M-39 0l41 94l100 10q59 6 89 31.5t42 83.5l216 1006q-84 107 -226 188l19 41h444l643 -1026l195 911l-264 -16l49 131h585l-39 -94l-92 -10q-62 -7 -96.5 -42t-48.5 -100l-242 -1134l-141 -94l-694 1103l-207 -968l262 16l-49 -131h-586zM928 1610q210 224 286 296
q105 99 136 99q30 0 47.5 -34.5t9.5 -76.5q-7 -40 -25.5 -71t-48.5 -53t-53.5 -34t-62.5 -28l-269 -123z" />
    <glyph glyph-name="nacute" unicode="&#x144;" horiz-adv-x="1327" 
d="M70 860q105 77 236 133t239 56q48 0 61.5 -23.5t-4.5 -89.5l-131 -438h21q60 112 123 206t134.5 174t147.5 125.5t147 45.5q94 0 148.5 -56t26.5 -151l-160 -539q-25 -82 41 -82q57 0 174 60l-6 -107q-91 -78 -216 -136t-208 -58q-80 0 -101 53.5t15 185.5l155 533
q9 38 3.5 48.5t-25.5 10.5q-48 0 -153.5 -131.5t-210 -322t-144.5 -337.5l-281 -40l166 710q9 38 -2.5 58.5t-55 27.5t-128.5 -14zM664 1159q125 163 264.5 314t187.5 151q37 0 55 -44.5t11 -90.5q-7 -41 -42.5 -79.5t-67.5 -58.5t-83 -48l-305 -168z" />
    <glyph glyph-name="uni0145" unicode="&#x145;" horiz-adv-x="1656" 
d="M-39 0l41 94l100 10q59 6 89 31.5t42 83.5l216 1006q-84 107 -226 188l19 41h444l643 -1026l195 911l-264 -16l49 131h585l-39 -94l-92 -10q-62 -7 -96.5 -42t-48.5 -100l-242 -1134l-141 -94l-694 1103l-207 -968l262 16l-49 -131h-586zM592 -618q145 130 145 235
q0 32 -16 54.5t-35.5 32.5t-34.5 25t-14 33q3 52 56 97t118 45q64 0 99.5 -36t35.5 -97t-29.5 -122.5t-80.5 -115t-105 -95.5t-117 -81z" />
    <glyph glyph-name="uni0146" unicode="&#x146;" horiz-adv-x="1327" 
d="M70 860q105 77 236 133t239 56q48 0 61.5 -23.5t-4.5 -89.5l-131 -438h21q60 112 123 206t134.5 174t147.5 125.5t147 45.5q94 0 148.5 -56t26.5 -151l-160 -539q-25 -82 41 -82q57 0 174 60l-6 -107q-91 -78 -216 -136t-208 -58q-80 0 -101 53.5t15 185.5l155 533
q9 38 3.5 48.5t-25.5 10.5q-48 0 -153.5 -131.5t-210 -322t-144.5 -337.5l-281 -40l166 710q9 38 -2.5 58.5t-55 27.5t-128.5 -14zM309 -618q146 131 146 235q0 32 -16.5 54.5t-35.5 32.5t-34.5 25t-14.5 33q3 52 56 97t118 45q64 0 100 -36t36 -97t-29.5 -122.5t-80.5 -115
t-105 -95.5t-117 -81z" />
    <glyph glyph-name="Ncaron" unicode="&#x147;" horiz-adv-x="1656" 
d="M-39 0l41 94l100 10q59 6 89 31.5t42 83.5l216 1006q-84 107 -226 188l19 41h444l643 -1026l195 911l-264 -16l49 131h585l-39 -94l-92 -10q-62 -7 -96.5 -42t-48.5 -100l-242 -1134l-141 -94l-694 1103l-207 -968l262 16l-49 -131h-586zM881 1980l28 25l234 -201
l323 201l21 -25q-120 -144 -240 -269.5t-153 -125.5q-23 0 -65 72t-78 153t-70 170z" />
    <glyph glyph-name="ncaron" unicode="&#x148;" horiz-adv-x="1327" 
d="M70 860q105 77 236 133t239 56q48 0 61.5 -23.5t-4.5 -89.5l-131 -438h21q60 112 123 206t134.5 174t147.5 125.5t147 45.5q94 0 148.5 -56t26.5 -151l-160 -539q-25 -82 41 -82q57 0 174 60l-6 -107q-91 -78 -216 -136t-208 -58q-80 0 -101 53.5t15 185.5l155 533
q9 38 3.5 48.5t-25.5 10.5q-48 0 -153.5 -131.5t-210 -322t-144.5 -337.5l-281 -40l166 710q9 38 -2.5 58.5t-55 27.5t-128.5 -14zM637 1599l27 25l227 -229l330 229l20 -25q-121 -153 -246 -296.5t-157 -143.5q-48 0 -201 440z" />
    <glyph glyph-name="Eng" unicode="&#x14a;" horiz-adv-x="1656" 
d="M840 -406q129 53 232 152.5t157 241.5l-688 1095l-207 -968l262 16l-49 -131h-586l41 94l100 10q59 6 89 31.5t42 83.5l216 1006q-89 110 -226 188l19 41h444l643 -1026l195 911l-264 -16l49 131h585l-39 -94l-92 -10q-62 -7 -96.5 -42t-48.5 -100l-242 -1134
q-31 -149 -115 -268.5t-184.5 -186t-206.5 -90.5z" />
    <glyph glyph-name="eng" unicode="&#x14b;" horiz-adv-x="1261" 
d="M197 -492q-46 0 -70.5 20.5t-24.5 47.5q0 61 39.5 129t77.5 68q40 0 144 -40t145 -40q31 0 55.5 13t42.5 38.5t33 61.5t28.5 82.5t28.5 100.5q1 6 2 9l209 754q8 38 2.5 48.5t-22.5 10.5q-49 0 -156.5 -131.5t-213 -322t-144.5 -337.5l-281 -40l164 710q8 27 2 46.5
t-24 30.5t-59.5 10t-104.5 -15l-13 98q105 77 236 133t239 56q48 0 63 -23.5t-3 -89.5l-131 -438h20q60 112 124.5 206t136.5 174t148.5 125.5t147.5 45.5q94 0 147 -56t27 -151l-196 -709q-43 -157 -107 -270t-161.5 -194t-234 -121t-316.5 -40z" />
    <glyph glyph-name="Omacron" unicode="&#x14c;" horiz-adv-x="1712" 
d="M758 -20q-142 0 -263.5 45.5t-206 124.5t-132 188.5t-47.5 234.5q0 134 48.5 267.5t138.5 246.5t207 200.5t264 137.5t300 50q139 0 259 -46t203.5 -125t131 -188.5t47.5 -234.5q0 -141 -48.5 -276.5t-137.5 -247t-206 -197t-261.5 -133t-296.5 -47.5zM442 606
q0 -220 106.5 -361t282.5 -141q101 0 189.5 44.5t151.5 119t109 171t68.5 201t22.5 208.5q0 219 -105 360.5t-274 141.5q-103 0 -193.5 -47t-154.5 -124t-111 -174.5t-69.5 -199.5t-22.5 -199zM788 1651q7 30 43.5 77.5t59.5 47.5h584q-7 -37 -39 -81t-64 -44h-584z" />
    <glyph glyph-name="omacron" unicode="&#x14d;" horiz-adv-x="997" 
d="M346 -18q-143 0 -221 97.5t-78 258.5q0 116 47 242t125.5 230t192 171.5t235.5 67.5q98 0 166.5 -51.5t99.5 -134t31 -189.5q0 -119 -46 -242.5t-124 -223t-191 -163t-237 -63.5zM305 1225q7 30 43.5 77.5t59.5 47.5h583q-7 -37 -38.5 -81t-63.5 -44h-584zM317 573
q0 -88 26 -179t73 -153.5t100 -62.5q48 0 85 44t55 108t18 133q0 90 -26.5 179.5t-72.5 148.5t-96 59q-41 0 -73.5 -24.5t-51 -65t-28 -88.5t-9.5 -99z" />
    <glyph glyph-name="Ohungarumlaut" unicode="&#x150;" horiz-adv-x="1712" 
d="M758 -20q-142 0 -263.5 45.5t-206 124.5t-132 188.5t-47.5 234.5q0 134 48.5 267.5t138.5 246.5t207 200.5t264 137.5t300 50q139 0 259 -46t203.5 -125t131 -188.5t47.5 -234.5q0 -141 -48.5 -276.5t-137.5 -247t-206 -197t-261.5 -133t-296.5 -47.5zM442 606
q0 -220 106.5 -361t282.5 -141q101 0 189.5 44.5t151.5 119t109 171t68.5 201t22.5 208.5q0 219 -105 360.5t-274 141.5q-103 0 -193.5 -47t-154.5 -124t-111 -174.5t-69.5 -199.5t-22.5 -199zM887 1628q243 422 317 422q32 0 55.5 -33t18.5 -59q-14 -60 -182 -197
l-187 -157zM1092 1610q91 133 196 249.5t144 116.5q38 0 54.5 -33.5t10.5 -60.5q-7 -37 -47.5 -73.5t-144.5 -102.5l-193 -121z" />
    <glyph glyph-name="ohungarumlaut" unicode="&#x151;" horiz-adv-x="997" 
d="M346 -18q-143 0 -221 97.5t-78 258.5q0 116 47 242t125.5 230t192 171.5t235.5 67.5q98 0 166.5 -51.5t99.5 -134t31 -189.5q0 -119 -46 -242.5t-124 -223t-191 -163t-237 -63.5zM317 573q0 -88 26 -179t73 -153.5t100 -62.5q48 0 85 44t55 108t18 133q0 90 -26.5 179.5
t-72.5 148.5t-96 59q-41 0 -73.5 -24.5t-51 -65t-28 -88.5t-9.5 -99zM406 1202q243 422 317 422q32 0 55.5 -33t18.5 -59q-14 -59 -183 -197l-186 -157zM610 1184q91 133 196 249.5t144 116.5q38 0 55 -33.5t11 -60.5q-7 -37 -47.5 -73t-145.5 -103l-192 -121z" />
    <glyph glyph-name="OE" unicode="&#x152;" horiz-adv-x="2318" 
d="M784 0q-151 0 -278 42.5t-214.5 117t-136.5 179.5t-49 228q0 144 55.5 280.5t154.5 245t227 190.5t281 126.5t309 44.5h882q144 0 289 53l-41 -499h-76q-15 68 -29 114.5t-35.5 90.5t-49 69.5t-68 41t-92.5 15.5h-307l-115 -538h182q99 0 156.5 48.5t107.5 182.5h76
l-119 -561h-75q3 128 -35 174.5t-135 46.5h-181l-122 -577h378q61 0 120.5 30t114 86t101.5 120.5t97 148.5h75l-211 -553q-109 53 -258 53h-979zM434 567q0 -208 106 -330t294 -122h219l260 1224h-217q-126 0 -235 -46.5t-186 -124.5t-132.5 -178t-82 -208t-26.5 -215z" />
    <glyph glyph-name="oe" unicode="&#x153;" horiz-adv-x="1568" 
d="M999 -20q-96 0 -169 43t-115 120q-164 -161 -369 -161q-143 0 -221 97.5t-78 258.5q0 116 47 242t125.5 230t192 171.5t235.5 67.5q102 0 170.5 -54t100.5 -147q96 93 209 147t229 54q97 0 155 -46.5t58 -119.5q0 -232 -504 -426l-10 94q99 51 162 123t63 141
q0 86 -70 86q-60 0 -118.5 -76.5t-93.5 -190.5t-35 -222q0 -207 163 -207q86 0 177.5 50.5t173.5 137.5l24 -106q-81 -133 -213.5 -220t-288.5 -87zM317 573q0 -88 26 -179t73 -153.5t100 -62.5q48 0 85 44t55 108t18 133q0 90 -26.5 179.5t-72.5 148.5t-96 59
q-41 0 -73.5 -24.5t-51 -65t-28 -88.5t-9.5 -99z" />
    <glyph glyph-name="Racute" unicode="&#x154;" horiz-adv-x="1648" 
d="M-18 0l41 94l77 19q95 23 121 143l232 1083l-201 -16l49 131h633q251 0 400 -87t149 -249q0 -114 -65.5 -212.5t-167 -158t-218.5 -77.5l166 -363q50 -110 117 -169t194 -118l-20 -40q-262 0 -398 45.5t-178 173.5l-153 426h-168l-109 -510l199 16l-49 -131h-651z
M612 719h160q114 0 204 58t135.5 147.5t45.5 189.5q0 105 -68 165t-186 60h-160zM825 1610q210 224 286 296q105 99 136 99q30 0 48 -34.5t10 -76.5q-7 -40 -25.5 -71t-49 -53t-54 -34t-62.5 -28l-268 -123z" />
    <glyph glyph-name="racute" unicode="&#x155;" horiz-adv-x="946" 
d="M70 860q257 189 446 189q49 0 62.5 -22.5t-5.5 -90.5l-100 -322h19q105 201 225.5 318t243.5 117q29 0 46 -19t17 -53q0 -87 -50.5 -167t-121.5 -103l-178 -54q-93 -57 -163.5 -201.5t-143.5 -396.5l-9 -35l-284 -40l194 710q10 38 -2 58.5t-55.5 27.5t-128.5 -14z
M522 1159q125 162 265 313.5t188 151.5q37 0 54.5 -44t10.5 -91q-6 -31 -25 -59.5t-50 -52.5t-55.5 -39t-61.5 -35l-305 -168z" />
    <glyph glyph-name="uni0156" unicode="&#x156;" horiz-adv-x="1648" 
d="M-18 0l41 94l77 19q95 23 121 143l232 1083l-201 -16l49 131h633q251 0 400 -87t149 -249q0 -114 -65.5 -212.5t-167 -158t-218.5 -77.5l166 -363q50 -110 117 -169t194 -118l-20 -40q-262 0 -398 45.5t-178 173.5l-153 426h-168l-109 -510l199 16l-49 -131h-651z
M522 -618q146 131 146 235q0 32 -16.5 54.5t-35.5 32.5t-34.5 25t-14.5 33q3 52 56 97t118 45q64 0 100 -36t36 -97t-29.5 -122.5t-80.5 -115t-105 -95.5t-117 -81zM612 719h160q114 0 204 58t135.5 147.5t45.5 189.5q0 105 -68 165t-186 60h-160z" />
    <glyph glyph-name="uni0157" unicode="&#x157;" horiz-adv-x="946" 
d="M70 860q257 189 446 189q49 0 62.5 -22.5t-5.5 -90.5l-100 -322h19q105 201 225.5 318t243.5 117q29 0 46 -19t17 -53q0 -87 -50.5 -167t-121.5 -103l-178 -54q-93 -57 -163.5 -201.5t-143.5 -396.5l-9 -35l-284 -40l194 710q10 38 -2 58.5t-55.5 27.5t-128.5 -14z
M-23 -618q146 131 146 235q0 32 -16 54.5t-35.5 32.5t-34.5 25t-14 33q3 52 56 97t118 45q64 0 99.5 -36t35.5 -97t-29.5 -122.5t-80.5 -115t-105 -95.5t-117 -81z" />
    <glyph glyph-name="Rcaron" unicode="&#x158;" horiz-adv-x="1648" 
d="M-18 0l41 94l77 19q95 23 121 143l232 1083l-201 -16l49 131h633q251 0 400 -87t149 -249q0 -114 -65.5 -212.5t-167 -158t-218.5 -77.5l166 -363q50 -110 117 -169t194 -118l-20 -40q-262 0 -398 45.5t-178 173.5l-153 426h-168l-109 -510l199 16l-49 -131h-651z
M612 719h160q114 0 204 58t135.5 147.5t45.5 189.5q0 105 -68 165t-186 60h-160zM780 1980l29 25l233 -201l324 201l20 -25q-120 -144 -240 -269.5t-153 -125.5q-23 0 -65 72t-78 153t-70 170z" />
    <glyph glyph-name="rcaron" unicode="&#x159;" horiz-adv-x="946" 
d="M70 860q257 189 446 189q49 0 62.5 -22.5t-5.5 -90.5l-100 -322h19q105 201 225.5 318t243.5 117q29 0 46 -19t17 -53q0 -87 -50.5 -167t-121.5 -103l-178 -54q-93 -57 -163.5 -201.5t-143.5 -396.5l-9 -35l-284 -40l194 710q10 38 -2 58.5t-55.5 27.5t-128.5 -14z
M496 1599l26 25l228 -229l329 229l21 -25q-119 -151 -245.5 -295.5t-158.5 -144.5q-17 0 -43 43.5t-60.5 132.5t-50 131.5t-46.5 132.5z" />
    <glyph glyph-name="Sacute" unicode="&#x15a;" horiz-adv-x="1165" 
d="M500 -20q-255 0 -477 83l45 453h75q40 -199 146 -305.5t264 -106.5q132 0 221.5 78t89.5 185q0 80 -76.5 132.5t-244.5 108.5q-197 61 -283 139.5t-86 192.5q0 150 92 274t243 192.5t325 68.5q147 0 366 -64l-65 -416h-76q-23 184 -101 268.5t-221 84.5
q-136 0 -222.5 -80t-86.5 -183q0 -70 75.5 -121.5t258.5 -107.5q182 -54 268 -137.5t86 -204.5q0 -104 -47.5 -201.5t-128.5 -171t-196.5 -117.5t-243.5 -44zM651 1610q210 224 286 296q105 99 136 99q30 0 47.5 -34.5t9.5 -76.5q-7 -40 -25.5 -71t-48.5 -53t-53.5 -34
t-62.5 -28l-268 -123z" />
    <glyph glyph-name="sacute" unicode="&#x15b;" horiz-adv-x="907" 
d="M-6 115q0 43 11.5 88.5t36 80.5t56.5 35q36 0 112.5 -49t153.5 -98t113 -49q21 0 33 13.5t12 35.5q0 94 -168 262q-196 188 -196 309q0 120 121 213t311 93q43 0 97.5 -7.5t110 -22.5t93 -41.5t37.5 -59.5q0 -44 -39 -118.5t-78 -74.5q-24 0 -70 28.5t-89 62.5
t-92.5 62.5t-80.5 28.5q-57 0 -57 -65q0 -86 164 -250q200 -204 200 -322q0 -125 -104 -207.5t-287 -82.5q-120 0 -260.5 46t-140.5 89zM451 1159q125 163 264.5 314t187.5 151q37 0 55 -44.5t11 -90.5q-7 -41 -42.5 -79.5t-67.5 -58.5t-83 -48l-305 -168z" />
    <glyph glyph-name="Scircumflex" unicode="&#x15c;" horiz-adv-x="1165" 
d="M500 -20q-255 0 -477 83l45 453h75q40 -199 146 -305.5t264 -106.5q132 0 221.5 78t89.5 185q0 80 -76.5 132.5t-244.5 108.5q-197 61 -283 139.5t-86 192.5q0 150 92 274t243 192.5t325 68.5q147 0 366 -64l-65 -416h-76q-23 184 -101 268.5t-221 84.5
q-136 0 -222.5 -80t-86.5 -183q0 -70 75.5 -121.5t258.5 -107.5q182 -54 268 -137.5t86 -204.5q0 -104 -47.5 -201.5t-128.5 -171t-196.5 -117.5t-243.5 -44zM530 1610q119 142 240 268.5t154 126.5q23 0 65 -72t78 -153t70 -170l-29 -25l-234 201l-323 -201z" />
    <glyph glyph-name="scircumflex" unicode="&#x15d;" horiz-adv-x="907" 
d="M-6 115q0 43 11.5 88.5t36 80.5t56.5 35q36 0 112.5 -49t153.5 -98t113 -49q21 0 33 13.5t12 35.5q0 94 -168 262q-196 188 -196 309q0 120 121 213t311 93q43 0 97.5 -7.5t110 -22.5t93 -41.5t37.5 -59.5q0 -44 -39 -118.5t-78 -74.5q-24 0 -70 28.5t-89 62.5
t-92.5 62.5t-80.5 28.5q-57 0 -57 -65q0 -86 164 -250q200 -204 200 -322q0 -125 -104 -207.5t-287 -82.5q-120 0 -260.5 46t-140.5 89zM346 1184q345 440 397 440q10 0 23.5 -16t30 -49.5t30 -63.5t33.5 -82.5t30.5 -81t30 -82.5t23.5 -65l-29 -25l-225 230l-323 -230z" />
    <glyph glyph-name="Scedilla" unicode="&#x15e;" horiz-adv-x="1165" 
d="M291 -535q30 24 49 41t43.5 43.5t36.5 54.5t12 56q0 38 -22.5 63.5t-75.5 63.5l141 193q-240 5 -452 83l45 453h75q40 -199 146 -305.5t264 -106.5q132 0 221.5 78t89.5 185q0 80 -76.5 132.5t-244.5 108.5q-197 61 -283 139.5t-86 192.5q0 150 92 274t243 192.5
t325 68.5q147 0 366 -64l-65 -416h-76q-23 184 -101 268.5t-221 84.5q-136 0 -222.5 -80t-86.5 -183q0 -70 75.5 -121.5t258.5 -107.5q182 -54 268 -137.5t86 -204.5q0 -200 -158 -355t-395 -177l-31 -70q109 -66 109 -152q0 -62 -52 -129t-126.5 -116t-151.5 -74z" />
    <glyph glyph-name="scedilla" unicode="&#x15f;" horiz-adv-x="907" 
d="M-6 115q0 43 11.5 88.5t36 80.5t56.5 35q36 0 112.5 -49t153.5 -98t113 -49q21 0 33 13.5t12 35.5q0 94 -168 262q-196 188 -196 309q0 120 121 213t311 93q43 0 97.5 -7.5t110 -22.5t93 -41.5t37.5 -59.5q0 -44 -39 -118.5t-78 -74.5q-24 0 -70 28.5t-89 62.5
t-92.5 62.5t-80.5 28.5q-57 0 -57 -65q0 -86 164 -250q200 -204 200 -322q0 -123 -100.5 -205t-277.5 -85l-31 -68q108 -66 108 -152q0 -93 -103.5 -186t-225.5 -133l-21 24q30 24 49 41t43.5 43.5t36.5 54.5t12 56q0 38 -22.5 63.5t-75.5 63.5l144 197q-118 14 -223 54
t-105 77z" />
    <glyph glyph-name="Scaron" unicode="&#x160;" horiz-adv-x="1165" 
d="M500 -20q-255 0 -477 83l45 453h75q40 -199 146 -305.5t264 -106.5q132 0 221.5 78t89.5 185q0 80 -76.5 132.5t-244.5 108.5q-197 61 -283 139.5t-86 192.5q0 150 92 274t243 192.5t325 68.5q147 0 366 -64l-65 -416h-76q-23 184 -101 268.5t-221 84.5
q-136 0 -222.5 -80t-86.5 -183q0 -70 75.5 -121.5t258.5 -107.5q182 -54 268 -137.5t86 -204.5q0 -104 -47.5 -201.5t-128.5 -171t-196.5 -117.5t-243.5 -44zM604 1980l29 25l233 -201l324 201l20 -25q-120 -144 -240 -269.5t-153 -125.5q-23 0 -65 72t-78 153t-70 170z" />
    <glyph glyph-name="scaron" unicode="&#x161;" horiz-adv-x="907" 
d="M-6 115q0 43 11.5 88.5t36 80.5t56.5 35q36 0 112.5 -49t153.5 -98t113 -49q21 0 33 13.5t12 35.5q0 94 -168 262q-196 188 -196 309q0 120 121 213t311 93q43 0 97.5 -7.5t110 -22.5t93 -41.5t37.5 -59.5q0 -44 -39 -118.5t-78 -74.5q-24 0 -70 28.5t-89 62.5
t-92.5 62.5t-80.5 28.5q-57 0 -57 -65q0 -86 164 -250q200 -204 200 -322q0 -125 -104 -207.5t-287 -82.5q-120 0 -260.5 46t-140.5 89zM424 1599l27 25l227 -229l330 229l20 -25q-121 -153 -246 -296.5t-157 -143.5q-48 0 -201 440z" />
    <glyph glyph-name="uni0162" unicode="&#x162;" horiz-adv-x="1425" 
d="M262 0l39 94l94 23q109 24 137 151l228 1071h-162q-53 0 -99 -21t-87.5 -66t-74.5 -93.5t-77 -126.5h-76l140 463q127 -41 274 -41h674q147 0 291 41l-58 -463h-75q-9 50 -14 75.5t-15 64t-19.5 58.5t-24.5 44.5t-33 36t-43.5 20t-57.5 8.5h-170l-260 -1224l237 16
l-47 -131h-330l-39 -88q109 -66 109 -152q0 -62 -52 -129t-126.5 -116t-151.5 -74l-20 24q30 24 49 41t43.5 43.5t36.5 54.5t12 56q0 38 -22.5 63.5t-75.5 63.5l155 213h-309z" />
    <glyph glyph-name="uni0163" unicode="&#x163;" horiz-adv-x="860" 
d="M145 201l168 725h-192l20 102l232 59l258 277h71l-77 -336h315l-20 -102h-320l-143 -615q-20 -94 61 -94q45 0 124.5 33.5t139.5 79.5v-107q-88 -86 -191 -148t-198 -85l-35 -78q109 -66 109 -152q0 -62 -52 -129t-126.5 -116t-151.5 -74l-20 24q30 24 49 41t43.5 43.5
t36.5 54.5t12 56q0 38 -22.5 63.5t-75.5 63.5l141 193q-99 1 -139 63t-17 158z" />
    <glyph glyph-name="Tcaron" unicode="&#x164;" horiz-adv-x="1425" 
d="M262 0l39 94l94 23q109 24 137 151l228 1071h-162q-53 0 -99 -21t-87.5 -66t-74.5 -93.5t-77 -126.5h-76l140 463q127 -41 274 -41h674q147 0 291 41l-58 -463h-75q-9 50 -14 75.5t-15 64t-19.5 58.5t-24.5 44.5t-33 36t-43.5 20t-57.5 8.5h-170l-260 -1224l237 16
l-47 -131h-721zM735 1980l29 25l233 -201l324 201l20 -25q-120 -144 -240 -269.5t-153 -125.5q-23 0 -65 72t-78 153t-70 170z" />
    <glyph glyph-name="tcaron" unicode="&#x165;" horiz-adv-x="860" 
d="M145 201l168 725h-192l20 102l232 59l258 277h71l-77 -336h315l-20 -102h-320l-143 -615q-20 -94 61 -94q45 0 124.5 33.5t139.5 79.5v-107q-110 -109 -240.5 -176t-236.5 -67q-101 0 -142 61.5t-18 159.5zM774 1122l72 328q21 91 54.5 131.5t113.5 40.5q44 0 70 -20
t26 -56q0 -24 -16 -55t-84 -120.5t-203 -248.5h-33z" />
    <glyph glyph-name="Tbar" unicode="&#x166;" horiz-adv-x="1425" 
d="M262 0l39 94l94 23q109 24 137 151l78 363h-366l20 94h365l131 614h-162q-53 0 -99 -21t-87.5 -66t-74.5 -93.5t-77 -126.5h-76l140 463q127 -41 274 -41h674q147 0 291 41l-58 -463h-75q-9 50 -14 75.5t-15 64t-19.5 58.5t-24.5 44.5t-33 36t-43.5 20t-57.5 8.5h-170
l-131 -614h364l-20 -94h-363l-110 -516l237 16l-47 -131h-721z" />
    <glyph glyph-name="tbar" unicode="&#x167;" horiz-adv-x="860" 
d="M68 526l22 95h154l69 305h-192l20 102l232 59l258 277h71l-77 -336h315l-20 -102h-320l-72 -305h291l-22 -95h-289l-51 -215q-20 -94 61 -94q45 0 124.5 33.5t139.5 79.5v-107q-110 -109 -240.5 -176t-236.5 -67q-101 0 -142 61.5t-18 159.5l76 325h-153z" />
    <glyph glyph-name="Utilde" unicode="&#x168;" horiz-adv-x="1632" 
d="M776 -20q-292 0 -438.5 131.5t-99.5 353.5l186 874l-188 -16l49 131h671l-38 -94l-95 -17q-112 -28 -141 -163l-137 -641q-38 -186 54 -292t284 -106q171 0 288.5 95.5t155.5 273.5l178 829l-225 -16l47 131h504l-39 -94l-55 -10q-57 -11 -87.5 -43t-45.5 -99l-144 -673
q-56 -264 -238 -409.5t-446 -145.5zM866 1669q60 110 145.5 193.5t149.5 83.5q36 0 138.5 -63.5t130.5 -63.5q44 0 93 36t93 93l16 -21q-53 -115 -137.5 -200t-148.5 -85q-26 0 -60.5 18t-63 39.5t-68.5 39.5t-77 18q-50 0 -194 -108z" />
    <glyph glyph-name="utilde" unicode="&#x169;" horiz-adv-x="1290" 
d="M250 -20q-94 0 -149 56t-19 138q109 251 188 551q10 40 -1 61t-40 21q-59 0 -174 -59l6 106q92 78 215.5 136.5t206.5 58.5q78 0 102.5 -50.5t-3.5 -156.5q-68 -264 -183 -574q-7 -20 1.5 -30.5t25.5 -10.5q59 0 160.5 130t195 315t133.5 336l281 41l-178 -746
q-11 -47 0 -64.5t41 -17.5q32 0 88 16.5t108 43.5l-6 -107q-91 -78 -216 -136t-208 -58q-80 0 -101.5 53.5t15.5 185.5l88 295h-16q-56 -106 -122 -199.5t-139 -169.5t-151 -120.5t-149 -44.5zM440 1235q65 110 154.5 191t153.5 81q36 0 138 -63.5t130 -63.5q44 0 93 36
t93 93l23 -24q-52 -113 -140 -197t-153 -84q-33 0 -77.5 29t-94.5 57.5t-96 28.5q-33 0 -93 -34t-108 -75z" />
    <glyph glyph-name="Umacron" unicode="&#x16a;" horiz-adv-x="1632" 
d="M776 -20q-292 0 -438.5 131.5t-99.5 353.5l186 874l-188 -16l49 131h671l-38 -94l-95 -17q-112 -28 -141 -163l-137 -641q-38 -186 54 -292t284 -106q171 0 288.5 95.5t155.5 273.5l178 829l-225 -16l47 131h504l-39 -94l-55 -10q-57 -11 -87.5 -43t-45.5 -99l-144 -673
q-56 -264 -238 -409.5t-446 -145.5zM866 1651q7 30 43.5 77.5t59.5 47.5h583q-7 -37 -38.5 -81t-63.5 -44h-584z" />
    <glyph glyph-name="umacron" unicode="&#x16b;" horiz-adv-x="1290" 
d="M250 -20q-94 0 -149 56t-19 138q109 251 188 551q10 40 -1 61t-40 21q-59 0 -174 -59l6 106q92 78 215.5 136.5t206.5 58.5q78 0 102.5 -50.5t-3.5 -156.5q-68 -264 -183 -574q-7 -20 1.5 -30.5t25.5 -10.5q59 0 160.5 130t195 315t133.5 336l281 41l-178 -746
q-11 -47 0 -64.5t41 -17.5q32 0 88 16.5t108 43.5l-6 -107q-91 -78 -216 -136t-208 -58q-80 0 -101.5 53.5t15.5 185.5l88 295h-16q-56 -106 -122 -199.5t-139 -169.5t-151 -120.5t-149 -44.5zM477 1225q7 30 43.5 77.5t59.5 47.5h583q-7 -37 -38.5 -81t-63.5 -44h-584z" />
    <glyph glyph-name="Ubreve" unicode="&#x16c;" horiz-adv-x="1632" 
d="M776 -20q-292 0 -438.5 131.5t-99.5 353.5l186 874l-188 -16l49 131h671l-38 -94l-95 -17q-112 -28 -141 -163l-137 -641q-38 -186 54 -292t284 -106q171 0 288.5 95.5t155.5 273.5l178 829l-225 -16l47 131h504l-39 -94l-55 -10q-57 -11 -87.5 -43t-45.5 -99l-144 -673
q-56 -264 -238 -409.5t-446 -145.5zM981 1976l31 17q-8 -95 46.5 -158t155.5 -63t182 61t115 160l27 -17q-39 -161 -141 -276t-226 -115q-67 0 -113.5 32.5t-67 86.5t-24.5 124.5t15 147.5z" />
    <glyph glyph-name="ubreve" unicode="&#x16d;" horiz-adv-x="1290" 
d="M250 -20q-94 0 -149 56t-19 138q109 251 188 551q10 40 -1 61t-40 21q-59 0 -174 -59l6 106q92 78 215.5 136.5t206.5 58.5q78 0 102.5 -50.5t-3.5 -156.5q-68 -264 -183 -574q-7 -20 1.5 -30.5t25.5 -10.5q59 0 160.5 130t195 315t133.5 336l281 41l-178 -746
q-11 -47 0 -64.5t41 -17.5q32 0 88 16.5t108 43.5l-6 -107q-91 -78 -216 -136t-208 -58q-80 0 -101.5 53.5t15.5 185.5l88 295h-16q-56 -106 -122 -199.5t-139 -169.5t-151 -120.5t-149 -44.5zM590 1550l31 17q-8 -95 46.5 -158t155.5 -63t182 61t115 160l27 -17
q-39 -161 -141 -276t-226 -115q-67 0 -113.5 32.5t-67 86.5t-24.5 124.5t15 147.5z" />
    <glyph glyph-name="Uring" unicode="&#x16e;" horiz-adv-x="1632" 
d="M776 -20q-292 0 -438.5 131.5t-99.5 353.5l186 874l-188 -16l49 131h671l-38 -94l-95 -17q-112 -28 -141 -163l-137 -641q-38 -186 54 -292t284 -106q171 0 288.5 95.5t155.5 273.5l178 829l-225 -16l47 131h504l-39 -94l-55 -10q-57 -11 -87.5 -43t-45.5 -99l-144 -673
q-56 -264 -238 -409.5t-446 -145.5zM967 1720q0 94 82 152.5t196 58.5q93 0 146 -37t53 -100q0 -88 -76.5 -147.5t-200.5 -59.5q-93 0 -146.5 35.5t-53.5 97.5zM1135 1700q0 -60 45 -60q32 0 56 35t33 74.5t9 71.5q0 57 -45 57q-33 0 -57 -35t-32.5 -73.5t-8.5 -69.5z" />
    <glyph glyph-name="uring" unicode="&#x16f;" horiz-adv-x="1290" 
d="M250 -20q-94 0 -149 56t-19 138q109 251 188 551q10 40 -1 61t-40 21q-59 0 -174 -59l6 106q92 78 215.5 136.5t206.5 58.5q78 0 102.5 -50.5t-3.5 -156.5q-68 -264 -183 -574q-7 -20 1.5 -30.5t25.5 -10.5q59 0 160.5 130t195 315t133.5 336l281 41l-178 -746
q-11 -47 0 -64.5t41 -17.5q32 0 88 16.5t108 43.5l-6 -107q-91 -78 -216 -136t-208 -58q-80 0 -101.5 53.5t15.5 185.5l88 295h-16q-56 -106 -122 -199.5t-139 -169.5t-151 -120.5t-149 -44.5zM571 1298q0 99 85 165.5t208 66.5q96 0 152.5 -41.5t56.5 -110.5
q0 -97 -87 -163t-206 -66q-96 0 -152.5 40.5t-56.5 108.5zM739 1282q0 -35 13.5 -57.5t38.5 -22.5q34 0 62 37t41 80t13 76q0 35 -14 58.5t-39 23.5q-34 0 -62 -37t-40.5 -80.5t-12.5 -77.5z" />
    <glyph glyph-name="Uhungarumlaut" unicode="&#x170;" horiz-adv-x="1632" 
d="M776 -20q-292 0 -438.5 131.5t-99.5 353.5l186 874l-188 -16l49 131h671l-38 -94l-95 -17q-112 -28 -141 -163l-137 -641q-38 -186 54 -292t284 -106q171 0 288.5 95.5t155.5 273.5l178 829l-225 -16l47 131h504l-39 -94l-55 -10q-57 -11 -87.5 -43t-45.5 -99l-144 -673
q-56 -264 -238 -409.5t-446 -145.5zM967 1628q243 422 317 422q32 0 55.5 -33t18.5 -59q-14 -60 -182 -197l-187 -157zM1171 1610q91 133 196 249.5t144 116.5q38 0 55 -33.5t11 -60.5q-7 -37 -47.5 -73t-145.5 -103l-192 -121z" />
    <glyph glyph-name="uhungarumlaut" unicode="&#x171;" horiz-adv-x="1290" 
d="M250 -20q-94 0 -149 56t-19 138q109 251 188 551q10 40 -1 61t-40 21q-59 0 -174 -59l6 106q92 78 215.5 136.5t206.5 58.5q78 0 102.5 -50.5t-3.5 -156.5q-68 -264 -183 -574q-7 -20 1.5 -30.5t25.5 -10.5q59 0 160.5 130t195 315t133.5 336l281 41l-178 -746
q-11 -47 0 -64.5t41 -17.5q32 0 88 16.5t108 43.5l-6 -107q-91 -78 -216 -136t-208 -58q-80 0 -101.5 53.5t15.5 185.5l88 295h-16q-56 -106 -122 -199.5t-139 -169.5t-151 -120.5t-149 -44.5zM578 1202q243 422 317 422q32 0 55.5 -33t18.5 -59q-14 -59 -183 -197
l-186 -157zM782 1184q91 133 196 249.5t144 116.5q38 0 55 -33.5t11 -60.5q-7 -37 -47.5 -73t-145.5 -103l-192 -121z" />
    <glyph glyph-name="Uogonek" unicode="&#x172;" horiz-adv-x="1632" 
d="M776 -20q-292 0 -438.5 131.5t-99.5 353.5l186 874l-188 -16l49 131h671l-38 -94l-95 -17q-112 -28 -141 -163l-137 -641q-38 -186 54 -292t284 -106q171 0 288.5 95.5t155.5 273.5l178 829l-225 -16l47 131h504l-39 -94l-55 -10q-57 -11 -87.5 -43t-45.5 -99l-144 -673
q-38 -178 -133.5 -303t-236.5 -189q-65 -51 -107.5 -116.5t-42.5 -98.5q0 -39 27 -64.5t69 -25.5q73 0 131 35l23 -27q-44 -40 -153 -105t-124 -65q-79 0 -124.5 34t-45.5 93t42.5 135.5t115.5 149.5q-55 -8 -125 -8z" />
    <glyph glyph-name="uogonek" unicode="&#x173;" horiz-adv-x="1290" 
d="M250 -20q-94 0 -149 56t-19 138q109 251 188 551q10 40 -1 61t-40 21q-59 0 -174 -59l6 106q92 78 215.5 136.5t206.5 58.5q78 0 102.5 -50.5t-3.5 -156.5q-68 -264 -183 -574q-7 -20 1.5 -30.5t25.5 -10.5q59 0 160.5 130t195 315t133.5 336l281 41l-178 -746
q-11 -47 0 -64.5t41 -17.5q32 0 88 16.5t108 43.5l-6 -107q-89 -77 -207 -131q-80 -51 -135 -129.5t-55 -116.5q0 -39 27 -64.5t69 -25.5q73 0 131 35l23 -27q-44 -40 -153 -105t-124 -65q-79 0 -124.5 34t-45.5 93q0 64 49.5 147.5t131.5 160.5h-11q-80 0 -101.5 53.5
t15.5 185.5l88 295h-16q-56 -106 -122 -199.5t-139 -169.5t-151 -120.5t-149 -44.5z" />
    <glyph glyph-name="Wcircumflex" unicode="&#x174;" horiz-adv-x="2248" 
d="M1423 -20l-149 894l-615 -894h-55l-213 1359l-178 -10l47 125h680l-39 -94l-80 -17q-118 -24 -94 -176l111 -727l409 594l-51 305l-172 -10l47 125h705l-41 -94l-93 -17q-68 -11 -92.5 -52t-11.5 -128l98 -663l475 839l-233 -10l47 125h549l-41 -94l-98 -17
q-59 -10 -99 -48t-92 -126l-665 -1189h-56zM1145 1610q120 144 240 269.5t153 125.5q23 0 65 -72t78 -153t70 -170l-29 -25l-233 201l-324 -201z" />
    <glyph glyph-name="wcircumflex" unicode="&#x175;" horiz-adv-x="1544" 
d="M25 862q58 69 151.5 128t159.5 59q108 0 173.5 -174t84.5 -510q58 66 91.5 115.5t56.5 111t20 129.5t-31 151q-17 50 41 113.5t125 63.5q30 0 45.5 -15t34.5 -61q56 -133 86 -312.5t16 -345.5q86 127 141 295.5t64 345.5q3 93 70 93q47 0 99 -16.5t86.5 -41.5t33.5 -49
q-8 -103 -57 -218t-118.5 -215.5t-161 -203t-174.5 -179.5t-169 -146h-33q11 220 -24 485q-131 -162 -449 -485h-31q-18 352 -44 537t-57 242.5t-83 57.5q-57 0 -141 -61zM598 1184q345 440 397 440q10 0 23.5 -16t30 -49.5t30 -63.5t33.5 -82.5t30.5 -81t30 -82.5t23.5 -65
l-29 -25l-225 230l-324 -230z" />
    <glyph glyph-name="Ycircumflex" unicode="&#x176;" horiz-adv-x="1550" 
d="M350 0l39 94l53 17q73 25 113.5 66t54.5 104l70 327l-295 731l-174 -16l49 131h709l-41 -94l-103 -17q-70 -10 -88.5 -42t6.5 -93l193 -469l489 600l-213 -16l50 131h514l-41 -94l-88 -14q-43 -6 -81 -34t-93 -95l-500 -609l-105 -493l230 16l-47 -131h-701zM805 1610
q120 144 240 269.5t153 125.5q23 0 65 -72t78 -153t70 -170l-29 -25l-233 201l-324 -201z" />
    <glyph glyph-name="ycircumflex" unicode="&#x177;" horiz-adv-x="1120" 
d="M-233 -336q29 -2 88 -2q160 0 287 49t190 160q69 117 69 348q0 139 -33 278.5t-86.5 229.5t-109.5 90q-66 0 -141 -61l-6 106q65 68 161 127.5t164 59.5q88 0 156 -92.5t101.5 -237t33.5 -311.5q0 -76 -10 -193q84 147 149 346t84 420q1 32 20 50t50 18q36 0 88 -16
t91.5 -42t37.5 -49q-10 -106 -86 -260t-211.5 -348t-287 -387.5t-353.5 -435.5q-104 0 -227 16.5t-219 46.5v90zM422 1184q345 440 397 440q10 0 23.5 -16t30 -49.5t30 -63.5t33.5 -82.5t30.5 -81t30 -82.5t23.5 -65l-29 -25l-225 230l-324 -230z" />
    <glyph glyph-name="Ydieresis" unicode="&#x178;" horiz-adv-x="1550" 
d="M350 0l39 94l53 17q73 25 113.5 66t54.5 104l70 327l-295 731l-174 -16l49 131h709l-41 -94l-103 -17q-70 -10 -88.5 -42t6.5 -93l193 -469l489 600l-213 -16l50 131h514l-41 -94l-88 -14q-43 -6 -81 -34t-93 -95l-500 -609l-105 -493l230 16l-47 -131h-701zM840 1753
q0 61 49.5 107.5t111.5 46.5q44 0 72.5 -29t28.5 -72q0 -60 -49 -106.5t-109 -46.5q-47 0 -75.5 28.5t-28.5 71.5zM1171 1753q0 61 50 107.5t112 46.5q44 0 72.5 -29t28.5 -72q0 -59 -49.5 -106t-108.5 -47q-47 0 -76 28.5t-29 71.5z" />
    <glyph glyph-name="Zacute" unicode="&#x179;" horiz-adv-x="1247" 
d="M-70 0l-12 115l1174 1239l-437 -15q-244 -8 -454 -389h-76l190 545q124 -41 297 -41h811l15 -115l-1180 -1239l422 15q78 2 137 23.5t113 73.5t101 126t108 194h75l-137 -573q-128 41 -299 41h-848zM698 1610q210 224 286 296q105 99 136 99q30 0 48 -34.5t10 -76.5
q-7 -40 -25.5 -71t-49 -53t-54 -34t-62.5 -28l-268 -123z" />
    <glyph glyph-name="zacute" unicode="&#x17a;" horiz-adv-x="972" 
d="M610 -207q-64 0 -121.5 25.5t-100 62t-82.5 72.5t-85 61.5t-90 24.5q-20 0 -58.5 -19t-60.5 -40l-106 40l768 777h-146q-128 0 -204 -38.5t-168 -160.5h-78l166 471q64 -41 299 -41h401l39 -72l-694 -708q40 -13 83.5 -44.5t74.5 -59.5t75.5 -50t91.5 -22q45 0 74 8.5
t57 34t50.5 71.5t48.5 123h78q-4 -139 -43.5 -256t-110.5 -188.5t-158 -71.5zM449 1159q125 163 264.5 314t187.5 151q37 0 55 -44.5t11 -90.5q-7 -41 -42.5 -79.5t-67.5 -58.5t-83 -48l-305 -168z" />
    <glyph glyph-name="Zdotaccent" unicode="&#x17b;" horiz-adv-x="1247" 
d="M-70 0l-12 115l1174 1239l-437 -15q-244 -8 -454 -389h-76l190 545q124 -41 297 -41h811l15 -115l-1180 -1239l422 15q78 2 137 23.5t113 73.5t101 126t108 194h75l-137 -573q-128 41 -299 41h-848zM748 1778q4 77 71 137.5t146 60.5q64 0 101 -41t32 -102
q-3 -78 -67.5 -139.5t-141.5 -61.5q-65 0 -104.5 42t-36.5 104z" />
    <glyph glyph-name="zdotaccent" unicode="&#x17c;" horiz-adv-x="972" 
d="M610 -207q-64 0 -121.5 25.5t-100 62t-82.5 72.5t-85 61.5t-90 24.5q-20 0 -58.5 -19t-60.5 -40l-106 40l768 777h-146q-128 0 -204 -38.5t-168 -160.5h-78l166 471q64 -41 299 -41h401l39 -72l-694 -708q40 -13 83.5 -44.5t74.5 -59.5t75.5 -50t91.5 -22q45 0 74 8.5
t57 34t50.5 71.5t48.5 123h78q-4 -139 -43.5 -256t-110.5 -188.5t-158 -71.5zM508 1352q4 77 71 137.5t146 60.5q64 0 101 -41t32 -102q-3 -78 -67.5 -139.5t-141.5 -61.5q-65 0 -104.5 42t-36.5 104z" />
    <glyph glyph-name="Zcaron" unicode="&#x17d;" horiz-adv-x="1247" 
d="M-70 0l-12 115l1174 1239l-437 -15q-244 -8 -454 -389h-76l190 545q124 -41 297 -41h811l15 -115l-1180 -1239l422 15q78 2 137 23.5t113 73.5t101 126t108 194h75l-137 -573q-128 41 -299 41h-848zM651 1980l29 25l233 -201l324 201l20 -25q-120 -144 -240 -269.5
t-153 -125.5q-23 0 -65 72t-78 153t-70 170z" />
    <glyph glyph-name="zcaron" unicode="&#x17e;" horiz-adv-x="972" 
d="M610 -207q-64 0 -121.5 25.5t-100 62t-82.5 72.5t-85 61.5t-90 24.5q-20 0 -58.5 -19t-60.5 -40l-106 40l768 777h-146q-128 0 -204 -38.5t-168 -160.5h-78l166 471q64 -41 299 -41h401l39 -72l-694 -708q40 -13 83.5 -44.5t74.5 -59.5t75.5 -50t91.5 -22q45 0 74 8.5
t57 34t50.5 71.5t48.5 123h78q-4 -139 -43.5 -256t-110.5 -188.5t-158 -71.5zM422 1599l27 25l227 -229l330 229l20 -25q-121 -153 -246 -296.5t-157 -143.5q-48 0 -201 440z" />
    <glyph glyph-name="florin" unicode="&#x192;" horiz-adv-x="1038" 
d="M446 1075q29 230 140 356t315 125q114 0 228 -22.5t114 -50.5q0 -75 -35.5 -132t-87.5 -57q-13 0 -29 4.5t-36.5 15.5t-37 20.5t-43 28t-41 28.5t-44.5 32.5t-41 30.5h-21q-43 0 -62.5 -55.5t-35.5 -194.5l-24 -188h387v-113h-402l-96 -764q-29 -231 -138.5 -356.5
t-316.5 -124.5q-114 0 -228 23t-114 51q0 74 35.5 131t87.5 57q13 0 29 -4.5t37 -15.5t36.5 -20t43.5 -28.5t41 -28.5t45 -32.5t41 -30.5h20q43 0 62.5 55.5t35.5 194.5l113 893h-215v78l233 55z" />
    <glyph glyph-name="uni0218" unicode="&#x218;" horiz-adv-x="1165" 
d="M500 -20q-255 0 -477 83l45 453h75q40 -199 146 -305.5t264 -106.5q132 0 221.5 78t89.5 185q0 80 -76.5 132.5t-244.5 108.5q-197 61 -283 139.5t-86 192.5q0 150 92 274t243 192.5t325 68.5q147 0 366 -64l-65 -416h-76q-23 184 -101 268.5t-221 84.5
q-136 0 -222.5 -80t-86.5 -183q0 -70 75.5 -121.5t258.5 -107.5q182 -54 268 -137.5t86 -204.5q0 -104 -47.5 -201.5t-128.5 -171t-196.5 -117.5t-243.5 -44zM291 -618q145 130 145 235q0 32 -16 54.5t-35.5 32.5t-34.5 25t-14 33q3 52 56 97t118 45q64 0 99.5 -36t35.5 -97
t-29.5 -122.5t-80.5 -115t-105 -95.5t-117 -81z" />
    <glyph glyph-name="uni0219" unicode="&#x219;" horiz-adv-x="907" 
d="M-6 115q0 43 11.5 88.5t36 80.5t56.5 35q36 0 112.5 -49t153.5 -98t113 -49q21 0 33 13.5t12 35.5q0 94 -168 262q-196 188 -196 309q0 120 121 213t311 93q43 0 97.5 -7.5t110 -22.5t93 -41.5t37.5 -59.5q0 -44 -39 -118.5t-78 -74.5q-24 0 -70 28.5t-89 62.5
t-92.5 62.5t-80.5 28.5q-57 0 -57 -65q0 -86 164 -250q200 -204 200 -322q0 -125 -104 -207.5t-287 -82.5q-120 0 -260.5 46t-140.5 89zM135 -618q146 131 146 235q0 32 -16.5 54.5t-35.5 32.5t-34.5 25t-14.5 33q3 52 56 97t118 45q64 0 99.5 -36t35.5 -97t-29.5 -122.5
t-80.5 -115t-104.5 -95.5t-116.5 -81z" />
    <glyph glyph-name="uni021A" unicode="&#x21a;" horiz-adv-x="1425" 
d="M262 0l39 94l94 23q109 24 137 151l228 1071h-162q-53 0 -99 -21t-87.5 -66t-74.5 -93.5t-77 -126.5h-76l140 463q127 -41 274 -41h674q147 0 291 41l-58 -463h-75q-9 50 -14 75.5t-15 64t-19.5 58.5t-24.5 44.5t-33 36t-43.5 20t-57.5 8.5h-170l-260 -1224l237 16
l-47 -131h-721zM373 -618q145 130 145 235q0 32 -16 54.5t-35.5 32.5t-34.5 25t-14 33q3 52 56 97t118 45q64 0 99.5 -36t35.5 -97t-29.5 -122.5t-80.5 -115t-105 -95.5t-117 -81z" />
    <glyph glyph-name="uni021B" unicode="&#x21b;" horiz-adv-x="860" 
d="M145 201l168 725h-192l20 102l232 59l258 277h71l-77 -336h315l-20 -102h-320l-143 -615q-20 -94 61 -94q45 0 124.5 33.5t139.5 79.5v-107q-110 -109 -240.5 -176t-236.5 -67q-101 0 -142 61.5t-18 159.5zM119 -618q145 130 145 235q0 32 -16 54.5t-35.5 32.5t-34.5 25
t-14 33q3 52 56 97t118 45q64 0 99.5 -36t35.5 -97t-29.5 -122.5t-80.5 -115t-105 -95.5t-117 -81z" />
    <glyph glyph-name="uni0237" unicode="&#x237;" horiz-adv-x="708" 
d="M-350 -492q-47 0 -70.5 20t-23.5 48q0 61 39 129t77 68q39 0 143 -40t144 -40q33 0 58.5 14.5t44 37t35.5 65t28.5 83t26.5 105.5l159 692q14 69 -27.5 92.5t-160.5 3.5l-12 99q62 34 106 56t110.5 50.5t129 43t118.5 14.5q47 0 62 -24t0 -89l-178 -803
q-69 -316 -261.5 -470.5t-547.5 -154.5z" />
    <glyph glyph-name="circumflex" unicode="&#x2c6;" horiz-adv-x="694" 
d="M774 1159l-225 230l-324 -230l-20 25q345 440 397 440q10 0 23.5 -16t30 -49.5t30 -63.5t33.5 -82.5t30.5 -81t30 -82.5t23.5 -65z" />
    <glyph glyph-name="caron" unicode="&#x2c7;" horiz-adv-x="720" 
d="M479 1159q-17 0 -43 43.5t-60.5 132.5t-50 131.5t-46.5 132.5l26 25l227 -229l330 229l21 -25q-119 -151 -245.5 -295.5t-158.5 -144.5z" />
    <glyph glyph-name="breve" unicode="&#x2d8;" horiz-adv-x="651" 
d="M481 1159q-67 0 -113.5 32.5t-67 86.5t-24.5 124.5t15 147.5l31 17q-8 -95 46.5 -158t155.5 -63t182 61t115 160l27 -17q-39 -161 -141 -276t-226 -115z" />
    <glyph glyph-name="dotaccent" unicode="&#x2d9;" horiz-adv-x="477" 
d="M420 1206q-65 0 -104.5 42t-36.5 104q4 77 71 137.5t146 60.5q64 0 101 -41t32 -102q-3 -78 -67.5 -139.5t-141.5 -61.5z" />
    <glyph glyph-name="ring" unicode="&#x2da;" horiz-adv-x="550" 
d="M440 1149q-96 0 -152.5 40.5t-56.5 108.5q0 99 85 165.5t208 66.5q96 0 152.5 -41.5t56.5 -110.5q0 -97 -87 -163t-206 -66zM399 1282q0 -35 13.5 -57.5t38.5 -22.5q34 0 62 37t41 80t13 76q0 35 -14 58.5t-39 23.5q-34 0 -62 -37t-40.5 -80.5t-12.5 -77.5z" />
    <glyph glyph-name="ogonek" unicode="&#x2db;" horiz-adv-x="409" 
d="M-14 -479q-79 0 -124.5 34t-45.5 93q0 102 115.5 239t277.5 217l6 -79q-85 -49 -144 -130t-59 -122q0 -39 27.5 -64.5t69.5 -25.5q74 0 131 34l22 -26q-44 -40 -152.5 -105t-123.5 -65z" />
    <glyph glyph-name="tilde" unicode="&#x2dc;" horiz-adv-x="776" 
d="M209 1235q66 110 154.5 191t152.5 81q36 0 138 -63.5t130 -63.5q44 0 93.5 36t93.5 93l22 -24q-52 -113 -140 -197t-153 -84q-33 0 -77.5 29t-94.5 57.5t-96 28.5q-33 0 -93 -34t-108 -75z" />
    <glyph glyph-name="hungarumlaut" unicode="&#x2dd;" horiz-adv-x="561" 
d="M168 1202q243 422 317 422q32 0 55.5 -33t18.5 -59q-14 -60 -182 -197l-187 -157zM373 1184q91 133 196 249.5t144 116.5q38 0 54.5 -33.5t10.5 -60.5q-7 -37 -47.5 -73.5t-144.5 -102.5l-193 -121z" />
    <glyph glyph-name="gravecomb" unicode="&#x300;" 
d="M401 1272q-159 80 -159 186q0 51 27.5 108.5t66.5 57.5q19 0 84.5 -89.5t148 -212.5t115.5 -163l-22 -24z" />
    <glyph glyph-name="acutecomb" unicode="&#x301;" 
d="M193 1159q125 163 264.5 314t187.5 151q37 0 55 -44.5t11 -90.5q-7 -41 -42.5 -79.5t-67.5 -58.5t-83 -48l-305 -168z" />
    <glyph glyph-name="uni0302" unicode="&#x302;" 
d="M774 1159l-225 230l-324 -230l-20 25q345 440 397 440q10 0 23.5 -16t30 -49.5t30 -63.5t33.5 -82.5t30.5 -81t30 -82.5t23.5 -65z" />
    <glyph glyph-name="tildecomb" unicode="&#x303;" 
d="M209 1235q66 110 154.5 191t152.5 81q36 0 138 -63.5t130 -63.5q44 0 93.5 36t93.5 93l22 -24q-52 -113 -140 -197t-153 -84q-33 0 -77.5 29t-94.5 57.5t-96 28.5q-33 0 -93 -34t-108 -75z" />
    <glyph glyph-name="uni0304" unicode="&#x304;" 
d="M207 1225q7 30 43 77.5t59 47.5h584q-7 -37 -38.5 -81t-63.5 -44h-584z" />
    <glyph glyph-name="uni0306" unicode="&#x306;" 
d="M481 1159q-67 0 -113.5 32.5t-67 86.5t-24.5 124.5t15 147.5l31 17q-8 -95 46.5 -158t155.5 -63t182 61t115 160l27 -17q-39 -161 -141 -276t-226 -115z" />
    <glyph glyph-name="uni0307" unicode="&#x307;" 
d="M420 1206q-65 0 -104.5 42t-36.5 104q4 77 71 137.5t146 60.5q64 0 101 -41t32 -102q-3 -78 -67.5 -139.5t-141.5 -61.5z" />
    <glyph glyph-name="uni0308" unicode="&#x308;" 
d="M741 1225q-52 0 -84 32t-32 80q0 67 56 118.5t124 51.5q49 0 79.5 -31t30.5 -79q0 -67 -54.5 -119.5t-119.5 -52.5zM256 1337q0 67 56 118.5t124 51.5q49 0 80 -31t31 -79q0 -67 -53.5 -119.5t-120.5 -52.5q-52 0 -84.5 32t-32.5 80z" />
    <glyph glyph-name="uni030A" unicode="&#x30a;" 
d="M440 1149q-96 0 -152.5 40.5t-56.5 108.5q0 99 85 165.5t208 66.5q96 0 152.5 -41.5t56.5 -110.5q0 -97 -87 -163t-206 -66zM399 1282q0 -35 13.5 -57.5t38.5 -22.5q34 0 62 37t41 80t13 76q0 35 -14 58.5t-39 23.5q-34 0 -62 -37t-40.5 -80.5t-12.5 -77.5z" />
    <glyph glyph-name="uni030B" unicode="&#x30b;" 
d="M168 1202q243 422 317 422q32 0 55.5 -33t18.5 -59q-14 -60 -182 -197l-187 -157zM373 1184q91 133 196 249.5t144 116.5q38 0 54.5 -33.5t10.5 -60.5q-7 -37 -47.5 -73.5t-144.5 -102.5l-193 -121z" />
    <glyph glyph-name="uni030C" unicode="&#x30c;" 
d="M479 1159q-17 0 -43 43.5t-60.5 132.5t-50 131.5t-46.5 132.5l26 25l227 -229l330 229l21 -25q-119 -151 -245.5 -295.5t-158.5 -144.5z" />
    <glyph glyph-name="uni0312" unicode="&#x312;" 
d="M606 1669q-145 -130 -145 -235q0 -32 16 -54.5t35.5 -33t34.5 -25.5t14 -33q-3 -52 -56 -96.5t-118 -44.5q-64 0 -99.5 36t-35.5 97t29.5 122.5t80.5 115t105 95.5t117 81z" />
    <glyph glyph-name="uni0326" unicode="&#x326;" 
d="M-209 -618q146 131 146 235q0 32 -16.5 54.5t-35.5 32.5t-34.5 25t-14.5 33q3 52 56 97t118 45q64 0 99.5 -36t35.5 -97t-29.5 -122.5t-80.5 -115t-104.5 -95.5t-116.5 -81z" />
    <glyph glyph-name="uni0327" unicode="&#x327;" 
d="M-195 -547q42 34 66.5 56t50 62t25.5 77q0 38 -22.5 63.5t-76.5 63.5l199 272h66l-66 -147q109 -66 109 -152q0 -62 -52 -129t-126.5 -116t-151.5 -74z" />
    <glyph glyph-name="uni0328" unicode="&#x328;" 
d="M-14 -479q-79 0 -124.5 34t-45.5 93q0 102 115.5 239t277.5 217l6 -79q-85 -49 -144 -130t-59 -122q0 -39 27.5 -64.5t69.5 -25.5q74 0 131 34l22 -26q-44 -40 -152.5 -105t-123.5 -65z" />
    <glyph glyph-name="uni0394" unicode="&#x394;" horiz-adv-x="1384" 
d="M-119 0l965 1454h53l346 -1454h-1364zM96 121h799l-209 893z" />
    <glyph glyph-name="uni03A9" unicode="&#x3a9;" horiz-adv-x="1658" 
d="M831 127q261 225 382.5 418t121.5 420q0 176 -87 280.5t-244 104.5q-87 0 -166.5 -30t-141 -82t-111.5 -120t-82 -145t-49.5 -156.5t-17.5 -154.5q0 -82 14.5 -152.5t46.5 -136.5t68.5 -120t93.5 -126l-69 -127h-637l35 260l432 -51q-147 119 -223 241t-76 277
q0 146 73.5 284t196 239.5t290.5 163t349 61.5q292 0 459.5 -144.5t167.5 -384.5q0 -101 -30.5 -194t-80.5 -167t-125 -145t-151 -125.5t-172 -111.5l452 33l-69 -236h-637z" />
    <glyph glyph-name="uni03BC" unicode="&#x3bc;" horiz-adv-x="1345" 
d="M256 -20q-27 0 -51 6q-3 -174 84 -355l-285 -123q-37 105 2.5 350t104.5 380h4q95 234 161 487q10 40 -1 61t-39 21q-60 0 -175 -59l7 106q92 79 215 137t206 58q78 0 102.5 -50.5t-3.5 -156.5q-70 -273 -182 -574q-7 -20 1 -30.5t25 -10.5q59 0 161 130t195.5 315
t133.5 336l280 41l-178 -746q-11 -47 0 -64.5t41 -17.5q32 0 88.5 16.5t108.5 43.5l-7 -107q-91 -78 -216 -136t-208 -58q-80 0 -101.5 53.5t15.5 185.5l89 295h-17q-56 -106 -122 -199.5t-139 -169.5t-151 -120.5t-149 -44.5z" />
    <glyph glyph-name="pi" unicode="&#x3c0;" horiz-adv-x="1255" 
d="M692 -20q-55 0 -87 35t-32 122q0 185 160 617h-250q-115 -516 -194 -774q-91 -1 -157.5 31t-90.5 85q45 66 69 101.5t73.5 116.5t80.5 142t64 143.5t49 154.5h-12q-39 0 -90 -8t-83 -15.5t-87 -22t-62 -16.5l-16 21q41 70 109.5 137.5t162 116.5t180.5 49h711
q-5 -50 -34.5 -137.5t-61.5 -124.5h-213q-41 -190 -41 -287q0 -43 2.5 -72.5t11.5 -63t25.5 -53.5t46.5 -33.5t73 -13.5q29 0 97 11l2 -92q-109 -66 -223 -118t-183 -52z" />
    <glyph glyph-name="uni0400" unicode="&#x400;" horiz-adv-x="1456" 
d="M-18 0l41 94l65 15q109 26 129 129l236 1101l-201 -16l49 131h852q144 0 289 53l-41 -499h-76q-15 69 -28.5 115t-35 90.5t-49 69.5t-67.5 40.5t-92 15.5h-310l-114 -538h170q99 0 156.5 48.5t107.5 182.5h76l-119 -561h-76q4 129 -33 175t-135 46h-170l-123 -577h379
q61 0 120 30t114 86t101.5 120t96.5 149h76l-211 -553q-106 53 -258 53h-919zM745 1888q8 44 38 80.5t63 36.5q25 0 83.5 -78.5t110 -167t80.5 -149.5l-24 -25l-222 117q-73 38 -96 61q-47 47 -33 125z" />
    <glyph glyph-name="uni0401" unicode="&#x401;" horiz-adv-x="1456" 
d="M-18 0l41 94l65 15q109 26 129 129l236 1101l-201 -16l49 131h852q144 0 289 53l-41 -499h-76q-15 69 -28.5 115t-35 90.5t-49 69.5t-67.5 40.5t-92 15.5h-310l-114 -538h170q99 0 156.5 48.5t107.5 182.5h76l-119 -561h-76q4 129 -33 175t-135 46h-170l-123 -577h379
q61 0 120 30t114 86t101.5 120t96.5 149h76l-211 -553q-106 53 -258 53h-919zM705 1753q0 61 49.5 107.5t111.5 46.5q44 0 72.5 -29t28.5 -72q0 -60 -49 -106.5t-109 -46.5q-47 0 -75.5 28.5t-28.5 71.5zM1036 1753q0 61 50 107.5t112 46.5q44 0 72 -29t28 -72
q0 -59 -49 -106t-108 -47q-47 0 -76 28.5t-29 71.5z" />
    <glyph glyph-name="uni0402" unicode="&#x402;" horiz-adv-x="1777" 
d="M969 -375q-95 0 -172.5 35t-67.5 78q11 52 60.5 95.5t99.5 43.5l241 -121q117 114 195 319.5t78 352.5q0 135 -63.5 211t-184.5 76q-107 0 -248 -56l-114 -544l237 16l-47 -131h-721l39 94l94 23q109 24 137 151l228 1071h-162q-53 0 -99 -21t-87.5 -66t-74.5 -93.5
t-77 -126.5h-76l140 463q127 -41 274 -41h674q147 0 291 41l-58 -463h-75q-9 50 -14 75.5t-15 64t-19.5 58.5t-24.5 44.5t-33 36t-43.5 20t-57.5 8.5h-170l-117 -555q196 113 389 113q190 0 293.5 -111t103.5 -288q0 -114 -40 -238.5t-112.5 -236.5t-165 -202t-207 -143
t-228.5 -53z" />
    <glyph glyph-name="uni0403" unicode="&#x403;" horiz-adv-x="1290" 
d="M-18 0l38 94l66 15q59 15 90 47.5t43 89.5l232 1093l-199 -16l49 131h799q163 0 295 41l-58 -463h-75q-33 151 -54 199q-40 90 -124 105q-17 3 -37 3h-148q-85 0 -127 -31.5t-57 -103.5l-232 -1089l199 16l-49 -131h-651zM788 1610q210 224 286 296q105 99 136 99
q30 0 48 -34.5t10 -76.5q-7 -40 -25.5 -71t-49 -53t-54 -34t-62.5 -28l-268 -123z" />
    <glyph glyph-name="uni0404" unicode="&#x404;" horiz-adv-x="1552" 
d="M760 -20q-280 0 -456.5 160t-176.5 421q0 114 32.5 227.5t90.5 214.5t143.5 188t187.5 149.5t226.5 98.5t255.5 36q304 0 532 -115l-65 -402h-76q-41 195 -143 297.5t-279 102.5q-104 0 -195 -48t-158.5 -130t-115.5 -181t-78 -211h281q104 0 158 50t106 178h76
l-121 -563h-76q5 125 -28 176t-138 51h-282q-19 -105 -19 -191q0 -179 76.5 -282t237.5 -103q146 0 283.5 92t256.5 255q84 -5 126 -55.5t18 -121.5q-18 -61 -72.5 -112t-127 -84t-159.5 -55.5t-168 -32.5t-153 -10z" />
    <glyph glyph-name="uni0405" unicode="&#x405;" horiz-adv-x="1128" 
d="M514 -20q-255 0 -477 83l45 453h76q40 -199 145.5 -305.5t263.5 -106.5q132 0 222 78t90 185q0 80 -77 132.5t-245 108.5q-197 61 -283 139.5t-86 192.5q0 150 92 274t243 192.5t325 68.5q147 0 366 -64l-65 -416h-76q-23 184 -100.5 268.5t-220.5 84.5q-136 0 -223 -80
t-87 -183q0 -70 75.5 -121.5t258.5 -107.5q182 -54 268 -137.5t86 -204.5q0 -104 -47.5 -201.5t-128.5 -171t-196.5 -117.5t-243.5 -44z" />
    <glyph glyph-name="uni0406" unicode="&#x406;" horiz-adv-x="823" 
d="M-8 0l41 94l65 15q57 15 87.5 47t41.5 84l236 1099l-201 -16l49 131h645l-41 -94l-67 -17q-98 -25 -119 -131l-235 -1097l198 16l-49 -131h-651z" />
    <glyph glyph-name="uni0407" unicode="&#x407;" horiz-adv-x="823" 
d="M-8 0l41 94l65 15q57 15 87.5 47t41.5 84l236 1099l-201 -16l49 131h645l-41 -94l-67 -17q-98 -25 -119 -131l-235 -1097l198 16l-49 -131h-651zM383 1753q0 61 50.5 107.5t111.5 46.5q44 0 72 -29t28 -72q0 -60 -49 -106.5t-109 -46.5q-45 0 -74.5 28.5t-29.5 71.5z
M715 1753q0 61 50.5 107.5t111.5 46.5q44 0 72 -29t28 -72q0 -59 -49.5 -106t-108.5 -47q-45 0 -74.5 28.5t-29.5 71.5z" />
    <glyph glyph-name="uni0408" unicode="&#x408;" horiz-adv-x="794" 
d="M-291 -406q107 74 194 164.5t159 220t102 275.5l231 1085l-256 -16l47 131h709l-39 -94l-82 -19q-43 -9 -74 -45t-41 -90l-194 -913q-32 -152 -92.5 -278.5t-134 -212.5t-160.5 -147.5t-171 -91t-167 -34.5z" />
    <glyph glyph-name="uni0409" unicode="&#x409;" horiz-adv-x="2138" 
d="M129 -12q-25 0 -61.5 16t-70 41t-54 60.5t-13.5 70.5q109 27 203 89t163 143.5t124.5 185t91 207t59.5 215.5l68 315l-270 -8l53 131h1216l-45 -106l-71 -9q-89 -11 -113 -133l-74 -348h172q253 0 396 -89.5t143 -244.5q0 -109 -51.5 -207t-138 -167t-202.5 -109.5
t-241 -40.5h-745l43 106l71 5q102 3 131 135l232 1085h-391l-62 -291q-28 -130 -63.5 -251.5t-87 -247.5t-111 -229t-137.5 -189t-164 -135zM1178 115h147q93 0 170 34.5t125.5 91t75 127t26.5 144.5q0 109 -65.5 170t-183.5 61h-162z" />
    <glyph glyph-name="uni040A" unicode="&#x40a;" horiz-adv-x="2402" 
d="M-18 0l38 94l66 15q59 15 90 47.5t43 89.5l232 1093l-199 -16l49 131h643l-41 -94l-67 -17q-51 -13 -80 -47t-41 -92l-82 -387h665l111 522l-199 -16l50 131h643l-41 -94l-70 -17q-53 -12 -78.5 -38.5t-38.5 -87.5l-84 -400h170q258 0 401.5 -82t143.5 -233
q0 -109 -51.5 -203.5t-137.5 -159.5t-201 -102t-239 -37h-733l39 94l78 17q91 21 117 137l96 454h-666l-125 -587l199 16l-49 -131h-651zM1442 115h145q181 0 287 107.5t106 266.5q0 104 -67 158.5t-189 54.5h-157z" />
    <glyph glyph-name="uni040B" unicode="&#x40b;" horiz-adv-x="1961" 
d="M1130 0l39 94l62 17q53 15 81.5 48t39.5 91l49 233q26 117 -11.5 180.5t-127.5 63.5q-143 0 -355 -72l-114 -540l237 16l-47 -131h-721l39 94l94 23q109 24 137 151l228 1071h-162q-53 0 -99 -21t-87.5 -66t-74.5 -93.5t-77 -126.5h-76l140 463q127 -41 274 -41h674
q147 0 291 41l-58 -463h-75q-9 50 -14 75.5t-15 64t-19.5 58.5t-24.5 44.5t-33 36t-43.5 20t-57.5 8.5h-170l-119 -563q104 58 229.5 95.5t241.5 37.5q81 0 142.5 -19.5t96.5 -53.5t55.5 -80t20.5 -98.5t-10 -108.5l-92 -434l197 16l-48 -131h-637z" />
    <glyph glyph-name="uni040C" unicode="&#x40c;" horiz-adv-x="1687" 
d="M1534 -20q-244 0 -375 48.5t-198 166.5l-277 467l8 30l776 643l-243 -12l47 131h579l-39 -94q-110 -12 -177.5 -46t-141.5 -95l-543 -451l293 -461q73 -114 135.5 -174.5t175.5 -112.5zM-16 0l41 94l65 15q51 12 85 47.5t46 89.5l232 1093l-201 -16l49 131h643l-39 -94
l-67 -17q-98 -25 -119 -131l-234 -1097l179 16l-50 -131h-630zM920 1610q9 10 42 45t51.5 55t53 56.5t57.5 59.5t54.5 54t53.5 50.5t44.5 38t38.5 27.5t26 9q30 0 48 -34.5t10 -76.5q-7 -40 -25.5 -71t-49 -53t-54 -34t-62.5 -28l-268 -123z" />
    <glyph glyph-name="uni040D" unicode="&#x40d;" horiz-adv-x="1830" 
d="M-18 0l38 94l66 15q59 15 90 47.5t43 89.5l232 1093l-199 -16l49 131h643l-41 -94l-67 -17q-51 -13 -80 -47t-41 -92l-176 -827l815 797q37 37 64.5 86.5t35.5 87.5v-5l25 111h469l-41 -94l-68 -17q-99 -25 -123 -139l-229 -1089l199 16l-50 -131h-647l39 94l74 15
q94 22 119 137l172 809l-824 -803q-26 -24 -52 -65.5t-36 -77.5l-22 -109h-477zM1006 1888q8 44 37.5 80.5t62.5 36.5q25 0 83.5 -78.5t110 -167t80.5 -149.5l-24 -25l-221 117q-73 38 -96 61q-47 47 -33 125z" />
    <glyph glyph-name="uni040E" unicode="&#x40e;" horiz-adv-x="1474" 
d="M190 -20q-47 0 -73 40t-26 90.5t7 98.5q16 0 66 -0.5t66 0t58 2.5t61 6t53.5 11.5t57 19t51 28.5t54.5 39q56 46 75 101t-1 112l-264 811l-162 -10l47 125h709l-41 -94l-103 -10q-69 -6 -95.5 -43.5t-4.5 -98.5l160 -481l458 612l-190 -10l47 125h498l-41 -94l-86 -8
q-41 -3 -81 -32.5t-95 -102.5l-574 -762q-197 -263 -345.5 -369t-285.5 -106zM760 1860q0 43 57.5 73t108.5 27.5t63 -23.5q17 -100 55.5 -141t104.5 -41q41 0 80 20t76.5 59t66.5 78t66 95q43 0 68.5 -15t11.5 -44q-16 -30 -34.5 -59.5t-63 -84t-92.5 -93t-119.5 -69
t-147.5 -30.5q-124 0 -212.5 76t-88.5 172z" />
    <glyph glyph-name="uni040F" unicode="&#x40f;" horiz-adv-x="1769" 
d="M-49 0l49 131l190 -16l261 1224l-199 -16l49 131h647l-41 -94l-73 -14q-94 -23 -119 -138l-232 -1093h494q85 0 126.5 31t55.5 102l234 1089l-199 -16l49 131h651l-41 -94l-65 -15q-59 -15 -89.5 -47.5t-41.5 -89.5l-232 -1091l199 16l-49 -131h-760q4 -138 -31 -471
h-229q89 287 170 471h-774z" />
    <glyph glyph-name="uni0410" unicode="&#x410;" horiz-adv-x="1650" 
d="M825 0l39 94l76 17q64 15 91.5 45t27.5 86l-2 157h-572l-243 -284l211 16l-47 -131h-525l41 94l107 17q14 3 27.5 8t23 9.5t23 15.5t20 16.5t21.5 22t20 22.5t23.5 28t23.5 29l825 957q-50 138 -250 194l19 41h520l18 -1339l201 16l-49 -131h-670zM584 514h471l-6 543z
" />
    <glyph glyph-name="uni0411" unicode="&#x411;" horiz-adv-x="1437" 
d="M-18 0l36 94l70 15q48 11 75.5 40t39.5 87l235 1103l-186 -16l49 131h823q163 0 295 41l-57 -463h-76q-33 153 -56 204q-42 90 -129 101q-14 2 -30 2h-209q-131 0 -157 -122l-76 -359h196q253 0 396 -89.5t143 -244.5q0 -109 -52 -207t-138.5 -167t-202.5 -109.5
t-240 -40.5h-749zM471 115h170q94 0 171 34.5t125.5 91t74.5 127t26 144.5q0 109 -64.5 170t-182.5 61h-187z" />
    <glyph glyph-name="uni0412" unicode="&#x412;" horiz-adv-x="1476" 
d="M-18 0l38 94l66 15q53 12 80.5 44t38.5 87l235 1099l-188 -16l49 131h694q208 0 325.5 -76.5t117.5 -201.5q0 -149 -118.5 -262.5t-291.5 -143.5q166 -22 259 -96.5t93 -188.5q0 -129 -92 -242t-237 -178t-299 -65h-770zM471 115h191q90 0 160.5 24t113.5 61.5t70.5 88
t38 98.5t10.5 98q0 102 -66 157.5t-188 55.5h-205zM616 799h218q70 0 128 35t93.5 89t55 114t19.5 116q0 92 -60 139t-175 47h-164z" />
    <glyph glyph-name="uni0413" unicode="&#x413;" horiz-adv-x="1290" 
d="M-18 0l38 94l66 15q59 15 90 47.5t43 89.5l232 1093l-199 -16l49 131h799q163 0 295 41l-58 -463h-75q-33 151 -54 199q-40 90 -124 105q-17 3 -37 3h-148q-85 0 -127 -31.5t-57 -103.5l-232 -1089l199 16l-49 -131h-651z" />
    <glyph glyph-name="uni0414" unicode="&#x414;" horiz-adv-x="1593" 
d="M-152 -471q7 362 68 602l156 -6q86 42 163 119t133 167t103 200t77.5 209.5t53.5 203.5l68 315l-281 -8l51 123h1262l-43 -98l-70 -8q-49 -6 -75 -39t-39 -95l-232 -1099l248 16q-44 -290 -215 -602h-76q60 238 45.5 354.5t-106.5 116.5h-946q-37 0 -67.5 -19.5
t-55 -53.5t-49.5 -96.5t-46.5 -129.5t-50.5 -172h-76zM299 115h549q101 0 129 131l231 1093h-426l-61 -290q-62 -284 -168.5 -534t-253.5 -400z" />
    <glyph glyph-name="uni0415" unicode="&#x415;" horiz-adv-x="1456" 
d="M-18 0l41 94l65 15q109 26 129 129l236 1101l-201 -16l49 131h852q144 0 289 53l-41 -499h-76q-15 69 -28.5 115t-35 90.5t-49 69.5t-67.5 40.5t-92 15.5h-310l-114 -538h170q99 0 156.5 48.5t107.5 182.5h76l-119 -561h-76q4 129 -33 175t-135 46h-170l-123 -577h379
q61 0 120 30t114 86t101.5 120t96.5 149h76l-211 -553q-106 53 -258 53h-919z" />
    <glyph glyph-name="uni0416" unicode="&#x416;" horiz-adv-x="2433" 
d="M770 0l39 94l65 15q49 12 84.5 46.5t45.5 84.5l233 1099l-199 -16l47 131h644l-41 -94l-66 -17q-98 -26 -119 -131l-233 -1097l186 16l-47 -131h-639zM-82 20q147 57 238.5 117t193.5 170l461 498l-313 414q-45 58 -104 93.5t-165 47.5l41 94h580l-49 -131l-242 12
l459 -618l-4 -21l-428 -501q-103 -122 -256.5 -168.5t-407.5 -46.5zM1479 696l6 21l727 618l-248 -12l49 131h578l-41 -94q-24 -3 -45.5 -7t-38.5 -8t-35.5 -11.5t-30 -11.5t-28 -14.5t-24 -15t-24.5 -17.5t-21.5 -17t-23 -19.5t-22.5 -19.5l-514 -433l239 -479
q56 -110 122 -170t188 -117l-19 -40q-255 0 -389 46t-186 169z" />
    <glyph glyph-name="uni0417" unicode="&#x417;" horiz-adv-x="1298" 
d="M487 -20q-83 0 -168.5 17t-160.5 48.5t-122.5 83.5t-47.5 115q0 80 65 144.5t154 64.5q53 -168 87 -229q61 -110 170 -133q33 -7 73 -7q99 0 182 58t127.5 145.5t44.5 179.5q0 225 -389 225l-15 115q131 0 246.5 45.5t190.5 136.5t75 207q0 78 -53.5 126t-157.5 48
q-59 0 -113 -19t-98.5 -50t-89 -79.5t-80 -99.5t-75.5 -118h-76l127 405q213 66 440 66q228 0 356 -70t128 -197q0 -146 -117.5 -257.5t-296.5 -172.5q157 -19 240.5 -85.5t83.5 -180.5t-63.5 -215t-166.5 -169.5t-234 -108t-266 -39.5z" />
    <glyph glyph-name="uni0418" unicode="&#x418;" horiz-adv-x="1830" 
d="M-18 0l38 94l66 15q59 15 90 47.5t43 89.5l232 1093l-199 -16l49 131h643l-41 -94l-67 -17q-51 -13 -80 -47t-41 -92l-176 -827l815 797q37 37 64.5 86.5t35.5 87.5v-5l25 111h469l-41 -94l-68 -17q-99 -25 -123 -139l-229 -1089l199 16l-50 -131h-647l39 94l74 15
q94 22 119 137l172 809l-824 -803q-26 -24 -52 -65.5t-36 -77.5l-22 -109h-477z" />
    <glyph glyph-name="uni0419" unicode="&#x419;" horiz-adv-x="1830" 
d="M-18 0l38 94l66 15q59 15 90 47.5t43 89.5l232 1093l-199 -16l49 131h643l-41 -94l-67 -17q-51 -13 -80 -47t-41 -92l-176 -827l815 797q37 37 64.5 86.5t35.5 87.5v-5l25 111h469l-41 -94l-68 -17q-99 -25 -123 -139l-229 -1089l199 16l-50 -131h-647l39 94l74 15
q94 22 119 137l172 809l-824 -803q-26 -24 -52 -65.5t-36 -77.5l-22 -109h-477zM897 1860q0 43 57.5 73t108.5 27.5t63 -23.5q17 -100 55.5 -141t104.5 -41q41 0 80 20t76.5 59t66.5 78t66 95q43 0 68.5 -15t11.5 -44q-16 -30 -34.5 -59.5t-63 -84t-92.5 -93t-119.5 -69
t-147.5 -30.5q-124 0 -212.5 76t-88.5 172z" />
    <glyph glyph-name="uni041A" unicode="&#x41a;" horiz-adv-x="1687" 
d="M1534 -20q-244 0 -375 48.5t-198 166.5l-277 467l8 30l776 643l-243 -12l47 131h579l-39 -94q-110 -12 -177.5 -46t-141.5 -95l-543 -451l293 -461q73 -114 135.5 -174.5t175.5 -112.5zM-16 0l41 94l65 15q51 12 85 47.5t46 89.5l232 1093l-201 -16l49 131h643l-39 -94
l-67 -17q-98 -25 -119 -131l-234 -1097l179 16l-50 -131h-630z" />
    <glyph glyph-name="uni041B" unicode="&#x41b;" horiz-adv-x="1560" 
d="M102 -20q-59 0 -120.5 72t-47.5 141q479 118 625 798l74 348l-279 -8l52 123h1269l-43 -98l-69 -8q-49 -6 -75.5 -39t-39.5 -95l-231 -1099l196 16l-49 -131h-659l43 106l71 5q102 3 131 135l232 1093h-434l-68 -323q-36 -169 -87 -320t-121 -293t-165 -252t-205 -171z
" />
    <glyph glyph-name="uni041C" unicode="&#x41c;" horiz-adv-x="2091" 
d="M4 0l41 94l82 17q92 18 115 108l262 1026q-62 74 -230 168l19 41h512l272 -997l652 997h495l-35 -70l-53 -16q-74 -25 -111 -63.5t-47 -102.5l-190 -1087l197 16l-48 -131h-643l41 94l64 15q53 13 81.5 48.5t39.5 98.5l159 918l-772 -1194h-33l3 6l-5 -6l-297 1103
l-239 -968l219 16l-49 -131h-502z" />
    <glyph glyph-name="uni041D" unicode="&#x41d;" horiz-adv-x="1835" 
d="M993 0l41 94l72 15q96 23 121 137l92 432h-717l-119 -563l199 16l-49 -131h-651l41 94l65 15q57 15 88 47.5t43 89.5l232 1093l-199 -16l49 131h643l-41 -94l-67 -17q-51 -13 -80 -47t-41 -92l-88 -411h716l115 546l-198 -16l49 131h643l-41 -94l-68 -17
q-99 -25 -123 -139l-229 -1089l199 16l-50 -131h-647z" />
    <glyph glyph-name="uni041E" unicode="&#x41e;" horiz-adv-x="1712" 
d="M758 -20q-142 0 -263.5 45.5t-206 124.5t-132 188.5t-47.5 234.5q0 134 48.5 267.5t138.5 246.5t207 200.5t264 137.5t300 50q139 0 259 -46t203.5 -125t131 -188.5t47.5 -234.5q0 -141 -48.5 -276.5t-137.5 -247t-206 -197t-261.5 -133t-296.5 -47.5zM442 606
q0 -220 106.5 -361t282.5 -141q101 0 189.5 44.5t151.5 119t109 171t68.5 201t22.5 208.5q0 219 -105 360.5t-274 141.5q-103 0 -193.5 -47t-154.5 -124t-111 -174.5t-69.5 -199.5t-22.5 -199z" />
    <glyph glyph-name="uni041F" unicode="&#x41f;" horiz-adv-x="1769" 
d="M-18 0l38 94l66 15q59 15 90 47.5t43 89.5l232 1093l-199 -16l49 131h1585l-41 -94l-67 -17q-99 -25 -123 -139l-230 -1089l199 16l-49 -131h-647l39 94l73 15q94 22 119 137l234 1093h-494q-85 0 -127 -31.5t-57 -103.5l-232 -1089l199 16l-49 -131h-651z" />
    <glyph glyph-name="uni0420" unicode="&#x420;" horiz-adv-x="1404" 
d="M-18 0l38 94l82 21q96 26 119 137l232 1087l-201 -16l49 131h662q263 0 406.5 -87t143.5 -251q0 -92 -37.5 -175t-103.5 -146t-152.5 -109t-187 -70t-203.5 -24h-243l-103 -477l228 16l-49 -131h-680zM606 696h172q92 0 170 33t128.5 87.5t79 121.5t28.5 137
q0 119 -70.5 191.5t-200.5 72.5h-170z" />
    <glyph glyph-name="uni0421" unicode="&#x421;" horiz-adv-x="1523" 
d="M768 -20q-303 0 -484.5 155.5t-181.5 411.5q0 144 49.5 282.5t140.5 254t212.5 204t274 138t315.5 49.5q254 0 473 -107l-66 -410h-76q-37 202 -132.5 297t-272.5 95q-97 0 -183 -36t-149 -98t-113 -142t-80.5 -170.5t-46.5 -181t-16 -175.5q0 -211 99 -327t278 -116
q86 0 156 22t136.5 73.5t127 122t137.5 182.5h76l-178 -455q-213 -69 -496 -69z" />
    <glyph glyph-name="uni0422" unicode="&#x422;" horiz-adv-x="1425" 
d="M262 0l39 94l94 23q109 24 137 151l228 1071h-162q-53 0 -99 -21t-87.5 -66t-74.5 -93.5t-77 -126.5h-76l140 463q127 -41 274 -41h674q147 0 291 41l-58 -463h-75q-9 50 -14 75.5t-15 64t-19.5 58.5t-24.5 44.5t-33 36t-43.5 20t-57.5 8.5h-170l-260 -1224l237 16
l-47 -131h-721z" />
    <glyph glyph-name="uni0423" unicode="&#x423;" horiz-adv-x="1474" 
d="M190 -20q-47 0 -73 40t-26 90.5t7 98.5q16 0 66 -0.5t66 0t58 2.5t61 6t53.5 11.5t57 19t51 28.5t54.5 39q56 46 75 101t-1 112l-264 811l-162 -10l47 125h709l-41 -94l-103 -10q-69 -6 -95.5 -43.5t-4.5 -98.5l160 -481l458 612l-190 -10l47 125h498l-41 -94l-86 -8
q-41 -3 -81 -32.5t-95 -102.5l-574 -762q-197 -263 -345.5 -369t-285.5 -106z" />
    <glyph glyph-name="uni0424" unicode="&#x424;" horiz-adv-x="1769" 
d="M414 0l39 94l114 15q49 7 79.5 46.5t41.5 98.5l2 10q-258 29 -411.5 146.5t-153.5 279.5q0 113 67 213.5t178 171.5t248 118t283 64l31 144l-227 -17l49 132h712l-41 -95l-108 -16q-95 -14 -121 -139l-2 -4q261 -28 417 -145.5t156 -282.5q0 -115 -67.5 -216.5
t-179.5 -172.5t-250 -118t-287 -63l-31 -149l240 16l-49 -131h-729zM438 686q0 -119 72.5 -206.5t200.5 -121.5l172 809q-192 -44 -318.5 -175.5t-126.5 -305.5zM1004 356q94 20 176 64t143.5 105.5t97 142.5t35.5 170q0 121 -74 209t-206 120z" />
    <glyph glyph-name="uni0425" unicode="&#x425;" horiz-adv-x="1656" 
d="M721 0l41 94l115 17q66 9 92.5 37t3.5 71l-187 354l-446 -464l240 22l-50 -131h-593l40 94l115 17q103 16 215 131l422 438l-348 659l-170 -16l49 131h774l-39 -94l-96 -17q-73 -14 -101 -41.5t-7 -66.5l194 -373l473 477l-237 -16l49 131h553l-39 -94l-86 -17
q-49 -9 -94 -36.5t-103 -87.5l-459 -463l336 -641l174 16l-49 -131h-782z" />
    <glyph glyph-name="uni0426" unicode="&#x426;" horiz-adv-x="1792" 
d="M1401 -471q61 238 48.5 354.5t-103.5 116.5h-1395l49 131l190 -16l261 1224l-199 -16l49 131h647l-41 -94l-73 -14q-94 -23 -119 -138l-232 -1093h494q85 0 126.5 31.5t55.5 103.5l234 1089l-199 -16l49 131h651l-41 -94l-65 -14q-58 -15 -88.5 -48t-42.5 -90l-232 -1093
l267 16q-44 -290 -215 -602h-76z" />
    <glyph glyph-name="uni0427" unicode="&#x427;" horiz-adv-x="1730" 
d="M676 528q-84 0 -148 19.5t-101.5 53t-59.5 79.5t-22.5 98.5t9.5 110.5l97 450l-199 -16l49 131h637l-43 -94l-59 -17q-52 -15 -80.5 -48t-40.5 -91l-53 -250q-27 -122 6 -182.5t151 -60.5q100 0 214.5 28t209.5 74l111 526l-187 -16l50 131h630l-41 -94l-67 -17
q-51 -13 -80 -47t-41 -92l-232 -1089l199 16l-49 -131h-647l39 94l73 15q96 23 121 137l99 467q-112 -78 -253.5 -131.5t-291.5 -53.5z" />
    <glyph glyph-name="uni0428" unicode="&#x428;" horiz-adv-x="2400" 
d="M-49 0l49 131l190 -16l261 1224l-199 -16l49 131h647l-41 -94l-73 -14q-94 -23 -119 -138l-232 -1093h338q89 0 129 31.5t60 119.5l227 1073l-182 -16l49 131h627l-41 -94l-58 -14q-58 -17 -88.5 -49.5t-42.5 -88.5l-231 -1093h350q83 0 120 30t52 103l231 1091l-182 -16
l49 131h637l-41 -94l-65 -14q-58 -15 -89.5 -49t-43.5 -91l-232 -1091l199 16l-49 -131h-2255z" />
    <glyph glyph-name="uni0429" unicode="&#x429;" horiz-adv-x="2400" 
d="M-49 0l49 131l190 -16l261 1224l-199 -16l49 131h647l-41 -94l-73 -14q-94 -23 -119 -138l-232 -1093h338q89 0 129 31.5t60 119.5l227 1073l-182 -16l49 131h627l-41 -94l-58 -14q-58 -17 -88.5 -49.5t-42.5 -88.5l-231 -1093h350q83 0 120 30t52 103l231 1091l-182 -16
l49 131h637l-41 -94l-65 -14q-58 -15 -89.5 -49t-43.5 -91l-230 -1085l301 22q-43 -299 -215 -614h-76q61 238 47.5 354.5t-104.5 116.5h-2060z" />
    <glyph glyph-name="uni042A" unicode="&#x42a;" horiz-adv-x="1759" 
d="M285 0l39 94l65 15q58 15 88.5 47.5t42.5 89.5l234 1093h-136q-30 0 -56 -4t-50 -15.5t-42 -21.5t-39.5 -32t-35.5 -37t-35.5 -46t-33.5 -49.5t-37 -56.5q-19 -30 -29 -45h-76l140 463q119 -41 280 -41h643l-41 -94l-67 -17q-99 -25 -123 -139l-74 -346h186
q254 0 397.5 -89.5t143.5 -244.5q0 -109 -52 -207t-138.5 -167t-202.5 -109.5t-240 -40.5h-751zM786 115h160q93 0 170 34.5t125.5 91t75 127t26.5 144.5q0 109 -65 170t-184 61h-174z" />
    <glyph glyph-name="uni042B" unicode="&#x42b;" horiz-adv-x="2150" 
d="M-18 0l38 94l66 15q59 15 90 47.5t43 89.5l232 1093l-199 -16l49 131h643l-41 -94l-67 -17q-51 -13 -80 -47t-41 -92l-74 -346h172q258 0 398.5 -89t140.5 -243q0 -145 -86.5 -266.5t-232 -190.5t-314.5 -69h-737zM483 115h146q94 0 171 34.5t125.5 91t74.5 127t26 144.5
q0 109 -65 170t-183 61h-162zM1303 0l40 94l66 15q57 15 87.5 47t41.5 84l236 1099l-201 -16l49 131h645l-41 -94l-67 -17q-98 -25 -119 -131l-236 -1097l199 16l-49 -131h-651z" />
    <glyph glyph-name="uni042C" unicode="&#x42c;" horiz-adv-x="1478" 
d="M-18 0l38 94l66 15q59 15 90 47.5t43 89.5l232 1093l-199 -16l49 131h643l-41 -94l-67 -17q-51 -13 -80 -47t-41 -92l-74 -346h207q253 0 395.5 -89.5t142.5 -244.5q0 -109 -52 -207t-138 -167t-202 -109.5t-240 -40.5h-772zM483 115h181q94 0 171 34.5t125.5 91
t74.5 127t26 144.5q0 109 -65 170t-183 61h-197z" />
    <glyph glyph-name="uni042D" unicode="&#x42d;" horiz-adv-x="1499" 
d="M549 -20q-89 0 -181.5 15.5t-179 46t-141.5 85t-55 123.5q0 83 63.5 139.5t155.5 61.5q49 -163 147.5 -255t243.5 -92q88 0 167 33.5t137.5 89t107 131.5t80.5 155.5t53 166.5h-285q-99 0 -155.5 -47t-106.5 -180h-76l119 563h76q-3 -128 30.5 -178t137.5 -50h282
q15 88 15 164q0 188 -85 297t-239 109q-177 0 -321 -102t-269 -298h-75l106 402q273 115 580 115q284 0 451 -155t167 -417q0 -184 -77.5 -355t-206.5 -295t-304 -198.5t-362 -74.5z" />
    <glyph glyph-name="uni042E" unicode="&#x42e;" horiz-adv-x="2254" 
d="M1368 -20q-253 0 -414 157.5t-161 407.5q0 57 10 129h-199l-121 -559l199 16l-49 -131h-651l41 94l65 15q57 15 87.5 47t41.5 84l236 1099l-201 -16l49 131h645l-41 -94l-67 -17q-98 -25 -119 -131l-90 -424h202q57 184 183.5 340t304.5 251.5t367 95.5q251 0 412 -158
t161 -406q0 -169 -73.5 -338t-193.5 -299.5t-285.5 -212t-338.5 -81.5zM1128 561q0 -208 87 -332.5t243 -124.5q64 0 123 29t104.5 79t85 115.5t67 138.5t47 148.5t29 145.5t9.5 129q0 210 -87 335.5t-243 125.5q-74 0 -141 -39t-116.5 -104.5t-90 -147.5t-65.5 -171
t-38.5 -172.5t-13.5 -154.5z" />
    <glyph glyph-name="uni042F" unicode="&#x42f;" horiz-adv-x="1626" 
d="M784 0l39 94l74 15q97 23 119 137l233 1093h-157q-166 0 -273.5 -102t-107.5 -260q0 -215 329 -215l-4 -21l-440 -542q-102 -127 -256 -173t-412 -46l-4 40q153 60 245 118.5t187 168.5l353 404q-64 8 -119 27.5t-101.5 51.5t-73 82t-26.5 113q0 78 28.5 146t79 119
t118.5 90.5t148.5 64t167.5 37t177 12.5h635l-41 -94l-68 -17q-100 -26 -121 -139l-231 -1089l199 16l-49 -131h-648z" />
    <glyph glyph-name="uni0430" unicode="&#x430;" horiz-adv-x="1132" 
d="M236 -20q-103 0 -153 79t-50 213q0 149 47 289.5t129 248.5t201.5 173.5t255.5 65.5q71 0 176 -84l180 188h57l-209 -848q-22 -84 45 -84q58 0 175 60l-7 -107q-95 -81 -205.5 -137.5t-191.5 -56.5q-115 0 -88 139l33 184h-23q-86 -151 -183.5 -237t-188.5 -86zM307 295
q0 -37 13 -58.5t36 -21.5q78 0 185.5 159.5t173.5 413.5q-119 99 -172 99q-55 0 -112.5 -120t-90.5 -258t-33 -214z" />
    <glyph glyph-name="uni0431" unicode="&#x431;" horiz-adv-x="1011" 
d="M657 1430q230 51 269 61q91 23 133 96h90q-25 -299 -254 -383q-68 -24 -274 -45q-91 -9 -179.5 -101t-142.5 -245q69 86 152 129t163 43q168 0 254 -98.5t86 -261.5q0 -118 -43.5 -234.5t-116 -206.5t-175 -146t-213.5 -56q-67 0 -122 22t-92 60t-62 90t-36.5 110.5
t-11.5 122.5q0 190 52 375.5t134.5 323.5t185.5 231t203 113zM336 500q0 -75 27 -152t75 -129.5t101 -52.5q48 0 86 44.5t57.5 111.5t19.5 141q0 139 -53 238.5t-137 99.5q-77 0 -126.5 -88.5t-49.5 -212.5z" />
    <glyph glyph-name="uni0432" unicode="&#x432;" horiz-adv-x="1009" 
d="M33 330q0 122 58 251.5t151 232t219.5 169t253.5 66.5q97 0 155 -46.5t58 -119.5q0 -167 -262 -326q106 -28 173.5 -82.5t67.5 -126.5q0 -92 -52 -165.5t-131.5 -116t-164 -64.5t-160.5 -22q-150 0 -258 97.5t-108 252.5zM322 399q7 -106 60.5 -191t139.5 -85
q117 0 117 186q0 118 -107 176q-87 -41 -210 -86zM330 506q313 147 313 301q0 39 -23 62.5t-59 23.5q-49 0 -99 -63.5t-83.5 -150.5t-48.5 -173z" />
    <glyph glyph-name="uni0433" unicode="&#x433;" horiz-adv-x="841" 
d="M221 -20q-114 0 -186 49t-72 127q0 58 33 112t84.5 98t142.5 107l129 88q71 49 105.5 88.5t34.5 83.5q0 54 -33 81.5t-86 27.5q-57 0 -126 -38.5t-132 -105.5l-25 107q77 111 200 177.5t247 66.5q132 0 203 -52.5t71 -144.5q0 -42 -19 -80t-65 -81t-93.5 -78t-133.5 -93
l-84 -57q-131 -88 -131 -176q0 -46 26.5 -73.5t71.5 -27.5q122 0 315 156l25 -106q-110 -119 -244.5 -187.5t-257.5 -68.5z" />
    <glyph glyph-name="uni0434" unicode="&#x434;" horiz-adv-x="970" 
d="M41 354q0 79 18 162t50.5 159.5t81 144.5t106.5 118.5t130 79.5t148 29q25 0 56 -7q-18 91 -46.5 161.5t-73.5 126t-110 85t-149 29.5q-71 0 -139 -35l-25 106q102 64 227 64q103 0 194.5 -35t159 -95t121.5 -137t87.5 -163t51 -171.5t17.5 -164.5q0 -218 -81.5 -409
t-223.5 -305.5t-309 -114.5q-143 0 -217 99.5t-74 272.5zM299 590q0 -96 25 -192.5t71 -162t99 -65.5q76 0 123 118t47 316q0 97 -2 144q-61 52 -122.5 85t-99.5 33q-74 0 -107.5 -69.5t-33.5 -206.5z" />
    <glyph glyph-name="uni0435" unicode="&#x435;" horiz-adv-x="937" 
d="M43 330q0 122 58 251.5t151 232t219.5 169t253.5 66.5q97 0 155 -46.5t58 -119.5q0 -254 -606 -465q0 -205 164 -205q87 0 178.5 47.5t171.5 132.5l24 -106q-81 -133 -213.5 -220t-287.5 -87q-146 0 -236 95.5t-90 254.5zM344 530q142 65 219.5 130.5t77.5 146.5
q0 86 -70 86q-47 0 -94.5 -58t-80.5 -138.5t-52 -166.5z" />
    <glyph glyph-name="uni0436" unicode="&#x436;" horiz-adv-x="1875" 
d="M932 1016l233 33l-92 -437q133 212 295 324.5t315 112.5q80 0 157 -27.5t77 -65.5q0 -59 -33 -120.5t-72 -61.5q-15 0 -38 19t-45 41.5t-56.5 41.5t-70.5 19q-51 0 -93 -46.5t-65.5 -115t-36 -134.5t-12.5 -116q0 -280 139 -280q58 0 117.5 29.5t105.5 80.5l25 -106
q-53 -106 -141.5 -166.5t-182.5 -60.5q-143 0 -222 90t-79 243q0 211 135 439q-256 -328 -344 -727v2l-4 -15l-237 -32l96 446q-131 -217 -293 -331.5t-317 -114.5q-80 0 -156 27t-76 65q0 60 31.5 121t70.5 61q15 0 38 -19t45 -41.5t57 -41.5t71 -19q51 0 93 46.5t65.5 115
t36 134.5t12.5 116q0 144 -37.5 212t-101.5 68q-58 0 -117.5 -29.5t-105.5 -80.5l-25 106q55 107 142.5 167.5t181.5 60.5q143 0 222 -90.5t79 -243.5q0 -210 -135 -441q112 147 198.5 313.5t139.5 383.5z" />
    <glyph glyph-name="uni0437" unicode="&#x437;" horiz-adv-x="978" 
d="M313 -20q-151 0 -251 40t-95 97q11 151 127 151q19 0 40 -18.5t42 -44.5t46 -52t61.5 -44.5t78.5 -18.5q84 0 143.5 64.5t59.5 156.5q0 66 -45 109t-123 43q-22 0 -84 -4l-10 96q86 9 162.5 38.5t127 78.5t50.5 106q0 59 -45.5 87t-116.5 28t-146 -24t-134 -66l-25 106
q75 60 188 100t214 40q171 0 264.5 -64.5t93.5 -161.5q0 -103 -96 -171t-246 -95q133 -21 204.5 -82t71.5 -145q0 -86 -49.5 -155t-131 -110.5t-178 -63t-198.5 -21.5z" />
    <glyph glyph-name="uni0438" unicode="&#x438;" horiz-adv-x="1290" 
d="M250 -20q-94 0 -149 56t-19 138q109 251 188 551q10 40 -1 61t-40 21q-59 0 -174 -59l6 106q92 78 215.5 136.5t206.5 58.5q78 0 102.5 -50.5t-3.5 -156.5q-68 -264 -183 -574q-7 -20 1.5 -30.5t25.5 -10.5q59 0 160.5 130t195 315t133.5 336l281 41l-178 -746
q-11 -47 0 -64.5t41 -17.5q32 0 88 16.5t108 43.5l-6 -107q-91 -78 -216 -136t-208 -58q-80 0 -101.5 53.5t15.5 185.5l88 295h-16q-56 -106 -122 -199.5t-139 -169.5t-151 -120.5t-149 -44.5z" />
    <glyph glyph-name="uni0439" unicode="&#x439;" horiz-adv-x="1290" 
d="M250 -20q-94 0 -149 56t-19 138q109 251 188 551q10 40 -1 61t-40 21q-59 0 -174 -59l6 106q92 78 215.5 136.5t206.5 58.5q78 0 102.5 -50.5t-3.5 -156.5q-68 -264 -183 -574q-7 -20 1.5 -30.5t25.5 -10.5q59 0 160.5 130t195 315t133.5 336l281 41l-178 -746
q-11 -47 0 -64.5t41 -17.5q32 0 88 16.5t108 43.5l-6 -107q-91 -78 -216 -136t-208 -58q-80 0 -101.5 53.5t15.5 185.5l88 295h-16q-56 -106 -122 -199.5t-139 -169.5t-151 -120.5t-149 -44.5zM451 1434q0 43 57.5 73t108.5 27.5t63 -23.5q17 -100 55.5 -141t104.5 -41
q76 0 143 66t145 186q43 0 68.5 -15t11.5 -44q-16 -30 -34.5 -59.5t-63 -84t-92 -93t-119 -69t-147.5 -30.5q-124 0 -212.5 76t-88.5 172z" />
    <glyph glyph-name="uni043A" unicode="&#x43a;" horiz-adv-x="1275" 
d="M57 860q105 77 236 133t239 56q48 0 61.5 -22.5t-1.5 -90.5l-234 -916l-280 -40l180 710q8 27 2 46.5t-24.5 30.5t-60.5 10t-105 -15zM539 481v21q73 109 155.5 206t168.5 174t172 122t157 45q27 0 44 -14t17 -40q0 -50 -29 -133t-69 -92q-100 -22 -219.5 -75.5
t-210.5 -119.5l119 -213q29 -56 71 -87t89 -31q73 0 176 53l6 -107q-91 -91 -190 -150.5t-171 -59.5q-63 0 -101.5 54.5t-86.5 180.5z" />
    <glyph glyph-name="uni043B" unicode="&#x43b;" horiz-adv-x="1212" 
d="M940 295q-10 -42 1.5 -58t41.5 -16q57 0 174 60l-6 -107q-91 -78 -215 -136t-207 -58q-78 0 -99 51t9 172l152 602q6 24 7 41.5t-6.5 28t-14.5 16.5t-28.5 8.5t-35 3t-45.5 0.5h-17q-94 0 -145 -2l-156 -604q-81 -317 -241 -317q-86 0 -129 95q-33 75 -20 150
q11 60 46 60t57.5 1t52.5 5.5t50.5 14t42 25.5t36 41.5t23.5 59.5l121 463q-78 -3 -188 -12v112q146 17 438 35.5t377 18.5q109 0 65 -181z" />
    <glyph glyph-name="uni043C" unicode="&#x43c;" horiz-adv-x="1413" 
d="M1212 295q-18 -74 43 -74q58 0 175 60l-7 -107q-91 -78 -215 -136t-207 -58q-79 0 -100 51t10 172l131 516l-479 -739h-20l-92 798l-119 -481q-75 -320 -236 -320q-86 0 -128 94q-34 76 -20 151q11 61 46 61q52 0 86.5 4t74 18t65 45.5t38.5 81.5l119 481l-205 -22v113
q76 14 229.5 29.5t206.5 15.5q74 0 84 -97l53 -495l349 551l299 41z" />
    <glyph glyph-name="uni043D" unicode="&#x43d;" horiz-adv-x="1325" 
d="M47 860q105 77 236 133t239 56q47 0 60.5 -22.5t-2.5 -90.5l-88 -348h356l104 420l281 41l-180 -754q-18 -74 43 -74q57 0 174 60l-6 -107q-91 -78 -215 -136t-207 -58q-79 0 -100 51t10 172l69 278h-358l-117 -461l-280 -40l180 710q10 38 -2 58.5t-56 27.5t-129 -14z
" />
    <glyph glyph-name="uni043E" unicode="&#x43e;" horiz-adv-x="997" 
d="M346 -18q-143 0 -221 97.5t-78 258.5q0 116 47 242t125.5 230t192 171.5t235.5 67.5q98 0 166.5 -51.5t99.5 -134t31 -189.5q0 -119 -46 -242.5t-124 -223t-191 -163t-237 -63.5zM317 573q0 -88 26 -179t73 -153.5t100 -62.5q48 0 85 44t55 108t18 133q0 90 -26.5 179.5
t-72.5 148.5t-96 59q-41 0 -73.5 -24.5t-51 -65t-28 -88.5t-9.5 -99z" />
    <glyph glyph-name="uni043F" unicode="&#x43f;" horiz-adv-x="1327" 
d="M70 860q105 77 236 133t239 56q48 0 61.5 -23.5t-4.5 -89.5l-131 -438h21q60 112 123 206t134.5 174t147.5 125.5t147 45.5q94 0 148.5 -56t26.5 -151l-160 -539q-25 -82 41 -82q57 0 174 60l-6 -107q-91 -78 -216 -136t-208 -58q-80 0 -101 53.5t15 185.5l155 533
q9 38 3.5 48.5t-25.5 10.5q-48 0 -153.5 -131.5t-210 -322t-144.5 -337.5l-281 -40l166 710q9 38 -2.5 58.5t-55 27.5t-128.5 -14z" />
    <glyph glyph-name="uni0440" unicode="&#x440;" horiz-adv-x="1146" 
d="M-135 -399q84 17 123.5 57t58.5 121l215 911q9 38 -3 58.5t-56 27.5t-129 -14l-13 98q107 79 231.5 134t231.5 55q32 0 49.5 -9.5t22.5 -35t-14 -68.5l-86 -211h16q84 151 179.5 237.5t185.5 86.5q114 0 170.5 -87.5t56.5 -228.5q0 -206 -80 -377.5t-227 -273.5
t-330 -102q-37 0 -96 16l-82 -365l317 35l-22 -137l-738 -18zM426 240q126 -99 209 -99q51 0 97.5 103t70.5 221t24 192q0 156 -65 156q-78 0 -175 -154.5t-161 -418.5z" />
    <glyph glyph-name="uni0441" unicode="&#x441;" horiz-adv-x="921" 
d="M395 -20q-157 0 -252.5 102t-95.5 264q0 93 32 193t92 190t138 162.5t177 115t202 42.5q78 0 176.5 -27.5t98.5 -60.5q0 -63 -38.5 -127t-76.5 -64q-12 0 -42.5 16.5t-63 37t-76 37t-78.5 16.5q-68 0 -128.5 -74t-94 -176.5t-33.5 -196.5q0 -103 42.5 -160t125.5 -57
q147 0 301 164l24 -107q-73 -131 -188.5 -210.5t-241.5 -79.5z" />
    <glyph glyph-name="uni0442" unicode="&#x442;" horiz-adv-x="1849" 
d="M70 860q105 77 236 133t239 56q47 0 61.5 -25t-2.5 -88l-123 -406h21l-2 -6q57 108 116 198t124.5 165.5t134.5 118.5t133 43q91 0 131.5 -55t9.5 -152l-92 -291h20q54 103 110.5 189t119 157.5t129 111.5t127.5 40q100 0 155.5 -56t26.5 -151l-168 -539
q-13 -46 -0.5 -64t43.5 -18q57 0 174 60l-6 -107q-94 -80 -214 -137t-210 -57q-80 0 -101 53.5t15 185.5l156 516q12 51 6.5 63.5t-25.5 12.5q-48 0 -143.5 -132t-188 -320.5t-133.5 -338.5l-284 -40l215 763q10 44 4.5 56t-25.5 12q-48 0 -146 -132t-194.5 -321
t-136.5 -338l-281 -40l168 710q8 27 2 46.5t-24.5 30.5t-60.5 10t-105 -15z" />
    <glyph glyph-name="uni0443" unicode="&#x443;" horiz-adv-x="1120" 
d="M-233 -336q29 -2 88 -2q160 0 287 49t190 160q69 117 69 348q0 139 -33 278.5t-86.5 229.5t-109.5 90q-66 0 -141 -61l-6 106q65 68 161 127.5t164 59.5q88 0 156 -92.5t101.5 -237t33.5 -311.5q0 -76 -10 -193q84 147 149 346t84 420q1 32 20 50t50 18q36 0 88 -16
t91.5 -42t37.5 -49q-10 -106 -86 -260t-211.5 -348t-287 -387.5t-353.5 -435.5q-104 0 -227 16.5t-219 46.5v90z" />
    <glyph glyph-name="uni0444" unicode="&#x444;" horiz-adv-x="1486" 
d="M-37 -492q-84 0 -84 68q0 57 46 116.5t85 59.5q32 0 140 -34.5t149 -34.5q45 0 80 22.5t60.5 67.5t43 101t33.5 134l57 287q-75 -149 -159 -232t-172 -83q-197 0 -197 296q0 203 73 379.5t207 285t298 108.5q47 0 94 -29q138 557 833 557q41 0 64.5 -17.5t19.5 -50.5
q-9 -60 -51 -117t-80 -57q-33 0 -140 35t-149 35q-84 0 -144.5 -99t-92.5 -266l-62 -309q74 149 158 233.5t172 84.5q104 0 151.5 -80.5t47.5 -216.5q0 -203 -73.5 -379t-208 -284.5t-298.5 -108.5q-48 0 -96 30q-75 -261 -273.5 -381.5t-531.5 -120.5zM289 293
q0 -35 16 -56.5t41 -21.5q73 0 162 147.5t156 397.5l6 31q-103 96 -160 96t-110.5 -120t-82 -257t-28.5 -217zM817 240q99 -99 162 -99q56 0 109 120t81.5 257t28.5 217q0 35 -15.5 56.5t-39.5 21.5q-75 0 -167 -156t-159 -417z" />
    <glyph glyph-name="uni0445" unicode="&#x445;" horiz-adv-x="1140" 
d="M717 -20q-68 0 -119 44.5t-74 129.5l-55 213l-147 -277q-55 -110 -234 -110q-73 0 -112 35q-41 37 5 77l5 4l458 369l-63 250q-12 49 -38.5 75.5t-63.5 26.5q-28 0 -86.5 -22.5t-112.5 -59.5l-6 107q66 79 162.5 136.5t181.5 57.5q69 0 122.5 -44.5t75.5 -129.5l62 -244
l156 320q54 111 241 111q77 0 113 -34t-8 -71l-478 -420l58 -223q25 -102 96 -102q33 0 88 22t111 60l6 -107q-66 -79 -162.5 -136.5t-181.5 -57.5z" />
    <glyph glyph-name="uni0446" unicode="&#x446;" horiz-adv-x="1290" 
d="M250 -20q-94 0 -149 56t-19 138q109 251 188 551q10 40 -1 61t-40 21q-59 0 -174 -59l6 106q92 78 215.5 136.5t206.5 58.5q78 0 102.5 -50.5t-3.5 -156.5q-68 -264 -183 -574q-7 -20 1.5 -30.5t25.5 -10.5q59 0 160.5 130t195 315t133.5 336l281 41l-178 -746
q-11 -47 0 -64.5t41 -17.5q32 0 88 16.5t108 43.5l-6 -107q-101 -88 -233 -143q-7 -4 -20.5 -12.5t-20.5 -13t-18.5 -11.5t-18 -11.5t-15 -11t-13 -11t-9 -10t-6.5 -10.5t-2 -10q0 -14 15 -33t36 -37.5t42.5 -38t36.5 -41.5t15 -42q0 -42 -58 -96t-117.5 -89.5t-94.5 -48.5
l-61 52q34 18 74 55.5t40 66.5q0 22 -23.5 50.5t-51 51t-51 48t-23.5 43.5q0 42 106 115q-52 14 -62 68.5t23 164.5l88 295h-16q-56 -106 -122 -199.5t-139 -169.5t-151 -120.5t-149 -44.5z" />
    <glyph glyph-name="uni0447" unicode="&#x447;" horiz-adv-x="1298" 
d="M346 268q-92 0 -145 56t-19 139q52 128 88 262q10 40 -1 61t-40 21q-59 0 -174 -59l6 106q92 78 215.5 136.5t206.5 58.5q78 0 102.5 -50.5t-3.5 -156.5q-8 -36 -86 -285q-23 -80 30 -80q85 0 208 156.5t181 374.5l281 41l-190 -746q-11 -49 -0.5 -65.5t41.5 -16.5
q32 0 88 16.5t108 43.5l-6 -107q-91 -78 -216 -136t-208 -58q-165 0 -86 239l129 402h-16q-201 -353 -494 -353z" />
    <glyph glyph-name="uni0448" unicode="&#x448;" horiz-adv-x="1685" 
d="M219 -20q-92 0 -141 55.5t-12 138.5q112 259 186 551q21 82 -39 82q-59 0 -174 -59l6 106q93 80 210.5 137.5t199.5 57.5q78 0 102 -50.5t-4 -156.5q-73 -284 -184 -574q-14 -41 28 -41q32 0 91 73t122.5 183.5t125 254t95.5 270.5l283 41l-240 -773q-13 -49 27 -49
q44 0 128 120t170 305.5t132 355.5l281 41l-215 -746q-25 -82 41 -82q32 0 88 16.5t108 43.5l-6 -107q-93 -80 -204 -137t-183 -57q-82 0 -111.5 48.5t3.5 151.5l106 318h-16q-13 -23 -38 -69q-36 -67 -55 -100t-53 -90t-57 -86.5t-57 -68t-63 -57.5t-65 -33t-73 -14
q-82 0 -124 54.5t-11 139.5l112 324h-16q-51 -90 -90 -154.5t-93 -138t-101.5 -119t-105.5 -76t-114 -30.5z" />
    <glyph glyph-name="uni0449" unicode="&#x449;" horiz-adv-x="1685" 
d="M219 -20q-92 0 -141 55.5t-12 138.5q112 259 186 551q21 82 -39 82q-59 0 -174 -59l6 106q93 80 210.5 137.5t199.5 57.5q78 0 102 -50.5t-4 -156.5q-73 -284 -184 -574q-14 -41 28 -41q32 0 91 73t122.5 183.5t125 254t95.5 270.5l283 41l-240 -773q-13 -49 27 -49
q44 0 128 120t170 305.5t132 355.5l281 41l-215 -746q-25 -82 41 -82q32 0 88 16.5t108 43.5l-6 -107q-95 -83 -215 -143q-10 -6 -26.5 -16t-26 -16t-22.5 -14.5t-21 -14.5t-15 -13t-10.5 -14t-3.5 -13q0 -22 36.5 -55t73 -69.5t36.5 -67.5q0 -42 -58 -96t-118 -89.5
t-95 -48.5l-61 52q35 18 75 55.5t40 66.5q0 28 -37.5 65t-75 71.5t-37.5 56.5q0 43 113 119q-103 39 -47 190l106 318h-16q-13 -23 -38 -69q-36 -67 -55 -100t-53 -90t-57 -86.5t-57 -68t-63 -57.5t-65 -33t-73 -14q-82 0 -124 54.5t-11 139.5l112 324h-16
q-51 -90 -90 -154.5t-93 -138t-101.5 -119t-105.5 -76t-114 -30.5z" />
    <glyph glyph-name="uni044A" unicode="&#x44a;" horiz-adv-x="1337" 
d="M362 63l211 852q-83 -6 -142 -22t-105 -49t-79 -71t-77 -103h-76l127 409q127 -49 287 -49h369l-170 -534h18q58 96 143.5 160.5t180.5 64.5q55 0 96.5 -24t64 -64t33 -85.5t10.5 -96.5q0 -217 -145 -344t-377 -127q-70 0 -193.5 26.5t-175.5 56.5zM670 211
q42 -36 93.5 -55t94.5 -19q57 0 95 66.5t38 171.5q0 55 -22.5 88t-67.5 33q-73 0 -138 -81.5t-93 -203.5z" />
    <glyph glyph-name="uni044B" unicode="&#x44b;" horiz-adv-x="1617" 
d="M430 -20q-68 0 -179.5 26t-164.5 57l160 627q10 38 -2 58.5t-56 27.5t-129 -14l-12 98q105 77 236 133t239 56q49 0 63.5 -23.5t-5.5 -89.5l-150 -428h16q51 93 126 153t167 60q73 0 121 -42.5t66 -100.5t18 -127q0 -216 -143.5 -343.5t-370.5 -127.5zM393 211
q25 -36 69 -55t87 -19q57 0 95 66.5t38 171.5q0 55 -22.5 88t-67.5 33q-69 0 -119 -77.5t-80 -207.5zM950 885q301 164 490 164q49 0 63.5 -22.5t-2.5 -90.5l-186 -633q-12 -40 0 -61t41 -21q73 0 190 60l-6 -107q-89 -76 -226 -135t-222 -59q-79 0 -99 53.5t17 185.5
l137 471q17 56 -27.5 85.5t-156.5 10.5z" />
    <glyph glyph-name="uni044C" unicode="&#x44c;" horiz-adv-x="1161" 
d="M555 -20q-70 0 -192 26t-175 57l160 627q9 38 -3 58.5t-56 27.5t-129 -14l-13 98q104 77 236 133t240 56q49 0 63 -23.5t-6 -89.5l-148 -440h19q58 97 142 161t179 64q73 0 121 -42.5t66 -100.5t18 -127q0 -217 -145 -344t-377 -127zM494 211q43 -36 94.5 -55t93.5 -19
q57 0 95 66.5t38 171.5q0 121 -90 121q-71 0 -136 -81.5t-95 -203.5z" />
    <glyph glyph-name="uni044D" unicode="&#x44d;" horiz-adv-x="968" 
d="M553 1049q167 0 262.5 -110t95.5 -277q0 -134 -49 -259t-133 -218t-202.5 -149t-250.5 -56q-82 0 -192.5 28t-110.5 60q0 63 38.5 126.5t76.5 63.5q14 0 61.5 -28t110 -55.5t113.5 -27.5q83 0 148 76t91 211l-307 -26q-58 -5 -96 65q-27 50 -20 84q3 15 14 14
q51 -3 197.5 -15t224.5 -15q2 18 2 57q0 107 -48.5 185.5t-129.5 78.5q-60 0 -126 -34.5t-163 -118.5l-25 106q78 103 187 168.5t231 65.5z" />
    <glyph glyph-name="uni044E" unicode="&#x44e;" horiz-adv-x="1552" 
d="M901 -18q-143 0 -221 97.5t-78 258.5q0 121 51 254q-108 -133 -193 -284t-114 -265l-6 -23l-281 -40l170 710q9 38 -2.5 58.5t-55 27.5t-128.5 -14l-12 98q105 77 236 133t239 56q48 0 61.5 -23.5t-4.5 -89.5l-131 -430h19q71 112 151.5 205.5t174.5 171.5t202 122
t217 44h6q98 0 166.5 -51.5t99.5 -134t31 -189.5q0 -119 -46 -242.5t-124 -223t-191 -163t-237 -63.5zM872 573q0 -88 26 -179t73 -153.5t100 -62.5q48 0 85 44t55 108t18 133q0 90 -26.5 179.5t-72.5 148.5t-96 59q-41 0 -73.5 -24.5t-51 -65t-28 -88.5t-9.5 -99z" />
    <glyph glyph-name="uni044F" unicode="&#x44f;" horiz-adv-x="1179" 
d="M905 295q-18 -74 45 -74q57 0 174 60l-6 -107q-91 -78 -216 -136t-208 -58q-78 0 -99 51t9 172l160 641q-54 39 -115 64.5t-106 25.5q-57 0 -96 -62t-39 -151q0 -100 41 -155.5t122 -55.5h52l-9 -33q-32 -22 -73.5 -69.5t-73.5 -102.5l-51 -86q-137 -239 -269 -239
q-61 0 -92 75t-24 149.5t39 74.5q204 0 286 100l39 47q-75 14 -135 45t-100.5 85.5t-40.5 123.5q0 100 66 186t171 134.5t219 48.5q88 0 267 -35l245 35z" />
    <glyph glyph-name="uni0450" unicode="&#x450;" horiz-adv-x="937" 
d="M526 1272q-159 80 -159 186q0 51 27.5 108.5t66.5 57.5q19 0 84.5 -89.5t148 -212.5t115.5 -163l-23 -24zM43 330q0 122 58 251.5t151 232t219.5 169t253.5 66.5q97 0 155 -46.5t58 -119.5q0 -254 -606 -465q0 -205 164 -205q87 0 178.5 47.5t171.5 132.5l24 -106
q-81 -133 -213.5 -220t-287.5 -87q-146 0 -236 95.5t-90 254.5zM344 530q142 65 219.5 130.5t77.5 146.5q0 86 -70 86q-47 0 -94.5 -58t-80.5 -138.5t-52 -166.5z" />
    <glyph glyph-name="uni0451" unicode="&#x451;" horiz-adv-x="937" 
d="M850 1237q-52 0 -84.5 32.5t-32.5 80.5q0 67 56 118.5t124 51.5q49 0 80 -31.5t31 -79.5q0 -67 -54.5 -119.5t-119.5 -52.5zM43 330q0 122 58 251.5t151 232t219.5 169t253.5 66.5q97 0 155 -46.5t58 -119.5q0 -254 -606 -465q0 -205 164 -205q87 0 178.5 47.5
t171.5 132.5l24 -106q-81 -133 -213.5 -220t-287.5 -87q-146 0 -236 95.5t-90 254.5zM344 530q142 65 219.5 130.5t77.5 146.5q0 86 -70 86q-47 0 -94.5 -58t-80.5 -138.5t-52 -166.5zM365 1350q0 67 56 118.5t124 51.5q49 0 79.5 -31.5t30.5 -79.5q0 -67 -53.5 -119.5
t-120.5 -52.5q-52 0 -84 32.5t-32 80.5z" />
    <glyph glyph-name="uni0452" unicode="&#x452;" horiz-adv-x="1230" 
d="M135 -492q-47 0 -70.5 20t-23.5 48q0 61 39.5 129t77.5 68q39 0 142.5 -40t143.5 -40q38 0 65.5 18t47.5 55.5t35.5 84t35.5 114.5l9 33l225 754q8 38 2.5 48.5t-24.5 10.5q-49 0 -156.5 -131.5t-213.5 -322t-146 -337.5l-281 -40l274 1173h-151l16 94h158l6 29
q19 78 -30 97.5t-210 2.5v99q89 43 264 72.5t320 29.5l-84 -330h285l-17 -94h-292l-172 -668h20q61 113 127 210t141 178.5t155 128.5t155 47q85 0 136 -56.5t23 -150.5l-213 -709q-46 -159 -111 -271.5t-161.5 -194t-232 -120.5t-314.5 -39z" />
    <glyph glyph-name="uni0453" unicode="&#x453;" horiz-adv-x="841" 
d="M221 -20q-114 0 -186 49t-72 127q0 58 33 112t84.5 98t142.5 107l129 88q71 49 105.5 88.5t34.5 83.5q0 54 -33 81.5t-86 27.5q-57 0 -126 -38.5t-132 -105.5l-25 107q77 111 200 177.5t247 66.5q132 0 203 -52.5t71 -144.5q0 -42 -19 -80t-65 -81t-93.5 -78t-133.5 -93
l-84 -57q-131 -88 -131 -176q0 -46 26.5 -73.5t71.5 -27.5q122 0 315 156l25 -106q-110 -119 -244.5 -187.5t-257.5 -68.5zM360 1159q125 162 265 313.5t188 151.5q37 0 55 -44.5t11 -90.5q-7 -41 -42.5 -79.5t-67.5 -58.5t-83 -48l-305 -168z" />
    <glyph glyph-name="uni0454" unicode="&#x454;" horiz-adv-x="950" 
d="M389 -20q-157 0 -252.5 102t-95.5 264q0 93 32 193t92 190t138 162.5t177 115t202 42.5q80 0 187.5 -28t107.5 -60q0 -63 -38.5 -127t-76.5 -64q-14 0 -63 27t-110.5 53.5t-106.5 26.5q-72 0 -134.5 -80.5t-95.5 -196.5q73 3 210.5 14.5t185.5 14.5q20 1 14 -41
q-9 -58 -50 -97q-30 -29 -67 -26l-315 27q-4 -40 -4 -62q0 -101 47.5 -159t132.5 -58q166 0 309 152l25 -107q-71 -127 -196 -202.5t-255 -75.5z" />
    <glyph glyph-name="uni0455" unicode="&#x455;" horiz-adv-x="907" 
d="M-6 115q0 43 11.5 88.5t36 80.5t56.5 35q36 0 112.5 -49t153.5 -98t113 -49q21 0 33 13.5t12 35.5q0 94 -168 262q-196 188 -196 309q0 120 121 213t311 93q43 0 97.5 -7.5t110 -22.5t93 -41.5t37.5 -59.5q0 -44 -39 -118.5t-78 -74.5q-24 0 -70 28.5t-89 62.5
t-92.5 62.5t-80.5 28.5q-57 0 -57 -65q0 -86 164 -250q200 -204 200 -322q0 -125 -104 -207.5t-287 -82.5q-120 0 -260.5 46t-140.5 89z" />
    <glyph glyph-name="uni0456" unicode="&#x456;" horiz-adv-x="739" 
d="M217 -20q-79 0 -99 53.5t17 185.5l137 471q17 56 -27.5 85.5t-156.5 10.5l-12 99q301 164 489 164q49 0 64 -22.5t-2 -90.5l-187 -633q-12 -40 0 -61t41 -21q74 0 191 60l-6 -107q-89 -76 -226.5 -135t-222.5 -59zM408 1352q4 77 71 137.5t146 60.5q64 0 101 -41t32 -102
q-3 -78 -67.5 -139.5t-141.5 -61.5q-65 0 -104.5 42t-36.5 104z" />
    <glyph glyph-name="uni0457" unicode="&#x457;" horiz-adv-x="739" 
d="M217 -20q-79 0 -99 53.5t17 185.5l137 471q17 56 -27.5 85.5t-156.5 10.5l-12 99q301 164 489 164q49 0 64 -22.5t-2 -90.5l-187 -633q-12 -40 0 -61t41 -21q74 0 191 60l-6 -107q-89 -76 -226.5 -135t-222.5 -59zM252 1350q0 67 56 118.5t124 51.5q49 0 80 -31.5
t31 -79.5q0 -67 -53.5 -119.5t-120.5 -52.5q-52 0 -84.5 32.5t-32.5 80.5zM621 1350q0 67 56 118.5t124 51.5q49 0 79.5 -31.5t30.5 -79.5q0 -67 -54.5 -119.5t-119.5 -52.5q-52 0 -84 32.5t-32 80.5z" />
    <glyph glyph-name="uni0458" unicode="&#x458;" horiz-adv-x="708" 
d="M-350 -492q-47 0 -70.5 20t-23.5 48q0 61 39 129t77 68q39 0 143 -40t144 -40q33 0 58.5 14.5t44 37t35.5 65t28.5 83t26.5 105.5l159 692q14 69 -27.5 92.5t-160.5 3.5l-12 99q62 34 106 56t110.5 50.5t129 43t118.5 14.5q47 0 62 -24t0 -89l-178 -803
q-69 -316 -261.5 -470.5t-547.5 -154.5zM416 1352q4 77 71 137.5t146 60.5q64 0 101 -41t32 -102q-3 -78 -67.5 -139.5t-141.5 -61.5q-65 0 -104.5 42t-36.5 104z" />
    <glyph glyph-name="uni0459" unicode="&#x459;" horiz-adv-x="1566" 
d="M109 -23q-86 0 -128 94q-34 76 -21 151q11 61 46 61q34 0 57.5 1.5t53 6t50.5 14.5t42 25.5t35.5 41.5t23.5 60l121 463q-78 -3 -188 -12v112q146 17 434.5 35.5t372.5 18.5q33 0 55 -17t29 -57t-21 -107l-135 -372h18q58 96 143.5 160.5t180.5 64.5q73 0 121 -42.5
t66 -100.5t18 -127q0 -217 -145 -344t-377 -127q-70 0 -193.5 26.5t-175.5 56.5l180 705q8 33 10.5 56t-4 38t-14 23.5t-29.5 12t-39 4.5t-53 1q-86 0 -137 -2l-156 -604q-82 -320 -241 -320zM897 211q43 -36 94.5 -55t93.5 -19q58 0 96 66.5t38 171.5q0 56 -22 88.5
t-67 32.5q-72 0 -137.5 -81.5t-95.5 -203.5z" />
    <glyph glyph-name="uni045A" unicode="&#x45a;" horiz-adv-x="1695" 
d="M1090 -20q-70 0 -192 26t-175 57l102 418h-362l-117 -461l-280 -40l180 710q10 38 -2 58.5t-56 27.5t-129 -14l-12 98q105 77 236 133t239 56q47 0 60.5 -22.5t-2.5 -90.5l-88 -348h358l102 420l281 41l-148 -527h17q57 87 137 143t168 56q73 0 121 -42.5t66 -100.5
t18 -127q0 -217 -145 -344t-377 -127zM1028 211q43 -36 95 -55t94 -19q57 0 95 66.5t38 171.5q0 121 -90 121q-70 0 -135 -79.5t-95 -197.5z" />
    <glyph glyph-name="uni045B" unicode="&#x45b;" horiz-adv-x="1277" 
d="M166 1153l16 94h158l6 29q19 78 -30 97.5t-210 2.5v99q89 43 264 72.5t320 29.5l-84 -330h285l-17 -94h-292l-172 -668h20q61 113 127 210t141 178.5t155 128.5t155 47q85 0 136 -56.5t23 -150.5l-161 -539q-13 -46 -0.5 -64t43.5 -18q57 0 174 60l-6 -107
q-91 -78 -216 -136t-208 -58q-80 0 -101 53.5t15 185.5l155 533q8 38 2.5 48.5t-24.5 10.5q-49 0 -156.5 -131.5t-213.5 -322t-146 -337.5l-281 -40l274 1173h-151z" />
    <glyph glyph-name="uni045C" unicode="&#x45c;" horiz-adv-x="1275" 
d="M57 860q105 77 236 133t239 56q48 0 61.5 -22.5t-1.5 -90.5l-234 -916l-280 -40l180 710q8 27 2 46.5t-24.5 30.5t-60.5 10t-105 -15zM539 481v21q73 109 155.5 206t168.5 174t172 122t157 45q27 0 44 -14t17 -40q0 -50 -29 -133t-69 -92q-100 -22 -219.5 -75.5
t-210.5 -119.5l119 -213q29 -56 71 -87t89 -31q73 0 176 53l6 -107q-91 -91 -190 -150.5t-171 -59.5q-63 0 -101.5 54.5t-86.5 180.5zM645 1159q125 162 265 313.5t188 151.5q37 0 54.5 -44t10.5 -91q-6 -31 -25 -59.5t-50 -52.5t-55.5 -39t-61.5 -35l-305 -168z" />
    <glyph glyph-name="uni045D" unicode="&#x45d;" horiz-adv-x="1290" 
d="M250 -20q-94 0 -149 56t-19 138q109 251 188 551q10 40 -1 61t-40 21q-59 0 -174 -59l6 106q92 78 215.5 136.5t206.5 58.5q78 0 102.5 -50.5t-3.5 -156.5q-68 -264 -183 -574q-7 -20 1.5 -30.5t25.5 -10.5q59 0 160.5 130t195 315t133.5 336l281 41l-178 -746
q-11 -47 0 -64.5t41 -17.5q32 0 88 16.5t108 43.5l-6 -107q-91 -78 -216 -136t-208 -58q-80 0 -101.5 53.5t15.5 185.5l88 295h-16q-56 -106 -122 -199.5t-139 -169.5t-151 -120.5t-149 -44.5zM500 1458q0 51 27.5 108.5t66.5 57.5q19 0 84.5 -89.5t148 -212.5t115.5 -163
l-22 -24l-261 137q-159 80 -159 186z" />
    <glyph glyph-name="uni045E" unicode="&#x45e;" horiz-adv-x="1120" 
d="M-233 -336q29 -2 88 -2q160 0 287 49t190 160q69 117 69 348q0 139 -33 278.5t-86.5 229.5t-109.5 90q-66 0 -141 -61l-6 106q65 68 161 127.5t164 59.5q88 0 156 -92.5t101.5 -237t33.5 -311.5q0 -76 -10 -193q84 147 149 346t84 420q1 32 20 50t50 18q36 0 88 -16
t91.5 -42t37.5 -49q-10 -106 -86 -260t-211.5 -348t-287 -387.5t-353.5 -435.5q-104 0 -227 16.5t-219 46.5v90zM383 1434q0 43 57.5 73t108.5 27.5t63 -23.5q17 -100 55.5 -141t104.5 -41q41 0 80 20t76.5 59t66.5 78t66 95q43 0 68.5 -15t11.5 -44q-16 -30 -34.5 -59.5
t-63 -84t-92.5 -93t-119.5 -69t-147.5 -30.5q-124 0 -212.5 76t-88.5 172z" />
    <glyph glyph-name="uni045F" unicode="&#x45f;" horiz-adv-x="1290" 
d="M233 -20q-94 0 -148.5 56t-18.5 138q109 251 188 551q10 40 -1 61t-40 21q-59 0 -174 -59l6 106q92 78 215.5 136.5t206.5 58.5q78 0 102 -50.5t-4 -156.5q-70 -273 -182 -574q-7 -20 1.5 -30.5t25.5 -10.5q59 0 160.5 130t195 315t133.5 336l281 41l-179 -746
q-11 -47 0 -64.5t41 -17.5q32 0 88.5 16.5t108.5 43.5l-6 -107q-91 -78 -216 -136t-208 -58q-80 0 -101.5 53.5t15.5 185.5l88 295h-16q-76 -143 -166 -260.5t-196.5 -195.5t-199.5 -78zM342 -154q0 33 55 82t111.5 83.5t75.5 39.5l61 -49q-82 -58 -82 -96q0 -17 23 -42
t50 -47t50 -51t23 -53q0 -32 -30 -67.5t-73.5 -63t-80 -46.5t-62.5 -28l-62 52q91 47 91 94q0 22 -23.5 50.5t-51.5 50.5t-51.5 47.5t-23.5 43.5z" />
    </font>
</defs>
</svg>
