<?xml version="1.0" standalone="no"?>
<!DOCTYPE svg PUBLIC "-//W3C//DTD SVG 1.1//EN" "http://www.w3.org/Graphics/SVG/1.1/DTD/svg11.dtd" >
<svg xmlns="http://www.w3.org/2000/svg" xmlns:xlink="http://www.w3.org/1999/xlink" version="1.1">
<metadata>
Created by FontForge 20170731 at Fri Dec  9 10:59:09 2022
 By Aleksey,,,
(c) Pangram Pangram 2022
</metadata>
<defs>
<font id="PPWriter-BlackItalic" horiz-adv-x="983" >
  <font-face 
    font-family="PP Writer Black Italic"
    font-weight="900"
    font-style="italic"
    font-stretch="normal"
    units-per-em="2048"
    panose-1="0 0 0 0 0 0 0 0 0 0"
    ascent="1638"
    descent="-410"
    x-height="1065"
    cap-height="1454"
    bbox="-516.571 -688 12659 2128"
    underline-thickness="102"
    underline-position="-358"
    slope="-14"
    unicode-range="U+0021-1F415"
  />
<missing-glyph horiz-adv-x="1013" 
d="M831 1556v-2027h-643v2027h643zM338 -332h338v68h-207l141 96h66v66h-338v-66h143l-143 -96v-68zM338 -55h338v229h-338v-229zM338 295h338v229h-203v-112h68v45h67v-95h-202v162h-68v-229zM338 569h338v203h-68v-133h-270v-70zM338 684h203v143h135v66h-338v-66h135v-75
h-135v-68zM338 948h338v70h-135v141h-203v-211zM338 1212h338v66h-135v76h135v67h-336v-67h133v-76h-135v-66zM406 12v94h202v-94h-202zM406 1018v72h67v-72h-67z" />
    <glyph glyph-name="f_f" unicode="ff" horiz-adv-x="1574" 
d="M-424 -492q-48 0 -67 21t-19 61q0 58 47 126.5t90 68.5q37 0 167 -52t179 -52q48 0 83 82t65 237l184 942h-201l21 102h209q70 183 244 308t372 125q231 0 361 -93q232 193 692 193q50 0 72.5 -23t13.5 -59q-18 -68 -57.5 -131.5t-79.5 -63.5q-37 0 -167 52.5t-179 52.5
q-85 0 -158 -361h246l-21 -102h-246l-163 -836q-64 -321 -283 -459.5t-639 -138.5q-48 0 -67 21t-19 61q0 60 45 125q-114 -107 -292 -157t-433 -50zM352 -231q22 16 41 16q37 0 167 -52t179 -52q48 0 83 82t65 237l184 942h-409l-164 -836q-39 -203 -146 -337zM682 1044
h414q23 82 65 158q-49 76 -105.5 120t-113.5 44q-100 0 -164 -88t-96 -234z" />
    <glyph glyph-name="f_f_i" unicode="ffi" horiz-adv-x="2344" 
d="M342 -492q-48 0 -67 21t-19 61q0 60 45 125q-114 -107 -292 -157t-433 -50q-48 0 -67 21t-19 61q0 58 47 126.5t90 68.5q37 0 167 -52t179 -52q48 0 83 82t65 237l184 942h-201l21 102h209q70 183 244 308t372 125q225 0 361 -91q228 191 671 191q222 0 222 -109
q0 -63 -62.5 -142t-107.5 -79q-32 0 -86.5 24.5t-105.5 54.5t-117 54.5t-119 24.5q-85 0 -158 -361h104q125 0 253 15.5t214.5 31t108.5 15.5q49 0 64 -18.5t-1 -79.5l-168 -664q-20 -82 43 -82q27 0 85 12.5t102 30.5l-10 -123q-83 -73 -239 -137.5t-247 -64.5
q-96 0 -119 66.5t15 217.5l112 459q13 63 15 104t-13.5 65.5t-38 35.5t-57.5 14h-244l-163 -836q-64 -321 -283 -459.5t-639 -138.5zM352 -231q22 16 41 16q37 0 167 -52t179 -52q48 0 83 82t65 237l184 942h-409l-164 -836q-39 -203 -146 -337zM682 1044h414q22 77 63 158
q-47 76 -103.5 120t-113.5 44q-100 0 -164 -88t-96 -234z" />
    <glyph glyph-name="f_f_l" unicode="ffl" horiz-adv-x="2361" 
d="M342 -492q-48 0 -67 21t-19 61q0 60 45 125q-114 -107 -292 -157t-433 -50q-48 0 -67 21t-19 61q0 58 47 126.5t90 68.5q37 0 167 -52t179 -52q48 0 83 82t65 237l184 942h-201l21 102h209q70 183 244 308t372 125q223 0 353 -86q204 186 546 186q133 0 242 -59
q129 59 221 59l-276 -1233q-11 -51 0 -66.5t43 -15.5q26 0 79.5 12.5t98.5 30.5l-10 -123q-84 -74 -229.5 -138t-235.5 -64q-94 0 -116 66.5t13 217.5l234 1077q-69 33 -159 58.5t-148 25.5q-81 0 -158 -381h246l-21 -102h-246l-163 -836q-64 -321 -283 -459.5t-639 -138.5z
M352 -231q22 16 41 16q37 0 167 -52t179 -52q48 0 83 82t65 237l184 942h-409l-164 -836q-39 -203 -146 -337zM682 1044h414q23 81 63 160q-48 75 -104 118.5t-113 43.5q-100 0 -164 -88t-96 -234z" />
    <glyph glyph-name="f_i" unicode="fi" horiz-adv-x="1579" 
d="M-424 -492q-48 0 -67 21t-19 61q0 58 47 126.5t90 68.5q37 0 167 -52t179 -52q48 0 83 82t65 237l184 942h-201l21 102h205q76 262 291 397.5t596 135.5q221 0 221 -109q0 -63 -62.5 -142t-107.5 -79q-32 0 -86.5 24.5t-105.5 54.5t-117 54.5t-119 24.5q-85 0 -158 -361
h104q125 0 253 15.5t214.5 31t108.5 15.5q49 0 64 -18.5t-1 -79.5l-168 -664q-20 -82 43 -82q27 0 85 12.5t102 30.5l-10 -123q-83 -73 -239 -137.5t-247 -64.5q-96 0 -119 66.5t15 217.5l112 459q13 63 15 104t-13.5 65.5t-38 35.5t-57.5 14h-243l-164 -836
q-64 -321 -283 -459.5t-639 -138.5z" />
    <glyph glyph-name="f_l" unicode="fl" horiz-adv-x="1595" 
d="M-424 -492q-48 0 -67 21t-19 61q0 58 47 126.5t90 68.5q37 0 167 -52t179 -52q48 0 83 82t65 237l184 942h-201l21 102h205q74 257 265.5 395t487.5 138q133 0 242 -59q129 59 221 59l-276 -1233q-11 -51 0 -66.5t43 -15.5q26 0 79.5 12.5t98.5 30.5l-10 -123
q-84 -74 -229.5 -138t-235.5 -64q-94 0 -116 66.5t13 217.5l234 1077q-69 33 -159 58.5t-148 25.5q-81 0 -158 -381h246l-21 -102h-245l-164 -836q-64 -321 -283 -459.5t-639 -138.5z" />
    <glyph glyph-name=".notdef" horiz-adv-x="1013" 
d="M831 1556v-2027h-643v2027h643zM338 -332h338v68h-207l141 96h66v66h-338v-66h143l-143 -96v-68zM338 -55h338v229h-338v-229zM338 295h338v229h-203v-112h68v45h67v-95h-202v162h-68v-229zM338 569h338v203h-68v-133h-270v-70zM338 684h203v143h135v66h-338v-66h135v-75
h-135v-68zM338 948h338v70h-135v141h-203v-211zM338 1212h338v66h-135v76h135v67h-336v-67h133v-76h-135v-66zM406 12v94h202v-94h-202zM406 1018v72h67v-72h-67z" />
    <glyph glyph-name=".null" horiz-adv-x="0" 
 />
    <glyph glyph-name="nonmarkingreturn" horiz-adv-x="682" 
 />
    <glyph glyph-name="space" unicode="&#xa0;" horiz-adv-x="450" 
 />
    <glyph glyph-name="space" unicode=" " horiz-adv-x="450" 
 />
    <glyph glyph-name="exclam" unicode="!" horiz-adv-x="665" 
d="M272 539q14 66 23 137.5t12 173t4 147.5t0.5 181t-0.5 153q0 110 79 178t185 68q73 0 117.5 -39.5t44.5 -110.5q0 -65 -66.5 -236t-145.5 -365t-99 -287h-154zM68 150q0 100 77 173.5t177 73.5q73 0 118 -44t45 -113q0 -103 -75.5 -177.5t-173.5 -74.5q-75 0 -121.5 45.5
t-46.5 116.5z" />
    <glyph glyph-name="quotedbl" unicode="&#x22;" horiz-adv-x="954" 
d="M326 1352q-11 96 37.5 150t152.5 54t129 -53.5t-29 -150.5l-174 -328h-82zM756 1352q-11 96 37.5 150t152.5 54t129.5 -53.5t-28.5 -150.5l-175 -328h-81z" />
    <glyph glyph-name="numbersign" unicode="#" horiz-adv-x="1292" 
d="M485 0l172 369h-256l-172 -369h-174l172 369h-225l78 163h225l180 390h-223l78 163h223l172 369h174l-172 -369h256l172 369h174l-172 -369h226l-78 -163h-225l-181 -390h224l-78 -163h-224l-172 -369h-174zM479 532h256l180 390h-256z" />
    <glyph glyph-name="dollar" unicode="$" horiz-adv-x="1226" 
d="M768 1524q-14 100 17.5 146t113.5 46q76 0 84 -46t-49 -146l-29 -51q56 -3 122.5 -15.5t101.5 -21.5t106 -29l-70 -424h-92q-21 177 -101 265.5t-204 88.5q-131 0 -216 -73.5t-85 -178.5q0 -41 26.5 -72t101 -63.5t206.5 -64.5q196 -48 280 -134.5t84 -207.5
q0 -99 -40.5 -194.5t-113 -173.5t-182.5 -130t-239 -63l8 -64q11 -100 -19 -146t-106 -46q-82 0 -91.5 46t50.5 146l37 64q-215 7 -436 77l51 482h92q47 -214 159.5 -321t256.5 -107q122 0 199 74t77 171q0 81 -76.5 128.5t-246.5 88.5q-211 51 -298 134.5t-87 199.5
q0 145 83 269t223.5 200.5t309.5 91.5z" />
    <glyph glyph-name="percent" unicode="%" horiz-adv-x="1849" 
d="M348 0l1020 1249h178l-1018 -1249h-180zM100 821q0 117 76.5 217t193.5 155.5t240 55.5q148 0 243 -83t95 -210q0 -112 -71 -213t-184.5 -160t-235.5 -59q-157 0 -257 84.5t-100 212.5zM385 797q0 -71 26 -115.5t70 -44.5q40 0 76.5 41t58.5 99t35 115.5t13 96.5
q0 67 -20 107.5t-56 40.5q-45 0 -85.5 -38t-65 -93.5t-38.5 -111.5t-14 -97zM942 279q0 117 76.5 217t193.5 155.5t240 55.5q148 0 243 -83t95 -210q0 -112 -71 -212.5t-185 -160t-236 -59.5q-157 0 -256.5 84t-99.5 213zM1227 254q0 -71 26 -115.5t70 -44.5q42 0 78.5 41.5
t58 100.5t33.5 115t12 93q0 67 -21 108.5t-57 41.5q-45 0 -85 -38t-64 -93.5t-37.5 -111.5t-13.5 -97z" />
    <glyph glyph-name="ampersand" unicode="&#x26;" horiz-adv-x="1792" 
d="M631 -229q-132 0 -236.5 32.5t-171 86.5t-110.5 129t-62 154.5t-18 168.5q0 126 64 257.5t165 233.5t235 167t265 65q71 0 123 -27t78 -71q215 181 329 364l125 -43q-57 -125 -128 -227.5t-156 -183.5t-173 -143t-200 -124q-34 -21 -71 -41t-84 -41.5t-70.5 -32
t-80.5 -34.5t-65 -27q0 -63 6.5 -111.5t30.5 -105t64.5 -93.5t115 -62t176.5 -25q118 0 227.5 51.5t194.5 156.5t113 244q-134 -31 -213.5 -89.5t-85.5 -131.5h-123q0 212 105.5 360.5t285.5 188.5l76 17q164 35 264.5 101t106.5 142h122q0 -221 -103 -370t-282 -189
q-15 -139 -72 -260.5t-141 -209t-188 -151t-216 -95t-222 -31.5zM408 563q108 65 166.5 125t58.5 133q0 78 -49 78q-53 0 -100.5 -103t-75.5 -233z" />
    <glyph glyph-name="quotesingle" unicode="'" horiz-adv-x="524" 
d="M326 1352q-11 96 37.5 150t152.5 54t129 -53.5t-29 -150.5l-174 -328h-82z" />
    <glyph glyph-name="parenleft" unicode="(" horiz-adv-x="763" 
d="M453 -362q-200 109 -309 294t-109 430q0 250 110.5 493.5t299 431.5t421.5 290l49 -51q-164 -146 -289.5 -367t-190 -458.5t-64.5 -458.5q0 -361 155 -553z" />
    <glyph glyph-name="parenright" unicode=")" horiz-adv-x="765" 
d="M354 1577q200 -109 309 -294.5t109 -430.5q0 -187 -64.5 -375t-176 -346.5t-264 -287.5t-326.5 -205l-50 51q164 146 290 367t190.5 459t64.5 458q0 361 -155 553z" />
    <glyph glyph-name="asterisk" unicode="*" horiz-adv-x="980" 
d="M821 834q-69 -43 -120 -19t-46 96l13 209l178 -88q61 -34 53 -93.5t-78 -104.5zM297 1280q38 70 100.5 83t102.5 -40l114 -149l-219 -46q-76 -12 -105.5 34t7.5 118zM348 831q-49 44 -30.5 104.5t92.5 94.5l208 92l-69 -213q-28 -75 -88.5 -98t-112.5 20zM598 1389
q-23 65 20 116t119 51q73 0 93 -51t-27 -116l-139 -189zM696 1169l181 158q63 55 118.5 40.5t63.5 -85.5q7 -70 -42 -115.5t-118 -33.5z" />
    <glyph glyph-name="plus" unicode="+" horiz-adv-x="1069" 
d="M365 82l77 358h-356l31 144h356l76 358h153l-75 -358h350l-31 -144h-350l-78 -358h-153z" />
    <glyph glyph-name="comma" unicode="," horiz-adv-x="622" 
d="M-80 -397q71 80 140 189t69 155q0 29 -21 52.5t-46.5 35.5t-46.5 24.5t-21 22.5q0 22 18.5 58.5t50 75.5t82 67t105.5 28q82 0 125 -45.5t43 -122.5q0 -75 -44.5 -164t-114 -168t-143.5 -145t-143 -110z" />
    <glyph glyph-name="hyphen" unicode="-" horiz-adv-x="849" 
d="M80 391l53 256h635l-53 -256h-635z" />
    <glyph glyph-name="period" unicode="." horiz-adv-x="614" 
d="M184 -12q-75 0 -121.5 45.5t-46.5 116.5q0 100 77 173.5t177 73.5q73 0 118.5 -44t45.5 -113q0 -103 -76 -177.5t-174 -74.5z" />
    <glyph glyph-name="slash" unicode="/" horiz-adv-x="806" 
d="M-174 -342l1005 1898h193l-1006 -1898h-192z" />
    <glyph glyph-name="zero" unicode="0" horiz-adv-x="1189" 
d="M483 -20q-184 0 -298.5 127t-114.5 325q0 133 54.5 268t144 239.5t213.5 170.5t253 66q184 0 298 -127.5t114 -325.5q0 -91 -25 -183t-69 -173.5t-107 -153t-135.5 -123t-157 -81t-170.5 -29.5zM184 547q0 -94 105.5 -156.5t267.5 -62.5q189 0 332 83t143 197
q0 94 -104.5 156.5t-265.5 62.5q-124 0 -234 -37.5t-177 -102.5t-67 -140z" />
    <glyph glyph-name="one" unicode="1" horiz-adv-x="950" 
d="M-35 0l41 92l64 10q168 26 211 224l112 532l-258 -10l21 92q90 18 203.5 60t245.5 98t192 78l28 -21q-56 -174 -90 -326l-151 -716l219 20l-49 -133h-789z" />
    <glyph glyph-name="two" unicode="2" horiz-adv-x="1189" 
d="M-10 92q72 37 158.5 95.5t175.5 134.5t162.5 155t120 163.5t46.5 152.5q0 65 -36.5 102t-102.5 37q-60 0 -137.5 -33t-149.5 -90l-73 41q117 151 274.5 239.5t312.5 88.5q145 0 227.5 -63.5t82.5 -172.5q0 -46 -12.5 -91t-32 -84t-52.5 -80t-64 -72.5t-77 -68.5t-81 -62
t-86.5 -57.5t-83.5 -51.5t-81 -47h295q79 0 135.5 28.5t130.5 104.5h82l-229 -502q-91 41 -352 41h-563z" />
    <glyph glyph-name="three" unicode="3" horiz-adv-x="1069" 
d="M-209 -389q191 50 350 137.5t258 206t99 240.5q0 97 -71 147.5t-189 50.5l-23 41q190 106 286.5 223t96.5 211q0 44 -26.5 69.5t-73.5 25.5q-54 0 -134 -36t-165 -98l-23 82q125 123 261.5 195t246.5 72q135 0 211 -52t76 -143q0 -57 -29 -113.5t-75 -102.5t-109.5 -90
t-125 -76.5t-128.5 -61.5q393 -8 393 -217q0 -104 -68.5 -213t-181.5 -201.5t-253.5 -171.5t-291 -132.5t-286.5 -74.5z" />
    <glyph glyph-name="four" unicode="4" horiz-adv-x="1183" 
d="M455 -471l100 471h-631v92l1096 1086l88 -21l-188 -891h190l-78 -266h-170l-100 -471h-307zM254 266h358l97 455z" />
    <glyph glyph-name="five" unicode="5" horiz-adv-x="1058" 
d="M-229 -389q119 31 240.5 87t226.5 129t171 165t66 182q0 39 -16 73t-47.5 60.5t-65 48t-82 40.5t-84 30.5t-84.5 26.5l51 55q108 129 171 318t63 331h264q255 0 373 39l-78 -367h-504l-57 -139q97 -23 176.5 -55t148.5 -79t107.5 -112.5t38.5 -144.5q0 -93 -46 -185.5
t-125 -170t-183 -147t-222 -122t-240 -90t-239 -55.5z" />
    <glyph glyph-name="six" unicode="6" horiz-adv-x="1239" 
d="M508 -20q-216 0 -336.5 101t-120.5 271q0 134 49 266t135 244.5t202 214t250.5 179t279.5 134t290 85.5l50 -62q-280 -90 -485 -259t-308 -400q165 120 348 120q135 0 222 -84t87 -219q0 -167 -84 -301.5t-236 -212t-343 -77.5zM426 324q0 -119 38 -180.5t107 -61.5
q50 0 96 47t76 114.5t48 138t18 122.5q0 81 -36.5 130.5t-94.5 49.5q-100 0 -215 -76q-37 -130 -37 -284z" />
    <glyph glyph-name="seven" unicode="7" horiz-adv-x="1075" 
d="M-84 -471l969 1341h-367q-89 0 -144 -24t-100.5 -79t-111.5 -173h-82l211 604q102 -41 248 -41h577l2 -92l-973 -1536h-229z" />
    <glyph glyph-name="eight" unicode="8" horiz-adv-x="1241" 
d="M512 -20q-218 0 -352.5 88t-134.5 223q0 272 395 424q-77 70 -115.5 133t-38.5 147q0 105 54 197t140 152.5t190.5 95.5t207.5 35q181 0 287 -72.5t106 -183.5q0 -123 -113.5 -225t-263.5 -140q58 -44 89.5 -69t73.5 -64.5t62.5 -70t36 -70.5t15.5 -82q0 -134 -91 -254.5
t-239 -192t-309 -71.5zM356 297q0 -102 57.5 -158.5t147.5 -56.5q54 0 97.5 15t70 37.5t44 52t24 55t6.5 49.5q0 28 -12 57t-25.5 50.5t-47.5 55.5t-53 51t-69 59t-70 59q-24 20 -34 30q-136 -191 -136 -356zM584 1169q0 -32 13 -61t46.5 -63t64 -59.5t93.5 -74.5
q162 158 162 306q0 78 -46 116.5t-120 38.5q-83 0 -148 -62.5t-65 -140.5z" />
    <glyph glyph-name="nine" unicode="9" horiz-adv-x="1255" 
d="M-137 -410q149 46 292 136t258.5 205.5t208 247.5t154.5 270q-73 -88 -168 -144.5t-188 -56.5q-144 0 -243 94.5t-99 241.5q0 146 101.5 285t262 224t324.5 85q210 0 335.5 -106.5t125.5 -299.5q0 -126 -55.5 -265t-150 -267.5t-224 -249t-274 -214.5t-304 -159.5
t-309.5 -87.5zM446 678q0 -92 41.5 -158.5t120.5 -66.5q119 0 215 114q54 157 54 293q0 114 -37 164.5t-111 50.5q-68 0 -136 -69t-107.5 -161t-39.5 -167z" />
    <glyph glyph-name="colon" unicode=":" horiz-adv-x="634" 
d="M205 -12q-75 0 -121.5 45.5t-46.5 116.5q0 100 77 173.5t177 73.5q73 0 118.5 -44t45.5 -113q0 -103 -76 -177.5t-174 -74.5zM180 807q0 100 77.5 174t176.5 74q73 0 118.5 -44.5t45.5 -113.5q0 -103 -76 -177.5t-174 -74.5q-75 0 -121.5 45.5t-46.5 116.5z" />
    <glyph glyph-name="semicolon" unicode=";" horiz-adv-x="649" 
d="M344 625q-75 0 -121.5 45t-46.5 116q0 100 77.5 174t176.5 74q73 0 118.5 -44t45.5 -113q0 -103 -76 -177.5t-174 -74.5zM-53 -397q71 80 140 189t69 155q0 29 -21 52.5t-47 35.5t-47 24.5t-21 22.5q0 22 18.5 58.5t50 75.5t82 67t105.5 28q82 0 125 -45.5t43 -122.5
q0 -75 -44.5 -164t-113.5 -168t-143.5 -145t-142.5 -110z" />
    <glyph glyph-name="less" unicode="&#x3c;" horiz-adv-x="927" 
d="M137 571h2l6 31l740 402l-37 -179l-608 -333l460 -355l-32 -157l-566 428l2 10l2 12z" />
    <glyph glyph-name="equal" unicode="=" horiz-adv-x="962" 
d="M119 565l31 144h737l-31 -144h-737zM49 229l29 144h737l-29 -144h-737z" />
    <glyph glyph-name="greater" unicode="&#x3e;" horiz-adv-x="927" 
d="M780 432h-2l-6 -31l-739 -401l37 178l608 334l-461 354l33 158l565 -428l-2 -10l-2 -13z" />
    <glyph glyph-name="question" unicode="?" horiz-adv-x="925" 
d="M311 498q-2 3 -11 18t-11.5 19.5t-10.5 19t-11 21t-10 20t-9.5 22t-7 22t-6.5 24t-3.5 23t-1.5 24.5q0 78 56.5 146.5t136.5 115t160.5 84t137 68.5t56.5 53q0 11 -10 20t-32.5 17.5t-44.5 15t-60.5 13.5t-65.5 11.5t-73.5 12.5t-71.5 12q-35 5 -54.5 67t-19.5 123
q0 107 125 107q126 0 240.5 -49.5t189 -144.5t74.5 -212q0 -80 -29 -142.5t-76 -101.5t-103.5 -70t-112.5 -57t-103 -54t-76 -69.5t-29 -94.5q0 -44 21 -84h-154zM158 150q0 100 77 173.5t177 73.5q73 0 118 -44t45 -113q0 -103 -75.5 -177.5t-173.5 -74.5
q-75 0 -121.5 45.5t-46.5 116.5z" />
    <glyph glyph-name="at" unicode="@" horiz-adv-x="2109" 
d="M756 -389q-200 0 -369 78t-271 223t-102 328q0 132 47 268t130 258.5t202.5 230t258.5 186t304.5 124t333.5 45.5q152 0 295 -46.5t252.5 -127.5t175.5 -199.5t66 -253.5q0 -132 -54.5 -265.5t-145 -239.5t-220 -173t-268.5 -67q-146 0 -224 65t-59 178l18 117h-28
q-86 -168 -185 -264t-198 -96q-108 0 -160.5 84.5t-52.5 224.5q0 160 46 302.5t127.5 247t199.5 165.5t255 61q87 0 242 -117l139 115h62l-172 -842q-14 -69 9 -104t69 -35q80 0 148.5 70t109.5 171.5t63.5 201.5t22.5 173q0 249 -172 400t-445 151q-115 0 -224.5 -32
t-200 -88.5t-170 -132t-138.5 -165.5t-102 -187t-64.5 -197t-21.5 -195q0 -232 147.5 -365t394.5 -133q280 0 426 56l29 -62q-281 -137 -526 -137zM836 307q0 -23 7 -37t17 -14q25 0 66 35t88 98t96 169t82 230q-116 95 -180 95q-38 0 -81.5 -129t-69 -264t-25.5 -183z" />
    <glyph glyph-name="A" unicode="A" horiz-adv-x="1716" 
d="M821 0l43 102l70 21q64 19 84 51.5t20 95.5l-2 125h-563l-229 -272l225 20l-51 -143h-539l43 102l98 21q16 3 31 9.5t26.5 12t27 18t23.5 19.5t24 24.5t21.5 24t24 28.5t23.5 28l191 225l2 6h4l592 701q-56 126 -256 194l16 41h600l19 -1331l223 20l-51 -143h-740z
M578 518h458l-6 535z" />
    <glyph glyph-name="B" unicode="B" horiz-adv-x="1529" 
d="M-29 0l39 102l68 19q54 15 81 45t38 84l231 1081l-180 -20l51 143h735q214 0 336.5 -76t122.5 -202q0 -105 -59.5 -194t-158 -143.5t-216.5 -68.5q180 -17 280.5 -93t100.5 -194q0 -93 -56.5 -183t-147 -155t-207.5 -105t-234 -40h-824zM528 123h138q100 0 174 28t113 68
t62.5 95t29.5 95.5t6 84.5q0 93 -56.5 145.5t-169.5 52.5h-176zM674 805h168q60 0 109.5 24.5t80 62.5t51 86.5t29 93t8.5 85.5q0 174 -188 174h-148z" />
    <glyph glyph-name="C" unicode="C" horiz-adv-x="1552" 
d="M793 -20q-206 0 -363.5 70t-245.5 202t-88 307q0 151 53.5 292t148.5 253t220.5 196t276 129.5t307.5 45.5q268 0 502 -107l-70 -426h-92q-31 201 -120 300t-275 99q-95 0 -177.5 -35.5t-142 -96.5t-106.5 -139.5t-75 -169t-42.5 -181t-14.5 -178.5q0 -206 87 -317
t253 -111q116 0 211 44.5t174.5 128.5t171.5 226h93l-183 -471q-226 -61 -503 -61z" />
    <glyph glyph-name="D" unicode="D" horiz-adv-x="1759" 
d="M-27 0l43 102l64 19q55 15 95 53.5t50 89.5l228 1067l-205 -20l51 143h750q162 0 297.5 -43.5t227 -119t142.5 -178t51 -220.5q0 -172 -77.5 -334.5t-209.5 -286t-321 -198t-399 -74.5h-787zM553 123h233q105 0 199.5 45t164.5 121.5t121 176t77 211.5t26 224
q0 196 -109.5 313t-322.5 117h-133z" />
    <glyph glyph-name="E" unicode="E" horiz-adv-x="1495" 
d="M-29 0l43 102l64 19q121 34 141 133l230 1077l-201 -20l51 143h877q132 0 286 62l-32 -541h-93q-41 177 -108 266.5t-180 89.5h-244l-113 -528h129q70 0 128 52t112 181h92l-123 -577h-92q0 130 -35.5 180.5t-105.5 50.5h-127l-121 -567h313q118 0 239 117t224 301h92
l-229 -602q-122 61 -273 61h-944z" />
    <glyph glyph-name="F" unicode="F" horiz-adv-x="1234" 
d="M-29 0l43 102l64 19q121 34 143 143l228 1067l-201 -20l51 143h858q133 0 287 62l-49 -521h-92q-24 169 -90 252.5t-183 83.5h-225l-121 -571h150q94 0 147 50t92 183h92l-121 -577h-92q15 134 -16 182.5t-125 48.5h-152l-110 -524l260 20l-51 -143h-787z" />
    <glyph glyph-name="G" unicode="G" horiz-adv-x="1732" 
d="M817 -20q-335 0 -529 150t-194 411q0 192 79.5 365t216 297.5t328.5 198t408 73.5q255 0 478 -62l-60 -471h-92q-14 83 -44 152t-79 126t-125.5 89t-173.5 32q-92 0 -172.5 -36.5t-138.5 -99t-103.5 -143t-73 -172t-41.5 -182t-14 -176.5q0 -199 94.5 -309t272.5 -110
q261 0 301 186l80 371l-309 -21l47 123h760l-41 -92q-48 0 -83 -24t-44 -68l-64 -305q-4 -28 -4 -37q0 -68 68 -68l-6 -69q-220 -71 -382.5 -100t-359.5 -29z" />
    <glyph glyph-name="H" unicode="H" horiz-adv-x="1888" 
d="M987 0l43 102l64 19q100 28 123 143l86 410h-637l-117 -551l199 20l-52 -143h-725l43 102l64 19q122 37 143 143l225 1067l-198 -20l51 143h709l-43 -102l-68 -21q-101 -32 -123 -143l-82 -391h637l113 534l-199 -20l51 143h709l-43 -102l-68 -21q-101 -32 -123 -143
l-225 -1065l199 20l-51 -143h-705z" />
    <glyph glyph-name="I" unicode="I" horiz-adv-x="913" 
d="M-18 0l43 102l63 19q67 20 99.5 54t43.5 89l228 1067l-201 -20l51 143h711l-41 -102l-70 -21q-99 -28 -123 -143l-227 -1065l199 20l-51 -143h-725z" />
    <glyph glyph-name="J" unicode="J" horiz-adv-x="755" 
d="M-299 -389q92 65 163 132t135 152.5t110 191.5t73 232l215 1012l-258 -20l51 143h766l-41 -102l-77 -23q-45 -13 -74.5 -53.5t-40.5 -97.5l-182 -852q-34 -160 -99 -294t-146 -225.5t-176 -155t-189.5 -93t-186.5 -29.5z" />
    <glyph glyph-name="K" unicode="K" horiz-adv-x="1771" 
d="M1616 -20q-205 0 -334 25.5t-203.5 77t-124.5 142.5l-233 430l10 41l780 631l-262 -16l51 143h619l-41 -102q-119 -16 -188 -49.5t-150 -100.5l-512 -414l287 -469q72 -118 137 -178.5t184 -120.5zM-25 0l43 102l64 19q55 15 93 53t48 90l228 1067l-203 -20l51 143h709
l-41 -102l-66 -21q-101 -33 -123 -143l-227 -1065l180 20l-51 -143h-705z" />
    <glyph glyph-name="L" unicode="L" horiz-adv-x="1325" 
d="M-29 0l43 102l64 19q121 34 141 135l230 1075l-201 -20l51 143h770l-41 -102l-129 -21q-58 -9 -82 -35.5t-41 -107.5l-254 -1188h-551zM522 0l27 123h194q63 0 127.5 33t123.5 93t111 132t101 160h92l-229 -602q-129 61 -272 61h-275z" />
    <glyph glyph-name="M" unicode="M" horiz-adv-x="2150" 
d="M2 0l43 102l84 21q91 22 115 115l254 983q-34 49 -88.5 92.5t-137.5 99.5l19 41h571l262 -911l600 911h562l-33 -61l-47 -21q-81 -36 -119.5 -75.5t-48.5 -100.5l-191 -1073l199 20l-51 -143h-711l43 102l64 19q102 28 122 143l160 897l-766 -1181h-41l2 6l-4 -6
l-293 1052l-227 -909l227 20l-51 -143h-518z" />
    <glyph glyph-name="N" unicode="N" horiz-adv-x="1699" 
d="M-41 0l43 102l113 11q104 8 125 102l213 999q-80 101 -232 199l17 41h536l596 -919l170 796l-283 -20l52 143h622l-41 -102l-112 -11q-51 -4 -84.5 -36t-44.5 -84l-242 -1139l-156 -102l-698 1083l-201 -940l281 20l-51 -143h-623z" />
    <glyph glyph-name="O" unicode="O" horiz-adv-x="1763" 
d="M774 -20q-195 0 -350 81.5t-239.5 220t-84.5 306.5q0 171 81 334t215 284.5t317.5 195t378.5 73.5q147 0 273 -48t213.5 -130t137 -193.5t49.5 -237.5q0 -171 -80.5 -333.5t-213.5 -283.5t-317 -195t-380 -74zM504 627q0 -142 44.5 -259.5t125 -186t180.5 -68.5
q95 0 178.5 43.5t142.5 116.5t102 166t64 192.5t21 195.5q0 142 -44.5 259.5t-125 186t-180.5 68.5q-95 0 -178.5 -43.5t-142.5 -116.5t-102 -166t-64 -192.5t-21 -195.5z" />
    <glyph glyph-name="P" unicode="P" horiz-adv-x="1521" 
d="M-29 0l39 102l90 29q53 17 82.5 54t38.5 79l228 1067l-201 -20l51 143h705q287 0 438 -85t151 -259q0 -120 -61.5 -220.5t-162.5 -166t-228 -101.5t-262 -36h-232l-98 -463l219 20l-51 -143h-746zM672 698h137q89 0 164 31.5t123.5 83.5t75 116.5t26.5 131.5
q0 122 -66 196t-190 74h-137z" />
    <glyph glyph-name="Q" unicode="Q" horiz-adv-x="1792" 
d="M1524 -362q-69 0 -129 22t-103.5 56t-84.5 88t-69 104.5t-59 118.5q-146 -47 -305 -47q-195 0 -350 81.5t-239.5 220t-84.5 306.5q0 171 81 334t215 284.5t317.5 195t378.5 73.5q147 0 273 -48t213.5 -130t137 -193.5t49.5 -237.5q0 -210 -117.5 -402t-314.5 -319
q29 -57 54 -98t60.5 -84t73 -70t88.5 -44t109 -17q116 0 221 23l7 -52q-85 -44 -241 -104.5t-181 -60.5zM504 627q0 -45 6 -92q176 90 324 90q73 0 134.5 -21t108.5 -61.5t82 -86t70 -108.5q64 102 98.5 229t34.5 250q0 142 -44.5 259.5t-125 186t-180.5 68.5
q-95 0 -178.5 -43.5t-142.5 -116.5t-102 -166t-64 -192.5t-21 -195.5zM518 475q31 -162 121.5 -262t214.5 -100q90 0 170 39q-22 50 -36.5 80.5t-36.5 73t-40 68.5t-43 55.5t-49.5 45.5t-55.5 26.5t-65 10.5q-85 0 -180 -37z" />
    <glyph glyph-name="R" unicode="R" horiz-adv-x="1761" 
d="M-29 0l43 102l84 25q100 29 125 149l226 1055l-201 -20l51 143h694q173 0 300 -36.5t200.5 -114t73.5 -189.5q0 -172 -126 -297.5t-302 -152.5l155 -345q22 -50 48.5 -89t51 -66t64 -54t70.5 -44t88 -46l-21 -40q-323 0 -473 51t-188 194l-107 391h-174l-104 -493l199 20
l-52 -143h-725zM676 719h145q81 0 149.5 35t113 91.5t69.5 127t25 143.5q0 100 -59.5 157.5t-166.5 57.5h-147z" />
    <glyph glyph-name="S" unicode="S" horiz-adv-x="1226" 
d="M528 -20q-249 0 -495 79l51 482h92q47 -214 159.5 -321t256.5 -107q122 0 199 74t77 171q0 81 -76.5 128.5t-246.5 88.5q-211 51 -298 134.5t-87 199.5q0 156 95.5 287t254.5 205t344 74q65 0 140.5 -12t121 -23.5t119.5 -32.5l-70 -424h-92q-21 177 -101 265.5
t-204 88.5q-131 0 -216 -73.5t-85 -178.5q0 -41 26.5 -72t101 -63.5t206.5 -64.5q196 -48 280 -134.5t84 -207.5q0 -104 -45.5 -204.5t-125.5 -180.5t-202 -129t-264 -49z" />
    <glyph glyph-name="T" unicode="T" horiz-adv-x="1486" 
d="M262 0l43 102l90 31q118 41 146 172l217 1026h-131q-102 0 -180 -80t-160 -235h-92l143 479q124 -41 272 -41h707q149 0 293 41l-62 -479h-92q-27 158 -51 212q-41 95 -136 102q-8 1 -18 1h-135l-256 -1208l240 20l-51 -143h-787z" />
    <glyph glyph-name="U" unicode="U" horiz-adv-x="1654" 
d="M797 -20q-310 0 -465 125t-109 339l189 887l-181 -20l52 143h708l-41 -102l-63 -21q-69 -22 -106.5 -72t-53.5 -126l-129 -607q-36 -173 46.5 -269.5t262.5 -96.5q168 0 281 88.5t149 257.5l176 825l-233 -20l51 143h520l-41 -102l-47 -11q-63 -14 -94.5 -46t-48.5 -107
l-137 -641q-58 -271 -240 -419t-446 -148z" />
    <glyph glyph-name="V" unicode="V" horiz-adv-x="1685" 
d="M410 -20l-43 1351l-160 -20l51 143h774l-41 -102l-137 -17q-77 -8 -106 -50t-27 -118l20 -712l783 876l-275 -20l51 143h607l-41 -102l-78 -17q-71 -14 -124.5 -51.5t-113.5 -105.5l-1069 -1198h-71z" />
    <glyph glyph-name="W" unicode="W" horiz-adv-x="2314" 
d="M1477 -20l-168 874l-598 -874h-72l-252 1351l-178 -10l49 133h733l-41 -102l-71 -21q-55 -15 -72.5 -53t-3.5 -111l121 -657l352 516l-59 305l-166 -10l49 133h764l-41 -102l-94 -21q-66 -13 -84.5 -48.5t-4.5 -121.5l97 -581l420 751l-238 -10l49 133h567l-41 -102
l-98 -21q-64 -14 -105 -48.5t-85 -113.5l-658 -1189h-71z" />
    <glyph glyph-name="X" unicode="X" horiz-adv-x="1724" 
d="M698 0l43 102l117 21q64 11 89.5 42t2.5 75l-162 311l-419 -438l233 30l-51 -143h-619l43 102l140 21q50 7 110.5 44t108.5 87l393 412l-346 665l-174 -20l51 143h862l-41 -102l-96 -21q-74 -17 -100 -48t-6 -69l170 -329l438 446l-232 -20l52 143h577l-41 -102l-106 -21
q-50 -10 -95 -36t-102 -85l-432 -442l332 -645l182 20l-51 -143h-871z" />
    <glyph glyph-name="Y" unicode="Y" horiz-adv-x="1599" 
d="M346 0l43 102l47 21q74 32 114 76t54 106l66 303l-281 723l-182 -20l51 143h770l-41 -102l-104 -21q-69 -13 -84.5 -41.5t10.5 -89.5l176 -452l473 583l-221 -20l51 143h533l-41 -102l-88 -19q-46 -9 -84 -36t-90 -89l-490 -600l-104 -485l239 20l-51 -143h-766z" />
    <glyph glyph-name="Z" unicode="Z" horiz-adv-x="1288" 
d="M-66 0l-24 123l1141 1220l-355 -12q-278 -9 -479 -389h-92l201 553q124 -41 313 -41h813l27 -123l-1145 -1220l371 12q72 2 126 23.5t106 74.5t98.5 125.5t111.5 194.5h92l-123 -582q-124 41 -315 41h-867z" />
    <glyph glyph-name="bracketleft" unicode="[" horiz-adv-x="765" 
d="M-43 -342l403 1898h564l-27 -122h-235l-353 -1653h236l-25 -123h-563z" />
    <glyph glyph-name="backslash" unicode="\" horiz-adv-x="935" 
d="M741 -342h-166l-337 1898h165z" />
    <glyph glyph-name="bracketright" unicode="]" horiz-adv-x="765" 
d="M850 1552l-404 -1898h-563l27 123h235l353 1653h-236l25 122h563z" />
    <glyph glyph-name="asciicircum" unicode="^" horiz-adv-x="704" 
d="M668 1004l-121 337l-268 -337h-164l360 450h195l161 -450h-163z" />
    <glyph glyph-name="underscore" unicode="_" horiz-adv-x="1050" 
d="M-205 -342l51 246h1041l-51 -246h-1041z" />
    <glyph glyph-name="grave" unicode="`" horiz-adv-x="638" 
d="M465 1229q-37 15 -69.5 34t-66.5 46.5t-54.5 64t-20.5 76.5q0 62 33.5 133.5t83.5 71.5q19 0 83.5 -97.5t147.5 -229t125 -181.5l-18 -21z" />
    <glyph glyph-name="a" unicode="a" horiz-adv-x="1187" 
d="M242 -20q-108 0 -160.5 84.5t-52.5 224.5q0 160 46 302.5t127.5 247t199.5 165.5t255 61q81 0 224 -104l206 208h62l-203 -825q-4 -14 -5.5 -23.5t-1 -22t5.5 -19.5t16.5 -12t29.5 -5q50 0 158 43l-10 -123q-88 -78 -214.5 -140t-213.5 -62q-54 0 -80 31t-17 85l39 244
h-28q-86 -168 -185 -264t-198 -96zM362 307q0 -23 7.5 -37t17.5 -14q25 0 66 35t88 98t96 169t82 230q-116 95 -180 95q-38 0 -81.5 -128.5t-69.5 -264t-26 -183.5z" />
    <glyph glyph-name="b" unicode="b" horiz-adv-x="1161" 
d="M485 -20q-60 0 -189 30t-216 64l260 1161q20 86 -53 105t-149 -2q-20 -2 -29 -3v123q96 46 287.5 82.5t357.5 36.5l-240 -862h23q156 350 344 350q122 0 181.5 -93t59.5 -243q0 -153 -47 -290t-129.5 -238.5t-202.5 -161t-258 -59.5zM451 256q58 -43 115 -68.5t89 -25.5
q44 0 87.5 184.5t43.5 263.5q0 178 -53 178q-49 0 -122 -111.5t-134 -318.5l-2 -12h-2q-5 -24 -22 -90z" />
    <glyph glyph-name="c" unicode="c" 
d="M444 -20q-177 0 -285 110t-108 279q0 118 53 241.5t141 224.5t215 165.5t263 64.5q50 0 116.5 -8.5t125.5 -30t59 -49.5q0 -73 -44 -148t-87 -75q-15 0 -59 28t-100 56t-99 28q-57 0 -104 -43t-74 -108.5t-41.5 -134.5t-14.5 -129q0 -97 40.5 -151t115.5 -54
q72 0 148 45.5t167 134.5l25 -123q-75 -150 -198.5 -236.5t-254.5 -86.5z" />
    <glyph glyph-name="d" unicode="d" horiz-adv-x="1253" 
d="M254 -20q-108 0 -160.5 83.5t-52.5 221.5q0 149 45.5 289.5t125.5 249.5t199.5 175t258.5 66q48 0 121 -39l51 209q6 27 4.5 46t-11 32t-24.5 19.5t-34.5 9.5t-42 3t-47 -2t-49.5 -5q-19 -2 -28 -3v123q96 46 288 82.5t359 36.5l-284 -1233q-8 -34 1.5 -58t41.5 -24
q27 0 86.5 12.5t103.5 30.5l-10 -123q-89 -78 -213.5 -140t-210.5 -62q-72 0 -116 53t-35 139l14 129h-23l2 10q-82 -156 -174.5 -243.5t-185.5 -87.5zM375 305q0 -49 16 -49q25 0 67 35t91 98t99 169t83 230q-116 95 -180 95q-40 0 -83.5 -128t-68 -263t-24.5 -187z" />
    <glyph glyph-name="e" unicode="e" 
d="M43 342q0 126 64 257.5t165 233.5t235 167t265 65q102 0 161.5 -52.5t59.5 -119.5q0 -44 -21.5 -87.5t-55 -79t-84.5 -72.5t-99.5 -64.5t-111.5 -58t-109 -50t-103 -43.5q-7 -3 -10 -4q0 -188 152 -188q75 0 165.5 47.5t176.5 132.5l25 -123q-85 -147 -220 -235t-299 -88
q-158 0 -257 99t-99 263zM418 563q108 65 166.5 125t58.5 133q0 78 -49 78q-53 0 -100.5 -103t-75.5 -233z" />
    <glyph glyph-name="f" unicode="f" horiz-adv-x="808" 
d="M-424 -492q-48 0 -67 21t-19 61q0 58 47 126.5t90 68.5q37 0 167 -52t179 -52q48 0 83 82t65 237l184 942h-201l21 102h205q50 173 158 289t295.5 180t453.5 64q50 0 72.5 -23t13.5 -59q-18 -68 -57.5 -131.5t-79.5 -63.5q-37 0 -167 52.5t-179 52.5q-85 0 -158 -361h246
l-21 -102h-245l-164 -836q-64 -321 -283 -459.5t-639 -138.5z" />
    <glyph glyph-name="g" unicode="g" horiz-adv-x="1177" 
d="M442 -492q-117 0 -219 16t-185.5 48t-132 87t-48.5 128q0 102 90 168t225 88q-80 64 -80 143q0 37 89.5 86.5t187.5 77.5q-150 18 -239 85.5t-89 170.5q0 115 83 221.5t217.5 171t279.5 64.5q70 0 139 -16q76 116 191.5 191t271.5 75q20 0 31.5 -14t11.5 -35
q0 -88 -43.5 -154t-100.5 -66q-139 0 -260 -34q72 -39 112 -97t40 -127q0 -83 -45 -163t-118.5 -139.5t-172 -97t-201.5 -40.5q-12 -36 -12 -65q0 -18 106 -58l267 -98q102 -38 149 -80t47 -102q0 -71 -40 -146t-112 -140t-188 -107t-252 -42zM209 -137q0 -72 105.5 -121
t271.5 -49q72 0 120 14.5t48 36.5q0 31 -88 70l-392 176q-65 -62 -65 -127zM403 791q0 -56 20.5 -127t60 -127t85.5 -56q64 0 64 123q0 42 -9 95t-25.5 106.5t-46.5 89t-67 35.5q-82 0 -82 -139z" />
    <glyph glyph-name="h" unicode="h" horiz-adv-x="1380" 
d="M352 1239q17 71 -34.5 92t-208.5 4v123q95 46 293 82.5t366 36.5l-289 -1059h21v-2q58 112 121 205.5t135.5 173.5t151.5 125t155 45q65 0 119 -29.5t79.5 -85t4.5 -121.5l-150 -485q-16 -50 -2.5 -66t47.5 -16q50 0 158 43l-10 -123q-86 -76 -221.5 -139t-223.5 -63
q-98 0 -125.5 68t15.5 216l141 471q12 51 7.5 61.5t-25.5 10.5q-45 0 -145.5 -131t-200.5 -320.5t-138 -335.5l-346 -40z" />
    <glyph glyph-name="i" unicode="i" horiz-adv-x="827" 
d="M258 -20q-97 0 -122.5 67.5t18.5 216.5l110 365q19 64 -28 107t-142 42l-20 123q122 57 286 110.5t289 53.5q33 0 49 -6.5t23.5 -28t-8.5 -63.5l-189 -623q-13 -41 0 -61.5t43 -20.5q27 0 85 12.5t102 30.5l-11 -123q-83 -73 -238.5 -137.5t-246.5 -64.5zM418 1327
q0 96 81 172t179 76q71 0 115.5 -44.5t44.5 -111.5q0 -98 -78 -176t-174 -78q-74 0 -121 46t-47 116z" />
    <glyph glyph-name="j" unicode="j" horiz-adv-x="780" 
d="M-322 -492q-58 0 -80 26t-22 56q0 67 36 151.5t77 84.5q49 0 174 -62.5t172 -62.5q49 0 84.5 69.5t64.5 211.5l131 647q18 87 -25 119t-147 30l-20 123q69 32 108 49t123 50t160 49t143 16q47 0 61 -18.5t3 -79.5l-156 -803q-32 -165 -95 -284t-167.5 -204t-259.5 -126.5
t-365 -41.5zM428 1327q0 96 81 172t179 76q71 0 115.5 -44.5t44.5 -111.5q0 -98 -78 -176t-174 -78q-74 0 -121 46t-47 116z" />
    <glyph glyph-name="k" unicode="k" horiz-adv-x="1277" 
d="M817 -20q-76 0 -112 56t-60 179l-39 207q-143 -157 -200 -402l-347 -40l291 1296q18 75 -28 96t-203 4v123q96 46 287.5 82.5t357.5 36.5l-252 -1120q71 115 152 214.5t168 179.5t178 126.5t172 46.5q28 0 47.5 -14t19.5 -39q0 -33 -10.5 -88.5t-39 -116.5t-66.5 -74
q-227 -78 -369 -178l82 -152q27 -49 72 -75.5t94 -26.5q39 0 73.5 9t98.5 36l10 -123q-103 -109 -204 -176t-173 -67z" />
    <glyph glyph-name="l" unicode="l" horiz-adv-x="788" 
d="M340 1235q13 51 -1.5 74.5t-69.5 31.5t-160 -6v123q95 46 289.5 82.5t361.5 36.5l-297 -1233q-12 -51 -0.5 -66.5t43.5 -15.5q26 0 79.5 12.5t98.5 30.5l-10 -123q-84 -74 -229.5 -138t-235.5 -64q-95 0 -118 66.5t15 217.5z" />
    <glyph glyph-name="m" unicode="m" horiz-adv-x="1968" 
d="M63 860q89 75 253 140t298 65q33 0 49.5 -6.5t23.5 -28.5t-9 -63l-129 -414h20q53 105 109.5 193.5t118 162t127 115t125.5 41.5q112 0 157.5 -64.5t12.5 -171.5l-80 -262h18q52 104 105.5 189.5t113 157t122.5 111.5t122 40q81 0 141.5 -29.5t86.5 -84t5 -122.5
l-149 -485q-16 -50 -2.5 -66t47.5 -16q50 0 158 43l-11 -123q-90 -80 -217 -141t-227 -61q-98 0 -125.5 68t14.5 216l138 471q12 33 9 49t-8.5 19.5t-19.5 3.5q-44 0 -129.5 -132t-168.5 -318.5t-122 -336.5l-346 -40l213 755q11 51 6.5 61.5t-24.5 10.5
q-44 0 -133.5 -131.5t-176.5 -319t-126 -336.5l-344 -40l147 649q16 68 -24 96.5t-148 11.5z" />
    <glyph glyph-name="n" unicode="n" horiz-adv-x="1421" 
d="M63 860q89 75 252 140t297 65q33 0 49.5 -6.5t23.5 -28.5t-9 -63l-133 -428h20q55 108 113.5 198t125.5 166t140 119t143 43q117 0 186 -67.5t38 -168.5l-150 -485q-6 -28 -8 -44t7 -24.5t18.5 -11t25.5 -2.5q50 0 158 43l-10 -123q-86 -76 -221.5 -139t-223.5 -63
q-98 0 -125.5 67.5t15.5 216.5l143 471q12 51 7.5 61.5t-25.5 10.5q-45 0 -141.5 -131t-192 -320t-133.5 -336l-344 -40l147 649q16 68 -24 96.5t-148 11.5z" />
    <glyph glyph-name="o" unicode="o" horiz-adv-x="1060" 
d="M377 -18q-152 0 -241 102.5t-89 267.5q0 93 31.5 194t90 192.5t135 165t174.5 117.5t200 44q150 0 240 -109t90 -280q0 -124 -49.5 -248.5t-132.5 -223t-202 -160.5t-247 -62zM387 678q0 -99 26.5 -213.5t72.5 -197.5t94 -83q22 0 39.5 21t27 52.5t14.5 62.5t5 57
q0 101 -27 213.5t-72 191t-90 78.5q-90 0 -90 -182z" />
    <glyph glyph-name="p" unicode="p" horiz-adv-x="1210" 
d="M-139 -387q78 20 120.5 61.5t57.5 108.5l203 846q16 68 -24 96.5t-148 11.5l-21 123q92 77 244 141t285 64q26 0 41 -3.5t26 -13t10 -30t-14 -51.5l-113 -277h21v-2q82 177 179.5 277t197.5 100q122 0 181.5 -93t59.5 -243q0 -153 -47 -290t-129.5 -238.5t-202.5 -161
t-258 -59.5q-30 0 -98 10l-82 -357l322 50l-27 -154l-801 -18zM496 256q58 -43 115 -68.5t89 -25.5q44 0 87.5 184.5t43.5 263.5q0 178 -53 178q-25 0 -58.5 -32t-72 -93t-79 -167.5t-72.5 -239.5z" />
    <glyph glyph-name="q" unicode="q" horiz-adv-x="1101" 
d="M276 -20q-122 0 -181.5 92.5t-59.5 242.5q0 204 79.5 375t226.5 273t331 102q60 0 191.5 -30t217.5 -64l-241 -1073q-13 -54 0 -89t43.5 -46.5t72.5 -14t88 7.5v-123q-121 -45 -314.5 -83.5t-317.5 -38.5l190 737h-20v2q-141 -270 -306 -270zM371 434q0 -178 53 -178
q25 0 58.5 32t72 93t79.5 167.5t73 239.5q-58 43 -115.5 69t-89.5 26q-44 0 -87.5 -185t-43.5 -264z" />
    <glyph glyph-name="r" unicode="r" horiz-adv-x="1040" 
d="M63 860q95 81 233 143t269 62q20 0 32.5 -1.5t23 -7.5t14.5 -16.5t2.5 -28.5t-8.5 -44l-107 -377h21q208 475 491 475q32 0 50 -22t18 -60q0 -103 -54 -201.5t-147 -130.5l-227 -78q-69 -55 -117.5 -175.5t-118.5 -377.5l-350 -40l168 649q18 67 -22.5 96t-149.5 12z" />
    <glyph glyph-name="s" unicode="s" horiz-adv-x="987" 
d="M-2 162q0 30 6.5 67t20 75t39 63.5t57.5 25.5q30 0 71 -26.5t81.5 -64t80 -75t76.5 -64t62 -26.5q15 0 24.5 10.5t9.5 28.5q0 51 -46 121t-118 133q-212 191 -212 299q0 63 34.5 123t96 107.5t155 76.5t203.5 29q45 0 102 -7t123.5 -23t111 -49t44.5 -77q0 -29 -20 -81
t-55.5 -98t-70.5 -46q-33 0 -80 34.5t-87.5 76t-87.5 76t-80 34.5q-24 0 -37 -11t-13 -44q0 -91 154 -234q97 -91 157 -170.5t60 -150.5q0 -134 -110 -224.5t-314 -90.5q-80 0 -183 27t-179 70.5t-76 84.5z" />
    <glyph glyph-name="t" unicode="t" horiz-adv-x="921" 
d="M162 231l166 711h-197l21 102l260 70l301 266h80l-80 -336h317l-20 -102h-322l-145 -610q-16 -70 51 -70q44 0 124 37.5t140 87.5v-123q-113 -127 -248.5 -205.5t-255.5 -78.5t-168.5 72.5t-23.5 178.5z" />
    <glyph glyph-name="u" unicode="u" horiz-adv-x="1359" 
d="M279 -20q-115 0 -183 67t-28 150q111 225 178 503q10 40 -2 61t-41 21q-50 0 -158 -43l10 123q86 76 221.5 139.5t223.5 63.5q95 0 126 -59.5t3 -169.5q-55 -221 -170 -543q-13 -37 28 -37q62 0 154 128.5t171 306t120 333.5l344 41l-174 -721q-12 -51 -0.5 -66.5
t43.5 -15.5q28 0 89 13t105 30l-10 -123q-86 -76 -221 -139t-223 -63q-199 0 -111 284l68 213h-21q-108 -209 -257.5 -353t-284.5 -144z" />
    <glyph glyph-name="v" unicode="v" horiz-adv-x="1173" 
d="M29 862q79 69 198.5 136t188.5 67q59 0 101 -40.5t70.5 -129t46 -203.5t32.5 -289q43 54 74 103.5t61.5 120t46.5 160.5t16 196q0 37 25.5 59.5t64.5 22.5q61 0 153.5 -38t92.5 -77q0 -60 -37.5 -140.5t-104.5 -169.5t-143 -176t-171.5 -180.5t-169.5 -162.5t-156 -141
h-41q-20 270 -39 432t-42.5 243t-46 105t-59.5 24q-36 0 -64.5 -9.5t-84.5 -35.5z" />
    <glyph glyph-name="w" unicode="w" horiz-adv-x="1667" 
d="M29 862q79 69 198.5 136t188.5 67q47 0 90.5 -58t75.5 -152.5t54 -209.5t32 -235q44 45 72.5 88t47 96.5t17.5 117t-21 138.5q-9 35 16 86t72.5 90t94.5 39q40 0 62 -19.5t46 -80.5q114 -304 86 -609q81 134 134 286.5t53 299.5q0 123 90 123q85 0 165 -36.5t80 -78.5
q0 -115 -54 -237.5t-133 -223.5t-188 -204t-198.5 -172t-185.5 -133h-41q13 149 -13 458q-159 -172 -458 -458h-39q-19 270 -37 432t-41 243t-45.5 105t-59.5 24q-36 0 -64.5 -9.5t-84.5 -35.5z" />
    <glyph glyph-name="x" unicode="x" horiz-adv-x="1157" 
d="M702 -20q-68 0 -120.5 44.5t-75.5 129.5l-53 208l-99 -256q-48 -126 -245 -126q-83 0 -134 38q-53 40 -9 88l16 15l442 348l-51 199q-14 55 -42 85.5t-67 30.5q-22 0 -78 -18.5t-104 -46.5l-10 123q65 77 175.5 139.5t196.5 62.5q69 0 121.5 -44.5t75.5 -129.5l66 -256
l122 324q48 127 246 127q56 0 101.5 -19t57.5 -50.5t-32 -71.5l-471 -398l43 -170q14 -55 42 -85.5t67 -30.5q22 0 78 18.5t104 46.5l10 -123q-64 -77 -175.5 -139.5t-197.5 -62.5z" />
    <glyph glyph-name="y" unicode="y" horiz-adv-x="1210" 
d="M-199 -324q18 -2 62 -2q76 0 150.5 11.5t148 36t132.5 69.5t89 105q55 110 55 264q0 138 -41.5 286.5t-100.5 243t-108 94.5q-69 0 -147 -45l-12 123q87 70 209.5 136.5t197.5 66.5q76 0 140 -90t100.5 -239.5t36.5 -319.5q0 -19 -2.5 -83t-3.5 -97q79 153 134.5 352
t55.5 395q0 37 25.5 59.5t64.5 22.5q61 0 153.5 -38t92.5 -77q0 -101 -75 -256.5t-215.5 -353.5t-297.5 -394t-364 -435q-108 0 -247 17t-233 46v102z" />
    <glyph glyph-name="z" unicode="z" horiz-adv-x="1005" 
d="M627 -207q-64 0 -125.5 25t-109 60.5t-91.5 71t-90.5 60t-89.5 23.5q-21 0 -60.5 -16.5t-60.5 -36.5l-102 40l757 748h-127q-69 0 -113 -5.5t-92 -23.5t-90.5 -54t-89.5 -95h-82l175 495q64 -41 307 -41h430l39 -71l-711 -707q41 -11 85.5 -37.5t76 -51.5t76.5 -44.5
t92 -19.5q45 0 72 7t54 31.5t48 69t47 121.5h82q0 -139 -38.5 -264t-110 -205t-158.5 -80z" />
    <glyph glyph-name="braceleft" unicode="{" horiz-adv-x="903" 
d="M121 678q99 6 135.5 47.5t36.5 126.5q0 41 -14.5 145t-14.5 164q0 77 24 139t63.5 105t99 74.5t121.5 50t141.5 29.5t148.5 14.5t152 3.5l-51 -143l-132 4q-43 2 -76.5 -4.5t-55 -16t-36.5 -28t-22 -33t-11 -40t-4.5 -38.5t-0.5 -39q0 -51 15 -156t15 -155
q0 -130 -78 -221t-184 -91q26 0 52 -8t52 -25.5t42 -51.5t16 -80q0 -67 -35 -148t-76.5 -144t-76.5 -141t-35 -141q0 -55 35 -71t116 -13l131 4l-10 -143q-610 0 -610 268q0 64 23 123t56 106t65.5 93.5t55.5 105.5t23 123q0 77 -121 82z" />
    <glyph glyph-name="bar" unicode="|" horiz-adv-x="522" 
d="M0 -342l420 1970h164l-420 -1970h-164z" />
    <glyph glyph-name="braceright" unicode="}" horiz-adv-x="901" 
d="M827 553q-99 -6 -135.5 -47.5t-36.5 -126.5q0 -41 14.5 -145t14.5 -164q0 -77 -24 -139t-63.5 -105t-99 -74.5t-121.5 -50t-141.5 -29.5t-148.5 -14.5t-152 -3.5l52 143l131 -4q43 -2 76.5 4.5t55 16t36.5 28t22.5 33t11.5 39.5t4.5 39t0.5 39q0 51 -15.5 156t-15.5 155
q0 130 78 220.5t184 90.5q-26 0 -52.5 8t-52 26t-41.5 52t-16 80q0 67 35 148t76.5 144t76.5 141t35 141q0 55 -35 71t-116 13l-131 -4l10 143q610 0 610 -268q0 -64 -23 -123t-56 -105.5t-65.5 -93.5t-55.5 -106t-23 -123q0 -76 121 -82z" />
    <glyph glyph-name="asciitilde" unicode="~" horiz-adv-x="1011" 
d="M43 354q69 124 166.5 202.5t169.5 78.5q54 0 100.5 -19t74 -41.5t64.5 -41.5t76 -19q48 0 88 31.5t109 116.5l70 -11q-74 -130 -163 -205t-173 -75q-55 0 -101.5 19t-73.5 41.5t-64.5 41.5t-76.5 19q-48 0 -88.5 -31.5t-107.5 -116.5z" />
    <glyph glyph-name="exclamdown" unicode="&#xa1;" horiz-adv-x="665" 
d="M395 516q-14 -66 -23 -137.5t-12 -173t-4 -147.5t-0.5 -181t0.5 -153q0 -110 -79 -178t-185 -68q-74 0 -118 39t-44 110q0 65 66.5 236t146 365.5t99.5 287.5h153zM182 815q0 103 76 177.5t174 74.5q75 0 121.5 -45.5t46.5 -116.5q0 -100 -77.5 -174t-176.5 -74
q-73 0 -118.5 44.5t-45.5 113.5z" />
    <glyph glyph-name="cent" unicode="&#xa2;" horiz-adv-x="980" 
d="M428 -20q-66 0 -78.5 36.5t27.5 114.5l33 68q-141 26 -224.5 130.5t-83.5 250.5q0 141 70.5 284.5t198.5 253.5t280 144v61q-3 78 26 115t95 37q61 0 72 -37t-27 -115l-22 -47q95 -4 187.5 -27t92.5 -61q0 -73 -44 -148t-87 -75q-15 0 -59 28t-100 56t-99 28
q-57 0 -104 -43t-74 -108.5t-41 -134.5t-14 -129q0 -97 40 -151t115 -54q133 0 316 180l24 -123q-68 -136 -176.5 -221t-228.5 -100v-62q2 -78 -26 -114.5t-89 -36.5z" />
    <glyph glyph-name="sterling" unicode="&#xa3;" horiz-adv-x="1374" 
d="M-23 123h27q60 1 107 16t78 37t53.5 57.5t34.5 68.5t18.5 78.5t8 78t1.5 76.5q0 41 -2 61h-151l30 143h111q-10 88 -10 156q0 132 53 242t143 183.5t209.5 114t253.5 40.5q80 0 192.5 -27t208.5 -70l-71 -436h-92q-30 192 -104 295.5t-191 103.5q-57 0 -104.5 -21.5
t-78 -56.5t-51.5 -80.5t-30 -92t-9 -93.5q0 -74 35 -258h418l-41 -143h-354q0 -10 1 -30.5t1 -30.5q0 -261 -219 -388q152 19 274 52q354 92 490 307h92q-106 -506 -529 -506h-850z" />
    <glyph glyph-name="currency" unicode="&#xa4;" horiz-adv-x="1204" 
d="M526 186q-173 0 -260 127l-196 -161l-82 100l223 184q-14 52 -14 121q0 102 37.5 212.5t105.5 209.5l-156 199l123 102l139 -176q180 166 381 166q159 0 250 -121l158 131l78 -102l-178 -146q22 -74 22 -151q0 -119 -45.5 -239t-126.5 -220l131 -168l-121 -102l-125 157
q-159 -123 -344 -123zM537 883q0 -99 26 -213.5t72 -197.5t94 -83q22 0 39.5 21t27 52.5t14.5 62.5t5 57q0 101 -27 213.5t-71.5 191t-89.5 78.5q-90 0 -90 -182z" />
    <glyph glyph-name="yen" unicode="&#xa5;" horiz-adv-x="1599" 
d="M346 0l43 102l47 21q110 48 150 127h-293l31 143h299l24 111h-301l31 143h278l-266 684l-182 -20l51 143h770l-41 -102l-104 -21q-69 -13 -84.5 -41.5t10.5 -89.5l176 -452l473 583l-221 -20l51 143h533l-41 -102l-88 -19q-46 -9 -84 -36t-90 -89l-459 -561h282l-30 -143
h-305l-25 -111h307l-31 -143h-307l-26 -127l239 20l-51 -143h-766z" />
    <glyph glyph-name="brokenbar" unicode="&#xa6;" horiz-adv-x="522" 
d="M276 956l144 672h164l-144 -672h-164zM0 -342l143 672h164l-143 -672h-164z" />
    <glyph glyph-name="section" unicode="&#xa7;" horiz-adv-x="1126" 
d="M285 -362q-83 0 -199 20.5t-199 48.5l62 412h92q90 -379 324 -379q89 0 155 72t66 163q0 37 -11.5 75t-41.5 87t-52.5 81.5t-74.5 102t-78 105.5q-166 233 -166 420q0 232 252 385q50 112 172.5 178t269.5 66q83 0 198 -20.5t199 -49.5l-61 -412h-92q-90 379 -324 379
q-89 0 -155 -72t-66 -163q0 -37 11.5 -75t41.5 -87t52.5 -81.5t74.5 -102t78 -105.5q166 -233 166 -420q0 -232 -252 -385q-50 -112 -172 -177.5t-270 -65.5zM303 934q0 -162 160 -385q26 -35 76 -102.5t72.5 -99t56.5 -84.5t49 -87.5t27 -78.5t12 -85q0 -29 -2 -43
q84 96 84 209q0 162 -160 385q-26 35 -76 102.5t-72.5 99t-56.5 84.5t-49 87.5t-27 78.5t-12 85q0 29 2 43q-84 -96 -84 -209z" />
    <glyph glyph-name="dieresis" unicode="&#xa8;" horiz-adv-x="913" 
d="M838 1217q-56 0 -91.5 34t-35.5 86q0 73 61 130t135 57q52 0 85.5 -34t33.5 -85q0 -73 -58.5 -130.5t-129.5 -57.5zM309 1337q0 73 61.5 130t135.5 57q52 0 85.5 -34t33.5 -85q0 -73 -59 -130.5t-130 -57.5q-56 0 -91.5 34t-35.5 86z" />
    <glyph glyph-name="copyright" unicode="&#xa9;" horiz-adv-x="1669" 
d="M727 -20q-287 0 -459 164.5t-172 422.5q0 171 76 336.5t203 291.5t303.5 203t365.5 77q143 0 262 -44.5t199.5 -122.5t125 -186t44.5 -233q0 -171 -75.5 -337t-202 -291.5t-303 -203t-367.5 -77.5zM262 594q0 -106 38 -200t103 -160t155.5 -104t191.5 -38q135 0 272 64.5
t243.5 168.5t174 246.5t67.5 288.5q0 142 -64.5 257.5t-176 180t-246.5 64.5q-108 0 -219 -41t-206.5 -115t-171 -169t-118.5 -210.5t-43 -232.5zM422 627q0 94 49.5 191t130.5 174t195.5 126t234.5 49q84 0 170 -17.5t127 -43.5l-37 -227h-92q-23 90 -66.5 148t-97.5 58
q-66 0 -122.5 -52.5t-90 -129.5t-52.5 -156.5t-19 -142.5q0 -105 37.5 -170t101.5 -65q66 0 124.5 52.5t147.5 166.5h92l-125 -254q-54 -20 -138 -33.5t-154 -13.5q-182 0 -299 96.5t-117 243.5z" />
    <glyph glyph-name="ordfeminine" unicode="&#xaa;" horiz-adv-x="1013" 
d="M371 625q-89 0 -149 69.5t-60 171.5q0 124 45.5 237.5t121.5 194.5t177 129t209 48q59 0 159 -80l158 161h90l-159 -645q-10 -23 -4.5 -44t38.5 -21q36 0 125 35l-8 -99q-64 -57 -184.5 -107t-192.5 -50q-41 0 -60 25t-13 67l28 190h-22q-67 -132 -144.5 -207t-154.5 -75
zM485 922q0 -19 6 -30t13 -11q20 0 48.5 21.5t62 63.5t68.5 119t60 175q-27 33 -61 53t-59 20q-43 0 -90.5 -171t-47.5 -240z" />
    <glyph glyph-name="guillemotleft" unicode="&#xab;" horiz-adv-x="1142" 
d="M856 502l131 -359h-92l-350 338l8 41l494 338h92zM33 481l8 41l549 400h92l-317 -420l139 -420h-92z" />
    <glyph glyph-name="logicalnot" unicode="&#xac;" horiz-adv-x="901" 
d="M106 545l31 143h697l-9 -43l-75 -358h-154l55 258h-545z" />
    <glyph glyph-name="uni00AD" unicode="&#xad;" horiz-adv-x="849" 
d="M80 391l53 256h635l-53 -256h-635z" />
    <glyph glyph-name="registered" unicode="&#xae;" horiz-adv-x="1013" 
d="M590 791q-160 0 -260.5 98t-100.5 250q0 101 46 200.5t120.5 173.5t176 120t206.5 46q160 0 260.5 -99.5t100.5 -252.5q0 -103 -46.5 -202t-121.5 -172t-176 -117.5t-205 -44.5zM334 1161q0 -117 76.5 -192.5t199.5 -75.5q107 0 205.5 58t158.5 155t60 203
q0 117 -77.5 192.5t-200.5 75.5q-106 0 -204 -58.5t-158 -155.5t-60 -202zM375 1024l26 72h15q16 0 23 7.5t10 26.5l53 252h-45l26 72h314q77 0 121.5 -27.5t44.5 -74.5q0 -50 -39.5 -91.5t-104.5 -58.5l45 -80q19 -34 56 -63l-31 -35q-40 0 -66 2t-57.5 14.5t-42.5 36.5
l-57 117h-29l-21 -98h48l-27 -72h-262zM653 1266h60q32 0 52.5 18t20.5 55q0 43 -49 43h-59z" />
    <glyph glyph-name="macron" unicode="&#xaf;" horiz-adv-x="731" 
d="M197 1221q7 32 45.5 82.5t66.5 50.5h609q-8 -39 -42 -86t-71 -47h-608z" />
    <glyph glyph-name="degree" unicode="&#xb0;" horiz-adv-x="534" 
d="M397 1004q-86 0 -139 52t-53 134q0 112 90.5 198.5t202.5 86.5q84 0 137 -53.5t53 -133.5q0 -113 -90.5 -198.5t-200.5 -85.5zM332 1214q0 -39 24.5 -64.5t65.5 -25.5q54 0 96.5 42.5t42.5 99.5q0 39 -24.5 63.5t-65.5 24.5q-54 0 -96.5 -42.5t-42.5 -97.5z" />
    <glyph glyph-name="plusminus" unicode="&#xb1;" horiz-adv-x="1007" 
d="M352 205l68 317h-314l31 144h314l67 317h154l-68 -317h311l-30 -144h-312l-67 -317h-154zM-4 0l31 143h778l-31 -143h-778z" />
    <glyph glyph-name="uni00B2" unicode="&#xb2;" horiz-adv-x="962" 
d="M162 930q97 55 168.5 98.5t147.5 96.5t123.5 98t78.5 94.5t31 93.5t-26.5 73t-84.5 29q-118 0 -285 -118l-47 61q100 101 238.5 175.5t265.5 74.5q112 0 176 -58.5t64 -148.5q0 -61 -25 -115t-65.5 -95t-100 -78.5t-119 -64t-133.5 -52.5h170q77 0 127.5 32t110.5 111h72
l-127 -399q-57 26 -119.5 33.5t-169.5 7.5h-440z" />
    <glyph glyph-name="uni00B3" unicode="&#xb3;" horiz-adv-x="905" 
d="M506 856q-108 0 -177.5 12t-142.5 39l70 277h72q19 -126 65 -181t135 -55q82 0 121 43t39 101q0 104 -217 104l-4 61q3 1 43 13.5t57.5 19t53 24t53 33t32.5 40.5t15 53q0 41 -30 60.5t-79 19.5q-44 0 -86 -16t-70 -34.5t-82 -58.5q-10 -8 -16 -12l-49 61
q112 112 223.5 178t241.5 66q105 0 180.5 -40.5t75.5 -113.5q0 -39 -12 -71.5t-36 -56.5t-49 -41t-63 -31.5t-65.5 -23t-67.5 -19.5q-6 -2 -9 -2.5t-8 -2t-9 -2.5q290 -21 290 -161q0 -68 -47 -124t-121 -89.5t-159 -51.5t-168 -18z" />
    <glyph glyph-name="acute" unicode="&#xb4;" horiz-adv-x="679" 
d="M182 1147q122 176 269 342t204 166q51 0 71.5 -53t8.5 -111q-6 -23 -17.5 -44.5t-31.5 -41t-36 -33.5t-45.5 -31.5t-44 -25.5t-47.5 -24.5t-40 -20.5l-276 -144z" />
    <glyph glyph-name="uni00B5" unicode="&#xb5;" horiz-adv-x="1415" 
d="M279 -20q-24 0 -56 4q8 -167 107 -353l-334 -123q-36 114 -9 351.5t81 337.5q111 225 178 503q10 40 -2 61t-41 21q-50 0 -158 -43l10 123q86 76 221.5 139.5t223.5 63.5q95 0 126 -59.5t3 -169.5q-55 -221 -170 -543q-13 -37 28 -37q62 0 154 128.5t171 306t120 333.5
l344 41l-174 -721q-12 -51 -0.5 -66.5t43.5 -15.5q28 0 89 13t105 30l-10 -123q-86 -76 -221 -139t-223 -63q-199 0 -111 284l68 213h-21q-108 -209 -257.5 -353t-284.5 -144z" />
    <glyph glyph-name="paragraph" unicode="&#xb6;" horiz-adv-x="1202" 
d="M516 557q-150 0 -248 93.5t-98 248.5q0 114 50.5 218.5t131.5 177t185.5 116t210.5 43.5h634l-43 -102l-67 -21q-101 -32 -123 -143l-221 -1043q-50 -231 -162 -347.5t-311 -139.5l-4 49q64 31 111.5 69t80.5 81t59.5 104.5t44 123.5t37.5 155l232 1091h-103l-163 -774
h-234z" />
    <glyph glyph-name="periodcentered" unicode="&#xb7;" horiz-adv-x="573" 
d="M250 340q-68 0 -110 40.5t-42 104.5q0 90 70 157t160 67q66 0 106.5 -40.5t40.5 -103.5q0 -92 -68 -158.5t-157 -66.5z" />
    <glyph glyph-name="cedilla" unicode="&#xb8;" horiz-adv-x="436" 
d="M-180 -575q112 112 112 200q0 38 -22 66.5t-72 66.5l238 297h65l-71 -164q116 -65 116 -147q0 -68 -57 -140t-136.5 -123t-158.5 -77z" />
    <glyph glyph-name="uni00B9" unicode="&#xb9;" horiz-adv-x="880" 
d="M154 877l41 102l63 10q94 15 137.5 46.5t61.5 115.5l67 311l-243 -30l20 92q122 14 290.5 70t278.5 110l27 -21q-47 -105 -75 -202t-70 -293l-41 -189l219 11l-49 -133h-727z" />
    <glyph glyph-name="ordmasculine" unicode="&#xba;" horiz-adv-x="1058" 
d="M539 625q-154 0 -251.5 88.5t-97.5 228.5q0 141 78.5 263t216 195t299.5 73q153 0 249.5 -88.5t96.5 -227.5q0 -105 -46.5 -203t-125 -170t-188.5 -115.5t-231 -43.5zM518 954q0 -106 30 -166.5t83 -60.5q45 0 80.5 48.5t54 120t28 136.5t9.5 113q0 105 -30.5 165
t-82.5 60q-45 0 -80.5 -48.5t-54 -119t-28 -135.5t-9.5 -113z" />
    <glyph glyph-name="guillemotright" unicode="&#xbb;" horiz-adv-x="1142" 
d="M276 502l-131 358h93l350 -338l-8 -41l-494 -338h-92zM451 82l317 420l-139 420h92l379 -400l-8 -41l-549 -399h-92z" />
    <glyph glyph-name="onequarter" unicode="&#xbc;" horiz-adv-x="1857" 
d="M102 670l41 102l64 10q94 15 137.5 46.5t61.5 115.5l67 311l-244 -30l21 92q122 14 290.5 70t278.5 110l27 -20q-47 -106 -76 -203.5t-70 -292.5l-41 -188l220 10l-50 -133h-727zM535 4l1101 1475l99 -41l-1102 -1475zM942 199l725 628l49 -12l-102 -485h125l-60 -185
h-104l-31 -145h-235l30 145h-395zM1225 330h153l37 170z" />
    <glyph glyph-name="onehalf" unicode="&#xbd;" horiz-adv-x="2027" 
d="M102 670l41 102l64 10q94 15 137.5 46.5t61.5 115.5l67 311l-244 -30l21 92q122 14 290.5 70t278.5 110l27 -20q-47 -106 -76 -203.5t-70 -292.5l-41 -188l220 10l-50 -133h-727zM446 0l1102 1475l99 -41l-1102 -1475zM1028 51q97 55 168.5 98.5t147.5 96.5t123.5 98
t78.5 94.5t31 93.5t-26.5 73.5t-84.5 29.5q-116 0 -284 -119l-47 62q100 101 238 175t265 74q112 0 176 -58.5t64 -147.5q0 -75 -36 -139t-102 -113t-138 -85t-166 -69h170q76 0 126.5 32t110.5 111h72l-127 -399q-57 26 -119.5 33.5t-169.5 7.5h-440z" />
    <glyph glyph-name="threequarters" unicode="&#xbe;" horiz-adv-x="1916" 
d="M455 647q-108 0 -177.5 12t-142.5 39l70 277h71q19 -126 65.5 -181t135.5 -55q82 0 121 43t39 101q0 104 -217 104l-4 62q4 2 43 14t57.5 18.5t53 23.5t52.5 32.5t33 40.5t15 53q0 41 -30 60.5t-79 19.5q-44 0 -86 -16t-70 -34.5t-82 -58.5q-10 -8 -16 -12l-49 61
q112 112 223.5 178t241.5 66q105 0 180.5 -40.5t75.5 -113.5q0 -47 -20.5 -85t-42.5 -59.5t-73 -44t-73.5 -29.5t-82.5 -23q-6 -2 -9.5 -3t-9 -2.5t-9.5 -2.5q291 -21 291 -162q0 -68 -47 -124t-121 -89.5t-159 -51.5t-168 -18zM547 0l1102 1475l98 -41l-1102 -1475z
M1022 199l725 628l49 -12l-102 -485h125l-60 -185h-104l-31 -145h-235l30 145h-395zM1305 330h153l37 170z" />
    <glyph glyph-name="questiondown" unicode="&#xbf;" horiz-adv-x="923" 
d="M610 535q2 -3 11 -18t11.5 -19.5t10.5 -19t11 -21t10 -20t9.5 -22t7 -22t6.5 -24t3.5 -23t1.5 -24.5q0 -78 -56.5 -146.5t-136.5 -115t-160.5 -84t-137 -68.5t-56.5 -53q0 -11 10 -20t33 -17.5t44.5 -15t60.5 -14t65 -12t74 -12.5l72 -12q35 -5 54.5 -67t19.5 -123
q0 -107 -125 -107q-126 0 -240.5 49.5t-189 144.5t-74.5 212q0 80 29 142.5t75.5 101.5t103 70.5t113 57.5t103 54t75.5 69.5t29 94.5q0 46 -20 84h153zM346 793q0 103 76 177t174 74q75 0 121.5 -45t46.5 -116q0 -100 -77.5 -174t-176.5 -74q-73 0 -118.5 44.5t-45.5 113.5
z" />
    <glyph glyph-name="Agrave" unicode="&#xc0;" horiz-adv-x="1716" 
d="M821 0l43 102l70 21q64 19 84 51.5t20 95.5l-2 125h-563l-229 -272l225 20l-51 -143h-539l43 102l98 21q16 3 31 9.5t26.5 12t27 18t23.5 19.5t24 24.5t21.5 24t24 28.5t23.5 28l191 225l2 6h4l592 701q-56 126 -256 194l16 41h600l19 -1331l223 20l-51 -143h-740z
M578 518h458l-6 535zM862 1882q10 51 47.5 87t77.5 36q29 0 84 -80.5t99 -165.5t77 -160l-22 -20l-205 82q-79 32 -103 50q-81 57 -55 171z" />
    <glyph glyph-name="Aacute" unicode="&#xc1;" horiz-adv-x="1716" 
d="M821 0l43 102l70 21q64 19 84 51.5t20 95.5l-2 125h-563l-229 -272l225 20l-51 -143h-539l43 102l98 21q16 3 31 9.5t26.5 12t27 18t23.5 19.5t24 24.5t21.5 24t24 28.5t23.5 28l191 225l2 6h4l592 701q-56 126 -256 194l16 41h600l19 -1331l223 20l-51 -143h-740z
M578 518h458l-6 535zM932 1599q124 136 265.5 271t182.5 135q40 0 60 -36t8 -87q-5 -23 -14 -43t-17 -35.5t-23.5 -31t-24.5 -25t-29.5 -21.5t-29 -17t-32 -15t-30 -12t-32 -11t-28.5 -10l-242 -82z" />
    <glyph glyph-name="Acircumflex" unicode="&#xc2;" horiz-adv-x="1716" 
d="M821 0l43 102l70 21q64 19 84 51.5t20 95.5l-2 125h-563l-229 -272l225 20l-51 -143h-539l43 102l98 21q16 3 31 9.5t26.5 12t27 18t23.5 19.5t24 24.5t21.5 24t24 28.5t23.5 28l191 225l2 6h4l592 701q-56 126 -256 194l16 41h600l19 -1331l223 20l-51 -143h-740z
M578 518h458l-6 535zM793 1599q119 139 252 272.5t167 133.5q33 0 106.5 -133t129.5 -273l-27 -20l-262 190l-352 -190z" />
    <glyph glyph-name="Atilde" unicode="&#xc3;" horiz-adv-x="1716" 
d="M821 0l43 102l70 21q64 19 84 51.5t20 95.5l-2 125h-563l-229 -272l225 20l-51 -143h-539l43 102l98 21q16 3 31 9.5t26.5 12t27 18t23.5 19.5t24 24.5t21.5 24t24 28.5t23.5 28l191 225l2 6h4l592 701q-56 126 -256 194l16 41h600l19 -1331l223 20l-51 -143h-740z
M578 518h458l-6 535zM793 1679q65 117 157 215.5t154 98.5q36 0 153.5 -63.5t145.5 -63.5q107 0 199 116l16 -20q-55 -117 -150.5 -215t-158.5 -98q-33 0 -85.5 28.5t-110.5 57t-103 28.5q-8 0 -17 -2t-20 -6.5t-21 -8.5t-24 -12t-23.5 -13.5t-25 -15.5t-23.5 -15t-24.5 -16
l-22.5 -15z" />
    <glyph glyph-name="Adieresis" unicode="&#xc4;" horiz-adv-x="1716" 
d="M821 0l43 102l70 21q64 19 84 51.5t20 95.5l-2 125h-563l-229 -272l225 20l-51 -143h-539l43 102l98 21q16 3 31 9.5t26.5 12t27 18t23.5 19.5t24 24.5t21.5 24t24 28.5t23.5 28l191 225l2 6h4l592 701q-56 126 -256 194l16 41h600l19 -1331l223 20l-51 -143h-740z
M578 518h458l-6 535zM821 1743q0 65 54.5 116.5t121.5 51.5q47 0 78 -31.5t31 -77.5q0 -65 -53 -116.5t-117 -51.5q-52 0 -83.5 31t-31.5 78zM1182 1743q0 65 55.5 116.5t122.5 51.5q45 0 75.5 -31.5t30.5 -77.5q0 -65 -52.5 -116.5t-117.5 -51.5q-50 0 -82 31.5t-32 77.5z
" />
    <glyph glyph-name="Aring" unicode="&#xc5;" horiz-adv-x="1716" 
d="M821 0l43 102l70 21q64 19 84 51.5t20 95.5l-2 125h-563l-229 -272l225 20l-51 -143h-539l43 102l98 21q16 3 31 9.5t26.5 12t27 18t23.5 19.5t24 24.5t21.5 24t24 28.5t23.5 28l191 225l2 6h4l592 701q-56 126 -256 194l16 41h600l19 -1331l223 20l-51 -143h-740z
M578 518h458l-6 535zM879 1722q0 97 92.5 155t220.5 58q108 0 168.5 -38.5t60.5 -104.5q0 -94 -86.5 -151.5t-224.5 -57.5q-108 0 -169.5 37t-61.5 102zM1081 1706q0 -61 43 -61q31 0 54.5 33.5t33 71t9.5 67.5q0 57 -43 57q-25 0 -44.5 -19.5t-30.5 -48t-16.5 -55
t-5.5 -45.5z" />
    <glyph glyph-name="AE" unicode="&#xc6;" horiz-adv-x="2293" 
d="M-121 0l43 102l98 21q16 3 31 9.5t26.5 12t27 18t23.5 19.5t24 24.5t21.5 24t24 28.5t23.5 28l789 932q72 86 -6 132q-66 40 -250 62l16 41h1204q133 0 287 62l-33 -541h-92q-40 177 -108 266.5t-181 89.5h-243l-121 -569h137q70 0 128 52t112 181h92l-123 -577h-92
q0 130 -36 180.5t-106 50.5h-137l-110 -526h313q118 0 239 117t224 301h92l-229 -602q-122 61 -273 61h-944l43 102l64 19q121 34 141 133l84 395h-414l-444 -526l225 20l-51 -143h-539zM782 762h344l115 545z" />
    <glyph glyph-name="Ccedilla" unicode="&#xc7;" horiz-adv-x="1552" 
d="M793 -20h-17l-31 -68q117 -65 117 -148q0 -68 -57 -139.5t-136.5 -122.5t-158.5 -77l-14 20q112 112 112 201q0 38 -22 66.5t-72 66.5l166 207q-267 28 -425.5 180.5t-158.5 392.5q0 151 53.5 292t148.5 253t220.5 196t276 129.5t307.5 45.5q268 0 502 -107l-70 -426h-92
q-31 201 -120 300t-275 99q-95 0 -177.5 -35.5t-142 -96.5t-106.5 -139.5t-75 -169t-42.5 -181t-14.5 -178.5q0 -206 87 -317t253 -111q116 0 211 44.5t174.5 128.5t171.5 226h93l-183 -471q-226 -61 -503 -61z" />
    <glyph glyph-name="Egrave" unicode="&#xc8;" horiz-adv-x="1495" 
d="M-29 0l43 102l64 19q121 34 141 133l230 1077l-201 -20l51 143h877q132 0 286 62l-32 -541h-93q-41 177 -108 266.5t-180 89.5h-244l-113 -528h129q70 0 128 52t112 181h92l-123 -577h-92q0 130 -35.5 180.5t-105.5 50.5h-127l-121 -567h313q118 0 239 117t224 301h92
l-229 -602q-122 61 -273 61h-944zM745 1880q10 51 47.5 87t77.5 36q29 0 84 -80.5t99 -165.5t77 -160l-22 -20l-205 82q-79 32 -103 50q-81 57 -55 171z" />
    <glyph glyph-name="Eacute" unicode="&#xc9;" horiz-adv-x="1495" 
d="M-29 0l43 102l64 19q121 34 141 133l230 1077l-201 -20l51 143h877q132 0 286 62l-32 -541h-93q-41 177 -108 266.5t-180 89.5h-244l-113 -528h129q70 0 128 52t112 181h92l-123 -577h-92q0 130 -35.5 180.5t-105.5 50.5h-127l-121 -567h313q118 0 239 117t224 301h92
l-229 -602q-122 61 -273 61h-944zM815 1597q123 134 265.5 270t183.5 136q40 0 59.5 -36t7.5 -87q-5 -23 -14 -43t-17 -35.5t-23.5 -31t-24.5 -25t-29.5 -21.5t-29 -17t-32 -15t-30 -12t-32 -11t-28.5 -10l-242 -82z" />
    <glyph glyph-name="Ecircumflex" unicode="&#xca;" horiz-adv-x="1495" 
d="M-29 0l43 102l64 19q121 34 141 133l230 1077l-201 -20l51 143h877q132 0 286 62l-32 -541h-93q-41 177 -108 266.5t-180 89.5h-244l-113 -528h129q70 0 128 52t112 181h92l-123 -577h-92q0 130 -35.5 180.5t-105.5 50.5h-127l-121 -567h313q118 0 239 117t224 301h92
l-229 -602q-122 61 -273 61h-944zM676 1597q118 138 252 272t168 134q33 0 105.5 -132.5t129.5 -273.5l-26 -20l-263 190l-352 -190z" />
    <glyph glyph-name="Edieresis" unicode="&#xcb;" horiz-adv-x="1495" 
d="M-29 0l43 102l64 19q121 34 141 133l230 1077l-201 -20l51 143h877q132 0 286 62l-32 -541h-93q-41 177 -108 266.5t-180 89.5h-244l-113 -528h129q70 0 128 52t112 181h92l-123 -577h-92q0 130 -35.5 180.5t-105.5 50.5h-127l-121 -567h313q118 0 239 117t224 301h92
l-229 -602q-122 61 -273 61h-944zM705 1741q0 65 54.5 116.5t121.5 51.5q47 0 77.5 -31.5t30.5 -77.5q0 -65 -53 -116.5t-117 -51.5q-51 0 -82.5 31t-31.5 78zM1065 1741q0 65 55.5 116.5t122.5 51.5q46 0 76.5 -31.5t30.5 -77.5q0 -65 -52.5 -116.5t-117.5 -51.5
q-50 0 -82.5 31.5t-32.5 77.5z" />
    <glyph glyph-name="Igrave" unicode="&#xcc;" horiz-adv-x="913" 
d="M-18 0l43 102l63 19q67 20 99.5 54t43.5 89l228 1067l-201 -20l51 143h711l-41 -102l-70 -21q-99 -28 -123 -143l-227 -1065l199 20l-51 -143h-725zM442 1880q10 51 47.5 87t77.5 36q29 0 84 -80.5t99 -165.5t77 -160l-22 -20l-205 82q-79 32 -103 50q-81 57 -55 171z
" />
    <glyph glyph-name="Iacute" unicode="&#xcd;" horiz-adv-x="913" 
d="M-18 0l43 102l63 19q67 20 99.5 54t43.5 89l228 1067l-201 -20l51 143h711l-41 -102l-70 -21q-99 -28 -123 -143l-227 -1065l199 20l-51 -143h-725zM512 1597q123 134 265.5 270t183.5 136q40 0 59.5 -36t7.5 -87q-5 -23 -14 -43t-17 -35.5t-23.5 -31t-24.5 -25
t-29.5 -21.5t-29 -17t-32 -15t-30 -12t-32 -11t-28.5 -10l-242 -82z" />
    <glyph glyph-name="Icircumflex" unicode="&#xce;" horiz-adv-x="913" 
d="M-18 0l43 102l63 19q67 20 99.5 54t43.5 89l228 1067l-201 -20l51 143h711l-41 -102l-70 -21q-99 -28 -123 -143l-227 -1065l199 20l-51 -143h-725zM373 1597q118 138 252 272t168 134q33 0 105.5 -132.5t129.5 -273.5l-27 -20l-262 190l-352 -190z" />
    <glyph glyph-name="Idieresis" unicode="&#xcf;" horiz-adv-x="913" 
d="M-18 0l43 102l63 19q67 20 99.5 54t43.5 89l228 1067l-201 -20l51 143h711l-41 -102l-70 -21q-99 -28 -123 -143l-227 -1065l199 20l-51 -143h-725zM401 1741q0 65 55 116.5t122 51.5q47 0 77.5 -31.5t30.5 -77.5q0 -65 -53 -116.5t-117 -51.5q-52 0 -83.5 31t-31.5 78z
M762 1741q0 65 55.5 116.5t122.5 51.5q46 0 76.5 -31.5t30.5 -77.5q0 -65 -52.5 -116.5t-117.5 -51.5q-50 0 -82.5 31.5t-32.5 77.5z" />
    <glyph glyph-name="Eth" unicode="&#xd0;" horiz-adv-x="1759" 
d="M127 686l20 102h191l115 543l-205 -20l51 143h750q162 0 297.5 -43.5t227 -119t142.5 -178t51 -220.5q0 -172 -77.5 -334.5t-209.5 -286t-321 -198t-399 -74.5h-787l43 102l64 19q55 15 95 53.5t50 89.5l90 422h-188zM553 123h233q105 0 199.5 45t164.5 121.5t121 176
t77 211.5t26 224q0 196 -109.5 313t-322.5 117h-133l-115 -543h250l-20 -102h-252z" />
    <glyph glyph-name="Ntilde" unicode="&#xd1;" horiz-adv-x="1699" 
d="M-41 0l43 102l113 11q104 8 125 102l213 999q-80 101 -232 199l17 41h536l596 -919l170 796l-283 -20l52 143h622l-41 -102l-112 -11q-51 -4 -84.5 -36t-44.5 -84l-242 -1139l-156 -102l-698 1083l-201 -940l281 20l-51 -143h-623zM807 1677q65 117 157 215.5t154 98.5
q36 0 153.5 -63.5t145.5 -63.5q107 0 199 116l16 -20q-55 -117 -150.5 -215t-158.5 -98q-33 0 -85.5 28.5t-110.5 57t-103 28.5q-8 0 -17 -2t-20 -6.5t-21 -8.5t-24 -12t-23.5 -13.5t-25 -15.5t-23.5 -15t-24.5 -16l-22.5 -15z" />
    <glyph glyph-name="Ograve" unicode="&#xd2;" horiz-adv-x="1763" 
d="M774 -20q-195 0 -350 81.5t-239.5 220t-84.5 306.5q0 171 81 334t215 284.5t317.5 195t378.5 73.5q147 0 273 -48t213.5 -130t137 -193.5t49.5 -237.5q0 -171 -80.5 -333.5t-213.5 -283.5t-317 -195t-380 -74zM504 627q0 -142 44.5 -259.5t125 -186t180.5 -68.5
q95 0 178.5 43.5t142.5 116.5t102 166t64 192.5t21 195.5q0 142 -44.5 259.5t-125 186t-180.5 68.5q-95 0 -178.5 -43.5t-142.5 -116.5t-102 -166t-64 -192.5t-21 -195.5zM864 1880q10 51 47.5 87t77.5 36q29 0 84 -80.5t99 -165.5t77 -160l-22 -20l-205 82q-79 32 -103 50
q-81 57 -55 171z" />
    <glyph glyph-name="Oacute" unicode="&#xd3;" horiz-adv-x="1763" 
d="M774 -20q-195 0 -350 81.5t-239.5 220t-84.5 306.5q0 171 81 334t215 284.5t317.5 195t378.5 73.5q147 0 273 -48t213.5 -130t137 -193.5t49.5 -237.5q0 -171 -80.5 -333.5t-213.5 -283.5t-317 -195t-380 -74zM504 627q0 -142 44.5 -259.5t125 -186t180.5 -68.5
q95 0 178.5 43.5t142.5 116.5t102 166t64 192.5t21 195.5q0 142 -44.5 259.5t-125 186t-180.5 68.5q-95 0 -178.5 -43.5t-142.5 -116.5t-102 -166t-64 -192.5t-21 -195.5zM934 1597q124 136 265.5 271t182.5 135q40 0 60 -36t8 -87q-5 -23 -14 -43t-17 -35.5t-23.5 -31
t-24.5 -25t-29.5 -21.5t-29 -17t-32 -15t-30 -12t-32 -11t-28.5 -10l-242 -82z" />
    <glyph glyph-name="Ocircumflex" unicode="&#xd4;" horiz-adv-x="1763" 
d="M774 -20q-195 0 -350 81.5t-239.5 220t-84.5 306.5q0 171 81 334t215 284.5t317.5 195t378.5 73.5q147 0 273 -48t213.5 -130t137 -193.5t49.5 -237.5q0 -171 -80.5 -333.5t-213.5 -283.5t-317 -195t-380 -74zM504 627q0 -142 44.5 -259.5t125 -186t180.5 -68.5
q95 0 178.5 43.5t142.5 116.5t102 166t64 192.5t21 195.5q0 142 -44.5 259.5t-125 186t-180.5 68.5q-95 0 -178.5 -43.5t-142.5 -116.5t-102 -166t-64 -192.5t-21 -195.5zM795 1597q119 139 252 272.5t167 133.5q33 0 106.5 -133t129.5 -273l-27 -20l-262 190l-352 -190z
" />
    <glyph glyph-name="Otilde" unicode="&#xd5;" horiz-adv-x="1763" 
d="M774 -20q-195 0 -350 81.5t-239.5 220t-84.5 306.5q0 171 81 334t215 284.5t317.5 195t378.5 73.5q147 0 273 -48t213.5 -130t137 -193.5t49.5 -237.5q0 -171 -80.5 -333.5t-213.5 -283.5t-317 -195t-380 -74zM504 627q0 -142 44.5 -259.5t125 -186t180.5 -68.5
q95 0 178.5 43.5t142.5 116.5t102 166t64 192.5t21 195.5q0 142 -44.5 259.5t-125 186t-180.5 68.5q-95 0 -178.5 -43.5t-142.5 -116.5t-102 -166t-64 -192.5t-21 -195.5zM795 1677q65 117 157 215.5t154 98.5q36 0 153.5 -63.5t145.5 -63.5q107 0 199 116l16 -20
q-55 -117 -150.5 -215t-158.5 -98q-33 0 -85.5 28.5t-110.5 57t-103 28.5q-8 0 -17 -2t-20 -6.5t-21 -8.5t-24 -12t-23.5 -13.5t-25 -15.5t-23.5 -15t-24.5 -16l-22.5 -15z" />
    <glyph glyph-name="Odieresis" unicode="&#xd6;" horiz-adv-x="1763" 
d="M774 -20q-195 0 -350 81.5t-239.5 220t-84.5 306.5q0 171 81 334t215 284.5t317.5 195t378.5 73.5q147 0 273 -48t213.5 -130t137 -193.5t49.5 -237.5q0 -171 -80.5 -333.5t-213.5 -283.5t-317 -195t-380 -74zM504 627q0 -142 44.5 -259.5t125 -186t180.5 -68.5
q95 0 178.5 43.5t142.5 116.5t102 166t64 192.5t21 195.5q0 142 -44.5 259.5t-125 186t-180.5 68.5q-95 0 -178.5 -43.5t-142.5 -116.5t-102 -166t-64 -192.5t-21 -195.5zM823 1741q0 65 54.5 116.5t121.5 51.5q47 0 78 -31.5t31 -77.5q0 -65 -53 -116.5t-117 -51.5
q-52 0 -83.5 31t-31.5 78zM1184 1741q0 65 55.5 116.5t122.5 51.5q45 0 75.5 -31.5t30.5 -77.5q0 -65 -52.5 -116.5t-117.5 -51.5q-50 0 -82 31.5t-32 77.5z" />
    <glyph glyph-name="multiply" unicode="&#xd7;" horiz-adv-x="933" 
d="M31 176l307 252l-197 252l123 100l197 -250l307 252l86 -108l-307 -252l196 -250l-125 -100l-194 247l-307 -251z" />
    <glyph glyph-name="Oslash" unicode="&#xd8;" horiz-adv-x="1763" 
d="M774 -20q-289 0 -479 172l-189 -152h-172l287 229q-121 155 -121 359q0 171 81 334t215 284.5t317.5 195t378.5 73.5q283 0 473 -166l184 147h172l-281 -225q125 -159 125 -365q0 -171 -80.5 -333.5t-213.5 -283.5t-317 -195t-380 -74zM504 627q0 -80 16 -158l791 635
q-45 109 -123.5 173t-175.5 64q-95 0 -178.5 -43.5t-142.5 -116.5t-102 -166t-64 -192.5t-21 -195.5zM553 358q45 -113 124 -179t177 -66q95 0 178.5 43.5t142.5 116.5t102 166t64 192.5t21 195.5q0 84 -16 166z" />
    <glyph glyph-name="Ugrave" unicode="&#xd9;" horiz-adv-x="1654" 
d="M797 -20q-310 0 -465 125t-109 339l189 887l-181 -20l52 143h708l-41 -102l-63 -21q-69 -22 -106.5 -72t-53.5 -126l-129 -607q-36 -173 46.5 -269.5t262.5 -96.5q168 0 281 88.5t149 257.5l176 825l-233 -20l51 143h520l-41 -102l-47 -11q-63 -14 -94.5 -46t-48.5 -107
l-137 -641q-58 -271 -240 -419t-446 -148zM944 1880q10 51 47.5 87t77.5 36q29 0 84 -80.5t99 -165.5t77 -160l-22 -20l-205 82q-79 32 -103 50q-81 57 -55 171z" />
    <glyph glyph-name="Uacute" unicode="&#xda;" horiz-adv-x="1654" 
d="M797 -20q-310 0 -465 125t-109 339l189 887l-181 -20l52 143h708l-41 -102l-63 -21q-69 -22 -106.5 -72t-53.5 -126l-129 -607q-36 -173 46.5 -269.5t262.5 -96.5q168 0 281 88.5t149 257.5l176 825l-233 -20l51 143h520l-41 -102l-47 -11q-63 -14 -94.5 -46t-48.5 -107
l-137 -641q-58 -271 -240 -419t-446 -148zM1014 1597q124 136 265.5 271t182.5 135q40 0 60 -36t8 -87q-5 -23 -14 -43t-17 -35.5t-23.5 -31t-24.5 -25t-29.5 -21.5t-29 -17t-32 -15t-30 -12t-32 -11t-28.5 -10l-242 -82z" />
    <glyph glyph-name="Ucircumflex" unicode="&#xdb;" horiz-adv-x="1654" 
d="M797 -20q-310 0 -465 125t-109 339l189 887l-181 -20l52 143h708l-41 -102l-63 -21q-69 -22 -106.5 -72t-53.5 -126l-129 -607q-36 -173 46.5 -269.5t262.5 -96.5q168 0 281 88.5t149 257.5l176 825l-233 -20l51 143h520l-41 -102l-47 -11q-63 -14 -94.5 -46t-48.5 -107
l-137 -641q-58 -271 -240 -419t-446 -148zM874 1597q118 138 252 272t168 134q33 0 106.5 -133t129.5 -273l-27 -20l-262 190l-352 -190z" />
    <glyph glyph-name="Udieresis" unicode="&#xdc;" horiz-adv-x="1654" 
d="M797 -20q-310 0 -465 125t-109 339l189 887l-181 -20l52 143h708l-41 -102l-63 -21q-69 -22 -106.5 -72t-53.5 -126l-129 -607q-36 -173 46.5 -269.5t262.5 -96.5q168 0 281 88.5t149 257.5l176 825l-233 -20l51 143h520l-41 -102l-47 -11q-63 -14 -94.5 -46t-48.5 -107
l-137 -641q-58 -271 -240 -419t-446 -148zM903 1741q0 65 54.5 116.5t121.5 51.5q47 0 78 -31.5t31 -77.5q0 -65 -53 -116.5t-117 -51.5q-52 0 -83.5 31t-31.5 78zM1264 1741q0 65 55.5 116.5t122.5 51.5q45 0 75.5 -31.5t30.5 -77.5q0 -65 -52.5 -116.5t-117.5 -51.5
q-50 0 -82 31.5t-32 77.5z" />
    <glyph glyph-name="Yacute" unicode="&#xdd;" horiz-adv-x="1599" 
d="M346 0l43 102l47 21q74 32 114 76t54 106l66 303l-281 723l-182 -20l51 143h770l-41 -102l-104 -21q-69 -13 -84.5 -41.5t10.5 -89.5l176 -452l473 583l-221 -20l51 143h533l-41 -102l-88 -19q-46 -9 -84 -36t-90 -89l-490 -600l-104 -485l239 20l-51 -143h-766z
M954 1597q123 134 265.5 270t183.5 136q40 0 59.5 -36t7.5 -87q-5 -23 -14 -43t-17 -35.5t-23.5 -31t-24.5 -25t-29.5 -21.5t-29 -17t-32 -15t-30 -12t-32 -11t-28.5 -10l-241 -82z" />
    <glyph glyph-name="Thorn" unicode="&#xde;" horiz-adv-x="1533" 
d="M-29 0l43 102l64 19q67 20 99.5 54t43.5 89l228 1067l-201 -20l51 143h711l-41 -102l-70 -21q-99 -28 -123 -143l-6 -27h172q287 0 438.5 -85t151.5 -259q0 -96 -40 -180.5t-109 -146.5t-160 -107t-195 -67.5t-211 -22.5h-231l-37 -170l199 20l-52 -143h-725zM608 406
h140q89 0 164 31.5t123.5 83t75 116t26.5 131.5q0 122 -66 196t-190 74h-138z" />
    <glyph glyph-name="germandbls" unicode="&#xdf;" horiz-adv-x="1587" 
d="M-428 -492q-50 0 -72.5 23t-13.5 59q18 68 57.5 131.5t79.5 63.5q37 0 167 -52t179 -52q48 0 83 82t65 237l184 942h-201l21 102h205q74 256 264.5 394.5t482.5 138.5q115 0 211.5 -34.5t156.5 -102t60 -154.5q0 -56 -44 -110.5t-106.5 -96.5t-125 -79t-106.5 -71
t-44 -59q0 -23 25.5 -57t54 -60t77 -68t66.5 -58q164 -151 164 -312q0 -148 -108.5 -241.5t-313.5 -93.5q-79 0 -167 27t-148.5 70.5t-60.5 84.5t10.5 81.5t39.5 74.5t72 34q37 0 91 -37.5t100.5 -82t97 -82t80.5 -37.5q16 0 28.5 10.5t12.5 28.5q0 102 -168 278
q-119 124 -166 189.5t-47 130.5q0 45 35 99t84.5 105.5t99 104.5t84.5 115t35 120q0 91 -40 124.5t-118 33.5q-132 0 -199 -72.5t-100 -240.5l-202 -1033q-64 -321 -283 -459.5t-639 -138.5z" />
    <glyph glyph-name="agrave" unicode="&#xe0;" horiz-adv-x="1187" 
d="M242 -20q-108 0 -160.5 84.5t-52.5 224.5q0 160 46 302.5t127.5 247t199.5 165.5t255 61q81 0 224 -104l206 208h62l-203 -825q-4 -14 -5.5 -23.5t-1 -22t5.5 -19.5t16.5 -12t29.5 -5q50 0 158 43l-10 -123q-88 -78 -214.5 -140t-213.5 -62q-54 0 -80 31t-17 85l39 244
h-28q-86 -168 -185 -264t-198 -96zM362 307q0 -23 7.5 -37t17.5 -14q25 0 66 35t88 98t96 169t82 230q-116 95 -180 95q-38 0 -81.5 -128.5t-69.5 -264t-26 -183.5zM365 1450q0 37 13 83t41 84t62 38q19 0 83.5 -97t148 -229t125.5 -182l-19 -21l-244 103q-36 15 -69 34
t-67 46.5t-54 64t-20 76.5z" />
    <glyph glyph-name="aacute" unicode="&#xe1;" horiz-adv-x="1187" 
d="M242 -20q-108 0 -160.5 84.5t-52.5 224.5q0 160 46 302.5t127.5 247t199.5 165.5t255 61q81 0 224 -104l206 208h62l-203 -825q-4 -14 -5.5 -23.5t-1 -22t5.5 -19.5t16.5 -12t29.5 -5q50 0 158 43l-10 -123q-88 -78 -214.5 -140t-213.5 -62q-54 0 -80 31t-17 85l39 244
h-28q-86 -168 -185 -264t-198 -96zM362 307q0 -23 7.5 -37t17.5 -14q25 0 66 35t88 98t96 169t82 230q-116 95 -180 95q-38 0 -81.5 -128.5t-69.5 -264t-26 -183.5zM502 1147q122 176 269 342t204 166q51 0 71.5 -53t8.5 -111q-6 -23 -17.5 -44.5t-31.5 -41t-36 -33.5
t-45.5 -31.5t-44 -25.5t-47.5 -24.5t-40 -20.5l-277 -144z" />
    <glyph glyph-name="acircumflex" unicode="&#xe2;" horiz-adv-x="1187" 
d="M242 -20q-108 0 -160.5 84.5t-52.5 224.5q0 160 46 302.5t127.5 247t199.5 165.5t255 61q81 0 224 -104l206 208h62l-203 -825q-4 -14 -5.5 -23.5t-1 -22t5.5 -19.5t16.5 -12t29.5 -5q50 0 158 43l-10 -123q-88 -78 -214.5 -140t-213.5 -62q-54 0 -80 31t-17 85l39 244
h-28q-86 -168 -185 -264t-198 -96zM362 307q0 -23 7.5 -37t17.5 -14q25 0 66 35t88 98t96 169t82 230q-116 95 -180 95q-38 0 -81.5 -128.5t-69.5 -264t-26 -183.5zM389 1188q10 13 77 96.5t105 129.5t93.5 111.5t90 97.5t48.5 32t33.5 -31t46.5 -99.5t42.5 -109t46 -131.5
t32.5 -96l-27 -21l-238 211l-336 -211z" />
    <glyph glyph-name="atilde" unicode="&#xe3;" horiz-adv-x="1187" 
d="M242 -20q-108 0 -160.5 84.5t-52.5 224.5q0 160 46 302.5t127.5 247t199.5 165.5t255 61q81 0 224 -104l206 208h62l-203 -825q-4 -14 -5.5 -23.5t-1 -22t5.5 -19.5t16.5 -12t29.5 -5q50 0 158 43l-10 -123q-88 -78 -214.5 -140t-213.5 -62q-54 0 -80 31t-17 85l39 244
h-28q-86 -168 -185 -264t-198 -96zM324 1247q62 112 165 213t166 101q36 0 153.5 -63.5t145.5 -63.5q107 0 199 116l16 -20q-55 -117 -150.5 -215t-158.5 -98q-33 0 -85.5 28.5t-110.5 57t-103 28.5q-61 0 -221 -104zM362 307q0 -23 7.5 -37t17.5 -14q25 0 66 35t88 98
t96 169t82 230q-116 95 -180 95q-38 0 -81.5 -128.5t-69.5 -264t-26 -183.5z" />
    <glyph glyph-name="adieresis" unicode="&#xe4;" horiz-adv-x="1187" 
d="M242 -20q-108 0 -160.5 84.5t-52.5 224.5q0 160 46 302.5t127.5 247t199.5 165.5t255 61q81 0 224 -104l206 208h62l-203 -825q-4 -14 -5.5 -23.5t-1 -22t5.5 -19.5t16.5 -12t29.5 -5q50 0 158 43l-10 -123q-88 -78 -214.5 -140t-213.5 -62q-54 0 -80 31t-17 85l39 244
h-28q-86 -168 -185 -264t-198 -96zM362 307q0 -23 7.5 -37t17.5 -14q25 0 66 35t88 98t96 169t82 230q-116 95 -180 95q-38 0 -81.5 -128.5t-69.5 -264t-26 -183.5zM379 1358q0 73 61 129.5t135 56.5q52 0 85.5 -34t33.5 -85q0 -73 -58.5 -130.5t-129.5 -57.5
q-56 0 -91.5 34.5t-35.5 86.5zM780 1358q0 73 61.5 129.5t135.5 56.5q52 0 85.5 -34t33.5 -85q0 -73 -59 -130.5t-130 -57.5q-56 0 -91.5 34.5t-35.5 86.5z" />
    <glyph glyph-name="aring" unicode="&#xe5;" horiz-adv-x="1187" 
d="M242 -20q-108 0 -160.5 84.5t-52.5 224.5q0 160 46 302.5t127.5 247t199.5 165.5t255 61q81 0 224 -104l206 208h62l-203 -825q-4 -14 -5.5 -23.5t-1 -22t5.5 -19.5t16.5 -12t29.5 -5q50 0 158 43l-10 -123q-88 -78 -214.5 -140t-213.5 -62q-54 0 -80 31t-17 85l39 244
h-28q-86 -168 -185 -264t-198 -96zM362 307q0 -23 7.5 -37t17.5 -14q25 0 66 35t88 98t96 169t82 230q-116 95 -180 95q-38 0 -81.5 -128.5t-69.5 -264t-26 -183.5zM442 1317q0 105 99 176.5t241 71.5q112 0 178 -46t66 -122q0 -73 -51.5 -130.5t-128.5 -86.5t-160 -29
q-111 0 -177.5 46t-66.5 120zM645 1309q0 -41 15 -69t40 -28q50 0 87.5 70t37.5 123q0 42 -15 70t-42 28q-49 0 -86 -69.5t-37 -124.5z" />
    <glyph glyph-name="ae" unicode="&#xe6;" horiz-adv-x="1525" 
d="M231 -20q-108 0 -160.5 84.5t-52.5 224.5q0 160 46.5 302.5t128 247t199.5 165.5t255 61q49 0 123.5 -40t155.5 -105q196 145 399 145q102 0 161.5 -52.5t59.5 -119.5q0 -54 -33 -107.5t-80.5 -95t-121 -85t-133.5 -72t-138 -62.5l-2 115q71 47 114.5 109.5t43.5 125.5
q0 78 -49 78q-51 0 -97 -73t-72 -180t-26 -212q0 -188 152 -188q75 0 165.5 47.5t176.5 132.5l24 -123q-85 -147 -219.5 -235t-298.5 -88q-158 0 -257 99t-99 263q0 197 147 395q-143 146 -215 146q-38 0 -81.5 -129t-69 -264t-25.5 -183q0 -23 7.5 -37t17.5 -14
q21 0 64.5 21.5t80.5 52.5l21 -117q-73 -111 -153.5 -172t-158.5 -61z" />
    <glyph glyph-name="ccedilla" unicode="&#xe7;" 
d="M172 -555q113 113 113 201q0 38 -22 66t-73 67l166 209q-140 26 -222.5 130.5t-82.5 250.5q0 118 53 241.5t141 224.5t215 165.5t263 64.5q50 0 116.5 -8.5t125.5 -30t59 -49.5q0 -73 -44 -148t-87 -75q-15 0 -59 28t-100 56t-99 28q-57 0 -104 -43t-74 -108.5
t-41.5 -134.5t-14.5 -129q0 -97 40.5 -151t115.5 -54q72 0 148 45.5t167 134.5l25 -123q-74 -148 -194 -234t-250 -89l-31 -68q117 -65 117 -148q0 -68 -57.5 -139.5t-137 -122.5t-158.5 -77z" />
    <glyph glyph-name="egrave" unicode="&#xe8;" 
d="M563 1229q-37 15 -69.5 34t-66.5 46.5t-54.5 64t-20.5 76.5q0 62 33.5 133.5t83.5 71.5q19 0 83.5 -97.5t147.5 -229t125 -181.5l-18 -21zM43 342q0 126 64 257.5t165 233.5t235 167t265 65q102 0 161.5 -52.5t59.5 -119.5q0 -44 -21.5 -87.5t-55 -79t-84.5 -72.5
t-99.5 -64.5t-111.5 -58t-109 -50t-103 -43.5q-7 -3 -10 -4q0 -188 152 -188q75 0 165.5 47.5t176.5 132.5l25 -123q-85 -147 -220 -235t-299 -88q-158 0 -257 99t-99 263zM418 563q108 65 166.5 125t58.5 133q0 78 -49 78q-53 0 -100.5 -103t-75.5 -233z" />
    <glyph glyph-name="eacute" unicode="&#xe9;" 
d="M489 1147q122 176 269.5 342t204.5 166q51 0 71 -53t8 -111q-6 -23 -17.5 -44.5t-31.5 -41t-36 -33.5t-45.5 -31.5t-44 -25.5t-47.5 -24.5t-40 -20.5l-276 -144zM43 342q0 126 64 257.5t165 233.5t235 167t265 65q102 0 161.5 -52.5t59.5 -119.5q0 -44 -21.5 -87.5
t-55 -79t-84.5 -72.5t-99.5 -64.5t-111.5 -58t-109 -50t-103 -43.5q-7 -3 -10 -4q0 -188 152 -188q75 0 165.5 47.5t176.5 132.5l25 -123q-85 -147 -220 -235t-299 -88q-158 0 -257 99t-99 263zM418 563q108 65 166.5 125t58.5 133q0 78 -49 78q-53 0 -100.5 -103
t-75.5 -233z" />
    <glyph glyph-name="ecircumflex" unicode="&#xea;" 
d="M965 1167l-238 211l-336 -211l-14 21q10 13 77 96.5t105 129.5t93.5 111.5t90 97.5t48.5 32t33.5 -31.5t46 -98t42.5 -111t45 -130t33 -96.5zM43 342q0 126 64 257.5t165 233.5t235 167t265 65q102 0 161.5 -52.5t59.5 -119.5q0 -44 -21.5 -87.5t-55 -79t-84.5 -72.5
t-99.5 -64.5t-111.5 -58t-109 -50t-103 -43.5q-7 -3 -10 -4q0 -188 152 -188q75 0 165.5 47.5t176.5 132.5l25 -123q-85 -147 -220 -235t-299 -88q-158 0 -257 99t-99 263zM418 563q108 65 166.5 125t58.5 133q0 78 -49 78q-53 0 -100.5 -103t-75.5 -233z" />
    <glyph glyph-name="edieresis" unicode="&#xeb;" 
d="M895 1237q-56 0 -91.5 34.5t-35.5 86.5q0 73 61.5 129.5t135.5 56.5q52 0 85 -34t33 -85q0 -73 -58.5 -130.5t-129.5 -57.5zM43 342q0 126 64 257.5t165 233.5t235 167t265 65q102 0 161.5 -52.5t59.5 -119.5q0 -44 -21.5 -87.5t-55 -79t-84.5 -72.5t-99.5 -64.5
t-111.5 -58t-109 -50t-103 -43.5q-7 -3 -10 -4q0 -188 152 -188q75 0 165.5 47.5t176.5 132.5l25 -123q-85 -147 -220 -235t-299 -88q-158 0 -257 99t-99 263zM367 1358q0 73 61 129.5t135 56.5q52 0 85.5 -34t33.5 -85q0 -73 -58.5 -130.5t-129.5 -57.5q-56 0 -91.5 34.5
t-35.5 86.5zM418 563q108 65 166.5 125t58.5 133q0 78 -49 78q-53 0 -100.5 -103t-75.5 -233z" />
    <glyph glyph-name="igrave" unicode="&#xec;" horiz-adv-x="827" 
d="M258 -20q-97 0 -122.5 67.5t18.5 216.5l110 365q19 64 -28 107t-142 42l-20 123q122 57 286 110.5t289 53.5q33 0 49 -6.5t23.5 -28t-8.5 -63.5l-189 -623q-13 -41 0 -61.5t43 -20.5q27 0 85 12.5t102 30.5l-11 -123q-83 -73 -238.5 -137.5t-246.5 -64.5zM258 1450
q0 62 33.5 133.5t83.5 71.5q19 0 83.5 -97.5t147.5 -229t125 -181.5l-18 -21l-244 103q-37 15 -69.5 34t-66.5 46.5t-54.5 64t-20.5 76.5z" />
    <glyph glyph-name="iacute" unicode="&#xed;" horiz-adv-x="827" 
d="M258 -20q-97 0 -122.5 67.5t18.5 216.5l110 365q19 64 -28 107t-142 42l-20 123q122 57 286 110.5t289 53.5q33 0 49 -6.5t23.5 -28t-8.5 -63.5l-189 -623q-13 -41 0 -61.5t43 -20.5q27 0 85 12.5t102 30.5l-11 -123q-83 -73 -238.5 -137.5t-246.5 -64.5zM395 1147
q122 176 269 342t204 166q51 0 71.5 -53t8.5 -111q-6 -23 -17.5 -44.5t-31.5 -41t-36 -33.5t-45.5 -31.5t-44 -25.5t-47.5 -24.5t-40 -20.5l-276 -144z" />
    <glyph glyph-name="icircumflex" unicode="&#xee;" horiz-adv-x="827" 
d="M258 -20q-97 0 -122.5 67.5t18.5 216.5l110 365q19 64 -28 107t-142 42l-20 123q122 57 286 110.5t289 53.5q33 0 49 -6.5t23.5 -28t-8.5 -63.5l-189 -623q-13 -41 0 -61.5t43 -20.5q27 0 85 12.5t102 30.5l-11 -123q-83 -73 -238.5 -137.5t-246.5 -64.5zM283 1188
q13 17 77 97.5t104 128.5t94.5 112t89 96.5t48.5 32.5t33.5 -31t46.5 -99.5t42.5 -109t46 -131.5t32.5 -96l-27 -21l-237 211l-336 -211z" />
    <glyph glyph-name="idieresis" unicode="&#xef;" horiz-adv-x="827" 
d="M258 -20q-97 0 -122.5 67.5t18.5 216.5l110 365q19 64 -28 107t-142 42l-20 123q122 57 286 110.5t289 53.5q33 0 49 -6.5t23.5 -28t-8.5 -63.5l-189 -623q-13 -41 0 -61.5t43 -20.5q27 0 85 12.5t102 30.5l-11 -123q-83 -73 -238.5 -137.5t-246.5 -64.5zM272 1358
q0 73 61.5 129.5t135.5 56.5q52 0 85.5 -34t33.5 -85q0 -73 -59 -130.5t-130 -57.5q-56 0 -91.5 34.5t-35.5 86.5zM674 1358q0 73 61 129.5t135 56.5q52 0 85.5 -34t33.5 -85q0 -73 -58.5 -130.5t-129.5 -57.5q-56 0 -91.5 34.5t-35.5 86.5z" />
    <glyph glyph-name="eth" unicode="&#xf0;" horiz-adv-x="1204" 
d="M455 -20q-165 0 -280.5 114t-115.5 295q0 93 24.5 185.5t76.5 177t124 149.5t174.5 104t221.5 39q42 0 65 -2q-37 130 -102 222l-242 -148l-63 76l240 145q-90 87 -220 131l62 88q178 -52 307 -126l242 147l63 -76l-213 -131q338 -238 338 -635q0 -110 -25 -215.5
t-80 -204t-135 -172.5t-199 -118.5t-263 -44.5zM422 397q0 -315 117 -315q68 0 125 130.5t84.5 289t27.5 282.5q0 51 -2 76q-60 82 -156 82q-29 0 -53.5 -9.5t-42.5 -30t-33 -42.5t-25 -56.5t-17.5 -62.5t-12 -70l-7.5 -70t-4 -71t-1 -63.5v-57.5v-12z" />
    <glyph glyph-name="ntilde" unicode="&#xf1;" horiz-adv-x="1421" 
d="M63 860q89 75 252 140t297 65q33 0 49.5 -6.5t23.5 -28.5t-9 -63l-133 -428h20q55 108 113.5 198t125.5 166t140 119t143 43q117 0 186 -67.5t38 -168.5l-150 -485q-6 -28 -8 -44t7 -24.5t18.5 -11t25.5 -2.5q50 0 158 43l-10 -123q-86 -76 -221.5 -139t-223.5 -63
q-98 0 -125.5 67.5t15.5 216.5l143 471q12 51 7.5 61.5t-25.5 10.5q-45 0 -141.5 -131t-192 -320t-133.5 -336l-344 -40l147 649q16 68 -24 96.5t-148 11.5zM535 1247q62 112 165 213t166 101q36 0 153.5 -63.5t145.5 -63.5q107 0 199 116l16 -20q-55 -117 -150.5 -215
t-158.5 -98q-33 0 -85.5 28.5t-110.5 57t-103 28.5q-61 0 -221 -104z" />
    <glyph glyph-name="ograve" unicode="&#xf2;" horiz-adv-x="1060" 
d="M377 -18q-152 0 -241 102.5t-89 267.5q0 93 31.5 194t90 192.5t135 165t174.5 117.5t200 44q150 0 240 -109t90 -280q0 -124 -49.5 -248.5t-132.5 -223t-202 -160.5t-247 -62zM305 1450q0 62 33.5 133.5t83.5 71.5q19 0 83.5 -97.5t147.5 -229t125 -181.5l-18 -21
l-244 103q-37 15 -69.5 34t-66.5 46.5t-54.5 64t-20.5 76.5zM387 678q0 -99 26.5 -213.5t72.5 -197.5t94 -83q22 0 39.5 21t27 52.5t14.5 62.5t5 57q0 101 -27 213.5t-72 191t-90 78.5q-90 0 -90 -182z" />
    <glyph glyph-name="oacute" unicode="&#xf3;" horiz-adv-x="1060" 
d="M377 -18q-152 0 -241 102.5t-89 267.5q0 93 31.5 194t90 192.5t135 165t174.5 117.5t200 44q150 0 240 -109t90 -280q0 -124 -49.5 -248.5t-132.5 -223t-202 -160.5t-247 -62zM387 678q0 -99 26.5 -213.5t72.5 -197.5t94 -83q22 0 39.5 21t27 52.5t14.5 62.5t5 57
q0 101 -27 213.5t-72 191t-90 78.5q-90 0 -90 -182zM442 1147q122 176 269 342t204 166q51 0 71.5 -53t8.5 -111q-6 -23 -17.5 -44.5t-31.5 -41t-36 -33.5t-45.5 -31.5t-44 -25.5t-47.5 -24.5t-40 -20.5l-276 -144z" />
    <glyph glyph-name="ocircumflex" unicode="&#xf4;" horiz-adv-x="1060" 
d="M377 -18q-152 0 -241 102.5t-89 267.5q0 93 31.5 194t90 192.5t135 165t174.5 117.5t200 44q150 0 240 -109t90 -280q0 -124 -49.5 -248.5t-132.5 -223t-202 -160.5t-247 -62zM330 1188q13 17 77 97.5t104 128.5t94.5 112t89 96.5t48.5 32.5t33.5 -31t46.5 -99.5
t42.5 -109t46 -131.5t32.5 -96l-26 -21l-238 211l-336 -211zM387 678q0 -99 26.5 -213.5t72.5 -197.5t94 -83q22 0 39.5 21t27 52.5t14.5 62.5t5 57q0 101 -27 213.5t-72 191t-90 78.5q-90 0 -90 -182z" />
    <glyph glyph-name="otilde" unicode="&#xf5;" horiz-adv-x="1060" 
d="M377 -18q-152 0 -241 102.5t-89 267.5q0 93 31.5 194t90 192.5t135 165t174.5 117.5t200 44q150 0 240 -109t90 -280q0 -124 -49.5 -248.5t-132.5 -223t-202 -160.5t-247 -62zM264 1247q62 112 165.5 213t166.5 101q36 0 153.5 -63.5t145.5 -63.5q107 0 199 116l16 -20
q-55 -117 -150.5 -215t-158.5 -98q-33 0 -85.5 28.5t-110.5 57t-103 28.5q-61 0 -221 -104zM387 678q0 -99 26.5 -213.5t72.5 -197.5t94 -83q22 0 39.5 21t27 52.5t14.5 62.5t5 57q0 101 -27 213.5t-72 191t-90 78.5q-90 0 -90 -182z" />
    <glyph glyph-name="odieresis" unicode="&#xf6;" horiz-adv-x="1060" 
d="M377 -18q-152 0 -241 102.5t-89 267.5q0 93 31.5 194t90 192.5t135 165t174.5 117.5t200 44q150 0 240 -109t90 -280q0 -124 -49.5 -248.5t-132.5 -223t-202 -160.5t-247 -62zM319 1358q0 73 61.5 129.5t135.5 56.5q52 0 85.5 -34t33.5 -85q0 -73 -59 -130.5t-130 -57.5
q-56 0 -91.5 34.5t-35.5 86.5zM387 678q0 -99 26.5 -213.5t72.5 -197.5t94 -83q22 0 39.5 21t27 52.5t14.5 62.5t5 57q0 101 -27 213.5t-72 191t-90 78.5q-90 0 -90 -182zM721 1358q0 73 61.5 129.5t135.5 56.5q52 0 85 -34t33 -85q0 -73 -58.5 -130.5t-129.5 -57.5
q-56 0 -91.5 34.5t-35.5 86.5z" />
    <glyph glyph-name="divide" unicode="&#xf7;" horiz-adv-x="1048" 
d="M84 432l31 143h839l-30 -143h-840zM328 164q0 58 45.5 101.5t103.5 43.5q44 0 70 -26t26 -68q0 -59 -44.5 -103t-102.5 -44q-44 0 -71 27t-27 69zM463 793q0 59 44.5 103t102.5 44q44 0 71.5 -27t27.5 -69q0 -58 -46 -102t-104 -44q-44 0 -70 26.5t-26 68.5z" />
    <glyph glyph-name="oslash" unicode="&#xf8;" horiz-adv-x="1040" 
d="M377 -18q-97 0 -171 43.5t-114 121.5l-170 -147h-141l270 231l15 -16q-19 65 -19 137q0 93 31.5 194t90 192.5t135 165t174.5 117.5t200 44q164 0 254 -127l125 106h141l-221 -190q31 -79 31 -178q0 -124 -49.5 -248.5t-132.5 -223t-202 -160.5t-247 -62zM387 678
q0 -79 19 -176l206 176q-29 82 -64.5 132t-70.5 50q-90 0 -90 -182zM430 403q30 -97 69 -158t81 -61q22 0 39.5 21t27 52.5t14.5 62.5t5 57q0 84 -25 205z" />
    <glyph glyph-name="ugrave" unicode="&#xf9;" horiz-adv-x="1359" 
d="M279 -20q-115 0 -183 67t-28 150q111 225 178 503q10 40 -2 61t-41 21q-50 0 -158 -43l10 123q86 76 221.5 139.5t223.5 63.5q95 0 126 -59.5t3 -169.5q-55 -221 -170 -543q-13 -37 28 -37q62 0 154 128.5t171 306t120 333.5l344 41l-174 -721q-12 -51 -0.5 -66.5
t43.5 -15.5q28 0 89 13t105 30l-10 -123q-86 -76 -221 -139t-223 -63q-199 0 -111 284l68 213h-21q-108 -209 -257.5 -353t-284.5 -144zM479 1450q0 62 33.5 133.5t83.5 71.5q19 0 83.5 -97.5t147.5 -229t125 -181.5l-18 -21l-244 103q-37 15 -69.5 34t-66.5 46.5t-54.5 64
t-20.5 76.5z" />
    <glyph glyph-name="uacute" unicode="&#xfa;" horiz-adv-x="1359" 
d="M279 -20q-115 0 -183 67t-28 150q111 225 178 503q10 40 -2 61t-41 21q-50 0 -158 -43l10 123q86 76 221.5 139.5t223.5 63.5q95 0 126 -59.5t3 -169.5q-55 -221 -170 -543q-13 -37 28 -37q62 0 154 128.5t171 306t120 333.5l344 41l-174 -721q-12 -51 -0.5 -66.5
t43.5 -15.5q28 0 89 13t105 30l-10 -123q-86 -76 -221 -139t-223 -63q-199 0 -111 284l68 213h-21q-108 -209 -257.5 -353t-284.5 -144zM616 1147q122 176 269.5 342t204.5 166q51 0 71 -53t8 -111q-6 -23 -17.5 -44.5t-31.5 -41t-36 -33.5t-45.5 -31.5t-44 -25.5
t-47.5 -24.5t-40 -20.5l-276 -144z" />
    <glyph glyph-name="ucircumflex" unicode="&#xfb;" horiz-adv-x="1359" 
d="M279 -20q-115 0 -183 67t-28 150q111 225 178 503q10 40 -2 61t-41 21q-50 0 -158 -43l10 123q86 76 221.5 139.5t223.5 63.5q95 0 126 -59.5t3 -169.5q-55 -221 -170 -543q-13 -37 28 -37q62 0 154 128.5t171 306t120 333.5l344 41l-174 -721q-12 -51 -0.5 -66.5
t43.5 -15.5q28 0 89 13t105 30l-10 -123q-86 -76 -221 -139t-223 -63q-199 0 -111 284l68 213h-21q-108 -209 -257.5 -353t-284.5 -144zM504 1188q10 13 77 96.5t105 129.5t93.5 111.5t90 97.5t48.5 32t33.5 -31.5t46 -98t42.5 -111t45 -130t33 -96.5l-26 -21l-238 211
l-336 -211z" />
    <glyph glyph-name="udieresis" unicode="&#xfc;" horiz-adv-x="1359" 
d="M279 -20q-115 0 -183 67t-28 150q111 225 178 503q10 40 -2 61t-41 21q-50 0 -158 -43l10 123q86 76 221.5 139.5t223.5 63.5q95 0 126 -59.5t3 -169.5q-55 -221 -170 -543q-13 -37 28 -37q62 0 154 128.5t171 306t120 333.5l344 41l-174 -721q-12 -51 -0.5 -66.5
t43.5 -15.5q28 0 89 13t105 30l-10 -123q-86 -76 -221 -139t-223 -63q-199 0 -111 284l68 213h-21q-108 -209 -257.5 -353t-284.5 -144zM494 1358q0 73 61 129.5t135 56.5q52 0 85.5 -34t33.5 -85q0 -73 -58.5 -130.5t-129.5 -57.5q-56 0 -91.5 34.5t-35.5 86.5zM895 1358
q0 73 61.5 129.5t135.5 56.5q52 0 85 -34t33 -85q0 -73 -58.5 -130.5t-129.5 -57.5q-56 0 -91.5 34.5t-35.5 86.5z" />
    <glyph glyph-name="yacute" unicode="&#xfd;" horiz-adv-x="1210" 
d="M-199 -324q18 -2 62 -2q76 0 150.5 11.5t148 36t132.5 69.5t89 105q55 110 55 264q0 138 -41.5 286.5t-100.5 243t-108 94.5q-69 0 -147 -45l-12 123q87 70 209.5 136.5t197.5 66.5q76 0 140 -90t100.5 -239.5t36.5 -319.5q0 -19 -2.5 -83t-3.5 -97q79 153 134.5 352
t55.5 395q0 37 25.5 59.5t64.5 22.5q61 0 153.5 -38t92.5 -77q0 -101 -75 -256.5t-215.5 -353.5t-297.5 -394t-364 -435q-108 0 -247 17t-233 46v102zM582 1147q122 176 269 342t204 166q51 0 71.5 -53t8.5 -111q-6 -23 -17.5 -44.5t-31.5 -41t-36.5 -33.5t-45.5 -31.5
t-44 -25.5t-47.5 -24.5t-40.5 -20.5l-276 -144z" />
    <glyph glyph-name="thorn" unicode="&#xfe;" horiz-adv-x="1175" 
d="M-174 -387q78 20 120.5 61.5t57.5 108.5l336 1452q18 75 -28 96t-203 4v123q95 46 289.5 82.5t361.5 36.5l-266 -887h20v-2q82 177 179.5 277t197.5 100q122 0 182 -93t60 -243q0 -153 -47 -290t-129.5 -238.5t-202.5 -161t-258 -59.5q-31 0 -99 10l-82 -357l322 50
l-27 -154l-800 -18zM461 256q58 -43 115.5 -68.5t89.5 -25.5q44 0 87.5 184.5t43.5 263.5q0 178 -54 178q-25 0 -58.5 -32t-72 -93t-79 -167.5t-72.5 -239.5z" />
    <glyph glyph-name="ydieresis" unicode="&#xff;" horiz-adv-x="1210" 
d="M-199 -324q18 -2 62 -2q76 0 150.5 11.5t148 36t132.5 69.5t89 105q55 110 55 264q0 138 -41.5 286.5t-100.5 243t-108 94.5q-69 0 -147 -45l-12 123q87 70 209.5 136.5t197.5 66.5q76 0 140 -90t100.5 -239.5t36.5 -319.5q0 -19 -2.5 -83t-3.5 -97q79 153 134.5 352
t55.5 395q0 37 25.5 59.5t64.5 22.5q61 0 153.5 -38t92.5 -77q0 -101 -75 -256.5t-215.5 -353.5t-297.5 -394t-364 -435q-108 0 -247 17t-233 46v102zM459 1358q0 73 61 129.5t135 56.5q52 0 85.5 -34t33.5 -85q0 -73 -58.5 -130.5t-129.5 -57.5q-56 0 -91.5 34.5
t-35.5 86.5zM860 1358q0 73 61.5 129.5t135.5 56.5q52 0 85.5 -34t33.5 -85q0 -73 -59 -130.5t-130 -57.5q-56 0 -91.5 34.5t-35.5 86.5z" />
    <glyph glyph-name="Amacron" unicode="&#x100;" horiz-adv-x="1716" 
d="M821 0l43 102l70 21q64 19 84 51.5t20 95.5l-2 125h-563l-229 -272l225 20l-51 -143h-539l43 102l98 21q16 3 31 9.5t26.5 12t27 18t23.5 19.5t24 24.5t21.5 24t24 28.5t23.5 28l191 225l2 6h4l592 701q-56 126 -256 194l16 41h600l19 -1331l223 20l-51 -143h-740z
M578 518h458l-6 535zM801 1632q7 32 45.5 82.5t66.5 50.5h609q-8 -39 -42 -86t-71 -47h-608z" />
    <glyph glyph-name="amacron" unicode="&#x101;" horiz-adv-x="1187" 
d="M242 -20q-108 0 -160.5 84.5t-52.5 224.5q0 160 46 302.5t127.5 247t199.5 165.5t255 61q81 0 224 -104l206 208h62l-203 -825q-4 -14 -5.5 -23.5t-1 -22t5.5 -19.5t16.5 -12t29.5 -5q50 0 158 43l-10 -123q-88 -78 -214.5 -140t-213.5 -62q-54 0 -80 31t-17 85l39 244
h-28q-86 -168 -185 -264t-198 -96zM362 307q0 -23 7.5 -37t17.5 -14q25 0 66 35t88 98t96 169t82 230q-116 95 -180 95q-38 0 -81.5 -128.5t-69.5 -264t-26 -183.5zM377 1221q7 32 45.5 82.5t66.5 50.5h609q-8 -39 -42 -86t-71 -47h-608z" />
    <glyph glyph-name="Abreve" unicode="&#x102;" horiz-adv-x="1716" 
d="M821 0l43 102l70 21q64 19 84 51.5t20 95.5l-2 125h-563l-229 -272l225 20l-51 -143h-539l43 102l98 21q16 3 31 9.5t26.5 12t27 18t23.5 19.5t24 24.5t21.5 24t24 28.5t23.5 28l191 225l2 6h4l592 701q-56 126 -256 194l16 41h600l19 -1331l223 20l-51 -143h-740z
M578 518h458l-6 535zM913 1985l25 20q-5 -84 57.5 -147.5t169.5 -63.5q111 0 201 63t121 148l16 -20q-44 -173 -152 -289.5t-237 -116.5q-132 0 -186 116.5t-15 289.5z" />
    <glyph glyph-name="abreve" unicode="&#x103;" horiz-adv-x="1187" 
d="M242 -20q-108 0 -160.5 84.5t-52.5 224.5q0 160 46 302.5t127.5 247t199.5 165.5t255 61q81 0 224 -104l206 208h62l-203 -825q-4 -14 -5.5 -23.5t-1 -22t5.5 -19.5t16.5 -12t29.5 -5q50 0 158 43l-10 -123q-88 -78 -214.5 -140t-213.5 -62q-54 0 -80 31t-17 85l39 244
h-28q-86 -168 -185 -264t-198 -96zM362 307q0 -23 7.5 -37t17.5 -14q25 0 66 35t88 98t96 169t82 230q-116 95 -180 95q-38 0 -81.5 -128.5t-69.5 -264t-26 -183.5zM489 1573l25 20q-5 -84 57.5 -147.5t169.5 -63.5q111 0 201 63t121 148l16 -20q-44 -173 -152 -289.5
t-237 -116.5q-132 0 -186 116.5t-15 289.5z" />
    <glyph glyph-name="Aogonek" unicode="&#x104;" horiz-adv-x="1716" 
d="M821 0l43 102l70 21q64 19 84 51.5t20 95.5l-2 125h-563l-229 -272l225 20l-51 -143h-539l43 102l98 21q16 3 31 9.5t26.5 12t27 18t23.5 19.5t24 24.5t21.5 24t24 28.5t23.5 28l191 225l2 6h4l592 701q-56 126 -256 194l16 41h600l19 -1331l223 20l-51 -143h-203
q-52 -39 -94.5 -95t-59 -91t-16.5 -43q0 -34 24.5 -57t65.5 -23q81 0 149 39l17 -21q-22 -28 -158.5 -114.5t-152.5 -86.5q-83 0 -131 34t-48 91q0 64 72 169t184 198h-389zM578 518h458l-6 535z" />
    <glyph glyph-name="aogonek" unicode="&#x105;" horiz-adv-x="1187" 
d="M242 -20q-108 0 -160.5 84.5t-52.5 224.5q0 160 46 302.5t127.5 247t199.5 165.5t255 61q81 0 224 -104l206 208h62l-203 -825q-4 -14 -5.5 -23.5t-1 -22t5.5 -19.5t16.5 -12t29.5 -5q50 0 158 43l-10 -123q-101 -91 -248 -155q-47 -38 -84.5 -91.5t-52.5 -85.5t-15 -38
q0 -34 24.5 -57t65.5 -23q82 0 150 39l16 -21q-22 -28 -158.5 -114.5t-152.5 -86.5q-83 0 -130.5 34t-47.5 91q0 53 51.5 137.5t136.5 168.5q-46 6 -67.5 36.5t-12.5 79.5l39 244h-28q-86 -168 -185 -264t-198 -96zM362 307q0 -23 7.5 -37t17.5 -14q25 0 66 35t88 98t96 169
t82 230q-116 95 -180 95q-38 0 -81.5 -128.5t-69.5 -264t-26 -183.5z" />
    <glyph glyph-name="Cacute" unicode="&#x106;" horiz-adv-x="1552" 
d="M793 -20q-206 0 -363.5 70t-245.5 202t-88 307q0 151 53.5 292t148.5 253t220.5 196t276 129.5t307.5 45.5q268 0 502 -107l-70 -426h-92q-31 201 -120 300t-275 99q-95 0 -177.5 -35.5t-142 -96.5t-106.5 -139.5t-75 -169t-42.5 -181t-14.5 -178.5q0 -206 87 -317
t253 -111q116 0 211 44.5t174.5 128.5t171.5 226h93l-183 -471q-226 -61 -503 -61zM911 1597q123 134 265.5 270t183.5 136q40 0 59.5 -36t7.5 -87q-5 -23 -14 -43t-17 -35.5t-23.5 -31t-24.5 -25t-29.5 -21.5t-29 -17t-32 -15t-30 -12t-32 -11t-28.5 -10l-241 -82z" />
    <glyph glyph-name="cacute" unicode="&#x107;" 
d="M444 -20q-177 0 -285 110t-108 279q0 118 53 241.5t141 224.5t215 165.5t263 64.5q50 0 116.5 -8.5t125.5 -30t59 -49.5q0 -73 -44 -148t-87 -75q-15 0 -59 28t-100 56t-99 28q-57 0 -104 -43t-74 -108.5t-41.5 -134.5t-14.5 -129q0 -97 40.5 -151t115.5 -54
q72 0 148 45.5t167 134.5l25 -123q-75 -150 -198.5 -236.5t-254.5 -86.5zM522 1147q122 176 269 342t204 166q51 0 71.5 -53t8.5 -111q-6 -23 -17.5 -44.5t-31.5 -41t-36 -33.5t-45.5 -31.5t-44 -25.5t-47.5 -24.5t-40 -20.5l-276 -144z" />
    <glyph glyph-name="Ccircumflex" unicode="&#x108;" horiz-adv-x="1552" 
d="M793 -20q-206 0 -363.5 70t-245.5 202t-88 307q0 151 53.5 292t148.5 253t220.5 196t276 129.5t307.5 45.5q268 0 502 -107l-70 -426h-92q-31 201 -120 300t-275 99q-95 0 -177.5 -35.5t-142 -96.5t-106.5 -139.5t-75 -169t-42.5 -181t-14.5 -178.5q0 -206 87 -317
t253 -111q116 0 211 44.5t174.5 128.5t171.5 226h93l-183 -471q-226 -61 -503 -61zM772 1597q118 138 252 272t168 134q33 0 105.5 -132.5t129.5 -273.5l-26 -20l-262 190l-353 -190z" />
    <glyph glyph-name="ccircumflex" unicode="&#x109;" 
d="M444 -20q-177 0 -285 110t-108 279q0 118 53 241.5t141 224.5t215 165.5t263 64.5q50 0 116.5 -8.5t125.5 -30t59 -49.5q0 -73 -44 -148t-87 -75q-15 0 -59 28t-100 56t-99 28q-57 0 -104 -43t-74 -108.5t-41.5 -134.5t-14.5 -129q0 -97 40.5 -151t115.5 -54
q72 0 148 45.5t167 134.5l25 -123q-75 -150 -198.5 -236.5t-254.5 -86.5zM410 1188q13 17 77 97.5t104 128.5t94.5 112t89 96.5t48.5 32.5t33.5 -31t46.5 -99.5t42.5 -109t46 -131.5t32.5 -96l-27 -21l-237 211l-336 -211z" />
    <glyph glyph-name="Cdotaccent" unicode="&#x10a;" horiz-adv-x="1552" 
d="M793 -20q-206 0 -363.5 70t-245.5 202t-88 307q0 151 53.5 292t148.5 253t220.5 196t276 129.5t307.5 45.5q268 0 502 -107l-70 -426h-92q-31 201 -120 300t-275 99q-95 0 -177.5 -35.5t-142 -96.5t-106.5 -139.5t-75 -169t-42.5 -181t-14.5 -178.5q0 -206 87 -317
t253 -111q116 0 211 44.5t174.5 128.5t171.5 226h93l-183 -471q-226 -61 -503 -61zM928 1737q0 96 81 172t179 76q71 0 115.5 -44.5t44.5 -111.5q0 -98 -78 -176t-174 -78q-74 0 -121 46t-47 116z" />
    <glyph glyph-name="cdotaccent" unicode="&#x10b;" 
d="M444 -20q-177 0 -285 110t-108 279q0 118 53 241.5t141 224.5t215 165.5t263 64.5q50 0 116.5 -8.5t125.5 -30t59 -49.5q0 -73 -44 -148t-87 -75q-15 0 -59 28t-100 56t-99 28q-57 0 -104 -43t-74 -108.5t-41.5 -134.5t-14.5 -129q0 -97 40.5 -151t115.5 -54
q72 0 148 45.5t167 134.5l25 -123q-75 -150 -198.5 -236.5t-254.5 -86.5zM545 1327q0 96 81 172t179 76q71 0 115.5 -44.5t44.5 -111.5q0 -98 -78 -176t-174 -78q-74 0 -121 46t-47 116z" />
    <glyph glyph-name="Ccaron" unicode="&#x10c;" horiz-adv-x="1552" 
d="M793 -20q-206 0 -363.5 70t-245.5 202t-88 307q0 151 53.5 292t148.5 253t220.5 196t276 129.5t307.5 45.5q268 0 502 -107l-70 -426h-92q-31 201 -120 300t-275 99q-95 0 -177.5 -35.5t-142 -96.5t-106.5 -139.5t-75 -169t-42.5 -181t-14.5 -178.5q0 -206 87 -317
t253 -111q116 0 211 44.5t174.5 128.5t171.5 226h93l-183 -471q-226 -61 -503 -61zM840 1985l26 20l262 -190l353 190l14 -20q-118 -138 -252 -272t-168 -134q-33 0 -105.5 132.5t-129.5 273.5z" />
    <glyph glyph-name="ccaron" unicode="&#x10d;" 
d="M444 -20q-177 0 -285 110t-108 279q0 118 53 241.5t141 224.5t215 165.5t263 64.5q50 0 116.5 -8.5t125.5 -30t59 -49.5q0 -73 -44 -148t-87 -75q-15 0 -59 28t-100 56t-99 28q-57 0 -104 -43t-74 -108.5t-41.5 -134.5t-14.5 -129q0 -97 40.5 -151t115.5 -54
q72 0 148 45.5t167 134.5l25 -123q-75 -150 -198.5 -236.5t-254.5 -86.5zM496 1634l24 21l238 -211l336 211l16 -21q-14 -17 -54 -67t-68.5 -85.5t-70.5 -87t-73.5 -87t-63.5 -70.5t-54 -52.5t-32 -17.5q-14 0 -34 32.5t-44.5 96t-42.5 112.5t-44.5 128.5z" />
    <glyph glyph-name="Dcaron" unicode="&#x10e;" horiz-adv-x="1759" 
d="M-27 0l43 102l64 19q55 15 95 53.5t50 89.5l228 1067l-205 -20l51 143h750q162 0 297.5 -43.5t227 -119t142.5 -178t51 -220.5q0 -172 -77.5 -334.5t-209.5 -286t-321 -198t-399 -74.5h-787zM553 123h233q105 0 199.5 45t164.5 121.5t121 176t77 211.5t26 224
q0 196 -109.5 313t-322.5 117h-133zM807 1985l27 20l262 -190l352 190l14 -20q-118 -138 -252 -272t-168 -134q-33 0 -105.5 132.5t-129.5 273.5z" />
    <glyph glyph-name="dcaron" unicode="&#x10f;" horiz-adv-x="1253" 
d="M254 -20q-108 0 -160.5 83.5t-52.5 221.5q0 149 45.5 289.5t125.5 249.5t199.5 175t258.5 66q48 0 121 -39l51 209q6 27 4.5 46t-11 32t-24.5 19.5t-34.5 9.5t-42 3t-47 -2t-49.5 -5q-19 -2 -28 -3v123q96 46 288 82.5t359 36.5l-284 -1233q-8 -34 1.5 -58t41.5 -24
q27 0 86.5 12.5t103.5 30.5l-10 -123q-89 -78 -213.5 -140t-210.5 -62q-72 0 -116 53t-35 139l14 129h-23l2 10q-82 -156 -174.5 -243.5t-185.5 -87.5zM375 305q0 -49 16 -49q25 0 67 35t91 98t99 169t83 230q-116 95 -180 95q-40 0 -83.5 -128t-68 -263t-24.5 -187z
M1264 1022l75 328q13 58 23 88.5t31 61t54 42.5t85 12q54 0 85.5 -23t31.5 -65q0 -26 -18.5 -59.5t-96 -127t-229.5 -257.5h-41z" />
    <glyph glyph-name="Dcroat" unicode="&#x110;" horiz-adv-x="1759" 
d="M127 686l20 102h191l115 543l-205 -20l51 143h750q162 0 297.5 -43.5t227 -119t142.5 -178t51 -220.5q0 -172 -77.5 -334.5t-209.5 -286t-321 -198t-399 -74.5h-787l43 102l64 19q55 15 95 53.5t50 89.5l90 422h-188zM553 123h233q105 0 199.5 45t164.5 121.5t121 176
t77 211.5t26 224q0 196 -109.5 313t-322.5 117h-133l-115 -543h250l-20 -102h-252z" />
    <glyph glyph-name="dcroat" unicode="&#x111;" horiz-adv-x="1253" 
d="M582 1145l16 102h246q6 33 -3 54.5t-28.5 30.5t-48.5 11.5t-61.5 0.5t-67.5 -6q-17 -2 -25 -3v123q96 46 288 82.5t359 36.5l-75 -330h125l-17 -102h-133l-184 -801q-8 -34 1.5 -58t41.5 -24q27 0 86.5 12.5t103.5 30.5l-10 -123q-89 -78 -213.5 -140t-210.5 -62
q-72 0 -116 53t-35 139l14 129h-23l2 10q-82 -156 -174.5 -243.5t-185.5 -87.5q-108 0 -160.5 83.5t-52.5 221.5q0 149 45.5 289.5t125.5 249.5t199.5 175t258.5 66q48 0 121 -39l28 119h-237zM375 305q0 -49 16 -49q25 0 67 35t91 98t99 169t83 230q-116 95 -180 95
q-40 0 -83.5 -128t-68 -263t-24.5 -187z" />
    <glyph glyph-name="Emacron" unicode="&#x112;" horiz-adv-x="1495" 
d="M-29 0l43 102l64 19q121 34 141 133l230 1077l-201 -20l51 143h877q132 0 286 62l-32 -541h-93q-41 177 -108 266.5t-180 89.5h-244l-113 -528h129q70 0 128 52t112 181h92l-123 -577h-92q0 130 -35.5 180.5t-105.5 50.5h-127l-121 -567h313q118 0 239 117t224 301h92
l-229 -602q-122 61 -273 61h-944zM684 1630q7 31 46 82t67 51h608q-8 -39 -42 -86t-71 -47h-608z" />
    <glyph glyph-name="emacron" unicode="&#x113;" 
d="M365 1221q7 32 45.5 82.5t66.5 50.5h608q-8 -39 -41.5 -86t-70.5 -47h-608zM43 342q0 126 64 257.5t165 233.5t235 167t265 65q102 0 161.5 -52.5t59.5 -119.5q0 -44 -21.5 -87.5t-55 -79t-84.5 -72.5t-99.5 -64.5t-111.5 -58t-109 -50t-103 -43.5q-7 -3 -10 -4
q0 -188 152 -188q75 0 165.5 47.5t176.5 132.5l25 -123q-85 -147 -220 -235t-299 -88q-158 0 -257 99t-99 263zM418 563q108 65 166.5 125t58.5 133q0 78 -49 78q-53 0 -100.5 -103t-75.5 -233z" />
    <glyph glyph-name="Edotaccent" unicode="&#x116;" horiz-adv-x="1495" 
d="M-29 0l43 102l64 19q121 34 141 133l230 1077l-201 -20l51 143h877q132 0 286 62l-32 -541h-93q-41 177 -108 266.5t-180 89.5h-244l-113 -528h129q70 0 128 52t112 181h92l-123 -577h-92q0 130 -35.5 180.5t-105.5 50.5h-127l-121 -567h313q118 0 239 117t224 301h92
l-229 -602q-122 61 -273 61h-944zM831 1737q0 96 81.5 172t179.5 76q71 0 115 -44.5t44 -111.5q0 -98 -78 -176t-174 -78q-74 0 -121 46t-47 116z" />
    <glyph glyph-name="edotaccent" unicode="&#x117;" 
d="M680 1165q-74 0 -121 46t-47 116q0 96 81 172t179 76q71 0 115.5 -44.5t44.5 -111.5q0 -98 -78 -176t-174 -78zM43 342q0 126 64 257.5t165 233.5t235 167t265 65q102 0 161.5 -52.5t59.5 -119.5q0 -44 -21.5 -87.5t-55 -79t-84.5 -72.5t-99.5 -64.5t-111.5 -58t-109 -50
t-103 -43.5q-7 -3 -10 -4q0 -188 152 -188q75 0 165.5 47.5t176.5 132.5l25 -123q-85 -147 -220 -235t-299 -88q-158 0 -257 99t-99 263zM418 563q108 65 166.5 125t58.5 133q0 78 -49 78q-53 0 -100.5 -103t-75.5 -233z" />
    <glyph glyph-name="Eogonek" unicode="&#x118;" horiz-adv-x="1495" 
d="M-29 0l43 102l64 19q121 34 141 133l230 1077l-201 -20l51 143h877q132 0 286 62l-32 -541h-93q-41 177 -108 266.5t-180 89.5h-244l-113 -528h129q70 0 128 52t112 181h92l-123 -577h-92q0 130 -35.5 180.5t-105.5 50.5h-127l-121 -567h313q118 0 239 117t224 301h92
l-229 -602q-119 61 -268 61q-52 -39 -94.5 -95t-59 -91t-16.5 -43q0 -34 24.5 -57t65.5 -23q81 0 149 39l17 -21q-22 -28 -159 -114.5t-153 -86.5q-83 0 -130.5 34t-47.5 91q0 64 72 169t184 198h-801z" />
    <glyph glyph-name="eogonek" unicode="&#x119;" 
d="M424 -451q-83 0 -130.5 34t-47.5 91q0 53 51.5 138t136.5 170q-10 -2 -35 -2q-158 0 -257 99t-99 263q0 126 64 257.5t165 233.5t235 167t265 65q102 0 161.5 -52.5t59.5 -119.5q0 -44 -21.5 -87.5t-55 -79t-84.5 -72.5t-99.5 -64.5t-111.5 -58t-109 -50t-103 -43.5
q-7 -3 -10 -4q0 -188 152 -188q75 0 165.5 47.5t176.5 132.5l25 -123q-104 -181 -275 -266q-51 -39 -91.5 -94.5t-56.5 -89.5t-16 -41q0 -34 24.5 -57t65.5 -23q82 0 150 39l16 -21q-22 -28 -158.5 -114.5t-152.5 -86.5zM418 563q108 65 166.5 125t58.5 133q0 78 -49 78
q-53 0 -100.5 -103t-75.5 -233z" />
    <glyph glyph-name="Ecaron" unicode="&#x11a;" horiz-adv-x="1495" 
d="M-29 0l43 102l64 19q121 34 141 133l230 1077l-201 -20l51 143h877q132 0 286 62l-32 -541h-93q-41 177 -108 266.5t-180 89.5h-244l-113 -528h129q70 0 128 52t112 181h92l-123 -577h-92q0 130 -35.5 180.5t-105.5 50.5h-127l-121 -567h313q118 0 239 117t224 301h92
l-229 -602q-122 61 -273 61h-944zM743 1985l27 20l262 -190l352 190l15 -20q-118 -138 -252 -272t-168 -134q-33 0 -106.5 133t-129.5 273z" />
    <glyph glyph-name="ecaron" unicode="&#x11b;" 
d="M662 1167q-14 0 -34 32t-45 97t-42.5 112t-45 129t-32.5 97l24 21l238 -211l336 211l16 -21q-6 -8 -76.5 -96t-106 -131t-93 -110t-91.5 -98.5t-48 -31.5zM43 342q0 126 64 257.5t165 233.5t235 167t265 65q102 0 161.5 -52.5t59.5 -119.5q0 -44 -21.5 -87.5t-55 -79
t-84.5 -72.5t-99.5 -64.5t-111.5 -58t-109 -50t-103 -43.5q-7 -3 -10 -4q0 -188 152 -188q75 0 165.5 47.5t176.5 132.5l25 -123q-85 -147 -220 -235t-299 -88q-158 0 -257 99t-99 263zM418 563q108 65 166.5 125t58.5 133q0 78 -49 78q-53 0 -100.5 -103t-75.5 -233z" />
    <glyph glyph-name="Gcircumflex" unicode="&#x11c;" horiz-adv-x="1732" 
d="M817 -20q-335 0 -529 150t-194 411q0 192 79.5 365t216 297.5t328.5 198t408 73.5q255 0 478 -62l-60 -471h-92q-14 83 -44 152t-79 126t-125.5 89t-173.5 32q-92 0 -172.5 -36.5t-138.5 -99t-103.5 -143t-73 -172t-41.5 -182t-14 -176.5q0 -199 94.5 -309t272.5 -110
q261 0 301 186l80 371l-309 -21l47 123h760l-41 -92q-48 0 -83 -24t-44 -68l-64 -305q-4 -28 -4 -37q0 -68 68 -68l-6 -69q-220 -71 -382.5 -100t-359.5 -29zM834 1597q119 139 252.5 272.5t166.5 133.5t106.5 -133t129.5 -273l-27 -20l-262 190l-352 -190z" />
    <glyph glyph-name="gcircumflex" unicode="&#x11d;" horiz-adv-x="1177" 
d="M442 -492q-117 0 -219 16t-185.5 48t-132 87t-48.5 128q0 102 90 168t225 88q-80 64 -80 143q0 37 89.5 86.5t187.5 77.5q-150 18 -239 85.5t-89 170.5q0 115 83 221.5t217.5 171t279.5 64.5q70 0 139 -16q51 78 112 133l-223 198l-336 -211l-14 21q10 13 77 96.5
t105 129.5t93.5 111.5t90 97.5t48.5 32q15 0 39.5 -43.5t48 -104t50 -136t44.5 -128.5q8 -26 12 -37q139 107 316 107q20 0 31.5 -14t11.5 -35q0 -88 -43.5 -154t-100.5 -66q-139 0 -260 -34q72 -39 112 -97t40 -127q0 -83 -45 -163t-118.5 -139.5t-172 -97t-201.5 -40.5
q-12 -36 -12 -65q0 -18 106 -58l267 -98q102 -38 149 -80t47 -102q0 -71 -40 -146t-112 -140t-188 -107t-252 -42zM209 -137q0 -72 105.5 -121t271.5 -49q72 0 120 14.5t48 36.5q0 31 -88 70l-392 176q-65 -62 -65 -127zM403 791q0 -56 20.5 -127t60 -127t85.5 -56
q64 0 64 123q0 42 -9 95t-25.5 106.5t-46.5 89t-67 35.5q-82 0 -82 -139z" />
    <glyph glyph-name="Gbreve" unicode="&#x11e;" horiz-adv-x="1732" 
d="M817 -20q-335 0 -529 150t-194 411q0 192 79.5 365t216 297.5t328.5 198t408 73.5q255 0 478 -62l-60 -471h-92q-14 83 -44 152t-79 126t-125.5 89t-173.5 32q-92 0 -172.5 -36.5t-138.5 -99t-103.5 -143t-73 -172t-41.5 -182t-14 -176.5q0 -199 94.5 -309t272.5 -110
q261 0 301 186l80 371l-309 -21l47 123h760l-41 -92q-48 0 -83 -24t-44 -68l-64 -305q-4 -28 -4 -37q0 -68 68 -68l-6 -69q-220 -71 -382.5 -100t-359.5 -29zM954 1982l25 21q-5 -84 57.5 -147.5t169.5 -63.5q111 0 201 63t121 148l16 -21q-44 -173 -152 -289t-237 -116
q-132 0 -186 116t-15 289z" />
    <glyph glyph-name="gbreve" unicode="&#x11f;" horiz-adv-x="1177" 
d="M442 -492q-117 0 -219 16t-185.5 48t-132 87t-48.5 128q0 102 90 168t225 88q-80 64 -80 143q0 37 89.5 86.5t187.5 77.5q-150 18 -239 85.5t-89 170.5q0 115 83 221.5t217.5 171t279.5 64.5q70 0 139 -16q76 116 191.5 191t271.5 75q20 0 31.5 -14t11.5 -35
q0 -88 -43.5 -154t-100.5 -66q-139 0 -260 -34q72 -39 112 -97t40 -127q0 -83 -45 -163t-118.5 -139.5t-172 -97t-201.5 -40.5q-12 -36 -12 -65q0 -18 106 -58l267 -98q102 -38 149 -80t47 -102q0 -71 -40 -146t-112 -140t-188 -107t-252 -42zM209 -137q0 -72 105.5 -121
t271.5 -49q72 0 120 14.5t48 36.5q0 31 -88 70l-392 176q-65 -62 -65 -127zM399 1573l25 20q-5 -84 57.5 -147.5t169.5 -63.5q111 0 201 63t121 148l16 -20q-44 -173 -152 -289.5t-237 -116.5q-132 0 -186 116.5t-15 289.5zM403 791q0 -56 20.5 -127t60 -127t85.5 -56
q64 0 64 123q0 42 -9 95t-25.5 106.5t-46.5 89t-67 35.5q-82 0 -82 -139z" />
    <glyph glyph-name="Gdotaccent" unicode="&#x120;" horiz-adv-x="1732" 
d="M817 -20q-335 0 -529 150t-194 411q0 192 79.5 365t216 297.5t328.5 198t408 73.5q255 0 478 -62l-60 -471h-92q-14 83 -44 152t-79 126t-125.5 89t-173.5 32q-92 0 -172.5 -36.5t-138.5 -99t-103.5 -143t-73 -172t-41.5 -182t-14 -176.5q0 -199 94.5 -309t272.5 -110
q261 0 301 186l80 371l-309 -21l47 123h760l-41 -92q-48 0 -83 -24t-44 -68l-64 -305q-4 -28 -4 -37q0 -68 68 -68l-6 -69q-220 -71 -382.5 -100t-359.5 -29zM989 1737q0 96 81 172t179 76q71 0 115.5 -44.5t44.5 -111.5q0 -98 -78 -176t-174 -78q-74 0 -121 46t-47 116z
" />
    <glyph glyph-name="gdotaccent" unicode="&#x121;" horiz-adv-x="1177" 
d="M442 -492q-117 0 -219 16t-185.5 48t-132 87t-48.5 128q0 102 90 168t225 88q-80 64 -80 143q0 37 89.5 86.5t187.5 77.5q-150 18 -239 85.5t-89 170.5q0 115 83 221.5t217.5 171t279.5 64.5q70 0 139 -16q76 116 191.5 191t271.5 75q20 0 31.5 -14t11.5 -35
q0 -88 -43.5 -154t-100.5 -66q-139 0 -260 -34q72 -39 112 -97t40 -127q0 -83 -45 -163t-118.5 -139.5t-172 -97t-201.5 -40.5q-12 -36 -12 -65q0 -18 106 -58l267 -98q102 -38 149 -80t47 -102q0 -71 -40 -146t-112 -140t-188 -107t-252 -42zM209 -137q0 -72 105.5 -121
t271.5 -49q72 0 120 14.5t48 36.5q0 31 -88 70l-392 176q-65 -62 -65 -127zM403 791q0 -56 20.5 -127t60 -127t85.5 -56q64 0 64 123q0 42 -9 95t-25.5 106.5t-46.5 89t-67 35.5q-82 0 -82 -139zM434 1327q0 96 81 172t179 76q71 0 115.5 -44.5t44.5 -111.5q0 -98 -78 -176
t-174 -78q-74 0 -121 46t-47 116z" />
    <glyph glyph-name="uni0122" unicode="&#x122;" horiz-adv-x="1732" 
d="M817 -20q-335 0 -529 150t-194 411q0 192 79.5 365t216 297.5t328.5 198t408 73.5q255 0 478 -62l-60 -471h-92q-14 83 -44 152t-79 126t-125.5 89t-173.5 32q-92 0 -172.5 -36.5t-138.5 -99t-103.5 -143t-73 -172t-41.5 -182t-14 -176.5q0 -199 94.5 -309t272.5 -110
q261 0 301 186l80 371l-309 -21l47 123h760l-41 -92q-48 0 -83 -24t-44 -68l-64 -305q-4 -28 -4 -37q0 -68 68 -68l-6 -69q-220 -71 -382.5 -100t-359.5 -29zM580 -668q139 143 139 260q0 35 -15 60.5t-33 37.5t-33 26.5t-15 29.5q0 59 61 108.5t133 49.5q71 0 109.5 -39
t38.5 -103q0 -65 -35 -132.5t-93.5 -126.5t-117.5 -105t-123 -86z" />
    <glyph glyph-name="uni0123" unicode="&#x123;" horiz-adv-x="1177" 
d="M442 -492q-117 0 -219 16t-185.5 48t-132 87t-48.5 128q0 102 90 168t225 88q-80 64 -80 143q0 37 89.5 86.5t187.5 77.5q-150 18 -239 85.5t-89 170.5q0 115 83 221.5t217.5 171t279.5 64.5q70 0 139 -16q76 116 191.5 191t271.5 75q20 0 31.5 -14t11.5 -35
q0 -88 -43.5 -154t-100.5 -66q-139 0 -260 -34q72 -39 112 -97t40 -127q0 -83 -45 -163t-118.5 -139.5t-172 -97t-201.5 -40.5q-12 -36 -12 -65q0 -18 106 -58l267 -98q102 -38 149 -80t47 -102q0 -71 -40 -146t-112 -140t-188 -107t-252 -42zM209 -137q0 -72 105.5 -121
t271.5 -49q72 0 120 14.5t48 36.5q0 31 -88 70l-392 176q-65 -62 -65 -127zM403 791q0 -56 20.5 -127t60 -127t85.5 -56q64 0 64 123q0 42 -9 95t-25.5 106.5t-46.5 89t-67 35.5q-82 0 -82 -139zM467 1290q0 65 35 133t93.5 127t117.5 105t123 86l16 -21
q-139 -143 -139 -260q0 -28 10 -50t24 -35t28 -23t24 -21t10 -24q0 -58 -61.5 -108t-133.5 -50q-70 0 -108.5 38.5t-38.5 102.5z" />
    <glyph glyph-name="Hcircumflex" unicode="&#x124;" horiz-adv-x="1888" 
d="M987 0l43 102l64 19q100 28 123 143l86 410h-637l-117 -551l199 20l-52 -143h-725l43 102l64 19q122 37 143 143l225 1067l-198 -20l51 143h709l-43 -102l-68 -21q-101 -32 -123 -143l-82 -391h637l113 534l-199 -20l51 143h709l-43 -102l-68 -21q-101 -32 -123 -143
l-225 -1065l199 20l-51 -143h-705zM836 1597q119 139 252.5 272.5t166.5 133.5t106.5 -133t129.5 -273l-27 -20l-262 190l-352 -190z" />
    <glyph glyph-name="hcircumflex" unicode="&#x125;" horiz-adv-x="1380" 
d="M352 1239q17 71 -34.5 92t-208.5 4v123q95 46 293 82.5t366 36.5l-289 -1059h21v-2q58 112 121 205.5t135.5 173.5t151.5 125t155 45q65 0 119 -29.5t79.5 -85t4.5 -121.5l-150 -485q-16 -50 -2.5 -66t47.5 -16q50 0 158 43l-10 -123q-86 -76 -221.5 -139t-223.5 -63
q-98 0 -125.5 68t15.5 216l141 471q12 51 7.5 61.5t-25.5 10.5q-45 0 -145.5 -131t-200.5 -320.5t-138 -335.5l-346 -40zM236 1640q13 17 77 97.5t104 128.5t94.5 112t89 96.5t48.5 32.5t33.5 -31t46.5 -99.5t42.5 -109t46 -131.5t32.5 -96l-27 -20l-237 211l-336 -211z" />
    <glyph glyph-name="Hbar" unicode="&#x126;" horiz-adv-x="1908" 
d="M225 1014l21 102h166l45 215l-199 -20l51 143h709l-43 -102l-68 -21q-101 -32 -123 -143l-14 -72h637l45 215l-199 -20l52 143h708l-43 -102l-67 -21q-101 -32 -123 -143l-15 -72h164l-20 -102h-166l-189 -891l199 20l-51 -143h-705l43 102l64 19q100 28 123 143l86 410
h-637l-117 -551l199 20l-51 -143h-725l43 102l63 19q122 37 143 143l158 750h-164zM702 797h637l45 217h-636z" />
    <glyph glyph-name="hbar" unicode="&#x127;" horiz-adv-x="1380" 
d="M182 1145l17 102h155q12 67 -40 86t-205 2v123q95 46 293 82.5t366 36.5l-90 -330h229l-16 -102h-242l-170 -627h21v-2q58 112 121 205.5t135.5 173.5t151.5 125t155 45q65 0 119 -29.5t79.5 -85t4.5 -121.5l-150 -485q-16 -50 -2.5 -66t47.5 -16q50 0 158 43l-10 -123
q-86 -76 -221.5 -139t-223.5 -63q-98 0 -125.5 68t15.5 216l141 471q12 51 7.5 61.5t-25.5 10.5q-45 0 -145.5 -131t-200.5 -320.5t-138 -335.5l-346 -40l283 1165h-148z" />
    <glyph glyph-name="Itilde" unicode="&#x128;" horiz-adv-x="913" 
d="M-18 0l43 102l63 19q67 20 99.5 54t43.5 89l228 1067l-201 -20l51 143h711l-41 -102l-70 -21q-99 -28 -123 -143l-227 -1065l199 20l-51 -143h-725zM373 1677q65 117 157 215.5t154 98.5q36 0 153.5 -63.5t145.5 -63.5q107 0 199 116l16 -20q-55 -117 -150.5 -215
t-158.5 -98q-33 0 -85.5 28.5t-110.5 57t-103 28.5q-8 0 -17 -2t-20 -6.5t-21 -8.5t-24 -12t-23.5 -13.5t-25 -15.5t-23.5 -15t-24.5 -16l-22.5 -15z" />
    <glyph glyph-name="itilde" unicode="&#x129;" horiz-adv-x="827" 
d="M258 -20q-97 0 -122.5 67.5t18.5 216.5l110 365q19 64 -28 107t-142 42l-20 123q122 57 286 110.5t289 53.5q33 0 49 -6.5t23.5 -28t-8.5 -63.5l-189 -623q-13 -41 0 -61.5t43 -20.5q27 0 85 12.5t102 30.5l-11 -123q-83 -73 -238.5 -137.5t-246.5 -64.5zM217 1247
q62 112 165.5 213t166.5 101q36 0 153.5 -63.5t145.5 -63.5q107 0 199 116l16 -20q-55 -117 -150.5 -215t-158.5 -98q-33 0 -85.5 28.5t-110.5 57t-103 28.5q-62 0 -222 -104z" />
    <glyph glyph-name="Imacron" unicode="&#x12a;" horiz-adv-x="913" 
d="M-18 0l43 102l63 19q67 20 99.5 54t43.5 89l228 1067l-201 -20l51 143h711l-41 -102l-70 -21q-99 -28 -123 -143l-227 -1065l199 20l-51 -143h-725zM381 1630q7 31 46 82t67 51h608q-8 -39 -42 -86t-71 -47h-608z" />
    <glyph glyph-name="imacron" unicode="&#x12b;" horiz-adv-x="827" 
d="M258 -20q-97 0 -122.5 67.5t18.5 216.5l110 365q19 64 -28 107t-142 42l-20 123q122 57 286 110.5t289 53.5q33 0 49 -6.5t23.5 -28t-8.5 -63.5l-189 -623q-13 -41 0 -61.5t43 -20.5q27 0 85 12.5t102 30.5l-11 -123q-83 -73 -238.5 -137.5t-246.5 -64.5zM270 1221
q7 31 46 82t67 51h608q-8 -39 -41.5 -86t-70.5 -47h-609z" />
    <glyph glyph-name="Iogonek" unicode="&#x12e;" horiz-adv-x="913" 
d="M-18 0l43 102l63 19q67 20 99.5 54t43.5 89l228 1067l-201 -20l51 143h711l-41 -102l-70 -21q-99 -28 -123 -143l-227 -1065l199 20l-51 -143h-244q-52 -39 -94.5 -95t-59 -91t-16.5 -43q0 -34 24.5 -57t65.5 -23q81 0 149 39l17 -21q-22 -28 -158.5 -114.5t-152.5 -86.5
q-83 0 -131 34t-48 91q0 64 72 169t184 198h-333z" />
    <glyph glyph-name="iogonek" unicode="&#x12f;" horiz-adv-x="827" 
d="M258 -20q-97 0 -122.5 67.5t18.5 216.5l110 365q19 64 -28 107t-142 42l-20 123q122 57 286 110.5t289 53.5q33 0 49 -6.5t23.5 -28t-8.5 -63.5l-189 -623q-13 -41 0 -61.5t43 -20.5q27 0 85 12.5t102 30.5l-11 -123q-69 -64 -213 -127q-59 -38 -106 -98t-65.5 -98.5
t-18.5 -46.5q0 -34 24.5 -57t65.5 -23q82 0 150 39l16 -21q-22 -28 -158.5 -114.5t-152.5 -86.5q-83 0 -131 34t-48 91q0 54 52.5 139.5t138.5 168.5q-14 -2 -39 -2zM418 1327q0 96 81 172t179 76q71 0 115.5 -44.5t44.5 -111.5q0 -98 -78 -176t-174 -78q-74 0 -121 46
t-47 116z" />
    <glyph glyph-name="Idotaccent" unicode="&#x130;" horiz-adv-x="913" 
d="M-18 0l43 102l63 19q67 20 99.5 54t43.5 89l228 1067l-201 -20l51 143h711l-41 -102l-70 -21q-99 -28 -123 -143l-227 -1065l199 20l-51 -143h-725zM528 1737q0 96 81 172t179 76q71 0 115.5 -44.5t44.5 -111.5q0 -98 -78 -176t-174 -78q-74 0 -121 46t-47 116z" />
    <glyph glyph-name="dotlessi" unicode="&#x131;" horiz-adv-x="827" 
d="M258 -20q-97 0 -122.5 67.5t18.5 216.5l110 365q19 64 -28 107t-142 42l-20 123q122 57 286 110.5t289 53.5q33 0 49 -6.5t23.5 -28t-8.5 -63.5l-189 -623q-13 -41 0 -61.5t43 -20.5q27 0 85 12.5t102 30.5l-11 -123q-83 -73 -238.5 -137.5t-246.5 -64.5z" />
    <glyph glyph-name="IJ" unicode="&#x132;" horiz-adv-x="1693" 
d="M-18 0l43 102l63 19q67 20 99.5 54t43.5 89l228 1067l-201 -20l51 143h711l-41 -102l-70 -21q-99 -28 -123 -143l-227 -1065l199 20l-51 -143h-725zM639 -389q92 65 163 132t135 152.5t110 191.5t73 232l215 1012l-258 -20l51 143h766l-41 -102l-77 -23
q-45 -13 -74.5 -53.5t-40.5 -97.5l-182 -852q-34 -160 -99 -294t-146 -225.5t-176 -155t-189.5 -93t-186.5 -29.5z" />
    <glyph glyph-name="ij" unicode="&#x133;" horiz-adv-x="1548" 
d="M258 -20q-97 0 -122.5 67.5t18.5 216.5l110 365q19 64 -28 107t-142 42l-20 123q122 57 286 110.5t289 53.5q33 0 49 -6.5t23.5 -28t-8.5 -63.5l-189 -623q-13 -41 0 -61.5t43 -20.5q27 0 85 12.5t102 30.5l-11 -123q-83 -73 -238.5 -137.5t-246.5 -64.5zM344 -410
q0 67 36 151.5t77 84.5q49 0 174 -62.5t172 -62.5q49 0 84.5 69.5t64.5 211.5l131 647q18 87 -25 119t-147 30l-20 123q69 32 108 49t123 50t160 49t143 16q47 0 61 -18.5t3 -79.5l-156 -803q-32 -165 -95 -284t-167.5 -204t-259.5 -126.5t-365 -41.5q-58 0 -80 26t-22 56z
M418 1327q0 96 81 172t179 76q71 0 115.5 -44.5t44.5 -111.5q0 -98 -78 -176t-174 -78q-74 0 -121 46t-47 116zM1196 1327q0 96 81 172t179 76q71 0 115.5 -44.5t44.5 -111.5q0 -98 -78 -176t-174 -78q-74 0 -121 46t-47 116z" />
    <glyph glyph-name="Jcircumflex" unicode="&#x134;" horiz-adv-x="755" 
d="M-299 -389q92 65 163 132t135 152.5t110 191.5t73 232l215 1012l-258 -20l51 143h766l-41 -102l-77 -23q-45 -13 -74.5 -53.5t-40.5 -97.5l-182 -852q-34 -160 -99 -294t-146 -225.5t-176 -155t-189.5 -93t-186.5 -29.5zM297 1597q118 138 252 272t168 134
q33 0 105.5 -132.5t129.5 -273.5l-26 -20l-262 190l-353 -190z" />
    <glyph glyph-name="jcircumflex" unicode="&#x135;" horiz-adv-x="780" 
d="M-322 -492q-58 0 -80 26t-22 56q0 67 36 151.5t77 84.5q49 0 174 -62.5t172 -62.5q49 0 84.5 69.5t64.5 211.5l131 647q18 87 -25 119t-147 30l-20 123q69 32 108 49t123 50t160 49t143 16q47 0 61 -18.5t3 -79.5l-156 -803q-32 -165 -95 -284t-167.5 -204t-259.5 -126.5
t-365 -41.5zM293 1188q10 13 77 96.5t105 129.5t93.5 111.5t90 97.5t48.5 32t33.5 -31.5t46 -98t42.5 -111t45 -130t33 -96.5l-26 -21l-238 211l-336 -211z" />
    <glyph glyph-name="uni0136" unicode="&#x136;" horiz-adv-x="1771" 
d="M1616 -20q-205 0 -334 25.5t-203.5 77t-124.5 142.5l-233 430l10 41l780 631l-262 -16l51 143h619l-41 -102q-119 -16 -188 -49.5t-150 -100.5l-512 -414l287 -469q72 -118 137 -178.5t184 -120.5zM-25 0l43 102l64 19q55 15 93 53t48 90l228 1067l-203 -20l51 143h709
l-41 -102l-66 -21q-101 -33 -123 -143l-227 -1065l180 20l-51 -143h-705zM592 -668q139 143 139 260q0 35 -15 60.5t-33 37.5t-33 26.5t-15 29.5q0 59 61 108.5t133 49.5q71 0 109.5 -39t38.5 -103q0 -65 -35 -132.5t-93.5 -126.5t-117.5 -105t-123 -86z" />
    <glyph glyph-name="uni0137" unicode="&#x137;" horiz-adv-x="1277" 
d="M817 -20q-76 0 -112 56t-60 179l-39 207q-143 -157 -200 -402l-347 -40l291 1296q18 75 -28 96t-203 4v123q96 46 287.5 82.5t357.5 36.5l-252 -1120q71 115 152 214.5t168 179.5t178 126.5t172 46.5q28 0 47.5 -14t19.5 -39q0 -33 -10.5 -88.5t-39 -116.5t-66.5 -74
q-227 -78 -369 -178l82 -152q27 -49 72 -75.5t94 -26.5q39 0 73.5 9t98.5 36l10 -123q-103 -109 -204 -176t-173 -67zM272 -668q140 144 140 260q0 35 -15 60.5t-33.5 37.5t-33.5 26.5t-15 29.5q0 58 61.5 108t133.5 50q70 0 108.5 -38.5t38.5 -103.5q0 -52 -24 -107.5
t-61 -102.5t-88 -93.5t-98 -81t-97 -65.5z" />
    <glyph glyph-name="kgreenlandic" unicode="&#x138;" horiz-adv-x="1318" 
d="M256 629q16 68 -24 96.5t-148 11.5l-21 123q89 75 252 140t297 65q33 0 49 -6.5t23 -28.5t-8 -63l-133 -455h20q148 236 326.5 394.5t333.5 158.5q28 0 47.5 -14t19.5 -39q0 -33 -10.5 -88.5t-39 -116.5t-66.5 -74q-227 -78 -369 -178l82 -152q27 -49 72 -75.5t94 -26.5
q39 0 73.5 9t98.5 36l10 -123q-103 -109 -204 -176t-173 -67q-76 0 -112 56t-60 179l-39 207q-114 -126 -170 -295l-24 -107l-344 -40z" />
    <glyph glyph-name="Lacute" unicode="&#x139;" horiz-adv-x="1325" 
d="M-29 0l43 102l64 19q121 34 141 135l230 1075l-201 -20l51 143h770l-41 -102l-129 -21q-58 -9 -82 -35.5t-41 -107.5l-254 -1188h-551zM522 0l27 123h194q63 0 127.5 33t123.5 93t111 132t101 160h92l-229 -602q-129 61 -272 61h-275zM524 1556q122 176 269 342t204 166
q51 0 71.5 -52.5t8.5 -110.5q-6 -23 -17.5 -44.5t-32 -41.5t-35.5 -33.5t-45.5 -31.5t-43.5 -25.5t-47.5 -25t-40.5 -20.5l-276 -143z" />
    <glyph glyph-name="lacute" unicode="&#x13a;" horiz-adv-x="788" 
d="M340 1235q13 51 -1.5 74.5t-69.5 31.5t-160 -6v123q95 46 289.5 82.5t361.5 36.5l-297 -1233q-12 -51 -0.5 -66.5t43.5 -15.5q26 0 79.5 12.5t98.5 30.5l-10 -123q-84 -74 -229.5 -138t-235.5 -64q-95 0 -118 66.5t15 217.5zM356 1620q122 176 269 342t204 166
q51 0 71.5 -53t8.5 -111q-6 -23 -17.5 -44.5t-31.5 -41t-36 -33.5t-45.5 -31.5t-44 -25.5t-47.5 -24.5t-40 -20.5l-276 -144z" />
    <glyph glyph-name="uni013B" unicode="&#x13b;" horiz-adv-x="1325" 
d="M-29 0l43 102l64 19q121 34 141 135l230 1075l-201 -20l51 143h770l-41 -102l-129 -21q-58 -9 -82 -35.5t-41 -107.5l-254 -1188h-551zM367 -668q139 143 139 260q0 35 -15 60.5t-33 37.5t-33 26.5t-15 29.5q0 59 61 108.5t133 49.5q70 0 109 -39t39 -103
q0 -65 -35 -132.5t-93.5 -126.5t-117.5 -105t-123 -86zM522 0l27 123h194q63 0 127.5 33t123.5 93t111 132t101 160h92l-229 -602q-129 61 -272 61h-275z" />
    <glyph glyph-name="uni013C" unicode="&#x13c;" horiz-adv-x="788" 
d="M340 1235q13 51 -1.5 74.5t-69.5 31.5t-160 -6v123q95 46 289.5 82.5t361.5 36.5l-297 -1233q-12 -51 -0.5 -66.5t43.5 -15.5q26 0 79.5 12.5t98.5 30.5l-10 -123q-84 -74 -229.5 -138t-235.5 -64q-95 0 -118 66.5t15 217.5zM12 -668q140 144 140 260q0 35 -15 60.5
t-33.5 37.5t-33.5 26.5t-15 29.5q0 58 61.5 108t133.5 50q70 0 108.5 -38.5t38.5 -103.5q0 -52 -24 -107.5t-61 -102.5t-88 -93.5t-98 -81t-97 -65.5z" />
    <glyph glyph-name="Lcaron" unicode="&#x13d;" horiz-adv-x="1325" 
d="M-29 0l43 102l64 19q121 34 141 135l230 1075l-201 -20l51 143h770l-41 -102l-129 -21q-58 -9 -82 -35.5t-41 -107.5l-254 -1188h-551zM522 0l27 123h194q63 0 127.5 33t123.5 93t111 132t101 160h92l-229 -602q-129 61 -272 61h-275zM1163 922l76 327q10 46 17.5 72.5
t22 55.5t33 43.5t48.5 24t72 9.5q53 0 84.5 -23t31.5 -65q0 -26 -18.5 -59.5t-96 -127t-229.5 -257.5h-41z" />
    <glyph glyph-name="lcaron" unicode="&#x13e;" horiz-adv-x="788" 
d="M340 1235q13 51 -1.5 74.5t-69.5 31.5t-160 -6v123q95 46 289.5 82.5t361.5 36.5l-297 -1233q-12 -51 -0.5 -66.5t43.5 -15.5q26 0 79.5 12.5t98.5 30.5l-10 -123q-84 -74 -229.5 -138t-235.5 -64q-95 0 -118 66.5t15 217.5zM756 1022l75 328q13 58 23 88.5t31 61
t54 42.5t85 12q54 0 85.5 -23t31.5 -65q0 -26 -18.5 -59.5t-96 -127t-229.5 -257.5h-41z" />
    <glyph glyph-name="Lslash" unicode="&#x141;" horiz-adv-x="1325" 
d="M-29 0l43 102l64 19q121 34 141 135l74 344l-184 -53l22 108l184 54l134 622l-201 -20l51 143h770l-41 -102l-129 -21q-58 -9 -82 -35.5t-41 -107.5l-80 -371l363 105l-23 -109l-362 -104l-152 -709h-551zM522 0l27 123h194q63 0 127.5 33t123.5 93t111 132t101 160h92
l-229 -602q-129 61 -272 61h-275z" />
    <glyph glyph-name="lslash" unicode="&#x142;" horiz-adv-x="788" 
d="M340 1235q13 51 -1.5 74.5t-69.5 31.5t-160 -6v123q95 46 289.5 82.5t361.5 36.5l-174 -719l176 64l-21 -117l-184 -66l-94 -395q-12 -51 -0.5 -66.5t43.5 -15.5q26 0 79.5 12.5t98.5 30.5l-10 -123q-84 -74 -229.5 -138t-235.5 -64q-95 0 -118 66.5t15 217.5l82 342
l-184 -67l21 116l192 70z" />
    <glyph glyph-name="Nacute" unicode="&#x143;" horiz-adv-x="1699" 
d="M-41 0l43 102l113 11q104 8 125 102l213 999q-80 101 -232 199l17 41h536l596 -919l170 796l-283 -20l52 143h622l-41 -102l-112 -11q-51 -4 -84.5 -36t-44.5 -84l-242 -1139l-156 -102l-698 1083l-201 -940l281 20l-51 -143h-623zM946 1597q123 134 265.5 270t183.5 136
q40 0 59.5 -36t7.5 -87q-5 -23 -14 -43t-17 -35.5t-23.5 -31t-24.5 -25t-29.5 -21.5t-29 -17t-32 -15t-30 -12t-32 -11t-28.5 -10l-241 -82z" />
    <glyph glyph-name="nacute" unicode="&#x144;" horiz-adv-x="1421" 
d="M63 860q89 75 252 140t297 65q33 0 49.5 -6.5t23.5 -28.5t-9 -63l-133 -428h20q55 108 113.5 198t125.5 166t140 119t143 43q117 0 186 -67.5t38 -168.5l-150 -485q-6 -28 -8 -44t7 -24.5t18.5 -11t25.5 -2.5q50 0 158 43l-10 -123q-86 -76 -221.5 -139t-223.5 -63
q-98 0 -125.5 67.5t15.5 216.5l143 471q12 51 7.5 61.5t-25.5 10.5q-45 0 -141.5 -131t-192 -320t-133.5 -336l-344 -40l147 649q16 68 -24 96.5t-148 11.5zM713 1147q122 176 269 342t204 166q51 0 71.5 -53t8.5 -111q-6 -23 -17.5 -44.5t-31.5 -41t-36 -33.5t-45.5 -31.5
t-44 -25.5t-47.5 -24.5t-40 -20.5l-277 -144z" />
    <glyph glyph-name="uni0145" unicode="&#x145;" horiz-adv-x="1699" 
d="M-41 0l43 102l113 11q104 8 125 102l213 999q-80 101 -232 199l17 41h536l596 -919l170 796l-283 -20l52 143h622l-41 -102l-112 -11q-51 -4 -84.5 -36t-44.5 -84l-242 -1139l-156 -102l-698 1083l-201 -940l281 20l-51 -143h-623zM594 -668q139 143 139 260
q0 35 -15 60.5t-33 37.5t-33 26.5t-15 29.5q0 59 61 108.5t133 49.5q71 0 109.5 -39t38.5 -103q0 -65 -35 -132.5t-93.5 -126.5t-117.5 -105t-123 -86z" />
    <glyph glyph-name="uni0146" unicode="&#x146;" horiz-adv-x="1421" 
d="M63 860q89 75 252 140t297 65q33 0 49.5 -6.5t23.5 -28.5t-9 -63l-133 -428h20q55 108 113.5 198t125.5 166t140 119t143 43q117 0 186 -67.5t38 -168.5l-150 -485q-6 -28 -8 -44t7 -24.5t18.5 -11t25.5 -2.5q50 0 158 43l-10 -123q-86 -76 -221.5 -139t-223.5 -63
q-98 0 -125.5 67.5t15.5 216.5l143 471q12 51 7.5 61.5t-25.5 10.5q-45 0 -141.5 -131t-192 -320t-133.5 -336l-344 -40l147 649q16 68 -24 96.5t-148 11.5zM324 -668q139 143 139 260q0 35 -15 60.5t-33 37.5t-33 26.5t-15 29.5q0 59 61 108.5t133 49.5q71 0 109.5 -39
t38.5 -103q0 -65 -35 -132.5t-93.5 -126.5t-117.5 -105t-123 -86z" />
    <glyph glyph-name="Ncaron" unicode="&#x147;" horiz-adv-x="1699" 
d="M-41 0l43 102l113 11q104 8 125 102l213 999q-80 101 -232 199l17 41h536l596 -919l170 796l-283 -20l52 143h622l-41 -102l-112 -11q-51 -4 -84.5 -36t-44.5 -84l-242 -1139l-156 -102l-698 1083l-201 -940l281 20l-51 -143h-623zM874 1985l27 20l262 -190l353 190
l14 -20q-118 -138 -252 -272t-168 -134q-33 0 -106.5 133t-129.5 273z" />
    <glyph glyph-name="ncaron" unicode="&#x148;" horiz-adv-x="1421" 
d="M63 860q89 75 252 140t297 65q33 0 49.5 -6.5t23.5 -28.5t-9 -63l-133 -428h20q55 108 113.5 198t125.5 166t140 119t143 43q117 0 186 -67.5t38 -168.5l-150 -485q-6 -28 -8 -44t7 -24.5t18.5 -11t25.5 -2.5q50 0 158 43l-10 -123q-86 -76 -221.5 -139t-223.5 -63
q-98 0 -125.5 67.5t15.5 216.5l143 471q12 51 7.5 61.5t-25.5 10.5q-45 0 -141.5 -131t-192 -320t-133.5 -336l-344 -40l147 649q16 68 -24 96.5t-148 11.5zM686 1634l25 21l237 -211l336 211l16 -21q-6 -8 -76.5 -96t-106 -131t-93 -110t-91.5 -98.5t-48 -31.5t-34 32
t-45 97t-42.5 112t-45 129t-32.5 97z" />
    <glyph glyph-name="Eng" unicode="&#x14a;" horiz-adv-x="1699" 
d="M862 -389q129 50 228.5 145t154.5 234l-692 1073l-201 -940l281 20l-51 -143h-623l43 102l113 11q104 8 125 102l213 999q-80 101 -232 199l17 41h536l596 -919l170 796l-283 -20l52 143h622l-41 -102l-112 -11q-51 -4 -84.5 -36t-44.5 -84l-242 -1139
q-47 -217 -192.5 -366.5t-307.5 -186.5z" />
    <glyph glyph-name="eng" unicode="&#x14b;" horiz-adv-x="1337" 
d="M205 -492q-58 0 -80.5 26t-22.5 56q0 67 36 151.5t77 84.5q49 0 174 -62.5t172 -62.5t77.5 64t72.5 217l209 753q11 33 8.5 49t-8 19.5t-19.5 3.5q-45 0 -141.5 -131t-192 -320t-133.5 -336l-344 -40l148 649q16 68 -24 96.5t-148 11.5l-21 123q89 75 252 140t297 65
q33 0 49 -6.5t23 -28.5t-9 -63l-133 -428h21q55 108 113.5 198t125.5 166t140 119t143 43q116 0 183.5 -67.5t39.5 -168.5l-184 -665q-37 -131 -84.5 -229.5t-120.5 -181.5t-168.5 -135.5t-228 -81t-299.5 -28.5z" />
    <glyph glyph-name="Omacron" unicode="&#x14c;" horiz-adv-x="1763" 
d="M774 -20q-195 0 -350 81.5t-239.5 220t-84.5 306.5q0 171 81 334t215 284.5t317.5 195t378.5 73.5q147 0 273 -48t213.5 -130t137 -193.5t49.5 -237.5q0 -171 -80.5 -333.5t-213.5 -283.5t-317 -195t-380 -74zM504 627q0 -142 44.5 -259.5t125 -186t180.5 -68.5
q95 0 178.5 43.5t142.5 116.5t102 166t64 192.5t21 195.5q0 142 -44.5 259.5t-125 186t-180.5 68.5q-95 0 -178.5 -43.5t-142.5 -116.5t-102 -166t-64 -192.5t-21 -195.5zM803 1630q7 32 45.5 82.5t66.5 50.5h609q-8 -39 -42 -86t-71 -47h-608z" />
    <glyph glyph-name="omacron" unicode="&#x14d;" horiz-adv-x="1060" 
d="M377 -18q-152 0 -241 102.5t-89 267.5q0 93 31.5 194t90 192.5t135 165t174.5 117.5t200 44q150 0 240 -109t90 -280q0 -124 -49.5 -248.5t-132.5 -223t-202 -160.5t-247 -62zM317 1221q7 31 46 82t67 51h608q-8 -39 -41.5 -86t-70.5 -47h-609zM387 678
q0 -99 26.5 -213.5t72.5 -197.5t94 -83q22 0 39.5 21t27 52.5t14.5 62.5t5 57q0 101 -27 213.5t-72 191t-90 78.5q-90 0 -90 -182z" />
    <glyph glyph-name="Ohungarumlaut" unicode="&#x150;" horiz-adv-x="1763" 
d="M774 -20q-195 0 -350 81.5t-239.5 220t-84.5 306.5q0 171 81 334t215 284.5t317.5 195t378.5 73.5q147 0 273 -48t213.5 -130t137 -193.5t49.5 -237.5q0 -171 -80.5 -333.5t-213.5 -283.5t-317 -195t-380 -74zM504 627q0 -142 44.5 -259.5t125 -186t180.5 -68.5
q95 0 178.5 43.5t142.5 116.5t102 166t64 192.5t21 195.5q0 142 -44.5 259.5t-125 186t-180.5 68.5q-95 0 -178.5 -43.5t-142.5 -116.5t-102 -166t-64 -192.5t-21 -195.5zM907 1628q238 436 338 436q38 0 64 -32t20 -60q-4 -19 -18 -38.5t-47 -49.5t-58 -50t-84 -67
l-198 -159zM1110 1597q94 142 209 257.5t162 115.5q34 0 52 -20.5t18 -43t-1 -38.5q-9 -36 -48 -67t-150 -95l-228 -129z" />
    <glyph glyph-name="ohungarumlaut" unicode="&#x151;" horiz-adv-x="1060" 
d="M377 -18q-152 0 -241 102.5t-89 267.5q0 93 31.5 194t90 192.5t135 165t174.5 117.5t200 44q150 0 240 -109t90 -280q0 -124 -49.5 -248.5t-132.5 -223t-202 -160.5t-247 -62zM387 678q0 -99 26.5 -213.5t72.5 -197.5t94 -83q22 0 39.5 21t27 52.5t14.5 62.5t5 57
q0 101 -27 213.5t-72 191t-90 78.5q-90 0 -90 -182zM422 1219q238 436 338 436q38 0 64 -32t20 -60q-4 -19 -18 -38.5t-47 -49.5t-58 -50t-84 -67l-199 -160zM625 1188q94 142 208.5 257.5t161.5 115.5q34 0 52.5 -20.5t18.5 -43.5t-1 -39q-9 -36 -48 -66.5t-151 -95.5
l-227 -129z" />
    <glyph glyph-name="OE" unicode="&#x152;" horiz-adv-x="2371" 
d="M813 0q-324 0 -520.5 158t-196.5 411q0 125 42 242.5t115.5 214t175.5 177t219.5 135.5t249.5 85.5t265 30.5h889q133 0 287 62l-33 -541h-92q-40 177 -108 266.5t-181 89.5h-244l-112 -528h149q70 0 128 52t112 181h92l-123 -577h-92q0 130 -35.5 180.5t-105.5 50.5
h-148l-121 -567h314q118 0 239 117t224 301h92l-230 -602q-122 61 -272 61h-979zM487 553q0 -203 99.5 -316.5t283.5 -113.5h197l256 1208h-236q-124 0 -227 -50.5t-170.5 -131.5t-114.5 -185t-67.5 -207.5t-20.5 -203.5z" />
    <glyph glyph-name="oe" unicode="&#x153;" horiz-adv-x="1597" 
d="M1014 -20q-91 0 -165 34t-120 97q-161 -129 -352 -129q-152 0 -241 102.5t-89 267.5q0 93 31.5 194t90 192.5t135 165t174.5 117.5t200 44q93 0 165.5 -44.5t114.5 -123.5q206 168 428 168q102 0 162 -52.5t60 -119.5q0 -54 -33 -107.5t-80.5 -95t-121 -85t-133.5 -72
t-138 -62.5l-2 115q71 47 114 109.5t43 125.5q0 78 -49 78q-51 0 -96.5 -73t-71.5 -180t-26 -212q0 -188 151 -188q75 0 165.5 47.5t176.5 132.5l25 -123q-85 -147 -219.5 -235t-298.5 -88zM387 678q0 -99 26.5 -213.5t72.5 -197.5t94 -83q54 0 79 121q-2 12 -2 37
q0 35 7 82q-6 99 -33.5 199.5t-69.5 168.5t-84 68q-90 0 -90 -182z" />
    <glyph glyph-name="Racute" unicode="&#x154;" horiz-adv-x="1761" 
d="M-29 0l43 102l84 25q100 29 125 149l226 1055l-201 -20l51 143h694q173 0 300 -36.5t200.5 -114t73.5 -189.5q0 -172 -126 -297.5t-302 -152.5l155 -345q22 -50 48.5 -89t51 -66t64 -54t70.5 -44t88 -46l-21 -40q-323 0 -473 51t-188 194l-107 391h-174l-104 -493l199 20
l-52 -143h-725zM676 719h145q81 0 149.5 35t113 91.5t69.5 127t25 143.5q0 100 -59.5 157.5t-166.5 57.5h-147zM893 1597q124 136 265.5 271t182.5 135q40 0 60 -36t8 -87q-5 -23 -14 -43t-17 -35.5t-23.5 -31t-24.5 -25t-29.5 -21.5t-29 -17t-32 -15t-30 -12t-32 -11
t-28.5 -10l-242 -82z" />
    <glyph glyph-name="racute" unicode="&#x155;" horiz-adv-x="1040" 
d="M63 860q95 81 233 143t269 62q20 0 32.5 -1.5t23 -7.5t14.5 -16.5t2.5 -28.5t-8.5 -44l-107 -377h21q208 475 491 475q32 0 50 -22t18 -60q0 -103 -54 -201.5t-147 -130.5l-227 -78q-69 -55 -117.5 -175.5t-118.5 -377.5l-350 -40l168 649q18 67 -22.5 96t-149.5 12z
M573 1147q122 176 269.5 342t204.5 166q51 0 71 -53t8 -111q-6 -23 -17.5 -44.5t-31.5 -41t-36 -33.5t-45.5 -31.5t-44 -25.5t-47.5 -24.5t-40 -20.5l-276 -144z" />
    <glyph glyph-name="uni0156" unicode="&#x156;" horiz-adv-x="1761" 
d="M-29 0l43 102l84 25q100 29 125 149l226 1055l-201 -20l51 143h694q173 0 300 -36.5t200.5 -114t73.5 -189.5q0 -172 -126 -297.5t-302 -152.5l155 -345q22 -50 48.5 -89t51 -66t64 -54t70.5 -44t88 -46l-21 -40q-323 0 -473 51t-188 194l-107 391h-174l-104 -493l199 20
l-52 -143h-725zM551 -668q139 143 139 260q0 35 -15 60.5t-33 37.5t-33 26.5t-15 29.5q0 59 61 108.5t133 49.5q70 0 109 -39t39 -103q0 -65 -35 -132.5t-93.5 -126.5t-117.5 -105t-123 -86zM676 719h145q81 0 149.5 35t113 91.5t69.5 127t25 143.5q0 100 -59.5 157.5
t-166.5 57.5h-147z" />
    <glyph glyph-name="uni0157" unicode="&#x157;" horiz-adv-x="1040" 
d="M63 860q95 81 233 143t269 62q20 0 32.5 -1.5t23 -7.5t14.5 -16.5t2.5 -28.5t-8.5 -44l-107 -377h21q208 475 491 475q32 0 50 -22t18 -60q0 -103 -54 -201.5t-147 -130.5l-227 -78q-69 -55 -117.5 -175.5t-118.5 -377.5l-350 -40l168 649q18 67 -22.5 96t-149.5 12z
M0 -668q139 143 139 260q0 35 -15 60.5t-33 37.5t-33 26.5t-15 29.5q0 58 61.5 108t133.5 50q70 0 108.5 -38.5t38.5 -103.5t-35 -132.5t-93.5 -126.5t-117.5 -105t-123 -86z" />
    <glyph glyph-name="Rcaron" unicode="&#x158;" horiz-adv-x="1761" 
d="M-29 0l43 102l84 25q100 29 125 149l226 1055l-201 -20l51 143h694q173 0 300 -36.5t200.5 -114t73.5 -189.5q0 -172 -126 -297.5t-302 -152.5l155 -345q22 -50 48.5 -89t51 -66t64 -54t70.5 -44t88 -46l-21 -40q-323 0 -473 51t-188 194l-107 391h-174l-104 -493l199 20
l-52 -143h-725zM676 719h145q81 0 149.5 35t113 91.5t69.5 127t25 143.5q0 100 -59.5 157.5t-166.5 57.5h-147zM821 1985l27 20l262 -190l352 190l15 -20q-118 -138 -252 -272t-168 -134q-33 0 -106.5 133t-129.5 273z" />
    <glyph glyph-name="rcaron" unicode="&#x159;" horiz-adv-x="1040" 
d="M63 860q95 81 233 143t269 62q20 0 32.5 -1.5t23 -7.5t14.5 -16.5t2.5 -28.5t-8.5 -44l-107 -377h21q208 475 491 475q32 0 50 -22t18 -60q0 -103 -54 -201.5t-147 -130.5l-227 -78q-69 -55 -117.5 -175.5t-118.5 -377.5l-350 -40l168 649q18 67 -22.5 96t-149.5 12z
M547 1634l24 21l238 -211l336 211l16 -21q-14 -17 -54 -67t-68.5 -85.5t-70.5 -87t-73.5 -87t-63.5 -70.5t-54 -52.5t-32 -17.5q-14 0 -34 32.5t-44.5 96t-42.5 112.5t-44.5 128.5z" />
    <glyph glyph-name="Sacute" unicode="&#x15a;" horiz-adv-x="1226" 
d="M528 -20q-249 0 -495 79l51 482h92q47 -214 159.5 -321t256.5 -107q122 0 199 74t77 171q0 81 -76.5 128.5t-246.5 88.5q-211 51 -298 134.5t-87 199.5q0 156 95.5 287t254.5 205t344 74q65 0 140.5 -12t121 -23.5t119.5 -32.5l-70 -424h-92q-21 177 -101 265.5
t-204 88.5q-131 0 -216 -73.5t-85 -178.5q0 -41 26.5 -72t101 -63.5t206.5 -64.5q196 -48 280 -134.5t84 -207.5q0 -104 -45.5 -204.5t-125.5 -180.5t-202 -129t-264 -49zM653 1597q123 134 265.5 270t183.5 136q40 0 59.5 -36t7.5 -87q-5 -23 -14 -43t-17 -35.5t-23.5 -31
t-24.5 -25t-29.5 -21.5t-29 -17t-32 -15t-30 -12t-32 -11t-28.5 -10l-241 -82z" />
    <glyph glyph-name="sacute" unicode="&#x15b;" horiz-adv-x="987" 
d="M-2 162q0 30 6.5 67t20 75t39 63.5t57.5 25.5q30 0 71 -26.5t81.5 -64t80 -75t76.5 -64t62 -26.5q15 0 24.5 10.5t9.5 28.5q0 51 -46 121t-118 133q-212 191 -212 299q0 63 34.5 123t96 107.5t155 76.5t203.5 29q45 0 102 -7t123.5 -23t111 -49t44.5 -77q0 -29 -20 -81
t-55.5 -98t-70.5 -46q-33 0 -80 34.5t-87.5 76t-87.5 76t-80 34.5q-24 0 -37 -11t-13 -44q0 -91 154 -234q97 -91 157 -170.5t60 -150.5q0 -134 -110 -224.5t-314 -90.5q-80 0 -183 27t-179 70.5t-76 84.5zM477 1147q122 176 269 342t204 166q51 0 71.5 -53t8.5 -111
q-6 -23 -17.5 -44.5t-31.5 -41t-36 -33.5t-45.5 -31.5t-44 -25.5t-47.5 -24.5t-40 -20.5l-276 -144z" />
    <glyph glyph-name="Scircumflex" unicode="&#x15c;" horiz-adv-x="1226" 
d="M528 -20q-249 0 -495 79l51 482h92q47 -214 159.5 -321t256.5 -107q122 0 199 74t77 171q0 81 -76.5 128.5t-246.5 88.5q-211 51 -298 134.5t-87 199.5q0 156 95.5 287t254.5 205t344 74q65 0 140.5 -12t121 -23.5t119.5 -32.5l-70 -424h-92q-21 177 -101 265.5
t-204 88.5q-131 0 -216 -73.5t-85 -178.5q0 -41 26.5 -72t101 -63.5t206.5 -64.5q196 -48 280 -134.5t84 -207.5q0 -104 -45.5 -204.5t-125.5 -180.5t-202 -129t-264 -49zM514 1597q118 138 252 272t168 134q33 0 105.5 -132.5t129.5 -273.5l-26 -20l-262 190l-353 -190z
" />
    <glyph glyph-name="scircumflex" unicode="&#x15d;" horiz-adv-x="987" 
d="M-2 162q0 30 6.5 67t20 75t39 63.5t57.5 25.5q30 0 71 -26.5t81.5 -64t80 -75t76.5 -64t62 -26.5q15 0 24.5 10.5t9.5 28.5q0 51 -46 121t-118 133q-212 191 -212 299q0 63 34.5 123t96 107.5t155 76.5t203.5 29q45 0 102 -7t123.5 -23t111 -49t44.5 -77q0 -29 -20 -81
t-55.5 -98t-70.5 -46q-33 0 -80 34.5t-87.5 76t-87.5 76t-80 34.5q-24 0 -37 -11t-13 -44q0 -91 154 -234q97 -91 157 -170.5t60 -150.5q0 -134 -110 -224.5t-314 -90.5q-80 0 -183 27t-179 70.5t-76 84.5zM365 1188q13 17 77 97.5t104 128.5t94.5 112t89 96.5t48.5 32.5
t33.5 -31t46.5 -99.5t42.5 -109t46 -131.5t32.5 -96l-27 -21l-237 211l-336 -211z" />
    <glyph glyph-name="Scedilla" unicode="&#x15e;" horiz-adv-x="1226" 
d="M301 -555q113 113 113 201q0 38 -22 66t-73 67l162 201q-230 7 -448 79l51 482h92q47 -214 159.5 -321t256.5 -107q122 0 199 74t77 171q0 81 -76.5 128.5t-246.5 88.5q-211 51 -298 134.5t-87 199.5q0 156 95.5 287t254.5 205t344 74q65 0 140.5 -12t121 -23.5
t119.5 -32.5l-70 -424h-92q-21 177 -101 265.5t-204 88.5q-131 0 -216 -73.5t-85 -178.5q0 -41 26.5 -72t101 -63.5t206.5 -64.5q196 -48 280 -134.5t84 -207.5q0 -99 -41 -195.5t-114.5 -174.5t-185 -130t-242.5 -61l-31 -70q117 -65 117 -148q0 -68 -57.5 -139.5
t-137 -122.5t-158.5 -77z" />
    <glyph glyph-name="scedilla" unicode="&#x15f;" horiz-adv-x="987" 
d="M-2 162q0 30 6.5 67t20 75t39 63.5t57.5 25.5q30 0 71 -26.5t81.5 -64t80 -75t76.5 -64t62 -26.5q15 0 24.5 10.5t9.5 28.5q0 51 -46 121t-118 133q-212 191 -212 299q0 63 34.5 123t96 107.5t155 76.5t203.5 29q45 0 102 -7t123.5 -23t111 -49t44.5 -77q0 -29 -20 -81
t-55.5 -98t-70.5 -46q-33 0 -80 34.5t-87.5 76t-87.5 76t-80 34.5q-24 0 -37 -11t-13 -44q0 -91 154 -234q97 -91 157 -170.5t60 -150.5q0 -129 -103.5 -219t-293.5 -96l-31 -68q117 -65 117 -148q0 -68 -57 -139.5t-136.5 -122.5t-158.5 -77l-15 20q113 113 113 201
q0 38 -22 66.5t-72 66.5l164 205q-130 19 -248.5 72.5t-118.5 105.5z" />
    <glyph glyph-name="Scaron" unicode="&#x160;" horiz-adv-x="1226" 
d="M528 -20q-249 0 -495 79l51 482h92q47 -214 159.5 -321t256.5 -107q122 0 199 74t77 171q0 81 -76.5 128.5t-246.5 88.5q-211 51 -298 134.5t-87 199.5q0 156 95.5 287t254.5 205t344 74q65 0 140.5 -12t121 -23.5t119.5 -32.5l-70 -424h-92q-21 177 -101 265.5
t-204 88.5q-131 0 -216 -73.5t-85 -178.5q0 -41 26.5 -72t101 -63.5t206.5 -64.5q196 -48 280 -134.5t84 -207.5q0 -104 -45.5 -204.5t-125.5 -180.5t-202 -129t-264 -49zM582 1985l26 20l262 -190l353 190l14 -20q-118 -138 -252 -272t-168 -134q-33 0 -105.5 132.5
t-129.5 273.5z" />
    <glyph glyph-name="scaron" unicode="&#x161;" horiz-adv-x="987" 
d="M-2 162q0 30 6.5 67t20 75t39 63.5t57.5 25.5q30 0 71 -26.5t81.5 -64t80 -75t76.5 -64t62 -26.5q15 0 24.5 10.5t9.5 28.5q0 51 -46 121t-118 133q-212 191 -212 299q0 63 34.5 123t96 107.5t155 76.5t203.5 29q45 0 102 -7t123.5 -23t111 -49t44.5 -77q0 -29 -20 -81
t-55.5 -98t-70.5 -46q-33 0 -80 34.5t-87.5 76t-87.5 76t-80 34.5q-24 0 -37 -11t-13 -44q0 -91 154 -234q97 -91 157 -170.5t60 -150.5q0 -134 -110 -224.5t-314 -90.5q-80 0 -183 27t-179 70.5t-76 84.5zM451 1634l24 21l238 -211l336 211l16 -21q-14 -17 -54 -67
t-68.5 -85.5t-70.5 -87t-73.5 -87t-63.5 -70.5t-54 -52.5t-32 -17.5q-14 0 -34 32.5t-44.5 96t-42.5 112.5t-44.5 128.5z" />
    <glyph glyph-name="uni0162" unicode="&#x162;" horiz-adv-x="1486" 
d="M262 0l43 102l90 31q118 41 146 172l217 1026h-131q-102 0 -180 -80t-160 -235h-92l143 479q124 -41 272 -41h707q149 0 293 41l-62 -479h-92q-27 158 -51 212q-41 95 -136 102q-8 1 -18 1h-135l-256 -1208l240 20l-51 -143h-375l-39 -88q117 -65 117 -148
q0 -68 -57.5 -139.5t-137 -122.5t-158.5 -77l-14 20q113 113 113 201q0 38 -22 66t-73 67l177 221h-318z" />
    <glyph glyph-name="uni0163" unicode="&#x163;" horiz-adv-x="921" 
d="M162 231l166 711h-197l21 102l260 70l301 266h80l-80 -336h317l-20 -102h-322l-145 -610q-16 -70 51 -70q44 0 124 37.5t140 87.5v-123q-100 -111 -216.5 -186.5t-227.5 -93.5l-33 -72q117 -65 117 -148q0 -68 -57.5 -139.5t-137 -122.5t-158.5 -77l-14 20
q113 113 113 201q0 38 -22 66.5t-72 66.5l161 203q-96 13 -134 83.5t-15 165.5z" />
    <glyph glyph-name="Tcaron" unicode="&#x164;" horiz-adv-x="1486" 
d="M262 0l43 102l90 31q118 41 146 172l217 1026h-131q-102 0 -180 -80t-160 -235h-92l143 479q124 -41 272 -41h707q149 0 293 41l-62 -479h-92q-27 158 -51 212q-41 95 -136 102q-8 1 -18 1h-135l-256 -1208l240 20l-51 -143h-787zM737 1985l27 20l262 -190l352 190
l15 -20q-118 -138 -252 -272t-168 -134q-33 0 -106.5 133t-129.5 273z" />
    <glyph glyph-name="tcaron" unicode="&#x165;" horiz-adv-x="921" 
d="M162 231l166 711h-197l21 102l260 70l301 266h80l-80 -336h317l-20 -102h-322l-145 -610q-16 -70 51 -70q44 0 124 37.5t140 87.5v-123q-113 -127 -248.5 -205.5t-255.5 -78.5t-168.5 72.5t-23.5 178.5zM852 1133l76 327q10 47 17.5 72.5t22 55t33 44t48 24t71.5 9.5
q54 0 85.5 -23t31.5 -65q0 -26 -18.5 -59.5t-96 -127t-229.5 -257.5h-41z" />
    <glyph glyph-name="Tbar" unicode="&#x166;" horiz-adv-x="1486" 
d="M262 0l43 102l90 31q118 41 146 172l67 322h-368l22 102h369l127 602h-131q-102 0 -180 -80t-160 -235h-92l143 479q124 -41 272 -41h707q149 0 293 41l-62 -479h-92q-27 158 -51 212q-41 95 -136 102q-8 1 -18 1h-135l-127 -602h369l-23 -102h-368l-107 -504l240 20
l-51 -143h-787z" />
    <glyph glyph-name="tbar" unicode="&#x167;" horiz-adv-x="921" 
d="M76 559l24 103h162l66 280h-197l21 102l260 70l301 266h80l-80 -336h317l-20 -102h-322l-67 -280h282l-24 -103h-283l-53 -227q-16 -70 51 -70q44 0 124 37.5t140 87.5v-123q-113 -127 -248.5 -205.5t-255.5 -78.5t-168.5 72.5t-23.5 178.5l76 328h-162z" />
    <glyph glyph-name="Utilde" unicode="&#x168;" horiz-adv-x="1654" 
d="M797 -20q-310 0 -465 125t-109 339l189 887l-181 -20l52 143h708l-41 -102l-63 -21q-69 -22 -106.5 -72t-53.5 -126l-129 -607q-36 -173 46.5 -269.5t262.5 -96.5q168 0 281 88.5t149 257.5l176 825l-233 -20l51 143h520l-41 -102l-47 -11q-63 -14 -94.5 -46t-48.5 -107
l-137 -641q-58 -271 -240 -419t-446 -148zM874 1677q64 117 157 215.5t155 98.5q36 0 153.5 -63.5t145.5 -63.5q106 0 198 116l17 -20q-55 -117 -150.5 -215t-158.5 -98q-33 0 -85.5 28.5t-110.5 57t-103 28.5q-8 0 -17 -2t-20 -6.5t-21 -8.5t-24 -12t-23.5 -13.5t-25 -15.5
t-23.5 -15t-24.5 -16l-22.5 -15z" />
    <glyph glyph-name="utilde" unicode="&#x169;" horiz-adv-x="1359" 
d="M279 -20q-115 0 -183 67t-28 150q111 225 178 503q10 40 -2 61t-41 21q-50 0 -158 -43l10 123q86 76 221.5 139.5t223.5 63.5q95 0 126 -59.5t3 -169.5q-55 -221 -170 -543q-13 -37 28 -37q62 0 154 128.5t171 306t120 333.5l344 41l-174 -721q-12 -51 -0.5 -66.5
t43.5 -15.5q28 0 89 13t105 30l-10 -123q-86 -76 -221 -139t-223 -63q-199 0 -111 284l68 213h-21q-108 -209 -257.5 -353t-284.5 -144zM438 1247q62 112 165.5 213t166.5 101q36 0 153.5 -63.5t145.5 -63.5q107 0 199 116l16 -20q-55 -117 -150.5 -215t-158.5 -98
q-33 0 -85.5 28.5t-110.5 57t-103 28.5q-61 0 -221 -104z" />
    <glyph glyph-name="Umacron" unicode="&#x16a;" horiz-adv-x="1654" 
d="M797 -20q-310 0 -465 125t-109 339l189 887l-181 -20l52 143h708l-41 -102l-63 -21q-69 -22 -106.5 -72t-53.5 -126l-129 -607q-36 -173 46.5 -269.5t262.5 -96.5q168 0 281 88.5t149 257.5l176 825l-233 -20l51 143h520l-41 -102l-47 -11q-63 -14 -94.5 -46t-48.5 -107
l-137 -641q-58 -271 -240 -419t-446 -148zM883 1630q7 32 45.5 82.5t66.5 50.5h609q-8 -39 -42 -86t-71 -47h-608z" />
    <glyph glyph-name="umacron" unicode="&#x16b;" horiz-adv-x="1359" 
d="M279 -20q-115 0 -183 67t-28 150q111 225 178 503q10 40 -2 61t-41 21q-50 0 -158 -43l10 123q86 76 221.5 139.5t223.5 63.5q95 0 126 -59.5t3 -169.5q-55 -221 -170 -543q-13 -37 28 -37q62 0 154 128.5t171 306t120 333.5l344 41l-174 -721q-12 -51 -0.5 -66.5
t43.5 -15.5q28 0 89 13t105 30l-10 -123q-86 -76 -221 -139t-223 -63q-199 0 -111 284l68 213h-21q-108 -209 -257.5 -353t-284.5 -144zM492 1221q7 32 45.5 82.5t66.5 50.5h608q-8 -39 -41.5 -86t-70.5 -47h-608z" />
    <glyph glyph-name="Ubreve" unicode="&#x16c;" horiz-adv-x="1654" 
d="M797 -20q-310 0 -465 125t-109 339l189 887l-181 -20l52 143h708l-41 -102l-63 -21q-69 -22 -106.5 -72t-53.5 -126l-129 -607q-36 -173 46.5 -269.5t262.5 -96.5q168 0 281 88.5t149 257.5l176 825l-233 -20l51 143h520l-41 -102l-47 -11q-63 -14 -94.5 -46t-48.5 -107
l-137 -641q-58 -271 -240 -419t-446 -148zM995 1982l25 21q-5 -84 57.5 -147.5t169.5 -63.5q111 0 201 63t121 148l16 -21q-44 -173 -152 -289t-237 -116q-132 0 -186 116t-15 289z" />
    <glyph glyph-name="ubreve" unicode="&#x16d;" horiz-adv-x="1359" 
d="M279 -20q-115 0 -183 67t-28 150q111 225 178 503q10 40 -2 61t-41 21q-50 0 -158 -43l10 123q86 76 221.5 139.5t223.5 63.5q95 0 126 -59.5t3 -169.5q-55 -221 -170 -543q-13 -37 28 -37q62 0 154 128.5t171 306t120 333.5l344 41l-174 -721q-12 -51 -0.5 -66.5
t43.5 -15.5q28 0 89 13t105 30l-10 -123q-86 -76 -221 -139t-223 -63q-199 0 -111 284l68 213h-21q-108 -209 -257.5 -353t-284.5 -144zM604 1573l25 20q-5 -84 57.5 -147.5t169.5 -63.5q111 0 201 63t121 148l16 -20q-44 -173 -152 -289.5t-237 -116.5q-132 0 -186 116.5
t-15 289.5z" />
    <glyph glyph-name="Uring" unicode="&#x16e;" horiz-adv-x="1654" 
d="M797 -20q-310 0 -465 125t-109 339l189 887l-181 -20l52 143h708l-41 -102l-63 -21q-69 -22 -106.5 -72t-53.5 -126l-129 -607q-36 -173 46.5 -269.5t262.5 -96.5q168 0 281 88.5t149 257.5l176 825l-233 -20l51 143h520l-41 -102l-47 -11q-63 -14 -94.5 -46t-48.5 -107
l-137 -641q-58 -271 -240 -419t-446 -148zM961 1720q0 97 92.5 155t220.5 58q108 0 168.5 -38.5t60.5 -104.5q0 -94 -86.5 -151.5t-224.5 -57.5q-108 0 -169.5 37t-61.5 102zM1163 1704q0 -62 43 -62q31 0 54.5 33.5t33 71.5t9.5 68q0 57 -43 57q-25 0 -44.5 -19.5
t-30.5 -48t-16.5 -55t-5.5 -45.5z" />
    <glyph glyph-name="uring" unicode="&#x16f;" horiz-adv-x="1359" 
d="M279 -20q-115 0 -183 67t-28 150q111 225 178 503q10 40 -2 61t-41 21q-50 0 -158 -43l10 123q86 76 221.5 139.5t223.5 63.5q95 0 126 -59.5t3 -169.5q-55 -221 -170 -543q-13 -37 28 -37q62 0 154 128.5t171 306t120 333.5l344 41l-174 -721q-12 -51 -0.5 -66.5
t43.5 -15.5q28 0 89 13t105 30l-10 -123q-86 -76 -221 -139t-223 -63q-199 0 -111 284l68 213h-21q-108 -209 -257.5 -353t-284.5 -144zM557 1317q0 105 99 176.5t241 71.5q112 0 178 -46t66 -122q0 -73 -51.5 -130.5t-128.5 -86.5t-160 -29q-111 0 -177.5 46t-66.5 120z
M760 1309q0 -41 15 -69t40 -28q50 0 87.5 70t37.5 123q0 42 -15 70t-42 28q-49 0 -86 -69.5t-37 -124.5z" />
    <glyph glyph-name="Uhungarumlaut" unicode="&#x170;" horiz-adv-x="1654" 
d="M797 -20q-310 0 -465 125t-109 339l189 887l-181 -20l52 143h708l-41 -102l-63 -21q-69 -22 -106.5 -72t-53.5 -126l-129 -607q-36 -173 46.5 -269.5t262.5 -96.5q168 0 281 88.5t149 257.5l176 825l-233 -20l51 143h520l-41 -102l-47 -11q-63 -14 -94.5 -46t-48.5 -107
l-137 -641q-58 -271 -240 -419t-446 -148zM987 1628q238 436 338 436q38 0 64 -32t20 -60q-4 -19 -18 -38.5t-47 -49.5t-58 -50t-84 -67l-198 -159zM1190 1597q94 142 209 257.5t162 115.5q34 0 52 -20.5t18 -43t-1 -38.5q-9 -36 -48 -67t-150 -95l-228 -129z" />
    <glyph glyph-name="uhungarumlaut" unicode="&#x171;" horiz-adv-x="1359" 
d="M279 -20q-115 0 -183 67t-28 150q111 225 178 503q10 40 -2 61t-41 21q-50 0 -158 -43l10 123q86 76 221.5 139.5t223.5 63.5q95 0 126 -59.5t3 -169.5q-55 -221 -170 -543q-13 -37 28 -37q62 0 154 128.5t171 306t120 333.5l344 41l-174 -721q-12 -51 -0.5 -66.5
t43.5 -15.5q28 0 89 13t105 30l-10 -123q-86 -76 -221 -139t-223 -63q-199 0 -111 284l68 213h-21q-108 -209 -257.5 -353t-284.5 -144zM596 1219q238 436 338 436q38 0 64 -32t20 -60q-4 -19 -18 -38.5t-47 -49.5t-58 -50t-84 -67l-199 -160zM799 1188q94 142 208.5 257.5
t161.5 115.5q34 0 52.5 -20.5t18.5 -43.5t-1 -39q-9 -36 -48 -66.5t-151 -95.5l-227 -129z" />
    <glyph glyph-name="Uogonek" unicode="&#x172;" horiz-adv-x="1654" 
d="M797 -20q-310 0 -465 125t-109 339l189 887l-181 -20l52 143h708l-41 -102l-63 -21q-69 -22 -106.5 -72t-53.5 -126l-129 -607q-36 -173 46.5 -269.5t262.5 -96.5q168 0 281 88.5t149 257.5l176 825l-233 -20l51 143h520l-41 -102l-47 -11q-63 -14 -94.5 -46t-48.5 -107
l-137 -641q-38 -180 -135 -308.5t-240 -195.5q-46 -38 -82.5 -90.5t-50.5 -83.5t-14 -37q0 -34 24.5 -57t65.5 -23q81 0 149 39l17 -20q-22 -28 -159 -114.5t-153 -86.5q-83 0 -130.5 34t-47.5 91q0 50 47.5 130t126.5 161q-52 -6 -104 -6z" />
    <glyph glyph-name="uogonek" unicode="&#x173;" horiz-adv-x="1359" 
d="M279 -20q-115 0 -183 67t-28 150q111 225 178 503q10 40 -2 61t-41 21q-50 0 -158 -43l10 123q86 76 221.5 139.5t223.5 63.5q95 0 126 -59.5t3 -169.5q-55 -221 -170 -543q-13 -37 28 -37q62 0 154 128.5t171 306t120 333.5l344 41l-174 -721q-12 -51 -0.5 -66.5
t43.5 -15.5q28 0 89 13t105 30l-10 -123q-79 -69 -201 -129q-58 -38 -104 -97.5t-64 -97.5t-18 -46q0 -34 24.5 -57t65.5 -23q82 0 150 39l16 -21q-22 -28 -158.5 -114.5t-152.5 -86.5q-83 0 -130.5 34t-47.5 91q0 53 51.5 137.5t136.5 168.5h-12q-199 0 -111 284l68 213
h-21q-108 -209 -257.5 -353t-284.5 -144z" />
    <glyph glyph-name="Wcircumflex" unicode="&#x174;" horiz-adv-x="2314" 
d="M1477 -20l-168 874l-598 -874h-72l-252 1351l-178 -10l49 133h733l-41 -102l-71 -21q-55 -15 -72.5 -53t-3.5 -111l121 -657l352 516l-59 305l-166 -10l49 133h764l-41 -102l-94 -21q-66 -13 -84.5 -48.5t-4.5 -121.5l97 -581l420 751l-238 -10l49 133h567l-41 -102
l-98 -21q-64 -14 -105 -48.5t-85 -113.5l-658 -1189h-71zM1180 1597q119 139 252.5 272.5t166.5 133.5t106.5 -133t129.5 -273l-27 -20l-262 190l-352 -190z" />
    <glyph glyph-name="wcircumflex" unicode="&#x175;" horiz-adv-x="1667" 
d="M29 862q79 69 198.5 136t188.5 67q47 0 90.5 -58t75.5 -152.5t54 -209.5t32 -235q44 45 72.5 88t47 96.5t17.5 117t-21 138.5q-9 35 16 86t72.5 90t94.5 39q40 0 62 -19.5t46 -80.5q114 -304 86 -609q81 134 134 286.5t53 299.5q0 123 90 123q85 0 165 -36.5t80 -78.5
q0 -115 -54 -237.5t-133 -223.5t-188 -204t-198.5 -172t-185.5 -133h-41q13 149 -13 458q-159 -172 -458 -458h-39q-19 270 -37 432t-41 243t-45.5 105t-59.5 24q-36 0 -64.5 -9.5t-84.5 -35.5zM649 1188q10 13 77 96.5t105 129.5t93.5 111.5t90 97.5t48.5 32t33.5 -31
t46.5 -99.5t42.5 -109t46 -131.5t32.5 -96l-27 -21l-238 211l-335 -211z" />
    <glyph glyph-name="Ycircumflex" unicode="&#x176;" horiz-adv-x="1599" 
d="M346 0l43 102l47 21q74 32 114 76t54 106l66 303l-281 723l-182 -20l51 143h770l-41 -102l-104 -21q-69 -13 -84.5 -41.5t10.5 -89.5l176 -452l473 583l-221 -20l51 143h533l-41 -102l-88 -19q-46 -9 -84 -36t-90 -89l-490 -600l-104 -485l239 20l-51 -143h-766z
M815 1597q118 138 252 272t168 134q33 0 105.5 -132.5t129.5 -273.5l-26 -20l-262 190l-353 -190z" />
    <glyph glyph-name="ycircumflex" unicode="&#x177;" horiz-adv-x="1210" 
d="M-199 -324q18 -2 62 -2q76 0 150.5 11.5t148 36t132.5 69.5t89 105q55 110 55 264q0 138 -41.5 286.5t-100.5 243t-108 94.5q-69 0 -147 -45l-12 123q87 70 209.5 136.5t197.5 66.5q76 0 140 -90t100.5 -239.5t36.5 -319.5q0 -19 -2.5 -83t-3.5 -97q79 153 134.5 352
t55.5 395q0 37 25.5 59.5t64.5 22.5q61 0 153.5 -38t92.5 -77q0 -101 -75 -256.5t-215.5 -353.5t-297.5 -394t-364 -435q-108 0 -247 17t-233 46v102zM469 1188q10 13 77 96.5t105 129.5t93.5 111.5t90 97.5t48.5 32t33.5 -31.5t46 -98t42.5 -111t45 -130t33 -96.5l-26 -21
l-238 211l-336 -211z" />
    <glyph glyph-name="Ydieresis" unicode="&#x178;" horiz-adv-x="1599" 
d="M346 0l43 102l47 21q74 32 114 76t54 106l66 303l-281 723l-182 -20l51 143h770l-41 -102l-104 -21q-69 -13 -84.5 -41.5t10.5 -89.5l176 -452l473 583l-221 -20l51 143h533l-41 -102l-88 -19q-46 -9 -84 -36t-90 -89l-490 -600l-104 -485l239 20l-51 -143h-766z
M844 1741q0 65 54.5 116.5t121.5 51.5q47 0 77.5 -31.5t30.5 -77.5q0 -65 -53 -116.5t-117 -51.5q-51 0 -82.5 31t-31.5 78zM1204 1741q0 65 55.5 116.5t122.5 51.5q46 0 76.5 -31.5t30.5 -77.5q0 -65 -52.5 -116.5t-117.5 -51.5q-50 0 -82.5 31.5t-32.5 77.5z" />
    <glyph glyph-name="Zacute" unicode="&#x179;" horiz-adv-x="1288" 
d="M-66 0l-24 123l1141 1220l-355 -12q-278 -9 -479 -389h-92l201 553q124 -41 313 -41h813l27 -123l-1145 -1220l371 12q72 2 126 23.5t106 74.5t98.5 125.5t111.5 194.5h92l-123 -582q-124 41 -315 41h-867zM719 1597q124 136 265.5 271t182.5 135q40 0 60 -36t8 -87
q-5 -23 -14 -43t-17 -35.5t-23.5 -31t-24.5 -25t-29.5 -21.5t-29 -17t-32 -15t-30 -12t-32 -11t-28.5 -10l-242 -82z" />
    <glyph glyph-name="zacute" unicode="&#x17a;" horiz-adv-x="1005" 
d="M627 -207q-64 0 -125.5 25t-109 60.5t-91.5 71t-90.5 60t-89.5 23.5q-21 0 -60.5 -16.5t-60.5 -36.5l-102 40l757 748h-127q-69 0 -113 -5.5t-92 -23.5t-90.5 -54t-89.5 -95h-82l175 495q64 -41 307 -41h430l39 -71l-711 -707q41 -11 85.5 -37.5t76 -51.5t76.5 -44.5
t92 -19.5q45 0 72 7t54 31.5t48 69t47 121.5h82q0 -139 -38.5 -264t-110 -205t-158.5 -80zM457 1147q122 176 269 342t204 166q51 0 71.5 -53t8.5 -111q-6 -23 -17.5 -44.5t-31.5 -41t-36 -33.5t-45.5 -31.5t-44 -25.5t-47.5 -24.5t-40 -20.5l-277 -144z" />
    <glyph glyph-name="Zdotaccent" unicode="&#x17b;" horiz-adv-x="1288" 
d="M-66 0l-24 123l1141 1220l-355 -12q-278 -9 -479 -389h-92l201 553q124 -41 313 -41h813l27 -123l-1145 -1220l371 12q72 2 126 23.5t106 74.5t98.5 125.5t111.5 194.5h92l-123 -582q-124 41 -315 41h-867zM735 1737q0 96 81 172t179 76q71 0 115.5 -44.5t44.5 -111.5
q0 -98 -78 -176t-174 -78q-74 0 -121 46t-47 116z" />
    <glyph glyph-name="zdotaccent" unicode="&#x17c;" horiz-adv-x="1005" 
d="M627 -207q-64 0 -125.5 25t-109 60.5t-91.5 71t-90.5 60t-89.5 23.5q-21 0 -60.5 -16.5t-60.5 -36.5l-102 40l757 748h-127q-69 0 -113 -5.5t-92 -23.5t-90.5 -54t-89.5 -95h-82l175 495q64 -41 307 -41h430l39 -71l-711 -707q41 -11 85.5 -37.5t76 -51.5t76.5 -44.5
t92 -19.5q45 0 72 7t54 31.5t48 69t47 121.5h82q0 -139 -38.5 -264t-110 -205t-158.5 -80zM479 1327q0 96 81 172t179 76q71 0 115.5 -44.5t44.5 -111.5q0 -98 -78 -176t-174 -78q-74 0 -121 46t-47 116z" />
    <glyph glyph-name="Zcaron" unicode="&#x17d;" horiz-adv-x="1288" 
d="M-66 0l-24 123l1141 1220l-355 -12q-278 -9 -479 -389h-92l201 553q124 -41 313 -41h813l27 -123l-1145 -1220l371 12q72 2 126 23.5t106 74.5t98.5 125.5t111.5 194.5h92l-123 -582q-124 41 -315 41h-867zM647 1985l27 20l262 -190l352 190l15 -20q-118 -138 -252 -272
t-168 -134q-33 0 -106.5 133t-129.5 273z" />
    <glyph glyph-name="zcaron" unicode="&#x17e;" horiz-adv-x="1005" 
d="M627 -207q-64 0 -125.5 25t-109 60.5t-91.5 71t-90.5 60t-89.5 23.5q-21 0 -60.5 -16.5t-60.5 -36.5l-102 40l757 748h-127q-69 0 -113 -5.5t-92 -23.5t-90.5 -54t-89.5 -95h-82l175 495q64 -41 307 -41h430l39 -71l-711 -707q41 -11 85.5 -37.5t76 -51.5t76.5 -44.5
t92 -19.5q45 0 72 7t54 31.5t48 69t47 121.5h82q0 -139 -38.5 -264t-110 -205t-158.5 -80zM430 1634l25 21l237 -211l336 211l16 -21q-6 -8 -76.5 -96t-106 -131t-93 -110t-91.5 -98.5t-48 -31.5t-34 32t-45 97t-42.5 112t-45 129t-32.5 97z" />
    <glyph glyph-name="florin" unicode="&#x192;" horiz-adv-x="817" 
d="M307 1075q30 230 153.5 356t338.5 125q137 0 261 -22.5t124 -58.5q0 -87 -39 -146t-103 -59q-23 0 -47.5 8.5t-57.5 30t-55 38t-68 53t-69 54.5h-20q-17 0 -28 -10t-17.5 -30.5t-11 -49t-8.5 -66.5q-3 -29 -5 -45l-28 -229h422v-113h-437l-100 -772q-30 -230 -152.5 -356
t-339.5 -125q-137 0 -261 23t-124 59q0 87 39 146t103 59q23 0 48 -8.5t57 -30t55 -38.5t68 -53t69 -55h20q17 0 28 10t17.5 30.5t11 49t8.5 66.5q3 29 5 45l123 950h-213v86l225 47h4z" />
    <glyph glyph-name="uni0218" unicode="&#x218;" horiz-adv-x="1226" 
d="M528 -20q-249 0 -495 79l51 482h92q47 -214 159.5 -321t256.5 -107q122 0 199 74t77 171q0 81 -76.5 128.5t-246.5 88.5q-211 51 -298 134.5t-87 199.5q0 156 95.5 287t254.5 205t344 74q65 0 140.5 -12t121 -23.5t119.5 -32.5l-70 -424h-92q-21 177 -101 265.5
t-204 88.5q-131 0 -216 -73.5t-85 -178.5q0 -41 26.5 -72t101 -63.5t206.5 -64.5q196 -48 280 -134.5t84 -207.5q0 -104 -45.5 -204.5t-125.5 -180.5t-202 -129t-264 -49zM295 -668q139 143 139 260q0 35 -15 60.5t-33 37.5t-33 26.5t-15 29.5q0 59 61 108.5t133 49.5
q70 0 109 -39t39 -103q0 -65 -35 -132.5t-93.5 -126.5t-117.5 -105t-123 -86z" />
    <glyph glyph-name="uni0219" unicode="&#x219;" horiz-adv-x="987" 
d="M-2 162q0 30 6.5 67t20 75t39 63.5t57.5 25.5q30 0 71 -26.5t81.5 -64t80 -75t76.5 -64t62 -26.5q15 0 24.5 10.5t9.5 28.5q0 51 -46 121t-118 133q-212 191 -212 299q0 63 34.5 123t96 107.5t155 76.5t203.5 29q45 0 102 -7t123.5 -23t111 -49t44.5 -77q0 -29 -20 -81
t-55.5 -98t-70.5 -46q-33 0 -80 34.5t-87.5 76t-87.5 76t-80 34.5q-24 0 -37 -11t-13 -44q0 -91 154 -234q97 -91 157 -170.5t60 -150.5q0 -134 -110 -224.5t-314 -90.5q-80 0 -183 27t-179 70.5t-76 84.5zM176 -668q139 143 139 260q0 35 -15 60.5t-33 37.5t-33 26.5
t-15 29.5q0 58 61.5 108t133.5 50q70 0 108.5 -38.5t38.5 -103.5q0 -52 -24 -107.5t-61 -102.5t-88 -93.5t-98 -81t-97 -65.5z" />
    <glyph glyph-name="uni021A" unicode="&#x21a;" horiz-adv-x="1486" 
d="M262 0l43 102l90 31q118 41 146 172l217 1026h-131q-102 0 -180 -80t-160 -235h-92l143 479q124 -41 272 -41h707q149 0 293 41l-62 -479h-92q-27 158 -51 212q-41 95 -136 102q-8 1 -18 1h-135l-256 -1208l240 20l-51 -143h-787zM379 -668q139 143 139 260
q0 35 -15 60.5t-33 37.5t-33 26.5t-15 29.5q0 59 61 108.5t133 49.5q70 0 109 -39t39 -103q0 -65 -35 -132.5t-93.5 -126.5t-117.5 -105t-123 -86z" />
    <glyph glyph-name="uni021B" unicode="&#x21b;" horiz-adv-x="921" 
d="M162 231l166 711h-197l21 102l260 70l301 266h80l-80 -336h317l-20 -102h-322l-145 -610q-16 -70 51 -70q44 0 124 37.5t140 87.5v-123q-113 -127 -248.5 -205.5t-255.5 -78.5t-168.5 72.5t-23.5 178.5zM125 -668q139 143 139 260q0 35 -15 60.5t-33 37.5t-33 26.5
t-15 29.5q0 59 61 108.5t133 49.5q70 0 109 -39t39 -103q0 -65 -35 -132.5t-93.5 -126.5t-117.5 -105t-123 -86z" />
    <glyph glyph-name="uni0237" unicode="&#x237;" horiz-adv-x="780" 
d="M-322 -492q-58 0 -80 26t-22 56q0 67 36 151.5t77 84.5q49 0 174 -62.5t172 -62.5q49 0 84.5 69.5t64.5 211.5l131 647q18 87 -25 119t-147 30l-20 123q69 32 108 49t123 50t160 49t143 16q47 0 61 -18.5t3 -79.5l-156 -803q-32 -165 -95 -284t-167.5 -204t-259.5 -126.5
t-365 -41.5z" />
    <glyph glyph-name="circumflex" unicode="&#x2c6;" horiz-adv-x="720" 
d="M791 1167l-238 211l-336 -211l-14 21q13 17 77 97.5t104 128.5t94.5 112t89 96.5t48.5 32.5t33.5 -31t46.5 -99.5t42.5 -109t46 -131.5t32.5 -96z" />
    <glyph glyph-name="caron" unicode="&#x2c7;" horiz-adv-x="720" 
d="M471 1167q-14 0 -34 32t-45 97t-42.5 112t-45 129t-32.5 97l25 21l238 -211l335 211l17 -21q-14 -17 -54 -67t-68.5 -85.5t-70.5 -87t-73.5 -87t-63.5 -70.5t-54 -52.5t-32 -17.5z" />
    <glyph glyph-name="breve" unicode="&#x2d8;" horiz-adv-x="692" 
d="M489 1167q-132 0 -185.5 116.5t-14.5 289.5l24 20q-5 -84 57.5 -147.5t170.5 -63.5q111 0 200.5 63t120.5 148l17 -20q-44 -173 -152.5 -289.5t-237.5 -116.5z" />
    <glyph glyph-name="dotaccent" unicode="&#x2d9;" horiz-adv-x="575" 
d="M459 1165q-74 0 -121 46t-47 116q0 96 81 172t179 76q71 0 115.5 -44.5t44.5 -111.5q0 -98 -78 -176t-174 -78z" />
    <glyph glyph-name="ring" unicode="&#x2da;" horiz-adv-x="616" 
d="M469 1151q-111 0 -177.5 46t-66.5 120q0 105 99 176.5t241 71.5q112 0 178 -46t66 -122q0 -73 -51.5 -130.5t-128.5 -86.5t-160 -29zM428 1309q0 -41 15 -69t40 -28q50 0 87.5 70t37.5 123q0 42 -15 70t-42 28q-49 0 -86 -69.5t-37 -124.5z" />
    <glyph glyph-name="ogonek" unicode="&#x2db;" horiz-adv-x="378" 
d="M-23 -492q-83 0 -130.5 34t-47.5 91q0 88 125 238t295 240l14 -91q-39 -24 -74 -57.5t-57 -64.5t-38.5 -60t-23.5 -46.5t-7 -20.5q0 -34 24.5 -57t65.5 -23q81 0 149 39l17 -21q-22 -28 -159 -114.5t-153 -86.5z" />
    <glyph glyph-name="tilde" unicode="&#x2dc;" horiz-adv-x="821" 
d="M203 1247q62 112 165.5 213t166.5 101q36 0 153.5 -63.5t145.5 -63.5q106 0 198 116l17 -20q-55 -116 -151 -214.5t-159 -98.5q-33 0 -85.5 28.5t-110.5 57t-103 28.5q-61 0 -221 -104z" />
    <glyph glyph-name="hungarumlaut" unicode="&#x2dd;" horiz-adv-x="602" 
d="M170 1219q238 436 338 436q38 0 64 -32t20 -60q-4 -19 -18 -38.5t-47 -49.5t-58 -50t-84 -67l-199 -160zM373 1188q94 142 208.5 257.5t161.5 115.5q34 0 52.5 -20.5t18.5 -43.5t-1 -39q-9 -36 -48 -66.5t-151 -95.5l-227 -129z" />
    <glyph glyph-name="gravecomb" unicode="&#x300;" horiz-adv-x="0" 
d="M465 1229q-37 15 -69.5 34t-66.5 46.5t-54.5 64t-20.5 76.5q0 62 33.5 133.5t83.5 71.5q19 0 83.5 -97.5t147.5 -229t125 -181.5l-18 -21z" />
    <glyph glyph-name="acutecomb" unicode="&#x301;" horiz-adv-x="0" 
d="M182 1147q122 176 269 342t204 166q51 0 71.5 -53t8.5 -111q-6 -23 -17.5 -44.5t-31.5 -41t-36 -33.5t-45.5 -31.5t-44 -25.5t-47.5 -24.5t-40 -20.5l-276 -144z" />
    <glyph glyph-name="uni0302" unicode="&#x302;" horiz-adv-x="0" 
d="M791 1167l-238 211l-336 -211l-14 21q13 17 77 97.5t104 128.5t94.5 112t89 96.5t48.5 32.5t33.5 -31t46.5 -99.5t42.5 -109t46 -131.5t32.5 -96z" />
    <glyph glyph-name="tildecomb" unicode="&#x303;" horiz-adv-x="0" 
d="M203 1247q62 112 165.5 213t166.5 101q36 0 153.5 -63.5t145.5 -63.5q106 0 198 116l17 -20q-55 -116 -151 -214.5t-159 -98.5q-33 0 -85.5 28.5t-110.5 57t-103 28.5q-61 0 -221 -104z" />
    <glyph glyph-name="uni0304" unicode="&#x304;" horiz-adv-x="0" 
d="M197 1221q7 32 45.5 82.5t66.5 50.5h609q-8 -39 -42 -86t-71 -47h-608z" />
    <glyph glyph-name="uni0306" unicode="&#x306;" horiz-adv-x="0" 
d="M489 1167q-132 0 -185.5 116.5t-14.5 289.5l24 20q-5 -84 57.5 -147.5t170.5 -63.5q111 0 200.5 63t120.5 148l17 -20q-44 -173 -152.5 -289.5t-237.5 -116.5z" />
    <glyph glyph-name="uni0307" unicode="&#x307;" horiz-adv-x="0" 
d="M459 1165q-74 0 -121 46t-47 116q0 96 81 172t179 76q71 0 115.5 -44.5t44.5 -111.5q0 -98 -78 -176t-174 -78z" />
    <glyph glyph-name="uni0308" unicode="&#x308;" horiz-adv-x="0" 
d="M838 1217q-56 0 -91.5 34t-35.5 86q0 73 61 130t135 57q52 0 85.5 -34t33.5 -85q0 -73 -58.5 -130.5t-129.5 -57.5zM309 1337q0 73 61.5 130t135.5 57q52 0 85.5 -34t33.5 -85q0 -73 -59 -130.5t-130 -57.5q-56 0 -91.5 34t-35.5 86z" />
    <glyph glyph-name="uni030A" unicode="&#x30a;" horiz-adv-x="0" 
d="M469 1151q-111 0 -177.5 46t-66.5 120q0 105 99 176.5t241 71.5q112 0 178 -46t66 -122q0 -73 -51.5 -130.5t-128.5 -86.5t-160 -29zM428 1309q0 -41 15 -69t40 -28q50 0 87.5 70t37.5 123q0 42 -15 70t-42 28q-49 0 -86 -69.5t-37 -124.5z" />
    <glyph glyph-name="uni030B" unicode="&#x30b;" horiz-adv-x="0" 
d="M170 1219q238 436 338 436q38 0 64 -32t20 -60q-4 -19 -18 -38.5t-47 -49.5t-58 -50t-84 -67l-199 -160zM373 1188q94 142 208.5 257.5t161.5 115.5q34 0 52.5 -20.5t18.5 -43.5t-1 -39q-9 -36 -48 -66.5t-151 -95.5l-227 -129z" />
    <glyph glyph-name="uni030C" unicode="&#x30c;" horiz-adv-x="0" 
d="M471 1167q-14 0 -34 32t-45 97t-42.5 112t-45 129t-32.5 97l25 21l238 -211l335 211l17 -21q-14 -17 -54 -67t-68.5 -85.5t-70.5 -87t-73.5 -87t-63.5 -70.5t-54 -52.5t-32 -17.5z" />
    <glyph glyph-name="uni0312" unicode="&#x312;" horiz-adv-x="0" 
d="M608 1718q-139 -143 -139 -260q0 -28 10 -50t24 -35t28 -23t24 -21t10 -24q0 -59 -61 -108.5t-133 -49.5q-71 0 -109.5 38.5t-38.5 102.5q0 65 35 133t93.5 127t117.5 105t123 86z" />
    <glyph glyph-name="uni0326" unicode="&#x326;" horiz-adv-x="0" 
d="M-207 -668q139 143 139 260q0 35 -15 60.5t-33 37.5t-33 26.5t-15 29.5q0 58 61.5 108t133.5 50q70 0 108.5 -38.5t38.5 -103.5q0 -52 -24 -107.5t-61 -102.5t-88 -93.5t-98 -81t-97 -65.5z" />
    <glyph glyph-name="uni0327" unicode="&#x327;" horiz-adv-x="0" 
d="M-180 -575q112 112 112 200q0 38 -22 66.5t-72 66.5l238 297h65l-71 -164q116 -65 116 -147q0 -68 -57 -140t-136.5 -123t-158.5 -77z" />
    <glyph glyph-name="uni0328" unicode="&#x328;" horiz-adv-x="0" 
d="M-23 -492q-83 0 -130.5 34t-47.5 91q0 88 125 238t295 240l14 -91q-39 -24 -74 -57.5t-57 -64.5t-38.5 -60t-23.5 -46.5t-7 -20.5q0 -34 24.5 -57t65.5 -23q81 0 149 39l17 -21q-22 -28 -159 -114.5t-153 -86.5z" />
    <glyph glyph-name="uni0394" unicode="&#x394;" horiz-adv-x="1384" 
d="M-121 0l965 1454h53l346 -1454h-1364zM115 133h712l-188 795z" />
    <glyph glyph-name="uni03A9" unicode="&#x3a9;" horiz-adv-x="1662" 
d="M834 143q255 245 358.5 435t103.5 399q0 165 -75 264.5t-211 99.5q-83 0 -157 -30.5t-129.5 -82t-100.5 -118.5t-73 -142t-43 -150t-15 -144q0 -112 26.5 -208.5t52 -144.5t88.5 -147q12 -21 19 -31l-72 -143h-645l47 317l387 -55q-69 63 -115 115t-85.5 115t-58.5 133.5
t-19 152.5q0 123 51 233.5t140 194t205.5 145t251.5 93t273 31.5q303 0 474 -142t171 -375q0 -98 -30.5 -187.5t-76.5 -157.5t-121.5 -137.5t-143 -118.5t-164.5 -111l420 30l-78 -276h-645z" />
    <glyph glyph-name="uni03BC" unicode="&#x3bc;" horiz-adv-x="1415" 
d="M279 -20q-24 0 -56 4q8 -167 107 -353l-334 -123q-36 114 -9 351.5t81 337.5q111 225 178 503q10 40 -2 61t-41 21q-50 0 -158 -43l10 123q86 76 221.5 139.5t223.5 63.5q95 0 126 -59.5t3 -169.5q-55 -221 -170 -543q-13 -37 28 -37q62 0 154 128.5t171 306t120 333.5
l344 41l-174 -721q-12 -51 -0.5 -66.5t43.5 -15.5q28 0 89 13t105 30l-10 -123q-86 -76 -221 -139t-223 -63q-199 0 -111 284l68 213h-21q-108 -209 -257.5 -353t-284.5 -144z" />
    <glyph glyph-name="pi" unicode="&#x3c0;" horiz-adv-x="1292" 
d="M674 -20q-57 0 -96 40t-39 132q0 156 157 544h-227q-109 -507 -174 -716q-116 -1 -196.5 36.5t-98.5 96.5q21 31 81.5 113t104.5 144.5t96 154t80 171.5h-6q-26 0 -59.5 -3.5t-59.5 -8t-65 -13t-56.5 -12.5t-55 -13.5t-40.5 -10.5l-16 20q25 57 75.5 121t113 119.5
t137.5 92t141 36.5h743q-6 -54 -42.5 -172.5t-67.5 -155.5h-240q-6 -71 -6 -133q0 -126 8 -167q20 -110 116 -128q21 -4 46 -4q40 0 105 10l2 -92q-188 -115 -282 -155q-108 -47 -179 -47z" />
    <glyph glyph-name="uni0400" unicode="&#x400;" horiz-adv-x="1495" 
d="M-29 0l43 102l64 19q121 34 141 133l230 1077l-201 -20l51 143h877q132 0 286 62l-32 -541h-93q-41 177 -108 266.5t-180 89.5h-244l-113 -528h129q70 0 128 52t112 181h92l-123 -577h-92q0 130 -35.5 180.5t-105.5 50.5h-127l-121 -567h313q118 0 239 117t224 301h92
l-229 -602q-122 61 -273 61h-944zM745 1880q10 51 47.5 87t77.5 36q29 0 84 -80.5t99 -165.5t77 -160l-22 -20l-205 82q-79 32 -103 50q-81 57 -55 171z" />
    <glyph glyph-name="uni0401" unicode="&#x401;" horiz-adv-x="1495" 
d="M-29 0l43 102l64 19q121 34 141 133l230 1077l-201 -20l51 143h877q132 0 286 62l-32 -541h-93q-41 177 -108 266.5t-180 89.5h-244l-113 -528h129q70 0 128 52t112 181h92l-123 -577h-92q0 130 -35.5 180.5t-105.5 50.5h-127l-121 -567h313q118 0 239 117t224 301h92
l-229 -602q-122 61 -273 61h-944zM705 1741q0 65 54.5 116.5t121.5 51.5q47 0 77.5 -31.5t30.5 -77.5q0 -65 -53 -116.5t-117 -51.5q-51 0 -82.5 31t-31.5 78zM1065 1741q0 65 55.5 116.5t122.5 51.5q46 0 76.5 -31.5t30.5 -77.5q0 -65 -52.5 -116.5t-117.5 -51.5
q-50 0 -82.5 31.5t-32.5 77.5z" />
    <glyph glyph-name="uni0402" unicode="&#x402;" horiz-adv-x="1859" 
d="M1022 -383q-61 0 -126.5 17.5t-108 46.5t-35.5 57q11 52 70.5 104t109.5 52l233 -140q110 127 179 320.5t69 335.5q0 133 -62 206.5t-180 73.5q-95 0 -198 -35l-113 -532l240 20l-51 -143h-787l43 102l90 31q118 41 146 172l217 1026h-131q-102 0 -180 -80t-160 -235h-92
l143 479q124 -41 272 -41h707q149 0 293 41l-62 -479h-92q-27 158 -51 212q-41 95 -136 102q-8 1 -18 1h-135l-110 -524q182 98 376 98q135 0 232.5 -58.5t144.5 -154.5t47 -217q0 -150 -70.5 -306.5t-181 -277t-253.5 -197.5t-279 -77z" />
    <glyph glyph-name="uni0403" unicode="&#x403;" horiz-adv-x="1359" 
d="M-29 0l41 102l64 19q66 20 99 54.5t44 88.5l227 1067l-198 -20l51 143h864q164 0 299 41l-61 -479h-92q-10 47 -16 74.5t-17 65.5t-21 59.5t-26 46.5t-34 38t-43.5 22t-55.5 9h-135q-90 0 -129.5 -32t-57.5 -111l-225 -1065l199 20l-52 -143h-725zM831 1597
q123 134 265.5 270t183.5 136q40 0 60 -36t8 -87q-5 -23 -14 -43t-17 -35.5t-23.5 -31l-25 -25t-29.5 -21.5t-29 -17.5t-32.5 -14.5t-30.5 -12t-31.5 -11.5t-28.5 -9.5l-241 -82z" />
    <glyph glyph-name="uni0404" unicode="&#x404;" horiz-adv-x="1566" 
d="M766 -20q-185 0 -331.5 68.5t-232 201t-85.5 307.5q0 176 74 343.5t200 294t306 203.5t380 77q317 0 547 -107l-70 -426h-92q-20 92 -50.5 161.5t-78 124.5t-118.5 84t-164 29q-97 0 -182 -47t-147.5 -128t-107 -175.5t-73.5 -202.5h256q70 0 126.5 49.5t110.5 178.5h92
l-120 -567h-93q1 128 -34.5 177.5t-106.5 49.5h-258q-18 -108 -18 -199q0 -176 71.5 -270t212.5 -94q267 0 529 362q88 -5 138 -60t30 -128q-15 -68 -71 -122.5t-132 -88t-169 -56t-177 -31.5t-162 -9z" />
    <glyph glyph-name="uni0405" unicode="&#x405;" horiz-adv-x="1167" 
d="M551 -20q-250 0 -496 79l51 482h93q47 -214 159.5 -321t255.5 -107q122 0 199.5 74t77.5 171q0 81 -77 128.5t-247 88.5q-211 51 -298 134.5t-87 199.5q0 117 56.5 222.5t151 180.5t222 119t265.5 44q65 0 140.5 -12t120 -23.5t119.5 -32.5l-69 -424h-92
q-21 177 -101 265.5t-204 88.5q-131 0 -216.5 -73.5t-85.5 -178.5q0 -41 26.5 -72t101 -63.5t206.5 -64.5q134 -33 217 -86t115.5 -115t32.5 -141q0 -104 -45.5 -204.5t-125.5 -180.5t-202 -129t-264 -49z" />
    <glyph glyph-name="uni0406" unicode="&#x406;" horiz-adv-x="872" 
d="M-18 0l43 102l63 19q67 20 99.5 54t43.5 89l228 1067l-201 -20l51 143h711l-41 -102l-70 -21q-99 -28 -123 -143l-227 -1065l199 20l-51 -143h-725z" />
    <glyph glyph-name="uni0407" unicode="&#x407;" horiz-adv-x="872" 
d="M-18 0l43 102l63 19q67 20 99.5 54t43.5 89l228 1067l-201 -20l51 143h711l-41 -102l-70 -21q-99 -28 -123 -143l-227 -1065l199 20l-51 -143h-725zM371 1741q0 65 54.5 116.5t121.5 51.5q47 0 77.5 -31.5t30.5 -77.5q0 -65 -53 -116.5t-117 -51.5q-51 0 -82.5 31
t-31.5 78zM731 1741q0 65 55.5 116.5t122.5 51.5q46 0 76.5 -31.5t30.5 -77.5q0 -65 -52.5 -116.5t-117.5 -51.5q-50 0 -82.5 31.5t-32.5 77.5z" />
    <glyph glyph-name="uni0408" unicode="&#x408;" horiz-adv-x="858" 
d="M-299 -389q92 65 163 132t135 152.5t110 191.5t73 232l215 1012l-258 -20l51 143h766l-41 -102l-77 -23q-45 -13 -74.5 -53.5t-40.5 -97.5l-182 -852q-34 -160 -99 -294t-146 -225.5t-176 -155t-189.5 -93t-186.5 -29.5z" />
    <glyph glyph-name="uni0409" unicode="&#x409;" horiz-adv-x="2205" 
d="M143 -20q-34 0 -87.5 35t-93 92t-30.5 106q117 27 216.5 85t170.5 134t127.5 174.5t92 198t59.5 211.5l66 303l-281 -8l59 143h1262l-47 -123l-74 -6q-48 -4 -74 -39t-39 -98l-69 -326h127q278 0 435 -91t157 -251q0 -110 -54 -208t-144 -165.5t-208 -107t-244 -39.5
h-802l47 123h59q61 0 95 40t46 101l226 1055h-355l-59 -279q-35 -161 -88 -316.5t-125 -302.5t-168 -264t-203 -177zM1245 123h96q92 0 167.5 34.5t123 91.5t73.5 127t26 144q0 103 -58 161t-162 58h-135z" />
    <glyph glyph-name="uni040A" unicode="&#x40a;" horiz-adv-x="2504" 
d="M-29 0l41 102l64 19q66 20 99 54.5t44 88.5l227 1067l-198 -20l51 143h709l-43 -102l-68 -21q-101 -32 -123 -143l-78 -367h637l109 510l-199 -20l51 143h709l-43 -102l-70 -21q-55 -16 -79 -39.5t-37 -83.5l-82 -387h127q282 0 439 -83.5t157 -239.5
q0 -146 -91.5 -261.5t-238 -176t-316.5 -60.5h-782l41 102l72 21q90 27 117 145l92 430h-639l-121 -575l199 20l-52 -143h-725zM1544 123h96q94 0 169 31.5t121.5 84.5t70.5 119t24 138q0 99 -59 150.5t-166 51.5h-135z" />
    <glyph glyph-name="uni040B" unicode="&#x40b;" horiz-adv-x="2054" 
d="M1161 0l41 102l58 21q99 37 120 143l41 191q27 120 -4 187t-119 67q-158 0 -325 -54l-113 -534l240 20l-51 -143h-787l43 102l90 31q118 41 146 172l217 1026h-131q-102 0 -180 -80t-160 -235h-92l143 479q124 -41 272 -41h707q149 0 293 41l-62 -479h-92
q-27 158 -51 212q-41 95 -136 102q-8 1 -18 1h-135l-112 -532q220 127 458 127q77 0 138 -15.5t100 -44t64.5 -65t35 -80.5t9 -89t-10.5 -93l-88 -416l199 20l-51 -143h-697z" />
    <glyph glyph-name="uni040C" unicode="&#x40c;" horiz-adv-x="1771" 
d="M1616 -20q-205 0 -334 25.5t-203.5 77t-124.5 142.5l-233 430l10 41l780 631l-262 -16l51 143h619l-41 -102q-119 -16 -188 -49.5t-150 -100.5l-512 -414l287 -469q72 -118 137 -178.5t184 -120.5zM-25 0l43 102l64 19q55 15 93 53t48 90l228 1067l-203 -20l51 143h709
l-41 -102l-66 -21q-101 -33 -123 -143l-227 -1065l180 20l-51 -143h-705zM946 1597q123 134 265.5 270t183.5 136q40 0 59.5 -36t7.5 -87q-5 -23 -14 -43t-17 -35.5t-23.5 -31t-24.5 -25t-29.5 -21.5t-29 -17t-32 -15t-30 -12t-32 -11t-28.5 -10l-241 -82z" />
    <glyph glyph-name="uni040D" unicode="&#x40d;" horiz-adv-x="1908" 
d="M549 123v2l-27 -125h-551l41 102l64 19q66 20 99 54.5t44 88.5l227 1067l-198 -20l51 143h709l-43 -102l-68 -21q-101 -32 -123 -143l-168 -787l756 756q36 38 64 87.5t36 86.5l27 123h534l-43 -102l-67 -21q-101 -32 -123 -143l-225 -1065l198 20l-51 -143h-704l41 102
l63 19q100 28 123 143l162 758l-752 -754q-30 -28 -59.5 -70t-36.5 -75zM999 1880q10 51 47.5 87t77.5 36q29 0 84 -80.5t99 -165.5t77 -160l-22 -20l-205 82q-79 32 -103 50q-81 57 -55 171z" />
    <glyph glyph-name="uni040E" unicode="&#x40e;" horiz-adv-x="1499" 
d="M205 -20q-45 0 -71.5 29t-33.5 74t-5.5 87t9.5 80q38 0 108.5 -2.5t104 -1.5t82.5 7.5t87 25t75 49.5q112 92 68 223l-258 780l-162 -10l49 133h774l-43 -102l-102 -11q-70 -6 -97.5 -43t-5.5 -98l144 -414l426 545l-189 -10l49 133h506l-43 -102l-86 -9
q-40 -3 -79 -32.5t-97 -102.5l-596 -753q-212 -267 -348 -371t-266 -104zM766 1843q0 43 68 79.5t128 40t74 -16.5q17 -100 54.5 -141.5t97.5 -41.5q66 0 130 60.5t150 183.5q47 0 78 -18t13 -54q-15 -28 -32.5 -55.5t-64 -84t-95 -96.5t-123 -72t-152.5 -32
q-127 0 -226.5 77t-99.5 171z" />
    <glyph glyph-name="uni040F" unicode="&#x40f;" horiz-adv-x="1847" 
d="M-51 0l51 143l190 -20l256 1208l-198 -20l51 143h705l-43 -102l-64 -19q-96 -27 -123 -143l-225 -1067h440q92 0 131 31t54 110l227 1065l-199 -20l51 143h725l-43 -102l-63 -19q-66 -20 -99 -54.5t-44 -88.5l-226 -1065l199 20l-51 -143h-797q9 -168 -23 -471h-262
q87 278 181 471h-801z" />
    <glyph glyph-name="uni0410" unicode="&#x410;" horiz-adv-x="1716" 
d="M821 0l43 102l70 21q64 19 84 51.5t20 95.5l-2 125h-563l-229 -272l225 20l-51 -143h-539l43 102l98 21q16 3 31 9.5t26.5 12t27 18t23.5 19.5t24 24.5t21.5 24t24 28.5t23.5 28l191 225l2 6h4l592 701q-56 126 -256 194l16 41h600l19 -1331l223 20l-51 -143h-740z
M578 518h458l-6 535z" />
    <glyph glyph-name="uni0411" unicode="&#x411;" horiz-adv-x="1507" 
d="M-29 0l37 102l70 19q48 13 77 41t40 84l231 1085l-178 -20l51 143h864q164 0 299 41l-61 -479h-92q-9 42 -14.5 66t-15 59t-17.5 55t-20 45t-26 39t-31.5 27t-40 18.5t-48.5 5.5h-181q-131 0 -157 -123l-74 -346h147q278 0 435 -91t157 -251q0 -110 -54 -208
t-143.5 -165.5t-207.5 -107t-244 -39.5h-803zM528 123h117q92 0 167.5 34.5t123 91.5t73 127t25.5 144q0 103 -57.5 161t-161.5 58h-158z" />
    <glyph glyph-name="uni0412" unicode="&#x412;" horiz-adv-x="1529" 
d="M-29 0l39 102l68 19q54 15 81 45t38 84l231 1081l-180 -20l51 143h735q214 0 336.5 -76t122.5 -202q0 -105 -59.5 -194t-158 -143.5t-216.5 -68.5q180 -17 280.5 -93t100.5 -194q0 -93 -56.5 -183t-147 -155t-207.5 -105t-234 -40h-824zM528 123h138q100 0 174 28t113 68
t62.5 95t29.5 95.5t6 84.5q0 93 -56.5 145.5t-169.5 52.5h-176zM674 805h168q60 0 109.5 24.5t80 62.5t51 86.5t29 93t8.5 85.5q0 174 -188 174h-148z" />
    <glyph glyph-name="uni0413" unicode="&#x413;" horiz-adv-x="1359" 
d="M-29 0l41 102l64 19q66 20 99 54.5t44 88.5l227 1067l-198 -20l51 143h864q164 0 299 41l-61 -479h-92q-10 47 -16 74.5t-17 65.5t-21 59.5t-26 46.5t-34 38t-43.5 22t-55.5 9h-135q-90 0 -129.5 -32t-57.5 -111l-225 -1065l199 20l-52 -143h-725z" />
    <glyph glyph-name="uni0414" unicode="&#x414;" horiz-adv-x="1619" 
d="M-154 -471q15 396 70 614l152 -8q102 55 192.5 158t156 228.5t111.5 252.5t74 254l64 303l-283 -8l57 131h1282l-45 -111l-71 -6q-50 -4 -76 -38.5t-39 -98.5l-227 -1077l270 20q-35 -174 -85 -322t-134 -292h-94q64 238 44.5 354.5t-114.5 116.5h-944q-31 0 -56.5 -12
t-48.5 -40.5t-42 -63.5t-40 -93t-39 -116.5t-42 -145.5h-93zM283 123h510q61 0 95 40t46 101l227 1067h-375l-59 -278q-58 -268 -174.5 -521.5t-269.5 -408.5z" />
    <glyph glyph-name="uni0415" unicode="&#x415;" horiz-adv-x="1495" 
d="M-29 0l43 102l64 19q121 34 141 133l230 1077l-201 -20l51 143h877q132 0 286 62l-32 -541h-93q-41 177 -108 266.5t-180 89.5h-244l-113 -528h129q70 0 128 52t112 181h92l-123 -577h-92q0 130 -35.5 180.5t-105.5 50.5h-127l-121 -567h313q118 0 239 117t224 301h92
l-229 -602q-122 61 -273 61h-944z" />
    <glyph glyph-name="uni0416" unicode="&#x416;" horiz-adv-x="2537" 
d="M774 0l41 102l64 19q55 15 93 53t48 90l227 1067l-200 -20l51 143h708l-43 -102l-65 -21q-100 -30 -123 -143l-225 -1065l180 20l-51 -143h-705zM-96 20q158 66 249 124.5t199 174.5l467 504l-307 379q-51 65 -111 99.5t-174 50.5l43 102h619l-51 -143l-263 16l480 -610
l-4 -21l-379 -471q-113 -140 -282.5 -192.5t-483.5 -52.5zM1532 696l4 21l741 610l-270 -16l51 143h619l-43 -102q-36 -5 -65 -11t-55 -16.5t-41.5 -16.5t-39.5 -23t-33 -23.5t-36.5 -29.5t-36.5 -30l-498 -399l242 -484q59 -117 125 -175t196 -124l-18 -40
q-314 0 -462.5 52.5t-201.5 192.5z" />
    <glyph glyph-name="uni0417" unicode="&#x417;" horiz-adv-x="1380" 
d="M518 -20q-87 0 -178 15.5t-175 45t-137 82t-53 117.5q0 81 75.5 159t176.5 78q6 -20 19 -63t19 -61.5t18.5 -54t21 -51.5t24 -43t29.5 -39.5t35 -29.5t44 -24.5t52.5 -13t63.5 -5.5q141 0 245.5 113.5t104.5 265.5q0 107 -87 160t-286 53l-12 123q137 0 249.5 43
t182.5 130t70 204q0 81 -55.5 129.5t-153.5 48.5q-75 0 -142.5 -28.5t-126 -84t-102 -111t-94.5 -134.5h-92l125 397q239 74 469 74q268 0 411.5 -75.5t143.5 -203.5q0 -140 -117.5 -251.5t-298.5 -170.5q318 -45 318 -262q0 -118 -71 -220t-184.5 -169t-252.5 -105
t-279 -38z" />
    <glyph glyph-name="uni0418" unicode="&#x418;" horiz-adv-x="1908" 
d="M549 123v2l-27 -125h-551l41 102l64 19q66 20 99 54.5t44 88.5l227 1067l-198 -20l51 143h709l-43 -102l-68 -21q-101 -32 -123 -143l-168 -787l756 756q36 38 64 87.5t36 86.5l27 123h534l-43 -102l-67 -21q-101 -32 -123 -143l-225 -1065l198 20l-51 -143h-704l41 102
l63 19q100 28 123 143l162 758l-752 -754q-30 -28 -59.5 -70t-36.5 -75z" />
    <glyph glyph-name="uni0419" unicode="&#x419;" horiz-adv-x="1908" 
d="M549 123v2l-27 -125h-551l41 102l64 19q66 20 99 54.5t44 88.5l227 1067l-198 -20l51 143h709l-43 -102l-68 -21q-101 -32 -123 -143l-168 -787l756 756q36 38 64 87.5t36 86.5l27 123h534l-43 -102l-67 -21q-101 -32 -123 -143l-225 -1065l198 20l-51 -143h-704l41 102
l63 19q100 28 123 143l162 758l-752 -754q-30 -28 -59.5 -70t-36.5 -75zM895 1843q0 43 68 79.5t128 40t74 -16.5q17 -100 54.5 -141.5t97.5 -41.5q66 0 130 60.5t150 183.5q47 0 78 -18t13 -54q-15 -28 -32.5 -55.5t-64 -84t-95 -96.5t-123 -72t-152.5 -32
q-127 0 -226.5 77t-99.5 171z" />
    <glyph glyph-name="uni041A" unicode="&#x41a;" horiz-adv-x="1771" 
d="M1616 -20q-205 0 -334 25.5t-203.5 77t-124.5 142.5l-233 430l10 41l780 631l-262 -16l51 143h619l-41 -102q-119 -16 -188 -49.5t-150 -100.5l-512 -414l287 -469q72 -118 137 -178.5t184 -120.5zM-25 0l43 102l64 19q55 15 93 53t48 90l228 1067l-203 -20l51 143h709
l-41 -102l-66 -21q-101 -33 -123 -143l-227 -1065l180 20l-51 -143h-705z" />
    <glyph glyph-name="uni041B" unicode="&#x41b;" horiz-adv-x="1609" 
d="M143 -20q-34 0 -88 36t-94 93t-29 104q117 27 216.5 85t170.5 134t127.5 174.5t92 198t59.5 211.5l68 315l-281 -8l57 131h1282l-45 -111l-71 -6q-50 -4 -76 -38.5t-39 -98.5l-227 -1077l198 20l-51 -143h-725l47 123h60q61 0 95 40t46 101l227 1067h-375l-61 -291
q-35 -161 -88 -316.5t-125 -302.5t-168 -264t-203 -177z" />
    <glyph glyph-name="uni041C" unicode="&#x41c;" horiz-adv-x="2150" 
d="M2 0l43 102l84 21q91 22 115 115l254 983q-34 49 -88.5 92.5t-137.5 99.5l19 41h571l262 -911l600 911h562l-33 -61l-47 -21q-81 -36 -119.5 -75.5t-48.5 -100.5l-191 -1073l199 20l-51 -143h-711l43 102l64 19q102 28 122 143l160 897l-766 -1181h-41l2 6l-4 -6
l-293 1052l-227 -909l227 20l-51 -143h-518z" />
    <glyph glyph-name="uni041D" unicode="&#x41d;" horiz-adv-x="1888" 
d="M987 0l43 102l64 19q100 28 123 143l86 410h-637l-117 -551l199 20l-52 -143h-725l43 102l64 19q122 37 143 143l225 1067l-198 -20l51 143h709l-43 -102l-68 -21q-101 -32 -123 -143l-82 -391h637l113 534l-199 -20l51 143h709l-43 -102l-68 -21q-101 -32 -123 -143
l-225 -1065l199 20l-51 -143h-705z" />
    <glyph glyph-name="uni041E" unicode="&#x41e;" horiz-adv-x="1763" 
d="M774 -20q-195 0 -350 81.5t-239.5 220t-84.5 306.5q0 171 81 334t215 284.5t317.5 195t378.5 73.5q147 0 273 -48t213.5 -130t137 -193.5t49.5 -237.5q0 -171 -80.5 -333.5t-213.5 -283.5t-317 -195t-380 -74zM504 627q0 -142 44.5 -259.5t125 -186t180.5 -68.5
q95 0 178.5 43.5t142.5 116.5t102 166t64 192.5t21 195.5q0 142 -44.5 259.5t-125 186t-180.5 68.5q-95 0 -178.5 -43.5t-142.5 -116.5t-102 -166t-64 -192.5t-21 -195.5z" />
    <glyph glyph-name="uni041F" unicode="&#x41f;" horiz-adv-x="1847" 
d="M-29 0l41 102l64 19q66 20 99 54.5t44 88.5l227 1067l-198 -20l51 143h1663l-43 -102l-68 -21q-100 -32 -122 -143l-226 -1065l199 20l-51 -143h-705l41 102l64 19q100 28 123 143l227 1067h-440q-91 0 -130 -32t-57 -111l-225 -1065l199 20l-52 -143h-725z" />
    <glyph glyph-name="uni0420" unicode="&#x420;" horiz-adv-x="1480" 
d="M-29 0l39 102l90 29q53 17 82.5 54t38.5 79l228 1067l-201 -20l51 143h705q287 0 438 -85t151 -259q0 -120 -61.5 -220.5t-162.5 -166t-228 -101.5t-262 -36h-232l-98 -463l219 20l-51 -143h-746zM672 698h137q89 0 164 31.5t123.5 83.5t75 116.5t26.5 131.5
q0 122 -66 196t-190 74h-137z" />
    <glyph glyph-name="uni0421" unicode="&#x421;" horiz-adv-x="1552" 
d="M793 -20q-206 0 -363.5 70t-245.5 202t-88 307q0 151 53.5 292t148.5 253t220.5 196t276 129.5t307.5 45.5q268 0 502 -107l-70 -426h-92q-31 201 -120 300t-275 99q-95 0 -177.5 -35.5t-142 -96.5t-106.5 -139.5t-75 -169t-42.5 -181t-14.5 -178.5q0 -206 87 -317
t253 -111q116 0 211 44.5t174.5 128.5t171.5 226h93l-183 -471q-226 -61 -503 -61z" />
    <glyph glyph-name="uni0422" unicode="&#x422;" horiz-adv-x="1486" 
d="M262 0l43 102l90 31q118 41 146 172l217 1026h-131q-102 0 -180 -80t-160 -235h-92l143 479q124 -41 272 -41h707q149 0 293 41l-62 -479h-92q-27 158 -51 212q-41 95 -136 102q-8 1 -18 1h-135l-256 -1208l240 20l-51 -143h-787z" />
    <glyph glyph-name="uni0423" unicode="&#x423;" horiz-adv-x="1499" 
d="M205 -20q-45 0 -71.5 29t-33.5 74t-5.5 87t9.5 80q38 0 108.5 -2.5t104 -1.5t82.5 7.5t87 25t75 49.5q112 92 68 223l-258 780l-162 -10l49 133h774l-43 -102l-102 -11q-70 -6 -97.5 -43t-5.5 -98l144 -414l426 545l-189 -10l49 133h506l-43 -102l-86 -9
q-40 -3 -79 -32.5t-97 -102.5l-596 -753q-212 -267 -348 -371t-266 -104z" />
    <glyph glyph-name="uni0424" unicode="&#x424;" horiz-adv-x="1835" 
d="M416 0l41 102l104 19q97 17 121 135q-258 34 -412.5 152t-154.5 280q0 92 44.5 175t120 147t176 115t212 83.5t227.5 48.5l29 136l-219 -21l51 144h770l-43 -103l-109 -20q-92 -19 -119 -131q266 -31 425 -149.5t159 -283.5q0 -94 -45.5 -178.5t-123 -149t-180 -116
t-216 -84t-232.5 -47.5l-28 -131l239 20l-51 -143h-786zM487 684q0 -108 58 -192t162 -125l165 784q-169 -53 -277 -178.5t-108 -288.5zM1063 358q177 49 291 177.5t114 295.5q0 115 -62 200.5t-175 123.5z" />
    <glyph glyph-name="uni0425" unicode="&#x425;" horiz-adv-x="1724" 
d="M698 0l43 102l117 21q64 11 89.5 42t2.5 75l-162 311l-419 -438l233 30l-51 -143h-619l43 102l140 21q50 7 110.5 44t108.5 87l393 412l-346 665l-174 -20l51 143h862l-41 -102l-96 -21q-74 -17 -100 -48t-6 -69l170 -329l438 446l-232 -20l52 143h577l-41 -102l-106 -21
q-50 -10 -95 -36t-102 -85l-432 -442l332 -645l182 20l-51 -143h-871z" />
    <glyph glyph-name="uni0426" unicode="&#x426;" horiz-adv-x="1880" 
d="M1462 -471q131 471 -59 471h-1454l51 143l190 -20l256 1208l-198 -20l51 143h705l-43 -102l-64 -19q-96 -27 -123 -143l-225 -1067h440q91 0 130.5 32t54.5 111l227 1065l-199 -20l51 143h725l-43 -102l-63 -19q-65 -20 -97.5 -54t-45.5 -89l-226 -1067l271 20
q-72 -360 -220 -614h-92z" />
    <glyph glyph-name="uni0427" unicode="&#x427;" horiz-adv-x="1804" 
d="M694 528q-77 0 -138 15.5t-100 44t-64.5 65t-35 80.5t-9 89t10.5 93l88 416l-198 -20l51 143h696l-43 -102l-55 -21q-102 -37 -123 -143l-41 -191q-17 -80 -19 -136.5t32.5 -87t111.5 -30.5q192 0 391 76l109 512l-178 -20l51 143h688l-43 -102l-68 -21
q-100 -32 -122 -143l-226 -1065l199 20l-51 -143h-705l41 102l64 19q99 27 122 143l95 438q-105 -75 -243 -124.5t-288 -49.5z" />
    <glyph glyph-name="uni0428" unicode="&#x428;" horiz-adv-x="2572" 
d="M-51 0l51 143l190 -20l256 1208l-198 -20l51 143h705l-43 -102l-64 -19q-96 -27 -123 -143l-225 -1067h325q91 0 130.5 32t54.5 111l227 1065l-199 -20l52 143h725l-43 -102l-64 -19q-65 -20 -97.5 -54t-45.5 -89l-225 -1067h325q91 0 129.5 32t54.5 111l228 1065
l-199 -20l51 143h725l-43 -102l-63 -19q-65 -20 -97.5 -54t-45.5 -89l-226 -1067l199 20l-51 -143h-2427z" />
    <glyph glyph-name="uni0429" unicode="&#x429;" horiz-adv-x="2572" 
d="M-51 0l51 143l190 -20l256 1208l-198 -20l51 143h705l-43 -102l-64 -19q-96 -27 -123 -143l-225 -1067h325q91 0 130.5 32t54.5 111l227 1065l-199 -20l52 143h725l-43 -102l-64 -19q-65 -20 -97.5 -54t-45.5 -89l-225 -1067h325q91 0 129.5 32t54.5 111l228 1065
l-199 -20l51 143h725l-43 -102l-63 -19q-65 -20 -97.5 -54t-45.5 -89l-224 -1061l332 31q-70 -373 -221 -631h-92q64 238 46 354.5t-112 116.5h-2234z" />
    <glyph glyph-name="uni042A" unicode="&#x42a;" horiz-adv-x="1847" 
d="M299 0l41 102l63 19q66 20 99.5 54.5t44.5 88.5l227 1067h-139q-42 0 -81 -17t-69 -40.5t-68 -70.5t-62.5 -83.5t-67.5 -103.5h-92l143 479q119 -41 283 -41h714l-43 -102l-67 -21q-101 -32 -123 -143l-70 -326h137q278 0 435 -91t157 -251q0 -110 -54 -208
t-143.5 -165.5t-207.5 -107t-244 -39.5h-813zM877 123h106q92 0 167.5 34.5t123 91.5t73 127t25.5 144q0 103 -57.5 161t-161.5 58h-145z" />
    <glyph glyph-name="uni042B" unicode="&#x42b;" horiz-adv-x="2281" 
d="M-29 0l41 102l64 19q66 20 99 54.5t44 88.5l227 1067l-198 -20l51 143h709l-43 -102l-68 -21q-101 -32 -123 -143l-69 -326h126q287 0 439.5 -89t152.5 -249q0 -147 -89.5 -268t-238 -188.5t-321.5 -67.5h-803zM549 123h96q92 0 167.5 34.5t123 91.5t73 127t25.5 144
q0 103 -57.5 161t-161.5 58h-135zM1360 0l43 102l63 19q67 20 100 54t44 89l227 1067l-201 -20l52 143h710l-41 -102l-69 -21q-99 -28 -123 -143l-228 -1065l199 20l-51 -143h-725z" />
    <glyph glyph-name="uni042C" unicode="&#x42c;" horiz-adv-x="1540" 
d="M-29 0l41 102l64 19q66 20 99 54.5t44 88.5l227 1067l-198 -20l51 143h709l-43 -102l-68 -21q-101 -32 -123 -143l-69 -326h157q278 0 435 -91t157 -251q0 -110 -54 -208t-143.5 -165.5t-207.5 -107t-244 -39.5h-834zM549 123h127q92 0 167.5 34.5t123 91.5t73 127
t25.5 144q0 103 -57.5 161t-161.5 58h-166z" />
    <glyph glyph-name="uni042D" unicode="&#x42d;" horiz-adv-x="1511" 
d="M551 -20q-72 0 -147.5 8t-155 27.5t-141 49t-101 76.5t-39.5 105q0 91 72 158t178 71q24 -81 55.5 -143t75.5 -113t105.5 -78.5t136.5 -27.5q81 0 154 33t127 87t99.5 128.5t76 152t51.5 162.5h-258q-71 0 -129 -49.5t-111 -177.5h-92l121 567h92q-1 -128 35.5 -178
t107.5 -50h258q15 92 15 168q0 183 -79 284t-214 101q-93 0 -176 -29t-154 -84t-131 -124.5t-119 -161.5h-92l111 426q276 107 591 107q293 0 468.5 -156t175.5 -420q0 -186 -79 -356.5t-210 -293.5t-309 -196t-369 -73z" />
    <glyph glyph-name="uni042E" unicode="&#x42e;" horiz-adv-x="2353" 
d="M1432 -20q-175 0 -315 71t-220 202t-80 300q0 64 8 113h-159l-117 -543l199 20l-52 -143h-725l43 102l64 19q67 20 99.5 54t43.5 89l228 1067l-201 -20l51 143h711l-41 -102l-70 -21q-99 -28 -123 -143l-86 -400h164q58 185 190 341t319 251t386 95q175 0 314.5 -71
t219.5 -201.5t80 -297.5q0 -171 -76.5 -339.5t-201.5 -297t-298 -208.5t-355 -80zM1221 569q0 -210 84.5 -333t234.5 -123q68 0 129.5 39t106.5 104t81 146t58 168t33.5 166.5t11.5 144.5q0 212 -85.5 336t-236.5 124q-80 0 -150.5 -55.5t-118 -142t-82 -192t-50.5 -204
t-16 -178.5z" />
    <glyph glyph-name="uni042F" unicode="&#x42f;" horiz-adv-x="1746" 
d="M846 0l41 102l63 19q100 28 123 143l227 1067h-145q-157 0 -253.5 -103.5t-96.5 -258.5q0 -209 313 -209l-4 -21l-412 -514q-113 -142 -281.5 -193.5t-483.5 -51.5l-3 40q161 68 253 126t196 173l350 386q-63 7 -116.5 24.5t-99.5 48t-72.5 80.5t-26.5 115q0 99 42 181
t113 136.5t168 92t203 54.5t221 17h697l-43 -102l-68 -21q-101 -32 -123 -143l-225 -1065l199 20l-52 -143h-704z" />
    <glyph glyph-name="uni0430" unicode="&#x430;" horiz-adv-x="1187" 
d="M242 -20q-108 0 -160.5 84.5t-52.5 224.5q0 160 46 302.5t127.5 247t199.5 165.5t255 61q81 0 224 -104l206 208h62l-203 -825q-4 -14 -5.5 -23.5t-1 -22t5.5 -19.5t16.5 -12t29.5 -5q50 0 158 43l-10 -123q-88 -78 -214.5 -140t-213.5 -62q-54 0 -80 31t-17 85l39 244
h-28q-86 -168 -185 -264t-198 -96zM362 307q0 -23 7.5 -37t17.5 -14q25 0 66 35t88 98t96 169t82 230q-116 95 -180 95q-38 0 -81.5 -128.5t-69.5 -264t-26 -183.5z" />
    <glyph glyph-name="uni0431" unicode="&#x431;" horiz-adv-x="1073" 
d="M625 1415q83 18 164 41.5t129 34.5q89 20 133 96h98q0 -336 -262 -432q-94 -35 -260 -47q-97 -8 -192.5 -97t-145.5 -237q73 98 160.5 142.5t173.5 44.5q182 0 286.5 -99t104.5 -268q0 -122 -45 -235.5t-119.5 -195.5t-175.5 -131.5t-209 -49.5q-77 0 -140.5 26.5
t-105.5 70t-71 102.5t-41.5 122.5t-12.5 130.5q0 158 31.5 305.5t85 261t122 202.5t143.5 142.5t149 69.5zM406 555q0 -77 28 -168t76 -157t96 -66q43 0 69.5 70t26.5 143q0 98 -30 187t-75.5 140.5t-92.5 51.5q-39 0 -68.5 -60t-29.5 -141z" />
    <glyph glyph-name="uni0432" unicode="&#x432;" horiz-adv-x="1073" 
d="M33 342q0 126 64 257.5t165 233.5t235 167t265 65q102 0 161.5 -52.5t59.5 -119.5q0 -156 -260 -320q118 -36 182 -96t64 -127q0 -81 -36.5 -146t-93.5 -106t-130.5 -68.5t-143 -38.5t-135.5 -11q-105 0 -195 43.5t-146 127.5t-56 191zM389 403q3 -48 14 -91.5t30 -84.5
t52.5 -65.5t75.5 -24.5q84 0 84 176q0 105 -74 174q-96 -48 -182 -84zM399 528q117 73 185.5 144.5t68.5 148.5q0 34 -21 56t-48 22q-30 0 -60 -37t-54 -95t-42 -119.5t-29 -119.5z" />
    <glyph glyph-name="uni0433" unicode="&#x433;" horiz-adv-x="897" 
d="M219 -20q-105 0 -176.5 48t-71.5 126q0 87 61.5 156t198.5 163l111 76q51 34 81 69t30 80q0 59 -35 90t-84 31q-47 0 -107.5 -33t-117.5 -90l-25 123q86 114 209 180t248 66q134 0 211 -57.5t77 -157.5q0 -34 -13.5 -67t-34.5 -60t-60.5 -61t-75.5 -60t-96 -67l-57 -39
q-66 -45 -105 -90.5t-39 -79.5q0 -46 22.5 -73.5t61.5 -27.5q58 0 124 33t185 111l25 -123q-142 -126 -284 -196t-263 -70z" />
    <glyph glyph-name="uni0434" unicode="&#x434;" horiz-adv-x="989" 
d="M33 352q0 93 28 193.5t80.5 192t120.5 165t155 117t177 43.5q16 0 24 -2q-28 177 -109.5 270.5t-244.5 93.5q-72 0 -139 -34l-25 122q102 64 236 64q125 0 233.5 -49.5t183 -130t128.5 -183t79 -208.5t25 -207q0 -223 -88.5 -411.5t-238 -297t-324.5 -108.5
q-149 0 -225 100.5t-76 269.5zM352 678q0 -100 24.5 -213.5t68.5 -197t92 -83.5q49 0 77.5 101.5t28.5 296.5q0 117 -2 174q-150 102 -207 102q-48 0 -65 -41t-17 -139z" />
    <glyph glyph-name="uni0435" unicode="&#x435;" 
d="M43 342q0 126 64 257.5t165 233.5t235 167t265 65q102 0 161.5 -52.5t59.5 -119.5q0 -44 -21.5 -87.5t-55 -79t-84.5 -72.5t-99.5 -64.5t-111.5 -58t-109 -50t-103 -43.5q-7 -3 -10 -4q0 -188 152 -188q75 0 165.5 47.5t176.5 132.5l25 -123q-85 -147 -220 -235t-299 -88
q-158 0 -257 99t-99 263zM418 563q108 65 166.5 125t58.5 133q0 78 -49 78q-53 0 -100.5 -103t-75.5 -233z" />
    <glyph glyph-name="uni0436" unicode="&#x436;" horiz-adv-x="1931" 
d="M946 1024l297 41l-82 -334q53 77 112.5 136t118 94t109 57.5t105 32t86.5 12t71 2.5q74 0 136.5 -23t62.5 -65q0 -75 -34.5 -139t-76.5 -64q-12 0 -33 17.5t-42 39t-54 39t-67 17.5q-43 0 -81 -46t-61.5 -111t-37 -129.5t-13.5 -108.5q0 -131 28.5 -188.5t86.5 -57.5
q54 0 121 27.5t112 70.5l25 -123q-57 -111 -151.5 -176t-198.5 -65q-86 0 -149 28t-97 76.5t-49.5 103.5t-15.5 119q0 216 155 447q-96 -110 -173.5 -249t-137.5 -355l-33 -130l-307 -40l82 317q-53 -73 -112 -129t-116 -89t-107 -54.5t-103 -30.5t-84.5 -11.5t-69.5 -2.5
q-74 0 -136.5 23t-62.5 65q0 74 34.5 138t76.5 64q15 0 43.5 -28t69 -56t83.5 -28t81 46t61.5 111t37 129.5t13.5 108.5q0 131 -28.5 188.5t-86.5 57.5q-54 0 -121 -28t-112 -71l-25 123q57 111 151.5 176.5t198.5 65.5q70 0 124.5 -19t89 -50t57.5 -74.5t32 -88.5t9 -96
q0 -213 -156 -446q93 107 167 236t134 329z" />
    <glyph glyph-name="uni0437" unicode="&#x437;" horiz-adv-x="1032" 
d="M330 -20q-162 0 -266.5 37.5t-104.5 97.5q0 90 37 133t94 43q23 0 45.5 -19.5t44.5 -47.5t47 -55.5t63 -47t83 -19.5q69 0 126.5 63t57.5 146q0 65 -43.5 106.5t-128.5 41.5q-28 0 -63 -2l-9 104q91 16 164.5 45.5t120.5 74.5t47 97t-45.5 77.5t-114.5 25.5
q-151 0 -299 -99l-24 123q86 67 211 113.5t231 46.5q185 0 288 -69t103 -171q0 -97 -109 -170t-280 -90q165 -18 242.5 -80.5t77.5 -152.5q0 -92 -55.5 -163t-145.5 -110.5t-190.5 -59t-204.5 -19.5z" />
    <glyph glyph-name="uni0438" unicode="&#x438;" horiz-adv-x="1359" 
d="M279 -20q-115 0 -183 67t-28 150q111 225 178 503q10 40 -2 61t-41 21q-50 0 -158 -43l10 123q86 76 221.5 139.5t223.5 63.5q95 0 126 -59.5t3 -169.5q-55 -221 -170 -543q-13 -37 28 -37q62 0 154 128.5t171 306t120 333.5l344 41l-174 -721q-12 -51 -0.5 -66.5
t43.5 -15.5q28 0 89 13t105 30l-10 -123q-86 -76 -221 -139t-223 -63q-199 0 -111 284l68 213h-21q-108 -209 -257.5 -353t-284.5 -144z" />
    <glyph glyph-name="uni0439" unicode="&#x439;" horiz-adv-x="1359" 
d="M279 -20q-115 0 -183 67t-28 150q111 225 178 503q10 40 -2 61t-41 21q-50 0 -158 -43l10 123q86 76 221.5 139.5t223.5 63.5q95 0 126 -59.5t3 -169.5q-55 -221 -170 -543q-13 -37 28 -37q62 0 154 128.5t171 306t120 333.5l344 41l-174 -721q-12 -51 -0.5 -66.5
t43.5 -15.5q28 0 89 13t105 30l-10 -123q-86 -76 -221 -139t-223 -63q-199 0 -111 284l68 213h-21q-108 -209 -257.5 -353t-284.5 -144zM449 1434q0 43 68 79.5t128 39.5t74 -17q17 -100 54 -141t97 -41q67 0 131.5 60.5t149.5 182.5q47 0 77.5 -17.5t12.5 -53.5
q-15 -28 -32.5 -55.5t-64 -84t-95 -96.5t-123 -72t-152.5 -32q-126 0 -225.5 76.5t-99.5 171.5z" />
    <glyph glyph-name="uni043A" unicode="&#x43a;" horiz-adv-x="1361" 
d="M45 860q89 75 252 140t297 65q50 0 64.5 -18.5t-1.5 -79.5l-239 -947l-344 -40l166 649q18 67 -23.5 96t-150.5 12zM600 483v21q95 153 204 276.5t232.5 204t229.5 80.5q28 0 47.5 -14t19.5 -39q0 -34 -10 -91t-38.5 -118.5t-67.5 -69.5q-89 -19 -200.5 -57t-195.5 -78
l109 -195q27 -48 72 -75t94 -27q39 0 73.5 9t98.5 36l10 -123q-103 -109 -204 -176t-173 -67q-77 0 -124 58t-87 177z" />
    <glyph glyph-name="uni043B" unicode="&#x43b;" horiz-adv-x="1271" 
d="M1010 344q-12 -52 -1 -67t44 -15q49 0 157 43l-10 -123q-86 -76 -221 -139t-223 -63q-97 0 -123 66.5t12 217.5l139 541q5 21 5.5 36.5t-1 26t-11.5 17.5t-17 10.5t-27 5.5t-31.5 2h-39.5h-17q-78 0 -119 -2l-155 -604q-36 -143 -99 -230t-137 -87q-89 0 -132.5 89.5
t-30.5 179t59 89.5q35 0 57.5 1t52.5 5.5t50.5 14t42 25.5t36 41.5t23.5 59.5l106 412q-188 -14 -192 -14v129q164 14 479.5 33.5t386.5 19.5q25 0 41.5 -9t28 -31t10 -65t-17.5 -106z" />
    <glyph glyph-name="uni043C" unicode="&#x43c;" horiz-adv-x="1413" 
d="M1284 344q-12 -51 -0.5 -66.5t43.5 -15.5q50 0 158 43l-10 -123q-86 -76 -221.5 -139t-223.5 -63q-97 0 -123 66.5t13 217.5l120 451l-477 -735h-20l-88 765l-107 -448q-33 -142 -95.5 -231t-137.5 -89q-89 0 -132.5 89.5t-31 179.5t58.5 90q34 0 58 1.5t53.5 6t51 15
t42 26t35 41t22.5 59.5l103 428q-46 -6 -203 -22v129q73 14 258.5 29.5t243.5 15.5q74 0 84 -96l37 -412l288 467l375 41z" />
    <glyph glyph-name="uni043D" unicode="&#x43d;" horiz-adv-x="1402" 
d="M25 860q89 75 251.5 140t296.5 65q50 0 65 -18.5t-1 -79.5l-90 -355h319l105 412l344 41l-174 -721q-12 -51 -0.5 -66.5t43.5 -15.5q49 0 157 43l-10 -123q-86 -76 -221 -139t-223 -63q-97 0 -123 66.5t12 217.5l58 225h-318l-119 -469l-344 -40l166 649q18 67 -23.5 96
t-150.5 12z" />
    <glyph glyph-name="uni043E" unicode="&#x43e;" horiz-adv-x="1060" 
d="M377 -18q-152 0 -241 102.5t-89 267.5q0 93 31.5 194t90 192.5t135 165t174.5 117.5t200 44q150 0 240 -109t90 -280q0 -124 -49.5 -248.5t-132.5 -223t-202 -160.5t-247 -62zM387 678q0 -99 26.5 -213.5t72.5 -197.5t94 -83q22 0 39.5 21t27 52.5t14.5 62.5t5 57
q0 101 -27 213.5t-72 191t-90 78.5q-90 0 -90 -182z" />
    <glyph glyph-name="uni043F" unicode="&#x43f;" horiz-adv-x="1421" 
d="M63 860q89 75 252 140t297 65q33 0 49.5 -6.5t23.5 -28.5t-9 -63l-133 -428h20q55 108 113.5 198t125.5 166t140 119t143 43q117 0 186 -67.5t38 -168.5l-150 -485q-6 -28 -8 -44t7 -24.5t18.5 -11t25.5 -2.5q50 0 158 43l-10 -123q-86 -76 -221.5 -139t-223.5 -63
q-98 0 -125.5 67.5t15.5 216.5l143 471q12 51 7.5 61.5t-25.5 10.5q-45 0 -141.5 -131t-192 -320t-133.5 -336l-344 -40l147 649q16 68 -24 96.5t-148 11.5z" />
    <glyph glyph-name="uni0440" unicode="&#x440;" horiz-adv-x="1210" 
d="M-139 -387q78 20 120.5 61.5t57.5 108.5l203 846q16 68 -24 96.5t-148 11.5l-21 123q92 77 244 141t285 64q26 0 41 -3.5t26 -13t10 -30t-14 -51.5l-113 -277h21v-2q82 177 179.5 277t197.5 100q122 0 181.5 -93t59.5 -243q0 -153 -47 -290t-129.5 -238.5t-202.5 -161
t-258 -59.5q-30 0 -98 10l-82 -357l322 50l-27 -154l-801 -18zM496 256q58 -43 115 -68.5t89 -25.5q44 0 87.5 184.5t43.5 263.5q0 178 -53 178q-25 0 -58.5 -32t-72 -93t-79 -167.5t-72.5 -239.5z" />
    <glyph glyph-name="uni0441" unicode="&#x441;" 
d="M444 -20q-177 0 -285 110t-108 279q0 118 53 241.5t141 224.5t215 165.5t263 64.5q50 0 116.5 -8.5t125.5 -30t59 -49.5q0 -73 -44 -148t-87 -75q-15 0 -59 28t-100 56t-99 28q-57 0 -104 -43t-74 -108.5t-41.5 -134.5t-14.5 -129q0 -97 40.5 -151t115.5 -54
q72 0 148 45.5t167 134.5l25 -123q-75 -150 -198.5 -236.5t-254.5 -86.5z" />
    <glyph glyph-name="uni0442" unicode="&#x442;" horiz-adv-x="1968" 
d="M63 860q89 75 253 140t298 65q33 0 49.5 -6.5t23.5 -28.5t-9 -63l-129 -414h20q53 105 109.5 193.5t118 162t127 115t125.5 41.5q112 0 157.5 -64.5t12.5 -171.5l-80 -262h18q52 104 105.5 189.5t113 157t122.5 111.5t122 40q81 0 141.5 -29.5t86.5 -84t5 -122.5
l-149 -485q-16 -50 -2.5 -66t47.5 -16q50 0 158 43l-11 -123q-90 -80 -217 -141t-227 -61q-98 0 -125.5 68t14.5 216l138 471q12 33 9 49t-8.5 19.5t-19.5 3.5q-44 0 -129.5 -132t-168.5 -318.5t-122 -336.5l-346 -40l213 755q11 51 6.5 61.5t-24.5 10.5
q-44 0 -133.5 -131.5t-176.5 -319t-126 -336.5l-344 -40l147 649q16 68 -24 96.5t-148 11.5z" />
    <glyph glyph-name="uni0443" unicode="&#x443;" horiz-adv-x="1210" 
d="M-199 -324q18 -2 62 -2q76 0 150.5 11.5t148 36t132.5 69.5t89 105q55 110 55 264q0 138 -41.5 286.5t-100.5 243t-108 94.5q-69 0 -147 -45l-12 123q87 70 209.5 136.5t197.5 66.5q76 0 140 -90t100.5 -239.5t36.5 -319.5q0 -19 -2.5 -83t-3.5 -97q79 153 134.5 352
t55.5 395q0 37 25.5 59.5t64.5 22.5q61 0 153.5 -38t92.5 -77q0 -101 -75 -256.5t-215.5 -353.5t-297.5 -394t-364 -435q-108 0 -247 17t-233 46v102z" />
    <glyph glyph-name="uni0444" unicode="&#x444;" horiz-adv-x="1556" 
d="M-39 -492q-48 0 -67 21t-19 61q0 58 47 126.5t90 68.5q37 0 167 -52t179 -52t90 85t70 234l68 344q-163 -364 -348 -364q-106 0 -149.5 81t-43.5 224q0 119 26 233t78.5 213t124.5 173.5t170 117.5t209 43q27 0 74 -21q76 264 289 398.5t606 134.5q50 0 72.5 -23
t13.5 -59q-18 -68 -57.5 -131.5t-79.5 -63.5q-37 0 -167 52.5t-179 52.5t-105.5 -116.5t-85.5 -264.5l-63 -324q163 365 348 365q106 0 149 -81t43 -224q0 -119 -26 -233t-78.5 -213t-124.5 -173.5t-170 -117.5t-209 -43q-31 0 -76 20q-79 -264 -282 -378t-584 -114z
M338 305q0 -21 13 -35t24 -14q55 0 143.5 142.5t153.5 381.5l2 8q-62 51 -97 73t-63 22q-40 0 -83.5 -128t-68 -263t-24.5 -187zM883 256q62 -51 96.5 -72.5t62.5 -21.5q40 0 83.5 128t68.5 262.5t25 186.5q0 21 -13 35t-24 14q-55 0 -143.5 -142t-153.5 -380z" />
    <glyph glyph-name="uni0445" unicode="&#x445;" horiz-adv-x="1157" 
d="M702 -20q-68 0 -120.5 44.5t-75.5 129.5l-53 208l-99 -256q-48 -126 -245 -126q-83 0 -134 38q-53 40 -9 88l16 15l442 348l-51 199q-14 55 -42 85.5t-67 30.5q-22 0 -78 -18.5t-104 -46.5l-10 123q65 77 175.5 139.5t196.5 62.5q69 0 121.5 -44.5t75.5 -129.5l66 -256
l122 324q48 127 246 127q56 0 101.5 -19t57.5 -50.5t-32 -71.5l-471 -398l43 -170q14 -55 42 -85.5t67 -30.5q22 0 78 18.5t104 46.5l10 -123q-64 -77 -175.5 -139.5t-197.5 -62.5z" />
    <glyph glyph-name="uni0446" unicode="&#x446;" horiz-adv-x="1359" 
d="M279 -20q-115 0 -183 67t-28 150q111 225 178 503q10 40 -2 61t-41 21q-50 0 -158 -43l10 123q86 76 221.5 139.5t223.5 63.5q95 0 126 -59.5t3 -169.5q-55 -221 -170 -543q-13 -37 28 -37q62 0 154 128.5t171 306t120 333.5l344 41l-174 -721q-12 -51 -0.5 -66.5
t43.5 -15.5q28 0 89 13t105 30l-10 -123q-94 -81 -242 -149q-56 -33 -84 -57t-28 -46q0 -14 15 -33t36.5 -37.5t42.5 -38t36 -41.5t15 -42q0 -35 -36 -75.5t-87 -72.5t-94 -54.5t-69 -31.5l-78 52q34 18 74 55.5t40 66.5q0 22 -23.5 50.5t-51 51t-51 48t-23.5 43.5
q0 46 104 117q-125 38 -51 276l68 213h-21q-108 -209 -257.5 -353t-284.5 -144z" />
    <glyph glyph-name="uni0447" unicode="&#x447;" horiz-adv-x="1380" 
d="M373 260q-113 0 -177 66.5t-28 150.5q57 127 78 223q10 40 -2 61t-41 21q-50 0 -158 -43l10 123q86 76 221.5 139.5t223.5 63.5q93 0 124.5 -57.5t6.5 -163.5l-80 -271q-15 -54 -7.5 -78t40.5 -24q77 0 183.5 164.5t164.5 388.5l344 41l-195 -721q-14 -51 -2 -66.5
t45 -15.5q28 0 89.5 13t105.5 30l-10 -123q-86 -76 -221.5 -139t-223.5 -63q-100 0 -130.5 69.5t20.5 214.5l127 338h-21q-97 -186 -216 -264t-271 -78zM629 836l2 8q0 -2 -1 -4.5t-1 -3.5z" />
    <glyph glyph-name="uni0448" unicode="&#x448;" horiz-adv-x="1718" 
d="M227 -20q-113 0 -172 66.5t-18 150.5q111 225 178 503q10 40 -2 61t-41 21q-50 0 -158 -43l11 123q89 79 213.5 141t210.5 62q95 0 126 -59.5t3 -169.5q-59 -238 -172 -543q-13 -37 28 -37q36 0 107.5 110t150 293t127.5 365l344 41l-262 -772q-13 -37 29 -37
q39 0 111 110t149.5 292t126.5 366l344 41l-236 -721q-9 -27 -9.5 -44t8 -25t18.5 -10.5t26 -2.5q28 0 89.5 13t105.5 30l-10 -123q-90 -80 -201 -141t-182 -61q-99 0 -143 59.5t-7 157.5l107 280h-21q-16 -30 -43.5 -84.5t-42.5 -84t-40 -75.5t-42.5 -71.5t-42 -59
t-46.5 -52t-48.5 -37t-55 -26t-59.5 -7.5q-96 0 -142 64.5t-15 152.5l100 280h-20q-56 -108 -107 -189t-112 -155t-128 -113.5t-135 -39.5z" />
    <glyph glyph-name="uni0449" unicode="&#x449;" horiz-adv-x="1718" 
d="M227 -20q-113 0 -172 66.5t-18 150.5q111 225 178 503q10 40 -2 61t-41 21q-50 0 -158 -43l11 123q89 79 213.5 141t210.5 62q95 0 126 -59.5t3 -169.5q-59 -238 -172 -543q-13 -37 28 -37q36 0 107.5 110t150 293t127.5 365l344 41l-262 -772q-13 -37 29 -37
q39 0 111 110t149.5 292t126.5 366l344 41l-236 -721q-9 -27 -9.5 -44t8 -25t18.5 -10.5t26 -2.5q28 0 89.5 13t105.5 30l-10 -123q-97 -88 -228 -155q-51 -32 -76.5 -54.5t-25.5 -42.5q0 -14 15 -33t36.5 -37.5t42.5 -38t36 -41.5t15 -42q0 -35 -36 -75.5t-87 -72.5
t-94 -54.5t-69 -31.5l-78 52q35 18 75 55.5t40 66.5q0 28 -37.5 65t-75 71.5t-37.5 56.5q0 51 117 123q-57 24 -75.5 75.5t9.5 127.5l107 280h-21q-16 -30 -43.5 -84.5t-42.5 -84t-40 -75.5t-42.5 -71.5t-42 -59t-46.5 -52t-48.5 -37t-55 -26t-59.5 -7.5q-96 0 -142 64.5
t-15 152.5l100 280h-20q-56 -108 -107 -189t-112 -155t-128 -113.5t-135 -39.5z" />
    <glyph glyph-name="uni044A" unicode="&#x44a;" horiz-adv-x="1404" 
d="M373 70l219 841q-76 -7 -133 -25.5t-103 -52.5t-79 -70t-76 -95h-92l127 417q68 -18 155.5 -29.5t145.5 -11.5h426l-191 -530h21q61 95 145 159t176 64q58 0 100 -26t64 -70t31.5 -91t9.5 -99q0 -217 -141.5 -344t-372.5 -127q-72 0 -226 30t-206 60zM748 252
q46 -45 87.5 -63.5t67.5 -18.5q39 0 70 51.5t31 136.5q0 53 -18 78t-62 25q-54 0 -104 -58.5t-72 -150.5z" />
    <glyph glyph-name="uni044B" unicode="&#x44b;" horiz-adv-x="1724" 
d="M467 -20q-69 0 -203.5 29.5t-187.5 60.5l143 559q18 67 -23.5 96t-150.5 12l-20 123q89 75 251.5 140t296.5 65q34 0 50.5 -6.5t24 -28.5t-10.5 -63l-162 -432h19q52 88 123.5 145t158.5 57q58 0 100 -26t64 -70t31.5 -91t9.5 -99q0 -217 -141.5 -344t-372.5 -127z
M451 252q19 -45 53 -63.5t61 -18.5q39 0 70 51.5t31 136.5q0 53 -18 78t-62 25q-50 0 -80.5 -52.5t-54.5 -156.5zM967 901q122 57 286 110.5t289 53.5q33 0 49 -6.5t23.5 -28t-8.5 -63.5l-189 -623q-13 -41 0 -61.5t43 -20.5q27 0 85 12.5t102 30.5l-11 -123
q-83 -73 -238.5 -137.5t-246.5 -64.5q-97 0 -122.5 67.5t18.5 216.5l110 365q19 64 -28 107t-142 42z" />
    <glyph glyph-name="uni044C" unicode="&#x44c;" horiz-adv-x="1228" 
d="M629 -20q-72 0 -226 30t-206 60l143 559q18 67 -23.5 96t-150.5 12l-21 123q89 75 252 140t297 65q34 0 50.5 -6.5t24 -28.5t-10.5 -63l-162 -453h20q61 94 145.5 158.5t176.5 64.5q58 0 100 -26t64 -70t31.5 -91t9.5 -99q0 -217 -141.5 -344t-372.5 -127zM571 252
q46 -45 88 -63.5t68 -18.5q38 0 69 51.5t31 136.5q0 53 -17.5 78t-61.5 25q-55 0 -105 -59t-72 -150z" />
    <glyph glyph-name="uni044D" unicode="&#x44d;" horiz-adv-x="1021" 
d="M569 1065q95 0 171 -33t124 -89.5t73.5 -130t25.5 -157.5q0 -132 -52.5 -255.5t-141.5 -216t-214.5 -148t-263.5 -55.5q-91 0 -206.5 24t-115.5 64q0 73 44 148t87 75q12 0 46.5 -17.5t72 -39t88.5 -39t92 -17.5q169 0 207 252l-276 -24q-58 -5 -103 71q-33 56 -29 94
q2 16 13 15q63 -4 200.5 -18.5t206.5 -18.5v45q0 101 -43.5 173.5t-115.5 72.5q-61 0 -121 -28t-176 -112l-25 123q84 105 197.5 173.5t234.5 68.5z" />
    <glyph glyph-name="uni044E" unicode="&#x44e;" horiz-adv-x="1648" 
d="M965 -18q-152 0 -241 102.5t-89 267.5q0 87 33 199q-100 -130 -176 -275.5t-99 -255.5l-344 -40l148 649q16 68 -24 96.5t-148 11.5l-21 123q89 75 252 140t297 65q33 0 49 -6.5t23 -28.5t-9 -63l-143 -449h19q73 113 154.5 207t177.5 172.5t205.5 123t219.5 44.5h17
q150 0 239.5 -109t89.5 -280q0 -124 -49.5 -248.5t-132 -223t-201.5 -160.5t-247 -62zM975 678q0 -99 26 -213.5t72 -197.5t94 -83q22 0 39.5 21t27 52.5t14.5 62.5t5 57q0 101 -27 213.5t-71.5 191t-89.5 78.5q-90 0 -90 -182z" />
    <glyph glyph-name="uni044F" unicode="&#x44f;" horiz-adv-x="1232" 
d="M971 344q-12 -51 -0.5 -66.5t43.5 -15.5q49 0 157 43l-10 -123q-86 -76 -221 -139t-223 -63q-97 0 -123 66.5t12 217.5l154 598q-58 31 -121.5 51.5t-91.5 20.5q-44 0 -73.5 -65t-29.5 -156q0 -98 36 -150.5t104 -52.5h34l-12 -41q-28 -23 -72.5 -77.5t-78.5 -112.5
l-35 -60q-141 -239 -268 -239q-61 0 -94 87t-26.5 174t42.5 87q42 0 73 2t80.5 10.5t92 30t71.5 55.5q-121 23 -203 85t-82 161q0 100 70.5 192t180.5 146.5t223 54.5q89 0 276 -35l289 35z" />
    <glyph glyph-name="uni0450" unicode="&#x450;" 
d="M563 1229q-37 15 -69.5 34t-66.5 46.5t-54.5 64t-20.5 76.5q0 62 33.5 133.5t83.5 71.5q19 0 83.5 -97.5t147.5 -229t125 -181.5l-18 -21zM43 342q0 126 64 257.5t165 233.5t235 167t265 65q102 0 161.5 -52.5t59.5 -119.5q0 -44 -21.5 -87.5t-55 -79t-84.5 -72.5
t-99.5 -64.5t-111.5 -58t-109 -50t-103 -43.5q-7 -3 -10 -4q0 -188 152 -188q75 0 165.5 47.5t176.5 132.5l25 -123q-85 -147 -220 -235t-299 -88q-158 0 -257 99t-99 263zM418 563q108 65 166.5 125t58.5 133q0 78 -49 78q-53 0 -100.5 -103t-75.5 -233z" />
    <glyph glyph-name="uni0451" unicode="&#x451;" 
d="M895 1237q-56 0 -91.5 34.5t-35.5 86.5q0 73 61.5 129.5t135.5 56.5q52 0 85 -34t33 -85q0 -73 -58.5 -130.5t-129.5 -57.5zM43 342q0 126 64 257.5t165 233.5t235 167t265 65q102 0 161.5 -52.5t59.5 -119.5q0 -44 -21.5 -87.5t-55 -79t-84.5 -72.5t-99.5 -64.5
t-111.5 -58t-109 -50t-103 -43.5q-7 -3 -10 -4q0 -188 152 -188q75 0 165.5 47.5t176.5 132.5l25 -123q-85 -147 -220 -235t-299 -88q-158 0 -257 99t-99 263zM367 1358q0 73 61 129.5t135 56.5q52 0 85.5 -34t33.5 -85q0 -73 -58.5 -130.5t-129.5 -57.5q-56 0 -91.5 34.5
t-35.5 86.5zM418 563q108 65 166.5 125t58.5 133q0 78 -49 78q-53 0 -100.5 -103t-75.5 -233z" />
    <glyph glyph-name="uni0452" unicode="&#x452;" horiz-adv-x="1312" 
d="M156 -492q-58 0 -80.5 26t-22.5 56q0 67 36 151.5t77 84.5t108 -31t133 -62.5t105 -31.5q43 0 70 54t70 194q6 22 10 33l233 753q12 51 7.5 61.5t-25.5 10.5q-45 0 -145.5 -131t-200.5 -320.5t-138 -335.5l-346 -40l283 1165h-148l17 102h155q12 67 -40 86t-205 2v123
q95 46 293 82.5t366 36.5l-90 -330h229l-16 -102h-242l-170 -627h21v-2q58 112 121 205.5t135.5 173.5t151.5 125t155 45q65 0 119 -29.5t79.5 -85t4.5 -121.5l-207 -665q-41 -134 -90 -232t-121.5 -181.5t-167.5 -134.5t-225.5 -79.5t-298.5 -28.5z" />
    <glyph glyph-name="uni0453" unicode="&#x453;" horiz-adv-x="897" 
d="M219 -20q-105 0 -176.5 48t-71.5 126q0 87 61.5 156t198.5 163l111 76q51 34 81 69t30 80q0 59 -35 90t-84 31q-47 0 -107.5 -33t-117.5 -90l-25 123q86 114 209 180t248 66q134 0 211 -57.5t77 -157.5q0 -34 -13.5 -67t-34.5 -60t-60.5 -61t-75.5 -60t-96 -67l-57 -39
q-66 -45 -105 -90.5t-39 -79.5q0 -46 22.5 -73.5t61.5 -27.5q58 0 124 33t185 111l25 -123q-142 -126 -284 -196t-263 -70zM379 1147q122 176 269 342t204 166q51 0 71.5 -53t8.5 -111q-6 -23 -17.5 -44.5t-31.5 -41t-36 -33.5t-45.5 -31.5t-44 -25.5t-47.5 -24.5t-40 -20.5
l-277 -144z" />
    <glyph glyph-name="uni0454" unicode="&#x454;" horiz-adv-x="1017" 
d="M434 -20q-177 0 -285 110t-108 279q0 118 53 241.5t141 224.5t215 165.5t263 64.5q91 0 206 -24t115 -64q0 -73 -44 -148t-87 -75q-15 0 -64 28t-110 56t-104 28q-77 0 -131 -73t-82 -181q65 4 194 17.5t187 17.5q21 1 9 -46q-15 -64 -59 -106q-33 -31 -69 -28l-281 25
q-2 -14 -2 -41q0 -95 49.5 -150t126.5 -55q153 0 316 160l24 -123q-73 -145 -204.5 -224t-268.5 -79z" />
    <glyph glyph-name="uni0455" unicode="&#x455;" horiz-adv-x="987" 
d="M-2 162q0 30 6.5 67t20 75t39 63.5t57.5 25.5q30 0 71 -26.5t81.5 -64t80 -75t76.5 -64t62 -26.5q15 0 24.5 10.5t9.5 28.5q0 51 -46 121t-118 133q-212 191 -212 299q0 63 34.5 123t96 107.5t155 76.5t203.5 29q45 0 102 -7t123.5 -23t111 -49t44.5 -77q0 -29 -20 -81
t-55.5 -98t-70.5 -46q-33 0 -80 34.5t-87.5 76t-87.5 76t-80 34.5q-24 0 -37 -11t-13 -44q0 -91 154 -234q97 -91 157 -170.5t60 -150.5q0 -134 -110 -224.5t-314 -90.5q-80 0 -183 27t-179 70.5t-76 84.5z" />
    <glyph glyph-name="uni0456" unicode="&#x456;" horiz-adv-x="827" 
d="M258 -20q-97 0 -122.5 67.5t18.5 216.5l110 365q19 64 -28 107t-142 42l-20 123q122 57 286 110.5t289 53.5q33 0 49 -6.5t23.5 -28t-8.5 -63.5l-189 -623q-13 -41 0 -61.5t43 -20.5q27 0 85 12.5t102 30.5l-11 -123q-83 -73 -238.5 -137.5t-246.5 -64.5zM418 1327
q0 96 81 172t179 76q71 0 115.5 -44.5t44.5 -111.5q0 -98 -78 -176t-174 -78q-74 0 -121 46t-47 116z" />
    <glyph glyph-name="uni0457" unicode="&#x457;" horiz-adv-x="827" 
d="M258 -20q-97 0 -122.5 67.5t18.5 216.5l110 365q19 64 -28 107t-142 42l-20 123q122 57 286 110.5t289 53.5q33 0 49 -6.5t23.5 -28t-8.5 -63.5l-189 -623q-13 -41 0 -61.5t43 -20.5q27 0 85 12.5t102 30.5l-11 -123q-83 -73 -238.5 -137.5t-246.5 -64.5zM272 1358
q0 73 61.5 129.5t135.5 56.5q52 0 85.5 -34t33.5 -85q0 -73 -59 -130.5t-130 -57.5q-56 0 -91.5 34.5t-35.5 86.5zM674 1358q0 73 61 129.5t135 56.5q52 0 85.5 -34t33.5 -85q0 -73 -58.5 -130.5t-129.5 -57.5q-56 0 -91.5 34.5t-35.5 86.5z" />
    </font>
</defs>
</svg>
