<?xml version="1.0" standalone="no"?>
<!DOCTYPE svg PUBLIC "-//W3C//DTD SVG 1.1//EN" "http://www.w3.org/Graphics/SVG/1.1/DTD/svg11.dtd" >
<svg xmlns="http://www.w3.org/2000/svg" xmlns:xlink="http://www.w3.org/1999/xlink" version="1.1">
<metadata>
Created by FontForge 20170731 at Fri Dec  9 10:59:12 2022
 By Aleksey,,,
(c) Pangram Pangram 2022
</metadata>
<defs>
<font id="PPWriter-BoldText" horiz-adv-x="0" >
  <font-face 
    font-family="PP Writer Text"
    font-weight="700"
    font-stretch="normal"
    units-per-em="2048"
    panose-1="0 0 0 0 0 0 0 0 0 0"
    ascent="1638"
    descent="-410"
    x-height="1016"
    cap-height="1454"
    bbox="-332 -645 12669 2116"
    underline-thickness="102"
    underline-position="-358"
    unicode-range="U+0021-1F415"
  />
<missing-glyph horiz-adv-x="1013" 
d="M831 1556v-2027h-643v2027h643zM338 -332h338v68h-207l141 96h66v66h-338v-66h143l-143 -96v-68zM338 -55h338v229h-338v-229zM338 295h338v229h-203v-112h68v45h67v-95h-202v162h-68v-229zM338 569h338v203h-68v-133h-270v-70zM338 684h203v143h135v66h-338v-66h135v-75
h-135v-68zM338 948h338v70h-135v141h-203v-211zM338 1212h338v66h-135v76h135v67h-336v-67h133v-76h-135v-66zM406 12v94h202v-94h-202zM406 1018v72h67v-72h-67z" />
    <glyph glyph-name="f_f" unicode="ff" horiz-adv-x="1640" 
d="M88 0l21 84l41 14q92 38 92 148v657h-172v78l172 35v67q0 79 36 154.5t101 137t166.5 99t222.5 37.5q84 0 172 -24.5t154 -69.5q121 160 358 160q114 0 228 -23t114 -51q0 -74 -35.5 -131t-87.5 -57q-18 0 -41 8.5t-56 29t-53 34t-64.5 46.5t-57.5 42h-21q-98 0 -98 -250
v-209h330v-113h-330v-794l236 16l-21 -125h-651l20 84l41 14q92 38 92 148v657h-473v-794l236 16l-21 -125h-651zM524 1016h473v20q0 89 -14 156.5t-36.5 108t-56 65.5t-67.5 34t-75 9q-111 0 -167.5 -71t-56.5 -203v-119z" />
    <glyph glyph-name="f_f_i" unicode="ffi" horiz-adv-x="2260" 
d="M70 903v78l172 47v55q0 79 36 154.5t102 137t169 99t227 37.5q88 0 181.5 -29t158.5 -81q158 176 459 176q125 0 233.5 -29.5t170 -75t61.5 -94.5q0 -75 -81.5 -123t-201.5 -22q-41 128 -98 185t-141 57q-113 0 -175.5 -101.5t-62.5 -279.5v-78h623l116 63h21
q-21 -167 -21 -411v-559l195 16l-21 -125h-618l29 84l41 14q92 38 92 148v657h-457v-794l236 16l-21 -125h-651l20 84l41 14q92 38 92 148v657h-473v-794l236 16l-21 -125h-651l21 84l41 14q92 38 92 148v657h-172zM524 1016h463l10 2v18q0 89 -14 156.5t-36.5 108t-56 65.5
t-67.5 34t-75 9q-111 0 -167.5 -71t-56.5 -203v-119z" />
    <glyph glyph-name="f_f_l" unicode="ffl" horiz-adv-x="2258" 
d="M836 0l20 84l41 14q92 38 92 148v657h-465v-794l236 16l-21 -125h-651l21 84l41 14q92 38 92 148v657h-172v78l172 35v67q0 79 36 154.5t101 137t166.5 99t222.5 37.5q90 0 180 -27t154 -77q71 79 177.5 124.5t236.5 45.5q99 0 196 -28.5t162 -82.5q62 59 141 90h33
q-20 -316 -20 -452v-995l194 16l-20 -125h-611l21 84l41 14q92 38 92 148v915l-2 -2q0 169 -66.5 242.5t-187.5 73.5q-103 0 -160 -74.5t-57 -220.5v-164h264v-113h-264v-794l235 16l-20 -125h-651zM524 1016h465v20q0 89 -13.5 156t-35.5 108t-55 66t-68 34t-78 9
q-105 0 -160 -71t-55 -203v-119z" />
    <glyph glyph-name="f_i" unicode="fi" horiz-adv-x="1505" 
d="M88 0l21 84l41 14q92 38 92 148v657h-172v78l172 37v65q0 104 39 194t111.5 156.5t182.5 105t244 38.5q125 0 233.5 -29.5t170 -75t61.5 -94.5q0 -75 -81.5 -123t-201.5 -22q-41 128 -98 185t-141 57q-113 0 -175.5 -101.5t-62.5 -279.5v-78h623l117 63h20
q-20 -159 -20 -411v-559l194 16l-20 -125h-619l29 84l41 14q92 38 92 148v657h-457v-794l236 16l-21 -125h-651z" />
    <glyph glyph-name="f_l" unicode="fl" horiz-adv-x="1511" 
d="M88 0l21 84l41 14q92 38 92 148v657h-172v78l172 35v104q0 90 38 172.5t105.5 146t167 101t215.5 37.5q99 0 196 -28.5t162 -82.5q61 58 142 90h32q-20 -316 -20 -452v-995l195 16l-21 -125h-610l20 84l41 14q92 38 92 148v915l-2 -2q0 169 -66.5 242.5t-187.5 73.5
q-103 0 -160 -74.5t-57 -220.5v-164h264v-113h-264v-794l236 16l-21 -125h-651z" />
    <glyph glyph-name=".notdef" horiz-adv-x="1013" 
d="M831 1556v-2027h-643v2027h643zM338 -332h338v68h-207l141 96h66v66h-338v-66h143l-143 -96v-68zM338 -55h338v229h-338v-229zM338 295h338v229h-203v-112h68v45h67v-95h-202v162h-68v-229zM338 569h338v203h-68v-133h-270v-70zM338 684h203v143h135v66h-338v-66h135v-75
h-135v-68zM338 948h338v70h-135v141h-203v-211zM338 1212h338v66h-135v76h135v67h-336v-67h133v-76h-135v-66zM406 12v94h202v-94h-202zM406 1018v72h67v-72h-67z" />
    <glyph glyph-name=".null" 
 />
    <glyph glyph-name="nonmarkingreturn" horiz-adv-x="682" 
 />
    <glyph glyph-name="space" unicode="&#xa0;" horiz-adv-x="507" 
 />
    <glyph glyph-name="space" unicode=" " horiz-adv-x="507" 
 />
    <glyph glyph-name="exclam" unicode="!" horiz-adv-x="804" 
d="M332 489q0 122 -16 259.5t-49.5 341t-43.5 270.5q-14 101 37.5 159t136.5 58q81 0 128.5 -58t33.5 -159q-7 -52 -42 -267t-49.5 -348.5t-14.5 -255.5h-121zM213 164q0 75 51.5 125.5t128.5 50.5q74 0 125 -50.5t51 -125.5t-51.5 -127.5t-124.5 -52.5q-76 0 -128 52.5
t-52 127.5z" />
    <glyph glyph-name="quotedbl" unicode="&#x22;" horiz-adv-x="1120" 
d="M223 1384q-24 79 10 125.5t119 46.5q84 0 117 -46t10 -126l-90 -327h-74zM621 1384q-24 79 10 125.5t119 46.5q84 0 117 -46t10 -126l-91 -327h-73z" />
    <glyph glyph-name="numbersign" unicode="#" horiz-adv-x="1527" 
d="M709 0l98 385h-281l-98 -385h-149l98 385h-225l34 131h224l108 422h-225l35 131h223l98 385h150l-99 -385h281l98 385h150l-99 -385h226l-35 -131h-223l-109 -422h225l-34 -131h-224l-98 -385h-149zM559 516h281l108 422h-280z" />
    <glyph glyph-name="dollar" unicode="$" horiz-adv-x="1292" 
d="M573 1536q-29 88 -11.5 133t87.5 45q68 0 84.5 -45t-12.5 -133l-19 -61q135 -2 367 -64l23 -416h-76q-63 184 -158 268.5t-240 84.5q-119 0 -188.5 -63.5t-69.5 -156.5q0 -91 84 -150t304 -122q233 -65 333.5 -163.5t100.5 -264.5q0 -119 -57.5 -217.5t-165.5 -160
t-246 -68.5l22 -78q28 -88 12 -133t-83 -45q-71 0 -89 45t13 133l24 78q-225 7 -434 81l-49 453h76q82 -199 209 -305.5t284 -106.5q112 0 186 58.5t74 161.5q0 100 -89 162t-287 122q-248 70 -348.5 168.5t-100.5 253.5q0 109 53.5 201.5t160 157t249.5 81.5z" />
    <glyph glyph-name="percent" unicode="%" horiz-adv-x="1832" 
d="M461 0l756 1249h157l-753 -1249h-160zM51 887q0 156 113.5 258t279.5 102q162 0 271.5 -101.5t109.5 -258.5t-110 -261t-271 -104q-166 0 -279.5 104t-113.5 261zM289 887q0 -115 44.5 -187.5t110.5 -72.5q61 0 102.5 72.5t41.5 187.5q0 112 -41.5 184t-102.5 72
q-66 0 -110.5 -72t-44.5 -184zM1008 346q0 155 113.5 258t279.5 103q161 0 271 -102.5t110 -258.5q0 -157 -110 -260.5t-271 -103.5q-166 0 -279.5 103.5t-113.5 260.5zM1245 346q0 -115 45 -187.5t111 -72.5q61 0 102 72.5t41 187.5q0 112 -41 184t-102 72q-66 0 -111 -72
t-45 -184z" />
    <glyph glyph-name="ampersand" unicode="&#x26;" horiz-adv-x="1910" 
d="M1327 2l-178 158q-252 -178 -508 -178q-104 0 -195 22.5t-165.5 67t-118 121t-43.5 176.5q0 129 95 238.5t267 158.5q-157 195 -157 350q0 159 135 259t360 100q113 0 211.5 -31t165 -97.5t66.5 -156.5q0 -66 -33 -123.5t-86.5 -96.5t-115.5 -64.5t-126 -35.5l-20 21
q29 33 43 51.5t36.5 55.5t33 78.5t10.5 90.5q0 98 -59 155.5t-148 57.5q-83 0 -129.5 -55.5t-46.5 -155.5q0 -38 15 -81t36.5 -81.5t62 -87.5t74 -85.5t91.5 -88.5t94.5 -84t103.5 -85t98.5 -77.5t97.5 -74.5q27 66 27 129q0 109 -43.5 155.5t-147.5 55.5l21 92h680
l-21 -115l-315 11q0 -210 -127 -383q232 -179 463 -326l-10 -41h-494zM434 434q0 -84 50 -150t128.5 -100t167.5 -34q170 0 303 65l-8 8q-22 18 -128.5 106.5t-155 130.5t-127.5 115.5t-134 135.5q-96 -135 -96 -277z" />
    <glyph glyph-name="quotesingle" unicode="'" horiz-adv-x="722" 
d="M223 1384q-24 79 10 125.5t119 46.5q84 0 117 -46t10 -126l-90 -327h-74z" />
    <glyph glyph-name="parenleft" unicode="(" horiz-adv-x="837" 
d="M725 -362q-121 59 -224.5 155t-181.5 220t-122.5 280t-44.5 325q0 200 77 394t207 340.5t289 224.5l53 -43q-149 -161 -246.5 -410t-97.5 -506q0 -300 96 -546t248 -391z" />
    <glyph glyph-name="parenright" unicode=")" horiz-adv-x="837" 
d="M59 -319q152 145 248 391t96 546q0 257 -97.5 506t-246.5 410l54 43q159 -78 289 -224.5t207 -340.5t77 -394q0 -169 -44.5 -325t-122.5 -280t-181.5 -220t-224.5 -155z" />
    <glyph glyph-name="asterisk" unicode="*" horiz-adv-x="1220" 
d="M838 834q-52 -38 -104.5 -13.5t-67.5 94.5l-52 220l199 -111q63 -38 70.5 -95t-45.5 -95zM219 1280q20 63 77 73t112 -38l167 -148l-223 -26q-75 -7 -114 34.5t-19 104.5zM367 831q-54 38 -46.5 95.5t70.5 95.5l193 115l-45 -224q-17 -72 -67.5 -95.5t-104.5 13.5z
M508 1391q-30 67 -2.5 116t94.5 49q65 0 92 -49.5t-2 -115.5l-88 -207zM627 1165l168 152q54 50 109.5 38.5t76.5 -73.5q20 -62 -19.5 -103t-111.5 -34z" />
    <glyph glyph-name="plus" unicode="+" horiz-adv-x="1105" 
d="M485 90v359h-354v126h354v359h138v-359h352v-126h-352v-359h-138z" />
    <glyph glyph-name="comma" unicode="," horiz-adv-x="819" 
d="M229 -381q63 83 100.5 171t37.5 147q0 35 -24 61t-53 38t-53 24t-24 22q0 20 6 44.5t20 52.5t34 51t51.5 38t68.5 15q92 0 142.5 -57t50.5 -152q0 -124 -92.5 -264t-208.5 -230z" />
    <glyph glyph-name="hyphen" unicode="-" horiz-adv-x="876" 
d="M135 412v211h602v-211h-602z" />
    <glyph glyph-name="period" unicode="." horiz-adv-x="802" 
d="M393 -16q-76 0 -128 52.5t-52 127.5t51.5 125.5t128.5 50.5q74 0 125 -50.5t51 -125.5t-51.5 -127.5t-124.5 -52.5z" />
    <glyph glyph-name="slash" unicode="/" horiz-adv-x="1439" 
d="M152 -342l948 1898h168l-949 -1898h-167z" />
    <glyph glyph-name="zero" unicode="0" horiz-adv-x="1216" 
d="M604 -20q-136 0 -250.5 79t-181 217t-66.5 302t66.5 302t181 217t250.5 79q138 0 254.5 -79t184 -217t67.5 -302t-67 -301.5t-183.5 -217t-255.5 -79.5zM217 578q0 -131 113 -221.5t274 -90.5q165 0 280 90.5t115 221.5t-115.5 221t-279.5 90q-161 0 -274 -90t-113 -221z
" />
    <glyph glyph-name="one" unicode="1" horiz-adv-x="913" 
d="M90 0l21 84l61 10q164 27 164 223v574l-256 -19v84q68 15 165.5 55.5t210 94.5t150.5 70l33 -21q-21 -161 -21 -311v-735l216 16l-21 -125h-723z" />
    <glyph glyph-name="two" unicode="2" horiz-adv-x="1187" 
d="M88 80q143 90 270 214.5t204 250.5t77 217q0 95 -50 153t-132 58q-66 0 -141 -35.5t-138 -95.5l-65 57q88 130 215.5 204.5t261.5 74.5q158 0 254 -86.5t96 -229.5q0 -56 -20.5 -112.5t-62.5 -112t-84.5 -102t-108.5 -101t-110.5 -88.5t-113.5 -84h340q80 0 138 34
t116 116h70l-98 -453q-100 41 -324 41h-580z" />
    <glyph glyph-name="three" unicode="3" horiz-adv-x="1071" 
d="M23 -389q169 48 303 127t214.5 185.5t80.5 219.5q0 68 -25.5 118.5t-71 80.5t-102.5 44.5t-125 14.5l-33 50q143 95 216 203t73 202q0 65 -37 102t-98 37q-60 0 -133 -36t-144 -99l-43 82q96 109 212 172.5t227 63.5q137 0 223 -68t86 -178q0 -104 -89.5 -205.5
t-246.5 -187.5q68 -3 126 -12.5t113.5 -30.5t94.5 -52t62.5 -79.5t23.5 -110.5q0 -113 -70.5 -230.5t-187.5 -215t-277 -172.5t-332 -107z" />
    <glyph glyph-name="four" unicode="4" horiz-adv-x="1247" 
d="M713 -471v471h-641l-21 63l856 1106l64 -20v-936h215l-21 -213h-194v-471h-258zM309 213h404v526z" />
    <glyph glyph-name="five" unicode="5" horiz-adv-x="1032" 
d="M-18 -389q169 48 303 127.5t214.5 187.5t80.5 226q0 67 -35 123.5t-99.5 99.5t-138.5 74t-170 59q48 63 79.5 149t43 170.5t14 173t-9.5 156.5h256q229 0 340 39v-301h-479l-37 -190q86 -23 160 -52t144 -71.5t119.5 -92t79.5 -116.5t30 -142q0 -150 -115.5 -297
t-311.5 -255t-427 -150z" />
    <glyph glyph-name="six" unicode="6" horiz-adv-x="1222" 
d="M612 -20q-226 0 -366 136.5t-140 352.5q0 166 51.5 313.5t139.5 258.5t208 199.5t253.5 146t279.5 88.5l54 -70q-289 -93 -460 -271t-210 -419q146 143 338 143q156 0 264.5 -107.5t108.5 -263.5q0 -136 -69.5 -252.5t-189.5 -185.5t-262 -69zM410 571q0 -229 71 -357
t187 -128q86 0 138 92.5t52 239.5q0 117 -62.5 196.5t-154.5 79.5q-55 0 -116.5 -25.5t-114.5 -68.5v-29z" />
    <glyph glyph-name="seven" unicode="7" horiz-adv-x="1118" 
d="M147 -469l697 1389h-391q-121 0 -179 -54t-118 -213h-70l68 545q124 -41 266 -41h577l21 -80l-664 -1546h-207z" />
    <glyph glyph-name="eight" unicode="8" horiz-adv-x="1224" 
d="M618 -20q-219 0 -365.5 103t-146.5 253q0 257 314 403q-112 85 -167.5 166.5t-55.5 196.5q0 103 66.5 190t171 135t218.5 48q185 0 299.5 -85.5t114.5 -211.5q0 -112 -85 -202.5t-206 -127.5q72 -49 112 -78t91 -74t76.5 -82t44 -87t18.5 -105q0 -194 -143.5 -318
t-356.5 -124zM377 393q0 -139 80 -225t196 -86q97 0 155 55t58 146q0 48 -16.5 88.5t-65 87.5t-78.5 70.5t-114 83.5q-9 7 -14 10.5t-12.5 9t-14.5 10.5q-8 6 -27.5 20t-29.5 21q-117 -143 -117 -291zM432 1196q0 -29 7.5 -54.5t28 -52t39 -46t58.5 -49t66.5 -48t81.5 -55.5
q53 56 82.5 125t29.5 131q0 106 -58.5 165.5t-154.5 59.5q-73 0 -126.5 -50.5t-53.5 -125.5z" />
    <glyph glyph-name="nine" unicode="9" horiz-adv-x="1234" 
d="M78 -401q266 86 472.5 333t260.5 541q-57 -86 -138.5 -139t-174.5 -53q-106 0 -200.5 51.5t-153 145t-58.5 204.5q0 91 42 181t112 159.5t168.5 112.5t205.5 43q227 0 371.5 -145.5t144.5 -397.5q0 -134 -54 -280.5t-150.5 -280t-220 -247t-274 -192.5t-300.5 -106z
M369 764q0 -115 70.5 -210t170.5 -95q64 0 119.5 30.5t93.5 75.5q4 54 4 82q0 207 -73 317.5t-185 110.5q-87 0 -143.5 -94t-56.5 -217z" />
    <glyph glyph-name="colon" unicode=":" horiz-adv-x="802" 
d="M393 -16q-76 0 -128 52.5t-52 127.5t51.5 125.5t128.5 50.5q74 0 125 -50.5t51 -125.5t-51.5 -127.5t-124.5 -52.5zM213 834q0 75 51.5 125.5t128.5 50.5q74 0 125 -50.5t51 -125.5t-51.5 -128t-124.5 -53q-76 0 -128 53t-52 128z" />
    <glyph glyph-name="semicolon" unicode=";" horiz-adv-x="819" 
d="M393 653q-76 0 -128 53t-52 128t51.5 125.5t128.5 50.5q74 0 125 -50.5t51 -125.5t-51.5 -128t-124.5 -53zM213 82q0 20 6 44.5t20 52.5t34 51t51.5 38t68.5 15q92 0 142.5 -57t50.5 -152q0 -124 -92.5 -264t-208.5 -230l-56 39q63 83 100.5 171t37.5 147q0 35 -24 61
t-53 38t-53 24t-24 22z" />
    <glyph glyph-name="less" unicode="&#x3c;" horiz-adv-x="966" 
d="M143 584l680 432v-152l-565 -362l565 -350v-152l-680 416v168z" />
    <glyph glyph-name="equal" unicode="=" horiz-adv-x="999" 
d="M131 573v127h737v-127h-737zM131 238v127h737v-127h-737z" />
    <glyph glyph-name="greater" unicode="&#x3e;" horiz-adv-x="966" 
d="M823 416l-680 -416v152l566 350l-566 362v152l680 -432v-168z" />
    <glyph glyph-name="question" unicode="?" horiz-adv-x="1015" 
d="M350 449q-4 7 -22.5 42t-24 46.5t-19.5 42.5t-19 50t-10 47t-5 54q0 57 31.5 109t79 89t102.5 74t102.5 64.5t79 59t31.5 59.5q0 15 -9 28t-30 23.5t-42 18.5t-58.5 17.5t-64.5 15.5t-75.5 16t-77.5 16q-35 7 -70.5 78.5t-35.5 111.5q0 66 98 66q91 0 184 -37t169 -100.5
t124 -159.5t48 -205q0 -66 -41 -127.5t-99.5 -107.5t-117 -88.5t-99.5 -88t-41 -88.5q0 -55 33 -126h-121zM270 164q0 75 52 125.5t129 50.5q74 0 125 -50.5t51 -125.5t-51.5 -127.5t-124.5 -52.5q-76 0 -128.5 52.5t-52.5 127.5z" />
    <glyph glyph-name="at" unicode="@" horiz-adv-x="2136" 
d="M969 -373q-166 0 -321.5 60t-272 162t-186.5 247t-70 307q0 169 55.5 320t152.5 264.5t225 196.5t277 125.5t304 42.5q168 0 328.5 -57.5t283 -155.5t197.5 -238.5t75 -296.5q0 -146 -43.5 -266t-116.5 -197t-165.5 -119t-194.5 -42q-133 0 -224 57.5t-91 116.5h-39
q-34 -47 -55 -72t-53.5 -52t-70 -38.5t-85.5 -11.5q-111 0 -180.5 59t-69.5 149q0 95 76.5 163.5t238.5 119.5l223 76v143q0 132 -23.5 188t-86.5 56q-36 0 -72 -27l-2 -106q0 -63 -41 -111.5t-111 -48.5q-68 0 -108.5 35.5t-40.5 83.5q0 31 83.5 101t197 129t184.5 59
q168 0 233.5 -76.5t59.5 -237.5q-10 -211 -10 -508q0 -63 36 -104t97 -41q100 0 166.5 120t66.5 349q0 151 -55.5 282t-151.5 224t-230.5 146.5t-287.5 53.5q-147 0 -278 -57.5t-229 -161.5t-155 -258t-57 -336q0 -151 50 -279.5t137 -218.5t208.5 -141t262.5 -51
q113 0 224 17.5t181 46.5l41 -62q-235 -129 -487 -129zM915 260q0 -38 33.5 -66t89.5 -28q57 0 91.5 36t37.5 105v158l-110 -49q-71 -27 -106.5 -70t-35.5 -86z" />
    <glyph glyph-name="A" unicode="A" horiz-adv-x="1722" 
d="M977 0l20 94l72 17q64 15 82 44.5t-6 86.5l-74 157h-616l-119 -284l233 16l-20 -131h-510l20 94l74 17q51 11 79 44t60 107l406 961q-94 136 -260 190l8 41h467l620 -1339l170 16l-20 -131h-686zM504 514h514l-270 580z" />
    <glyph glyph-name="B" unicode="B" horiz-adv-x="1495" 
d="M90 0l19 94l63 15q50 11 70 43t20 88v1099l-182 -16l20 131h695q231 0 369.5 -94.5t138.5 -241.5q0 -137 -87.5 -230t-242.5 -118q193 -25 305.5 -116.5t112.5 -227.5q0 -124 -72 -222t-193 -151t-266 -53h-770zM555 115h190q166 0 244 70t78 221q0 137 -80 214.5
t-227 77.5h-205v-583zM555 799h217q105 0 166 76.5t61 199.5q0 130 -73.5 197t-208.5 67h-162v-540z" />
    <glyph glyph-name="C" unicode="C" horiz-adv-x="1583" 
d="M915 -20q-227 0 -409.5 90.5t-284.5 250t-102 357.5q0 181 64.5 332.5t174.5 252t256 156.5t310 56q249 0 497 -107l21 -410h-76q-81 202 -196.5 297t-292.5 95q-193 0 -314 -159t-121 -450q0 -290 134 -463.5t356 -173.5q166 0 265.5 89t205.5 311h76l-82 -455
q-201 -69 -482 -69z" />
    <glyph glyph-name="D" unicode="D" horiz-adv-x="1751" 
d="M92 0l21 94l59 15q48 12 76 46t28 85v1099l-196 -16l20 131h715q179 0 332.5 -53t259 -143.5t165.5 -215t60 -264.5q0 -223 -102 -400.5t-286 -277.5t-417 -100h-735zM569 115h254q150 0 261.5 81.5t168 221.5t56.5 319q0 271 -147.5 436.5t-420.5 165.5h-172v-1224z" />
    <glyph glyph-name="E" unicode="E" horiz-adv-x="1482" 
d="M90 0l21 94l63 15q100 26 100 129v1101l-194 -16l20 131h852q145 0 277 53l65 -499h-75q-30 69 -53.5 115t-55 90t-64.5 69.5t-76.5 41t-95.5 15.5h-307v-538h168q99 0 146.5 48.5t68.5 182.5h76v-561h-76q-23 129 -69.5 175t-145.5 46h-168v-577h379q61 0 114 30
t95.5 86t75.5 120.5t65 148.5h76l-94 -553q-117 53 -268 53h-920z" />
    <glyph glyph-name="F" unicode="F" horiz-adv-x="1241" 
d="M90 0l21 94l63 15q100 26 100 135v1095l-194 -16l20 131h826q144 0 276 53l53 -487h-75q-63 167 -132 243t-184 76h-297v-579h199q95 0 136 48t54 181h76v-561h-76q-13 129 -54 176t-136 47h-199v-536l248 16l-20 -131h-705z" />
    <glyph glyph-name="G" unicode="G" horiz-adv-x="1767" 
d="M952 -20q-251 0 -441 90t-291 251t-101 371q0 161 63 305t172.5 249.5t265 167t332.5 61.5q238 0 471 -62l41 -438h-75q-145 375 -506 375q-104 0 -188.5 -47.5t-139 -130t-84 -191t-29.5 -231.5q0 -288 139.5 -467t370.5 -179q136 0 213.5 45.5t77.5 141.5v379l-321 -17
l20 119h731l-20 -92q-62 0 -92.5 -25.5t-30.5 -83.5v-288q0 -49 23.5 -73t78.5 -24l8 -61q-214 -78 -364.5 -111.5t-323.5 -33.5z" />
    <glyph glyph-name="H" unicode="H" horiz-adv-x="1849" 
d="M1102 0l20 94l70 15q90 23 90 137v432h-715v-563l195 16l-21 -131h-651l21 94l61 15q55 15 78.5 47.5t23.5 89.5v1093l-194 -16l20 131h643l-20 -94l-64 -17q-50 -13 -71 -46.5t-21 -92.5v-411h715v546l-195 -16l21 131h643l-20 -94l-66 -17q-48 -13 -69 -46.5t-21 -92.5
v-1089l194 16l-20 -131h-647z" />
    <glyph glyph-name="I" unicode="I" horiz-adv-x="841" 
d="M90 0l21 94l63 15q53 15 76.5 47t23.5 84v1099l-194 -16l20 131h645l-20 -94l-66 -17q-92 -25 -92 -131v-1097l195 16l-21 -131h-651z" />
    <glyph glyph-name="J" unicode="J" horiz-adv-x="788" 
d="M-43 -406q142 115 228.5 280.5t86.5 379.5v1085l-252 -16l21 131h709l-21 -94l-78 -19q-41 -9 -63.5 -45t-22.5 -90v-913q0 -152 -33.5 -278.5t-88.5 -212.5t-129 -147.5t-152 -91t-160 -34.5z" />
    <glyph glyph-name="K" unicode="K" horiz-adv-x="1701" 
d="M1645 -20q-243 0 -385 48.5t-234 166.5l-375 467v30l641 643l-241 -12l20 131h580l-21 -94q-107 -12 -167.5 -46t-121.5 -95l-446 -451l391 -461q96 -113 171.5 -173.5t199.5 -113.5zM80 1323l20 131h643l-20 -94l-64 -17q-90 -25 -90 -131v-1097l174 16l-20 -131h-631
l21 94l63 15q48 12 74 47.5t26 89.5v1093z" />
    <glyph glyph-name="L" unicode="L" horiz-adv-x="1304" 
d="M90 0l21 94l61 15q102 24 102 131v1099l-194 -16l20 131h705l-21 -94l-116 -17q-57 -8 -79 -37t-22 -102v-1089h252q110 0 202.5 107.5t156.5 277.5h75l-94 -553q-124 53 -268 53h-801z" />
    <glyph glyph-name="M" unicode="M" horiz-adv-x="2105" 
d="M111 0l20 94l78 17q89 17 92 108l43 1026q-81 77 -264 168l10 41h512l485 -999l441 999h497l-20 -70l-51 -16q-68 -25 -97 -63.5t-26 -102.5l41 -1087l194 16l-20 -131h-643l20 94l62 15q94 22 88 147l-33 928l-522 -1204h-33v6l-2 -6l-528 1091l-33 -956l211 16
l-21 -131h-501z" />
    <glyph glyph-name="N" unicode="N" horiz-adv-x="1742" 
d="M86 0l20 94l99 10q57 6 81.5 32t24.5 83v1004q-113 113 -264 190l8 41h453l870 -1018v903l-260 -16l21 131h587l-20 -94l-90 -10q-115 -14 -115 -142v-1134l-123 -94l-944 1103v-968l258 16l-20 -131h-586z" />
    <glyph glyph-name="O" unicode="O" horiz-adv-x="1798" 
d="M899 -20q-159 0 -303 56.5t-248.5 153t-166.5 231.5t-62 286q0 159 60.5 301.5t164.5 245t248.5 162t306.5 59.5q159 0 303 -56.5t248.5 -153t166.5 -231.5t62 -286q0 -159 -60.5 -301.5t-164.5 -245t-248.5 -162t-306.5 -59.5zM442 793q0 -193 67.5 -351t186 -248
t262.5 -90q112 0 203 73t143 201t52 284q0 193 -67.5 350.5t-186 247.5t-262.5 90q-170 0 -284 -159.5t-114 -397.5z" />
    <glyph glyph-name="P" unicode="P" horiz-adv-x="1460" 
d="M90 0l19 94l77 21q88 25 88 137v1087l-194 -16l20 131h660q295 0 463 -106t168 -297q0 -204 -160 -331.5t-418 -127.5h-246v-477l224 16l-21 -131h-680zM567 696h170q154 0 242 90t88 234q0 139 -89 229t-241 90h-170v-643z" />
    <glyph glyph-name="Q" unicode="Q" horiz-adv-x="1798" 
d="M1683 -362q-64 0 -125 22t-109.5 56t-100 88.5t-89.5 104t-85 118.5q-127 -47 -275 -47q-159 0 -303 56.5t-248.5 153t-166.5 231.5t-62 286q0 159 60.5 301.5t164.5 245t248.5 162t306.5 59.5q159 0 303 -56.5t248.5 -153t166.5 -231.5t62 -286q0 -190 -84 -352.5
t-229 -268.5q55 -74 99 -123.5t101.5 -98.5t121 -73.5t133.5 -24.5q112 0 213 19l12 -47q-71 -37 -204.5 -89t-158.5 -52zM442 793q0 -137 35 -256q154 79 283 79q78 0 148 -26t132 -77.5t108.5 -103t104.5 -128.5q103 160 103 381q0 193 -67.5 350.5t-186 247.5t-262.5 90
q-170 0 -284 -159.5t-114 -397.5zM498 473q64 -169 186.5 -269t273.5 -100q71 0 142 33q-48 72 -79.5 116.5t-78.5 99.5t-86.5 85.5t-89.5 52t-102 21.5q-83 0 -166 -39z" />
    <glyph glyph-name="R" unicode="R" horiz-adv-x="1634" 
d="M90 0l21 94l73 19q90 23 90 143v1083l-194 -16l20 131h633q182 0 322 -46.5t222.5 -141t82.5 -226.5q0 -77 -30 -142.5t-81 -110.5t-113 -74t-130 -41l223 -365q66 -111 150.5 -175.5t217.5 -111.5l-10 -40q-259 0 -399 45t-211 174l-244 426h-166v-510l195 16l-21 -131
h-651zM567 719h158q141 0 226 84.5t85 228.5q0 141 -85.5 224t-225.5 83h-158v-620z" />
    <glyph glyph-name="S" unicode="S" horiz-adv-x="1292" 
d="M674 -20q-259 0 -496 83l-49 453h76q82 -199 209 -305.5t284 -106.5q112 0 186 58.5t74 161.5q0 100 -89 162t-287 122q-248 70 -348.5 168.5t-100.5 253.5q0 90 38 170t107 141.5t175.5 97.5t234.5 36q148 0 381 -64l23 -416h-76q-63 184 -158 268.5t-240 84.5
q-119 0 -188.5 -63.5t-69.5 -156.5q0 -91 84 -150t304 -122q233 -65 333.5 -163.5t100.5 -264.5q0 -124 -62.5 -225.5t-179.5 -162t-266 -60.5z" />
    <glyph glyph-name="T" unicode="T" horiz-adv-x="1435" 
d="M354 0l21 94l90 23q102 25 102 151v1071h-161q-43 0 -78.5 -15.5t-61.5 -39.5t-51 -66t-42.5 -83t-39.5 -103h-76l41 463q135 -41 283 -41h674q147 0 282 41l41 -463h-75q-20 49 -30.5 75t-28.5 64.5t-31.5 58.5t-34.5 44.5t-41.5 36t-47.5 20t-59 8.5h-170v-1224l236 16
l-21 -131h-721z" />
    <glyph glyph-name="U" unicode="U" horiz-adv-x="1726" 
d="M905 -20q-294 0 -468.5 131.5t-174.5 353.5v874l-182 -16l20 131h672l-20 -94l-90 -17q-107 -29 -107 -163v-641q0 -186 114 -292t306 -106q173 0 272 96t99 273v829l-224 -16l21 131h504l-21 -94l-53 -10q-55 -11 -79 -43t-24 -99v-673q0 -264 -151 -409.5t-414 -145.5z
" />
    <glyph glyph-name="V" unicode="V" horiz-adv-x="1677" 
d="M803 -20l-602 1359l-162 -16l20 131h754l-20 -94l-109 -14q-154 -19 -94 -158l328 -776l401 927l-250 -16l21 131h548l-20 -94l-82 -14q-59 -10 -89 -41.5t-63 -106.5l-526 -1218h-55z" />
    <glyph glyph-name="W" unicode="W" horiz-adv-x="2310" 
d="M1559 -20l-357 899l-405 -899h-56l-528 1359l-174 -10l20 125h684l-20 -94l-76 -17q-116 -24 -55 -176l282 -733l269 596l-123 309l-170 -10l20 125h705l-21 -94l-90 -17q-64 -11 -78 -51t19 -129l254 -665l276 841l-231 -10l20 125h547l-20 -94l-94 -17
q-58 -9 -90.5 -47.5t-61.5 -126.5l-391 -1189h-55z" />
    <glyph glyph-name="X" unicode="X" horiz-adv-x="1671" 
d="M829 0l21 94l113 17q62 9 81.5 36t-10.5 72l-268 363l-352 -473l245 22l-20 -131h-594l21 94l110 17q101 15 189 131l327 438l-489 659l-164 -16l20 131h775l-21 -94l-92 -17q-69 -12 -91.5 -40t7.5 -68l278 -379l379 483l-245 -16l20 131h553l-20 -94l-82 -17
q-47 -10 -86.5 -37.5t-83.5 -86.5l-361 -463l473 -641l170 16l-20 -131h-783z" />
    <glyph glyph-name="Y" unicode="Y" horiz-adv-x="1611" 
d="M457 0l20 94l51 17q67 25 98 66t31 104v327l-448 731l-170 -16l20 131h709l-20 -94l-101 -17q-67 -10 -78.5 -42t25.5 -93l295 -475l371 606l-220 -16l21 131h512l-21 -94l-84 -14q-42 -8 -74.5 -35.5t-72.5 -93.5l-371 -609v-493l228 16l-21 -131h-700z" />
    <glyph glyph-name="Z" unicode="Z" horiz-adv-x="1447" 
d="M133 0l-39 115l914 1239l-437 -15q-128 -4 -217.5 -105.5t-152.5 -283.5h-76l74 545q135 -41 307 -41h809l39 -115l-916 -1239l418 15q154 4 240.5 96t154.5 321h76l-41 -573q-135 41 -307 41h-846z" />
    <glyph glyph-name="bracketleft" unicode="[" horiz-adv-x="794" 
d="M213 -342v1898h522v-110h-260v-1677h260v-111h-522z" />
    <glyph glyph-name="backslash" unicode="\" horiz-adv-x="1316" 
d="M1206 -342h-168l-948 1898h168z" />
    <glyph glyph-name="bracketright" unicode="]" horiz-adv-x="794" 
d="M582 -342h-523v111h260v1677h-260v110h523v-1898z" />
    <glyph glyph-name="asciicircum" unicode="^" horiz-adv-x="735" 
d="M575 1004l-206 348l-209 -348h-148l273 450h168l268 -450h-146z" />
    <glyph glyph-name="underscore" unicode="_" horiz-adv-x="1097" 
d="M29 -342v201h1040v-201h-1040z" />
    <glyph glyph-name="grave" unicode="`" horiz-adv-x="606" 
d="M541 1180l-21 -21l-256 148q-27 15 -40 23t-37.5 24t-37.5 28.5t-28.5 30.5t-22 37.5t-6.5 40.5q0 44 27 88.5t67 44.5q19 0 81.5 -78t153.5 -203.5t120 -162.5z" />
    <glyph glyph-name="a" unicode="a" horiz-adv-x="1181" 
d="M831 -20q-71 0 -109 48t-38 113h-39q-41 -37 -58 -52t-53 -41.5t-61 -37.5t-61.5 -20.5t-75.5 -9.5q-110 0 -174 57.5t-64 150.5q0 90 75 154.5t241 128.5l256 100v95q0 122 -38.5 182.5t-105.5 60.5q-45 0 -80 -26l-2 -107q0 -61 -45 -104t-118 -43q-68 0 -109 36
t-41 83q0 31 88.5 100.5t207 128.5t189.5 59q175 0 264 -80t83 -233q-11 -232 -11 -516l172 -21v-75q-165 -131 -293 -131zM397 260q0 -39 28 -66.5t83 -27.5q60 0 111 40t51 101v172l-144 -73q-70 -39 -99.5 -73t-29.5 -73z" />
    <glyph glyph-name="b" unicode="b" horiz-adv-x="1306" 
d="M647 -20q-160 0 -514 61v10q55 92 55 189v1085l-147 76v76q81 28 205.5 53.5t191.5 25.5h58q-25 -419 -25 -651q62 58 143.5 94.5t171.5 36.5q172 0 293 -141t121 -338q0 -132 -43.5 -242t-118.5 -182.5t-175.5 -112.5t-215.5 -40zM471 260q0 -182 182 -182
q99 0 171.5 112.5t72.5 292.5q0 172 -72.5 283t-181.5 111q-79 0 -172 -58v-559z" />
    <glyph glyph-name="c" unicode="c" horiz-adv-x="1118" 
d="M610 -20q-138 0 -254 64.5t-183 176t-67 244.5q0 159 75.5 291t199.5 206t268 74q104 0 195 -19.5t137.5 -44.5t46.5 -46q0 -84 -45 -141.5t-94 -57.5q-29 0 -63 19t-52.5 35.5t-48.5 46.5l-8 8l-96 102h-23q-70 0 -129 -109t-59 -247q0 -172 79.5 -285t219.5 -113
q70 0 140.5 30t156.5 85l49 -47q-41 -60 -81 -104.5t-93.5 -85t-122 -61.5t-148.5 -21z" />
    <glyph glyph-name="d" unicode="d" horiz-adv-x="1333" 
d="M532 -20q-122 0 -220.5 67t-152 176.5t-53.5 237.5q0 248 159 411.5t399 163.5q76 0 159 -22v311l-184 76v76q78 25 221 52t227 27h39q-20 -303 -20 -544v-805l143 -62v-63q-124 -59 -350 -102h-33l-32 116h-27q-45 -36 -76 -57t-85.5 -40t-113.5 -19zM397 535
q0 -179 68.5 -289.5t181.5 -110.5q30 0 56 5.5t51 20t34.5 21t34.5 25.5v536q0 90 -47.5 142.5t-120.5 52.5q-78 0 -138.5 -61.5t-90 -152t-29.5 -189.5z" />
    <glyph glyph-name="e" unicode="e" horiz-adv-x="1124" 
d="M573 -20q-204 0 -335.5 141.5t-131.5 363.5q0 239 146 395t369 156q179 0 286 -97t107 -247q0 -69 -31 -117h-573v-8q0 -172 78 -277.5t221 -105.5q72 0 134 21.5t136 70.5l49 -47q-73 -114 -191.5 -181.5t-263.5 -67.5zM416 676l221 12q50 3 70 20.5t20 53.5
q0 76 -37.5 126t-93.5 50q-73 0 -119.5 -70.5t-60.5 -191.5z" />
    <glyph glyph-name="f" unicode="f" horiz-adv-x="886" 
d="M88 0l21 84l41 14q92 38 92 148v657h-172v78l172 35v80q0 101 27.5 187t81.5 152.5t142.5 104t202.5 37.5t228 -23t114 -51q0 -74 -35.5 -131t-87.5 -57q-18 0 -41 8.5t-56 29t-53 34t-64.5 46.5t-57.5 42h-20q-47 0 -73 -62.5t-26 -187.5v-209h330v-113h-330v-794
l236 16l-21 -125h-651z" />
    <glyph glyph-name="g" unicode="g" horiz-adv-x="1236" 
d="M586 -492q-143 0 -261.5 36.5t-187.5 101.5t-69 145q0 83 69.5 149t163.5 99q-40 52 -74 111.5t-34 87.5q0 25 67 59.5t160 54.5q-133 33 -215 119t-82 197q0 103 64.5 187.5t176.5 132.5t248 48q120 0 217 -43q21 16 81.5 67.5t102.5 85t99 63.5t98 30q49 0 43 -67
q-7 -66 -51 -126q-30 -41 -59 -45l-258 -36q73 -45 114 -112t41 -146q0 -157 -137.5 -264t-339.5 -107q-31 0 -54.5 -21t-23.5 -47t27 -45t80 -22l250 -19q159 -13 238 -84.5t79 -177.5q0 -108 -77 -203t-209.5 -152t-286.5 -57zM322 -152q0 -100 95.5 -168.5t241.5 -68.5
q102 0 171 54t69 147q0 73 -52.5 113.5t-174.5 49.5l-301 25q-49 -63 -49 -152zM414 713q0 -123 55 -203t139 -80q60 0 101 66t41 161q0 123 -55 204t-138 81q-61 0 -102 -66.5t-41 -162.5z" />
    <glyph glyph-name="h" unicode="h" horiz-adv-x="1411" 
d="M68 0l20 84l41 14q45 19 65.5 54t20.5 94v1079l-147 76v76q250 79 393 79h57q-20 -237 -20 -481v-205h43q8 6 42.5 32.5t47 34.5t44 29t52 29.5t51.5 20t62 16t65 4.5q136 0 209.5 -77.5t73.5 -223.5v-626l182 16l-20 -125h-598l20 84l53 16q37 9 58.5 43.5t21.5 89.5
v443q0 82 -48 122t-126 40q-85 0 -233 -66v-663l161 16l-20 -125h-571z" />
    <glyph glyph-name="i" unicode="i" horiz-adv-x="763" 
d="M84 0l20 84l41 14q93 38 93 148v555l-146 80v75q83 29 207 54.5t209 25.5h33q-21 -170 -21 -368v-559l195 16l-21 -125h-610zM217 1391q0 66 47.5 112.5t116.5 46.5q65 0 110.5 -46.5t45.5 -112.5t-46 -113t-110 -47q-69 0 -116.5 47t-47.5 113z" />
    <glyph glyph-name="j" unicode="j" horiz-adv-x="663" 
d="M23 -446q186 186 186 448v799l-146 80v75q96 33 217.5 56.5t208.5 23.5h21q-16 -187 -16 -391v-557q-1 -110 -35.5 -209t-94 -172t-135.5 -124.5t-161 -74.5zM188 1391q0 66 47.5 112.5t116.5 46.5q65 0 110.5 -46.5t45.5 -112.5t-46 -113t-110 -47q-69 0 -116.5 47
t-47.5 113z" />
    <glyph glyph-name="k" unicode="k" horiz-adv-x="1376" 
d="M1059 -20q-87 0 -152 31.5t-116 105.5l-248 368v21l444 401l-254 -16l21 125h579l-20 -92q-195 -37 -324 -150l-215 -186q140 -203 289 -352q38 -37 59 -55t57.5 -38.5t67.5 -19.5h37l16 -66q-57 -39 -110.5 -58t-130.5 -19zM68 0l20 84l41 16q46 18 68 52t22 94v1079
l-147 76v76q241 79 430 79h20q-20 -263 -20 -552v-895l133 16l-21 -125h-546z" />
    <glyph glyph-name="l" unicode="l" horiz-adv-x="735" 
d="M68 0l20 84l41 14q92 38 92 148v1079l-147 76v76q246 79 418 79h32q-20 -316 -20 -452v-995l194 16l-20 -125h-610z" />
    <glyph glyph-name="m" unicode="m" horiz-adv-x="2054" 
d="M1395 0l20 84l53 16q37 9 58.5 43.5t21.5 89.5v429q0 178 -164 178q-92 0 -210 -64q2 -16 2 -49v-618l149 16l-20 -125h-566l21 84l53 16q37 9 58.5 43.5t21.5 89.5v429q0 97 -42.5 137.5t-121.5 40.5q-84 0 -209 -64v-667l150 16l-21 -125h-565l20 84l41 16
q93 38 93 146v547l-154 88v75q79 30 183.5 55t176.5 25h33l33 -162h43q6 5 32 27t35 29.5t34 26t39.5 26t40 20.5t47 18.5t50 10t58.5 4.5q201 0 262 -162h49q38 35 66 57t72.5 49.5t96 41.5t109.5 14q140 0 213.5 -80.5t73.5 -228.5v-618l182 16l-20 -125h-598z" />
    <glyph glyph-name="n" unicode="n" horiz-adv-x="1419" 
d="M760 0l20 84l39 12q48 12 71 44t23 93v420q0 107 -38 147t-113 40q-101 0 -242 -64v-667l162 16l-20 -125h-578l20 84l41 16q93 38 93 146v547l-154 88v75q216 80 360 80h33l33 -162h45q38 30 67 50.5t78.5 50t101 45.5t101.5 16q293 0 293 -313v-614l182 16l-20 -125
h-598z" />
    <glyph glyph-name="o" unicode="o" horiz-adv-x="1290" 
d="M623 -20q-141 0 -259 64.5t-188 181t-70 259.5q0 250 159 400.5t403 150.5q216 0 366 -144.5t150 -361.5q0 -250 -158.5 -400t-402.5 -150zM410 600q0 -144 38 -263t104 -187t146 -68q81 0 132 87t51 249q0 219 -83.5 367.5t-205.5 148.5q-80 0 -131 -89.5t-51 -244.5z
" />
    <glyph glyph-name="p" unicode="p" horiz-adv-x="1368" 
d="M84 -471l20 84l41 14q47 18 70 52t23 96v1026l-144 80v75q10 3 51 17t58.5 19t57.5 15.5t69.5 15.5t72.5 9t86 4h21v-143h39q82 69 124 93q86 50 181 50q113 0 204 -66t141 -179.5t50 -251.5q0 -133 -42 -240.5t-114.5 -176.5t-167 -105.5t-202.5 -36.5q-107 0 -203 26
v-368l236 16l-21 -125h-651zM520 223q0 -60 53.5 -102.5t128.5 -42.5t131 56.5t84.5 149t28.5 205.5q0 174 -70 264.5t-167 90.5q-99 0 -189 -72v-549z" />
    <glyph glyph-name="q" unicode="q" horiz-adv-x="1323" 
d="M551 -20q-192 0 -318.5 132t-126.5 365q0 162 76.5 291t205.5 198.5t284 69.5q225 0 522 -61v-10q-16 -21 -23.5 -33.5t-23 -47t-22.5 -85.5t-7 -119v-1042l174 16l-20 -125h-651l20 84l66 14q129 29 129 187v266q-75 -49 -141.5 -74.5t-143.5 -25.5zM410 526
q0 -184 71 -288.5t187 -104.5q96 0 168 62v528q0 120 -46.5 167.5t-125.5 47.5q-103 0 -178.5 -119t-75.5 -293z" />
    <glyph glyph-name="r" unicode="r" horiz-adv-x="1011" 
d="M84 0l20 84l41 14q93 38 93 148v547l-154 88v75q90 32 197 51t176 19h20l21 -219h43q67 69 167 149t132 80q52 0 85 -43.5t33 -101.5q0 -81 -63.5 -127.5t-155.5 -46.5h-170q-28 0 -38.5 -29t-10.5 -102v-477l228 16l-21 -125h-643z" />
    <glyph glyph-name="s" unicode="s" horiz-adv-x="1026" 
d="M512 -20q-194 0 -375 57l-18 309h69q48 -55 85 -91t88.5 -78t105.5 -63.5t108 -21.5q57 0 93.5 27.5t36.5 85.5q0 64 -60.5 103t-220.5 89q-158 51 -233.5 123t-75.5 187q0 64 26.5 122t78 104.5t137 74.5t192.5 28q144 0 309 -43l21 -311h-70q-159 240 -328 240
q-63 0 -101 -28t-38 -79q0 -52 60 -89t208 -87q173 -58 247.5 -129.5t74.5 -196.5q0 -148 -112 -240.5t-308 -92.5z" />
    <glyph glyph-name="t" unicode="t" horiz-adv-x="897" 
d="M475 -20q-128 0 -192 69.5t-64 173.5v680h-164v70l164 76l209 184h74v-217h325v-113h-325v-581q0 -146 125 -146q99 0 192 17l29 -48q-74 -73 -175.5 -119t-197.5 -46z" />
    <glyph glyph-name="u" unicode="u" horiz-adv-x="1372" 
d="M514 -20q-146 0 -225.5 81.5t-79.5 217.5v522l-146 80v75q187 65 396 80h33v-686q0 -203 172 -203q46 0 90.5 20t107.5 60v576l-143 80v75q195 63 393 78h33v-829l162 -21v-77q-75 -57 -174.5 -93t-188.5 -36h-33l-26 137h-43q-174 -137 -328 -137z" />
    <glyph glyph-name="v" unicode="v" horiz-adv-x="1302" 
d="M567 -14l-417 915l-136 -10l21 125h641l-21 -84l-67 -12q-117 -25 -60 -154l201 -453l268 588l-200 -10l20 125h459l-21 -84l-67 -21q-49 -13 -78.5 -44.5t-58.5 -94.5l-359 -786h-125z" />
    <glyph glyph-name="w" unicode="w" horiz-adv-x="1765" 
d="M1108 -14l-217 575l-258 -575h-131l-357 915l-131 -10l21 125h563l-20 -84l-43 -14q-42 -13 -57.5 -43t1.5 -78l189 -482l170 385l-76 201l-111 -10l21 125h565l-20 -84l-58 -17q-98 -27 -57 -141l162 -432l215 559l-170 -10l20 125h410l-21 -84l-63 -23
q-73 -26 -117 -137l-299 -786h-131z" />
    <glyph glyph-name="x" unicode="x" horiz-adv-x="1366" 
d="M643 84q57 -1 91.5 19.5t35.5 50.5t-22 63l-140 174l-248 -276l177 10l-21 -125h-477l20 84l66 10q55 9 94 36.5t80 72.5l244 268l-346 430l-154 -10l23 125h700l-21 -84q-98 0 -134.5 -38t7.5 -95l144 -178l239 280l-174 -10l23 125h477l-20 -84l-54 -8
q-66 -10 -106 -34t-86 -77l-236 -272l342 -426l152 10l-21 -125h-675z" />
    <glyph glyph-name="y" unicode="y" horiz-adv-x="1275" 
d="M299 -492q-69 0 -140 101q-56 79 -65 143q-5 39 17 39h249q139 0 205 154l21 49l-430 907l-142 -10l21 125h647l-20 -84l-58 -12q-136 -27 -72 -170l197 -428l250 579l-188 -10l20 125h438l-20 -84l-55 -17q-41 -13 -78.5 -54t-63.5 -101l-389 -889q-73 -170 -160 -266.5
t-184 -96.5z" />
    <glyph glyph-name="z" unicode="z" horiz-adv-x="1181" 
d="M129 0l-20 80l628 846l-180 -8q-111 -4 -200 -82t-173 -222h-69l94 455q62 -23 149.5 -38t151.5 -15h457v-2l6 2h90l20 -80l-626 -850l205 10q113 6 197 89.5t153 248.5h69l-57 -434h-895z" />
    <glyph glyph-name="braceleft" unicode="{" horiz-adv-x="839" 
d="M102 670q83 5 120.5 31t37.5 83q0 49 -18 113t-39.5 118.5t-39.5 128t-18 138.5q0 147 155 221t437 74l-20 -131l-131 4q-86 3 -126 -26t-40 -109t57.5 -238.5t57.5 -238.5q0 -61 -21 -106.5t-54 -69.5t-66 -35t-64 -11q31 0 64 -11t66 -34.5t54 -69t21 -106.5
q0 -67 -29 -150.5t-57.5 -166.5t-28.5 -150q0 -88 39.5 -118t126.5 -27l131 4l20 -131q-284 0 -438 75.5t-154 229.5q0 65 18 137t39.5 124.5t39.5 115t18 111.5q0 57 -37.5 83t-120.5 31v107z" />
    <glyph glyph-name="bar" unicode="|" horiz-adv-x="516" 
d="M184 -342v1970h148v-1970h-148z" />
    <glyph glyph-name="braceright" unicode="}" horiz-adv-x="839" 
d="M737 670v-107q-83 -5 -120 -30.5t-37 -83.5q0 -60 28.5 -142t57 -173t28.5 -173q0 -154 -154 -229.5t-438 -75.5l21 131l131 -4q87 -3 126.5 27t39.5 118q0 67 -29 150.5t-57.5 166.5t-28.5 150q0 61 21 106.5t54 69t66 34.5t64 11q-31 0 -64 11t-66 35t-54 69.5
t-21 106.5q0 80 57.5 238.5t57.5 238.5t-40 109t-126 26l-131 -4l-21 131q282 0 437 -74t155 -221q0 -82 -28.5 -175.5t-57 -178t-28.5 -144.5q0 -58 37 -83.5t120 -30.5z" />
    <glyph glyph-name="asciitilde" unicode="~" horiz-adv-x="1011" 
d="M82 354q41 124 119.5 200.5t150.5 76.5q54 0 105 -19t84 -41.5t74.5 -41.5t80.5 -19q49 0 86 34t84 118l64 -11q-43 -129 -114.5 -200.5t-156.5 -71.5q-55 0 -106 19t-83 41.5t-74 41.5t-81 19q-48 0 -85 -35.5t-85 -120.5z" />
    <glyph glyph-name="exclamdown" unicode="&#xa1;" horiz-adv-x="804" 
d="M453 545q0 -122 14.5 -255.5t49.5 -348.5t42 -267q14 -101 -33.5 -159t-128.5 -58q-85 0 -136.5 58t-37.5 159q10 67 43.5 270.5t49.5 341t16 259.5h121zM213 870q0 75 52 128t128 53q73 0 124.5 -53t51.5 -128t-51 -125.5t-125 -50.5q-77 0 -128.5 50.5t-51.5 125.5z
" />
    <glyph glyph-name="cent" unicode="&#xa2;" horiz-adv-x="1118" 
d="M547 1321q-42 154 76 154q58 0 75 -40.5t-4 -113.5l-20 -82q99 -3 183.5 -23t127.5 -44.5t43 -43.5q0 -84 -45 -141t-94 -57q-19 0 -41 8.5t-36 16.5t-37.5 28.5t-29 26l-28.5 28.5l-96 103h-23q-70 0 -129 -109.5t-59 -247.5q0 -172 79.5 -284.5t219.5 -112.5
q70 0 140.5 30t156.5 85l49 -47q-77 -113 -164 -182.5t-209 -86.5l12 -53q21 -73 4 -113t-75 -40q-118 0 -76 153l12 51q-193 19 -323 156.5t-130 327.5q0 144 63 267t168 200.5t232 97.5z" />
    <glyph glyph-name="sterling" unicode="&#xa3;" horiz-adv-x="1382" 
d="M86 106h20q64 1 108.5 12t82.5 40t57 86t19 143q0 103 -27 209h-211v127h174q-23 71 -34.5 109t-23 98.5t-11.5 113.5q0 195 144 313t376 118q79 0 187.5 -26t201.5 -71l22 -407h-75q-68 191 -159 285t-214 94q-98 0 -160.5 -62.5t-62.5 -175.5q0 -39 5.5 -78t18 -82.5
t22.5 -72.5t29 -81t27 -75h416l-10 -127h-367q18 -70 18 -143q0 -233 -184 -334q191 13 332 51q348 86 422 324h76q0 -92 -13.5 -166t-36 -124.5t-57 -88.5t-70 -59.5t-81.5 -34.5t-85.5 -17t-87.5 -4h-808z" />
    <glyph glyph-name="currency" unicode="&#xa4;" horiz-adv-x="1236" 
d="M625 186q-189 0 -330 113l-143 -143l-91 90l146 143q-98 135 -98 303q0 198 104 340l-152 150l91 92l149 -150q153 119 369 119q166 0 299 -90l121 121l90 -92l-115 -115q121 -137 121 -330q0 -222 -127 -368l121 -123l-90 -90l-127 127q-149 -97 -338 -97zM412 807
q0 -144 38 -263t104 -187t146 -68q81 0 132 87t51 249q0 219 -83.5 367.5t-205.5 148.5q-80 0 -131 -89.5t-51 -244.5z" />
    <glyph glyph-name="yen" unicode="&#xa5;" horiz-adv-x="1611" 
d="M457 0l20 94l51 17q62 23 92.5 58t36.5 89h-364v127h364v119h-364v127h350l-434 708l-170 -16l20 131h709l-20 -94l-101 -17q-67 -10 -78.5 -42t25.5 -93l295 -475l371 606l-220 -16l21 131h512l-21 -94l-84 -14q-42 -8 -74.5 -35.5t-72.5 -93.5l-356 -586h292v-127h-307
v-119h307v-127h-307v-143l228 16l-21 -131h-700z" />
    <glyph glyph-name="brokenbar" unicode="&#xa6;" horiz-adv-x="516" 
d="M184 956v672h148v-672h-148zM184 -342v672h148v-672h-148z" />
    <glyph glyph-name="section" unicode="&#xa7;" horiz-adv-x="1234" 
d="M520 -362q-181 0 -373 65l-26 408h76q151 -367 387 -367q78 0 127 51t49 137q0 28 -7.5 57t-16.5 53t-32 57.5t-38 54.5t-51.5 62.5t-55.5 62t-67.5 71.5t-71.5 76q-81 87 -135 169.5t-79 150t-30 131t6.5 113t37.5 95.5t55.5 79.5t66.5 64.5q24 107 127 176.5t256 69.5
q178 0 373 -66l26 -408h-75q-151 367 -387 367q-77 0 -126 -51t-49 -137q0 -28 7.5 -57t16.5 -53t31.5 -57.5t38 -55t51 -61.5t56 -62.5t67 -72t70.5 -75.5q112 -121 172 -232t71.5 -193.5t-11.5 -158t-60.5 -125t-91.5 -94.5q-24 -107 -128 -176t-257 -69zM338 1130
q-152 -234 182 -598q27 -29 77 -82.5t73 -78.5t61.5 -68.5t57 -68.5t44 -62t38 -64.5t23.5 -60.5t15 -65q30 48 40.5 100t0 124.5t-67 168t-157.5 205.5q-24 26 -76 82t-73.5 79t-61 68.5t-57 69t-44 61.5t-38 65t-22.5 60t-15 65z" />
    <glyph glyph-name="dieresis" unicode="&#xa8;" horiz-adv-x="706" 
d="M541 1225q-61 0 -103.5 41t-42.5 100t42.5 100t103.5 41q57 0 97 -41t40 -100t-40 -100t-97 -41zM27 1366q0 59 42 100t103 41q57 0 97 -41t40 -100t-40 -100t-97 -41q-61 0 -103 41t-42 100z" />
    <glyph glyph-name="copyright" unicode="&#xa9;" horiz-adv-x="1748" 
d="M874 -20q-220 0 -393.5 100t-267.5 270t-94 377q0 155 55.5 292.5t153 238t239.5 159t307 58.5t307 -58.5t240 -159t153.5 -238t55.5 -292.5t-55.5 -292t-153.5 -237.5t-240 -159t-307 -58.5zM266 727q0 -131 49.5 -251t132.5 -205.5t194.5 -136t231.5 -50.5t231.5 50.5
t194.5 136t133 205.5t50 251t-50 251t-133 205.5t-194.5 136t-231.5 50.5t-231.5 -50.5t-194.5 -136t-132.5 -205.5t-49.5 -251zM438 700q0 96 38.5 182.5t103 149t154.5 99t190 36.5q78 0 166.5 -17.5t134.5 -43.5l12 -227h-84q-42 92 -102.5 153.5t-120.5 61.5
q-92 0 -156.5 -105t-64.5 -252q0 -155 68.5 -266t166.5 -111q37 0 68 15t57.5 46t46.5 62t48 80q9 17 14 25h84l-70 -254q-51 -20 -130.5 -33.5t-146.5 -13.5q-200 0 -338.5 120t-138.5 293z" />
    <glyph glyph-name="ordfeminine" unicode="&#xaa;" horiz-adv-x="997" 
d="M694 625q-57 0 -86.5 39t-29.5 92h-31q-36 -32 -47 -42t-42 -33t-50 -31t-49 -16.5t-62 -8.5q-94 0 -146.5 47t-52.5 121q0 72 61.5 123t200.5 104l205 82v76q0 96 -29 135t-85 39q-15 0 -35 -6.5t-29 -14.5l-2 -74q-2 -48 -37.5 -83t-93.5 -35q-55 0 -88 29t-33 67
q0 25 71 83t166 107.5t152 49.5q143 0 223 -65.5t76 -186.5q-8 -170 -8 -404l127 -16v-74q-65 -50 -130.5 -77t-115.5 -27zM367 858q0 -30 20.5 -52t56.5 -22q48 0 84.5 28t36.5 77v137l-106 -59q-50 -28 -71 -52.5t-21 -56.5z" />
    <glyph glyph-name="guillemotleft" unicode="&#xab;" horiz-adv-x="1153" 
d="M803 502l239 -350h-84l-421 333v33l421 334h84zM111 485v33l438 387h84l-244 -403l244 -404h-84z" />
    <glyph glyph-name="logicalnot" unicode="&#xac;" horiz-adv-x="901" 
d="M102 561v127h697v-401h-137v274h-560z" />
    <glyph glyph-name="uni00AD" unicode="&#xad;" horiz-adv-x="894" 
d="M135 412v211h602v-211h-602z" />
    <glyph glyph-name="registered" unicode="&#xae;" horiz-adv-x="1093" 
d="M547 807q-180 0 -304 123.5t-124 302.5q0 180 124 305t304 125t304 -125t124 -305q0 -179 -124 -302.5t-304 -123.5zM205 1235q0 -143 99.5 -242.5t242.5 -99.5t242.5 99.5t99.5 242.5t-99.5 242.5t-242.5 99.5t-242.5 -99.5t-99.5 -242.5zM295 1024l10 59h23q16 0 21 8
t5 27v277h-53l10 59h285q82 0 136 -35t54 -90q0 -40 -31.5 -73t-86.5 -46l61 -77q21 -27 38.5 -43.5t47.5 -36.5l-22 -29q-136 0 -175 55l-81 123h-29v-119h51l-10 -59h-254zM508 1260h51q31 0 50.5 17.5t19.5 51.5q0 32 -20 49t-56 17h-45v-135z" />
    <glyph glyph-name="macron" unicode="&#xaf;" horiz-adv-x="665" 
d="M16 1225q0 30 25.5 77.5t48.5 47.5h584q0 -38 -21 -81.5t-53 -43.5h-584z" />
    <glyph glyph-name="degree" unicode="&#xb0;" horiz-adv-x="514" 
d="M258 1004q-99 0 -168.5 69t-69.5 168q0 97 70 165.5t168 68.5q97 0 166.5 -68.5t69.5 -165.5q0 -99 -69.5 -168t-166.5 -69zM137 1239q0 -51 35 -87t86 -36t86 36t35 87t-35 87t-86 36t-86 -36t-35 -87z" />
    <glyph glyph-name="plusminus" unicode="&#xb1;" horiz-adv-x="1024" 
d="M444 213v317h-313v127h313v318h138v-318h311v-127h-311v-317h-138zM131 0v127h762v-127h-762z" />
    <glyph glyph-name="uni00B2" unicode="&#xb2;" horiz-adv-x="954" 
d="M61 926l1 1h1l1 1l1 1h1l1 1l2 1q216 146 292 212q136 120 148 232q1 12 1 24q0 61 -33 100t-100 39q-106 0 -244 -123l-53 62q77 99 179 165t222 66q124 0 199.5 -72.5t75.5 -179.5q0 -72 -30 -132.5t-88 -109.5t-121 -85t-152 -76h174q88 0 138.5 36t100.5 123h64
l-49 -374q-63 26 -124 33.5t-167 7.5h-408z" />
    <glyph glyph-name="uni00B3" unicode="&#xb3;" horiz-adv-x="886" 
d="M414 856q-168 0 -312 59l2 277h64q42 -135 102 -193.5t148 -58.5q65 0 104 35t39 98q0 141 -244 141l-16 54q44 18 69 29t56.5 28.5t47.5 33t28 37.5t12 46q0 52 -33.5 78t-87.5 26q-61 0 -111.5 -31t-117.5 -96l-53 62q161 225 374 225q111 0 191 -49.5t80 -132.5
q0 -34 -15 -64.5t-36.5 -51.5t-58.5 -42.5t-66 -34.5t-74 -31q301 -21 301 -196q0 -79 -60 -137t-147.5 -84.5t-185.5 -26.5z" />
    <glyph glyph-name="acute" unicode="&#xb4;" horiz-adv-x="630" 
d="M66 1180q29 37 119.5 162.5t153 203.5t81.5 78q40 0 67 -44.5t27 -88.5q0 -21 -6.5 -40.5t-22 -37.5t-28.5 -30.5t-37.5 -28.5t-37.5 -24t-40 -23l-256 -148z" />
    <glyph glyph-name="uni00B5" unicode="&#xb5;" horiz-adv-x="1398" 
d="M514 -20q-90 0 -152 30q36 -190 168 -379l-258 -123q-38 69 -59.5 219t-21.5 296.5t8 273.5l10 -2v506l-146 80v75q187 65 396 80h33v-686q0 -203 172 -203q46 0 90.5 20t107.5 60v576l-143 80v75q195 63 393 78h33v-829l162 -21v-77q-75 -57 -174.5 -93t-188.5 -36h-33
l-26 137h-43q-174 -137 -328 -137z" />
    <glyph glyph-name="paragraph" unicode="&#xb6;" horiz-adv-x="1294" 
d="M547 557q-113 0 -210 54t-157.5 158t-60.5 237q0 127 66 231t173 160.5t230 56.5h626l-20 -94l-76 -17q-59 -11 -81.5 -44.5t-22.5 -94.5v-1059q0 -236 -76.5 -350t-267.5 -137l-15 49q57 31 96 69.5t62 80t34.5 104.5t15 123.5t3.5 155.5v1099h-102v-782h-217z" />
    <glyph glyph-name="periodcentered" unicode="&#xb7;" horiz-adv-x="765" 
d="M375 354q-69 0 -115.5 47t-46.5 115t46.5 114t115.5 46q66 0 113 -46.5t47 -113.5t-47 -114.5t-113 -47.5z" />
    <glyph glyph-name="cedilla" unicode="&#xb8;" horiz-adv-x="397" 
d="M76 -551q41 35 68.5 79t27.5 85q0 29 -7 50.5t-27 41.5t-38 32.5t-57 37.5l135 272h66l-31 -147q69 -37 106 -77t37 -95t-25 -105.5t-65 -87.5t-83 -63.5t-87 -42.5z" />
    <glyph glyph-name="uni00B9" unicode="&#xb9;" horiz-adv-x="858" 
d="M84 877l20 94l62 10q87 14 125.5 54t38.5 126v312l-236 -39v84q94 13 239 74t238 114l33 -20q-25 -103 -33 -200.5t-8 -287.5v-207l215 10l-20 -124h-674z" />
    <glyph glyph-name="ordmasculine" unicode="&#xba;" horiz-adv-x="1077" 
d="M520 625q-112 0 -206.5 51.5t-151 145.5t-56.5 210q0 199 127.5 320t323.5 121q173 0 294.5 -115t121.5 -291q0 -200 -128 -321t-325 -121zM371 1130q0 -180 57.5 -292.5t146.5 -112.5q59 0 96.5 58.5t37.5 185.5q0 180 -58.5 292.5t-148.5 112.5q-58 0 -94.5 -61.5
t-36.5 -182.5z" />
    <glyph glyph-name="guillemotright" unicode="&#xbb;" horiz-adv-x="1153" 
d="M350 502l-239 350h84l421 -334v-33l-421 -333h-84zM520 98l244 404l-244 403h84l438 -387v-33l-438 -387h-84z" />
    <glyph glyph-name="onequarter" unicode="&#xbc;" horiz-adv-x="1816" 
d="M84 659l20 95l62 10q87 14 125.5 54t38.5 126v311l-236 -38v83q94 13 238.5 74.5t238.5 114.5l33 -21q-25 -103 -33 -200t-8 -287v-207l215 10l-20 -125h-674zM598 0l788 1475l113 -41l-790 -1475zM1010 195l565 632l35 -10v-504h127l-21 -155h-106v-158h-203v158h-385z
M1217 313h190v217z" />
    <glyph glyph-name="onehalf" unicode="&#xbd;" horiz-adv-x="1910" 
d="M84 659l20 95l62 10q87 14 125.5 54t38.5 126v311l-236 -38v83q94 13 238.5 74.5t238.5 114.5l33 -21q-25 -103 -33 -200t-8 -287v-207l215 10l-20 -125h-674zM504 0l788 1475l113 -41l-791 -1475zM1051 47q59 40 85.5 58t76.5 53t72.5 53t60 49t54.5 51t40.5 48.5
t33.5 52.5t17.5 52t7.5 56q0 61 -33 100t-100 39q-107 0 -244 -122l-53 61q77 99 179 165t222 66q124 0 199.5 -72t75.5 -179q0 -72 -30 -133t-88 -110t-121 -85.5t-152 -75.5h174q88 0 138.5 36.5t100.5 123.5h64l-49 -375q-63 26 -124 33.5t-167 7.5h-408z" />
    <glyph glyph-name="threequarters" unicode="&#xbe;" horiz-adv-x="1822" 
d="M414 637q-168 0 -312 59l2 277h64q42 -135 102 -193.5t148 -58.5q65 0 104 35t39 98q0 141 -244 141l-16 54q44 18 69 29t56.5 28.5t47.5 33t28 37.5t12 46q0 52 -33.5 78t-87.5 26q-61 0 -111.5 -31t-117.5 -96l-53 62q161 225 374 225q111 0 191 -49.5t80 -132.5
q0 -34 -15 -64.5t-36.5 -51.5t-58.5 -42.5t-66 -34.5t-74 -31q301 -21 301 -196q0 -79 -60 -137t-147.5 -84.5t-185.5 -26.5zM555 0l788 1475l113 -41l-790 -1475zM1016 195l565 632l35 -10v-504h127l-21 -155h-106v-158h-203v158h-385zM1223 313h190v217z" />
    <glyph glyph-name="questiondown" unicode="&#xbf;" horiz-adv-x="1015" 
d="M666 571q4 -7 22.5 -42t24 -46.5t19.5 -42.5t19 -50t10 -47t5 -54q0 -57 -31.5 -109t-79 -89t-102.5 -74t-102.5 -64.5t-79 -59t-31.5 -59.5q0 -15 9 -27.5t30 -23.5t41.5 -19t58 -17.5t64.5 -15.5t75.5 -16t77.5 -16q35 -7 71 -79t36 -112q0 -65 -98 -65q-91 0 -184 37
t-169 100.5t-124 159.5t-48 205q0 56 29.5 109t73.5 92t96 79.5t96 72.5t73.5 70.5t29.5 75.5q0 56 -33 127h121zM389 856q0 75 51.5 127.5t124.5 52.5q76 0 128 -52.5t52 -127.5t-51.5 -125.5t-128.5 -50.5q-74 0 -125 50.5t-51 125.5z" />
    <glyph glyph-name="Agrave" unicode="&#xc0;" horiz-adv-x="1722" 
d="M977 0l20 94l72 17q64 15 82 44.5t-6 86.5l-74 157h-616l-119 -284l233 16l-20 -131h-510l20 94l74 17q51 11 79 44t60 107l406 961q-94 136 -260 190l8 41h467l620 -1339l170 16l-20 -131h-686zM424 1911q0 40 24.5 74t57.5 34q11 0 31 -14t48.5 -44t53 -57.5
t62.5 -73.5t58.5 -72t58.5 -73.5t46 -58.5l-22 -27l-246 127q-4 2 -24.5 11.5t-25.5 12t-23 12t-23.5 14t-19.5 15t-19.5 18t-14.5 20t-12.5 24t-6.5 26.5t-3 32zM504 514h514l-270 580z" />
    <glyph glyph-name="Aacute" unicode="&#xc1;" horiz-adv-x="1722" 
d="M977 0l20 94l72 17q64 15 82 44.5t-6 86.5l-74 157h-616l-119 -284l233 16l-20 -131h-510l20 94l74 17q51 11 79 44t60 107l406 961q-94 136 -260 190l8 41h467l620 -1339l170 16l-20 -131h-686zM504 514h514l-270 580zM516 1626q8 11 46 58.5t58.5 73.5t58.5 72
t62.5 73.5t53 57.5t48.5 44t31 14q33 0 57.5 -34t24.5 -74q0 -17 -3 -32t-6.5 -26.5t-12.5 -24t-14.5 -20t-19.5 -18t-19.5 -15t-23.5 -14t-23 -12t-25.5 -12t-24.5 -11.5l-245 -127z" />
    <glyph glyph-name="Acircumflex" unicode="&#xc2;" horiz-adv-x="1722" 
d="M977 0l20 94l72 17q64 15 82 44.5t-6 86.5l-74 157h-616l-119 -284l233 16l-20 -131h-510l20 94l74 17q51 11 79 44t60 107l406 961q-94 136 -260 190l8 41h467l620 -1339l170 16l-20 -131h-686zM373 1624q265 395 317 395q51 0 316 -395l-17 -25l-299 209l-299 -209z
M504 514h514l-270 580z" />
    <glyph glyph-name="Atilde" unicode="&#xc3;" horiz-adv-x="1722" 
d="M977 0l20 94l72 17q64 15 82 44.5t-6 86.5l-74 157h-616l-119 -284l233 16l-20 -131h-510l20 94l74 17q51 11 79 44t60 107l406 961q-94 136 -260 190l8 41h467l620 -1339l170 16l-20 -131h-686zM371 1671q35 111 101.5 194t129.5 83q36 0 152.5 -63.5t144.5 -63.5
q44 0 85.5 35.5t74.5 93.5l20 -21q-28 -115 -94.5 -199.5t-130.5 -84.5q-32 0 -82.5 28.5t-107.5 57t-103 28.5q-54 0 -170 -108zM504 514h514l-270 580z" />
    <glyph glyph-name="Adieresis" unicode="&#xc4;" horiz-adv-x="1722" 
d="M977 0l20 94l72 17q64 15 82 44.5t-6 86.5l-74 157h-616l-119 -284l233 16l-20 -131h-510l20 94l74 17q51 11 79 44t60 107l406 961q-94 136 -260 190l8 41h467l620 -1339l170 16l-20 -131h-686zM395 1780q0 54 37.5 90.5t93.5 36.5q53 0 89 -36.5t36 -90.5
q0 -53 -36.5 -90t-88.5 -37q-55 0 -93 37t-38 90zM504 514h514l-270 580zM727 1780q0 54 37.5 90.5t93.5 36.5q53 0 89 -36.5t36 -90.5q0 -53 -36.5 -90t-88.5 -37q-55 0 -93 37t-38 90z" />
    <glyph glyph-name="Aring" unicode="&#xc5;" horiz-adv-x="1722" 
d="M977 0l20 94l72 17q64 15 82 44.5t-6 86.5l-74 157h-616l-119 -284l233 16l-20 -131h-510l20 94l74 17q51 11 79 44t60 107l406 961q-94 136 -260 190l8 41h467l620 -1339l170 16l-20 -131h-686zM455 1761q0 79 64 126.5t171 47.5t170.5 -47t63.5 -127q0 -78 -63.5 -124
t-170.5 -46t-171 46t-64 124zM504 514h514l-270 580zM627 1761q0 -116 63 -116q62 0 62 116q0 121 -62 121q-63 0 -63 -121z" />
    <glyph glyph-name="AE" unicode="&#xc6;" horiz-adv-x="2304" 
d="M20 0l21 94l74 15q50 9 86.5 42t79.5 99l591 919q28 44 35.5 82t-8 71t-66 56.5t-133.5 34.5l9 41h1065q144 0 276 53l66 -499h-76q-30 69 -53.5 115t-55 90.5t-64 69.5t-76 40.5t-95.5 15.5h-307v-559h180q99 0 146.5 49t68.5 183h76v-561h-76q-23 129 -69.5 175
t-145.5 46h-180v-557h378q61 0 114 30t96 86t76 120.5t65 148.5h75l-94 -553q-117 53 -268 53h-920l21 94l61 15q103 27 103 129v434h-400l-358 -557l248 16l-21 -131h-545zM766 780h330v514z" />
    <glyph glyph-name="Ccedilla" unicode="&#xc7;" horiz-adv-x="1583" 
d="M915 -20h-8l-14 -68q69 -37 106 -77t37 -95t-25 -105.5t-65 -87.5t-83 -63.5t-87 -42.5l-20 20q41 35 68.5 79t27.5 85q0 29 -7 50.5t-27 41.5t-38 32.5t-57 37.5l98 197q-204 19 -364 113t-249 245.5t-89 335.5q0 181 64.5 332.5t174.5 252t256 156.5t310 56
q249 0 497 -107l21 -410h-76q-81 202 -196.5 297t-292.5 95q-193 0 -314 -159t-121 -450q0 -290 134 -463.5t356 -173.5q166 0 265.5 89t205.5 311h76l-82 -455q-201 -69 -482 -69z" />
    <glyph glyph-name="Egrave" unicode="&#xc8;" horiz-adv-x="1482" 
d="M90 0l21 94l63 15q100 26 100 129v1101l-194 -16l20 131h852q145 0 277 53l65 -499h-75q-30 69 -53.5 115t-55 90t-64.5 69.5t-76.5 41t-95.5 15.5h-307v-538h168q99 0 146.5 48.5t68.5 182.5h76v-561h-76q-23 129 -69.5 175t-145.5 46h-168v-577h379q61 0 114 30
t95.5 86t75.5 120.5t65 148.5h76l-94 -553q-117 53 -268 53h-920zM485 1909q0 40 24.5 74t57.5 34q9 0 23.5 -9t33.5 -27t38.5 -38.5t45.5 -50.5t46.5 -54t48.5 -59t45 -56t42.5 -54t35.5 -45l-23 -27l-246 127q-4 2 -24.5 11.5t-25.5 12t-23 12t-23.5 14t-19.5 15t-19.5 18
t-14.5 20t-12.5 24t-6.5 26.5t-3 32z" />
    <glyph glyph-name="Eacute" unicode="&#xc9;" horiz-adv-x="1482" 
d="M90 0l21 94l63 15q100 26 100 129v1101l-194 -16l20 131h852q145 0 277 53l65 -499h-75q-30 69 -53.5 115t-55 90t-64.5 69.5t-76.5 41t-95.5 15.5h-307v-538h168q99 0 146.5 48.5t68.5 182.5h76v-561h-76q-23 129 -69.5 175t-145.5 46h-168v-577h379q61 0 114 30
t95.5 86t75.5 120.5t65 148.5h76l-94 -553q-117 53 -268 53h-920zM578 1624q8 11 46 58.5t58.5 73.5t58.5 72t62.5 73.5t53 57.5t48.5 44t31 14q33 0 57.5 -34t24.5 -74q0 -17 -3 -32t-6.5 -26.5t-12.5 -24t-14.5 -20t-19.5 -18t-19.5 -15t-23.5 -14t-23 -12t-25.5 -12
t-24.5 -11.5l-246 -127z" />
    <glyph glyph-name="Ecircumflex" unicode="&#xca;" horiz-adv-x="1482" 
d="M90 0l21 94l63 15q100 26 100 129v1101l-194 -16l20 131h852q145 0 277 53l65 -499h-75q-30 69 -53.5 115t-55 90t-64.5 69.5t-76.5 41t-95.5 15.5h-307v-538h168q99 0 146.5 48.5t68.5 182.5h76v-561h-76q-23 129 -69.5 175t-145.5 46h-168v-577h379q61 0 114 30
t95.5 86t75.5 120.5t65 148.5h76l-94 -553q-117 53 -268 53h-920zM436 1622q265 395 318 395q50 0 315 -395l-16 -25l-299 209l-299 -209z" />
    <glyph glyph-name="Edieresis" unicode="&#xcb;" horiz-adv-x="1482" 
d="M90 0l21 94l63 15q100 26 100 129v1101l-194 -16l20 131h852q145 0 277 53l65 -499h-75q-30 69 -53.5 115t-55 90t-64.5 69.5t-76.5 41t-95.5 15.5h-307v-538h168q99 0 146.5 48.5t68.5 182.5h76v-561h-76q-23 129 -69.5 175t-145.5 46h-168v-577h379q61 0 114 30
t95.5 86t75.5 120.5t65 148.5h76l-94 -553q-117 53 -268 53h-920zM459 1780q0 53 38 90t93 37q51 0 87 -37t36 -90t-36 -90t-87 -37q-55 0 -93 37t-38 90zM791 1780q0 53 38 90t93 37q51 0 86.5 -37t35.5 -90t-35.5 -90t-86.5 -37q-55 0 -93 37t-38 90z" />
    <glyph glyph-name="Igrave" unicode="&#xcc;" horiz-adv-x="841" 
d="M90 0l21 94l63 15q53 15 76.5 47t23.5 84v1099l-194 -16l20 131h645l-20 -94l-66 -17q-92 -25 -92 -131v-1097l195 16l-21 -131h-651zM166 1909q0 40 24.5 74t57.5 34q11 0 31 -14t48.5 -44t53 -57.5t62.5 -73.5t58.5 -72t58.5 -73.5t46 -58.5l-22 -27l-246 127
q-4 2 -24.5 11.5t-25.5 12t-23 12t-23.5 14t-19.5 15t-19.5 18t-14.5 20t-12.5 24t-6.5 26.5t-3 32z" />
    <glyph glyph-name="Iacute" unicode="&#xcd;" horiz-adv-x="841" 
d="M90 0l21 94l63 15q53 15 76.5 47t23.5 84v1099l-194 -16l20 131h645l-20 -94l-66 -17q-92 -25 -92 -131v-1097l195 16l-21 -131h-651zM258 1624q8 11 46 58.5t58.5 73.5t58.5 72t62.5 73.5t53 57.5t48.5 44t31 14q33 0 57.5 -34t24.5 -74q0 -17 -3 -32t-6.5 -26.5
t-12.5 -24t-14.5 -20t-19.5 -18t-19.5 -15t-23.5 -14t-23 -12t-25.5 -12t-24.5 -11.5l-245 -127z" />
    <glyph glyph-name="Icircumflex" unicode="&#xce;" horiz-adv-x="841" 
d="M90 0l21 94l63 15q53 15 76.5 47t23.5 84v1099l-194 -16l20 131h645l-20 -94l-66 -17q-92 -25 -92 -131v-1097l195 16l-21 -131h-651zM115 1622q265 395 317 395q51 0 316 -395l-17 -25l-299 209l-299 -209z" />
    <glyph glyph-name="Idieresis" unicode="&#xcf;" horiz-adv-x="841" 
d="M90 0l21 94l63 15q53 15 76.5 47t23.5 84v1099l-194 -16l20 131h645l-20 -94l-66 -17q-92 -25 -92 -131v-1097l195 16l-21 -131h-651zM137 1780q0 53 38 90t93 37q52 0 88.5 -37t36.5 -90t-36.5 -90t-88.5 -37q-55 0 -93 37t-38 90zM469 1780q0 53 38 90t93 37
q52 0 88.5 -37t36.5 -90t-36.5 -90t-88.5 -37q-55 0 -93 37t-38 90z" />
    <glyph glyph-name="Eth" unicode="&#xd0;" horiz-adv-x="1751" 
d="M100 690v94h176v555l-196 -16l20 131h715q179 0 332.5 -53t259 -143.5t165.5 -215t60 -264.5q0 -223 -102 -400.5t-286 -277.5t-417 -100h-735l21 94l59 15q48 12 76 46t28 85v450h-176zM569 115h254q150 0 261.5 81.5t168 221.5t56.5 319q0 271 -147.5 436.5
t-420.5 165.5h-172v-555h258v-94h-258v-575z" />
    <glyph glyph-name="Ntilde" unicode="&#xd1;" horiz-adv-x="1742" 
d="M86 0l20 94l99 10q57 6 81.5 32t24.5 83v1004q-113 113 -264 190l8 41h453l870 -1018v903l-260 -16l21 131h587l-20 -94l-90 -10q-115 -14 -115 -142v-1134l-123 -94l-944 1103v-968l258 16l-20 -131h-586zM592 1669q35 111 101.5 194t129.5 83q36 0 152.5 -63.5
t144.5 -63.5q44 0 85.5 35.5t74.5 93.5l20 -21q-28 -115 -94.5 -200t-130.5 -85q-26 0 -63.5 18t-71 39.5t-77.5 39.5t-81 18q-54 0 -170 -108z" />
    <glyph glyph-name="Ograve" unicode="&#xd2;" horiz-adv-x="1798" 
d="M899 -20q-159 0 -303 56.5t-248.5 153t-166.5 231.5t-62 286q0 159 60.5 301.5t164.5 245t248.5 162t306.5 59.5q159 0 303 -56.5t248.5 -153t166.5 -231.5t62 -286q0 -159 -60.5 -301.5t-164.5 -245t-248.5 -162t-306.5 -59.5zM442 793q0 -193 67.5 -351t186 -248
t262.5 -90q112 0 203 73t143 201t52 284q0 193 -67.5 350.5t-186 247.5t-262.5 90q-170 0 -284 -159.5t-114 -397.5zM631 1909q0 40 24.5 74t57.5 34q11 0 31 -14t48.5 -44t53 -57.5t62.5 -73.5t58.5 -72t58.5 -73.5t46 -58.5l-22 -27l-246 127q-4 2 -24.5 11.5t-25.5 12
t-23 12t-23.5 14t-19.5 15t-19.5 18t-14.5 20t-12.5 24t-6.5 26.5t-3 32z" />
    <glyph glyph-name="Oacute" unicode="&#xd3;" horiz-adv-x="1798" 
d="M899 -20q-159 0 -303 56.5t-248.5 153t-166.5 231.5t-62 286q0 159 60.5 301.5t164.5 245t248.5 162t306.5 59.5q159 0 303 -56.5t248.5 -153t166.5 -231.5t62 -286q0 -159 -60.5 -301.5t-164.5 -245t-248.5 -162t-306.5 -59.5zM442 793q0 -193 67.5 -351t186 -248
t262.5 -90q112 0 203 73t143 201t52 284q0 193 -67.5 350.5t-186 247.5t-262.5 90q-170 0 -284 -159.5t-114 -397.5zM723 1624q8 11 46 58.5t58.5 73.5t58.5 72t62.5 73.5t53 57.5t48.5 44t31 14q33 0 57.5 -34t24.5 -74q0 -17 -3 -32t-6.5 -26.5t-12.5 -24t-14.5 -20
t-19.5 -18t-19.5 -15t-23.5 -14t-23 -12t-25.5 -12t-24.5 -11.5l-246 -127z" />
    <glyph glyph-name="Ocircumflex" unicode="&#xd4;" horiz-adv-x="1798" 
d="M899 -20q-159 0 -303 56.5t-248.5 153t-166.5 231.5t-62 286q0 159 60.5 301.5t164.5 245t248.5 162t306.5 59.5q159 0 303 -56.5t248.5 -153t166.5 -231.5t62 -286q0 -159 -60.5 -301.5t-164.5 -245t-248.5 -162t-306.5 -59.5zM442 793q0 -193 67.5 -351t186 -248
t262.5 -90q112 0 203 73t143 201t52 284q0 193 -67.5 350.5t-186 247.5t-262.5 90q-170 0 -284 -159.5t-114 -397.5zM580 1622q265 395 317 395q50 0 315 -395l-16 -25l-299 209l-299 -209z" />
    <glyph glyph-name="Otilde" unicode="&#xd5;" horiz-adv-x="1798" 
d="M899 -20q-159 0 -303 56.5t-248.5 153t-166.5 231.5t-62 286q0 159 60.5 301.5t164.5 245t248.5 162t306.5 59.5q159 0 303 -56.5t248.5 -153t166.5 -231.5t62 -286q0 -159 -60.5 -301.5t-164.5 -245t-248.5 -162t-306.5 -59.5zM442 793q0 -193 67.5 -351t186 -248
t262.5 -90q112 0 203 73t143 201t52 284q0 193 -67.5 350.5t-186 247.5t-262.5 90q-170 0 -284 -159.5t-114 -397.5zM578 1669q35 111 101.5 194t129.5 83q36 0 152.5 -63.5t144.5 -63.5q44 0 85.5 35.5t74.5 93.5l20 -21q-28 -115 -94.5 -200t-130.5 -85q-26 0 -63.5 18
t-71 39.5t-77.5 39.5t-81 18q-54 0 -170 -108z" />
    <glyph glyph-name="Odieresis" unicode="&#xd6;" horiz-adv-x="1798" 
d="M899 -20q-159 0 -303 56.5t-248.5 153t-166.5 231.5t-62 286q0 159 60.5 301.5t164.5 245t248.5 162t306.5 59.5q159 0 303 -56.5t248.5 -153t166.5 -231.5t62 -286q0 -159 -60.5 -301.5t-164.5 -245t-248.5 -162t-306.5 -59.5zM442 793q0 -193 67.5 -351t186 -248
t262.5 -90q112 0 203 73t143 201t52 284q0 193 -67.5 350.5t-186 247.5t-262.5 90q-170 0 -284 -159.5t-114 -397.5zM602 1780q0 53 38 90t93 37q51 0 87 -37t36 -90t-36 -90t-87 -37q-55 0 -93 37t-38 90zM934 1780q0 53 38 90t93 37q51 0 87 -37t36 -90t-36 -90t-87 -37
q-55 0 -93 37t-38 90z" />
    <glyph glyph-name="multiply" unicode="&#xd7;" horiz-adv-x="956" 
d="M131 205l254 254l-250 250l88 88l250 -250l254 254l98 -99l-254 -251l250 -250l-90 -90l-250 249l-254 -254z" />
    <glyph glyph-name="Oslash" unicode="&#xd8;" horiz-adv-x="1867" 
d="M119 0l233 231q-186 202 -186 476q0 159 60.5 301.5t164.5 245t248.5 162t306.5 59.5q279 0 496 -164l147 145h160l-221 -219q198 -208 198 -489q0 -159 -60.5 -301.5t-164.5 -245t-248.5 -162t-306.5 -59.5q-145 0 -276.5 46t-235.5 130l-155 -156h-160zM489 793
q0 -198 70 -357l707 701q-70 101 -167.5 157t-211.5 56q-170 0 -284 -159.5t-114 -397.5zM614 334q72 -108 174 -169t218 -61q112 0 203 73t142.5 201t51.5 284q0 205 -78 374z" />
    <glyph glyph-name="Ugrave" unicode="&#xd9;" horiz-adv-x="1726" 
d="M905 -20q-294 0 -468.5 131.5t-174.5 353.5v874l-182 -16l20 131h672l-20 -94l-90 -17q-107 -29 -107 -163v-641q0 -186 114 -292t306 -106q173 0 272 96t99 273v829l-224 -16l21 131h504l-21 -94l-53 -10q-55 -11 -79 -43t-24 -99v-673q0 -264 -151 -409.5t-414 -145.5z
M688 1909q0 40 24.5 74t57.5 34q11 0 31 -14t48.5 -44t53 -57.5t62.5 -73.5t58.5 -72t58.5 -73.5t46 -58.5l-22 -27l-246 127q-4 2 -24.5 11.5t-25.5 12t-23 12t-23.5 14t-19.5 15t-19.5 18t-14.5 20t-12.5 24t-6.5 26.5t-3 32z" />
    <glyph glyph-name="Uacute" unicode="&#xda;" horiz-adv-x="1726" 
d="M905 -20q-294 0 -468.5 131.5t-174.5 353.5v874l-182 -16l20 131h672l-20 -94l-90 -17q-107 -29 -107 -163v-641q0 -186 114 -292t306 -106q173 0 272 96t99 273v829l-224 -16l21 131h504l-21 -94l-53 -10q-55 -11 -79 -43t-24 -99v-673q0 -264 -151 -409.5t-414 -145.5z
M780 1624q10 12 35.5 45t42.5 54t45 56t48.5 59t46.5 54t45.5 50.5t38.5 38.5t33.5 27t23.5 9q33 0 57.5 -34t24.5 -74q0 -17 -3 -32t-6.5 -26.5t-12.5 -24t-14.5 -20t-19.5 -18t-19.5 -15t-23.5 -14t-23 -12t-25.5 -12t-24.5 -11.5l-246 -127z" />
    <glyph glyph-name="Ucircumflex" unicode="&#xdb;" horiz-adv-x="1726" 
d="M905 -20q-294 0 -468.5 131.5t-174.5 353.5v874l-182 -16l20 131h672l-20 -94l-90 -17q-107 -29 -107 -163v-641q0 -186 114 -292t306 -106q173 0 272 96t99 273v829l-224 -16l21 131h504l-21 -94l-53 -10q-55 -11 -79 -43t-24 -99v-673q0 -264 -151 -409.5t-414 -145.5z
M637 1622q265 395 317 395q51 0 316 -395l-17 -25l-299 209l-299 -209z" />
    <glyph glyph-name="Udieresis" unicode="&#xdc;" horiz-adv-x="1726" 
d="M905 -20q-294 0 -468.5 131.5t-174.5 353.5v874l-182 -16l20 131h672l-20 -94l-90 -17q-107 -29 -107 -163v-641q0 -186 114 -292t306 -106q173 0 272 96t99 273v829l-224 -16l21 131h504l-21 -94l-53 -10q-55 -11 -79 -43t-24 -99v-673q0 -264 -151 -409.5t-414 -145.5z
M659 1780q0 53 38.5 90t93.5 37q52 0 88 -37t36 -90t-36 -90t-88 -37q-55 0 -93.5 37t-38.5 90zM991 1780q0 53 38 90t93 37q52 0 88.5 -37t36.5 -90t-36.5 -90t-88.5 -37q-55 0 -93 37t-38 90z" />
    <glyph glyph-name="Yacute" unicode="&#xdd;" horiz-adv-x="1611" 
d="M457 0l20 94l51 17q67 25 98 66t31 104v327l-448 731l-170 -16l20 131h709l-20 -94l-101 -17q-67 -10 -78.5 -42t25.5 -93l295 -475l371 606l-220 -16l21 131h512l-21 -94l-84 -14q-42 -8 -74.5 -35.5t-72.5 -93.5l-371 -609v-493l228 16l-21 -131h-700zM696 1624
q10 12 35.5 45t42.5 54t45 56t48.5 59t46.5 54t45.5 50.5t38.5 38.5t33.5 27t23.5 9q33 0 57.5 -34t24.5 -74q0 -17 -3 -32t-6.5 -26.5t-12.5 -24t-14.5 -20t-19.5 -18t-19.5 -15t-23.5 -14t-23 -12t-25.5 -12t-24.5 -11.5l-246 -127z" />
    <glyph glyph-name="Thorn" unicode="&#xde;" horiz-adv-x="1390" 
d="M90 0l21 94l63 15q53 15 76.5 47t23.5 84v1099l-194 -16l20 131h645l-20 -94l-66 -17q-92 -25 -92 -131v-55h152q276 0 439 -108t163 -293q0 -202 -159 -330.5t-406 -128.5h-189v-182l195 16l-21 -131h-651zM567 401h113q139 0 228 89t89 227q0 149 -88 237t-229 88h-113
v-641z" />
    <glyph glyph-name="germandbls" unicode="&#xdf;" horiz-adv-x="1439" 
d="M942 -20q-156 0 -309 61l-21 358h72q42 -149 114 -234t173 -85q63 0 108 43.5t45 120.5q0 68 -42.5 140.5t-119.5 143t-151 125.5t-170 117q147 99 223 213.5t76 257.5q0 106 -54.5 170t-152.5 64q-110 0 -171.5 -88t-61.5 -234v-1153h-430l20 84l41 14q38 14 62 55
t24 93v819q0 165 71.5 282t193.5 173.5t282 56.5q202 0 328.5 -92t126.5 -250q0 -221 -275 -379q191 -88 296.5 -219.5t105.5 -271.5q0 -160 -115 -272.5t-289 -112.5z" />
    <glyph glyph-name="agrave" unicode="&#xe0;" horiz-adv-x="1181" 
d="M831 -20q-71 0 -109 48t-38 113h-39q-41 -37 -58 -52t-53 -41.5t-61 -37.5t-61.5 -20.5t-75.5 -9.5q-110 0 -174 57.5t-64 150.5q0 90 75 154.5t241 128.5l256 100v95q0 122 -38.5 182.5t-105.5 60.5q-45 0 -80 -26l-2 -107q0 -61 -45 -104t-118 -43q-68 0 -109 36
t-41 83q0 31 88.5 100.5t207 128.5t189.5 59q175 0 264 -80t83 -233q-11 -232 -11 -516l172 -21v-75q-165 -131 -293 -131zM371 1491q0 44 27 88.5t67 44.5q19 0 81.5 -78t153 -203.5t119.5 -162.5l-20 -21l-256 148q-27 15 -40 23t-37.5 24t-37.5 28.5t-28.5 30.5t-22 37.5
t-6.5 40.5zM397 260q0 -39 28 -66.5t83 -27.5q60 0 111 40t51 101v172l-144 -73q-70 -39 -99.5 -73t-29.5 -73z" />
    <glyph glyph-name="aacute" unicode="&#xe1;" horiz-adv-x="1181" 
d="M831 -20q-71 0 -109 48t-38 113h-39q-41 -37 -58 -52t-53 -41.5t-61 -37.5t-61.5 -20.5t-75.5 -9.5q-110 0 -174 57.5t-64 150.5q0 90 75 154.5t241 128.5l256 100v95q0 122 -38.5 182.5t-105.5 60.5q-45 0 -80 -26l-2 -107q0 -61 -45 -104t-118 -43q-68 0 -109 36
t-41 83q0 31 88.5 100.5t207 128.5t189.5 59q175 0 264 -80t83 -233q-11 -232 -11 -516l172 -21v-75q-165 -131 -293 -131zM373 1180q29 37 119.5 162.5t153 203.5t81.5 78q40 0 67 -44.5t27 -88.5q0 -21 -6.5 -40.5t-22 -37.5t-28.5 -30.5t-37.5 -28.5t-37.5 -24t-40 -23
l-256 -148zM397 260q0 -39 28 -66.5t83 -27.5q60 0 111 40t51 101v172l-144 -73q-70 -39 -99.5 -73t-29.5 -73z" />
    <glyph glyph-name="acircumflex" unicode="&#xe2;" horiz-adv-x="1181" 
d="M831 -20q-71 0 -109 48t-38 113h-39q-41 -37 -58 -52t-53 -41.5t-61 -37.5t-61.5 -20.5t-75.5 -9.5q-110 0 -174 57.5t-64 150.5q0 90 75 154.5t241 128.5l256 100v95q0 122 -38.5 182.5t-105.5 60.5q-45 0 -80 -26l-2 -107q0 -61 -45 -104t-118 -43q-68 0 -109 36
t-41 83q0 31 88.5 100.5t207 128.5t189.5 59q175 0 264 -80t83 -233q-11 -232 -11 -516l172 -21v-75q-165 -131 -293 -131zM297 1180q7 12 28.5 50t35 61t37 63.5t40.5 67t38.5 61t38 57t33 43.5t28.5 31t20 10t20 -10t28.5 -31t33 -43.5t38 -57t38.5 -61t40.5 -67t37 -63.5
t35 -61t28.5 -50l-21 -21l-278 230l-279 -230zM397 260q0 -39 28 -66.5t83 -27.5q60 0 111 40t51 101v172l-144 -73q-70 -39 -99.5 -73t-29.5 -73z" />
    <glyph glyph-name="atilde" unicode="&#xe3;" horiz-adv-x="1181" 
d="M831 -20q-71 0 -109 48t-38 113h-39q-41 -37 -58 -52t-53 -41.5t-61 -37.5t-61.5 -20.5t-75.5 -9.5q-110 0 -174 57.5t-64 150.5q0 90 75 154.5t241 128.5l256 100v95q0 122 -38.5 182.5t-105.5 60.5q-45 0 -80 -26l-2 -107q0 -61 -45 -104t-118 -43q-68 0 -109 36
t-41 83q0 31 88.5 100.5t207 128.5t189.5 59q175 0 264 -80t83 -233q-11 -232 -11 -516l172 -21v-75q-165 -131 -293 -131zM240 1231q35 109 106.5 192.5t136.5 83.5q36 0 152.5 -63.5t144.5 -63.5q44 0 85.5 35.5t74.5 93.5l21 -20q-28 -115 -95 -200t-131 -85
q-26 0 -63.5 18t-71 39.5t-77.5 39.5t-81 18q-33 0 -84 -32.5t-98 -76.5zM397 260q0 -39 28 -66.5t83 -27.5q60 0 111 40t51 101v172l-144 -73q-70 -39 -99.5 -73t-29.5 -73z" />
    <glyph glyph-name="adieresis" unicode="&#xe4;" horiz-adv-x="1181" 
d="M831 -20q-71 0 -109 48t-38 113h-39q-41 -37 -58 -52t-53 -41.5t-61 -37.5t-61.5 -20.5t-75.5 -9.5q-110 0 -174 57.5t-64 150.5q0 90 75 154.5t241 128.5l256 100v95q0 122 -38.5 182.5t-105.5 60.5q-45 0 -80 -26l-2 -107q0 -61 -45 -104t-118 -43q-68 0 -109 36
t-41 83q0 31 88.5 100.5t207 128.5t189.5 59q175 0 264 -80t83 -233q-11 -232 -11 -516l172 -21v-75q-165 -131 -293 -131zM268 1366q0 59 42.5 100t103.5 41q57 0 97 -41t40 -100t-40 -100t-97 -41q-61 0 -103.5 41t-42.5 100zM397 260q0 -39 28 -66.5t83 -27.5
q60 0 111 40t51 101v172l-144 -73q-70 -39 -99.5 -73t-29.5 -73zM637 1366q0 59 42 100t103 41q57 0 97.5 -41.5t40.5 -99.5t-40.5 -99.5t-97.5 -41.5q-61 0 -103 41t-42 100z" />
    <glyph glyph-name="aring" unicode="&#xe5;" horiz-adv-x="1181" 
d="M831 -20q-71 0 -109 48t-38 113h-39q-41 -37 -58 -52t-53 -41.5t-61 -37.5t-61.5 -20.5t-75.5 -9.5q-110 0 -174 57.5t-64 150.5q0 90 75 154.5t241 128.5l256 100v95q0 122 -38.5 182.5t-105.5 60.5q-45 0 -80 -26l-2 -107q0 -61 -45 -104t-118 -43q-68 0 -109 36
t-41 83q0 31 88.5 100.5t207 128.5t189.5 59q175 0 264 -80t83 -233q-11 -232 -11 -516l172 -21v-75q-165 -131 -293 -131zM348 1339q0 85 69 138t179 53q109 0 177.5 -53t68.5 -138q0 -86 -68.5 -138t-177.5 -52q-111 0 -179.5 52t-68.5 138zM397 260q0 -39 28 -66.5
t83 -27.5q60 0 111 40t51 101v172l-144 -73q-70 -39 -99.5 -73t-29.5 -73zM520 1339q0 -57 20 -97t56 -40t56 40t20 97q0 56 -20 97t-56 41t-56 -41t-20 -97z" />
    <glyph glyph-name="ae" unicode="&#xe6;" horiz-adv-x="1654" 
d="M1116 -20q-200 0 -331.5 135t-137.5 350l-131 -68q-70 -38 -99.5 -71.5t-29.5 -73.5q0 -39 28 -66.5t83 -27.5q60 0 106 43l29 -58q-71 -83 -143 -127.5t-164 -44.5q-110 0 -174 58t-64 151q0 95 72.5 155t242.5 128l248 100q2 6 2 19l4 77q4 121 -34.5 181.5
t-106.5 60.5q-48 0 -80 -24l-2 -107q0 -62 -45.5 -104.5t-118.5 -42.5q-68 0 -108.5 35t-40.5 81q0 33 88.5 102.5t207 128t189.5 58.5q175 0 266 -82q129 90 302 90q166 0 274 -105t108 -239q0 -65 -30 -117h-451v56l121 35q44 17 58 33.5t14 50.5q0 78 -42.5 133
t-107.5 55q-83 0 -125.5 -102.5t-42.5 -268.5q0 -172 78 -277.5t223 -105.5q70 0 133 22t138 70l49 -47q-75 -115 -192.5 -182t-262.5 -67z" />
    <glyph glyph-name="ccedilla" unicode="&#xe7;" horiz-adv-x="1118" 
d="M483 -539q41 35 69 79.5t28 84.5q0 29 -7 50.5t-27 41.5t-38 32.5t-57 37.5l98 197q-190 22 -316.5 158t-126.5 323q0 159 75.5 291t199.5 206t268 74q104 0 195 -19.5t137.5 -44.5t46.5 -46q0 -84 -45 -141.5t-94 -57.5q-29 0 -63 19t-52.5 35.5t-48.5 46.5l-8 8
l-96 102h-23q-70 0 -129 -109t-59 -247q0 -172 79.5 -285t219.5 -113q70 0 140.5 30t156.5 85l49 -47q-82 -122 -180 -193.5t-240 -78.5l-14 -68q69 -37 106 -77t37 -95t-25 -105.5t-65 -87.5t-83 -63.5t-87 -42.5z" />
    <glyph glyph-name="egrave" unicode="&#xe8;" horiz-adv-x="1124" 
d="M573 -20q-204 0 -335.5 141.5t-131.5 363.5q0 239 146 395t369 156q179 0 286 -97t107 -247q0 -69 -31 -117h-573v-8q0 -172 78 -277.5t221 -105.5q72 0 134 21.5t136 70.5l49 -47q-73 -114 -191.5 -181.5t-263.5 -67.5zM369 1491q0 44 27 88.5t67 44.5q19 0 81.5 -78
t153 -203.5t119.5 -162.5l-20 -21l-256 148q-27 15 -40 23t-37.5 24t-37.5 28.5t-28.5 30.5t-22 37.5t-6.5 40.5zM416 676l221 12q50 3 70 20.5t20 53.5q0 76 -37.5 126t-93.5 50q-73 0 -119.5 -70.5t-60.5 -191.5z" />
    <glyph glyph-name="eacute" unicode="&#xe9;" horiz-adv-x="1124" 
d="M573 -20q-204 0 -335.5 141.5t-131.5 363.5q0 239 146 395t369 156q179 0 286 -97t107 -247q0 -69 -31 -117h-573v-8q0 -172 78 -277.5t221 -105.5q72 0 134 21.5t136 70.5l49 -47q-73 -114 -191.5 -181.5t-263.5 -67.5zM371 1180q29 37 119.5 162.5t153 203.5t81.5 78
q40 0 67 -44.5t27 -88.5q0 -21 -6.5 -40.5t-22 -37.5t-28.5 -30.5t-37.5 -28.5t-37.5 -24t-40 -23l-256 -148zM416 676l221 12q50 3 70 20.5t20 53.5q0 76 -37.5 126t-93.5 50q-73 0 -119.5 -70.5t-60.5 -191.5z" />
    <glyph glyph-name="ecircumflex" unicode="&#xea;" horiz-adv-x="1124" 
d="M573 -20q-204 0 -335.5 141.5t-131.5 363.5q0 239 146 395t369 156q179 0 286 -97t107 -247q0 -69 -31 -117h-573v-8q0 -172 78 -277.5t221 -105.5q72 0 134 21.5t136 70.5l49 -47q-73 -114 -191.5 -181.5t-263.5 -67.5zM295 1180q7 12 28.5 50t35 61t37 63.5t40.5 67
t38.5 61t38 57t33 43.5t28.5 31t20 10t20 -10t28.5 -31t33 -43.5t38 -57t38.5 -61t40.5 -67t37 -63.5t35 -61t28.5 -50l-21 -21l-278 230l-279 -230zM416 676l221 12q50 3 70 20.5t20 53.5q0 76 -37.5 126t-93.5 50q-73 0 -119.5 -70.5t-60.5 -191.5z" />
    <glyph glyph-name="edieresis" unicode="&#xeb;" horiz-adv-x="1124" 
d="M573 -20q-204 0 -335.5 141.5t-131.5 363.5q0 239 146 395t369 156q179 0 286 -97t107 -247q0 -69 -31 -117h-573v-8q0 -172 78 -277.5t221 -105.5q72 0 134 21.5t136 70.5l49 -47q-73 -114 -191.5 -181.5t-263.5 -67.5zM266 1366q0 59 42.5 100t103.5 41q57 0 97 -41
t40 -100t-40 -100t-97 -41q-61 0 -103.5 41t-42.5 100zM416 676l221 12q50 3 70 20.5t20 53.5q0 76 -37.5 126t-93.5 50q-73 0 -119.5 -70.5t-60.5 -191.5zM635 1366q0 59 42 100t103 41q57 0 97.5 -41.5t40.5 -99.5t-40.5 -99.5t-97.5 -41.5q-61 0 -103 41t-42 100z" />
    <glyph glyph-name="igrave" unicode="&#xec;" horiz-adv-x="763" 
d="M84 0l20 84l41 14q93 38 93 148v555l-146 80v75q83 29 207 54.5t209 25.5h33q-21 -170 -21 -368v-559l195 16l-21 -125h-610zM152 1491q0 44 27 88.5t67 44.5q19 0 81.5 -78t153 -203.5t119.5 -162.5l-20 -21l-256 148q-27 15 -40 23t-37.5 24t-37.5 28.5t-28.5 30.5
t-22 37.5t-6.5 40.5z" />
    <glyph glyph-name="iacute" unicode="&#xed;" horiz-adv-x="763" 
d="M84 0l20 84l41 14q93 38 93 148v555l-146 80v75q83 29 207 54.5t209 25.5h33q-21 -170 -21 -368v-559l195 16l-21 -125h-610zM154 1180q29 37 119.5 162.5t153 203.5t81.5 78q40 0 67 -44.5t27 -88.5q0 -21 -6.5 -40.5t-22 -37.5t-28.5 -30.5t-37.5 -28.5t-37.5 -24
t-40 -23l-256 -148z" />
    <glyph glyph-name="icircumflex" unicode="&#xee;" horiz-adv-x="763" 
d="M84 0l20 84l41 14q93 38 93 148v555l-146 80v75q83 29 207 54.5t209 25.5h33q-21 -170 -21 -368v-559l195 16l-21 -125h-610zM78 1180q7 12 28.5 50t35 61t37 63.5t40.5 67t38.5 61t38 57t33 43.5t28.5 31t20 10t20 -10t28.5 -31t33 -43.5t38 -57t38.5 -61t40.5 -67
t37 -63.5t35 -61t28.5 -50l-21 -21l-278 230l-279 -230z" />
    <glyph glyph-name="idieresis" unicode="&#xef;" horiz-adv-x="763" 
d="M84 0l20 84l41 14q93 38 93 148v555l-146 80v75q83 29 207 54.5t209 25.5h33q-21 -170 -21 -368v-559l195 16l-21 -125h-610zM49 1366q0 59 42.5 100t103.5 41q57 0 97 -41t40 -100t-40 -100t-97 -41q-61 0 -103.5 41t-42.5 100zM418 1366q0 59 42 100t103 41
q57 0 97 -41t40 -100t-40 -100t-97 -41q-61 0 -103 41t-42 100z" />
    <glyph glyph-name="eth" unicode="&#xf0;" horiz-adv-x="1277" 
d="M602 -20q-207 0 -351.5 143t-144.5 356q0 100 28 188.5t79 155t118.5 115t149.5 73.5t170 25q47 0 90 -6q-73 137 -178 242l-194 -156l-72 68l192 153q-126 99 -278 148l41 71q177 -46 346 -133l182 146l72 -68l-164 -129q222 -137 352.5 -334.5t130.5 -445.5
q0 -282 -157 -447t-412 -165zM410 594q0 -142 34.5 -259t96 -185t137.5 -68q88 0 139 104.5t51 305.5q0 182 -51 350q-80 92 -190 92q-96 0 -156.5 -92t-60.5 -248z" />
    <glyph glyph-name="ntilde" unicode="&#xf1;" horiz-adv-x="1419" 
d="M760 0l20 84l39 12q48 12 71 44t23 93v420q0 107 -38 147t-113 40q-101 0 -242 -64v-667l162 16l-20 -125h-578l20 84l41 16q93 38 93 146v547l-154 88v75q216 80 360 80h33l33 -162h45q38 30 67 50.5t78.5 50t101 45.5t101.5 16q293 0 293 -313v-614l182 16l-20 -125
h-598zM430 1231q35 108 107 192t137 84q36 0 152.5 -63.5t144.5 -63.5q43 0 84.5 35.5t74.5 93.5l21 -20q-28 -115 -94.5 -200t-130.5 -85q-26 0 -63.5 18t-71 39.5t-77.5 39.5t-81 18q-33 0 -84 -32.5t-98 -76.5z" />
    <glyph glyph-name="ograve" unicode="&#xf2;" horiz-adv-x="1290" 
d="M623 -20q-141 0 -259 64.5t-188 181t-70 259.5q0 250 159 400.5t403 150.5q216 0 366 -144.5t150 -361.5q0 -250 -158.5 -400t-402.5 -150zM410 600q0 -144 38 -263t104 -187t146 -68q81 0 132 87t51 249q0 219 -83.5 367.5t-205.5 148.5q-80 0 -131 -89.5t-51 -244.5z
M428 1491q0 44 27 88.5t67 44.5q19 0 81.5 -78t153.5 -203.5t120 -162.5l-21 -21l-256 148q-27 15 -40 23t-37.5 24t-37.5 28.5t-28.5 30.5t-22 37.5t-6.5 40.5z" />
    <glyph glyph-name="oacute" unicode="&#xf3;" horiz-adv-x="1290" 
d="M623 -20q-141 0 -259 64.5t-188 181t-70 259.5q0 250 159 400.5t403 150.5q216 0 366 -144.5t150 -361.5q0 -250 -158.5 -400t-402.5 -150zM410 600q0 -144 38 -263t104 -187t146 -68q81 0 132 87t51 249q0 219 -83.5 367.5t-205.5 148.5q-80 0 -131 -89.5t-51 -244.5z
M430 1180q29 37 119.5 162.5t153 203.5t81.5 78q40 0 67.5 -45t27.5 -88q0 -21 -6.5 -40.5t-22 -37.5t-28.5 -30.5t-37.5 -28.5t-37.5 -24t-40 -23l-256 -148z" />
    <glyph glyph-name="ocircumflex" unicode="&#xf4;" horiz-adv-x="1290" 
d="M623 -20q-141 0 -259 64.5t-188 181t-70 259.5q0 250 159 400.5t403 150.5q216 0 366 -144.5t150 -361.5q0 -250 -158.5 -400t-402.5 -150zM354 1180q7 12 28.5 50t35 61t37 63.5t40.5 67t38.5 61t38 57t33 43.5t28.5 31t20 10t20 -10t28.5 -31t33 -43.5t38 -57t38.5 -61
t40.5 -67t37 -63.5t35 -61t28.5 -50l-20 -21l-279 230l-278 -230zM410 600q0 -144 38 -263t104 -187t146 -68q81 0 132 87t51 249q0 219 -83.5 367.5t-205.5 148.5q-80 0 -131 -89.5t-51 -244.5z" />
    <glyph glyph-name="otilde" unicode="&#xf5;" horiz-adv-x="1290" 
d="M623 -20q-141 0 -259 64.5t-188 181t-70 259.5q0 250 159 400.5t403 150.5q216 0 366 -144.5t150 -361.5q0 -250 -158.5 -400t-402.5 -150zM297 1231q35 108 107 192t137 84q36 0 152.5 -63.5t144.5 -63.5q43 0 84.5 35.5t74.5 93.5l21 -20q-28 -115 -94.5 -200
t-130.5 -85q-26 0 -63.5 18t-71 39.5t-77.5 39.5t-81 18q-33 0 -84.5 -32.5t-98.5 -76.5zM410 600q0 -144 38 -263t104 -187t146 -68q81 0 132 87t51 249q0 219 -83.5 367.5t-205.5 148.5q-80 0 -131 -89.5t-51 -244.5z" />
    <glyph glyph-name="odieresis" unicode="&#xf6;" horiz-adv-x="1290" 
d="M623 -20q-141 0 -259 64.5t-188 181t-70 259.5q0 250 159 400.5t403 150.5q216 0 366 -144.5t150 -361.5q0 -250 -158.5 -400t-402.5 -150zM326 1366q0 59 42 100t103 41q57 0 97 -41t40 -100t-40 -100t-97 -41q-61 0 -103 41t-42 100zM410 600q0 -144 38 -263t104 -187
t146 -68q81 0 132 87t51 249q0 219 -83.5 367.5t-205.5 148.5q-80 0 -131 -89.5t-51 -244.5zM694 1366q0 59 42.5 100t103.5 41q57 0 97 -41t40 -100t-40 -100t-97 -41q-61 0 -103.5 41t-42.5 100z" />
    <glyph glyph-name="divide" unicode="&#xf7;" horiz-adv-x="1085" 
d="M131 440v127h823v-127h-823zM430 188q0 47 33 80t80 33t79.5 -33t32.5 -80t-32.5 -79.5t-79.5 -32.5t-80 32.5t-33 79.5zM430 819q0 47 33 80t80 33t79.5 -33t32.5 -80q0 -46 -32.5 -79t-79.5 -33t-80 32.5t-33 79.5z" />
    <glyph glyph-name="oslash" unicode="&#xf8;" horiz-adv-x="1294" 
d="M72 0l151 162q-117 136 -117 323q0 250 159 400.5t403 150.5q192 0 331 -114l88 94h134l-152 -162q115 -137 115 -324q0 -250 -158.5 -400t-402.5 -150q-193 0 -332 114l-86 -94h-133zM410 600q0 -123 30 -240l371 398q-39 83 -96.5 129.5t-122.5 46.5q-80 0 -131 -89.5
t-51 -244.5zM479 260q39 -84 96 -131t123 -47q81 0 132 87t51 249q0 128 -31 237z" />
    <glyph glyph-name="ugrave" unicode="&#xf9;" horiz-adv-x="1372" 
d="M514 -20q-146 0 -225.5 81.5t-79.5 217.5v522l-146 80v75q187 65 396 80h33v-686q0 -203 172 -203q46 0 90.5 20t107.5 60v576l-143 80v75q195 63 393 78h33v-829l162 -21v-77q-75 -57 -174.5 -93t-188.5 -36h-33l-26 137h-43q-174 -137 -328 -137zM453 1491
q0 44 27 88.5t67 44.5q19 0 81.5 -78t153 -203.5t119.5 -162.5l-20 -21l-256 148q-27 15 -40 23t-37.5 24t-37.5 28.5t-28.5 30.5t-22 37.5t-6.5 40.5z" />
    <glyph glyph-name="uacute" unicode="&#xfa;" horiz-adv-x="1372" 
d="M514 -20q-146 0 -225.5 81.5t-79.5 217.5v522l-146 80v75q187 65 396 80h33v-686q0 -203 172 -203q46 0 90.5 20t107.5 60v576l-143 80v75q195 63 393 78h33v-829l162 -21v-77q-75 -57 -174.5 -93t-188.5 -36h-33l-26 137h-43q-174 -137 -328 -137zM455 1180
q29 37 119.5 162.5t153 203.5t81.5 78q40 0 67 -44.5t27 -88.5q0 -21 -6.5 -40.5t-22 -37.5t-28.5 -30.5t-37.5 -28.5t-37.5 -24t-40 -23l-256 -148z" />
    <glyph glyph-name="ucircumflex" unicode="&#xfb;" horiz-adv-x="1372" 
d="M514 -20q-146 0 -225.5 81.5t-79.5 217.5v522l-146 80v75q187 65 396 80h33v-686q0 -203 172 -203q46 0 90.5 20t107.5 60v576l-143 80v75q195 63 393 78h33v-829l162 -21v-77q-75 -57 -174.5 -93t-188.5 -36h-33l-26 137h-43q-174 -137 -328 -137zM379 1180
q7 12 28.5 50t35 61t37 63.5t40.5 67t38.5 61t38 57t33 43.5t28.5 31t20 10t20 -10t28.5 -31t33 -43.5t38 -57t38.5 -61t40.5 -67t37 -63.5t35 -61t28.5 -50l-21 -21l-278 230l-279 -230z" />
    <glyph glyph-name="udieresis" unicode="&#xfc;" horiz-adv-x="1372" 
d="M514 -20q-146 0 -225.5 81.5t-79.5 217.5v522l-146 80v75q187 65 396 80h33v-686q0 -203 172 -203q46 0 90.5 20t107.5 60v576l-143 80v75q195 63 393 78h33v-829l162 -21v-77q-75 -57 -174.5 -93t-188.5 -36h-33l-26 137h-43q-174 -137 -328 -137zM352 1366
q0 59 42.5 100t103.5 41q57 0 97 -41t40 -100t-40 -100t-97 -41q-61 0 -103.5 41t-42.5 100zM721 1366q0 59 42 100t103 41q57 0 97.5 -41.5t40.5 -99.5t-40.5 -99.5t-97.5 -41.5q-61 0 -103 41t-42 100z" />
    <glyph glyph-name="yacute" unicode="&#xfd;" horiz-adv-x="1275" 
d="M299 -492q-69 0 -140 101q-56 79 -65 143q-5 39 17 39h249q139 0 205 154l21 49l-430 907l-142 -10l21 125h647l-20 -84l-58 -12q-136 -27 -72 -170l197 -428l250 579l-188 -10l20 125h438l-20 -84l-55 -17q-41 -13 -78.5 -54t-63.5 -101l-389 -889q-73 -170 -160 -266.5
t-184 -96.5zM496 1180q29 37 119.5 162.5t153 203.5t81.5 78q40 0 67 -44.5t27 -88.5q0 -21 -6.5 -40.5t-22 -37.5t-28.5 -30.5t-37.5 -28.5t-37.5 -24t-40 -23l-256 -148z" />
    <glyph glyph-name="thorn" unicode="&#xfe;" horiz-adv-x="1351" 
d="M68 -471l20 84l41 14q92 38 92 148v1550l-147 76v76q249 79 418 79h32q-20 -294 -20 -456v-207h33q5 4 26.5 22.5t30 25.5t30.5 23.5t35.5 23.5t37 18.5t43 16.5t45.5 9t53 4q113 -1 204 -66.5t141 -179t50 -251.5q0 -133 -40 -240.5t-109.5 -176.5t-162 -105.5
t-200.5 -36.5q-112 0 -217 30v-372l235 16l-20 -125h-651zM504 223q0 -59 59 -102t135 -43q74 0 127.5 57t79 148.5t25.5 205.5q0 173 -70 263t-168 92q-95 3 -188 -72v-549z" />
    <glyph glyph-name="ydieresis" unicode="&#xff;" horiz-adv-x="1275" 
d="M299 -492q-69 0 -140 101q-56 79 -65 143q-5 39 17 39h249q139 0 205 154l21 49l-430 907l-142 -10l21 125h647l-20 -84l-58 -12q-136 -27 -72 -170l197 -428l250 579l-188 -10l20 125h438l-20 -84l-55 -17q-41 -13 -78.5 -54t-63.5 -101l-389 -889q-73 -170 -160 -266.5
t-184 -96.5zM391 1366q0 59 42.5 100t103.5 41q57 0 97 -41t40 -100t-40 -100t-97 -41q-61 0 -103.5 41t-42.5 100zM760 1366q0 59 42 100t103 41q57 0 97 -41t40 -100t-40 -100t-97 -41q-61 0 -103 41t-42 100z" />
    <glyph glyph-name="Amacron" unicode="&#x100;" horiz-adv-x="1722" 
d="M977 0l20 94l72 17q64 15 82 44.5t-6 86.5l-74 157h-616l-119 -284l233 16l-20 -131h-510l20 94l74 17q51 11 79 44t60 107l406 961q-94 136 -260 190l8 41h467l620 -1339l170 16l-20 -131h-686zM373 1665q0 30 25 77.5t48 47.5h584q0 -38 -21 -81.5t-53 -43.5h-583z
M504 514h514l-270 580z" />
    <glyph glyph-name="amacron" unicode="&#x101;" horiz-adv-x="1181" 
d="M831 -20q-71 0 -109 48t-38 113h-39q-41 -37 -58 -52t-53 -41.5t-61 -37.5t-61.5 -20.5t-75.5 -9.5q-110 0 -174 57.5t-64 150.5q0 90 75 154.5t241 128.5l256 100v95q0 122 -38.5 182.5t-105.5 60.5q-45 0 -80 -26l-2 -107q0 -61 -45 -104t-118 -43q-68 0 -109 36
t-41 83q0 31 88.5 100.5t207 128.5t189.5 59q175 0 264 -80t83 -233q-11 -232 -11 -516l172 -21v-75q-165 -131 -293 -131zM279 1225q0 30 25 77.5t48 47.5h584q0 -38 -21 -81.5t-53 -43.5h-583zM397 260q0 -39 28 -66.5t83 -27.5q60 0 111 40t51 101v172l-144 -73
q-70 -39 -99.5 -73t-29.5 -73z" />
    <glyph glyph-name="Abreve" unicode="&#x102;" horiz-adv-x="1722" 
d="M977 0l20 94l72 17q64 15 82 44.5t-6 86.5l-74 157h-616l-119 -284l233 16l-20 -131h-510l20 94l74 17q51 11 79 44t60 107l406 961q-94 136 -260 190l8 41h467l620 -1339l170 16l-20 -131h-686zM412 1991l20 20q14 -100 84 -162.5t174 -62.5q100 0 172 63.5t86 161.5
l21 -20q-2 -104 -35 -192.5t-97 -144t-147 -55.5q-131 0 -204.5 114t-73.5 278zM504 514h514l-270 580z" />
    <glyph glyph-name="abreve" unicode="&#x103;" horiz-adv-x="1181" 
d="M831 -20q-71 0 -109 48t-38 113h-39q-41 -37 -58 -52t-53 -41.5t-61 -37.5t-61.5 -20.5t-75.5 -9.5q-110 0 -174 57.5t-64 150.5q0 90 75 154.5t241 128.5l256 100v95q0 122 -38.5 182.5t-105.5 60.5q-45 0 -80 -26l-2 -107q0 -61 -45 -104t-118 -43q-68 0 -109 36
t-41 83q0 31 88.5 100.5t207 128.5t189.5 59q175 0 264 -80t83 -233q-11 -232 -11 -516l172 -21v-75q-165 -131 -293 -131zM317 1550l21 21q14 -100 84 -162.5t174 -62.5q100 0 172 63.5t86 161.5l20 -21q-2 -104 -34.5 -192t-96.5 -143.5t-147 -55.5q-88 0 -153 55.5
t-95.5 143t-30.5 192.5zM397 260q0 -39 28 -66.5t83 -27.5q60 0 111 40t51 101v172l-144 -73q-70 -39 -99.5 -73t-29.5 -73z" />
    <glyph glyph-name="Aogonek" unicode="&#x104;" horiz-adv-x="1722" 
d="M977 0l20 94l72 17q64 15 82 44.5t-6 86.5l-74 157h-616l-119 -284l233 16l-20 -131h-510l20 94l74 17q51 11 79 44t60 107l406 961q-94 136 -260 190l8 41h467l620 -1339l170 16l-20 -131h-244q-114 -90 -114 -203q0 -48 33.5 -81t84.5 -33q73 0 125 34l21 -20
q-36 -42 -126.5 -109t-105.5 -67q-92 0 -147 45.5t-55 122.5q0 74 41 156.5t114 154.5h-313zM504 514h514l-270 580z" />
    <glyph glyph-name="aogonek" unicode="&#x105;" horiz-adv-x="1181" 
d="M336 -20q-110 0 -174 57.5t-64 150.5q0 90 75 154.5t241 128.5l256 100v95q0 122 -38.5 182.5t-105.5 60.5q-45 0 -80 -26l-2 -107q0 -61 -45 -104t-118 -43q-68 0 -109 36t-41 83q0 31 88.5 100.5t207 128.5t189.5 59q175 0 264 -80t83 -233q-11 -232 -11 -516l172 -21
v-75q-85 -68 -178 -107q-149 -97 -149 -227q0 -48 34 -81.5t84 -33.5q72 0 125 35l21 -21q-36 -42 -126.5 -109t-105.5 -67q-92 0 -147 45.5t-55 122.5q0 76 42.5 161.5t118.5 156.5q-51 14 -77.5 57.5t-26.5 97.5h-39q-41 -37 -58 -52t-53 -41.5t-61 -37.5t-61.5 -20.5
t-75.5 -9.5zM397 260q0 -39 28 -66.5t83 -27.5q60 0 111 40t51 101v172l-144 -73q-70 -39 -99.5 -73t-29.5 -73z" />
    <glyph glyph-name="Cacute" unicode="&#x106;" horiz-adv-x="1583" 
d="M915 -20q-227 0 -409.5 90.5t-284.5 250t-102 357.5q0 181 64.5 332.5t174.5 252t256 156.5t310 56q249 0 497 -107l21 -410h-76q-81 202 -196.5 297t-292.5 95q-193 0 -314 -159t-121 -450q0 -290 134 -463.5t356 -173.5q166 0 265.5 89t205.5 311h76l-82 -455
q-201 -69 -482 -69zM709 1624q8 11 46 58.5t58.5 73.5t58.5 72t62.5 73.5t53 57.5t48.5 44t31 14q33 0 57.5 -34t24.5 -74q0 -17 -3 -32t-6.5 -26.5t-12.5 -24t-14.5 -20t-19.5 -18t-19.5 -15t-23.5 -14t-23 -12t-25.5 -12t-24.5 -11.5l-246 -127z" />
    <glyph glyph-name="cacute" unicode="&#x107;" horiz-adv-x="1118" 
d="M610 -20q-138 0 -254 64.5t-183 176t-67 244.5q0 159 75.5 291t199.5 206t268 74q104 0 195 -19.5t137.5 -44.5t46.5 -46q0 -84 -45 -141.5t-94 -57.5q-29 0 -63 19t-52.5 35.5t-48.5 46.5l-8 8l-96 102h-23q-70 0 -129 -109t-59 -247q0 -172 79.5 -285t219.5 -113
q70 0 140.5 30t156.5 85l49 -47q-41 -60 -81 -104.5t-93.5 -85t-122 -61.5t-148.5 -21zM426 1180q29 37 119.5 162.5t153 203.5t81.5 78q40 0 67 -44.5t27 -88.5q0 -21 -6.5 -40.5t-22 -37.5t-28.5 -30.5t-37.5 -28.5t-37.5 -24t-40 -23l-256 -148z" />
    <glyph glyph-name="Ccircumflex" unicode="&#x108;" horiz-adv-x="1583" 
d="M915 -20q-227 0 -409.5 90.5t-284.5 250t-102 357.5q0 181 64.5 332.5t174.5 252t256 156.5t310 56q249 0 497 -107l21 -410h-76q-81 202 -196.5 297t-292.5 95q-193 0 -314 -159t-121 -450q0 -290 134 -463.5t356 -173.5q166 0 265.5 89t205.5 311h76l-82 -455
q-201 -69 -482 -69zM567 1622q265 395 318 395q50 0 315 -395l-16 -25l-299 209l-299 -209z" />
    <glyph glyph-name="ccircumflex" unicode="&#x109;" horiz-adv-x="1118" 
d="M610 -20q-138 0 -254 64.5t-183 176t-67 244.5q0 159 75.5 291t199.5 206t268 74q104 0 195 -19.5t137.5 -44.5t46.5 -46q0 -84 -45 -141.5t-94 -57.5q-29 0 -63 19t-52.5 35.5t-48.5 46.5l-8 8l-96 102h-23q-70 0 -129 -109t-59 -247q0 -172 79.5 -285t219.5 -113
q70 0 140.5 30t156.5 85l49 -47q-41 -60 -81 -104.5t-93.5 -85t-122 -61.5t-148.5 -21zM350 1180q7 12 28.5 50t35 61t37 63.5t40.5 67t38.5 61t38 57t33 43.5t28.5 31t20 10t20 -10t28.5 -31t33 -43.5t38 -57t38.5 -61t40.5 -67t37 -63.5t35 -61t28.5 -50l-20 -21l-279 230
l-278 -230z" />
    <glyph glyph-name="Cdotaccent" unicode="&#x10a;" horiz-adv-x="1583" 
d="M915 -20q-227 0 -409.5 90.5t-284.5 250t-102 357.5q0 181 64.5 332.5t174.5 252t256 156.5t310 56q249 0 497 -107l21 -410h-76q-81 202 -196.5 297t-292.5 95q-193 0 -314 -159t-121 -450q0 -290 134 -463.5t356 -173.5q166 0 265.5 89t205.5 311h76l-82 -455
q-201 -69 -482 -69zM723 1829q0 66 47.5 113t116.5 47q64 0 109.5 -47t45.5 -113t-45.5 -113t-109.5 -47q-69 0 -116.5 47t-47.5 113z" />
    <glyph glyph-name="cdotaccent" unicode="&#x10b;" horiz-adv-x="1118" 
d="M610 -20q-138 0 -254 64.5t-183 176t-67 244.5q0 159 75.5 291t199.5 206t268 74q104 0 195 -19.5t137.5 -44.5t46.5 -46q0 -84 -45 -141.5t-94 -57.5q-29 0 -63 19t-52.5 35.5t-48.5 46.5l-8 8l-96 102h-23q-70 0 -129 -109t-59 -247q0 -172 79.5 -285t219.5 -113
q70 0 140.5 30t156.5 85l49 -47q-41 -60 -81 -104.5t-93.5 -85t-122 -61.5t-148.5 -21zM487 1391q0 66 47.5 112.5t116.5 46.5q65 0 110.5 -46.5t45.5 -112.5t-46 -113t-110 -47q-69 0 -116.5 47t-47.5 113z" />
    <glyph glyph-name="Ccaron" unicode="&#x10c;" horiz-adv-x="1583" 
d="M915 -20q-227 0 -409.5 90.5t-284.5 250t-102 357.5q0 181 64.5 332.5t174.5 252t256 156.5t310 56q249 0 497 -107l21 -410h-76q-81 202 -196.5 297t-292.5 95q-193 0 -314 -159t-121 -450q0 -290 134 -463.5t356 -173.5q166 0 265.5 89t205.5 311h76l-82 -455
q-201 -69 -482 -69zM567 1991l19 24l299 -209l299 209l16 -24q-266 -396 -315 -396q-52 0 -318 396z" />
    <glyph glyph-name="ccaron" unicode="&#x10d;" horiz-adv-x="1118" 
d="M610 -20q-138 0 -254 64.5t-183 176t-67 244.5q0 159 75.5 291t199.5 206t268 74q104 0 195 -19.5t137.5 -44.5t46.5 -46q0 -84 -45 -141.5t-94 -57.5q-29 0 -63 19t-52.5 35.5t-48.5 46.5l-8 8l-96 102h-23q-70 0 -129 -109t-59 -247q0 -172 79.5 -285t219.5 -113
q70 0 140.5 30t156.5 85l49 -47q-41 -60 -81 -104.5t-93.5 -85t-122 -61.5t-148.5 -21zM350 1614l21 20l278 -229l279 229l20 -20q-8 -14 -29 -50.5t-35 -61t-37 -63.5t-40 -66.5t-38.5 -61.5t-38 -57t-32.5 -44t-28.5 -31t-20.5 -10t-20.5 10t-28.5 31t-32.5 44t-38 57
t-38.5 61.5t-40 66.5t-37 63.5t-35 61t-29 50.5z" />
    <glyph glyph-name="Dcaron" unicode="&#x10e;" horiz-adv-x="1751" 
d="M92 0l21 94l59 15q48 12 76 46t28 85v1099l-196 -16l20 131h715q179 0 332.5 -53t259 -143.5t165.5 -215t60 -264.5q0 -223 -102 -400.5t-286 -277.5t-417 -100h-735zM424 1991l18 24l299 -209l299 209l17 -24q-266 -396 -316 -396q-51 0 -317 396zM569 115h254
q150 0 261.5 81.5t168 221.5t56.5 319q0 271 -147.5 436.5t-420.5 165.5h-172v-1224z" />
    <glyph glyph-name="dcaron" unicode="&#x10f;" horiz-adv-x="1333" 
d="M532 -20q-122 0 -220.5 67t-152 176.5t-53.5 237.5q0 248 159 411.5t399 163.5q76 0 159 -22v311l-184 76v76q78 25 221 52t227 27h39q-20 -303 -20 -544v-805l143 -62v-63q-124 -59 -350 -102h-33l-32 116h-27q-45 -36 -76 -57t-85.5 -40t-113.5 -19zM397 535
q0 -179 68.5 -289.5t181.5 -110.5q30 0 56 5.5t51 20t34.5 21t34.5 25.5v536q0 90 -47.5 142.5t-120.5 52.5q-78 0 -138.5 -61.5t-90 -152t-29.5 -189.5zM1255 1053v327q0 90 24.5 131t104.5 41q38 0 66.5 -15.5t42.5 -43.5t5 -73.5t-44 -100.5l-166 -266h-33z" />
    <glyph glyph-name="Dcroat" unicode="&#x110;" horiz-adv-x="1751" 
d="M100 690v94h176v555l-196 -16l20 131h715q179 0 332.5 -53t259 -143.5t165.5 -215t60 -264.5q0 -223 -102 -400.5t-286 -277.5t-417 -100h-735l21 94l59 15q48 12 76 46t28 85v450h-176zM569 115h254q150 0 261.5 81.5t168 221.5t56.5 319q0 271 -147.5 436.5
t-420.5 165.5h-172v-555h258v-94h-258v-575z" />
    <glyph glyph-name="dcroat" unicode="&#x111;" horiz-adv-x="1349" 
d="M492 1159v94h331v72l-184 76v76q78 25 221 52t227 27h39q-12 -206 -16 -303h154v-94h-156q-2 -49 -2 -147v-805l143 -62v-63q-124 -59 -350 -102h-33l-32 116h-27q-45 -36 -76 -57t-85.5 -40t-113.5 -19q-122 0 -220.5 67t-152 176.5t-53.5 237.5q0 248 159 411.5
t399 163.5q76 0 159 -22v145h-331zM397 535q0 -179 68.5 -289.5t181.5 -110.5q30 0 56 5.5t51 20t34.5 21t34.5 25.5v536q0 90 -47.5 142.5t-120.5 52.5q-78 0 -138.5 -61.5t-90 -152t-29.5 -189.5z" />
    <glyph glyph-name="Emacron" unicode="&#x112;" horiz-adv-x="1482" 
d="M90 0l21 94l63 15q100 26 100 129v1101l-194 -16l20 131h852q145 0 277 53l65 -499h-75q-30 69 -53.5 115t-55 90t-64.5 69.5t-76.5 41t-95.5 15.5h-307v-538h168q99 0 146.5 48.5t68.5 182.5h76v-561h-76q-23 129 -69.5 175t-145.5 46h-168v-577h379q61 0 114 30
t95.5 86t75.5 120.5t65 148.5h76l-94 -553q-117 53 -268 53h-920zM434 1663q0 30 25.5 77.5t48.5 47.5h584q0 -38 -21 -81.5t-53 -43.5h-584z" />
    <glyph glyph-name="emacron" unicode="&#x113;" horiz-adv-x="1124" 
d="M573 -20q-204 0 -335.5 141.5t-131.5 363.5q0 239 146 395t369 156q179 0 286 -97t107 -247q0 -69 -31 -117h-573v-8q0 -172 78 -277.5t221 -105.5q72 0 134 21.5t136 70.5l49 -47q-73 -114 -191.5 -181.5t-263.5 -67.5zM276 1225q0 30 25.5 77.5t48.5 47.5h584
q0 -38 -21 -81.5t-53 -43.5h-584zM416 676l221 12q50 3 70 20.5t20 53.5q0 76 -37.5 126t-93.5 50q-73 0 -119.5 -70.5t-60.5 -191.5z" />
    <glyph glyph-name="Edotaccent" unicode="&#x116;" horiz-adv-x="1482" 
d="M90 0l21 94l63 15q100 26 100 129v1101l-194 -16l20 131h852q145 0 277 53l65 -499h-75q-30 69 -53.5 115t-55 90t-64.5 69.5t-76.5 41t-95.5 15.5h-307v-538h168q99 0 146.5 48.5t68.5 182.5h76v-561h-76q-23 129 -69.5 175t-145.5 46h-168v-577h379q61 0 114 30
t95.5 86t75.5 120.5t65 148.5h76l-94 -553q-117 53 -268 53h-920zM592 1829q0 66 47.5 113t116.5 47q64 0 109.5 -47t45.5 -113t-45.5 -113t-109.5 -47q-69 0 -116.5 47t-47.5 113z" />
    <glyph glyph-name="edotaccent" unicode="&#x117;" horiz-adv-x="1124" 
d="M573 -20q-204 0 -335.5 141.5t-131.5 363.5q0 239 146 395t369 156q179 0 286 -97t107 -247q0 -69 -31 -117h-573v-8q0 -172 78 -277.5t221 -105.5q72 0 134 21.5t136 70.5l49 -47q-73 -114 -191.5 -181.5t-263.5 -67.5zM416 676l221 12q50 3 70 20.5t20 53.5
q0 76 -37.5 126t-93.5 50q-73 0 -119.5 -70.5t-60.5 -191.5zM432 1391q0 66 47.5 112.5t116.5 46.5q65 0 110.5 -46.5t45.5 -112.5t-46 -113t-110 -47q-69 0 -116.5 47t-47.5 113z" />
    <glyph glyph-name="Eogonek" unicode="&#x118;" horiz-adv-x="1482" 
d="M90 0l21 94l63 15q100 26 100 129v1101l-194 -16l20 131h852q145 0 277 53l65 -499h-75q-30 69 -53.5 115t-55 90t-64.5 69.5t-76.5 41t-95.5 15.5h-307v-538h168q99 0 146.5 48.5t68.5 182.5h76v-561h-76q-23 129 -69.5 175t-145.5 46h-168v-577h379q61 0 114 30
t95.5 86t75.5 120.5t65 148.5h76l-94 -553q-108 50 -246 53q-143 -97 -143 -223q0 -48 34 -81.5t85 -33.5q72 0 125 35l20 -21q-36 -42 -126 -109t-105 -67q-92 0 -147.5 46t-55.5 122q0 80 47 169.5t129 162.5h-805z" />
    <glyph glyph-name="eogonek" unicode="&#x119;" horiz-adv-x="1124" 
d="M573 -20q-204 0 -335.5 141.5t-131.5 363.5q0 239 146 395t369 156q179 0 286 -97t107 -247q0 -69 -31 -117h-573v-8q0 -172 78 -277.5t221 -105.5q72 0 134 21.5t136 70.5l49 -47q-85 -136 -233 -202v-2q-150 -97 -150 -228q0 -48 34 -81t85 -33q73 0 125 34l20 -20
q-36 -42 -126 -109t-105 -67q-92 0 -147.5 46t-55.5 122q0 70 36 147.5t101 145.5q-14 -2 -39 -2zM416 676l221 12q50 3 70 20.5t20 53.5q0 76 -37.5 126t-93.5 50q-73 0 -119.5 -70.5t-60.5 -191.5z" />
    <glyph glyph-name="Ecaron" unicode="&#x11a;" horiz-adv-x="1482" 
d="M90 0l21 94l63 15q100 26 100 129v1101l-194 -16l20 131h852q145 0 277 53l65 -499h-75q-30 69 -53.5 115t-55 90t-64.5 69.5t-76.5 41t-95.5 15.5h-307v-538h168q99 0 146.5 48.5t68.5 182.5h76v-561h-76q-23 129 -69.5 175t-145.5 46h-168v-577h379q61 0 114 30
t95.5 86t75.5 120.5t65 148.5h76l-94 -553q-117 53 -268 53h-920zM436 1991l19 24l299 -209l299 209l16 -24q-266 -396 -315 -396q-52 0 -318 396z" />
    <glyph glyph-name="ecaron" unicode="&#x11b;" horiz-adv-x="1124" 
d="M573 -20q-204 0 -335.5 141.5t-131.5 363.5q0 239 146 395t369 156q179 0 286 -97t107 -247q0 -69 -31 -117h-573v-8q0 -172 78 -277.5t221 -105.5q72 0 134 21.5t136 70.5l49 -47q-73 -114 -191.5 -181.5t-263.5 -67.5zM295 1614l20 20l279 -229l278 229l21 -20
q-8 -14 -29 -50.5t-35 -61t-37 -63.5t-40 -66.5t-38.5 -61.5t-38 -57t-32.5 -44t-28.5 -31t-20.5 -10t-20.5 10t-28.5 31t-32.5 44t-38 57t-38.5 61.5t-40 66.5t-37 63.5t-35 61t-29 50.5zM416 676l221 12q50 3 70 20.5t20 53.5q0 76 -37.5 126t-93.5 50q-73 0 -119.5 -70.5
t-60.5 -191.5z" />
    <glyph glyph-name="Gcircumflex" unicode="&#x11c;" horiz-adv-x="1767" 
d="M952 -20q-251 0 -441 90t-291 251t-101 371q0 161 63 305t172.5 249.5t265 167t332.5 61.5q238 0 471 -62l41 -438h-75q-145 375 -506 375q-104 0 -188.5 -47.5t-139 -130t-84 -191t-29.5 -231.5q0 -288 139.5 -467t370.5 -179q136 0 213.5 45.5t77.5 141.5v379l-321 -17
l20 119h731l-20 -92q-62 0 -92.5 -25.5t-30.5 -83.5v-288q0 -49 23.5 -73t78.5 -24l8 -61q-214 -78 -364.5 -111.5t-323.5 -33.5zM602 1622q265 395 318 395q50 0 315 -395l-16 -25l-299 209l-299 -209z" />
    <glyph glyph-name="gcircumflex" unicode="&#x11d;" horiz-adv-x="1236" 
d="M586 -492q-143 0 -261.5 36.5t-187.5 101.5t-69 145q0 83 69.5 149t163.5 99q-40 52 -74 111.5t-34 87.5q0 25 67 59.5t160 54.5q-133 33 -215 119t-82 197q0 103 64.5 187.5t176.5 132.5t248 48q120 0 217 -43q21 16 81.5 67.5t102.5 85t99 63.5t98 30q49 0 43 -67
q-7 -66 -51 -126q-30 -41 -59 -45l-258 -36q73 -45 114 -112t41 -146q0 -157 -137.5 -264t-339.5 -107q-31 0 -54.5 -21t-23.5 -47t27 -45t80 -22l250 -19q159 -13 238 -84.5t79 -177.5q0 -108 -77 -203t-209.5 -152t-286.5 -57zM307 1180q7 12 28.5 50t35 61t37 63.5
t40.5 67t38.5 61t38 57t33 43.5t28.5 31t20 10t20 -10t28.5 -31t33 -43.5t38 -57t38.5 -61t40.5 -67t37 -63.5t35 -61t28.5 -50l-20 -21l-279 230l-278 -230zM322 -152q0 -100 95.5 -168.5t241.5 -68.5q102 0 171 54t69 147q0 73 -52.5 113.5t-174.5 49.5l-301 25
q-49 -63 -49 -152zM414 713q0 -123 55 -203t139 -80q60 0 101 66t41 161q0 123 -55 204t-138 81q-61 0 -102 -66.5t-41 -162.5z" />
    <glyph glyph-name="Gbreve" unicode="&#x11e;" horiz-adv-x="1767" 
d="M952 -20q-251 0 -441 90t-291 251t-101 371q0 161 63 305t172.5 249.5t265 167t332.5 61.5q238 0 471 -62l41 -438h-75q-145 375 -506 375q-104 0 -188.5 -47.5t-139 -130t-84 -191t-29.5 -231.5q0 -288 139.5 -467t370.5 -179q136 0 213.5 45.5t77.5 141.5v379l-321 -17
l20 119h731l-20 -92q-62 0 -92.5 -25.5t-30.5 -83.5v-288q0 -49 23.5 -73t78.5 -24l8 -61q-214 -78 -364.5 -111.5t-323.5 -33.5zM641 1989l21 20q14 -100 84 -162.5t174 -62.5q100 0 172 63.5t86 161.5l20 -20q-2 -104 -34.5 -192t-96.5 -144t-147 -56q-88 0 -153 56
t-95.5 143.5t-30.5 192.5z" />
    <glyph glyph-name="gbreve" unicode="&#x11f;" horiz-adv-x="1236" 
d="M586 -492q-143 0 -261.5 36.5t-187.5 101.5t-69 145q0 83 69.5 149t163.5 99q-40 52 -74 111.5t-34 87.5q0 25 67 59.5t160 54.5q-133 33 -215 119t-82 197q0 103 64.5 187.5t176.5 132.5t248 48q120 0 217 -43q21 16 81.5 67.5t102.5 85t99 63.5t98 30q49 0 43 -67
q-7 -66 -51 -126q-30 -41 -59 -45l-258 -36q73 -45 114 -112t41 -146q0 -157 -137.5 -264t-339.5 -107q-31 0 -54.5 -21t-23.5 -47t27 -45t80 -22l250 -19q159 -13 238 -84.5t79 -177.5q0 -108 -77 -203t-209.5 -152t-286.5 -57zM322 -152q0 -100 95.5 -168.5t241.5 -68.5
q102 0 171 54t69 147q0 73 -52.5 113.5t-174.5 49.5l-301 25q-49 -63 -49 -152zM328 1550l20 21q14 -100 84 -162.5t174 -62.5q100 0 172 63.5t86 161.5l21 -21q-2 -104 -35 -192t-97 -143.5t-147 -55.5q-67 0 -121 32t-87.5 87t-51.5 124.5t-18 147.5zM414 713
q0 -123 55 -203t139 -80q60 0 101 66t41 161q0 123 -55 204t-138 81q-61 0 -102 -66.5t-41 -162.5z" />
    <glyph glyph-name="Gdotaccent" unicode="&#x120;" horiz-adv-x="1767" 
d="M952 -20q-251 0 -441 90t-291 251t-101 371q0 161 63 305t172.5 249.5t265 167t332.5 61.5q238 0 471 -62l41 -438h-75q-145 375 -506 375q-104 0 -188.5 -47.5t-139 -130t-84 -191t-29.5 -231.5q0 -288 139.5 -467t370.5 -179q136 0 213.5 45.5t77.5 141.5v379l-321 -17
l20 119h731l-20 -92q-62 0 -92.5 -25.5t-30.5 -83.5v-288q0 -49 23.5 -73t78.5 -24l8 -61q-214 -78 -364.5 -111.5t-323.5 -33.5zM758 1829q0 66 47.5 113t116.5 47q64 0 109.5 -47t45.5 -113t-45.5 -113t-109.5 -47q-69 0 -116.5 47t-47.5 113z" />
    <glyph glyph-name="gdotaccent" unicode="&#x121;" horiz-adv-x="1236" 
d="M586 -492q-143 0 -261.5 36.5t-187.5 101.5t-69 145q0 83 69.5 149t163.5 99q-40 52 -74 111.5t-34 87.5q0 25 67 59.5t160 54.5q-133 33 -215 119t-82 197q0 103 64.5 187.5t176.5 132.5t248 48q120 0 217 -43q21 16 81.5 67.5t102.5 85t99 63.5t98 30q49 0 43 -67
q-7 -66 -51 -126q-30 -41 -59 -45l-258 -36q73 -45 114 -112t41 -146q0 -157 -137.5 -264t-339.5 -107q-31 0 -54.5 -21t-23.5 -47t27 -45t80 -22l250 -19q159 -13 238 -84.5t79 -177.5q0 -108 -77 -203t-209.5 -152t-286.5 -57zM322 -152q0 -100 95.5 -168.5t241.5 -68.5
q102 0 171 54t69 147q0 73 -52.5 113.5t-174.5 49.5l-301 25q-49 -63 -49 -152zM414 713q0 -123 55 -203t139 -80q60 0 101 66t41 161q0 123 -55 204t-138 81q-61 0 -102 -66.5t-41 -162.5zM446 1391q0 66 47.5 112.5t116.5 46.5q65 0 110.5 -46.5t45.5 -112.5t-46 -113
t-110 -47q-69 0 -116.5 47t-47.5 113z" />
    <glyph glyph-name="uni0122" unicode="&#x122;" horiz-adv-x="1767" 
d="M952 -20q-251 0 -441 90t-291 251t-101 371q0 161 63 305t172.5 249.5t265 167t332.5 61.5q238 0 471 -62l41 -438h-75q-145 375 -506 375q-104 0 -188.5 -47.5t-139 -130t-84 -191t-29.5 -231.5q0 -288 139.5 -467t370.5 -179q136 0 213.5 45.5t77.5 141.5v379l-321 -17
l20 119h731l-20 -92q-62 0 -92.5 -25.5t-30.5 -83.5v-288q0 -49 23.5 -73t78.5 -24l8 -61q-214 -78 -364.5 -111.5t-323.5 -33.5zM793 -238q0 62 38 102t103 40q78 0 125 -53t47 -138q0 -178 -246 -356l-20 20q88 98 88 207q0 35 -14 61t-34 40t-39.5 25t-33.5 23.5
t-14 28.5z" />
    <glyph glyph-name="uni0123" unicode="&#x123;" horiz-adv-x="1236" 
d="M586 -492q-143 0 -261.5 36.5t-187.5 101.5t-69 145q0 83 69.5 149t163.5 99q-40 52 -74 111.5t-34 87.5q0 25 67 59.5t160 54.5q-133 33 -215 119t-82 197q0 103 64.5 187.5t176.5 132.5t248 48q120 0 217 -43q21 16 81.5 67.5t102.5 85t99 63.5t98 30q49 0 43 -67
q-7 -66 -51 -126q-30 -41 -59 -45l-258 -36q73 -45 114 -112t41 -146q0 -157 -137.5 -264t-339.5 -107q-31 0 -54.5 -21t-23.5 -47t27 -45t80 -22l250 -19q159 -13 238 -84.5t79 -177.5q0 -108 -77 -203t-209.5 -152t-286.5 -57zM322 -152q0 -100 95.5 -168.5t241.5 -68.5
q102 0 171 54t69 147q0 73 -52.5 113.5t-174.5 49.5l-301 25q-49 -63 -49 -152zM414 713q0 -123 55 -203t139 -80q60 0 101 66t41 161q0 123 -55 204t-138 81q-61 0 -102 -66.5t-41 -162.5zM446 1337q0 179 246 357l21 -21q-88 -98 -88 -207q0 -35 14 -61t33.5 -40t39.5 -25
t34 -23.5t14 -28.5q0 -61 -38.5 -101t-103.5 -40q-78 0 -125 52.5t-47 137.5z" />
    <glyph glyph-name="Hcircumflex" unicode="&#x124;" horiz-adv-x="1849" 
d="M1102 0l20 94l70 15q90 23 90 137v432h-715v-563l195 16l-21 -131h-651l21 94l61 15q55 15 78.5 47.5t23.5 89.5v1093l-194 -16l20 131h643l-20 -94l-64 -17q-50 -13 -71 -46.5t-21 -92.5v-411h715v546l-195 -16l21 131h643l-20 -94l-66 -17q-48 -13 -69 -46.5t-21 -92.5
v-1089l194 16l-20 -131h-647zM602 1622q265 395 318 395q50 0 315 -395l-16 -25l-299 209l-299 -209z" />
    <glyph glyph-name="hcircumflex" unicode="&#x125;" horiz-adv-x="1411" 
d="M68 0l20 84l41 14q45 19 65.5 54t20.5 94v1079l-147 76v76q250 79 393 79h57q-20 -237 -20 -481v-205h43q8 6 42.5 32.5t47 34.5t44 29t52 29.5t51.5 20t62 16t65 4.5q136 0 209.5 -77.5t73.5 -223.5v-626l182 16l-20 -125h-598l20 84l53 16q37 9 58.5 43.5t21.5 89.5
v443q0 82 -48 122t-126 40q-85 0 -233 -66v-663l161 16l-20 -125h-571zM59 1671q8 14 29 50.5t35 61t37 63.5t40 66.5t38.5 61.5t38 57t32.5 44t28.5 31t20.5 10t20.5 -10t28.5 -31t32.5 -44t38 -57t38.5 -61.5t40 -66.5t37 -63.5t35 -61t29 -50.5l-20 -20l-279 229
l-278 -229z" />
    <glyph glyph-name="Hbar" unicode="&#x126;" horiz-adv-x="1869" 
d="M113 1018v94h172v227l-195 -16l21 131h643l-21 -94l-63 -17q-50 -13 -71 -46.5t-21 -92.5v-92h714v227l-194 -16l20 131h643l-20 -94l-66 -17q-48 -13 -69 -46.5t-21 -92.5v-92h150v-94h-150v-903l195 16l-21 -131h-647l21 94l69 15q90 23 90 137v432h-714v-563l194 16
l-20 -131h-652l21 94l61 15q55 15 79 48t24 89v772h-172zM578 793h714v225h-714v-225z" />
    <glyph glyph-name="hbar" unicode="&#x127;" horiz-adv-x="1415" 
d="M68 1159v94h151v72l-147 76v76q250 79 393 79h57q-13 -165 -16 -303h334v-94h-338v-84v-205h43q8 6 42.5 32.5t47 34.5t44 29t52 29.5t51.5 20t62 16t65 4.5q136 0 209.5 -77.5t73.5 -223.5v-626l182 16l-20 -125h-598l20 84l53 16q37 9 58.5 43.5t21.5 89.5v443
q0 82 -48 122t-126 40q-85 0 -233 -66v-663l162 16l-21 -125h-571l20 84l41 14q45 19 65.5 54t20.5 94v913h-151z" />
    <glyph glyph-name="Itilde" unicode="&#x128;" horiz-adv-x="841" 
d="M90 0l21 94l63 15q53 15 76.5 47t23.5 84v1099l-194 -16l20 131h645l-20 -94l-66 -17q-92 -25 -92 -131v-1097l195 16l-21 -131h-651zM113 1669q35 111 101.5 194t129.5 83q36 0 152.5 -63.5t144.5 -63.5q44 0 85.5 35.5t74.5 93.5l20 -21q-28 -115 -94.5 -200
t-130.5 -85q-26 0 -63.5 18t-71 39.5t-77.5 39.5t-81 18q-54 0 -170 -108z" />
    <glyph glyph-name="itilde" unicode="&#x129;" horiz-adv-x="763" 
d="M84 0l20 84l41 14q93 38 93 148v555l-146 80v75q83 29 207 54.5t209 25.5h33q-21 -170 -21 -368v-559l195 16l-21 -125h-610zM20 1231q35 108 107 192t137 84q36 0 152.5 -63.5t144.5 -63.5q44 0 85.5 35.5t74.5 93.5l20 -20q-28 -115 -94.5 -200t-130.5 -85
q-26 0 -63.5 18t-71 39.5t-77.5 39.5t-81 18q-33 0 -84 -32.5t-98 -76.5z" />
    <glyph glyph-name="Imacron" unicode="&#x12a;" horiz-adv-x="841" 
d="M90 0l21 94l63 15q53 15 76.5 47t23.5 84v1099l-194 -16l20 131h645l-20 -94l-66 -17q-92 -25 -92 -131v-1097l195 16l-21 -131h-651zM115 1663q0 30 25 77.5t48 47.5h584q0 -38 -21 -81.5t-53 -43.5h-583z" />
    <glyph glyph-name="imacron" unicode="&#x12b;" horiz-adv-x="763" 
d="M84 0l20 84l41 14q93 38 93 148v555l-146 80v75q83 29 207 54.5t209 25.5h33q-21 -170 -21 -368v-559l195 16l-21 -125h-610zM59 1225q0 30 25.5 77.5t48.5 47.5h584q0 -38 -21 -81.5t-53 -43.5h-584z" />
    <glyph glyph-name="Iogonek" unicode="&#x12e;" horiz-adv-x="841" 
d="M90 0l21 94l63 15q53 15 76.5 47t23.5 84v1099l-194 -16l20 131h645l-20 -94l-66 -17q-92 -25 -92 -131v-1097l195 16l-21 -131h-166q-114 -90 -114 -203q0 -48 34 -81t85 -33q73 0 125 34l20 -20q-36 -42 -126 -109t-105 -67q-92 0 -147.5 46t-55.5 122q0 74 41 156.5
t114 154.5h-356z" />
    <glyph glyph-name="iogonek" unicode="&#x12f;" horiz-adv-x="763" 
d="M84 0l20 84l41 14q93 38 93 148v555l-146 80v75q83 29 207 54.5t209 25.5h33q-21 -170 -21 -368v-559l195 16l-21 -125h-209q-114 -90 -114 -203q0 -48 33.5 -81t84.5 -33q73 0 125 34l21 -20q-36 -42 -126.5 -109t-105.5 -67q-92 0 -147 45.5t-55 122.5q0 74 41 156.5
t114 154.5h-272zM217 1391q0 66 47.5 112.5t116.5 46.5q65 0 110.5 -46.5t45.5 -112.5t-46 -113t-110 -47q-69 0 -116.5 47t-47.5 113z" />
    <glyph glyph-name="Idotaccent" unicode="&#x130;" horiz-adv-x="841" 
d="M90 0l21 94l63 15q53 15 76.5 47t23.5 84v1099l-194 -16l20 131h645l-20 -94l-66 -17q-92 -25 -92 -131v-1097l195 16l-21 -131h-651zM270 1829q0 66 47.5 113t116.5 47q64 0 110 -47t46 -113t-46 -113t-110 -47q-69 0 -116.5 47t-47.5 113z" />
    <glyph glyph-name="dotlessi" unicode="&#x131;" horiz-adv-x="763" 
d="M84 0l20 84l41 14q93 38 93 148v555l-146 80v75q83 29 207 54.5t209 25.5h33q-21 -170 -21 -368v-559l195 16l-21 -125h-610z" />
    <glyph glyph-name="IJ" unicode="&#x132;" horiz-adv-x="1642" 
d="M90 0l21 94l63 15q53 15 76.5 47t23.5 84v1099l-194 -16l20 131h645l-20 -94l-66 -17q-92 -25 -92 -131v-1097l195 16l-21 -131h-651zM811 -406q142 115 228.5 280.5t86.5 379.5v1085l-252 -16l21 131h709l-21 -94l-78 -19q-41 -9 -63.5 -45t-22.5 -90v-913
q0 -152 -33.5 -278.5t-88.5 -212.5t-129 -147.5t-152 -91t-160 -34.5z" />
    <glyph glyph-name="ij" unicode="&#x133;" horiz-adv-x="1417" 
d="M84 0l20 84l41 14q93 38 93 148v555l-146 80v75q83 29 207 54.5t209 25.5h33q-21 -170 -21 -368v-559l195 16l-21 -125h-610zM217 1391q0 66 47.5 112.5t116.5 46.5q65 0 110.5 -46.5t45.5 -112.5t-46 -113t-110 -47q-69 0 -116.5 47t-47.5 113zM776 -446
q187 187 187 448v799l-146 80v75q96 33 217.5 56.5t208.5 23.5h21q-17 -199 -17 -391v-557q-1 -110 -35.5 -209t-94 -172t-135.5 -124.5t-161 -74.5zM942 1391q0 66 47.5 112.5t116.5 46.5q65 0 110.5 -46.5t45.5 -112.5t-46 -113t-110 -47q-69 0 -116.5 47t-47.5 113z" />
    <glyph glyph-name="Jcircumflex" unicode="&#x134;" horiz-adv-x="874" 
d="M-43 -406q142 115 228.5 280.5t86.5 379.5v1085l-252 -16l21 131h709l-21 -94l-78 -19q-41 -9 -63.5 -45t-22.5 -90v-913q0 -152 -33.5 -278.5t-88.5 -212.5t-129 -147.5t-152 -91t-160 -34.5zM174 1622q265 395 318 395q50 0 315 -395l-16 -25l-299 209l-299 -209z" />
    <glyph glyph-name="jcircumflex" unicode="&#x135;" horiz-adv-x="663" 
d="M23 -446q186 186 186 448v799l-146 80v75q96 33 217.5 56.5t208.5 23.5h21q-16 -187 -16 -391v-557q-1 -110 -35.5 -209t-94 -172t-135.5 -124.5t-161 -74.5zM49 1180q7 12 28.5 50t35 61t37 63.5t40.5 67t38.5 61t38 57t33 43.5t28.5 31t20 10t20 -10t28.5 -31t33 -43.5
t38 -57t38.5 -61t40.5 -67t37 -63.5t35 -61t28.5 -50l-20 -21l-279 230l-278 -230z" />
    <glyph glyph-name="uni0136" unicode="&#x136;" horiz-adv-x="1701" 
d="M1645 -20q-243 0 -385 48.5t-234 166.5l-375 467v30l641 643l-241 -12l20 131h580l-21 -94q-107 -12 -167.5 -46t-121.5 -95l-446 -451l391 -461q96 -113 171.5 -173.5t199.5 -113.5zM80 1323l20 131h643l-20 -94l-64 -17q-90 -25 -90 -131v-1097l174 16l-20 -131h-631
l21 94l63 15q48 12 74 47.5t26 89.5v1093zM743 -238q0 61 38.5 101.5t103.5 40.5q78 0 125 -53t47 -138q0 -178 -246 -356l-20 20q88 98 88 207q0 35 -14 61t-34 40t-40 25t-34 23.5t-14 28.5z" />
    <glyph glyph-name="uni0137" unicode="&#x137;" horiz-adv-x="1376" 
d="M1059 -20q-87 0 -152 31.5t-116 105.5l-248 368v21l444 401l-254 -16l21 125h579l-20 -92q-195 -37 -324 -150l-215 -186q140 -203 289 -352q38 -37 59 -55t57.5 -38.5t67.5 -19.5h37l16 -66q-57 -39 -110.5 -58t-130.5 -19zM68 0l20 84l41 16q46 18 68 52t22 94v1079
l-147 76v76q241 79 430 79h20q-20 -263 -20 -552v-895l133 16l-21 -125h-546zM573 -240q0 61 38.5 101.5t103.5 40.5q78 0 125 -53t47 -138q0 -178 -246 -356l-20 20q88 98 88 207q0 35 -14 61t-34 40t-40 25t-34 23.5t-14 28.5z" />
    <glyph glyph-name="kgreenlandic" unicode="&#x138;" horiz-adv-x="1386" 
d="M1069 -14q-87 0 -152 31.5t-116 105.5l-248 362v21l444 401l-254 -16l21 125h579l-20 -92q-195 -37 -324 -150l-213 -184q174 -235 287 -348q38 -37 59 -55t57.5 -38.5t67.5 -19.5h37l17 -66q-56 -38 -110.5 -57.5t-131.5 -19.5zM84 0l20 84l41 16q93 38 93 146v547
l-154 88v75q80 30 202 55t201 25h33v-927l162 16l-20 -125h-578z" />
    <glyph glyph-name="Lacute" unicode="&#x139;" horiz-adv-x="1304" 
d="M90 0l21 94l61 15q102 24 102 131v1099l-194 -16l20 131h705l-21 -94l-116 -17q-57 -8 -79 -37t-22 -102v-1089h252q110 0 202.5 107.5t156.5 277.5h75l-94 -553q-124 53 -268 53h-801zM225 1618q29 37 120 162.5t153.5 203.5t81.5 78q40 0 67 -44.5t27 -88.5
q0 -21 -6.5 -40.5t-22 -37.5t-28.5 -30.5t-37.5 -28.5t-37.5 -24t-40 -23l-256 -148z" />
    <glyph glyph-name="lacute" unicode="&#x13a;" horiz-adv-x="735" 
d="M68 0l20 84l41 14q92 38 92 148v1079l-147 76v76q246 79 418 79h32q-20 -316 -20 -452v-995l194 16l-20 -125h-610zM143 1661q29 37 120 162.5t153.5 203.5t81.5 78q40 0 67 -44.5t27 -88.5q0 -21 -6.5 -40.5t-22 -37.5t-28.5 -30.5t-37.5 -28.5t-37.5 -24t-40 -23
l-256 -148z" />
    <glyph glyph-name="uni013B" unicode="&#x13b;" horiz-adv-x="1304" 
d="M90 0l21 94l61 15q102 24 102 131v1099l-194 -16l20 131h705l-21 -94l-116 -17q-57 -8 -79 -37t-22 -102v-1089h252q110 0 202.5 107.5t156.5 277.5h75l-94 -553q-124 53 -268 53h-801zM567 -238q0 61 38.5 101.5t103.5 40.5q78 0 125 -53t47 -138q0 -178 -246 -356
l-21 20q88 98 88 207q0 35 -14 61t-34 40t-39.5 25t-33.5 23.5t-14 28.5z" />
    <glyph glyph-name="uni013C" unicode="&#x13c;" horiz-adv-x="735" 
d="M68 0l20 84l41 14q92 38 92 148v1079l-147 76v76q246 79 418 79h32q-20 -316 -20 -452v-995l194 16l-20 -125h-610zM209 -238q0 62 38 102t103 40q78 0 125 -53t47 -138q0 -178 -246 -356l-20 20q88 98 88 207q0 35 -14 61t-33.5 40t-39.5 25t-34 23.5t-14 28.5z" />
    <glyph glyph-name="Lcaron" unicode="&#x13d;" horiz-adv-x="1304" 
d="M90 0l21 94l61 15q102 24 102 131v1099l-194 -16l20 131h705l-21 -94l-116 -17q-57 -8 -79 -37t-22 -102v-1089h252q110 0 202.5 107.5t156.5 277.5h75l-94 -553q-124 53 -268 53h-801zM1028 954v328q0 90 24.5 131t104.5 41q38 0 66.5 -15.5t42.5 -43.5t5 -73.5
t-44 -100.5l-166 -267h-33z" />
    <glyph glyph-name="lcaron" unicode="&#x13e;" horiz-adv-x="735" 
d="M68 0l20 84l41 14q92 38 92 148v1079l-147 76v76q246 79 418 79h32q-20 -316 -20 -452v-995l194 16l-20 -125h-610zM647 1053v327q0 90 24.5 131t104.5 41q38 0 66.5 -15.5t42.5 -43.5t5 -73.5t-44 -100.5l-166 -266h-33z" />
    <glyph glyph-name="Lslash" unicode="&#x141;" horiz-adv-x="1267" 
d="M76 555v100l194 64v620l-194 -16l20 131h705l-21 -94l-116 -17q-57 -8 -79 -37t-22 -102v-389l326 107v-101l-326 -106v-600h252q110 0 202.5 107.5t156.5 277.5h75l-94 -553q-124 53 -268 53h-801l20 94l62 15q102 24 102 131v378z" />
    <glyph glyph-name="lslash" unicode="&#x142;" horiz-adv-x="735" 
d="M80 578v102l141 61v584l-147 76v76q246 79 418 79h32q-20 -316 -20 -452v-238l182 80v-102l-182 -80v-655l194 16l-20 -125h-610l20 84l41 14q92 38 92 148v393z" />
    <glyph glyph-name="Nacute" unicode="&#x143;" horiz-adv-x="1742" 
d="M86 0l20 94l99 10q57 6 81.5 32t24.5 83v1004q-113 113 -264 190l8 41h453l870 -1018v903l-260 -16l21 131h587l-20 -94l-90 -10q-115 -14 -115 -142v-1134l-123 -94l-944 1103v-968l258 16l-20 -131h-586zM737 1624q10 12 35.5 45t42.5 54t45 56t48.5 59t46.5 54
t45.5 50.5t38.5 38.5t33.5 27t23.5 9q33 0 57.5 -34t24.5 -74q0 -17 -3 -32t-6.5 -26.5t-12.5 -24t-14.5 -20t-19.5 -18t-19.5 -15t-23.5 -14t-23 -12t-25.5 -12t-24.5 -11.5l-246 -127z" />
    <glyph glyph-name="nacute" unicode="&#x144;" horiz-adv-x="1419" 
d="M760 0l20 84l39 12q48 12 71 44t23 93v420q0 107 -38 147t-113 40q-101 0 -242 -64v-667l162 16l-20 -125h-578l20 84l41 16q93 38 93 146v547l-154 88v75q216 80 360 80h33l33 -162h45q38 30 67 50.5t78.5 50t101 45.5t101.5 16q293 0 293 -313v-614l182 16l-20 -125
h-598zM563 1180q29 37 120 162.5t153.5 203.5t81.5 78q40 0 67 -44.5t27 -88.5q0 -21 -6.5 -40.5t-22 -37.5t-28.5 -30.5t-37.5 -28.5t-37.5 -24t-40 -23l-256 -148z" />
    <glyph glyph-name="uni0145" unicode="&#x145;" horiz-adv-x="1742" 
d="M86 0l20 94l99 10q57 6 81.5 32t24.5 83v1004q-113 113 -264 190l8 41h453l870 -1018v903l-260 -16l21 131h587l-20 -94l-90 -10q-115 -14 -115 -142v-1134l-123 -94l-944 1103v-968l258 16l-20 -131h-586zM813 -238q0 62 38 102t103 40q78 0 125 -53t47 -138
q0 -179 -245 -356l-21 20q88 98 88 207q0 35 -14 61t-34 40t-39.5 25t-33.5 23.5t-14 28.5z" />
    <glyph glyph-name="uni0146" unicode="&#x146;" horiz-adv-x="1419" 
d="M760 0l20 84l39 12q48 12 71 44t23 93v420q0 107 -38 147t-113 40q-101 0 -242 -64v-667l162 16l-20 -125h-578l20 84l41 16q93 38 93 146v547l-154 88v75q216 80 360 80h33l33 -162h45q38 30 67 50.5t78.5 50t101 45.5t101.5 16q293 0 293 -313v-614l182 16l-20 -125
h-598zM547 -238q0 62 38 102t103 40q78 0 125 -53t47 -138q0 -178 -246 -356l-20 20q88 98 88 207q0 35 -14 61t-34 40t-39.5 25t-33.5 23.5t-14 28.5z" />
    <glyph glyph-name="Ncaron" unicode="&#x147;" horiz-adv-x="1742" 
d="M86 0l20 94l99 10q57 6 81.5 32t24.5 83v1004q-113 113 -264 190l8 41h453l870 -1018v903l-260 -16l21 131h587l-20 -94l-90 -10q-115 -14 -115 -142v-1134l-123 -94l-944 1103v-968l258 16l-20 -131h-586zM596 1991l18 24l299 -209l299 209l17 -24q-266 -396 -316 -396
q-51 0 -317 396z" />
    <glyph glyph-name="ncaron" unicode="&#x148;" horiz-adv-x="1419" 
d="M760 0l20 84l39 12q48 12 71 44t23 93v420q0 107 -38 147t-113 40q-101 0 -242 -64v-667l162 16l-20 -125h-578l20 84l41 16q93 38 93 146v547l-154 88v75q216 80 360 80h33l33 -162h45q38 30 67 50.5t78.5 50t101 45.5t101.5 16q293 0 293 -313v-614l182 16l-20 -125
h-598zM487 1614l21 20l278 -229l279 229l20 -20q-8 -14 -29 -50.5t-35 -61t-37 -63.5t-40 -66.5t-38.5 -61.5t-38 -57t-32.5 -44t-28.5 -31t-20.5 -10t-20.5 10t-28.5 31t-32.5 44t-38 57t-38.5 61.5t-40 66.5t-37 63.5t-35 61t-29 50.5z" />
    <glyph glyph-name="Eng" unicode="&#x14a;" horiz-adv-x="1742" 
d="M1067 -406q117 53 198 152.5t105 243.5l-936 1093v-968l258 16l-20 -131h-586l20 94l99 10q57 6 81.5 32t24.5 83v1006q-109 109 -264 188l8 41h453l870 -1018v903l-260 -16l21 131h587l-20 -94l-90 -10q-115 -14 -115 -142v-1134q0 -113 -33.5 -210t-89 -163.5
t-123.5 -110.5t-143 -61z" />
    <glyph glyph-name="eng" unicode="&#x14b;" horiz-adv-x="1402" 
d="M719 -446q188 188 188 448v651q0 107 -38 147t-113 40q-101 0 -242 -64v-667l162 16l-21 -125h-577l20 84l41 16q92 38 92 146v547l-153 88v75q216 80 360 80h33l33 -162h45q110 82 170 113q95 49 178 49q293 0 293 -313v-635q0 -110 -35 -209t-94 -172t-135.5 -124.5
t-161.5 -74.5z" />
    <glyph glyph-name="Omacron" unicode="&#x14c;" horiz-adv-x="1798" 
d="M899 -20q-159 0 -303 56.5t-248.5 153t-166.5 231.5t-62 286q0 159 60.5 301.5t164.5 245t248.5 162t306.5 59.5q159 0 303 -56.5t248.5 -153t166.5 -231.5t62 -286q0 -159 -60.5 -301.5t-164.5 -245t-248.5 -162t-306.5 -59.5zM442 793q0 -193 67.5 -351t186 -248
t262.5 -90q112 0 203 73t143 201t52 284q0 193 -67.5 350.5t-186 247.5t-262.5 90q-170 0 -284 -159.5t-114 -397.5zM580 1663q0 30 25 77.5t48 47.5h584q0 -38 -21 -81.5t-53 -43.5h-583z" />
    <glyph glyph-name="omacron" unicode="&#x14d;" horiz-adv-x="1290" 
d="M623 -20q-141 0 -259 64.5t-188 181t-70 259.5q0 250 159 400.5t403 150.5q216 0 366 -144.5t150 -361.5q0 -250 -158.5 -400t-402.5 -150zM336 1225q0 30 25.5 77.5t48.5 47.5h583q0 -38 -20.5 -81.5t-52.5 -43.5h-584zM410 600q0 -144 38 -263t104 -187t146 -68
q81 0 132 87t51 249q0 219 -83.5 367.5t-205.5 148.5q-80 0 -131 -89.5t-51 -244.5z" />
    <glyph glyph-name="Ohungarumlaut" unicode="&#x150;" horiz-adv-x="1798" 
d="M899 -20q-159 0 -303 56.5t-248.5 153t-166.5 231.5t-62 286q0 159 60.5 301.5t164.5 245t248.5 162t306.5 59.5q159 0 303 -56.5t248.5 -153t166.5 -231.5t62 -286q0 -159 -60.5 -301.5t-164.5 -245t-248.5 -162t-306.5 -59.5zM442 793q0 -193 67.5 -351t186 -248
t262.5 -90q112 0 203 73t143 201t52 284q0 193 -67.5 350.5t-186 247.5t-262.5 90q-170 0 -284 -159.5t-114 -397.5zM688 1649q31 101 64.5 190t76 162.5t74.5 73.5t62 -29.5t30 -54.5q0 -34 -36 -82t-101 -115l-149 -166zM895 1630q55 130 134 250.5t118 120.5q38 0 62 -30
t24 -56q0 -35 -30 -67.5t-124 -108.5l-164 -129z" />
    <glyph glyph-name="ohungarumlaut" unicode="&#x151;" horiz-adv-x="1290" 
d="M623 -20q-141 0 -259 64.5t-188 181t-70 259.5q0 250 159 400.5t403 150.5q216 0 366 -144.5t150 -361.5q0 -250 -158.5 -400t-402.5 -150zM410 600q0 -144 38 -263t104 -187t146 -68q81 0 132 87t51 249q0 219 -83.5 367.5t-205.5 148.5q-80 0 -131 -89.5t-51 -244.5z
M444 1210q31 101 64.5 190t76 162.5t74.5 73.5t62.5 -29.5t30.5 -54.5q0 -24 -22 -59t-47.5 -63.5t-68.5 -73.5l-149 -166zM651 1192q55 130 134 250.5t118 120.5q38 0 62 -30t24 -56q0 -36 -30.5 -69t-122.5 -108l-164 -129z" />
    <glyph glyph-name="OE" unicode="&#x152;" horiz-adv-x="2387" 
d="M932 0q-227 0 -413.5 92.5t-293 254.5t-106.5 360q0 160 63 298.5t174.5 237t271 155t345.5 56.5h885q144 0 276 53l66 -499h-76q-30 69 -53.5 115t-55 90.5t-64 69.5t-76 40.5t-95.5 15.5h-307v-538h182q99 0 146.5 48.5t68.5 182.5h76v-561h-76q-24 130 -70 175.5
t-145 45.5h-182v-577h378q61 0 114 30t96 86t76 120.5t65 148.5h75l-94 -553q-117 53 -268 53h-983zM442 768q0 -291 141.5 -470.5t374.5 -182.5h222v1224h-254q-224 -3 -354 -156.5t-130 -414.5z" />
    <glyph glyph-name="oe" unicode="&#x153;" horiz-adv-x="1900" 
d="M1352 -20q-208 0 -336 141q-153 -141 -393 -141q-141 0 -259 64.5t-188 181t-70 259.5q0 250 159 400.5t403 150.5q107 0 203 -38.5t167 -108.5q147 147 371 147q166 0 273.5 -105t107.5 -239q0 -69 -31 -117h-448v56l121 35q44 17 57.5 33.5t13.5 50.5q0 78 -42 133
t-107 55q-83 0 -125.5 -102.5t-42.5 -268.5q0 -172 78 -277.5t221 -105.5q72 0 134 21.5t136 70.5l49 -47q-73 -114 -191 -181.5t-261 -67.5zM410 600q0 -144 38 -263t104 -187t146 -68q81 0 132 87t51 249q0 219 -83.5 367.5t-205.5 148.5q-80 0 -131 -89.5t-51 -244.5z
" />
    <glyph glyph-name="Racute" unicode="&#x154;" horiz-adv-x="1634" 
d="M90 0l21 94l73 19q90 23 90 143v1083l-194 -16l20 131h633q182 0 322 -46.5t222.5 -141t82.5 -226.5q0 -77 -30 -142.5t-81 -110.5t-113 -74t-130 -41l223 -365q66 -111 150.5 -175.5t217.5 -111.5l-10 -40q-259 0 -399 45t-211 174l-244 426h-166v-510l195 16l-21 -131
h-651zM539 1624q8 11 46 58.5t58.5 73.5t58.5 72t62.5 73.5t53 57.5t48.5 44t31 14q33 0 57.5 -34t24.5 -74q0 -17 -3 -32t-6.5 -26.5t-12.5 -24t-14.5 -20t-19.5 -18t-19.5 -15t-23.5 -14t-23 -12t-25.5 -12t-24.5 -11.5l-246 -127zM567 719h158q141 0 226 84.5t85 228.5
q0 141 -85.5 224t-225.5 83h-158v-620z" />
    <glyph glyph-name="racute" unicode="&#x155;" horiz-adv-x="1011" 
d="M84 0l20 84l41 14q93 38 93 148v547l-154 88v75q90 32 197 51t176 19h20l21 -219h43q67 69 167 149t132 80q52 0 85 -43.5t33 -101.5q0 -81 -63.5 -127.5t-155.5 -46.5h-170q-28 0 -38.5 -29t-10.5 -102v-477l228 16l-21 -125h-643zM391 1180q29 37 119.5 162.5
t153 203.5t81.5 78q40 0 67.5 -45t27.5 -88q0 -21 -6.5 -40.5t-22 -37.5t-28.5 -30.5t-37.5 -28.5t-37.5 -24t-40 -23l-256 -148z" />
    <glyph glyph-name="uni0156" unicode="&#x156;" horiz-adv-x="1634" 
d="M90 0l21 94l73 19q90 23 90 143v1083l-194 -16l20 131h633q182 0 322 -46.5t222.5 -141t82.5 -226.5q0 -77 -30 -142.5t-81 -110.5t-113 -74t-130 -41l223 -365q66 -111 150.5 -175.5t217.5 -111.5l-10 -40q-259 0 -399 45t-211 174l-244 426h-166v-510l195 16l-21 -131
h-651zM567 719h158q141 0 226 84.5t85 228.5q0 141 -85.5 224t-225.5 83h-158v-620zM723 -238q0 62 38 102t103 40q78 0 125 -53t47 -138q0 -179 -245 -356l-21 20q88 98 88 207q0 35 -14 61t-34 40t-39.5 25t-33.5 23.5t-14 28.5z" />
    <glyph glyph-name="uni0157" unicode="&#x157;" horiz-adv-x="1011" 
d="M84 0l20 84l41 14q93 38 93 148v547l-154 88v75q90 32 197 51t176 19h20l21 -219h43q67 69 167 149t132 80q52 0 85 -43.5t33 -101.5q0 -81 -63.5 -127.5t-155.5 -46.5h-170q-28 0 -38.5 -29t-10.5 -102v-477l228 16l-21 -125h-643zM233 -238q0 61 38.5 101.5t103.5 40.5
q78 0 125 -53t47 -138q0 -178 -246 -356l-20 20q88 98 88 207q0 35 -14 61t-34 40t-40 25t-34 23.5t-14 28.5z" />
    <glyph glyph-name="Rcaron" unicode="&#x158;" horiz-adv-x="1634" 
d="M90 0l21 94l73 19q90 23 90 143v1083l-194 -16l20 131h633q182 0 322 -46.5t222.5 -141t82.5 -226.5q0 -77 -30 -142.5t-81 -110.5t-113 -74t-130 -41l223 -365q66 -111 150.5 -175.5t217.5 -111.5l-10 -40q-259 0 -399 45t-211 174l-244 426h-166v-510l195 16l-21 -131
h-651zM397 1991l19 24l299 -209l299 209l16 -24q-266 -396 -315 -396q-52 0 -318 396zM567 719h158q141 0 226 84.5t85 228.5q0 141 -85.5 224t-225.5 83h-158v-620z" />
    <glyph glyph-name="rcaron" unicode="&#x159;" horiz-adv-x="1011" 
d="M84 0l20 84l41 14q93 38 93 148v547l-154 88v75q90 32 197 51t176 19h20l21 -219h43q67 69 167 149t132 80q52 0 85 -43.5t33 -101.5q0 -81 -63.5 -127.5t-155.5 -46.5h-170q-28 0 -38.5 -29t-10.5 -102v-477l228 16l-21 -125h-643zM315 1614l21 20l278 -229l279 229
l20 -20q-8 -14 -29 -50.5t-35 -61t-37 -63.5t-40 -66.5t-38.5 -61.5t-38 -57t-32.5 -44t-28.5 -31t-20.5 -10t-20.5 10t-28.5 31t-32.5 44t-38 57t-38.5 61.5t-40 66.5t-37 63.5t-35 61t-29 50.5z" />
    <glyph glyph-name="Sacute" unicode="&#x15a;" horiz-adv-x="1292" 
d="M674 -20q-259 0 -496 83l-49 453h76q82 -199 209 -305.5t284 -106.5q112 0 186 58.5t74 161.5q0 100 -89 162t-287 122q-248 70 -348.5 168.5t-100.5 253.5q0 90 38 170t107 141.5t175.5 97.5t234.5 36q148 0 381 -64l23 -416h-76q-63 184 -158 268.5t-240 84.5
q-119 0 -188.5 -63.5t-69.5 -156.5q0 -91 84 -150t304 -122q233 -65 333.5 -163.5t100.5 -264.5q0 -124 -62.5 -225.5t-179.5 -162t-266 -60.5zM502 1624q8 11 46 58.5t58.5 73.5t58.5 72t62.5 73.5t53 57.5t48.5 44t31 14q33 0 57.5 -34t24.5 -74q0 -17 -3 -32t-6.5 -26.5
t-12.5 -24t-14.5 -20t-19.5 -18t-19.5 -15t-23.5 -14t-23 -12t-25.5 -12t-24.5 -11.5l-246 -127z" />
    <glyph glyph-name="sacute" unicode="&#x15b;" horiz-adv-x="1050" 
d="M512 -20q-194 0 -375 57l-18 309h69q48 -55 85 -91t88.5 -78t105.5 -63.5t108 -21.5q57 0 93.5 27.5t36.5 85.5q0 64 -60.5 103t-220.5 89q-158 51 -233.5 123t-75.5 187q0 64 26.5 122t78 104.5t137 74.5t192.5 28q144 0 309 -43l21 -311h-70q-159 240 -328 240
q-63 0 -101 -28t-38 -79q0 -52 60 -89t208 -87q173 -58 247.5 -129.5t74.5 -196.5q0 -148 -112 -240.5t-308 -92.5zM315 1180q29 37 120 162.5t153.5 203.5t81.5 78q40 0 67 -44.5t27 -88.5q0 -21 -6.5 -40.5t-22 -37.5t-28.5 -30.5t-37.5 -28.5t-37.5 -24t-40 -23
l-256 -148z" />
    <glyph glyph-name="Scircumflex" unicode="&#x15c;" horiz-adv-x="1292" 
d="M674 -20q-259 0 -496 83l-49 453h76q82 -199 209 -305.5t284 -106.5q112 0 186 58.5t74 161.5q0 100 -89 162t-287 122q-248 70 -348.5 168.5t-100.5 253.5q0 90 38 170t107 141.5t175.5 97.5t234.5 36q148 0 381 -64l23 -416h-76q-63 184 -158 268.5t-240 84.5
q-119 0 -188.5 -63.5t-69.5 -156.5q0 -91 84 -150t304 -122q233 -65 333.5 -163.5t100.5 -264.5q0 -124 -62.5 -225.5t-179.5 -162t-266 -60.5zM360 1622q265 395 318 395q50 0 315 -395l-16 -25l-299 209l-299 -209z" />
    <glyph glyph-name="scircumflex" unicode="&#x15d;" horiz-adv-x="1050" 
d="M512 -20q-194 0 -375 57l-18 309h69q48 -55 85 -91t88.5 -78t105.5 -63.5t108 -21.5q57 0 93.5 27.5t36.5 85.5q0 64 -60.5 103t-220.5 89q-158 51 -233.5 123t-75.5 187q0 64 26.5 122t78 104.5t137 74.5t192.5 28q144 0 309 -43l21 -311h-70q-159 240 -328 240
q-63 0 -101 -28t-38 -79q0 -52 60 -89t208 -87q173 -58 247.5 -129.5t74.5 -196.5q0 -148 -112 -240.5t-308 -92.5zM240 1180q7 12 28.5 50t35 61t37 63.5t40.5 67t38.5 61t38 57t33 43.5t28.5 31t20 10t20 -10t28.5 -31t33 -43.5t38 -57t38.5 -61t40.5 -67t37 -63.5t35 -61
t28.5 -50l-21 -21l-278 230l-279 -230z" />
    <glyph glyph-name="Scedilla" unicode="&#x15e;" horiz-adv-x="1292" 
d="M559 -539q41 35 68.5 79t27.5 85q0 29 -7 50.5t-27 41.5t-38 32.5t-57 37.5l97 193q-225 7 -445 83l-49 453h76q82 -199 209 -305.5t284 -106.5q112 0 186 58.5t74 161.5q0 100 -89 162t-287 122q-248 70 -348.5 168.5t-100.5 253.5q0 90 38 170t107 141.5t175.5 97.5
t234.5 36q148 0 381 -64l23 -416h-76q-63 184 -158 268.5t-240 84.5q-119 0 -188.5 -63.5t-69.5 -156.5q0 -91 84 -150t304 -122q233 -65 333.5 -163.5t100.5 -264.5q0 -182 -130.5 -309t-340.5 -139l-15 -68q69 -37 106.5 -77t37.5 -95t-25 -105.5t-65 -87.5t-83 -63.5
t-87 -42.5z" />
    <glyph glyph-name="scedilla" unicode="&#x15f;" horiz-adv-x="1050" 
d="M414 -539q41 35 68.5 79t27.5 85q0 29 -7 50.5t-27 41.5t-38 32.5t-57 37.5l96 193q-175 6 -340 57l-18 309h69q48 -55 85 -91t88.5 -78t105.5 -63.5t108 -21.5q57 0 93.5 27.5t36.5 85.5q0 64 -60.5 103t-220.5 89q-158 51 -233.5 123t-75.5 187q0 64 26.5 122t78 104.5
t137 74.5t192.5 28q144 0 309 -43l21 -311h-70q-159 240 -328 240q-63 0 -101 -28t-38 -79q0 -52 60 -89t208 -87q173 -58 247.5 -129.5t74.5 -196.5q0 -137 -97.5 -227.5t-269.5 -103.5l-14 -70q69 -37 106 -77t37 -95t-25 -105.5t-65 -87.5t-83 -63.5t-87 -42.5z" />
    <glyph glyph-name="Scaron" unicode="&#x160;" horiz-adv-x="1292" 
d="M674 -20q-259 0 -496 83l-49 453h76q82 -199 209 -305.5t284 -106.5q112 0 186 58.5t74 161.5q0 100 -89 162t-287 122q-248 70 -348.5 168.5t-100.5 253.5q0 90 38 170t107 141.5t175.5 97.5t234.5 36q148 0 381 -64l23 -416h-76q-63 184 -158 268.5t-240 84.5
q-119 0 -188.5 -63.5t-69.5 -156.5q0 -91 84 -150t304 -122q233 -65 333.5 -163.5t100.5 -264.5q0 -124 -62.5 -225.5t-179.5 -162t-266 -60.5zM360 1991l19 24l299 -209l299 209l16 -24q-266 -396 -315 -396q-52 0 -318 396z" />
    <glyph glyph-name="scaron" unicode="&#x161;" horiz-adv-x="1050" 
d="M512 -20q-194 0 -375 57l-18 309h69q48 -55 85 -91t88.5 -78t105.5 -63.5t108 -21.5q57 0 93.5 27.5t36.5 85.5q0 64 -60.5 103t-220.5 89q-158 51 -233.5 123t-75.5 187q0 64 26.5 122t78 104.5t137 74.5t192.5 28q144 0 309 -43l21 -311h-70q-159 240 -328 240
q-63 0 -101 -28t-38 -79q0 -52 60 -89t208 -87q173 -58 247.5 -129.5t74.5 -196.5q0 -148 -112 -240.5t-308 -92.5zM240 1614l20 20l279 -229l278 229l21 -20q-8 -14 -29 -50.5t-35 -61t-37 -63.5t-40 -66.5t-38.5 -61.5t-38 -57t-32.5 -44t-28.5 -31t-20.5 -10t-20.5 10
t-28.5 31t-32.5 44t-38 57t-38.5 61.5t-40 66.5t-37 63.5t-35 61t-29 50.5z" />
    <glyph glyph-name="uni0162" unicode="&#x162;" horiz-adv-x="1435" 
d="M354 0l21 94l90 23q102 25 102 151v1071h-161q-43 0 -78.5 -15.5t-61.5 -39.5t-51 -66t-42.5 -83t-39.5 -103h-76l41 463q135 -41 283 -41h674q147 0 282 41l41 -463h-75q-20 49 -30.5 75t-28.5 64.5t-31.5 58.5t-34.5 44.5t-41.5 36t-47.5 20t-59 8.5h-170v-1224l236 16
l-21 -131h-327l-19 -88q69 -37 106 -77t37 -95t-25 -105.5t-65 -87.5t-83 -63.5t-87 -42.5l-20 20q41 35 68.5 79t27.5 85q0 29 -7 50.5t-27 41.5t-38 32.5t-57 37.5l107 213h-312z" />
    <glyph glyph-name="uni0163" unicode="&#x163;" horiz-adv-x="897" 
d="M365 -539q41 35 68.5 79t27.5 85q0 29 -7 50.5t-27 41.5t-38 32.5t-57 37.5l96 195q-104 13 -156.5 80.5t-52.5 160.5v680h-164v70l164 76l209 184h74v-217h325v-113h-325v-581q0 -146 125 -146q99 0 192 17l29 -48q-66 -65 -155.5 -109.5t-176.5 -53.5l-14 -70
q69 -37 106 -77t37 -95t-25 -105.5t-65 -87.5t-83 -63.5t-87 -42.5z" />
    <glyph glyph-name="Tcaron" unicode="&#x164;" horiz-adv-x="1435" 
d="M354 0l21 94l90 23q102 25 102 151v1071h-161q-43 0 -78.5 -15.5t-61.5 -39.5t-51 -66t-42.5 -83t-39.5 -103h-76l41 463q135 -41 283 -41h674q147 0 282 41l41 -463h-75q-20 49 -30.5 75t-28.5 64.5t-31.5 58.5t-34.5 44.5t-41.5 36t-47.5 20t-59 8.5h-170v-1224l236 16
l-21 -131h-721zM395 1991l19 24l299 -209l299 209l16 -24q-266 -396 -315 -396q-52 0 -318 396z" />
    <glyph glyph-name="tcaron" unicode="&#x165;" horiz-adv-x="897" 
d="M475 -20q-128 0 -192 69.5t-64 173.5v680h-164v70l164 76l209 184h74v-217h325v-113h-325v-581q0 -146 125 -146q99 0 192 17l29 -48q-74 -73 -175.5 -119t-197.5 -46zM610 1110v328q0 90 24.5 131t104.5 41q38 0 66.5 -15.5t42.5 -44t5 -74t-44 -100.5l-166 -266h-33z
" />
    <glyph glyph-name="Tbar" unicode="&#x166;" horiz-adv-x="1435" 
d="M195 631v94h372v614h-161q-43 0 -78.5 -15.5t-61.5 -39.5t-51 -66t-42.5 -83t-39.5 -103h-76l41 463q135 -41 283 -41h674q147 0 282 41l41 -463h-75q-20 49 -30.5 75t-28.5 64.5t-31.5 58.5t-34.5 44.5t-41.5 36t-47.5 20t-59 8.5h-170v-614h373v-94h-373v-516l236 16
l-21 -131h-721l21 94l90 23q102 25 102 151v363h-372z" />
    <glyph glyph-name="tbar" unicode="&#x167;" horiz-adv-x="897" 
d="M90 502v94h129v307h-164v70l164 76l209 184h74v-217h325v-113h-325v-307h280v-94h-280v-180q0 -146 125 -146q99 0 192 17l29 -48q-74 -73 -175.5 -119t-197.5 -46q-128 0 -192 69.5t-64 173.5v279h-129z" />
    <glyph glyph-name="Utilde" unicode="&#x168;" horiz-adv-x="1726" 
d="M905 -20q-294 0 -468.5 131.5t-174.5 353.5v874l-182 -16l20 131h672l-20 -94l-90 -17q-107 -29 -107 -163v-641q0 -186 114 -292t306 -106q173 0 272 96t99 273v829l-224 -16l21 131h504l-21 -94l-53 -10q-55 -11 -79 -43t-24 -99v-673q0 -264 -151 -409.5t-414 -145.5z
M635 1669q35 111 101.5 194t129.5 83q36 0 152.5 -63.5t144.5 -63.5q44 0 85.5 35.5t74.5 93.5l20 -21q-28 -115 -94.5 -200t-130.5 -85q-26 0 -63.5 18t-71 39.5t-77.5 39.5t-81 18q-54 0 -170 -108z" />
    <glyph glyph-name="utilde" unicode="&#x169;" horiz-adv-x="1372" 
d="M514 -20q-146 0 -225.5 81.5t-79.5 217.5v522l-146 80v75q187 65 396 80h33v-686q0 -203 172 -203q46 0 90.5 20t107.5 60v576l-143 80v75q195 63 393 78h33v-829l162 -21v-77q-75 -57 -174.5 -93t-188.5 -36h-33l-26 137h-43q-174 -137 -328 -137zM322 1231
q35 109 106.5 192.5t136.5 83.5q36 0 152.5 -63.5t144.5 -63.5q44 0 85.5 35.5t74.5 93.5l20 -20q-28 -115 -94.5 -200t-130.5 -85q-26 0 -63.5 18t-71 39.5t-77.5 39.5t-81 18q-33 0 -84 -32.5t-98 -76.5z" />
    <glyph glyph-name="Umacron" unicode="&#x16a;" horiz-adv-x="1726" 
d="M905 -20q-294 0 -468.5 131.5t-174.5 353.5v874l-182 -16l20 131h672l-20 -94l-90 -17q-107 -29 -107 -163v-641q0 -186 114 -292t306 -106q173 0 272 96t99 273v829l-224 -16l21 131h504l-21 -94l-53 -10q-55 -11 -79 -43t-24 -99v-673q0 -264 -151 -409.5t-414 -145.5z
M637 1663q0 30 25.5 77.5t48.5 47.5h583q0 -38 -20.5 -81.5t-52.5 -43.5h-584z" />
    <glyph glyph-name="umacron" unicode="&#x16b;" horiz-adv-x="1372" 
d="M514 -20q-146 0 -225.5 81.5t-79.5 217.5v522l-146 80v75q187 65 396 80h33v-686q0 -203 172 -203q46 0 90.5 20t107.5 60v576l-143 80v75q195 63 393 78h33v-829l162 -21v-77q-75 -57 -174.5 -93t-188.5 -36h-33l-26 137h-43q-174 -137 -328 -137zM360 1225
q0 30 25.5 77.5t48.5 47.5h584q0 -38 -21 -81.5t-53 -43.5h-584z" />
    <glyph glyph-name="Ubreve" unicode="&#x16c;" horiz-adv-x="1726" 
d="M905 -20q-294 0 -468.5 131.5t-174.5 353.5v874l-182 -16l20 131h672l-20 -94l-90 -17q-107 -29 -107 -163v-641q0 -186 114 -292t306 -106q173 0 272 96t99 273v829l-224 -16l21 131h504l-21 -94l-53 -10q-55 -11 -79 -43t-24 -99v-673q0 -264 -151 -409.5t-414 -145.5z
M676 1989l20 20q14 -100 84 -162.5t174 -62.5q100 0 172 63.5t86 161.5l21 -20q-2 -104 -35 -192.5t-97 -144t-147 -55.5q-131 0 -204.5 114t-73.5 278z" />
    <glyph glyph-name="ubreve" unicode="&#x16d;" horiz-adv-x="1372" 
d="M514 -20q-146 0 -225.5 81.5t-79.5 217.5v522l-146 80v75q187 65 396 80h33v-686q0 -203 172 -203q46 0 90.5 20t107.5 60v576l-143 80v75q195 63 393 78h33v-829l162 -21v-77q-75 -57 -174.5 -93t-188.5 -36h-33l-26 137h-43q-174 -137 -328 -137zM401 1550l21 21
q14 -100 84 -162.5t174 -62.5q100 0 172 63.5t86 161.5l20 -21q-2 -104 -34.5 -192t-96.5 -143.5t-147 -55.5q-88 0 -153 55.5t-95.5 143t-30.5 192.5z" />
    <glyph glyph-name="Uring" unicode="&#x16e;" horiz-adv-x="1726" 
d="M905 -20q-294 0 -468.5 131.5t-174.5 353.5v874l-182 -16l20 131h672l-20 -94l-90 -17q-107 -29 -107 -163v-641q0 -186 114 -292t306 -106q173 0 272 96t99 273v829l-224 -16l21 131h504l-21 -94l-53 -10q-55 -11 -79 -43t-24 -99v-673q0 -264 -151 -409.5t-414 -145.5z
M719 1759q0 79 64 126.5t171 47.5t170.5 -47t63.5 -127q0 -78 -63.5 -124t-170.5 -46t-171 46t-64 124zM891 1759q0 -117 63 -117q62 0 62 117q0 121 -62 121q-63 0 -63 -121z" />
    <glyph glyph-name="uring" unicode="&#x16f;" horiz-adv-x="1372" 
d="M514 -20q-146 0 -225.5 81.5t-79.5 217.5v522l-146 80v75q187 65 396 80h33v-686q0 -203 172 -203q46 0 90.5 20t107.5 60v576l-143 80v75q195 63 393 78h33v-829l162 -21v-77q-75 -57 -174.5 -93t-188.5 -36h-33l-26 137h-43q-174 -137 -328 -137zM430 1339q0 85 69 138
t179 53q109 0 177.5 -53t68.5 -138q0 -86 -68.5 -138t-177.5 -52q-111 0 -179.5 52t-68.5 138zM602 1339q0 -57 20 -97t56 -40t56 40t20 97q0 56 -20 97t-56 41t-56 -41t-20 -97z" />
    <glyph glyph-name="Uhungarumlaut" unicode="&#x170;" horiz-adv-x="1726" 
d="M905 -20q-294 0 -468.5 131.5t-174.5 353.5v874l-182 -16l20 131h672l-20 -94l-90 -17q-107 -29 -107 -163v-641q0 -186 114 -292t306 -106q173 0 272 96t99 273v829l-224 -16l21 131h504l-21 -94l-53 -10q-55 -11 -79 -43t-24 -99v-673q0 -264 -151 -409.5t-414 -145.5z
M745 1649q22 72 47 141t54.5 136t60 108t54.5 41q32 0 62 -29.5t30 -54.5q0 -34 -36 -81.5t-102 -115.5l-149 -166zM952 1630q55 130 134 250.5t118 120.5q38 0 62 -30t24 -56q0 -36 -30 -68.5t-123 -107.5l-164 -129z" />
    <glyph glyph-name="uhungarumlaut" unicode="&#x171;" horiz-adv-x="1372" 
d="M514 -20q-146 0 -225.5 81.5t-79.5 217.5v522l-146 80v75q187 65 396 80h33v-686q0 -203 172 -203q46 0 90.5 20t107.5 60v576l-143 80v75q195 63 393 78h33v-829l162 -21v-77q-75 -57 -174.5 -93t-188.5 -36h-33l-26 137h-43q-174 -137 -328 -137zM469 1210
q31 101 64.5 190t76 162.5t74.5 73.5t62 -29.5t30 -54.5q0 -34 -35.5 -81t-101.5 -115l-150 -166zM676 1192q55 130 134 250.5t118 120.5q38 0 62 -30t24 -56q0 -36 -30.5 -69t-123.5 -108l-164 -129z" />
    <glyph glyph-name="Uogonek" unicode="&#x172;" horiz-adv-x="1726" 
d="M905 -20q-294 0 -468.5 131.5t-174.5 353.5v874l-182 -16l20 131h672l-20 -94l-90 -17q-107 -29 -107 -163v-641q0 -186 114 -292t306 -106q173 0 272 96t99 273v829l-224 -16l21 131h504l-21 -94l-53 -10q-55 -11 -79 -43t-24 -99v-673q0 -179 -70.5 -304.5
t-201.5 -189.5q-96 -84 -96 -188q0 -48 34 -81.5t85 -33.5q72 0 125 35l20 -21q-36 -42 -126 -109t-105 -67q-92 0 -147.5 46t-55.5 122q0 118 96 244q-52 -8 -123 -8z" />
    <glyph glyph-name="uogonek" unicode="&#x173;" horiz-adv-x="1372" 
d="M514 -20q-146 0 -225.5 81.5t-79.5 217.5v522l-146 80v75q187 65 396 80h33v-686q0 -203 172 -203q46 0 90.5 20t107.5 60v576l-143 80v75q195 63 393 78h33v-829l162 -21v-77q-57 -44 -119 -70v-2q-150 -97 -150 -227q0 -48 34 -81.5t85 -33.5q72 0 125 35l21 -21
q-36 -42 -126.5 -109t-105.5 -67q-92 0 -147.5 46t-55.5 122q0 66 33.5 140.5t93.5 140.5q-9 0 -26 -1t-25 -1h-33l-26 137h-43q-174 -137 -328 -137z" />
    <glyph glyph-name="Wcircumflex" unicode="&#x174;" horiz-adv-x="2310" 
d="M1559 -20l-357 899l-405 -899h-56l-528 1359l-174 -10l20 125h684l-20 -94l-76 -17q-116 -24 -55 -176l282 -733l269 596l-123 309l-170 -10l20 125h705l-21 -94l-90 -17q-64 -11 -78 -51t19 -129l254 -665l276 841l-231 -10l20 125h547l-20 -94l-94 -17
q-58 -9 -90.5 -47.5t-61.5 -126.5l-391 -1189h-55zM895 1622q265 395 317 395q51 0 316 -395l-17 -25l-299 209l-299 -209z" />
    <glyph glyph-name="wcircumflex" unicode="&#x175;" horiz-adv-x="1765" 
d="M1108 -14l-217 575l-258 -575h-131l-357 915l-131 -10l21 125h563l-20 -84l-43 -14q-42 -13 -57.5 -43t1.5 -78l189 -482l170 385l-76 201l-111 -10l21 125h565l-20 -84l-58 -17q-98 -27 -57 -141l162 -432l215 559l-170 -10l20 125h410l-21 -84l-63 -23
q-73 -26 -117 -137l-299 -786h-131zM631 1180q7 12 28.5 50t35 61t37 63.5t40.5 67t38.5 61t38 57t33 43.5t28.5 31t20 10t20 -10t28.5 -31t33 -43.5t38 -57t38.5 -61t40.5 -67t37 -63.5t35 -61t28.5 -50l-21 -21l-278 230l-279 -230z" />
    <glyph glyph-name="Ycircumflex" unicode="&#x176;" horiz-adv-x="1611" 
d="M457 0l20 94l51 17q67 25 98 66t31 104v327l-448 731l-170 -16l20 131h709l-20 -94l-101 -17q-67 -10 -78.5 -42t25.5 -93l295 -475l371 606l-220 -16l21 131h512l-21 -94l-84 -14q-42 -8 -74.5 -35.5t-72.5 -93.5l-371 -609v-493l228 16l-21 -131h-700zM555 1622
q265 395 317 395q51 0 316 -395l-17 -25l-299 209l-299 -209z" />
    <glyph glyph-name="ycircumflex" unicode="&#x177;" horiz-adv-x="1275" 
d="M299 -492q-69 0 -140 101q-56 79 -65 143q-5 39 17 39h249q139 0 205 154l21 49l-430 907l-142 -10l21 125h647l-20 -84l-58 -12q-136 -27 -72 -170l197 -428l250 579l-188 -10l20 125h438l-20 -84l-55 -17q-41 -13 -78.5 -54t-63.5 -101l-389 -889q-73 -170 -160 -266.5
t-184 -96.5zM420 1180q7 12 28.5 50t35 61t37 63.5t40.5 67t38.5 61t38 57t33 43.5t28.5 31t20 10t20 -10t28.5 -31t33 -43.5t38 -57t38.5 -61t40.5 -67t37 -63.5t35 -61t28.5 -50l-21 -21l-278 230l-279 -230z" />
    <glyph glyph-name="Ydieresis" unicode="&#x178;" horiz-adv-x="1611" 
d="M457 0l20 94l51 17q67 25 98 66t31 104v327l-448 731l-170 -16l20 131h709l-20 -94l-101 -17q-67 -10 -78.5 -42t25.5 -93l295 -475l371 606l-220 -16l21 131h512l-21 -94l-84 -14q-42 -8 -74.5 -35.5t-72.5 -93.5l-371 -609v-493l228 16l-21 -131h-700zM578 1780
q0 53 38 90t93 37q51 0 86.5 -37t35.5 -90t-35.5 -90t-86.5 -37q-55 0 -93 37t-38 90zM909 1780q0 53 38 90t93 37q51 0 87 -37t36 -90t-36 -90t-87 -37q-55 0 -93 37t-38 90z" />
    <glyph glyph-name="Zacute" unicode="&#x179;" horiz-adv-x="1447" 
d="M133 0l-39 115l914 1239l-437 -15q-128 -4 -217.5 -105.5t-152.5 -283.5h-76l74 545q135 -41 307 -41h809l39 -115l-916 -1239l418 15q154 4 240.5 96t154.5 321h76l-41 -573q-135 41 -307 41h-846zM586 1624q8 11 46 58.5t58.5 73.5t58.5 72t62.5 73.5t53 57.5t48.5 44
t31 14q33 0 57.5 -34t24.5 -74q0 -17 -3 -32t-6.5 -26.5t-12.5 -24t-14.5 -20t-19.5 -18t-19.5 -15t-23.5 -14t-23 -12t-25.5 -12t-24.5 -11.5l-246 -127z" />
    <glyph glyph-name="zacute" unicode="&#x17a;" horiz-adv-x="1181" 
d="M129 0l-20 80l628 846l-180 -8q-111 -4 -200 -82t-173 -222h-69l94 455q62 -23 149.5 -38t151.5 -15h457v-2l6 2h90l20 -80l-626 -850l205 10q113 6 197 89.5t153 248.5h69l-57 -434h-895zM455 1180q29 37 119.5 162.5t153 203.5t81.5 78q40 0 67 -44.5t27 -88.5
q0 -21 -6.5 -40.5t-22 -37.5t-28.5 -30.5t-37.5 -28.5t-37.5 -24t-40 -23l-256 -148z" />
    <glyph glyph-name="Zdotaccent" unicode="&#x17b;" horiz-adv-x="1447" 
d="M133 0l-39 115l914 1239l-437 -15q-128 -4 -217.5 -105.5t-152.5 -283.5h-76l74 545q135 -41 307 -41h809l39 -115l-916 -1239l418 15q154 4 240.5 96t154.5 321h76l-41 -573q-135 41 -307 41h-846zM600 1829q0 66 47.5 113t116.5 47q64 0 110 -47t46 -113t-46 -113
t-110 -47q-69 0 -116.5 47t-47.5 113z" />
    <glyph glyph-name="zdotaccent" unicode="&#x17c;" horiz-adv-x="1181" 
d="M129 0l-20 80l628 846l-180 -8q-111 -4 -200 -82t-173 -222h-69l94 455q62 -23 149.5 -38t151.5 -15h457v-2l6 2h90l20 -80l-626 -850l205 10q113 6 197 89.5t153 248.5h69l-57 -434h-895zM516 1391q0 66 47.5 112.5t116.5 46.5q65 0 110.5 -46.5t45.5 -112.5t-46 -113
t-110 -47q-69 0 -116.5 47t-47.5 113z" />
    <glyph glyph-name="Zcaron" unicode="&#x17d;" horiz-adv-x="1447" 
d="M133 0l-39 115l914 1239l-437 -15q-128 -4 -217.5 -105.5t-152.5 -283.5h-76l74 545q135 -41 307 -41h809l39 -115l-916 -1239l418 15q154 4 240.5 96t154.5 321h76l-41 -573q-135 41 -307 41h-846zM444 1991l19 24l299 -209l299 209l16 -24q-266 -396 -315 -396
q-52 0 -318 396z" />
    <glyph glyph-name="zcaron" unicode="&#x17e;" horiz-adv-x="1181" 
d="M129 0l-20 80l628 846l-180 -8q-111 -4 -200 -82t-173 -222h-69l94 455q62 -23 149.5 -38t151.5 -15h457v-2l6 2h90l20 -80l-626 -850l205 10q113 6 197 89.5t153 248.5h69l-57 -434h-895zM379 1614l20 20l279 -229l278 229l21 -20q-8 -14 -29 -50.5t-35 -61t-37 -63.5
t-40 -66.5t-38.5 -61.5t-38 -57t-32.5 -44t-28.5 -31t-20.5 -10t-20.5 10t-28.5 31t-32.5 44t-38 57t-38.5 61.5t-40 66.5t-37 63.5t-35 61t-29 50.5z" />
    <glyph glyph-name="florin" unicode="&#x192;" horiz-adv-x="1286" 
d="M557 1075q29 230 140 356t315 125q114 0 228 -22.5t114 -50.5q0 -75 -35.5 -132t-87.5 -57q-13 0 -29 4.5t-37 15.5t-36.5 20t-43.5 28.5t-41 28.5t-45 32.5t-41 30.5h-20q-43 0 -62.5 -55.5t-35.5 -194.5l-25 -188h387v-113h-401l-96 -764q-29 -231 -138.5 -356.5
t-316.5 -124.5q-114 0 -228 23t-114 51q0 74 35.5 131t87.5 57q13 0 29 -4.5t36.5 -15.5t37 -20.5t43 -28t41 -28.5t44.5 -32.5t41 -30.5h21q43 0 62.5 55.5t35.5 194.5l113 893h-216v78l234 55z" />
    <glyph glyph-name="uni0218" unicode="&#x218;" horiz-adv-x="1292" 
d="M674 -20q-259 0 -496 83l-49 453h76q82 -199 209 -305.5t284 -106.5q112 0 186 58.5t74 161.5q0 100 -89 162t-287 122q-248 70 -348.5 168.5t-100.5 253.5q0 90 38 170t107 141.5t175.5 97.5t234.5 36q148 0 381 -64l23 -416h-76q-63 184 -158 268.5t-240 84.5
q-119 0 -188.5 -63.5t-69.5 -156.5q0 -91 84 -150t304 -122q233 -65 333.5 -163.5t100.5 -264.5q0 -124 -62.5 -225.5t-179.5 -162t-266 -60.5zM528 -238q0 61 38.5 101.5t103.5 40.5q78 0 125 -53t47 -138q0 -178 -246 -356l-21 20q89 99 89 207q0 35 -14 61t-34 40t-40 25
t-34 23.5t-14 28.5z" />
    <glyph glyph-name="uni0219" unicode="&#x219;" horiz-adv-x="1050" 
d="M512 -20q-194 0 -375 57l-18 309h69q48 -55 85 -91t88.5 -78t105.5 -63.5t108 -21.5q57 0 93.5 27.5t36.5 85.5q0 64 -60.5 103t-220.5 89q-158 51 -233.5 123t-75.5 187q0 64 26.5 122t78 104.5t137 74.5t192.5 28q144 0 309 -43l21 -311h-70q-159 240 -328 240
q-63 0 -101 -28t-38 -79q0 -52 60 -89t208 -87q173 -58 247.5 -129.5t74.5 -196.5q0 -148 -112 -240.5t-308 -92.5zM381 -238q0 62 38 102t103 40q78 0 125 -53t47 -138q0 -179 -245 -356l-21 20q88 98 88 207q0 35 -14 61t-33.5 40t-39.5 25t-34 23.5t-14 28.5z" />
    <glyph glyph-name="uni021A" unicode="&#x21a;" horiz-adv-x="1435" 
d="M354 0l21 94l90 23q102 25 102 151v1071h-161q-43 0 -78.5 -15.5t-61.5 -39.5t-51 -66t-42.5 -83t-39.5 -103h-76l41 463q135 -41 283 -41h674q147 0 282 41l41 -463h-75q-20 49 -30.5 75t-28.5 64.5t-31.5 58.5t-34.5 44.5t-41.5 36t-47.5 20t-59 8.5h-170v-1224l236 16
l-21 -131h-721zM559 -238q0 62 38 102t103 40q78 0 125 -53t47 -138q0 -179 -245 -356l-21 20q88 98 88 207q0 35 -14 61t-34 40t-39.5 25t-33.5 23.5t-14 28.5z" />
    <glyph glyph-name="uni021B" unicode="&#x21b;" horiz-adv-x="897" 
d="M475 -20q-128 0 -192 69.5t-64 173.5v680h-164v70l164 76l209 184h74v-217h325v-113h-325v-581q0 -146 125 -146q99 0 192 17l29 -48q-74 -73 -175.5 -119t-197.5 -46zM334 -238q0 62 38 102t103 40q78 0 125 -53t47 -138q0 -178 -246 -356l-20 20q88 98 88 207
q0 35 -14 61t-33.5 40t-39.5 25t-34 23.5t-14 28.5z" />
    <glyph glyph-name="uni0237" unicode="&#x237;" horiz-adv-x="663" 
d="M23 -446q186 186 186 448v799l-146 80v75q96 33 217.5 56.5t208.5 23.5h21q-16 -187 -16 -391v-557q-1 -110 -35.5 -209t-94 -172t-135.5 -124.5t-161 -74.5z" />
    <glyph glyph-name="circumflex" unicode="&#x2c6;" horiz-adv-x="720" 
d="M639 1159l-279 230l-278 -230l-21 21q7 12 28.5 50t35 61t37 63.5t40.5 67t38.5 61t38 57t33 43.5t28.5 31t20 10t20 -10t28.5 -31t33 -43.5t38 -57t38.5 -61t40.5 -67t37 -63.5t35 -61t28.5 -50z" />
    <glyph glyph-name="caron" unicode="&#x2c7;" horiz-adv-x="720" 
d="M659 1602q-8 -14 -29 -50.5t-35 -61t-37 -63.5t-40 -66.5t-38.5 -61.5t-38 -57t-32.5 -44t-28.5 -31t-20.5 -10t-20.5 10t-28.5 31t-32.5 44t-38 57t-38.5 61.5t-40 66.5t-37 63.5t-35 61t-29 50.5l21 20l278 -229l279 229z" />
    <glyph glyph-name="breve" unicode="&#x2d8;" horiz-adv-x="659" 
d="M330 1159q-88 0 -153 55.5t-95.5 143t-30.5 192.5l21 21q14 -100 84 -162.5t174 -62.5q100 0 172 63.5t86 161.5l20 -21q-2 -104 -34.5 -192t-96.5 -143.5t-147 -55.5z" />
    <glyph glyph-name="dotaccent" unicode="&#x2d9;" horiz-adv-x="339" 
d="M174 1231q-69 0 -116.5 47t-47.5 113t47.5 112.5t116.5 46.5q65 0 110.5 -46.5t45.5 -112.5t-46 -113t-110 -47z" />
    <glyph glyph-name="ring" unicode="&#x2da;" horiz-adv-x="518" 
d="M260 1149q-111 0 -179.5 52t-68.5 138q0 85 69 138t179 53q109 0 177.5 -53t68.5 -138q0 -86 -68.5 -138t-177.5 -52zM184 1339q0 -57 20 -97t56 -40t56 40t20 97q0 56 -20 97t-56 41t-56 -41t-20 -97z" />
    <glyph glyph-name="ogonek" unicode="&#x2db;" horiz-adv-x="378" 
d="M242 -479q-92 0 -147.5 46t-55.5 122q0 107 81.5 224.5t213.5 190.5l24 -79q-149 -97 -149 -228q0 -48 34 -81t85 -33q73 0 125 34l20 -20q-36 -42 -126 -109t-105 -67z" />
    <glyph glyph-name="tilde" unicode="&#x2dc;" horiz-adv-x="821" 
d="M49 1231q35 108 107 192t137 84q36 0 152.5 -63.5t144.5 -63.5q44 0 85.5 35.5t74.5 93.5l20 -20q-28 -115 -94.5 -200t-130.5 -85q-26 0 -63.5 18t-71 39.5t-77.5 39.5t-81 18q-33 0 -84 -32.5t-98 -76.5z" />
    <glyph glyph-name="hungarumlaut" unicode="&#x2dd;" horiz-adv-x="591" 
d="M39 1198q31 101 64.5 190t76 162.5t74.5 73.5t62 -29.5t30 -54.5q0 -34 -36 -82t-101 -115l-150 -165zM246 1180q55 130 134 250t118 120q38 0 62 -30t24 -56q0 -35 -30 -67.5t-124 -108.5l-164 -129z" />
    <glyph glyph-name="gravecomb" unicode="&#x300;" 
d="M541 1180l-21 -21l-256 148q-27 15 -40 23t-37.5 24t-37.5 28.5t-28.5 30.5t-22 37.5t-6.5 40.5q0 44 27 88.5t67 44.5q19 0 81.5 -78t153.5 -203.5t120 -162.5z" />
    <glyph glyph-name="acutecomb" unicode="&#x301;" 
d="M66 1180q29 37 119.5 162.5t153 203.5t81.5 78q40 0 67 -44.5t27 -88.5q0 -21 -6.5 -40.5t-22 -37.5t-28.5 -30.5t-37.5 -28.5t-37.5 -24t-40 -23l-256 -148z" />
    <glyph glyph-name="uni0302" unicode="&#x302;" 
d="M639 1159l-279 230l-278 -230l-21 21q7 12 28.5 50t35 61t37 63.5t40.5 67t38.5 61t38 57t33 43.5t28.5 31t20 10t20 -10t28.5 -31t33 -43.5t38 -57t38.5 -61t40.5 -67t37 -63.5t35 -61t28.5 -50z" />
    <glyph glyph-name="tildecomb" unicode="&#x303;" 
d="M49 1231q35 108 107 192t137 84q36 0 152.5 -63.5t144.5 -63.5q44 0 85.5 35.5t74.5 93.5l20 -20q-28 -115 -94.5 -200t-130.5 -85q-26 0 -63.5 18t-71 39.5t-77.5 39.5t-81 18q-33 0 -84 -32.5t-98 -76.5z" />
    <glyph glyph-name="uni0304" unicode="&#x304;" 
d="M16 1225q0 30 25.5 77.5t48.5 47.5h584q0 -38 -21 -81.5t-53 -43.5h-584z" />
    <glyph glyph-name="uni0306" unicode="&#x306;" 
d="M330 1159q-88 0 -153 55.5t-95.5 143t-30.5 192.5l21 21q14 -100 84 -162.5t174 -62.5q100 0 172 63.5t86 161.5l20 -21q-2 -104 -34.5 -192t-96.5 -143.5t-147 -55.5z" />
    <glyph glyph-name="uni0307" unicode="&#x307;" 
d="M174 1231q-69 0 -116.5 47t-47.5 113t47.5 112.5t116.5 46.5q65 0 110.5 -46.5t45.5 -112.5t-46 -113t-110 -47z" />
    <glyph glyph-name="uni0308" unicode="&#x308;" 
d="M541 1225q-61 0 -103.5 41t-42.5 100t42.5 100t103.5 41q57 0 97 -41t40 -100t-40 -100t-97 -41zM27 1366q0 59 42 100t103 41q57 0 97 -41t40 -100t-40 -100t-97 -41q-61 0 -103 41t-42 100z" />
    <glyph glyph-name="uni030A" unicode="&#x30a;" 
d="M260 1149q-111 0 -179.5 52t-68.5 138q0 85 69 138t179 53q109 0 177.5 -53t68.5 -138q0 -86 -68.5 -138t-177.5 -52zM184 1339q0 -57 20 -97t56 -40t56 40t20 97q0 56 -20 97t-56 41t-56 -41t-20 -97z" />
    <glyph glyph-name="uni030B" unicode="&#x30b;" 
d="M39 1198q31 101 64.5 190t76 162.5t74.5 73.5t62 -29.5t30 -54.5q0 -34 -36 -82t-101 -115l-150 -165zM246 1180q55 130 134 250t118 120q38 0 62 -30t24 -56q0 -35 -30 -67.5t-124 -108.5l-164 -129z" />
    <glyph glyph-name="uni030C" unicode="&#x30c;" 
d="M659 1602q-8 -14 -29 -50.5t-35 -61t-37 -63.5t-40 -66.5t-38.5 -61.5t-38 -57t-32.5 -44t-28.5 -31t-20.5 -10t-20.5 10t-28.5 31t-32.5 44t-38 57t-38.5 61.5t-40 66.5t-37 63.5t-35 61t-29 50.5l21 20l278 -229l279 229z" />
    <glyph glyph-name="uni0312" unicode="&#x312;" 
d="M291 1673q-88 -98 -88 -207q0 -35 14 -61t33.5 -40t39.5 -25t34 -23.5t14 -28.5q0 -61 -38 -101t-103 -40q-78 0 -125 52.5t-47 137.5q0 180 245 357z" />
    <glyph glyph-name="uni0326" unicode="&#x326;" 
d="M88 -623q88 98 88 207q0 35 -14 61t-33.5 40t-39.5 25t-34 23.5t-14 28.5q0 62 38 102t103 40q78 0 125 -53t47 -138q0 -179 -245 -356z" />
    <glyph glyph-name="uni0327" unicode="&#x327;" 
d="M76 -551q41 35 68.5 79t27.5 85q0 29 -7 50.5t-27 41.5t-38 32.5t-57 37.5l135 272h66l-31 -147q69 -37 106 -77t37 -95t-25 -105.5t-65 -87.5t-83 -63.5t-87 -42.5z" />
    <glyph glyph-name="uni0328" unicode="&#x328;" 
d="M242 -479q-92 0 -147.5 46t-55.5 122q0 107 81.5 224.5t213.5 190.5l24 -79q-149 -97 -149 -228q0 -48 34 -81t85 -33q73 0 125 34l20 -20q-36 -42 -126 -109t-105 -67z" />
    <glyph glyph-name="uni0394" unicode="&#x394;" horiz-adv-x="1441" 
d="M39 0l655 1454h54l655 -1454h-1364zM227 121h801l-401 891z" />
    <glyph glyph-name="uni03A9" unicode="&#x3a9;" horiz-adv-x="1728" 
d="M950 127q91 91 147 157t105 147t70.5 168t21.5 192q0 162 -52.5 289t-150.5 198.5t-227 71.5t-227 -71.5t-150.5 -198.5t-52.5 -289q0 -105 21.5 -192t70.5 -168t105 -147t147 -157l-41 -127h-637l-20 260l442 -51q-98 68 -168 129.5t-127.5 133.5t-86.5 152.5t-29 170.5
q0 196 92.5 350.5t264.5 242t396 87.5t396 -87.5t265 -242t93 -350.5q0 -91 -29.5 -173t-89 -154.5t-131 -134.5t-172.5 -130l453 33l-21 -236h-637z" />
    <glyph glyph-name="uni03BC" unicode="&#x3bc;" horiz-adv-x="1398" 
d="M514 -20q-90 0 -152 30q36 -190 168 -379l-258 -123q-38 69 -59.5 219t-21.5 296.5t8 273.5l10 -2v506l-146 80v75q187 65 396 80h33v-686q0 -203 172 -203q46 0 90.5 20t107.5 60v576l-143 80v75q195 63 393 78h33v-829l162 -21v-77q-75 -57 -174.5 -93t-188.5 -36h-33
l-26 137h-43q-174 -137 -328 -137z" />
    <glyph glyph-name="pi" unicode="&#x3c0;" horiz-adv-x="1280" 
d="M885 -20q-71 0 -115 59.5t-51 212.5q-10 178 43 502h-250q-4 -505 -31 -774q-90 -1 -163.5 31.5t-108.5 84.5q38 80 61 132.5t59.5 149t56 192t20.5 184.5h-13q-39 0 -88.5 -8t-79.5 -15.5t-82.5 -22t-58.5 -16.5l-21 21q20 52 57.5 104t87 97t114.5 73.5t131 28.5h710
q5 -49 -6 -136.5t-35 -125.5h-213q6 -205 45 -373q23 -98 90.5 -129.5t188.5 -9.5l20 -92q-93 -66 -195.5 -118t-172.5 -52z" />
    <glyph glyph-name="uni0400" unicode="&#x400;" horiz-adv-x="1482" 
d="M90 0l21 94l63 15q100 26 100 129v1101l-194 -16l20 131h852q145 0 277 53l65 -499h-75q-30 69 -53.5 115t-55 90t-64.5 69.5t-76.5 41t-95.5 15.5h-307v-538h168q99 0 146.5 48.5t68.5 182.5h76v-561h-76q-23 129 -69.5 175t-145.5 46h-168v-577h379q61 0 114 30
t95.5 86t75.5 120.5t65 148.5h76l-94 -553q-117 53 -268 53h-920zM485 1909q0 40 24.5 74t57.5 34q9 0 23.5 -9t33.5 -27t38.5 -38.5t45.5 -50.5t46.5 -54t48.5 -59t45 -56t42.5 -54t35.5 -45l-23 -27l-246 127q-4 2 -24.5 11.5t-25.5 12t-23 12t-23.5 14t-19.5 15t-19.5 18
t-14.5 20t-12.5 24t-6.5 26.5t-3 32z" />
    <glyph glyph-name="uni0401" unicode="&#x401;" horiz-adv-x="1482" 
d="M90 0l21 94l63 15q100 26 100 129v1101l-194 -16l20 131h852q145 0 277 53l65 -499h-75q-30 69 -53.5 115t-55 90t-64.5 69.5t-76.5 41t-95.5 15.5h-307v-538h168q99 0 146.5 48.5t68.5 182.5h76v-561h-76q-23 129 -69.5 175t-145.5 46h-168v-577h379q61 0 114 30
t95.5 86t75.5 120.5t65 148.5h76l-94 -553q-117 53 -268 53h-920zM459 1780q0 53 38 90t93 37q51 0 87 -37t36 -90t-36 -90t-87 -37q-55 0 -93 37t-38 90zM791 1780q0 53 38 90t93 37q51 0 86.5 -37t35.5 -90t-35.5 -90t-86.5 -37q-55 0 -93 37t-38 90z" />
    <glyph glyph-name="uni0402" unicode="&#x402;" horiz-adv-x="1826" 
d="M1186 -375q-95 0 -179.5 35t-84.5 78q0 52 40.5 95.5t90.5 43.5l266 -121q62 77 103.5 211.5t41.5 306.5q0 202 -84.5 321.5t-238.5 119.5q-135 0 -281 -78v-522l236 16l-21 -131h-721l21 94l90 23q102 25 102 151v1071h-161q-43 0 -78.5 -15.5t-61.5 -39.5t-51 -66
t-42.5 -83t-39.5 -103h-76l41 463q135 -41 283 -41h674q147 0 282 41l41 -463h-75q-20 49 -30.5 75t-28.5 64.5t-31.5 58.5t-34.5 44.5t-41.5 36t-47.5 20t-59 8.5h-170v-587q80 63 188 104t224 41q152 0 266.5 -74t172.5 -196t58 -271q0 -158 -50 -297t-131.5 -232.5
t-186.5 -147.5t-215 -54z" />
    <glyph glyph-name="uni0403" unicode="&#x403;" horiz-adv-x="1337" 
d="M90 0l21 94l61 15q55 15 78.5 47.5t23.5 89.5v1093l-194 -16l20 131h799q160 0 287 41l41 -463h-76q-65 151 -97 199q-62 95 -157 106q-13 2 -27 2h-147q-85 0 -120.5 -31.5t-35.5 -103.5v-1089l195 16l-21 -131h-651zM559 1624q10 12 35.5 45t42.5 54t45 56t48.5 59
t46.5 54t45.5 50.5t38.5 38.5t33.5 27t23.5 9q33 0 57 -34t24 -74q0 -17 -3 -32t-6.5 -26.5t-12.5 -24t-14.5 -20t-19.5 -18t-19.5 -15t-23.5 -14t-23 -12t-25.5 -12t-24.5 -11.5l-245 -127z" />
    <glyph glyph-name="uni0404" unicode="&#x404;" horiz-adv-x="1591" 
d="M891 -20q-159 0 -301 56t-246 153t-164.5 235.5t-60.5 296.5q0 222 97.5 394.5t270 266t390.5 93.5q306 0 557 -115l20 -402h-76q-83 195 -206 297.5t-300 102.5q-186 0 -302.5 -156t-127.5 -414h285q99 0 145.5 47t69.5 181h76v-563h-76q-23 133 -69.5 180t-145.5 47
h-283q11 -273 117.5 -424.5t300.5 -151.5q146 0 265.5 92t201.5 255q80 -5 131 -49.5t51 -112.5q0 -79 -62.5 -141.5t-159.5 -97.5t-199.5 -52.5t-198.5 -17.5z" />
    <glyph glyph-name="uni0405" unicode="&#x405;" horiz-adv-x="1236" 
d="M674 -20q-259 0 -496 83l-49 453h76q82 -199 209 -305.5t284 -106.5q112 0 186 58.5t74 161.5q0 100 -89 162t-287 122q-248 70 -348.5 168.5t-100.5 253.5q0 90 38 170t107 141.5t175.5 97.5t234.5 36q148 0 381 -64l23 -416h-76q-63 184 -158 268.5t-240 84.5
q-119 0 -188.5 -63.5t-69.5 -156.5q0 -91 84 -150t304 -122q233 -65 333.5 -163.5t100.5 -264.5q0 -124 -62.5 -225.5t-179.5 -162t-266 -60.5z" />
    <glyph glyph-name="uni0406" unicode="&#x406;" horiz-adv-x="829" 
d="M90 0l21 94l63 15q53 15 76.5 47t23.5 84v1099l-194 -16l20 131h645l-20 -94l-66 -17q-92 -25 -92 -131v-1097l195 16l-21 -131h-651z" />
    <glyph glyph-name="uni0407" unicode="&#x407;" horiz-adv-x="829" 
d="M90 0l21 94l63 15q53 15 76.5 47t23.5 84v1099l-194 -16l20 131h645l-20 -94l-66 -17q-92 -25 -92 -131v-1097l195 16l-21 -131h-651zM143 1780q0 53 38 90t93 37q52 0 88.5 -37t36.5 -90t-36.5 -90t-88.5 -37q-55 0 -93 37t-38 90zM475 1780q0 53 38 90t93 37
q52 0 88.5 -37t36.5 -90t-36.5 -90t-88.5 -37q-55 0 -93 37t-38 90z" />
    <glyph glyph-name="uni0408" unicode="&#x408;" horiz-adv-x="874" 
d="M-43 -406q142 115 228.5 280.5t86.5 379.5v1085l-252 -16l21 131h709l-21 -94l-78 -19q-41 -9 -63.5 -45t-22.5 -90v-913q0 -152 -33.5 -278.5t-88.5 -212.5t-129 -147.5t-152 -91t-160 -34.5z" />
    <glyph glyph-name="uni0409" unicode="&#x409;" horiz-adv-x="2199" 
d="M283 -12q-35 0 -91 26t-102.5 72t-46.5 90q103 27 184.5 89t133 143.5t85 185t47 207t13.5 215.5v315l-268 -8l26 131h1215l-21 -106l-69 -9q-46 -6 -65 -38.5t-19 -94.5v-348h172q283 0 450.5 -112.5t167.5 -299.5q0 -206 -143 -326t-387 -120h-746l21 106l69 5
q103 3 103 135v1085h-391v-291q0 -165 -16.5 -316t-53.5 -298.5t-105.5 -262.5t-162.5 -175zM1305 115h145q148 0 235 83.5t87 227.5q0 146 -83.5 231.5t-224.5 85.5h-159v-628z" />
    <glyph glyph-name="uni040A" unicode="&#x40a;" horiz-adv-x="2420" 
d="M90 0l21 94l61 15q55 15 78.5 47.5t23.5 89.5v1093l-194 -16l20 131h643l-20 -94l-64 -17q-50 -13 -71 -46.5t-21 -92.5v-387h666v522l-195 -16l21 131h643l-21 -94l-65 -17q-49 -13 -69.5 -39t-20.5 -87v-400h172q287 0 452.5 -102.5t165.5 -286.5q0 -204 -141.5 -316
t-388.5 -112h-733l20 94l74 17q86 20 86 137v454h-666v-587l195 16l-21 -131h-651zM1526 115h145q151 0 236.5 75.5t85.5 217.5q0 144 -81.5 219t-225.5 75h-160v-587z" />
    <glyph glyph-name="uni040B" unicode="&#x40b;" horiz-adv-x="2004" 
d="M1268 0l20 94l58 17q49 15 70.5 48t21.5 91v233q0 117 -51.5 180.5t-141.5 63.5q-82 0 -192.5 -27.5t-192.5 -62.5v-522l236 16l-21 -131h-721l21 94l90 23q102 25 102 151v1071h-161q-43 0 -78.5 -15.5t-61.5 -39.5t-51 -66t-42.5 -83t-39.5 -103h-76l41 463
q135 -41 283 -41h674q147 0 282 41l41 -463h-75q-20 49 -30.5 75t-28.5 64.5t-31.5 58.5t-34.5 44.5t-41.5 36t-47.5 20t-59 8.5h-170v-594q96 69 227.5 116.5t262.5 47.5q101 0 176.5 -29.5t119 -81t64.5 -114t21 -135.5v-434l194 16l-20 -131h-637z" />
    <glyph glyph-name="uni040C" unicode="&#x40c;" horiz-adv-x="1701" 
d="M1645 -20q-243 0 -385 48.5t-234 166.5l-375 467v30l641 643l-241 -12l20 131h580l-21 -94q-107 -12 -167.5 -46t-121.5 -95l-446 -451l391 -461q96 -113 171.5 -173.5t199.5 -113.5zM80 1323l20 131h643l-20 -94l-64 -17q-90 -25 -90 -131v-1097l174 16l-20 -131h-631
l21 94l63 15q48 12 74 47.5t26 89.5v1093zM690 1624q10 12 35.5 45t42.5 54t45 56t48.5 59t46.5 54t45.5 50.5t38.5 38.5t33.5 27t23.5 9q33 0 57 -34t24 -74q0 -17 -3 -32t-6.5 -26.5t-12.5 -24t-14.5 -20t-19.5 -18t-19.5 -15t-23.5 -14t-23 -12t-25.5 -12t-24.5 -11.5
l-245 -127z" />
    <glyph glyph-name="uni040D" unicode="&#x40d;" horiz-adv-x="1845" 
d="M567 106v-106h-477l21 94l61 15q55 15 78.5 47.5t23.5 89.5v1093l-194 -16l20 131h643l-20 -94l-64 -17q-50 -13 -71 -46.5t-21 -92.5v-825l647 795q29 37 46.5 86.5t17.5 87.5v106h469l-21 -94l-65 -17q-48 -13 -69 -46.5t-21 -92.5v-1089l194 16l-20 -131h-647l20 94
l70 15q90 23 90 137v809l-653 -803q-22 -25 -40 -68t-18 -78zM729 1909q0 40 24.5 74t57.5 34q11 0 31 -14t48.5 -44t53 -57.5t62.5 -73.5t58.5 -72t58.5 -73.5t46 -58.5l-22 -27l-246 127q-4 2 -24.5 11.5t-25.5 12t-23 12t-23.5 14t-19.5 15t-19.5 18t-14.5 20t-12.5 24
t-6.5 26.5t-3 32z" />
    <glyph glyph-name="uni040E" unicode="&#x40e;" horiz-adv-x="1536" 
d="M303 -20q-47 0 -81 40t-47 90t-13 99q16 0 66.5 -0.5t66.5 0t57.5 2.5t59.5 6t51 11.5t53 19t44.5 28.5t45.5 39q94 98 29 213l-436 811l-160 -10l20 125h709l-20 -94l-101 -10q-67 -6 -86 -43.5t14 -98.5l271 -495l334 626l-201 -10l20 125h498l-20 -94l-84 -8
q-42 -5 -76 -34t-72 -101l-411 -762q-97 -179 -189 -286.5t-172 -148t-170 -40.5zM520 1827q0 71 56 109t157 38q-21 -143 11 -221t116 -78t116.5 78t12.5 221q101 0 157 -38t56 -109q0 -89 -100 -159.5t-242 -70.5t-241 70.5t-99 159.5z" />
    <glyph glyph-name="uni040F" unicode="&#x40f;" horiz-adv-x="1804" 
d="M80 0l20 131l195 -16v1224l-195 -16l21 131h647l-20 -94l-70 -14q-90 -22 -90 -138v-1093h493q85 0 120.5 31t35.5 102v1089l-195 -16l21 131h651l-20 -94l-64 -15q-54 -15 -77 -47.5t-23 -89.5v-1091l194 16l-20 -131h-760q38 -167 70 -471h-230q32 304 70 471h-774z
" />
    <glyph glyph-name="uni0410" unicode="&#x410;" horiz-adv-x="1722" 
d="M977 0l20 94l72 17q64 15 82 44.5t-6 86.5l-74 157h-616l-119 -284l233 16l-20 -131h-510l20 94l74 17q51 11 79 44t60 107l406 961q-94 136 -260 190l8 41h467l620 -1339l170 16l-20 -131h-686zM504 514h514l-270 580z" />
    <glyph glyph-name="uni0411" unicode="&#x411;" horiz-adv-x="1460" 
d="M90 0l19 94l65 15q45 11 66.5 40t21.5 87v1103l-182 -16l20 131h824q159 0 286 41l41 -463h-75q-19 44 -25.5 59.5t-23.5 52t-25 50t-24.5 40.5t-28.5 37.5t-30.5 27.5t-36 23t-40 11.5t-47.5 5.5h-209q-131 0 -131 -122v-359h197q283 0 450.5 -112.5t167.5 -299.5
q0 -206 -143 -326t-387 -120h-750zM555 115h170q148 0 235 83.5t87 227.5q0 146 -83.5 231.5t-224.5 85.5h-184v-628z" />
    <glyph glyph-name="uni0412" unicode="&#x412;" horiz-adv-x="1495" 
d="M90 0l19 94l63 15q50 11 70 43t20 88v1099l-182 -16l20 131h695q231 0 369.5 -94.5t138.5 -241.5q0 -137 -87.5 -230t-242.5 -118q193 -25 305.5 -116.5t112.5 -227.5q0 -124 -72 -222t-193 -151t-266 -53h-770zM555 115h190q166 0 244 70t78 221q0 137 -80 214.5
t-227 77.5h-205v-583zM555 799h217q105 0 166 76.5t61 199.5q0 130 -73.5 197t-208.5 67h-162v-540z" />
    <glyph glyph-name="uni0413" unicode="&#x413;" horiz-adv-x="1337" 
d="M90 0l21 94l61 15q55 15 78.5 47.5t23.5 89.5v1093l-194 -16l20 131h799q160 0 287 41l41 -463h-76q-65 151 -97 199q-62 95 -157 106q-13 2 -27 2h-147q-85 0 -120.5 -31.5t-35.5 -103.5v-1089l195 16l-21 -131h-651z" />
    <glyph glyph-name="uni0414" unicode="&#x414;" horiz-adv-x="1646" 
d="M100 -471q-68 374 -61 602l158 -6q77 42 138 119t98 167t61 199.5t33.5 210t9.5 203.5v315l-279 -8l27 123h1259l-20 -98l-70 -8q-45 -6 -64.5 -39.5t-19.5 -94.5v-1099l244 16q20 -294 -86 -602h-76q9 239 -30.5 355t-131.5 116h-946q-37 0 -63 -19.5t-43.5 -53.5
t-29.5 -96.5t-18.5 -129.5t-13.5 -172h-76zM426 115h549q102 0 102 131v1093h-428v-290q0 -282 -53.5 -533t-169.5 -401z" />
    <glyph glyph-name="uni0415" unicode="&#x415;" horiz-adv-x="1482" 
d="M90 0l21 94l63 15q100 26 100 129v1101l-194 -16l20 131h852q145 0 277 53l65 -499h-75q-30 69 -53.5 115t-55 90t-64.5 69.5t-76.5 41t-95.5 15.5h-307v-538h168q99 0 146.5 48.5t68.5 182.5h76v-561h-76q-23 129 -69.5 175t-145.5 46h-168v-577h379q61 0 114 30
t95.5 86t75.5 120.5t65 148.5h76l-94 -553q-117 53 -268 53h-920z" />
    <glyph glyph-name="uni0416" unicode="&#x416;" horiz-adv-x="2471" 
d="M901 0l21 94l63 15q46 12 73 46.5t27 84.5v1099l-196 -16l20 131h643l-20 -94l-64 -17q-90 -25 -90 -131v-1097l183 16l-21 -131h-639zM47 20q135 57 214.5 117.5t156.5 169.5l348 490l-412 422q-39 41 -67 63.5t-84 46t-129 31.5l20 94h578l-21 -131l-245 12l591 -618
v-21l-321 -501q-75 -122 -219 -168.5t-400 -46.5zM1464 696v21l596 618l-245 -12l20 131h580l-21 -94q-74 -8 -130.5 -31.5t-83.5 -45.5t-69 -64l-409 -422l348 -490q77 -109 156.5 -169.5t214.5 -117.5l-13 -40q-254 0 -398 46.5t-220 168.5z" />
    <glyph glyph-name="uni0417" unicode="&#x417;" horiz-adv-x="1378" 
d="M637 -20q-89 0 -184 19.5t-180 55t-140 95t-55 131.5q0 68 51.5 120t128.5 52q27 -52 41.5 -79t39 -69.5t42 -64.5t43 -52t49 -45t54 -31t65 -22t74.5 -6q128 0 203 89t75 220q0 299 -444 299l-39 115q191 0 313.5 86.5t122.5 243.5q0 101 -64.5 167t-187.5 66
q-73 0 -132.5 -27t-105 -79.5t-78.5 -114t-65 -145.5h-76l41 405q200 66 428 66q254 0 399.5 -86t145.5 -242q0 -125 -89 -220.5t-239 -148.5q185 -22 285.5 -107.5t100.5 -232.5q0 -133 -80.5 -238t-222.5 -162.5t-320 -57.5z" />
    <glyph glyph-name="uni0418" unicode="&#x418;" horiz-adv-x="1845" 
d="M567 106v-106h-477l21 94l61 15q55 15 78.5 47.5t23.5 89.5v1093l-194 -16l20 131h643l-20 -94l-64 -17q-50 -13 -71 -46.5t-21 -92.5v-825l647 795q29 37 46.5 86.5t17.5 87.5v106h469l-21 -94l-65 -17q-48 -13 -69 -46.5t-21 -92.5v-1089l194 16l-20 -131h-647l20 94
l70 15q90 23 90 137v809l-653 -803q-22 -25 -40 -68t-18 -78z" />
    <glyph glyph-name="uni0419" unicode="&#x419;" horiz-adv-x="1845" 
d="M567 106v-106h-477l21 94l61 15q55 15 78.5 47.5t23.5 89.5v1093l-194 -16l20 131h643l-20 -94l-64 -17q-50 -13 -71 -46.5t-21 -92.5v-825l647 795q29 37 46.5 86.5t17.5 87.5v106h469l-21 -94l-65 -17q-48 -13 -69 -46.5t-21 -92.5v-1089l194 16l-20 -131h-647l20 94
l70 15q90 23 90 137v809l-653 -803q-22 -25 -40 -68t-18 -78zM655 1827q0 71 56 109t157 38q-21 -143 11 -221t116 -78t116.5 78t12.5 221q101 0 157 -38t56 -109q0 -89 -100 -159.5t-242 -70.5t-241 70.5t-99 159.5z" />
    <glyph glyph-name="uni041A" unicode="&#x41a;" horiz-adv-x="1701" 
d="M1645 -20q-243 0 -385 48.5t-234 166.5l-375 467v30l641 643l-241 -12l20 131h580l-21 -94q-107 -12 -167.5 -46t-121.5 -95l-446 -451l391 -461q96 -113 171.5 -173.5t199.5 -113.5zM80 1323l20 131h643l-20 -94l-64 -17q-90 -25 -90 -131v-1097l174 16l-20 -131h-631
l21 94l63 15q48 12 74 47.5t26 89.5v1093z" />
    <glyph glyph-name="uni041B" unicode="&#x41b;" horiz-adv-x="1615" 
d="M258 -20q-59 0 -137 72t-78 141q455 118 455 798v348l-277 -8l27 123h1268l-21 -98l-70 -8q-45 -6 -64.5 -39.5t-19.5 -94.5v-1099l195 16l-20 -131h-660l21 106l69 5q103 3 103 135v1093h-437v-323q0 -169 -18 -320t-57 -293t-110 -252t-169 -171z" />
    <glyph glyph-name="uni041C" unicode="&#x41c;" horiz-adv-x="2105" 
d="M111 0l20 94l78 17q89 17 92 108l43 1026q-81 77 -264 168l10 41h512l485 -999l441 999h497l-20 -70l-51 -16q-68 -25 -97 -63.5t-26 -102.5l41 -1087l194 16l-20 -131h-643l20 94l62 15q94 22 88 147l-33 928l-522 -1204h-33v6l-2 -6l-528 1091l-33 -956l211 16
l-21 -131h-501z" />
    <glyph glyph-name="uni041D" unicode="&#x41d;" horiz-adv-x="1849" 
d="M1102 0l20 94l70 15q90 23 90 137v432h-715v-563l195 16l-21 -131h-651l21 94l61 15q55 15 78.5 47.5t23.5 89.5v1093l-194 -16l20 131h643l-20 -94l-64 -17q-50 -13 -71 -46.5t-21 -92.5v-411h715v546l-195 -16l21 131h643l-20 -94l-66 -17q-48 -13 -69 -46.5t-21 -92.5
v-1089l194 16l-20 -131h-647z" />
    <glyph glyph-name="uni041E" unicode="&#x41e;" horiz-adv-x="1798" 
d="M899 -20q-159 0 -303 56.5t-248.5 153t-166.5 231.5t-62 286q0 159 60.5 301.5t164.5 245t248.5 162t306.5 59.5q159 0 303 -56.5t248.5 -153t166.5 -231.5t62 -286q0 -159 -60.5 -301.5t-164.5 -245t-248.5 -162t-306.5 -59.5zM442 793q0 -193 67.5 -351t186 -248
t262.5 -90q112 0 203 73t143 201t52 284q0 193 -67.5 350.5t-186 247.5t-262.5 90q-170 0 -284 -159.5t-114 -397.5z" />
    <glyph glyph-name="uni041F" unicode="&#x41f;" horiz-adv-x="1783" 
d="M90 0l21 94l61 15q55 15 78.5 47.5t23.5 89.5v1093l-194 -16l20 131h1586l-21 -94l-66 -17q-48 -13 -69 -46.5t-21 -92.5v-1089l195 16l-21 -131h-647l21 94l69 15q91 23 91 137v1093h-494q-85 0 -120.5 -31.5t-35.5 -103.5v-1089l195 16l-21 -131h-651z" />
    <glyph glyph-name="uni0420" unicode="&#x420;" horiz-adv-x="1447" 
d="M90 0l19 94l77 21q88 25 88 137v1087l-194 -16l20 131h660q295 0 463 -106t168 -297q0 -204 -160 -331.5t-418 -127.5h-246v-477l224 16l-21 -131h-680zM567 696h170q154 0 242 90t88 234q0 139 -89 229t-241 90h-170v-643z" />
    <glyph glyph-name="uni0421" unicode="&#x421;" horiz-adv-x="1583" 
d="M915 -20q-227 0 -409.5 90.5t-284.5 250t-102 357.5q0 181 64.5 332.5t174.5 252t256 156.5t310 56q249 0 497 -107l21 -410h-76q-81 202 -196.5 297t-292.5 95q-193 0 -314 -159t-121 -450q0 -290 134 -463.5t356 -173.5q166 0 265.5 89t205.5 311h76l-82 -455
q-201 -69 -482 -69z" />
    <glyph glyph-name="uni0422" unicode="&#x422;" horiz-adv-x="1435" 
d="M354 0l21 94l90 23q102 25 102 151v1071h-161q-43 0 -78.5 -15.5t-61.5 -39.5t-51 -66t-42.5 -83t-39.5 -103h-76l41 463q135 -41 283 -41h674q147 0 282 41l41 -463h-75q-20 49 -30.5 75t-28.5 64.5t-31.5 58.5t-34.5 44.5t-41.5 36t-47.5 20t-59 8.5h-170v-1224l236 16
l-21 -131h-721z" />
    <glyph glyph-name="uni0423" unicode="&#x423;" horiz-adv-x="1536" 
d="M303 -20q-47 0 -81 40t-47 90t-13 99q16 0 66.5 -0.5t66.5 0t57.5 2.5t59.5 6t51 11.5t53 19t44.5 28.5t45.5 39q94 98 29 213l-436 811l-160 -10l20 125h709l-20 -94l-101 -10q-67 -6 -86 -43.5t14 -98.5l271 -495l334 626l-201 -10l20 125h498l-20 -94l-84 -8
q-42 -5 -76 -34t-72 -101l-411 -762q-97 -179 -189 -286.5t-172 -148t-170 -40.5z" />
    <glyph glyph-name="uni0424" unicode="&#x424;" horiz-adv-x="1863" 
d="M559 0l21 94l110 15q90 14 90 145v10q-293 32 -477 170.5t-184 327.5q0 188 184 327t477 171v141l-223 -17l21 132h712l-20 -95l-105 -16q-92 -14 -92 -139v-4q297 -31 484.5 -171t187.5 -329q0 -126 -84.5 -232.5t-238 -177t-349.5 -90.5v-147l236 16l-21 -131h-729z
M430 774q0 -149 95 -262.5t255 -153.5v809q-159 -38 -254.5 -145.5t-95.5 -247.5zM1073 354q164 35 262.5 144t98.5 252q0 151 -98.5 265.5t-262.5 151.5v-813z" />
    <glyph glyph-name="uni0425" unicode="&#x425;" horiz-adv-x="1671" 
d="M829 0l21 94l113 17q62 9 81.5 36t-10.5 72l-268 363l-352 -473l245 22l-20 -131h-594l21 94l110 17q101 15 189 131l327 438l-489 659l-164 -16l20 131h775l-21 -94l-92 -17q-69 -12 -91.5 -40t7.5 -68l278 -379l379 483l-245 -16l20 131h553l-20 -94l-82 -17
q-47 -10 -86.5 -37.5t-83.5 -86.5l-361 -463l473 -641l170 16l-20 -131h-783z" />
    <glyph glyph-name="uni0426" unicode="&#x426;" horiz-adv-x="1820" 
d="M1630 -471q9 241 -27.5 356t-127.5 115h-1395l20 131l195 -16v1224l-195 -16l21 131h647l-20 -94l-70 -14q-90 -22 -90 -138v-1093h493q85 0 120.5 31.5t35.5 103.5v1089l-195 -16l21 131h651l-20 -94l-64 -14q-54 -15 -77 -48t-23 -90v-1093l262 16q18 -290 -86 -602
h-76z" />
    <glyph glyph-name="uni0427" unicode="&#x427;" horiz-adv-x="1744" 
d="M672 528q-105 0 -183.5 29t-124.5 80.5t-68 114.5t-22 137v450l-194 -16l20 131h635l-20 -94l-56 -17q-50 -15 -71 -48t-21 -91v-250q0 -123 45.5 -183t163.5 -60q100 0 209 28.5t193 73.5v526l-183 -16l21 131h631l-21 -94l-63 -17q-50 -13 -71.5 -46.5t-21.5 -92.5
v-1089l195 16l-20 -131h-648l21 94l69 15q91 22 91 137v467q-97 -78 -226.5 -131.5t-279.5 -53.5z" />
    <glyph glyph-name="uni0428" unicode="&#x428;" horiz-adv-x="2435" 
d="M80 0l20 131l195 -16v1224l-195 -16l21 131h647l-20 -94l-70 -14q-90 -22 -90 -138v-1093h338q88 0 121.5 31.5t33.5 119.5v1073l-178 -16l21 131h626l-20 -94l-53 -14q-55 -17 -79 -49.5t-24 -88.5v-1093h350q83 0 113.5 30t30.5 103v1091l-178 -16l20 131h637l-20 -94
l-62 -14q-56 -15 -80 -49t-24 -91v-1091l194 16l-20 -131h-2255z" />
    <glyph glyph-name="uni0429" unicode="&#x429;" horiz-adv-x="2435" 
d="M80 0l20 131l195 -16v1224l-195 -16l21 131h647l-20 -94l-70 -14q-90 -22 -90 -138v-1093h338q88 0 121.5 31.5t33.5 119.5v1073l-178 -16l21 131h626l-20 -94l-53 -14q-55 -17 -79 -49.5t-24 -88.5v-1093h350q83 0 113.5 30t30.5 103v1091l-178 -16l20 131h637l-20 -94
l-62 -14q-56 -15 -80 -49t-24 -91v-1085l299 22q21 -304 -86 -614h-76q9 240 -29 355.5t-129 115.5h-2060z" />
    <glyph glyph-name="uni042A" unicode="&#x42a;" horiz-adv-x="1763" 
d="M377 0l20 94l62 15q55 15 78.5 47.5t23.5 89.5v1093h-133q-59 0 -101 -15.5t-76 -61.5t-49.5 -77t-50.5 -112q-4 -9 -6 -14t-5.5 -12.5t-6.5 -14.5h-76l41 463q127 -41 289 -41h643l-20 -94l-66 -17q-48 -13 -69 -46.5t-21 -92.5v-346h186q283 0 451 -112.5t168 -299.5
q0 -205 -143 -325.5t-388 -120.5h-751zM854 115h160q148 0 234.5 83.5t86.5 227.5q0 146 -83 231.5t-224 85.5h-174v-628z" />
    <glyph glyph-name="uni042B" unicode="&#x42b;" horiz-adv-x="2123" 
d="M90 0l21 94l61 15q55 15 78.5 47.5t23.5 89.5v1093l-194 -16l20 131h643l-20 -94l-64 -17q-50 -13 -71 -46.5t-21 -92.5v-346h172q290 0 454.5 -112t164.5 -300q0 -205 -143 -325.5t-388 -120.5h-737zM567 115h146q148 0 234.5 83.5t86.5 227.5q0 146 -83 231.5
t-224 85.5h-160v-628zM1362 1323l20 131h646l-21 -94l-65 -17q-93 -25 -93 -131v-1097l195 16l-21 -131h-651l21 94l63 15q53 15 76.5 47t23.5 84v1099z" />
    <glyph glyph-name="uni042C" unicode="&#x42c;" horiz-adv-x="1497" 
d="M90 0l21 94l61 15q55 15 78.5 47.5t23.5 89.5v1093l-194 -16l20 131h643l-20 -94l-64 -17q-50 -13 -71 -46.5t-21 -92.5v-346h207q283 0 451 -112.5t168 -299.5q0 -205 -143 -325.5t-388 -120.5h-772zM567 115h181q148 0 234.5 83.5t86.5 227.5q0 146 -83 231.5
t-224 85.5h-195v-628z" />
    <glyph glyph-name="uni042D" unicode="&#x42d;" horiz-adv-x="1591" 
d="M700 -20q-96 0 -198.5 17.5t-199.5 52.5t-159.5 97.5t-62.5 141.5q0 68 51 112.5t131 49.5q82 -163 201.5 -255t265.5 -92q194 0 300.5 151.5t117.5 424.5h-283q-99 0 -145.5 -47t-69.5 -180h-76v563h76q23 -134 69.5 -181t145.5 -47h285q-11 258 -127.5 414t-302.5 156
q-177 0 -300 -102.5t-206 -297.5h-76l21 402q251 115 557 115q218 0 390.5 -93.5t270 -266t97.5 -394.5q0 -158 -61 -296.5t-165 -235.5t-246 -153t-301 -56z" />
    <glyph glyph-name="uni042E" unicode="&#x42e;" horiz-adv-x="2336" 
d="M1507 -20q-187 0 -346.5 89t-257.5 249t-106 356h-230v-559l195 16l-21 -131h-651l21 94l63 15q53 15 76.5 47t23.5 84v1099l-194 -16l20 131h645l-20 -94l-66 -17q-92 -25 -92 -131v-424h234q28 297 230.5 492t475.5 195q143 0 274 -55.5t227 -151t153 -231.5t57 -289
q0 -162 -57 -306t-153 -244.5t-227 -159t-274 -58.5zM1120 805q0 -200 57 -359.5t160.5 -250.5t235.5 -91q143 0 232 154.5t89 390.5q0 200 -56.5 359.5t-160 250.5t-235.5 91q-143 0 -232.5 -154.5t-89.5 -390.5z" />
    <glyph glyph-name="uni042F" unicode="&#x42f;" horiz-adv-x="1687" 
d="M940 0l21 94l69 15q90 22 90 137v1093h-157q-142 0 -227 -73.5t-85 -212.5q0 -291 383 -291v-21l-323 -542q-76 -127 -220.5 -173t-402.5 -46l-12 40q140 60 220.5 119t152.5 168l264 402q-73 7 -139.5 31t-122.5 65t-89.5 105t-33.5 143q0 102 46.5 180t131.5 125.5
t197.5 71.5t250.5 24h635l-20 -94l-64 -17q-92 -25 -92 -139v-1089l195 16l-21 -131h-647z" />
    <glyph glyph-name="uni0430" unicode="&#x430;" horiz-adv-x="1181" 
d="M831 -20q-71 0 -109 48t-38 113h-39q-41 -37 -58 -52t-53 -41.5t-61 -37.5t-61.5 -20.5t-75.5 -9.5q-110 0 -174 57.5t-64 150.5q0 90 75 154.5t241 128.5l256 100v95q0 122 -38.5 182.5t-105.5 60.5q-45 0 -80 -26l-2 -107q0 -61 -45 -104t-118 -43q-68 0 -109 36
t-41 83q0 31 88.5 100.5t207 128.5t189.5 59q175 0 264 -80t83 -233q-11 -232 -11 -516l172 -21v-75q-165 -131 -293 -131zM397 260q0 -39 28 -66.5t83 -27.5q60 0 111 40t51 101v172l-144 -73q-70 -39 -99.5 -73t-29.5 -73z" />
    <glyph glyph-name="uni0431" unicode="&#x431;" horiz-adv-x="1280" 
d="M659 -20q-117 0 -218.5 42t-175.5 117.5t-116.5 187.5t-42.5 246q0 110 17.5 222.5t58 225t99 201t147 149t195.5 71.5q54 6 162.5 11.5t152.5 14.5q110 19 156 109l51 -21q0 -128 -56 -226t-106 -107q-64 -11 -197.5 -18.5t-191.5 -14.5q-167 -21 -263.5 -151.5
t-105.5 -364.5h31q113 325 451 325q139 0 249 -55.5t175 -165.5t65 -260q0 -121 -42 -223t-115 -170.5t-171 -106.5t-209 -38zM410 537q0 -200 70.5 -321.5t185.5 -121.5q107 0 167 100t60 271q0 192 -66.5 304t-181.5 112q-99 0 -167 -95.5t-68 -248.5z" />
    <glyph glyph-name="uni0432" unicode="&#x432;" horiz-adv-x="1232" 
d="M78 0l20 84l41 10q92 24 92 152v661l-174 -16l21 125h594q205 0 323.5 -64.5t118.5 -181.5q0 -100 -80 -161.5t-221 -80.5q162 -15 256 -82t94 -167q0 -136 -119.5 -207.5t-332.5 -71.5h-633zM514 94h139q95 0 151 50.5t56 136.5q0 83 -58.5 131.5t-158.5 48.5h-129v-367
zM514 555h135q83 0 132.5 51t49.5 139q0 82 -51 129.5t-141 47.5h-125v-367z" />
    <glyph glyph-name="uni0433" unicode="&#x433;" horiz-adv-x="1112" 
d="M78 0l20 84l41 10q92 24 92 152v661l-174 -16l21 125h653q140 0 283 41l41 -434h-76q-35 126 -107 206t-178 80h-88q-39 0 -65.5 -38t-26.5 -101v-661l215 16l-20 -125h-631z" />
    <glyph glyph-name="uni0434" unicode="&#x434;" horiz-adv-x="1392" 
d="M115 -471q-37 116 -59 293t-17 299l119 -4q62 31 109.5 96.5t75.5 145.5t45.5 180.5t23.5 190t6 185.5l-246 -24l21 125h1054l-20 -84l-41 -10q-92 -24 -92 -152v-661l256 16q5 -131 -19 -305t-69 -291h-76q10 60 11 134t-9 153t-45.5 131.5t-93.5 52.5h-711
q-42 0 -72 -29.5t-44.5 -78t-23.5 -110.5t-8.5 -126.5t0.5 -126.5h-75zM393 106h326q44 0 68 37.5t24 102.5v669h-281q-4 -536 -137 -809z" />
    <glyph glyph-name="uni0435" unicode="&#x435;" horiz-adv-x="1079" 
d="M553 -20q-204 0 -335.5 141.5t-131.5 363.5q0 239 145.5 395t368.5 156q179 0 286 -97t107 -247q0 -70 -30 -117h-574v-8q0 -172 78 -277.5t221 -105.5q72 0 134 21.5t136 70.5l50 -47q-73 -114 -191.5 -181.5t-263.5 -67.5zM395 676l221 12q51 3 71 21t20 53
q0 76 -38 126t-94 50q-73 0 -119.5 -70.5t-60.5 -191.5z" />
    <glyph glyph-name="uni0436" unicode="&#x436;" horiz-adv-x="1902" 
d="M1630 -20q-87 0 -146.5 36t-123.5 136l-207 327v19l408 409l-209 -16l20 125h500l-21 -84q-66 -13 -118.5 -37t-78.5 -44t-61 -54l-235 -238q130 -189 252 -311q72 -70 115 -98t94 -27h36l17 -66q-56 -38 -110.5 -57.5t-131.5 -19.5zM31 57l16 66h37q51 -1 94 27t115 98
q145 145 254 311l-236 238q-105 102 -280 135l20 84h500l-21 -125l-188 16l406 -409v-19l-205 -327q-63 -100 -123.5 -136t-147.5 -36q-77 0 -130.5 19t-110.5 58zM651 0l21 84l53 10q84 17 84 152v661l-145 -16l20 125h565l-20 -84l-53 -10q-41 -7 -62.5 -47t-21.5 -105
v-661l137 16l-21 -125h-557z" />
    <glyph glyph-name="uni0437" unicode="&#x437;" horiz-adv-x="1073" 
d="M494 -20q-181 0 -302.5 40t-121.5 97q0 84 50 138t126 54q52 -114 113.5 -172.5t156.5 -58.5q90 0 139.5 53.5t49.5 138.5q0 88 -53.5 138.5t-145.5 50.5q-19 0 -55 -4l-31 96q53 13 95 29.5t80.5 42t59.5 63.5t21 86q0 74 -48.5 120t-123.5 46q-190 0 -271 -301h-75
l2 350q162 49 342 49q215 0 333.5 -68.5t118.5 -187.5q0 -88 -75.5 -157.5t-196.5 -96.5q158 -17 233.5 -75t75.5 -164q0 -140 -132 -223.5t-365 -83.5z" />
    <glyph glyph-name="uni0438" unicode="&#x438;" horiz-adv-x="1544" 
d="M541 0h-437l21 84l41 10q92 24 92 152v661l-174 -16l20 125h590l-20 -84l-41 -10q-92 -24 -92 -152v-459l403 484q60 72 60 209v12h436l-21 -84l-41 -10q-92 -24 -92 -152v-661l174 16l-20 -125h-590l20 84l41 10q93 24 93 152v446l-416 -499q-47 -57 -47 -193z" />
    <glyph glyph-name="uni0439" unicode="&#x439;" horiz-adv-x="1544" 
d="M541 0h-437l21 84l41 10q92 24 92 152v661l-174 -16l20 125h590l-20 -84l-41 -10q-92 -24 -92 -152v-459l403 484q60 72 60 209v12h436l-21 -84l-41 -10q-92 -24 -92 -152v-661l174 16l-20 -125h-590l20 84l41 10q93 24 93 152v446l-416 -499q-47 -57 -47 -193zM483 1389
q0 71 56 109t157 38q-21 -143 11 -221t116 -78t116.5 78t12.5 221q101 0 157 -38t56 -109q0 -89 -100 -159.5t-242 -70.5t-241 70.5t-99 159.5z" />
    <glyph glyph-name="uni043A" unicode="&#x43a;" horiz-adv-x="1368" 
d="M70 0l20 84l41 10q84 23 84 152v661l-158 -16l21 125h565l-20 -84l-41 -10q-84 -21 -84 -152v-661l137 16l-21 -125h-544zM559 479v21l424 407l-217 -16l20 125h543l-20 -92q-205 -39 -324 -150l-201 -192q124 -173 285 -334q132 -127 195 -125h36l17 -66
q-108 -77 -242 -77q-86 0 -150 31.5t-116 105.5z" />
    <glyph glyph-name="uni043B" unicode="&#x43b;" horiz-adv-x="1294" 
d="M600 0l21 84l41 10q92 24 92 152v669h-273q0 -393 -68 -647t-194 -288q-95 0 -141 55t-37 149q110 25 184.5 124t109 252t34.5 355l-236 -24l21 125h1036l-21 -84l-41 -10q-92 -24 -92 -152v-661l174 16l-20 -125h-590z" />
    <glyph glyph-name="uni043C" unicode="&#x43c;" horiz-adv-x="1708" 
d="M106 0l21 84l80 10q46 6 68 27.5t22 62.5v674q-46 34 -114 53t-140 21l20 84h498l332 -617l324 617h448l-20 -84l-64 -10q-123 -18 -123 -150v-663l205 16l-21 -125h-618l20 84l39 10q52 14 72.5 45.5t20.5 106.5v450l-367 -716h-21l-378 710v-581l174 16l-21 -125h-457z
" />
    <glyph glyph-name="uni043D" unicode="&#x43d;" horiz-adv-x="1515" 
d="M821 0l21 84l41 10q92 24 92 152v209h-434v-346l174 16l-21 -125h-590l21 84l41 10q92 24 92 152v661l-174 -16l20 125h590l-20 -84l-41 -10q-92 -24 -92 -152v-209h434v346l-174 -16l20 125h590l-20 -84l-41 -10q-93 -24 -93 -152v-661l175 16l-21 -125h-590z" />
    <glyph glyph-name="uni043E" unicode="&#x43e;" horiz-adv-x="1290" 
d="M623 -20q-141 0 -259 64.5t-188 181t-70 259.5q0 250 159 400.5t403 150.5q216 0 366 -144.5t150 -361.5q0 -250 -158.5 -400t-402.5 -150zM410 600q0 -144 38 -263t104 -187t146 -68q81 0 132 87t51 249q0 219 -83.5 367.5t-205.5 148.5q-80 0 -131 -89.5t-51 -244.5z
" />
    <glyph glyph-name="uni043F" unicode="&#x43f;" horiz-adv-x="1495" 
d="M104 0l21 84l41 10q92 24 92 152v661l-174 -16l20 125h1287l-21 -84l-41 -10q-92 -24 -92 -152v-661l174 16l-20 -125h-590l20 84l41 10q92 24 92 152v663h-321q-40 0 -66 -34.5t-26 -96.5v-669l174 16l-21 -125h-590z" />
    <glyph glyph-name="uni0440" unicode="&#x440;" horiz-adv-x="1355" 
d="M84 -471l20 84l41 14q47 18 70 52t23 96v1026l-144 80v75q10 3 51 17t58.5 19t57.5 15.5t69.5 15.5t72.5 9t86 4h21v-143h39q82 69 124 93q86 50 181 50q113 0 204 -66t141 -179.5t50 -251.5q0 -133 -42 -240.5t-114.5 -176.5t-167 -105.5t-202.5 -36.5q-107 0 -203 26
v-368l236 16l-21 -125h-651zM520 223q0 -60 53.5 -102.5t128.5 -42.5t131 56.5t84.5 149t28.5 205.5q0 174 -70 264.5t-167 90.5q-99 0 -189 -72v-549z" />
    <glyph glyph-name="uni0441" unicode="&#x441;" horiz-adv-x="1124" 
d="M610 -20q-138 0 -254 64.5t-183 176t-67 244.5q0 159 75.5 291t199.5 206t268 74q104 0 195 -19.5t137.5 -44.5t46.5 -46q0 -84 -45 -141.5t-94 -57.5q-29 0 -63 19t-52.5 35.5t-48.5 46.5l-8 8l-96 102h-23q-70 0 -129 -109t-59 -247q0 -172 79.5 -285t219.5 -113
q70 0 140.5 30t156.5 85l49 -47q-41 -60 -81 -104.5t-93.5 -85t-122 -61.5t-148.5 -21z" />
    <glyph glyph-name="uni0442" unicode="&#x442;" horiz-adv-x="1255" 
d="M319 0l21 84l55 10q92 18 92 152v669h-86q-53 0 -95.5 -23t-75 -68.5t-55 -94.5t-46.5 -119h-76l41 447q135 -41 283 -41h500q147 0 282 41l41 -447h-76q-23 62 -38 97t-40.5 80.5t-50.5 69.5t-62 41t-81 17h-82v-806l174 16l-20 -125h-605z" />
    <glyph glyph-name="uni0443" unicode="&#x443;" horiz-adv-x="1275" 
d="M299 -492q-69 0 -140 101q-56 79 -65 143q-5 39 17 39h249q139 0 205 154l21 49l-430 907l-142 -10l21 125h647l-20 -84l-58 -12q-136 -27 -72 -170l197 -428l250 579l-188 -10l20 125h438l-20 -84l-55 -17q-41 -13 -78.5 -54t-63.5 -101l-389 -889q-73 -170 -160 -266.5
t-184 -96.5z" />
    <glyph glyph-name="uni0444" unicode="&#x444;" horiz-adv-x="1843" 
d="M616 -471l21 84l41 14q110 44 110 172v207q-87 -26 -161 -26q-231 0 -376 133t-145 364q0 254 144 406.5t385 152.5q84 0 153 -32v321l-147 76v76q245 79 385 79h51q-20 -277 -20 -481v-63q67 24 147 24q157 0 276 -57t189 -174t70 -281q0 -240 -142.5 -392t-375.5 -152
q-87 0 -164 34v-376l186 16l-20 -125h-607zM410 530q0 -196 75 -316t199 -120q43 0 104 21v782q-52 25 -124 25q-106 0 -180 -106t-74 -286zM1057 121q62 -27 123 -27q116 0 186 116.5t70 303.5q0 189 -80.5 298.5t-196.5 109.5q-49 0 -102 -17v-784z" />
    <glyph glyph-name="uni0445" unicode="&#x445;" horiz-adv-x="1366" 
d="M643 84q57 -1 91.5 19.5t35.5 50.5t-22 63l-140 174l-248 -276l177 10l-21 -125h-477l20 84l66 10q55 9 94 36.5t80 72.5l244 268l-346 430l-154 -10l23 125h700l-21 -84q-98 0 -134.5 -38t7.5 -95l144 -178l239 280l-174 -10l23 125h477l-20 -84l-54 -8
q-66 -10 -106 -34t-86 -77l-236 -272l342 -426l152 10l-21 -125h-675z" />
    <glyph glyph-name="uni0446" unicode="&#x446;" horiz-adv-x="1556" 
d="M1348 -471q16 82 13.5 166t-17 151.5t-50 110.5t-84.5 43h-1126l20 125l175 -16v798l-175 -16l21 125h582l-21 -84l-41 -10q-84 -22 -84 -152v-664h324q41 0 66.5 31t25.5 92v678l-166 -16l20 125h582l-20 -84l-41 -10q-92 -24 -92 -152v-661l253 16q5 -130 -20 -304
t-70 -292h-75z" />
    <glyph glyph-name="uni0447" unicode="&#x447;" horiz-adv-x="1476" 
d="M553 295q-155 0 -240.5 84.5t-85.5 230.5v297l-174 -16l21 125h590l-21 -84l-41 -10q-92 -24 -92 -152v-100q0 -108 45.5 -152.5t126.5 -44.5q143 0 254 111v323l-174 -16l20 125h590l-20 -84l-41 -10q-92 -24 -92 -152v-661l174 16l-21 -125h-590l21 84l41 10
q92 24 92 152v223h-25q-147 -174 -358 -174z" />
    <glyph glyph-name="uni0448" unicode="&#x448;" horiz-adv-x="1992" 
d="M84 0l20 125l175 -16v798l-175 -16l21 125h563l-20 -84l-35 -8q-37 -11 -57.5 -50.5t-20.5 -103.5v-664h233q41 0 67 29t26 90v682l-142 -16l21 125h530l-20 -84l-41 -10q-72 -17 -72 -152v-664h234q41 0 66.5 29t25.5 90v682l-142 -16l21 125h551l-21 -84l-41 -10
q-92 -24 -92 -152v-661l174 16l-20 -125h-1829z" />
    <glyph glyph-name="uni0449" unicode="&#x449;" horiz-adv-x="1992" 
d="M84 0l20 125l175 -16v798l-175 -16l21 125h563l-20 -84l-35 -8q-37 -11 -57.5 -50.5t-20.5 -103.5v-664h233q41 0 67 29t26 90v682l-142 -16l21 125h530l-20 -84l-41 -10q-72 -17 -72 -152v-664h234q41 0 66.5 29t25.5 90v682l-142 -16l21 125h551l-21 -84l-41 -10
q-92 -24 -92 -152v-647l281 16q5 -133 -24 -313.5t-83 -296.5h-75q14 95 16 177t-10 149.5t-43.5 106t-81.5 38.5h-1655z" />
    <glyph glyph-name="uni044A" unicode="&#x44a;" horiz-adv-x="1443" 
d="M334 0l20 84l41 10q92 24 92 152v655h-69q-104 0 -176.5 -76.5t-108.5 -201.5h-76l41 434q143 -41 283 -41h555l-21 -84l-34 -8q-59 -17 -85 -53.5t-26 -100.5v-209h115q236 0 362.5 -75.5t126.5 -204.5q0 -134 -115.5 -207.5t-324.5 -73.5h-600zM770 106h107
q92 0 143 47t51 130q0 82 -50.5 127t-146.5 45h-104v-349z" />
    <glyph glyph-name="uni044B" unicode="&#x44b;" horiz-adv-x="1851" 
d="M1182 0l20 84l41 10q84 23 84 152v661l-158 -16l21 125h565l-20 -84l-41 -10q-84 -21 -84 -152v-661l157 16l-20 -125h-565zM84 891l20 125h603l-21 -84l-35 -8q-58 -17 -84 -53t-26 -101v-209h137q238 0 364.5 -75.5t126.5 -204.5q0 -134 -115.5 -207.5t-324.5 -73.5
h-625l21 84l41 10q92 24 92 152v661zM541 106h129q92 0 144 47t52 130t-50 127.5t-146 44.5h-129v-349z" />
    <glyph glyph-name="uni044C" unicode="&#x44c;" horiz-adv-x="1212" 
d="M78 0l20 84l41 10q92 24 92 152v661l-174 -16l21 125h602l-21 -84l-34 -8q-59 -17 -85 -53.5t-26 -100.5v-209h139q237 0 363.5 -75.5t126.5 -204.5q0 -133 -116 -207t-325 -74h-624zM514 106h131q92 0 143.5 47t51.5 130q0 82 -50.5 127t-146.5 45h-129v-349z" />
    <glyph glyph-name="uni044D" unicode="&#x44d;" horiz-adv-x="1175" 
d="M485 -20q-104 0 -205.5 23.5t-162 58t-60.5 67.5q0 64 49 122t103 58q58 -106 127 -160.5t158 -54.5q117 0 187.5 97t82.5 262l-301 -27q-58 -5 -87 63q-21 51 -9 86q5 16 16 15q47 -3 178.5 -14.5t202.5 -14.5q-9 165 -82 263t-188 98q-213 0 -304 -275h-75l32 340
q160 49 359 49q130 0 237.5 -41t178 -111.5t109 -165t38.5 -202.5q0 -244 -162.5 -390t-421.5 -146z" />
    <glyph glyph-name="uni044E" unicode="&#x44e;" horiz-adv-x="1904" 
d="M70 0l20 84l41 10q84 23 84 152v661l-158 -16l21 125h565l-20 -84l-41 -10q-84 -21 -84 -152v-205h227q26 217 180 344t377 127q216 0 366 -144.5t150 -361.5q0 -250 -158.5 -400t-402.5 -150q-136 0 -251.5 61t-186.5 171t-78 247h-223v-350l157 16l-20 -125h-565z
M1024 600q0 -144 38 -263t104.5 -187t146.5 -68q81 0 131.5 87t50.5 249q0 219 -83.5 367.5t-205.5 148.5q-80 0 -131 -89.5t-51 -244.5z" />
    <glyph glyph-name="uni044F" unicode="&#x44f;" horiz-adv-x="1337" 
d="M281 -20q-136 0 -234 77l16 66h50q54 -1 106 39.5t94 109.5q79 135 179 191q-162 18 -250 83t-88 175q0 142 123.5 218.5t324.5 76.5h631l-21 -84l-41 -10q-92 -24 -92 -152v-661l174 16l-20 -125h-582l21 84l41 10q84 23 84 152v676h-133q-103 0 -155 -58.5t-52 -144.5
q0 -89 58 -145t149 -56h69v-20l-207 -363q-54 -91 -106.5 -123t-138.5 -32z" />
    <glyph glyph-name="uni0450" unicode="&#x450;" horiz-adv-x="1079" 
d="M553 -20q-204 0 -335.5 141.5t-131.5 363.5q0 239 145.5 395t368.5 156q179 0 286 -97t107 -247q0 -70 -30 -117h-574v-8q0 -172 78 -277.5t221 -105.5q72 0 134 21.5t136 70.5l50 -47q-73 -114 -191.5 -181.5t-263.5 -67.5zM348 1491q0 44 27 88.5t67 44.5
q19 0 81.5 -78t153.5 -203.5t120 -162.5l-21 -21l-256 148q-27 15 -40 23t-37.5 24t-37.5 28.5t-28.5 30.5t-22 37.5t-6.5 40.5zM395 676l221 12q51 3 71 21t20 53q0 76 -38 126t-94 50q-73 0 -119.5 -70.5t-60.5 -191.5z" />
    <glyph glyph-name="uni0451" unicode="&#x451;" horiz-adv-x="1079" 
d="M553 -20q-204 0 -335.5 141.5t-131.5 363.5q0 239 145.5 395t368.5 156q179 0 286 -97t107 -247q0 -70 -30 -117h-574v-8q0 -172 78 -277.5t221 -105.5q72 0 134 21.5t136 70.5l50 -47q-73 -114 -191.5 -181.5t-263.5 -67.5zM246 1366q0 59 42 100t103 41q57 0 97 -41
t40 -100t-40 -100t-97 -41q-61 0 -103 41t-42 100zM395 676l221 12q51 3 71 21t20 53q0 76 -38 126t-94 50q-73 0 -119.5 -70.5t-60.5 -191.5zM614 1366q0 59 42.5 100t103.5 41q57 0 97 -41t40 -100t-40 -100t-97 -41q-61 0 -103.5 41t-42.5 100z" />
    <glyph glyph-name="uni0452" unicode="&#x452;" horiz-adv-x="1337" 
d="M721 -446q175 175 184 421v687q0 94 -50 136t-132 42q-81 0 -225 -68v-663l161 16l-20 -125h-571l20 84l41 14q45 19 65.5 54t20.5 94v913h-147v94h147v72l-147 76v76q250 79 393 79h57q-13 -165 -16 -303h338v-94h-342v-84v-205h39q8 6 49 37.5t54.5 40.5t51.5 32t63 31
t63.5 16.5t78.5 8.5q142 0 216.5 -78.5t74.5 -230.5v-635q0 -218 -123 -377t-299 -207z" />
    <glyph glyph-name="uni0453" unicode="&#x453;" horiz-adv-x="1112" 
d="M78 0l20 84l41 10q92 24 92 152v661l-174 -16l21 125h653q140 0 283 41l41 -434h-76q-35 126 -107 206t-178 80h-88q-39 0 -65.5 -38t-26.5 -101v-661l215 16l-20 -125h-631zM469 1180q29 37 119.5 162.5t153 203.5t81.5 78q40 0 67.5 -45t27.5 -88q0 -25 -12 -49.5
t-26 -40.5t-42.5 -36.5t-44 -29.5t-48.5 -28l-256 -148z" />
    <glyph glyph-name="uni0454" unicode="&#x454;" horiz-adv-x="1175" 
d="M690 -20q-259 0 -421.5 146t-162.5 390q0 108 38.5 202.5t109.5 165t178.5 111.5t237.5 41q198 0 358 -49l33 -340h-76q-91 275 -303 275q-115 0 -188 -98t-82 -263q71 3 202.5 14.5t178.5 14.5q20 1 20 -41q-1 -57 -35 -96q-28 -29 -65 -27l-301 27q12 -165 82.5 -262
t187.5 -97q89 0 158 54.5t127 160.5q54 0 102.5 -58t48.5 -122q0 -33 -60.5 -67.5t-162 -58t-205.5 -23.5z" />
    <glyph glyph-name="uni0455" unicode="&#x455;" horiz-adv-x="1050" 
d="M512 -20q-194 0 -375 57l-18 309h69q48 -55 85 -91t88.5 -78t105.5 -63.5t108 -21.5q57 0 93.5 27.5t36.5 85.5q0 64 -60.5 103t-220.5 89q-158 51 -233.5 123t-75.5 187q0 64 26.5 122t78 104.5t137 74.5t192.5 28q144 0 309 -43l21 -311h-70q-159 240 -328 240
q-63 0 -101 -28t-38 -79q0 -52 60 -89t208 -87q173 -58 247.5 -129.5t74.5 -196.5q0 -148 -112 -240.5t-308 -92.5z" />
    <glyph glyph-name="uni0456" unicode="&#x456;" horiz-adv-x="763" 
d="M84 0l20 84l41 14q93 38 93 148v555l-146 80v75q83 29 207 54.5t209 25.5h33q-21 -170 -21 -368v-559l195 16l-21 -125h-610zM217 1391q0 66 47.5 112.5t116.5 46.5q65 0 110.5 -46.5t45.5 -112.5t-46 -113t-110 -47q-69 0 -116.5 47t-47.5 113z" />
    <glyph glyph-name="uni0457" unicode="&#x457;" horiz-adv-x="763" 
d="M84 0l20 84l41 14q93 38 93 148v555l-146 80v75q83 29 207 54.5t209 25.5h33q-21 -170 -21 -368v-559l195 16l-21 -125h-610zM49 1366q0 59 42.5 100t103.5 41q57 0 97 -41t40 -100t-40 -100t-97 -41q-61 0 -103.5 41t-42.5 100zM418 1366q0 59 42 100t103 41
q57 0 97 -41t40 -100t-40 -100t-97 -41q-61 0 -103 41t-42 100z" />
    <glyph glyph-name="uni0458" unicode="&#x458;" horiz-adv-x="663" 
d="M23 -446q186 186 186 448v799l-146 80v75q96 33 217.5 56.5t208.5 23.5h21q-16 -187 -16 -391v-557q-1 -110 -35.5 -209t-94 -172t-135.5 -124.5t-161 -74.5zM188 1391q0 66 47.5 112.5t116.5 46.5q65 0 110.5 -46.5t45.5 -112.5t-46 -113t-110 -47q-69 0 -116.5 47
t-47.5 113z" />
    <glyph glyph-name="uni0459" unicode="&#x459;" horiz-adv-x="1722" 
d="M219 -20q-95 0 -141 55t-37 149q110 25 184.5 124t109 252t34.5 355l-236 -24l21 125h1024l-21 -84l-41 -10q-92 -24 -92 -152v-209h137q238 0 365 -75.5t127 -204.5q0 -133 -116 -207t-325 -74h-624l20 84l41 10q92 24 92 152v669h-260q0 -393 -68 -647t-194 -288z
M1024 106h129q92 0 144.5 47t52.5 130q0 82 -50.5 127t-146.5 45h-129v-349z" />
    <glyph glyph-name="uni045A" unicode="&#x45a;" horiz-adv-x="1955" 
d="M104 0l21 84l41 10q92 24 92 152v661l-174 -16l20 125h590l-20 -84l-41 -10q-92 -24 -92 -152v-209h434v346l-174 -16l20 125h590l-20 -84l-41 -10q-93 -24 -93 -152v-209h138q238 0 364.5 -75.5t126.5 -204.5q0 -134 -115.5 -207.5t-324.5 -73.5h-625l21 84l41 10
q92 24 92 152v209h-434v-346l174 16l-21 -125h-590zM1257 106h129q92 0 144.5 47t52.5 130q0 82 -50.5 127t-146.5 45h-129v-349z" />
    <glyph glyph-name="uni045B" unicode="&#x45b;" horiz-adv-x="1415" 
d="M68 1159v94h151v72l-147 76v76q250 79 393 79h57q-13 -165 -16 -303h334v-94h-338v-84v-205h43q8 6 42.5 32.5t47 34.5t44 29t52 29.5t51.5 20t62 16t65 4.5q136 0 209.5 -77.5t73.5 -223.5v-626l182 16l-20 -125h-598l20 84l53 16q37 9 58.5 43.5t21.5 89.5v443
q0 82 -48 122t-126 40q-85 0 -233 -66v-663l162 16l-21 -125h-571l20 84l41 14q45 19 65.5 54t20.5 94v913h-151z" />
    <glyph glyph-name="uni045C" unicode="&#x45c;" horiz-adv-x="1368" 
d="M70 0l20 84l41 10q84 23 84 152v661l-158 -16l21 125h565l-20 -84l-41 -10q-84 -21 -84 -152v-661l137 16l-21 -125h-544zM553 1180q29 37 119.5 162.5t153 203.5t81.5 78q40 0 67 -44.5t27 -88.5q0 -21 -6.5 -40.5t-22 -37.5t-28.5 -30.5t-37.5 -28.5t-37.5 -24t-40 -23
l-256 -148zM559 479v21l424 407l-217 -16l20 125h543l-20 -92q-205 -39 -324 -150l-201 -192q124 -173 285 -334q132 -127 195 -125h36l17 -66q-108 -77 -242 -77q-86 0 -150 31.5t-116 105.5z" />
    <glyph glyph-name="uni045D" unicode="&#x45d;" horiz-adv-x="1544" 
d="M541 0h-437l21 84l41 10q92 24 92 152v661l-174 -16l20 125h590l-20 -84l-41 -10q-92 -24 -92 -152v-459l403 484q60 72 60 209v12h436l-21 -84l-41 -10q-92 -24 -92 -152v-661l174 16l-20 -125h-590l20 84l41 10q93 24 93 152v446l-416 -499q-47 -57 -47 -193zM598 1491
q0 44 27 88.5t67 44.5q19 0 81.5 -78t153.5 -203.5t120 -162.5l-21 -21l-256 148q-27 15 -40 23t-37.5 24t-37.5 28.5t-28.5 30.5t-22 37.5t-6.5 40.5z" />
    <glyph glyph-name="uni045E" unicode="&#x45e;" horiz-adv-x="1275" 
d="M299 -492q-69 0 -140 101q-56 79 -65 143q-5 39 17 39h249q139 0 205 154l21 49l-430 907l-142 -10l21 125h647l-20 -84l-58 -12q-136 -27 -72 -170l197 -428l250 579l-188 -10l20 125h438l-20 -84l-55 -17q-41 -13 -78.5 -54t-63.5 -101l-389 -889q-73 -170 -160 -266.5
t-184 -96.5zM379 1389q0 71 56 109t157 38q-21 -143 11 -221t116 -78t116.5 78t12.5 221q101 0 157 -38t56 -109q0 -89 -100 -159.5t-242 -70.5t-241 70.5t-99 159.5z" />
    <glyph glyph-name="uni045F" unicode="&#x45f;" horiz-adv-x="1492" 
d="M84 0l20 125l175 -16v798l-175 -16l21 125h582l-21 -84l-41 -10q-84 -22 -84 -152v-664h324q41 0 66.5 31t25.5 92v678l-166 -16l20 125h582l-20 -84l-41 -10q-92 -24 -92 -152v-661l174 16l-21 -125h-622q54 -170 88 -471h-230q34 298 88 471h-653z" />
    <glyph glyph-name="uni0490" unicode="&#x490;" horiz-adv-x="1265" 
d="M90 0l21 94l61 15q55 15 78.5 47.5t23.5 89.5v1093l-194 -16l20 131h770q44 0 80 16.5t58 33.5t51 67t40.5 75t43.5 99q5 12 8 18h76l-41 -463q-125 39 -244 39h-219q-85 0 -120.5 -31.5t-35.5 -103.5v-1089l195 16l-21 -131h-651z" />
    <glyph glyph-name="uni0491" unicode="&#x491;" horiz-adv-x="1124" 
d="M78 0l20 84l41 10q92 24 92 152v661l-174 -16l21 125h641q107 1 178.5 77.5t106.5 200.5h75l-41 -434q-137 49 -282 49h-150q-39 0 -65.5 -38t-26.5 -101v-661l174 16l-20 -125h-590z" />
    <glyph glyph-name="uni0492" unicode="&#x492;" horiz-adv-x="1312" 
d="M68 674v94h206v571l-194 -16l20 131h799q160 0 287 41l41 -463h-76q-65 151 -97 199q-62 95 -157 106q-13 2 -27 2h-147q-85 0 -120.5 -31.5t-35.5 -103.5v-436h351v-94h-351v-559l195 16l-21 -131h-651l21 94l61 15q55 15 78.5 47.5t23.5 89.5v428h-206z" />
    <glyph glyph-name="uni0493" unicode="&#x493;" horiz-adv-x="1112" 
d="M98 463v94h133v350l-174 -16l21 125h653q140 0 283 41l41 -434h-76q-35 126 -107 206t-178 80h-88q-39 0 -65.5 -38t-26.5 -101v-213h266v-94h-266v-354l215 16l-20 -125h-631l20 84l41 10q92 24 92 152v217h-133z" />
    <glyph glyph-name="uni0496" unicode="&#x496;" horiz-adv-x="2471" 
d="M901 0l21 94l63 15q46 12 73 46.5t27 84.5v1099l-196 -16l20 131h643l-20 -94l-64 -17q-90 -25 -90 -131v-1097l183 16l-21 -131h-639zM47 20q135 57 214.5 117.5t156.5 169.5l348 490l-412 422q-39 41 -67 63.5t-84 46t-129 31.5l20 94h578l-21 -131l-245 12l591 -618
v-21l-321 -501q-75 -122 -219 -168.5t-400 -46.5zM1464 696v21l596 618l-245 -12l20 131h580l-21 -94q-74 -8 -130.5 -31.5t-83.5 -45.5t-69 -64l-409 -422l348 -490q87 -121 178 -186l236 18q21 -304 -86 -614h-76q8 215 -20.5 328.5t-98.5 136.5q-147 18 -241.5 66
t-151.5 139z" />
    <glyph glyph-name="uni0497" unicode="&#x497;" horiz-adv-x="1902" 
d="M1630 -20q-87 0 -146.5 36t-123.5 136l-207 327v19l408 409l-209 -16l20 125h500l-21 -84q-66 -13 -118.5 -37t-78.5 -44t-61 -54l-235 -238q130 -189 252 -311q57 -57 94.5 -85t75.5 -36l182 10q5 -133 -24 -313.5t-83 -296.5h-75q28 156 11.5 290t-81.5 169
q-38 -6 -80 -6zM31 57l16 66h37q51 -1 94 27t115 98q145 145 254 311l-236 238q-105 102 -280 135l20 84h500l-21 -125l-188 16l406 -409v-19l-205 -327q-63 -100 -123.5 -136t-147.5 -36q-77 0 -130.5 19t-110.5 58zM651 0l21 84l53 10q84 17 84 152v661l-145 -16l20 125
h565l-20 -84l-53 -10q-41 -7 -62.5 -47t-21.5 -105v-661l137 16l-21 -125h-557z" />
    <glyph glyph-name="uni049A" unicode="&#x49a;" horiz-adv-x="1701" 
d="M92 0l21 94l63 15q48 12 74 47.5t26 89.5v1093l-196 -16l20 131h643l-20 -94l-64 -17q-90 -25 -90 -131v-1097l174 16l-20 -131h-631zM651 662v30l641 643l-241 -12l20 131h580l-21 -94q-107 -12 -167.5 -46t-121.5 -95l-446 -451l391 -461q108 -127 184 -184l211 16
q21 -304 -86 -614h-75q9 240 -29 355.5t-129 115.5v6q-113 22 -193.5 68.5t-142.5 124.5z" />
    <glyph glyph-name="uni049B" unicode="&#x49b;" horiz-adv-x="1368" 
d="M70 0l20 84l41 10q84 23 84 152v661l-158 -16l21 125h565l-20 -84l-41 -10q-84 -21 -84 -152v-661l137 16l-21 -125h-544zM559 479v21l424 407l-217 -16l20 125h543l-20 -92q-205 -39 -324 -150l-201 -192q124 -173 285 -334q106 -102 168 -121l176 10
q5 -133 -23.5 -313.5t-82.5 -296.5h-76q15 110 16.5 203.5t-21 163.5t-67.5 94q-33 -8 -84 -8q-86 0 -150 31.5t-116 105.5z" />
    <glyph glyph-name="uni04A2" unicode="&#x4a2;" horiz-adv-x="1849" 
d="M1102 0l20 94l70 15q90 23 90 137v432h-715v-563l195 16l-21 -131h-651l21 94l61 15q55 15 78.5 47.5t23.5 89.5v1093l-194 -16l20 131h643l-20 -94l-64 -17q-50 -13 -71 -46.5t-21 -92.5v-411h715v546l-195 -16l21 131h643l-20 -94l-66 -17q-48 -13 -69 -46.5t-21 -92.5
v-1075l256 18q21 -304 -86 -614h-76q8 218 -22 332.5t-103 134.5h-442z" />
    <glyph glyph-name="uni04A3" unicode="&#x4a3;" horiz-adv-x="1515" 
d="M821 0l21 84l41 10q92 24 92 152v209h-434v-346l174 16l-21 -125h-590l21 84l41 10q92 24 92 152v661l-174 -16l20 125h590l-20 -84l-41 -10q-92 -24 -92 -152v-209h434v346l-174 -16l20 125h590l-20 -84l-41 -10q-93 -24 -93 -152v-643l281 16q5 -133 -23.5 -313.5
t-82.5 -296.5h-76q16 116 17 214t-26 168t-79 85h-447z" />
    <glyph glyph-name="uni04AE" unicode="&#x4ae;" horiz-adv-x="1611" 
d="M457 0l20 94l51 17q67 25 98 66t31 104v327l-448 731l-170 -16l20 131h709l-20 -94l-101 -17q-67 -10 -78.5 -42t25.5 -93l295 -475l371 606l-220 -16l21 131h512l-21 -94l-84 -14q-42 -8 -74.5 -35.5t-72.5 -93.5l-371 -609v-493l228 16l-21 -131h-700z" />
    <glyph glyph-name="uni04AF" unicode="&#x4af;" horiz-adv-x="1296" 
d="M287 -467l20 84l82 16q92 17 92 146v299l-331 823l-136 -10l21 125h641l-21 -84l-67 -12q-60 -12 -78 -51.5t8 -102.5l205 -510l266 645l-198 -10l20 125h459l-21 -84l-65 -21q-51 -13 -80 -44.5t-55 -94.5l-285 -692v-438l194 16l-20 -125h-651z" />
    <glyph glyph-name="uni04B0" unicode="&#x4b0;" horiz-adv-x="1611" 
d="M305 504v94h352v10l-448 731l-170 -16l20 131h709l-20 -94l-101 -17q-67 -10 -78.5 -42t25.5 -93l295 -475l371 606l-220 -16l21 131h512l-21 -94l-84 -14q-42 -8 -74.5 -35.5t-72.5 -93.5l-371 -609v-10h353v-94h-353v-389l228 16l-21 -131h-700l20 94l51 17
q67 25 98 66t31 104v223h-352z" />
    <glyph glyph-name="uni04B1" unicode="&#x4b1;" horiz-adv-x="1296" 
d="M180 0v94h295l-325 807l-136 -10l21 125h641l-21 -84l-67 -12q-60 -12 -78 -51.5t8 -102.5l205 -510l266 645l-198 -10l20 125h459l-21 -84l-65 -21q-51 -13 -80 -44.5t-55 -94.5l-279 -678h344v-94h-350v-358l194 16l-20 -125h-651l20 84l82 16q92 17 92 146v221h-301z
" />
    <glyph glyph-name="uni04B2" unicode="&#x4b2;" horiz-adv-x="1695" 
d="M829 0l21 94l113 17q62 9 81.5 36t-10.5 72l-268 363l-352 -473l245 22l-20 -131h-594l21 94l110 17q101 15 189 131l327 438l-489 659l-164 -16l20 131h775l-21 -94l-92 -17q-69 -12 -91.5 -40t7.5 -68l278 -379l379 483l-245 -16l20 131h553l-20 -94l-82 -17
q-47 -10 -86.5 -37.5t-83.5 -86.5l-361 -463l465 -629l283 20q21 -304 -86 -614h-76q8 218 -22 332.5t-103 134.5h-621z" />
    <glyph glyph-name="uni04B3" unicode="&#x4b3;" horiz-adv-x="1366" 
d="M643 84q57 -1 91.5 19.5t35.5 50.5t-22 63l-140 174l-248 -276l177 10l-21 -125h-477l20 84l66 10q55 9 94 36.5t80 72.5l244 268l-346 430l-154 -10l23 125h700l-21 -84q-98 0 -134.5 -38t7.5 -95l144 -178l239 280l-174 -10l23 125h477l-20 -84l-54 -8
q-66 -10 -106 -34t-86 -77l-236 -272l332 -414l252 14q5 -133 -23.5 -313.5t-82.5 -296.5h-76q16 118 16.5 218t-28.5 170t-85 81h-507z" />
    <glyph glyph-name="uni04B6" unicode="&#x4b6;" horiz-adv-x="1744" 
d="M672 528q-105 0 -183.5 29t-124.5 80.5t-68 114.5t-22 137v450l-194 -16l20 131h635l-20 -94l-56 -17q-50 -15 -71 -48t-21 -91v-250q0 -123 45.5 -183t163.5 -60q100 0 209 28.5t193 73.5v526l-183 -16l21 131h631l-21 -94l-63 -17q-50 -13 -71.5 -46.5t-21.5 -92.5
v-1079l299 22q21 -304 -86 -614h-75q8 218 -22 332.5t-103 134.5h-486l21 94l69 15q91 22 91 137v467q-97 -78 -226.5 -131.5t-279.5 -53.5z" />
    <glyph glyph-name="uni04B7" unicode="&#x4b7;" horiz-adv-x="1476" 
d="M553 295q-155 0 -240.5 84.5t-85.5 230.5v297l-174 -16l21 125h590l-21 -84l-41 -10q-92 -24 -92 -152v-100q0 -108 45.5 -152.5t126.5 -44.5q143 0 254 111v323l-174 -16l20 125h590l-20 -84l-41 -10q-92 -24 -92 -152v-643l280 16q5 -133 -23.5 -313.5t-82.5 -296.5
h-76q16 116 17 214t-26 168t-79 85h-447l21 84l41 10q92 24 92 152v223h-25q-147 -174 -358 -174z" />
    <glyph glyph-name="uni04BA" unicode="&#x4ba;" horiz-adv-x="1722" 
d="M1004 0l20 94l55 17q50 13 71 46.5t21 92.5v250q0 122 -45 182.5t-163 60.5q-101 0 -209.5 -28.5t-186.5 -73.5v-526l195 16l-21 -131h-651l21 94l63 15q53 15 76.5 47t23.5 84v1099l-194 -16l20 131h645l-20 -94l-66 -17q-92 -25 -92 -131v-469q90 77 220.5 130
t279.5 53q105 0 183.5 -29.5t124 -81t67.5 -114.5t22 -136v-450l195 16l-21 -131h-634z" />
    <glyph glyph-name="uni04BB" unicode="&#x4bb;" horiz-adv-x="1411" 
d="M68 0l20 84l41 14q45 19 65.5 54t20.5 94v1079l-147 76v76q250 79 393 79h57q-20 -237 -20 -481v-205h43q8 6 42.5 32.5t47 34.5t44 29t52 29.5t51.5 20t62 16t65 4.5q136 0 209.5 -77.5t73.5 -223.5v-626l182 16l-20 -125h-598l20 84l53 16q37 9 58.5 43.5t21.5 89.5
v443q0 82 -48 122t-126 40q-85 0 -233 -66v-663l161 16l-20 -125h-571z" />
    <glyph glyph-name="uni04C0" unicode="&#x4c0;" horiz-adv-x="829" 
d="M90 0l21 94l63 15q53 15 76.5 47t23.5 84v1099l-194 -16l20 131h645l-20 -94l-66 -17q-92 -25 -92 -131v-1097l195 16l-21 -131h-651z" />
    <glyph glyph-name="uni04D8" unicode="&#x4d8;" horiz-adv-x="1591" 
d="M717 -20q-183 0 -335.5 81t-243.5 230t-91 336q0 161 90 161h1012q-12 261 -131.5 415.5t-298.5 154.5q-170 0 -298.5 -108t-207.5 -292h-76l21 410q112 47 260 77t305 30q217 0 387.5 -93.5t266.5 -266t96 -394.5q0 -158 -60 -296.5t-162.5 -235.5t-241 -153t-292.5 -56
zM326 596q0 -216 112 -354t289 -138q189 0 298.5 147.5t121.5 422.5h-746q-39 0 -57 -19t-18 -59z" />
    <glyph glyph-name="uni04D9" unicode="&#x4d9;" horiz-adv-x="1236" 
d="M604 -20q-103 0 -194 28t-161.5 80t-111.5 134t-41 184q0 70 29 120h715q-2 184 -73.5 290t-207.5 106q-105 0 -194.5 -77t-149.5 -198h-76l33 318q192 71 399 71q135 0 242.5 -40.5t176 -112t104.5 -165t36 -202.5q0 -158 -70.5 -281.5t-190 -189t-265.5 -65.5zM371 379
q0 -141 67 -213t168 -72q100 0 159 85t71 241h-428q-37 0 -37 -41z" />
    <glyph glyph-name="uni04E2" unicode="&#x4e2;" horiz-adv-x="1845" 
d="M567 106v-106h-477l21 94l61 15q55 15 78.5 47.5t23.5 89.5v1093l-194 -16l20 131h643l-20 -94l-64 -17q-50 -13 -71 -46.5t-21 -92.5v-825l647 795q29 37 46.5 86.5t17.5 87.5v106h469l-21 -94l-65 -17q-48 -13 -69 -46.5t-21 -92.5v-1089l194 16l-20 -131h-647l20 94
l70 15q90 23 90 137v809l-653 -803q-22 -25 -40 -68t-18 -78zM678 1663q0 30 25.5 77.5t48.5 47.5h583q0 -38 -20.5 -81.5t-52.5 -43.5h-584z" />
    <glyph glyph-name="uni04E3" unicode="&#x4e3;" horiz-adv-x="1544" 
d="M541 0h-437l21 84l41 10q92 24 92 152v661l-174 -16l20 125h590l-20 -84l-41 -10q-92 -24 -92 -152v-459l403 484q60 72 60 209v12h436l-21 -84l-41 -10q-92 -24 -92 -152v-661l174 16l-20 -125h-590l20 84l41 10q93 24 93 152v446l-416 -499q-47 -57 -47 -193zM506 1225
q0 30 25.5 77.5t48.5 47.5h583q0 -38 -20.5 -81.5t-52.5 -43.5h-584z" />
    <glyph glyph-name="uni04E8" unicode="&#x4e8;" horiz-adv-x="1798" 
d="M899 -20q-159 0 -303 56.5t-248.5 153t-166.5 231.5t-62 286q0 159 60.5 301.5t164.5 245t248.5 162t306.5 59.5q159 0 303 -56.5t248.5 -153t166.5 -231.5t62 -286q0 -159 -60.5 -301.5t-164.5 -245t-248.5 -162t-306.5 -59.5zM442 774h908q-29 252 -171 414t-339 162
q-170 0 -284 -159.5t-114 -397.5v-19zM449 680q29 -252 170.5 -414t338.5 -162q112 0 203 73t143 201t52 284v18h-907z" />
    <glyph glyph-name="uni04E9" unicode="&#x4e9;" horiz-adv-x="1290" 
d="M623 -20q-141 0 -259 64.5t-188 181t-70 259.5q0 250 159 400.5t403 150.5q216 0 366 -144.5t150 -361.5q0 -250 -158.5 -400t-402.5 -150zM410 600v-45h460q-25 169 -101.5 274t-176.5 105q-80 0 -131 -89.5t-51 -244.5zM420 461q25 -168 101.5 -273.5t176.5 -105.5
q81 0 132 87t51 249v43h-461z" />
    <glyph glyph-name="uni04EE" unicode="&#x4ee;" horiz-adv-x="1536" 
d="M303 -20q-47 0 -81 40t-47 90t-13 99q16 0 66.5 -0.5t66.5 0t57.5 2.5t59.5 6t51 11.5t53 19t44.5 28.5t45.5 39q94 98 29 213l-436 811l-160 -10l20 125h709l-20 -94l-101 -10q-67 -6 -86 -43.5t14 -98.5l271 -495l334 626l-201 -10l20 125h498l-20 -94l-84 -8
q-42 -5 -76 -34t-72 -101l-411 -762q-97 -179 -189 -286.5t-172 -148t-170 -40.5zM541 1663q0 30 25 77.5t48 47.5h584q0 -38 -21 -81.5t-53 -43.5h-583z" />
    <glyph glyph-name="uni04EF" unicode="&#x4ef;" horiz-adv-x="1275" 
d="M299 -492q-69 0 -140 101q-56 79 -65 143q-5 39 17 39h249q139 0 205 154l21 49l-430 907l-142 -10l21 125h647l-20 -84l-58 -12q-136 -27 -72 -170l197 -428l250 579l-188 -10l20 125h438l-20 -84l-55 -17q-41 -13 -78.5 -54t-63.5 -101l-389 -889q-73 -170 -160 -266.5
t-184 -96.5zM401 1225q0 30 25.5 77.5t48.5 47.5h584q0 -38 -21 -81.5t-53 -43.5h-584z" />
    <glyph glyph-name="uni1E20" unicode="&#x1e20;" horiz-adv-x="1767" 
d="M952 -20q-251 0 -441 90t-291 251t-101 371q0 161 63 305t172.5 249.5t265 167t332.5 61.5q238 0 471 -62l41 -438h-75q-145 375 -506 375q-104 0 -188.5 -47.5t-139 -130t-84 -191t-29.5 -231.5q0 -288 139.5 -467t370.5 -179q136 0 213.5 45.5t77.5 141.5v379l-321 -17
l20 119h731l-20 -92q-62 0 -92.5 -25.5t-30.5 -83.5v-288q0 -49 23.5 -73t78.5 -24l8 -61q-214 -78 -364.5 -111.5t-323.5 -33.5zM602 1663q0 30 25.5 77.5t48.5 47.5h584q0 -38 -21 -81.5t-53 -43.5h-584z" />
    <glyph glyph-name="uni1E21" unicode="&#x1e21;" horiz-adv-x="1236" 
d="M586 -492q-143 0 -261.5 36.5t-187.5 101.5t-69 145q0 83 69.5 149t163.5 99q-40 52 -74 111.5t-34 87.5q0 25 67 59.5t160 54.5q-133 33 -215 119t-82 197q0 103 64.5 187.5t176.5 132.5t248 48q120 0 217 -43q21 16 81.5 67.5t102.5 85t99 63.5t98 30q49 0 43 -67
q-7 -66 -51 -126q-30 -41 -59 -45l-258 -36q73 -45 114 -112t41 -146q0 -157 -137.5 -264t-339.5 -107q-31 0 -54.5 -21t-23.5 -47t27 -45t80 -22l250 -19q159 -13 238 -84.5t79 -177.5q0 -108 -77 -203t-209.5 -152t-286.5 -57zM289 1225q0 30 25 77.5t48 47.5h584
q0 -38 -21 -81.5t-53 -43.5h-583zM322 -152q0 -100 95.5 -168.5t241.5 -68.5q102 0 171 54t69 147q0 73 -52.5 113.5t-174.5 49.5l-301 25q-49 -63 -49 -152zM414 713q0 -123 55 -203t139 -80q60 0 101 66t41 161q0 123 -55 204t-138 81q-61 0 -102 -66.5t-41 -162.5z" />
    <glyph glyph-name="Wgrave" unicode="&#x1e80;" horiz-adv-x="2310" 
d="M1559 -20l-357 899l-405 -899h-56l-528 1359l-174 -10l20 125h684l-20 -94l-76 -17q-116 -24 -55 -176l282 -733l269 596l-123 309l-170 -10l20 125h705l-21 -94l-90 -17q-64 -11 -78 -51t19 -129l254 -665l276 841l-231 -10l20 125h547l-20 -94l-94 -17
q-58 -9 -90.5 -47.5t-61.5 -126.5l-391 -1189h-55zM944 1909q0 40 24.5 74t57.5 34q11 0 31 -14t48.5 -44t53 -57.5t62.5 -73.5t58.5 -72t58.5 -73.5t46 -58.5l-22 -27l-246 127q-4 2 -24.5 11.5t-25.5 12t-23 12t-23.5 14t-19.5 15t-19.5 18t-14.5 20t-12.5 24t-6.5 26.5
t-3 32z" />
    <glyph glyph-name="wgrave" unicode="&#x1e81;" horiz-adv-x="1765" 
d="M1108 -14l-217 575l-258 -575h-131l-357 915l-131 -10l21 125h563l-20 -84l-43 -14q-42 -13 -57.5 -43t1.5 -78l189 -482l170 385l-76 201l-111 -10l21 125h565l-20 -84l-58 -17q-98 -27 -57 -141l162 -432l215 559l-170 -10l20 125h410l-21 -84l-63 -23
q-73 -26 -117 -137l-299 -786h-131zM705 1491q0 44 27 88.5t67 44.5q19 0 81.5 -78t153 -203.5t119.5 -162.5l-20 -21l-256 148q-27 15 -40 23t-37.5 24t-37.5 28.5t-28.5 30.5t-22 37.5t-6.5 40.5z" />
    <glyph glyph-name="Wacute" unicode="&#x1e82;" horiz-adv-x="2310" 
d="M1559 -20l-357 899l-405 -899h-56l-528 1359l-174 -10l20 125h684l-20 -94l-76 -17q-116 -24 -55 -176l282 -733l269 596l-123 309l-170 -10l20 125h705l-21 -94l-90 -17q-64 -11 -78 -51t19 -129l254 -665l276 841l-231 -10l20 125h547l-20 -94l-94 -17
q-58 -9 -90.5 -47.5t-61.5 -126.5l-391 -1189h-55zM1036 1624q10 12 35.5 45t42.5 54t45 56t48.5 59t46.5 54t45.5 50.5t38.5 38.5t33.5 27t23.5 9q33 0 57.5 -34t24.5 -74q0 -17 -3 -32t-6.5 -26.5t-12.5 -24t-14.5 -20t-19.5 -18t-19.5 -15t-23.5 -14t-23 -12t-25.5 -12
t-24.5 -11.5l-246 -127z" />
    <glyph glyph-name="wacute" unicode="&#x1e83;" horiz-adv-x="1765" 
d="M1108 -14l-217 575l-258 -575h-131l-357 915l-131 -10l21 125h563l-20 -84l-43 -14q-42 -13 -57.5 -43t1.5 -78l189 -482l170 385l-76 201l-111 -10l21 125h565l-20 -84l-58 -17q-98 -27 -57 -141l162 -432l215 559l-170 -10l20 125h410l-21 -84l-63 -23
q-73 -26 -117 -137l-299 -786h-131zM707 1180q29 37 119.5 162.5t153 203.5t81.5 78q40 0 67 -44.5t27 -88.5q0 -21 -6.5 -40.5t-22 -37.5t-28.5 -30.5t-37.5 -28.5t-37.5 -24t-40 -23l-256 -148z" />
    <glyph glyph-name="Wdieresis" unicode="&#x1e84;" horiz-adv-x="2310" 
d="M1559 -20l-357 899l-405 -899h-56l-528 1359l-174 -10l20 125h684l-20 -94l-76 -17q-116 -24 -55 -176l282 -733l269 596l-123 309l-170 -10l20 125h705l-21 -94l-90 -17q-64 -11 -78 -51t19 -129l254 -665l276 841l-231 -10l20 125h547l-20 -94l-94 -17
q-58 -9 -90.5 -47.5t-61.5 -126.5l-391 -1189h-55zM918 1780q0 53 38 90t93 37q51 0 86.5 -37t35.5 -90t-35.5 -90t-86.5 -37q-55 0 -93 37t-38 90zM1249 1780q0 53 38 90t93 37q51 0 87 -37t36 -90t-36 -90t-87 -37q-55 0 -93 37t-38 90z" />
    <glyph glyph-name="wdieresis" unicode="&#x1e85;" horiz-adv-x="1765" 
d="M1108 -14l-217 575l-258 -575h-131l-357 915l-131 -10l21 125h563l-20 -84l-43 -14q-42 -13 -57.5 -43t1.5 -78l189 -482l170 385l-76 201l-111 -10l21 125h565l-20 -84l-58 -17q-98 -27 -57 -141l162 -432l215 559l-170 -10l20 125h410l-21 -84l-63 -23
q-73 -26 -117 -137l-299 -786h-131zM602 1366q0 59 42.5 100t103.5 41q57 0 97 -41t40 -100t-40 -100t-97 -41q-61 0 -103.5 41t-42.5 100zM971 1366q0 59 42 100t103 41q57 0 97 -41t40 -100t-40 -100t-97 -41q-61 0 -103 41t-42 100z" />
    </font>
</defs>
</svg>
