<?xml version="1.0" standalone="no"?>
<!DOCTYPE svg PUBLIC "-//W3C//DTD SVG 1.1//EN" "http://www.w3.org/Graphics/SVG/1.1/DTD/svg11.dtd" >
<svg xmlns="http://www.w3.org/2000/svg" xmlns:xlink="http://www.w3.org/1999/xlink" version="1.1">
<metadata>
Created by FontForge 20170731 at Fri Dec  9 10:59:14 2022
 By Aleksey,,,
(c) Pangram Pangram 2022
</metadata>
<defs>
<font id="PPWriter-UltraboldItalic" horiz-adv-x="0" >
  <font-face 
    font-family="PP Writer Ultrabold Italic"
    font-weight="800"
    font-style="italic"
    font-stretch="normal"
    units-per-em="2048"
    panose-1="0 0 0 0 0 0 0 0 0 0"
    ascent="1638"
    descent="-410"
    x-height="1057"
    cap-height="1454"
    bbox="-509.633 -666 12659 2116"
    underline-thickness="102"
    underline-position="-358"
    slope="-14"
    unicode-range="U+0021-1F415"
  />
<missing-glyph horiz-adv-x="1013" 
d="M831 1556v-2027h-643v2027h643zM338 -332h338v68h-207l141 96h66v66h-338v-66h143l-143 -96v-68zM338 -55h338v229h-338v-229zM338 295h338v229h-203v-112h68v45h67v-95h-202v162h-68v-229zM338 569h338v203h-68v-133h-270v-70zM338 684h203v143h135v66h-338v-66h135v-75
h-135v-68zM338 948h338v70h-135v141h-203v-211zM338 1212h338v66h-135v76h135v67h-336v-67h133v-76h-135v-66zM406 12v94h202v-94h-202zM406 1018v72h67v-72h-67z" />
    <glyph glyph-name="f_f" unicode="ff" horiz-adv-x="1521" 
d="M-420 -492q-84 0 -84 76q0 57 46 121t87 64q34 0 153 -44t165 -44q66 0 106.5 82t71.5 241l184 930h-209l21 102h215q68 194 237 320.5t361 126.5q224 0 346 -103q224 197 666 197q45 0 68 -20.5t16 -55.5q-13 -62 -54 -123t-80 -61q-35 0 -153 44t-164 44
q-44 0 -81 -53.5t-60.5 -129.5t-46.5 -186h254l-21 -102h-252l-164 -832q-62 -314 -278 -454t-608 -140q-84 0 -84 76q0 57 46 121t87 64q34 0 152.5 -44t164.5 -44q66 0 106.5 82t71.5 241l185 930h-420l-164 -832q-63 -314 -279.5 -454t-607.5 -140zM651 1036h422
q26 94 64 164q-48 79 -107 123.5t-119 44.5q-191 0 -260 -332z" />
    <glyph glyph-name="f_f_i" unicode="ffi" horiz-adv-x="2258" 
d="M322 -492q-84 0 -84 76q0 57 46 121t87 64q34 0 152.5 -44t164.5 -44q66 0 106.5 82t71.5 241l185 930h-420l-164 -832q-63 -314 -279.5 -454t-607.5 -140q-84 0 -84 76q0 57 46 121t87 64q34 0 153 -44t165 -44q66 0 106.5 82t71.5 241l184 930h-209l21 102h215
q68 194 237 320.5t361 126.5q216 0 344 -101q216 195 635 195q127 0 182 -32.5t55 -76.5q0 -62 -56 -132t-101 -70q-31 0 -83 21.5t-101.5 48t-115 48t-118.5 21.5q-32 0 -60 -28.5t-50 -82.5t-39.5 -115.5t-34.5 -142.5h131q113 0 231.5 16.5t199.5 33t103 16.5
q45 0 56.5 -26t-5.5 -91l-161 -661q-20 -82 41 -82q30 0 85.5 14.5t104.5 36.5l-8 -115q-86 -74 -232.5 -136t-234.5 -62q-87 0 -108 60t14 202l116 493q26 107 0 150t-100 49h-252l-164 -832q-62 -314 -278 -454t-608 -140zM651 1036h422q25 92 64 166q-49 77 -107.5 121.5
t-118.5 44.5q-191 0 -260 -332z" />
    <glyph glyph-name="f_f_l" unicode="ffl" horiz-adv-x="2269" 
d="M322 -492q-84 0 -84 76q0 57 46 121t87 64q34 0 152.5 -44t164.5 -44q66 0 106.5 82t71.5 241l185 930h-420l-164 -832q-63 -314 -279.5 -454t-607.5 -140q-84 0 -84 76q0 57 46 121t87 64q34 0 153 -44t165 -44q66 0 106.5 82t71.5 241l184 930h-209l21 102h215
q68 194 237 320.5t361 126.5q215 0 338 -97q197 191 520 191q131 0 236 -59q113 59 208 59l-282 -1253q-11 -49 -0.5 -65.5t41.5 -16.5q70 0 182 51l-8 -115q-87 -76 -224.5 -137t-224.5 -61q-86 0 -105.5 60t13.5 202l242 1097q-59 33 -145 59.5t-142 26.5q-35 0 -65 -31
t-53 -90.5t-40 -121t-34 -146.5h254l-21 -102h-252l-164 -832q-62 -314 -278 -454t-608 -140zM651 1036h422q25 92 64 166q-49 77 -107.5 121.5t-118.5 44.5q-191 0 -260 -332z" />
    <glyph glyph-name="f_i" unicode="fi" horiz-adv-x="1517" 
d="M-420 -492q-84 0 -84 76q0 57 46 121t87 64q34 0 153 -44t165 -44q66 0 106.5 82t71.5 241l184 930h-209l21 102h211q72 267 277 404t562 137q127 0 182.5 -32.5t55.5 -76.5q0 -62 -56.5 -132t-101.5 -70q-31 0 -83 21.5t-101.5 48t-114.5 48t-118 21.5q-109 0 -185 -369
h131q113 0 231.5 16.5t200 33t103.5 16.5q45 0 56.5 -26t-5.5 -91l-162 -661q-20 -82 41 -82q30 0 86.5 14.5t104.5 36.5l-9 -115q-86 -75 -232 -136.5t-234 -61.5q-87 0 -108 60t13 202l117 493q26 107 0 150t-100 49h-252l-164 -832q-62 -314 -278.5 -454t-608.5 -140z
" />
    <glyph glyph-name="f_l" unicode="fl" horiz-adv-x="1527" 
d="M-420 -492q-84 0 -84 76q0 57 46 121t87 64q34 0 153 -44t165 -44q66 0 106.5 82t71.5 241l184 930h-209l21 102h211q70 260 257.5 400.5t461.5 140.5q130 0 235 -59q113 59 209 59l-283 -1253q-11 -49 -0.5 -65.5t41.5 -16.5q29 0 81.5 14.5t101.5 36.5l-9 -115
q-87 -76 -224 -137t-224 -61q-86 0 -105.5 60t13.5 202l241 1097q-59 33 -145 59.5t-141 26.5q-35 0 -65 -31t-53.5 -90.5t-40.5 -121.5t-34 -146h254l-20 -102h-252l-164 -832q-62 -314 -278.5 -454t-608.5 -140z" />
    <glyph glyph-name=".notdef" horiz-adv-x="1013" 
d="M831 1556v-2027h-643v2027h643zM338 -332h338v68h-207l141 96h66v66h-338v-66h143l-143 -96v-68zM338 -55h338v229h-338v-229zM338 295h338v229h-203v-112h68v45h67v-95h-202v162h-68v-229zM338 569h338v203h-68v-133h-270v-70zM338 684h203v143h135v66h-338v-66h135v-75
h-135v-68zM338 948h338v70h-135v141h-203v-211zM338 1212h338v66h-135v76h135v67h-336v-67h133v-76h-135v-66zM406 12v94h202v-94h-202zM406 1018v72h67v-72h-67z" />
    <glyph glyph-name=".null" 
 />
    <glyph glyph-name="nonmarkingreturn" horiz-adv-x="682" 
 />
    <glyph glyph-name="space" unicode="&#xa0;" horiz-adv-x="448" 
 />
    <glyph glyph-name="space" unicode=" " horiz-adv-x="448" 
 />
    <glyph glyph-name="exclam" unicode="!" horiz-adv-x="634" 
d="M258 514q15 71 25.5 151.5t16 180t8 162t5.5 184t4 160.5q0 100 73 162.5t169 62.5q68 0 109 -39t37 -108q-8 -76 -73.5 -250.5t-140 -368.5t-96.5 -297h-137zM59 137q0 94 72 163t166 69q69 0 111.5 -41.5t42.5 -106.5q0 -95 -71 -165t-163 -70q-70 0 -114 42.5
t-44 108.5z" />
    <glyph glyph-name="quotedbl" unicode="&#x22;" horiz-adv-x="917" 
d="M330 1368q-9 88 36.5 138t139.5 50q95 0 119 -50t-23 -138l-168 -328h-78zM743 1368q-9 87 37 137.5t140 50.5q95 0 119 -50t-23 -138l-168 -328h-78z" />
    <glyph glyph-name="numbersign" unicode="#" horiz-adv-x="1277" 
d="M485 0l177 377h-269l-176 -377h-162l176 377h-225l70 147h225l188 406h-223l70 147h223l176 377h162l-176 -377h268l176 377h162l-176 -377h225l-69 -147h-226l-188 -406h223l-69 -147h-224l-176 -377h-162zM463 524h268l189 406h-269z" />
    <glyph glyph-name="dollar" unicode="$" horiz-adv-x="1196" 
d="M762 1530q-12 95 17.5 140.5t105.5 45.5q72 0 79.5 -46t-46.5 -140l-31 -57q130 -6 330 -64l-66 -420h-86q-42 352 -313 352q-134 0 -220 -76.5t-86 -179.5q0 -66 73.5 -115t260.5 -100q190 -51 275.5 -136t85.5 -206q0 -99 -42.5 -194t-116.5 -170t-183 -124.5
t-234 -57.5l6 -70q9 -96 -18.5 -141t-99.5 -45q-76 0 -84.5 46t47.5 140l39 70q-216 7 -426 79l47 467h84q43 -207 151.5 -313t259.5 -106q127 0 211 75t84 178q0 81 -77 132t-246 98q-203 55 -290 137t-87 197q0 107 48 203.5t129.5 167t191.5 116.5t233 57z" />
    <glyph glyph-name="percent" unicode="%" horiz-adv-x="1873" 
d="M371 0l1022 1249h168l-1020 -1249h-170zM133 815q0 116 72 217.5t186 159t236 57.5q144 0 234.5 -80.5t90.5 -207.5q0 -113 -67.5 -214.5t-178.5 -162t-233 -60.5q-150 0 -245 81.5t-95 209.5zM393 795q0 -74 28 -118t75 -44q45 0 84 40t62 98t36.5 116t13.5 100
q0 70 -23.5 112t-64.5 42q-48 0 -90 -38.5t-67.5 -94t-39.5 -113t-14 -100.5zM975 272q0 116 72 217.5t185.5 159.5t235.5 58q144 0 235 -81t91 -208q0 -111 -67.5 -212.5t-178.5 -162.5t-233 -61q-150 0 -245 81t-95 209zM1235 252q0 -72 28.5 -117t75.5 -45q45 0 83.5 41
t62 99.5t36.5 116t13 97.5q0 70 -23.5 112t-64.5 42q-48 0 -90 -38t-67.5 -93.5t-39.5 -113t-14 -101.5z" />
    <glyph glyph-name="ampersand" unicode="&#x26;" horiz-adv-x="1779" 
d="M629 -229q-127 0 -229 32t-169 86t-111.5 128t-63.5 153t-19 166q0 124 61 254.5t158 233t227.5 168t259.5 65.5q76 0 130 -31.5t75 -81.5q220 182 336 371l113 -39q-112 -234 -274 -392.5t-396 -287.5q-126 -76 -369 -172q0 -62 9 -114t36 -108t71 -94t120 -63t178 -25
q87 0 176 33.5t166.5 94.5t134.5 156t76 208q-141 -29 -226.5 -90.5t-92.5 -153.5h-111q0 213 104.5 353t286.5 180l76 16q357 78 371 260h110q0 -218 -100.5 -358.5t-278.5 -179.5q-13 -138 -68 -261.5t-138 -214.5t-186.5 -158t-217 -100.5t-225.5 -33.5zM375 545
q125 67 193.5 129.5t68.5 138.5q0 82 -62 82q-41 0 -83.5 -57t-71 -134.5t-45.5 -158.5z" />
    <glyph glyph-name="quotesingle" unicode="'" horiz-adv-x="503" 
d="M330 1368q-9 88 36.5 138t139.5 50q95 0 119 -50t-23 -138l-168 -328h-78z" />
    <glyph glyph-name="parenleft" unicode="(" horiz-adv-x="747" 
d="M442 -362q-190 103 -297.5 292t-107.5 435q0 188 65 377.5t176 348t260.5 286t317.5 200.5l45 -47q-171 -152 -299 -368t-194 -449t-66 -453q0 -184 44.5 -331t123.5 -244z" />
    <glyph glyph-name="parenright" unicode=")" horiz-adv-x="749" 
d="M350 1577q190 -103 298 -292t108 -435q0 -188 -65 -377.5t-176 -348t-260.5 -286t-317.5 -200.5l-46 47q171 152 299.5 368t194.5 448.5t66 452.5q0 184 -44.5 331.5t-123.5 244.5z" />
    <glyph glyph-name="asterisk" unicode="*" horiz-adv-x="980" 
d="M821 834q-64 -40 -112.5 -16t-46.5 95l4 215l176 -100q58 -35 51.5 -94t-72.5 -100zM299 1280q35 66 95.5 77.5t101.5 -38.5l127 -150l-226 -34q-75 -9 -104 34t6 111zM348 831q-46 41 -26 100.5t92 94.5l213 102l-82 -217q-29 -73 -88.5 -96.5t-108.5 16.5zM604 1389
q-20 67 21 117t112 50q69 0 87.5 -50.5t-25.5 -116.5l-137 -197zM688 1167l191 156q65 52 119.5 39t62.5 -80q6 -66 -42.5 -109t-117.5 -34z" />
    <glyph glyph-name="plus" unicode="+" horiz-adv-x="1060" 
d="M367 86l75 358h-354l29 136h356l76 358h145l-76 -358h351l-29 -136h-352l-76 -358h-145z" />
    <glyph glyph-name="comma" unicode="," horiz-adv-x="600" 
d="M-82 -389q77 83 142 187.5t65 152.5q0 29 -20.5 52t-45 34t-44.5 23t-19 22q1 23 18.5 58t46.5 70.5t75.5 61t96.5 25.5q80 0 121 -42.5t41 -115.5q0 -70 -40.5 -154t-105 -160.5t-137.5 -143t-145 -113.5z" />
    <glyph glyph-name="hyphen" unicode="-" horiz-adv-x="843" 
d="M88 401l49 234h619l-49 -234h-619z" />
    <glyph glyph-name="period" unicode="." horiz-adv-x="587" 
d="M172 -14q-70 0 -114 42.5t-44 108.5q0 94 72 163t166 69q69 0 111.5 -41.5t42.5 -106.5q0 -95 -71 -165t-163 -70z" />
    <glyph glyph-name="slash" unicode="/" horiz-adv-x="794" 
d="M-172 -342l1008 1898h178l-1010 -1898h-176z" />
    <glyph glyph-name="zero" unicode="0" horiz-adv-x="1169" 
d="M471 -20q-179 0 -290 126t-111 322q0 134 54 269.5t142 240.5t210 171.5t249 66.5q182 0 292.5 -126t110.5 -325q0 -135 -54.5 -270.5t-143 -240t-210.5 -169.5t-249 -65zM188 532q0 -102 99 -168.5t252 -66.5q122 0 231 45t174.5 120.5t65.5 160.5q0 102 -98.5 168.5
t-254.5 66.5q-121 0 -229.5 -45t-174 -121t-65.5 -160z" />
    <glyph glyph-name="one" unicode="1" horiz-adv-x="917" 
d="M-33 0l39 88l64 10q168 26 211 224l118 552l-260 -14l21 88q80 16 190 58t235.5 96t180.5 74l29 -21q-58 -175 -88 -319l-154 -725l217 18l-47 -129h-756z" />
    <glyph glyph-name="two" unicode="2" horiz-adv-x="1161" 
d="M-23 86q105 57 221.5 142.5t221.5 184t173.5 205t68.5 189.5q0 68 -38.5 106.5t-105.5 38.5q-63 0 -142 -34t-153 -93l-63 49q116 141 266 222.5t295 81.5q140 0 220.5 -64.5t80.5 -173.5q0 -59 -21 -118t-53 -108t-84.5 -102t-99 -91.5t-113.5 -85t-111.5 -74
t-109.5 -66.5h307q79 0 140 31.5t135 109.5h75l-210 -477q-91 41 -334 41h-572z" />
    <glyph glyph-name="three" unicode="3" horiz-adv-x="1046" 
d="M-203 -389q188 49 347.5 136t262.5 207.5t103 246.5q0 98 -73 147t-195 49l-25 45q178 99 280.5 221t102.5 218q0 47 -27.5 72.5t-78.5 25.5q-119 0 -301 -135l-25 82q123 117 255 184.5t243 67.5q127 0 201.5 -53t74.5 -142q0 -69 -40.5 -136.5t-109.5 -124.5t-142 -101
t-156 -82q380 -12 380 -220q0 -103 -66.5 -211t-176.5 -200t-247 -171t-283.5 -132.5t-280.5 -75.5z" />
    <glyph glyph-name="four" unicode="4" horiz-adv-x="1183" 
d="M457 -471l100 471h-637l-2 78l1092 1096l73 -21l-192 -913h203l-72 -240h-182l-101 -471h-282zM229 240h379l103 487z" />
    <glyph glyph-name="five" unicode="5" horiz-adv-x="1024" 
d="M-233 -389q97 26 195.5 67t192 97.5t165.5 120.5t115.5 141t43.5 153q0 46 -23 86t-57 69t-87.5 55.5t-100.5 44t-109 36.5l17 17q117 125 185 314t75 345h260q242 0 360 39l-71 -334h-490l-67 -166q74 -19 137 -43t122.5 -58.5t101 -76t66.5 -97t25 -118.5
q0 -92 -45 -184t-122 -169.5t-179 -147.5t-217 -123.5t-235 -92t-234 -57.5z" />
    <glyph glyph-name="six" unicode="6" horiz-adv-x="1204" 
d="M487 -20q-204 0 -319 101t-115 271q0 132 48 263t132 243.5t198 214.5t245.5 180.5t274 135.5t284.5 86l45 -66q-285 -89 -495 -262.5t-310 -409.5q171 129 356 129q135 0 221.5 -82.5t86.5 -214.5q0 -119 -49.5 -227.5t-135 -188t-207.5 -126.5t-260 -47zM397 340
q0 -125 42.5 -190.5t119.5 -65.5q53 0 102 45t80.5 111t50.5 136t19 124q0 85 -40 137.5t-107 52.5q-109 0 -232 -84q-35 -128 -35 -266z" />
    <glyph glyph-name="seven" unicode="7" horiz-adv-x="1060" 
d="M-84 -471l979 1366h-379q-124 0 -192 -53.5t-162 -218.5h-76l197 575q108 -41 252 -41h577l4 -86l-983 -1542h-217z" />
    <glyph glyph-name="eight" unicode="8" horiz-adv-x="1200" 
d="M489 -20q-208 0 -336 86.5t-128 220.5q0 76 31 143.5t87.5 121.5t126 96t156.5 77q-78 71 -117 134.5t-39 146.5q0 99 51.5 188t133 149.5t182.5 96t201 35.5q174 0 274 -71.5t100 -180.5q0 -123 -112 -227.5t-260 -143.5q49 -38 73.5 -58t62 -53t56.5 -57t40 -56
t29.5 -64.5t8.5 -67.5q0 -100 -53 -195.5t-138.5 -165.5t-199 -112.5t-230.5 -42.5zM330 303q0 -103 60 -162t153 -59q64 0 114.5 22t79.5 57t43.5 73t14.5 75q0 24 -6 47t-22.5 48t-29.5 42.5t-43.5 46t-46.5 43t-57 49t-58 48.5q-21 18 -38 35q-164 -195 -164 -365z
M559 1163q0 -33 13 -63t48 -65.5t64.5 -60.5t93.5 -75q73 70 120.5 152.5t47.5 162.5q0 77 -46.5 117.5t-123.5 40.5q-85 0 -151 -63.5t-66 -145.5z" />
    <glyph glyph-name="nine" unicode="9" horiz-adv-x="1208" 
d="M-143 -406q146 44 289 134t260.5 206.5t213 252.5t154.5 276q-73 -88 -168 -143.5t-188 -55.5q-143 0 -241.5 92.5t-98.5 235.5q0 141 97.5 278t253 222.5t314.5 85.5q200 0 319.5 -106t119.5 -296q0 -126 -54.5 -265t-147 -267t-219.5 -249.5t-267.5 -215.5t-295 -160.5
t-298.5 -89.5zM414 684q0 -94 46 -161.5t128 -67.5q121 0 225 112q47 143 47 273q0 235 -162 235q-70 0 -137.5 -66.5t-107 -157.5t-39.5 -167z" />
    <glyph glyph-name="colon" unicode=":" horiz-adv-x="610" 
d="M193 -14q-70 0 -114 42.5t-44 108.5q0 94 72 163t165 69q69 0 111.5 -41.5t42.5 -106.5q0 -96 -70.5 -165.5t-162.5 -69.5zM180 807q0 94 72 162.5t166 68.5q69 0 111 -41t42 -106q0 -96 -70.5 -166t-162.5 -70q-70 0 -114 43t-44 109z" />
    <glyph glyph-name="semicolon" unicode=";" horiz-adv-x="626" 
d="M336 639q-70 0 -114 43t-44 109q0 94 72 162.5t166 68.5q68 0 110.5 -41.5t42.5 -106.5q0 -96 -70.5 -165.5t-162.5 -69.5zM-57 -389q77 83 142 187.5t65 152.5q0 29 -20.5 52t-45 34t-45 23t-19.5 22q1 23 18.5 58t47 70.5t76 61t96.5 25.5q80 0 121 -42.5t41 -115.5
q0 -70 -40.5 -154t-105 -160.5t-137.5 -143t-145 -113.5z" />
    <glyph glyph-name="less" unicode="&#x3c;" horiz-adv-x="905" 
d="M881 1004l-35 -168l-629 -344l479 -361l-32 -147l-578 428l2 10l39 172z" />
    <glyph glyph-name="equal" unicode="=" horiz-adv-x="962" 
d="M121 569l29 136h737l-29 -136h-737zM51 233l27 136h737l-27 -136h-737z" />
    <glyph glyph-name="greater" unicode="&#x3e;" horiz-adv-x="905" 
d="M16 0l35 168l629 344l-479 360l32 148l578 -428l-2 -10l-39 -172z" />
    <glyph glyph-name="question" unicode="?" horiz-adv-x="892" 
d="M287 473q-5 12 -18 41.5t-19.5 46.5t-15.5 43.5t-13 51.5t-4 51q0 62 40 119t100 97.5t130.5 80t130.5 67.5t100 57.5t40 53.5q0 13 -9 24.5t-29 20.5t-40.5 16.5t-56 15.5t-62 13t-71.5 14t-72 14q-32 5 -52 67t-18 114q0 96 119 96q120 0 226 -53t173.5 -154t67.5 -227
q0 -72 -29 -130t-75 -95.5t-102 -69t-112 -59.5t-102 -57t-75 -70.5t-29 -92.5q0 -45 14 -96h-137zM137 137q0 94 72 163t166 69q68 0 110.5 -41.5t42.5 -106.5q0 -96 -70.5 -165.5t-162.5 -69.5q-70 0 -114 42.5t-44 108.5z" />
    <glyph glyph-name="at" unicode="@" horiz-adv-x="2072" 
d="M741 -381q-198 0 -362 78.5t-261.5 223t-97.5 325.5q0 132 46.5 268t129 257.5t200 228.5t254 184.5t298.5 122.5t326 45q203 0 377.5 -78t281.5 -222t107 -321q0 -105 -34 -213.5t-97 -204t-145 -170.5t-187 -119t-215 -44q-138 0 -212 62.5t-56 174.5l16 105h-25
q-88 -160 -185 -251t-193 -91q-105 0 -156 82t-51 219q0 208 78 384.5t223.5 284t326.5 107.5q78 0 218 -107l133 113h59l-174 -827q-18 -78 7.5 -116t76.5 -38q66 0 124.5 47t98 119t69 158t43 163.5t13.5 135.5q0 247 -167 397.5t-437 150.5q-131 0 -254.5 -42.5
t-223 -115t-182.5 -170t-138.5 -207t-86.5 -227t-31 -229.5q0 -234 146 -371t391 -137q117 0 232.5 16t189.5 44l29 -62q-273 -133 -523 -133zM803 301q0 -65 37 -65q31 0 75 37.5t92 104t96 175t81 235.5q-116 97 -174 97q-47 0 -97.5 -124t-80 -260.5t-29.5 -199.5z" />
    <glyph glyph-name="A" unicode="A" horiz-adv-x="1683" 
d="M823 0l41 98l72 19q64 17 88.5 48.5t24.5 90.5l-2 141h-566l-237 -278l217 18l-49 -137h-531l41 98l103 19q15 3 29 8.5t24.5 10.5t25 17t21.5 18t23 23t21 23t24 28.5t24 28.5l805 945q-50 133 -252 194l16 41h562l18 -1335l213 18l-51 -137h-705zM582 516h465l-9 537z
" />
    <glyph glyph-name="B" unicode="B" horiz-adv-x="1503" 
d="M-23 0l37 98l68 17q54 13 81 44t38 85l233 1091l-184 -18l51 137h715q211 0 330.5 -76t119.5 -202q0 -152 -121.5 -265.5t-297.5 -140.5q171 -20 266.5 -95.5t95.5 -189.5q0 -95 -55.5 -185.5t-144.5 -155.5t-204 -104.5t-231 -39.5h-797zM500 119h164q80 0 144 17.5
t105 48.5t70 68t43.5 80.5t20.5 80.5t6 75q0 97 -61 152t-179 55h-190zM645 803h193q72 0 129.5 35.5t90 90.5t49.5 113.5t17 112.5q0 90 -54 135t-157 45h-153z" />
    <glyph glyph-name="C" unicode="C" horiz-adv-x="1538" 
d="M780 -20q-308 0 -494 156t-186 417q0 184 80 354.5t214.5 294.5t319 198.5t384.5 74.5q260 0 487 -107l-67 -418h-84q-35 201 -127.5 298.5t-272.5 97.5q-96 0 -180.5 -36t-146 -97.5t-109.5 -141t-77.5 -170t-44.5 -181t-15 -177.5q0 -207 93 -320.5t265 -113.5
q115 0 208 44t172 127t177 228h84l-180 -463q-225 -65 -500 -65z" />
    <glyph glyph-name="D" unicode="D" horiz-adv-x="1728" 
d="M-23 0l43 98l64 17q54 14 91.5 50t47.5 87l230 1083l-203 -18l51 137h731q160 0 293.5 -42.5t223 -116.5t139 -175.5t49.5 -218.5q0 -113 -34.5 -225t-96.5 -211.5t-153.5 -185t-200 -147.5t-241 -97t-272.5 -35h-762zM518 119h246q109 0 207 45.5t170.5 123t125.5 178
t80 213.5t27 226q0 199 -112.5 314.5t-331.5 115.5h-152z" />
    <glyph glyph-name="E" unicode="E" horiz-adv-x="1474" 
d="M-23 0l41 98l66 17q113 30 135 131l232 1089l-201 -18l51 137h864q138 0 287 57l-37 -520h-84q-40 177 -101 260.5t-179 83.5h-275l-114 -532h149q83 0 140.5 50t109.5 181h84l-121 -569h-84q3 130 -33.5 178.5t-120.5 48.5h-147l-123 -573h346q218 0 447 401h84
l-219 -577q-114 57 -265 57h-932z" />
    <glyph glyph-name="F" unicode="F" horiz-adv-x="1216" 
d="M-23 0l41 98l66 17q113 30 135 139l232 1081l-201 -18l51 137h840q140 0 289 57l-50 -503h-84q-26 168 -85 247.5t-175 79.5h-260l-123 -575h174q94 0 146.5 49.5t91.5 181.5h84l-119 -569h-84q13 132 -17.5 179.5t-123.5 47.5h-176l-113 -530l256 18l-49 -137h-746z" />
    <glyph glyph-name="G" unicode="G" horiz-adv-x="1712" 
d="M809 -20q-331 0 -521 150.5t-190 408.5q0 187 79 359t214 299t326 202.5t405 75.5q247 0 467 -62l-55 -455h-84q-30 177 -133.5 282.5t-290.5 105.5q-111 0 -205.5 -50.5t-159.5 -132.5t-111 -188t-67.5 -216t-21.5 -216q0 -204 98.5 -319t280.5 -115q276 0 317 186
l80 375l-317 -19l47 121h745l-41 -92q-117 0 -137 -100l-61 -297q-1 -5 -2 -12.5t-2 -13t-1 -9.5q0 -66 76 -66l-4 -65q-225 -74 -385 -105.5t-346 -31.5z" />
    <glyph glyph-name="H" unicode="H" horiz-adv-x="1861" 
d="M989 0l43 98l68 17q99 25 121 141l90 420h-678l-117 -557l199 18l-49 -137h-689l41 98l64 17q62 18 94.5 52t44.5 89l228 1079l-199 -18l51 137h676l-43 -98l-68 -19q-98 -28 -123 -141l-84 -401h676l115 540l-199 -18l49 137h676l-41 -98l-67 -19q-98 -27 -123 -141
l-227 -1077l198 18l-51 -137h-676z" />
    <glyph glyph-name="I" unicode="I" horiz-adv-x="880" 
d="M-12 0l41 98l65 17q61 17 92.5 50.5t42.5 86.5l232 1083l-201 -18l51 137h676l-39 -98l-69 -19q-98 -26 -121 -137l-232 -1081l199 18l-49 -137h-688z" />
    <glyph glyph-name="J" unicode="J" horiz-adv-x="720" 
d="M-295 -397q179 125 299.5 290t169.5 394l221 1048l-256 -18l49 137h738l-41 -98l-80 -21q-43 -12 -72.5 -50t-40.5 -93l-190 -883q-33 -156 -95.5 -286.5t-139.5 -219t-168 -151t-180.5 -92t-176.5 -31.5z" />
    <glyph glyph-name="K" unicode="K" horiz-adv-x="1728" 
d="M1575 -20q-273 0 -410.5 51.5t-208.5 177.5l-254 448l9 37l778 637l-252 -14l49 137h600l-41 -98q-115 -14 -182.5 -47.5t-144.5 -98.5l-529 -432l291 -465q71 -116 135 -176.5t180 -116.5zM-20 0l43 98l63 17q53 14 89 51t46 90l232 1079l-203 -18l51 137h676l-41 -98
l-68 -19q-96 -29 -118 -137l-232 -1081l180 18l-51 -137h-667z" />
    <glyph glyph-name="L" unicode="L" horiz-adv-x="1300" 
d="M-23 0l41 98l64 17q116 29 137 133l232 1087l-201 -18l51 137h737l-41 -98l-125 -19q-59 -9 -84.5 -36.5t-42.5 -104.5l-229 -1077h219q116 0 232.5 111.5t218.5 289.5h84l-219 -577q-121 57 -265 57h-809z" />
    <glyph glyph-name="M" unicode="M" horiz-adv-x="2119" 
d="M2 0l43 98l82 19q92 20 115 110l258 1008q-58 72 -226 178l19 41h541l266 -954l626 954h529l-33 -65l-51 -19q-77 -31 -114.5 -69.5t-49.5 -100.5l-190 -1081l198 18l-49 -137h-678l43 98l64 17q102 26 121 145l159 907l-768 -1187h-37l2 6l-4 -6l-295 1077l-233 -938
l223 18l-51 -137h-510z" />
    <glyph glyph-name="N" unicode="N" horiz-adv-x="1679" 
d="M-39 0l41 98l107 11q57 5 87 29.5t42 78.5l213 1004q-85 107 -228 192l17 41h489l621 -971l182 852l-275 -18l52 137h604l-41 -98l-103 -10q-112 -12 -137 -132l-239 -1136l-150 -98l-696 1093l-203 -954l270 18l-49 -137h-604z" />
    <glyph glyph-name="O" unicode="O" horiz-adv-x="1736" 
d="M766 -20q-145 0 -269 46.5t-210 127.5t-134.5 191.5t-48.5 236.5q0 169 79 332.5t210 286.5t312 198.5t374 75.5q143 0 266.5 -47t209 -127.5t134 -191.5t48.5 -237q0 -173 -78.5 -337t-209 -285.5t-310.5 -195.5t-373 -74zM473 616q0 -218 103.5 -362.5t265.5 -144.5
q122 0 224.5 67t166.5 174t99.5 234.5t35.5 253.5q0 218 -103 363t-264 145q-99 0 -186 -45.5t-148 -120.5t-106 -170t-66.5 -196t-21.5 -198z" />
    <glyph glyph-name="P" unicode="P" horiz-adv-x="1476" 
d="M-23 0l37 98l86 25q97 29 121 135l230 1077l-201 -18l51 137h682q275 0 423 -86t148 -256q0 -117 -60 -217t-158.5 -166.5t-224 -103.5t-257.5 -37h-238l-100 -469l223 18l-49 -137h-713zM639 696h156q119 0 211.5 56t139 140t46.5 177q0 121 -68.5 193.5t-195.5 72.5
h-152z" />
    <glyph glyph-name="Q" unicode="Q" horiz-adv-x="1761" 
d="M1507 -362q-66 0 -124.5 22t-101.5 56.5t-83 88.5t-68 105t-59 119q-143 -49 -305 -49q-145 0 -269 46.5t-210 127.5t-134.5 191.5t-48.5 236.5q0 169 79 332.5t210 286.5t312 198.5t374 75.5q143 0 266.5 -47t209 -127.5t134 -191.5t48.5 -237q0 -216 -117.5 -412
t-314.5 -321q38 -73 71 -123t79.5 -98.5t105.5 -73t131 -24.5q109 0 219 20l4 -49q-82 -40 -232.5 -96.5t-175.5 -56.5zM473 616q0 -30 4 -88q186 93 328 93q75 0 137.5 -23t111.5 -68.5t84.5 -94.5t73.5 -118q75 106 115.5 245t40.5 276q0 218 -103 363t-264 145
q-99 0 -186 -45.5t-148 -120.5t-106 -170t-66.5 -196t-21.5 -198zM487 469q31 -161 126.5 -260.5t228.5 -99.5q95 0 176 38q-31 71 -52.5 114t-55 96.5t-64.5 83t-75 50.5t-93 21q-86 0 -191 -43z" />
    <glyph glyph-name="R" unicode="R" horiz-adv-x="1703" 
d="M-23 0l41 98l80 23q99 23 125 145l228 1069l-201 -18l51 137h664q257 0 408 -87t151 -251q0 -170 -130.5 -295t-308.5 -153l162 -355q50 -114 117.5 -172t198.5 -121l-21 -40q-292 0 -434.5 48.5t-183.5 184.5l-129 408h-172l-107 -502l199 18l-49 -137h-689zM643 719
h154q110 0 196.5 59t130 148.5t43.5 187.5q0 103 -63.5 162t-175.5 59h-152z" />
    <glyph glyph-name="S" unicode="S" horiz-adv-x="1196" 
d="M514 -20q-250 0 -485 81l47 467h84q43 -207 151.5 -313t259.5 -106q127 0 211 75t84 178q0 81 -77 132t-246 98q-203 55 -290 137t-87 197t55.5 217.5t147.5 175t216.5 114.5t258.5 42q147 0 373 -66l-66 -420h-86q-42 352 -313 352q-134 0 -220 -76.5t-86 -179.5
q0 -66 73.5 -115t260.5 -100q190 -51 275.5 -136t85.5 -206q0 -104 -46.5 -203t-127 -175.5t-199.5 -123t-254 -46.5z" />
    <glyph glyph-name="T" unicode="T" horiz-adv-x="1456" 
d="M262 0l41 98l92 27q114 35 142 162l223 1048h-148q-53 0 -99.5 -21.5t-88 -67t-75 -96t-75.5 -126.5h-84l142 471q119 -41 272 -41h690q143 0 293 41l-59 -471h-84q-28 156 -52 209q-41 92 -132 101q-11 1 -23 1h-152l-260 -1216l240 18l-49 -137h-754z" />
    <glyph glyph-name="U" unicode="U" horiz-adv-x="1644" 
d="M786 -20q-301 0 -452 128.5t-105 346.5l189 880l-185 -18l52 137h690l-41 -98l-80 -19q-119 -34 -149 -182l-134 -623q-38 -180 50 -281t274 -101q170 0 285 92t153 266l176 827l-229 -18l49 137h512l-41 -98l-51 -10q-60 -12 -91 -45t-46 -103l-142 -657
q-56 -267 -238 -414t-446 -147z" />
    <glyph glyph-name="V" unicode="V" horiz-adv-x="1656" 
d="M420 -20l-47 1355l-164 -18l51 137h737l-41 -98l-131 -15q-75 -9 -103.5 -48t-25.5 -115l25 -750l786 907l-268 -18l49 137h590l-39 -98l-74 -15q-71 -13 -121 -48t-108 -105l-1053 -1208h-63z" />
    <glyph glyph-name="W" unicode="W" horiz-adv-x="2281" 
d="M1450 -20l-160 884l-604 -884h-63l-234 1355l-178 -10l49 129h707l-41 -98l-76 -19q-58 -13 -78 -53.5t-8 -116.5l117 -692l381 555l-56 305l-170 -10l49 129h734l-39 -98l-94 -19q-67 -12 -88.5 -50.5t-8.5 -125.5l99 -620l446 794l-236 -10l50 129h557l-41 -98l-99 -19
q-63 -12 -103.5 -48t-86.5 -120l-662 -1189h-63z" />
    <glyph glyph-name="X" unicode="X" horiz-adv-x="1691" 
d="M709 0l43 98l116 19q65 9 91 39t2 73l-175 334l-432 -452l238 26l-51 -137h-607l43 98l125 19q104 15 220 131l407 424l-348 663l-172 -18l51 137h817l-41 -98l-94 -19q-74 -15 -101.5 -44t-6.5 -68l182 -353l457 463l-236 -18l49 137h567l-41 -98l-96 -19
q-49 -9 -93.5 -36.5t-102.5 -86.5l-445 -452l334 -643l176 18l-49 -137h-827z" />
    <glyph glyph-name="Y" unicode="Y" horiz-adv-x="1574" 
d="M348 0l41 98l51 19q73 28 112.5 70.5t53.5 105.5l70 315l-289 727l-178 -18l51 137h737l-39 -98l-104 -19q-70 -12 -87 -42t9 -91l185 -461l481 592l-217 -18l49 137h524l-41 -98l-88 -17q-45 -8 -83 -35t-91 -92l-494 -604l-106 -489l235 18l-49 -137h-733z" />
    <glyph glyph-name="Z" unicode="Z" horiz-adv-x="1267" 
d="M-68 0l-18 119l1157 1229l-395 -13q-262 -8 -467 -389h-84l194 549q124 -41 308 -41h811l20 -119l-1163 -1231l397 15q75 2 131.5 23.5t109.5 74.5t100 126t110 194h84l-131 -578q-124 41 -308 41h-856z" />
    <glyph glyph-name="bracketleft" unicode="[" horiz-adv-x="745" 
d="M-41 -342l403 1898h543l-26 -116h-248l-355 -1665h248l-22 -117h-543z" />
    <glyph glyph-name="backslash" unicode="\" horiz-adv-x="933" 
d="M739 -342h-153l-346 1898h153z" />
    <glyph glyph-name="bracketright" unicode="]" horiz-adv-x="745" 
d="M829 1552l-403 -1898h-543l27 117h248l354 1665h-248l23 116h542z" />
    <glyph glyph-name="asciicircum" unicode="^" horiz-adv-x="718" 
d="M682 1004l-127 342l-274 -342h-156l364 450h181l168 -450h-156z" />
    <glyph glyph-name="underscore" unicode="_" horiz-adv-x="1048" 
d="M-205 -342l47 223h1041l-47 -223h-1041z" />
    <glyph glyph-name="grave" unicode="`" horiz-adv-x="608" 
d="M432 1251q-184 85 -184 203q0 55 30.5 119.5t75.5 64.5q19 0 84 -93t148.5 -219.5t120.5 -172.5l-23 -23z" />
    <glyph glyph-name="a" unicode="a" horiz-adv-x="1161" 
d="M238 -20q-105 0 -156 82t-51 219q0 208 79 384.5t225 284t327 107.5q75 0 198 -94l195 198h59l-205 -835q-13 -32 -4.5 -58t47.5 -26q54 0 166 51l-8 -115q-92 -80 -210 -139t-202 -59q-115 0 -92 129l35 213h-25q-86 -160 -184 -251t-194 -91zM336 301q0 -30 10 -47.5
t25 -17.5q69 0 175 153t171 399q-116 97 -176 97q-46 0 -96 -124t-79.5 -260.5t-29.5 -199.5z" />
    <glyph glyph-name="b" unicode="b" horiz-adv-x="1122" 
d="M449 -20q-60 0 -180 28.5t-199 61.5l270 1183q6 32 3 54t-18 34.5t-34.5 18t-46 6t-53 -1.5t-56.5 -5q-17 -2 -26 -3v110q93 45 274 78t336 33l-238 -862h23q76 161 164.5 251.5t181.5 90.5q118 0 176.5 -90.5t58.5 -235.5q0 -205 -79.5 -376t-226 -273t-330.5 -102z
M406 236q55 -39 114 -61.5t98 -22.5q40 0 80 101t61 212t21 168q0 168 -59 168t-142.5 -125t-146.5 -340l-6 -29l-2 -2z" />
    <glyph glyph-name="c" unicode="c" horiz-adv-x="952" 
d="M420 -20q-167 0 -269 106t-102 272q0 93 32.5 192.5t93.5 189t140.5 161t181.5 114t208 42.5q84 0 186 -25.5t102 -62.5q0 -67 -41.5 -137t-81.5 -70q-15 0 -59 27.5t-100.5 55t-100.5 27.5q-71 0 -129 -74.5t-86 -172t-28 -185.5q0 -100 41.5 -155.5t119.5 -55.5
q139 0 308 172l24 -114q-74 -140 -193 -223.5t-247 -83.5z" />
    <glyph glyph-name="d" unicode="d" horiz-adv-x="1212" 
d="M252 -20q-107 0 -159 82.5t-52 218.5q0 120 29 234.5t84.5 212t131 171.5t175.5 116t211 42q49 0 116 -39l58 235q5 28 4.5 47.5t-11 32t-23.5 20t-34.5 10.5t-44 2.5t-51 -2.5t-56.5 -5q-12 -1 -18 -2v110q93 45 275 78t338 33l-291 -1251q-8 -36 2 -60t41 -24
q30 0 87 14.5t105 36.5l-8 -115q-92 -80 -209 -139t-200 -59q-70 0 -109.5 49.5t-26.5 138.5l21 131h-23l2 4q-84 -151 -178.5 -237t-185.5 -86zM346 299q0 -63 29 -63q70 0 180.5 154t175.5 398q-116 97 -188 97q-48 0 -96 -124t-74.5 -260t-26.5 -202z" />
    <glyph glyph-name="e" unicode="e" horiz-adv-x="960" 
d="M43 336q0 124 61 254.5t158 233t228 168t260 65.5q99 0 157 -49.5t58 -120.5q0 -53 -27.5 -103.5t-79 -95t-106.5 -81.5t-131.5 -73.5t-130.5 -59.5t-125 -50q0 -195 159 -195q81 0 170.5 47.5t173.5 133.5l25 -115q-83 -140 -216.5 -227.5t-293.5 -87.5
q-151 0 -245.5 97.5t-94.5 258.5zM381 545q125 67 193.5 129.5t68.5 138.5q0 82 -61 82q-41 0 -83.5 -57t-71.5 -134.5t-46 -158.5z" />
    <glyph glyph-name="f" unicode="f" horiz-adv-x="780" 
d="M-420 -492q-84 0 -84 76q0 57 46 121t87 64q34 0 153 -44t165 -44q66 0 106.5 82t71.5 241l184 930h-209l21 102h211q74 267 286.5 404t585.5 137q45 0 68 -20.5t16 -55.5q-13 -63 -53.5 -123.5t-79.5 -60.5q-35 0 -153 44t-164 44q-33 0 -62 -28.5t-52 -82.5
t-40.5 -115.5t-34.5 -142.5h254l-20 -102h-252l-164 -832q-62 -314 -278.5 -454t-608.5 -140z" />
    <glyph glyph-name="g" unicode="g" horiz-adv-x="1124" 
d="M426 -492q-111 0 -208 15t-178 46.5t-128 86.5t-47 127q0 99 89.5 163.5t225.5 90.5q-71 61 -71 133q0 32 79 83.5t174 90.5q-140 17 -223.5 86.5t-83.5 171.5q0 116 78 221.5t206 168.5t269 63q73 0 148 -21q179 250 442 250q41 0 41 -45q0 -79 -40 -147t-93 -68
q-141 0 -256 -33q61 -39 94 -94t33 -119q0 -112 -71 -212t-188.5 -161.5t-250.5 -66.5q-18 -41 -18 -80q0 -12 28 -31t76 -37l258 -90q98 -35 144 -77t46 -107q0 -54 -23.5 -110t-72 -109.5t-115.5 -95.5t-161.5 -67.5t-202.5 -25.5zM186 -154q0 -77 103 -123.5t264 -46.5
q84 0 136 22t52 50q0 39 -90 76l-379 160q-86 -57 -86 -138zM377 770q0 -56 21.5 -124t64.5 -121.5t94 -53.5q84 0 84 143q0 42 -10.5 93t-30 100.5t-52.5 83t-73 33.5q-52 0 -75 -44.5t-23 -109.5z" />
    <glyph glyph-name="h" unicode="h" horiz-adv-x="1329" 
d="M350 1257q17 75 -33 95.5t-208 3.5v110q92 44 278 77.5t342 33.5l-285 -1075h21q60 113 125 207.5t138 175t153 126.5t155 46q94 0 152 -62.5t29 -158.5l-156 -512q-14 -48 -1.5 -65t44.5 -17q54 0 166 51l-8 -115q-89 -77 -218 -137.5t-215 -60.5q-90 0 -114.5 61
t16.5 201l148 501q10 44 4.5 55t-25.5 11q-47 0 -151 -131t-207 -321t-142 -337l-313 -40z" />
    <glyph glyph-name="i" unicode="i" horiz-adv-x="784" 
d="M238 -20q-89 0 -111.5 60.5t18.5 201.5l123 417q18 60 -28 96.5t-150 26.5l-16 111q121 61 270 112.5t264 51.5q32 0 48.5 -8t22.5 -31.5t-9 -65.5l-189 -628q-11 -41 1.5 -61.5t41.5 -20.5q30 0 85 14.5t104 36.5l-8 -115q-86 -74 -232.5 -136t-234.5 -62zM414 1339
q3 87 76 155.5t163 68.5q67 0 108 -43t38 -107q-1 -88 -73 -157.5t-159 -69.5q-69 0 -112 43.5t-41 109.5z" />
    <glyph glyph-name="j" unicode="j" horiz-adv-x="743" 
d="M-336 -492q-53 0 -75.5 23.5t-22.5 52.5q0 63 38 139t77 76q44 0 158.5 -51t158.5 -51q62 0 99 70.5t71 222.5l145 669q17 78 -26 106t-154 17l-16 111q64 32 107 52t117.5 50.5t144 46t130.5 15.5q46 0 61 -21.5t3 -83.5l-168 -805q-66 -323 -265.5 -481t-582.5 -158z
M422 1339q3 87 76.5 155.5t163.5 68.5q67 0 107.5 -43t37.5 -107q-1 -88 -73 -157.5t-159 -69.5q-69 0 -112 43.5t-41 109.5z" />
    <glyph glyph-name="k" unicode="k" horiz-adv-x="1232" 
d="M784 -20q-71 0 -107.5 57.5t-60.5 177.5l-41 213q-152 -172 -206 -408l-314 -40l295 1306q12 54 -3 78t-70 31.5t-160 -6.5v110q93 45 273.5 78t334.5 33l-254 -1129q72 115 155.5 217.5t172.5 183t180.5 128t169.5 47.5q28 0 46.5 -14t18.5 -39q0 -54 -30.5 -145
t-77.5 -107q-225 -74 -385 -195l86 -174q26 -53 70.5 -82t93.5 -29q65 0 174 50l8 -115q-97 -100 -197 -163.5t-172 -63.5z" />
    <glyph glyph-name="l" unicode="l" horiz-adv-x="739" 
d="M340 1253q19 79 -26.5 99.5t-204.5 3.5v110q93 45 275.5 78t338.5 33l-299 -1253q-10 -52 0 -67t41 -15q70 0 182 51l-8 -115q-87 -76 -225.5 -137t-225.5 -61t-106.5 60t16.5 202z" />
    <glyph glyph-name="m" unicode="m" horiz-adv-x="1908" 
d="M66 860q96 76 244.5 136.5t269.5 60.5q48 0 62.5 -21.5t-1.5 -83.5l-125 -411h19q55 106 112.5 194.5t121.5 163t131 116.5t128 42q101 0 144.5 -59.5t11.5 -161.5l-86 -277h18q53 104 108.5 189.5t116.5 157t125.5 111.5t124.5 40q112 0 175 -61.5t32 -159.5l-158 -512
q-14 -48 -1.5 -65t44.5 -17q54 0 166 51l-8 -115q-92 -80 -214.5 -139t-217.5 -59q-89 0 -113.5 61t15.5 201l145 493q12 51 7 62.5t-25 11.5q-46 0 -137 -132t-178.5 -319.5t-127.5 -337.5l-315 -40l215 759q9 47 4 58.5t-25 11.5q-46 0 -140 -131.5t-185 -320t-131 -337.5
l-312 -40l156 679q15 63 -24.5 88t-155.5 3z" />
    <glyph glyph-name="n" unicode="n" horiz-adv-x="1374" 
d="M66 860q97 76 244 136.5t268 60.5q49 0 63.5 -20.5t-2.5 -84.5l-131 -434h18q58 110 119 202t130.5 170t144.5 122.5t145 44.5q105 0 167 -62t32 -159l-156 -512q-14 -48 -1.5 -65t44.5 -17q54 0 166 51l-8 -115q-89 -77 -219 -137.5t-216 -60.5q-89 0 -113.5 60.5
t15.5 201.5l150 501q10 44 4.5 55t-25.5 11q-47 0 -148 -131t-200.5 -320.5t-138.5 -337.5l-312 -40l156 679q15 63 -25 88t-155 3z" />
    <glyph glyph-name="o" unicode="o" horiz-adv-x="1028" 
d="M362 -18q-148 0 -231.5 100t-83.5 264q0 116 48.5 242t129.5 230t197.5 171.5t241.5 67.5q147 0 230 -107.5t83 -275.5q0 -121 -48 -245t-128.5 -223t-196.5 -161.5t-242 -62.5zM352 627q0 -94 26.5 -197t72.5 -175.5t96 -72.5q39 0 68.5 40t42 92.5t12.5 105.5
q0 95 -27 196t-72 170.5t-92 69.5q-36 0 -62.5 -21.5t-39.5 -57.5t-19 -73t-6 -77z" />
    <glyph glyph-name="p" unicode="p" horiz-adv-x="1177" 
d="M-137 -393q81 18 121.5 59t58.5 115l209 878q15 63 -25.5 88t-154.5 3l-17 110q99 78 237.5 137.5t258.5 59.5q33 0 50.5 -8t23 -31.5t-14.5 -65.5l-98 -245h16q84 164 180.5 257t192.5 93q118 0 176 -90.5t58 -235.5q0 -153 -47 -291t-129.5 -239.5t-202.5 -161
t-258 -59.5q-29 0 -97 14l-82 -361l320 41l-25 -145l-768 -18zM461 248q56 -43 112.5 -69.5t94.5 -26.5q40 0 79.5 101t60.5 212t21 168q0 168 -59 168q-67 0 -156.5 -146.5t-152.5 -406.5z" />
    <glyph glyph-name="q" unicode="q" horiz-adv-x="1077" 
d="M268 -20q-118 0 -175.5 90t-57.5 235q0 153 47 291t129.5 239.5t202.5 161.5t258 60q60 0 181.5 -29t199.5 -61l-250 -1098q-12 -52 -0.5 -85t41.5 -44.5t73.5 -13t96.5 7.5v-111q-111 -43 -295 -77.5t-305 -34.5l192 745h-20l2 8q-152 -284 -320 -284zM340 403
q0 -167 59 -167q67 0 159 152.5t155 412.5q-54 38 -112.5 61t-98.5 23t-80 -101.5t-61 -212.5t-21 -168z" />
    <glyph glyph-name="r" unicode="r" horiz-adv-x="993" 
d="M66 860q103 81 230 139t245 58q49 0 63.5 -19.5t-2.5 -85.5l-104 -350h18q101 212 223 333.5t258 121.5q31 0 48.5 -20.5t17.5 -57.5q0 -94 -52.5 -183t-133.5 -116l-203 -68q-80 -54 -140 -186t-128 -377l-7 -29l-317 -40l180 679q16 63 -24.5 88t-155.5 3z" />
    <glyph glyph-name="s" unicode="s" horiz-adv-x="946" 
d="M-4 137q0 43 11 91t38 88t64 40q33 0 87.5 -35.5t103.5 -78t102 -78t83 -35.5q17 0 28 12.5t11 32.5q0 51 -45 119.5t-121 138.5q-204 188 -204 305q0 60 32.5 117t90.5 102.5t146 73t191 27.5q44 0 100.5 -7.5t117.5 -22.5t102 -45t41 -69q0 -27 -18.5 -75.5
t-50.5 -90.5t-62 -42q-29 0 -75.5 31.5t-88.5 68.5t-91 68.5t-81 31.5q-25 0 -38 -13t-13 -46q0 -92 157 -242q95 -93 152 -172.5t57 -148.5q0 -130 -107 -216.5t-300 -86.5q-78 0 -177 24t-171 61.5t-72 71.5z" />
    <glyph glyph-name="t" unicode="t" horiz-adv-x="890" 
d="M154 215l168 719h-197l20 102l246 66l281 270h76l-80 -336h317l-20 -102h-320l-145 -612q-19 -82 57 -82q44 0 124 35t138 83v-114q-110 -117 -243 -190.5t-246 -73.5q-111 0 -155 66.5t-21 168.5z" />
    <glyph glyph-name="u" unicode="u" horiz-adv-x="1325" 
d="M264 -20q-104 0 -166 61.5t-24 144.5q110 233 184 527q10 40 -2 61t-41 21q-52 0 -166 -52l8 115q89 77 219 138t216 61q169 0 112 -219q-62 -244 -176 -557q-13 -39 29 -39q61 0 157.5 129t182.5 310t127 335l313 41l-178 -733q-11 -49 0.5 -65.5t42.5 -16.5
q30 0 88 14.5t106 36.5l-8 -115q-89 -77 -218 -137.5t-214 -60.5q-90 0 -114.5 61t16.5 201l78 254h-19q-54 -102 -119.5 -193t-137 -164t-149 -116t-147.5 -43z" />
    <glyph glyph-name="v" unicode="v" horiz-adv-x="1128" 
d="M27 862q70 68 176.5 131.5t173.5 63.5q118 0 174.5 -154t83.5 -520q45 58 76.5 109t64.5 124.5t51 166t19 200.5q1 33 23.5 53.5t56.5 20.5q37 0 92 -16.5t98.5 -43t42.5 -51.5q-5 -75 -61 -178.5t-132.5 -202.5t-184 -215t-192 -199t-179.5 -171h-37q-14 215 -29.5 363
t-31.5 238t-37 139t-42 65t-51 16q-58 0 -145 -53z" />
    <glyph glyph-name="w" unicode="w" horiz-adv-x="1605" 
d="M27 862q66 68 174.5 131.5t175.5 63.5t121 -89t87 -238.5t46 -342.5q51 55 82.5 101.5t52 104t18.5 123t-26 144.5q-15 54 45 125.5t129 71.5q35 0 53.5 -17t40.5 -71q52 -132 81 -300t13 -335q83 133 137 294t60 322q0 107 80 107q50 0 104.5 -16.5t91 -42.5t35.5 -52
q-3 -109 -54.5 -228t-126 -219.5t-175 -203.5t-186.5 -175t-177 -140h-37q11 194 -20 473q-156 -185 -453 -473h-34q-16 268 -33 432.5t-40.5 249.5t-47.5 112t-62 27q-58 0 -145 -53z" />
    <glyph glyph-name="x" unicode="x" horiz-adv-x="1148" 
d="M709 -20q-68 0 -120 44.5t-73 129.5l-55 211l-123 -267q-51 -118 -240 -118q-82 0 -126 40t12 89l450 358l-57 223q-12 52 -40.5 81.5t-66.5 29.5q-25 0 -82 -21t-108 -53l-8 115q65 78 169 138t189 60q69 0 123 -44.5t76 -129.5l63 -252l139 324q50 119 244 119
q82 0 125.5 -36.5t-8.5 -86.5l-475 -408l49 -196q29 -111 102 -111q27 0 83 20.5t108 53.5l8 -115q-65 -78 -169 -138t-189 -60z" />
    <glyph glyph-name="y" unicode="y" horiz-adv-x="1165" 
d="M-215 -330q23 -2 74 -2q77 0 148 11t139.5 34.5t123.5 67t86 102.5q64 119 64 307q0 103 -23 215t-57.5 198t-77.5 142t-82 56q-68 0 -143 -53l-10 114q73 68 184 131.5t182 63.5q82 0 148 -91.5t100.5 -238t34.5 -315.5q0 -43 -8 -187q83 152 144 351t69 407
q0 33 23 53.5t57 20.5q36 0 90.5 -16.5t98 -43t42.5 -51.5q-5 -103 -80.5 -258t-213 -350.5t-292 -391t-358.5 -435.5q-106 0 -237 17t-226 46v96z" />
    <glyph glyph-name="z" unicode="z" horiz-adv-x="989" 
d="M618 -207q-64 0 -123.5 25t-104.5 61t-87 72t-88 61t-90 25q-20 0 -58.5 -18.5t-60.5 -38.5l-104 40l764 762h-138q-132 0 -209.5 -35.5t-168.5 -152.5h-80l170 483q64 -41 303 -41h415l39 -71l-702 -707q40 -12 84 -41t75.5 -56t76.5 -48t92 -21q45 0 73 8t55 33
t49 70.5t48 122.5h80q-2 -139 -41 -260t-110.5 -197t-158.5 -76z" />
    <glyph glyph-name="braceleft" unicode="{" horiz-adv-x="868" 
d="M127 674q105 6 142.5 48t37.5 134q0 42 -13 145.5t-13 161.5q0 75 21.5 135.5t58.5 103t91.5 74.5t113.5 51t133 30.5t141.5 15.5t146.5 4l-49 -137l-131 4q-41 2 -74 -4.5t-54 -17t-36 -29.5t-23 -35.5t-12 -41.5t-5 -41.5t-1 -41.5q0 -51 15.5 -154t15.5 -153
q0 -131 -77 -220.5t-185 -89.5q62 0 113 -38.5t51 -122.5q0 -66 -35.5 -147.5t-77.5 -146.5t-77.5 -144.5t-35.5 -141.5q0 -55 34.5 -72.5t113.5 -15.5l131 4l-10 -137q-271 0 -421.5 63.5t-150.5 196.5q0 60 23.5 120.5t57 112t66.5 102t56.5 110t23.5 116.5q0 78 -129 84
l11 57z" />
    <glyph glyph-name="bar" unicode="|" horiz-adv-x="497" 
d="M-6 -342l418 1970h155l-417 -1970h-156z" />
    <glyph glyph-name="braceright" unicode="}" horiz-adv-x="866" 
d="M788 557q-105 -6 -142.5 -48t-37.5 -134q0 -42 13.5 -145.5t13.5 -161.5q0 -87 -28 -155t-80.5 -112t-116.5 -74t-148.5 -45.5t-162.5 -21.5t-171 -6l49 137l132 -4q41 -2 73.5 4.5t54 17t36.5 29.5t22.5 35.5t11.5 41.5t5 41.5t1 41.5q0 51 -15 154t-15 153
q0 131 77 220t185 89q-62 0 -113 39t-51 123q0 54 23 117t56 120t66.5 114t56.5 117.5t23 111.5q0 55 -34 72.5t-113 15.5l-131 -4l10 137q271 0 421 -63.5t150 -196.5q0 -60 -23.5 -120.5t-56.5 -112t-66.5 -102t-57 -110t-23.5 -116.5q0 -78 129 -84l-10 -58z" />
    <glyph glyph-name="asciitilde" unicode="~" horiz-adv-x="997" 
d="M37 354q69 124 165.5 201.5t168.5 77.5q54 0 101 -19t74.5 -41.5t65 -41.5t76.5 -19q48 0 90 32.5t111 117.5l65 -11q-74 -130 -161.5 -203t-171.5 -73q-55 0 -102 19t-74 41.5t-65 41.5t-77 19q-48 0 -91 -33.5t-110 -118.5z" />
    <glyph glyph-name="exclamdown" unicode="&#xa1;" horiz-adv-x="634" 
d="M379 530q-15 -71 -25.5 -150.5t-16.5 -181.5t-8.5 -160t-5.5 -185.5t-4 -159.5q0 -100 -72.5 -162.5t-168.5 -62.5q-68 0 -109 39t-37 108q8 76 73.5 250t140 368t96.5 297h137zM184 823q0 96 71 166t163 70q70 0 113.5 -42.5t43.5 -109.5q0 -94 -71.5 -162.5
t-165.5 -68.5q-69 0 -111.5 41t-42.5 106z" />
    <glyph glyph-name="cent" unicode="&#xa2;" horiz-adv-x="950" 
d="M412 -20q-64 0 -74 38t29 115l30 64q-136 23 -216.5 124t-80.5 248q0 105 41.5 216t112.5 206t173.5 167t215.5 97l-2 66q-3 78 25 116t92 38q116 0 39 -154l-25 -53q89 -4 180.5 -28t91.5 -60q0 -67 -41 -137t-81 -70q-15 0 -59 27.5t-100.5 55t-100.5 27.5
q-54 0 -101.5 -44t-78 -110t-47.5 -140t-17 -138q0 -100 41.5 -155.5t120.5 -55.5q138 0 307 172l24 -114q-66 -126 -169.5 -207t-217.5 -96v-62q2 -78 -25 -115.5t-87 -37.5z" />
    <glyph glyph-name="sterling" unicode="&#xa3;" horiz-adv-x="1361" 
d="M-18 115h22q49 1 90.5 10.5t72.5 25t55.5 40t40.5 49t28 57.5t18.5 62t10.5 65t5 63.5t1 61.5v47h-181l29 135h139q-10 142 -10 172q0 130 51 239t138.5 181t204.5 112t249 40q78 0 186 -26.5t197 -70.5l-65 -422h-84q-60 390 -295 390q-73 0 -129.5 -32.5t-87.5 -85.5
t-46.5 -112t-15.5 -121q0 -31 3.5 -68.5t7 -61t11.5 -70.5t11 -64h418l-39 -135h-363q2 -12 2 -37q0 -293 -254 -428q186 17 320 53q360 89 489 316h84q-26 -124 -71 -216.5t-96 -145.5t-116.5 -85t-122.5 -42.5t-124 -10.5h-829z" />
    <glyph glyph-name="currency" unicode="&#xa4;" horiz-adv-x="1189" 
d="M518 188q-165 0 -250 125l-194 -159l-78 94l221 182q-14 52 -14 123q0 104 39 218t108 212l-155 197l114 96l140 -176q171 164 370 164q156 0 242 -123l166 135l73 -96l-186 -154q19 -68 19 -145q0 -117 -44 -236t-122 -219l135 -176l-115 -96l-127 163
q-158 -129 -342 -129zM508 834q0 -94 26 -197t72 -175.5t96 -72.5q39 0 68.5 40t42 92.5t12.5 105.5q0 95 -26.5 196t-71.5 170.5t-92 69.5q-36 0 -62.5 -21.5t-39.5 -57.5t-19 -73t-6 -77z" />
    <glyph glyph-name="yen" unicode="&#xa5;" horiz-adv-x="1574" 
d="M348 0l41 98l51 19q121 46 154 137h-313l30 135h316l26 115h-319l28 135h302l-277 696l-178 -18l51 137h737l-39 -98l-104 -19q-70 -12 -87 -42t9 -91l185 -461l481 592l-217 -18l49 137h524l-41 -98l-88 -17q-45 -8 -83 -35t-91 -92l-469 -573h301l-29 -135h-319
l-25 -115h322l-31 -135h-321l-29 -135l235 18l-49 -137h-733z" />
    <glyph glyph-name="brokenbar" unicode="&#xa6;" horiz-adv-x="497" 
d="M268 956l144 672h155l-143 -672h-156zM-6 -342l141 672h156l-141 -672h-156z" />
    <glyph glyph-name="section" unicode="&#xa7;" horiz-adv-x="1091" 
d="M266 -362q-83 0 -189 19.5t-188 47.5l60 410h84q82 -373 317 -373q94 0 157.5 73.5t63.5 164.5q0 32 -10 67t-23 63t-41.5 72t-48 71.5t-61.5 84t-65 88.5q-158 223 -158 408q0 235 246 395q50 114 171.5 180t268.5 66q82 0 188 -19.5t191 -48.5l-62 -410h-84
q-82 373 -315 373q-94 0 -157.5 -73t-63.5 -164q0 -32 10 -67t22.5 -63t41.5 -73t47.5 -71t62 -85t64.5 -88q159 -220 159 -407q0 -236 -247 -396q-50 -112 -172 -178.5t-269 -66.5zM299 918q0 -162 152 -377q20 -28 64 -88t62 -85.5t50 -73t46 -75.5t31 -66.5t23 -72
t6 -68.5q0 -27 -2 -39q88 103 88 222q0 159 -153 376q-21 29 -64 88t-62 85.5t-50.5 73t-46 75t-31 67t-23 72t-6.5 68.5q0 25 2 35q-86 -97 -86 -217z" />
    <glyph glyph-name="dieresis" unicode="&#xa8;" horiz-adv-x="847" 
d="M791 1221q-55 0 -89 33t-34 83q0 70 58.5 124.5t129.5 54.5q51 0 83 -32.5t32 -82.5q0 -70 -56 -125t-124 -55zM283 1337q0 70 58.5 124.5t129.5 54.5q51 0 83 -32.5t32 -82.5q0 -70 -56 -125t-124 -55q-55 0 -89 33t-34 83z" />
    <glyph glyph-name="copyright" unicode="&#xa9;" horiz-adv-x="1660" 
d="M725 -20q-143 0 -261 44t-197.5 121.5t-123 184.5t-43.5 233q0 116 34 230.5t95 214.5t148.5 186.5t190.5 148.5t225.5 97t248.5 35q285 0 454 -163.5t169 -418.5q0 -116 -34 -230.5t-94.5 -215t-147.5 -187t-189.5 -148.5t-225 -97t-249.5 -35zM260 590
q0 -216 138.5 -359t346.5 -143q92 0 186 29.5t177 81.5t156.5 125.5t126.5 158t83.5 183t30.5 196.5q0 218 -138.5 361t-348.5 143q-137 0 -275.5 -65.5t-244 -171.5t-172 -249.5t-66.5 -289.5zM426 625q0 94 48.5 191.5t128.5 175t193 126.5t232 49q80 0 165.5 -17.5
t127.5 -43.5l-37 -227h-88q-23 91 -69 151t-103 60q-65 0 -123.5 -51.5t-95 -127t-57.5 -156t-21 -145.5q0 -108 42 -176.5t112 -68.5q30 0 60.5 13t53.5 29t55.5 51t51.5 58.5t57 71.5h88l-125 -254q-54 -20 -137 -33.5t-151 -13.5q-179 0 -293.5 96t-114.5 242z" />
    <glyph glyph-name="ordfeminine" unicode="&#xaa;" horiz-adv-x="991" 
d="M369 625q-88 0 -145.5 67.5t-57.5 169.5q0 121 45.5 235t120 197.5t177 134t210.5 50.5q53 0 143 -72l150 154h86l-162 -658q-11 -26 -6 -46.5t35 -20.5q45 0 133 43l-6 -97q-68 -60 -179.5 -108.5t-181.5 -48.5q-42 0 -61.5 26t-10.5 76l27 168h-18
q-67 -126 -145.5 -198t-153.5 -72zM465 911q0 -49 29 -49q54 0 128 104t123 298q-28 32 -62.5 53.5t-59.5 21.5q-37 0 -75.5 -89.5t-60.5 -189t-22 -149.5z" />
    <glyph glyph-name="guillemotleft" unicode="&#xab;" horiz-adv-x="1120" 
d="M811 502l147 -355h-88l-350 336l4 19l2 18l494 336h88zM39 483l2 19l4 18l535 393h88l-324 -411l150 -412h-88z" />
    <glyph glyph-name="logicalnot" unicode="&#xac;" horiz-adv-x="897" 
d="M106 553l29 135h696l-8 -43l-75 -358h-146l55 266h-551z" />
    <glyph glyph-name="uni00AD" unicode="&#xad;" horiz-adv-x="843" 
d="M88 401l49 234h619l-49 -234h-619z" />
    <glyph glyph-name="registered" unicode="&#xae;" horiz-adv-x="1005" 
d="M588 799q-157 0 -254.5 96.5t-97.5 245.5q0 99 44.5 196t118 170.5t172.5 118.5t203 45q157 0 254.5 -97.5t97.5 -248.5q0 -100 -45 -197t-119 -169t-173 -116t-201 -44zM330 1161q0 -117 77.5 -192.5t200.5 -75.5q107 0 205 58t157.5 155t59.5 203q0 117 -77 192.5
t-203 75.5q-107 0 -204.5 -58.5t-156.5 -155.5t-59 -202zM377 1024l26 66h19q16 0 23 7.5t10 26.5l55 265h-49l24 65h299q78 0 122 -27.5t44 -74.5q0 -49 -40 -90t-103 -56l45 -80q13 -24 25 -38t36 -31l-30 -33q-140 0 -162 53l-57 121h-29l-23 -108h50l-27 -66h-258z
M647 1262h58q33 0 56 21.5t23 59.5q0 22 -15.5 34t-41.5 12h-53z" />
    <glyph glyph-name="macron" unicode="&#xaf;" horiz-adv-x="722" 
d="M203 1223q7 31 44 80t62 49h596q-7 -38 -39.5 -83.5t-66.5 -45.5h-596z" />
    <glyph glyph-name="degree" unicode="&#xb0;" horiz-adv-x="536" 
d="M399 1004q-86 0 -139 52t-53 134q0 112 90.5 198.5t202.5 86.5q84 0 137 -53.5t53 -133.5q0 -113 -90.5 -198.5t-200.5 -85.5zM330 1212q0 -39 26 -65.5t68 -26.5q56 0 99.5 44t43.5 102q0 40 -25.5 66t-66.5 26q-57 0 -101 -44t-44 -102z" />
    <glyph glyph-name="plusminus" unicode="&#xb1;" horiz-adv-x="999" 
d="M354 209l68 317h-313l28 136h314l67 317h146l-68 -317h311l-28 -136h-312l-67 -317h-146zM-4 0l31 135h770l-31 -135h-770z" />
    <glyph glyph-name="uni00B2" unicode="&#xb2;" horiz-adv-x="929" 
d="M154 928q74 44 124.5 74.5t113.5 71.5t104.5 72t85 69t68.5 70.5t41 68t16 69.5q0 45 -26.5 74t-84.5 29q-112 0 -277 -121l-43 61q98 100 226 170t252 70q109 0 170 -56t61 -145q0 -63 -26.5 -120t-68.5 -100t-105 -83.5t-124.5 -69.5t-138.5 -59h172q82 0 137 34.5
t119 117.5h68l-127 -387q-57 26 -118 33.5t-167 7.5h-424z" />
    <glyph glyph-name="uni00B3" unicode="&#xb3;" horiz-adv-x="872" 
d="M496 856q-175 0 -310 55l66 277h67q15 -130 62.5 -187t136.5 -57q80 0 123 46t43 106q0 110 -215 110l-6 58q8 3 34.5 11.5t41 13.5t41 16t42.5 20.5t36.5 24t31.5 29t19 34t8 41.5q0 39 -29 58.5t-76 19.5q-45 0 -90 -18t-76 -39t-90 -66l-45 61q227 234 445 234
q103 0 174 -40.5t71 -111.5q0 -55 -22.5 -96t-72 -70t-84 -42.5t-100.5 -34.5q-7 -2 -10 -3t-8.5 -3t-9.5 -3q275 -21 275 -161q0 -66 -44 -121.5t-114.5 -89.5t-152.5 -53t-162 -19z" />
    <glyph glyph-name="acute" unicode="&#xb4;" horiz-adv-x="636" 
d="M186 1153q74 101 162 207t177 192t124 86q45 0 64 -48t10 -101q-8 -35 -31 -66t-62.5 -58.5t-63.5 -41t-70 -37.5l-291 -156z" />
    <glyph glyph-name="uni00B5" unicode="&#xb5;" horiz-adv-x="1380" 
d="M266 -20q-17 0 -53 4q6 -171 96 -353l-309 -123q-35 116 -3 353t91 356h2q98 214 170 496q10 40 -2 61t-41 21q-52 0 -166 -52l8 115q89 77 219 138t216 61q169 0 112 -219q-62 -244 -176 -557q-13 -39 29 -39q61 0 157.5 129t182.5 310t127 335l313 41l-178 -733
q-11 -49 0.5 -65.5t42.5 -16.5q30 0 88 14.5t106 36.5l-8 -115q-89 -77 -218 -137.5t-214 -60.5q-90 0 -114.5 61t16.5 201l78 254h-19q-54 -102 -119.5 -193t-137 -164t-149 -116t-147.5 -43z" />
    <glyph glyph-name="paragraph" unicode="&#xb6;" horiz-adv-x="1202" 
d="M522 557q-150 0 -248 93.5t-98 248.5q0 114 50.5 218.5t131.5 177t185.5 116t210.5 43.5h630l-43 -98l-73 -19q-104 -24 -127 -141l-223 -1051q-50 -233 -157 -348.5t-304 -138.5l-4 49q53 26 94.5 55.5t73 67t54.5 76t42.5 94t33.5 109t31 131.5l232 1095h-103
l-163 -778h-226z" />
    <glyph glyph-name="periodcentered" unicode="&#xb7;" horiz-adv-x="550" 
d="M242 346q-64 0 -103 38t-39 99q0 85 64.5 147t148.5 62q61 0 99.5 -37t38.5 -96q0 -87 -63 -150t-146 -63z" />
    <glyph glyph-name="cedilla" unicode="&#xb8;" horiz-adv-x="415" 
d="M-188 -561q127 110 127 199q0 37 -22 63.5t-73 65.5l217 284h66l-68 -155q113 -70 113 -150q0 -96 -109 -192.5t-233 -137.5z" />
    <glyph glyph-name="uni00B9" unicode="&#xb9;" horiz-adv-x="845" 
d="M158 877l39 98l63 10q91 14 137 50.5t64 121.5l67 309l-243 -34l18 88q109 13 272 71.5t273 112.5l26 -21q-47 -106 -76 -203.5t-69 -285.5l-43 -199l219 11l-47 -129h-700z" />
    <glyph glyph-name="ordmasculine" unicode="&#xba;" horiz-adv-x="1034" 
d="M535 625q-151 0 -246.5 88t-95.5 229q0 103 44.5 200.5t120 170t182.5 116.5t226 44q151 0 246.5 -88.5t95.5 -227.5q0 -103 -44.5 -200.5t-120.5 -170.5t-183 -117t-225 -44zM494 956q0 -108 33 -169.5t91 -61.5q49 0 87.5 48t59.5 118t31.5 136t10.5 116q0 107 -34 168
t-93 61q-48 0 -86.5 -47.5t-58.5 -117.5t-30.5 -135.5t-10.5 -115.5z" />
    <glyph glyph-name="guillemotright" unicode="&#xbb;" horiz-adv-x="1120" 
d="M301 502l-147 354h88l350 -336l-4 -18l-2 -19l-494 -336h-88zM444 90l324 412l-150 411h89l366 -393l-2 -18l-4 -19l-535 -393h-88z" />
    <glyph glyph-name="onequarter" unicode="&#xbc;" horiz-adv-x="1789" 
d="M104 664l39 98l64 10q91 14 137 50.5t64 121.5l67 309l-244 -34l19 88q109 13 272 71.5t273 112.5l26 -21q-47 -106 -76 -203.5t-69 -285.5l-43 -199l219 11l-47 -129h-701zM504 4l1104 1475l92 -41l-1102 -1475zM905 197l713 630l41 -12l-105 -493h127l-57 -170h-104
l-33 -152h-219l32 152h-391zM1169 322h166l39 184z" />
    <glyph glyph-name="onehalf" unicode="&#xbd;" horiz-adv-x="1957" 
d="M104 664l39 98l64 10q91 14 137 50.5t64 121.5l67 309l-244 -34l19 88q109 13 272 71.5t273 112.5l26 -21q-47 -106 -76 -203.5t-69 -285.5l-43 -199l219 11l-47 -129h-701zM418 0l1104 1475l92 -41l-1102 -1475zM989 49q87 51 145 87t128.5 82.5t115 84.5t85.5 80
t60 82.5t19 79.5q0 45 -26 73.5t-84 28.5q-112 0 -277 -121l-43 62q98 99 225.5 169t251.5 70q110 0 171 -55.5t61 -144.5q0 -63 -26.5 -120t-68.5 -100t-105 -83.5t-124.5 -69.5t-138.5 -59h172q83 0 138 34.5t118 116.5h67l-127 -387q-57 26 -117.5 33.5t-166.5 7.5h-424z
" />
    <glyph glyph-name="threequarters" unicode="&#xbe;" horiz-adv-x="1853" 
d="M442 643q-174 0 -309 55l66 277h67q15 -130 62.5 -187t136.5 -57q80 0 123 46t43 106q0 110 -215 110l-6 58q8 3 34.5 11.5t41 13.5t41 16t42.5 20.5t36.5 24t31.5 29t19 34t8 41.5q0 39 -29 58.5t-76 19.5q-45 0 -90 -18t-76 -39t-90 -66l-45 61q227 234 444 234
q103 0 174.5 -40.5t71.5 -111.5q0 -55 -22.5 -96t-72 -70t-84 -42.5t-100.5 -34.5q-7 -2 -10 -3t-8.5 -3t-9.5 -3q274 -21 274 -161q0 -66 -44 -121.5t-114.5 -89.5t-152.5 -53t-162 -19zM518 0l1104 1475l92 -41l-1102 -1475zM977 197l713 630l41 -12l-105 -493h127
l-57 -170h-105l-32 -152h-220l33 152h-391zM1241 322h166l39 184z" />
    <glyph glyph-name="questiondown" unicode="&#xbf;" horiz-adv-x="890" 
d="M602 553q5 -12 18 -41.5t19.5 -46.5t15.5 -43.5t13 -51.5t4 -51q0 -62 -40 -119t-100 -97.5t-130.5 -80t-130.5 -67.5t-100 -57.5t-40 -53.5q0 -13 9 -24.5t29 -20.5t40.5 -16.5t56 -15.5t62 -13t71.5 -14t72 -14q32 -5 52 -67t18 -114q0 -96 -119 -96q-120 0 -226 53
t-173.5 154t-67.5 227q0 72 29 130t75 95.5t102 69t112 59.5t102 57t75 70.5t29 92.5q0 45 -14 96h137zM360 805q0 95 71 165t163 70q70 0 114 -42.5t44 -108.5q0 -94 -72 -163t-166 -69q-69 0 -111.5 41.5t-42.5 106.5z" />
    <glyph glyph-name="Agrave" unicode="&#xc0;" horiz-adv-x="1683" 
d="M823 0l41 98l72 19q64 17 88.5 48.5t24.5 90.5l-2 141h-566l-237 -278l217 18l-49 -137h-531l41 98l103 19q15 3 29 8.5t24.5 10.5t25 17t21.5 18t23 23t21 23t24 28.5t24 28.5l805 945q-50 133 -252 194l16 41h562l18 -1335l213 18l-51 -137h-705zM582 516h465l-9 537z
M874 1886q9 46 43 82.5t70 36.5q27 0 83.5 -79t104.5 -165.5t80 -154.5l-24 -23l-213 100q-76 35 -100 55q-63 53 -44 148z" />
    <glyph glyph-name="Aacute" unicode="&#xc1;" horiz-adv-x="1683" 
d="M823 0l41 98l72 19q64 17 88.5 48.5t24.5 90.5l-2 141h-566l-237 -278l217 18l-49 -137h-531l41 98l103 19q15 3 29 8.5t24.5 10.5t25 17t21.5 18t23 23t21 23t24 28.5t24 28.5l805 945q-50 133 -252 194l16 41h562l18 -1335l213 18l-51 -137h-705zM582 516h465l-9 537z
M934 1606q368 401 434 401q35 0 54 -35.5t10 -81.5q-10 -46 -32.5 -80.5t-56 -56.5t-62 -35.5t-66.5 -28.5l-9 -3l-256 -103z" />
    <glyph glyph-name="Acircumflex" unicode="&#xc2;" horiz-adv-x="1683" 
d="M823 0l41 98l72 19q64 17 88.5 48.5t24.5 90.5l-2 141h-566l-237 -278l217 18l-49 -137h-531l41 98l103 19q15 3 29 8.5t24.5 10.5t25 17t21.5 18t23 23t21 23t24 28.5t24 28.5l805 945q-50 133 -252 194l16 41h562l18 -1335l213 18l-51 -137h-705zM582 516h465l-9 537z
M803 1606q114 137 243 268t162 131t101 -128t125 -271l-29 -23l-248 195l-338 -195z" />
    <glyph glyph-name="Atilde" unicode="&#xc3;" horiz-adv-x="1683" 
d="M823 0l41 98l72 19q64 17 88.5 48.5t24.5 90.5l-2 141h-566l-237 -278l217 18l-49 -137h-531l41 98l103 19q15 3 29 8.5t24.5 10.5t25 17t21.5 18t23 23t21 23t24 28.5t24 28.5l805 945q-50 133 -252 194l16 41h562l18 -1335l213 18l-51 -137h-705zM582 516h465l-9 537z
M799 1675q63 113 152.5 204t152.5 91q36 0 145 -63.5t137 -63.5q96 0 193 123l16 -20q-55 -116 -145.5 -207.5t-153.5 -91.5q-32 0 -80.5 28.5t-102.5 57t-99 28.5q-22 0 -60.5 -19.5t-64 -36t-74.5 -50.5z" />
    <glyph glyph-name="Adieresis" unicode="&#xc4;" horiz-adv-x="1683" 
d="M823 0l41 98l72 19q64 17 88.5 48.5t24.5 90.5l-2 141h-566l-237 -278l217 18l-49 -137h-531l41 98l103 19q15 3 29 8.5t24.5 10.5t25 17t21.5 18t23 23t21 23t24 28.5t24 28.5l805 945q-50 133 -252 194l16 41h562l18 -1335l213 18l-51 -137h-705zM582 516h465l-9 537z
M834 1749q0 62 52.5 111t117.5 49q44 0 73 -30t29 -73q0 -64 -50.5 -114t-111.5 -50q-50 0 -80 30.5t-30 76.5zM1180 1749q0 62 52.5 111t117.5 49q45 0 73.5 -29.5t28.5 -73.5q0 -64 -50 -114t-112 -50q-49 0 -79.5 31t-30.5 76z" />
    <glyph glyph-name="Aring" unicode="&#xc5;" horiz-adv-x="1683" 
d="M823 0l41 98l72 19q64 17 88.5 48.5t24.5 90.5l-2 141h-566l-237 -278l217 18l-49 -137h-531l41 98l103 19q15 3 29 8.5t24.5 10.5t25 17t21.5 18t23 23t21 23t24 28.5t24 28.5l805 945q-50 133 -252 194l16 41h562l18 -1335l213 18l-51 -137h-705zM582 516h465l-9 537z
M893 1722q0 96 87 153.5t208 57.5q102 0 158.5 -37t56.5 -102q0 -91 -81.5 -150t-211.5 -59q-102 0 -159.5 37t-57.5 100zM1079 1704q0 -62 43 -62q25 0 44.5 20t30.5 49.5t16.5 58t5.5 49.5q0 57 -43 57q-32 0 -55.5 -34.5t-32.5 -72t-9 -65.5z" />
    <glyph glyph-name="AE" unicode="&#xc6;" horiz-adv-x="2260" 
d="M-119 0l41 98l103 19q15 3 29 8.5t24.5 10.5t25 17t21.5 18t23 23t21 23t24 28.5t24 28.5l787 947q92 110 -66 159q-65 21 -174 33l18 41h1168q137 0 286 57l-36 -520h-84q-38 175 -100 259.5t-181 84.5h-274l-121 -565h155q84 0 142 50t110 181h84l-121 -569h-84
q1 130 -35.5 178.5t-119.5 48.5h-156l-115 -540h347q215 0 448 401h84l-221 -577q-114 57 -264 57h-932l41 98l65 17q117 31 136 131l88 413h-400l-448 -540l225 18l-49 -137h-539zM784 770h330l115 535z" />
    <glyph glyph-name="Ccedilla" unicode="&#xc7;" horiz-adv-x="1538" 
d="M780 -20h-10l-29 -68q113 -70 113 -150q0 -96 -109 -192t-233 -137l-18 22q127 110 127 199q0 37 -22 63.5t-73 65.5l154 201q-266 26 -423 178.5t-157 390.5q0 184 80 354.5t214.5 294.5t319 198.5t384.5 74.5q260 0 487 -107l-67 -418h-84q-35 201 -127.5 298.5
t-272.5 97.5q-96 0 -180.5 -36t-146 -97.5t-109.5 -141t-77.5 -170t-44.5 -181t-15 -177.5q0 -207 93 -320.5t265 -113.5q115 0 208 44t172 127t177 228h84l-180 -463q-225 -65 -500 -65z" />
    <glyph glyph-name="Egrave" unicode="&#xc8;" horiz-adv-x="1474" 
d="M-23 0l41 98l66 17q113 30 135 131l232 1089l-201 -18l51 137h864q138 0 287 57l-37 -520h-84q-40 177 -101 260.5t-179 83.5h-275l-114 -532h149q83 0 140.5 50t109.5 181h84l-121 -569h-84q3 130 -33.5 178.5t-120.5 48.5h-147l-123 -573h346q218 0 447 401h84
l-219 -577q-114 57 -265 57h-932zM745 1884q9 46 43 82.5t70 36.5q27 0 83.5 -79t104.5 -165.5t80 -154.5l-24 -23l-213 100q-76 35 -100 55q-63 53 -44 148z" />
    <glyph glyph-name="Eacute" unicode="&#xc9;" horiz-adv-x="1474" 
d="M-23 0l41 98l66 17q113 30 135 131l232 1089l-201 -18l51 137h864q138 0 287 57l-37 -520h-84q-40 177 -101 260.5t-179 83.5h-275l-114 -532h149q83 0 140.5 50t109.5 181h84l-121 -569h-84q3 130 -33.5 178.5t-120.5 48.5h-147l-123 -573h346q218 0 447 401h84
l-219 -577q-114 57 -265 57h-932zM805 1604q368 401 434 401q35 0 54 -35.5t10 -81.5q-6 -28 -18 -52t-23.5 -41t-33.5 -33.5t-34.5 -25.5t-40 -21.5t-37.5 -16.5t-39 -15l-256 -102z" />
    <glyph glyph-name="Ecircumflex" unicode="&#xca;" horiz-adv-x="1474" 
d="M-23 0l41 98l66 17q113 30 135 131l232 1089l-201 -18l51 137h864q138 0 287 57l-37 -520h-84q-40 177 -101 260.5t-179 83.5h-275l-114 -532h149q83 0 140.5 50t109.5 181h84l-121 -569h-84q3 130 -33.5 178.5t-120.5 48.5h-147l-123 -573h346q218 0 447 401h84
l-219 -577q-114 57 -265 57h-932zM674 1604q114 137 243 268t162 131t101 -128t125 -271l-29 -23l-248 195l-338 -195z" />
    <glyph glyph-name="Edieresis" unicode="&#xcb;" horiz-adv-x="1474" 
d="M-23 0l41 98l66 17q113 30 135 131l232 1089l-201 -18l51 137h864q138 0 287 57l-37 -520h-84q-40 177 -101 260.5t-179 83.5h-275l-114 -532h149q83 0 140.5 50t109.5 181h84l-121 -569h-84q3 130 -33.5 178.5t-120.5 48.5h-147l-123 -573h346q218 0 447 401h84
l-219 -577q-114 57 -265 57h-932zM705 1747q0 63 52 111.5t117 48.5q44 0 73.5 -29.5t29.5 -73.5q0 -64 -50.5 -113t-111.5 -49q-50 0 -80 30t-30 75zM1051 1747q0 62 52.5 111t117.5 49q45 0 73.5 -29t28.5 -74q0 -64 -50 -113t-112 -49q-49 0 -79.5 30t-30.5 75z" />
    <glyph glyph-name="Igrave" unicode="&#xcc;" horiz-adv-x="880" 
d="M-12 0l41 98l65 17q61 17 92.5 50.5t42.5 86.5l232 1083l-201 -18l51 137h676l-39 -98l-69 -19q-98 -26 -121 -137l-232 -1081l199 18l-49 -137h-688zM442 1884q9 46 43 82.5t70 36.5q27 0 83.5 -79t104.5 -165.5t80 -154.5l-24 -23l-213 100q-76 35 -100 55
q-63 53 -44 148z" />
    <glyph glyph-name="Iacute" unicode="&#xcd;" horiz-adv-x="880" 
d="M-12 0l41 98l65 17q61 17 92.5 50.5t42.5 86.5l232 1083l-201 -18l51 137h676l-39 -98l-69 -19q-98 -26 -121 -137l-232 -1081l199 18l-49 -137h-688zM502 1604q368 401 434 401q35 0 53.5 -35.5t9.5 -81.5q-8 -38 -27.5 -69.5t-38 -50t-53 -37.5t-51.5 -26t-55 -22
l-256 -102z" />
    <glyph glyph-name="Icircumflex" unicode="&#xce;" horiz-adv-x="880" 
d="M-12 0l41 98l65 17q61 17 92.5 50.5t42.5 86.5l232 1083l-201 -18l51 137h676l-39 -98l-69 -19q-98 -26 -121 -137l-232 -1081l199 18l-49 -137h-688zM371 1604q114 137 243 268t162 131t100 -127.5t125 -271.5l-28 -23l-248 195l-338 -195z" />
    <glyph glyph-name="Idieresis" unicode="&#xcf;" horiz-adv-x="880" 
d="M-12 0l41 98l65 17q61 17 92.5 50.5t42.5 86.5l232 1083l-201 -18l51 137h676l-39 -98l-69 -19q-98 -26 -121 -137l-232 -1081l199 18l-49 -137h-688zM401 1747q0 62 52.5 111t117.5 49q45 0 74 -29t29 -74q0 -64 -50 -113t-112 -49q-49 0 -80 30t-31 75zM748 1747
q0 62 53 111t117 49q45 0 73.5 -29t28.5 -74q0 -64 -50 -113t-112 -49q-49 0 -79.5 30t-30.5 75z" />
    <glyph glyph-name="Eth" unicode="&#xd0;" horiz-adv-x="1728" 
d="M125 688l18 98h193l117 549l-203 -18l51 137h731q160 0 293.5 -42.5t223 -116.5t139 -175.5t49.5 -218.5q0 -113 -34.5 -225t-96.5 -211.5t-153.5 -185t-200 -147.5t-241 -97t-272.5 -35h-762l43 98l64 17q54 14 91.5 50t47.5 87l92 436h-190zM518 119h246
q109 0 207 45.5t170.5 123t125.5 178t80 213.5t27 226q0 199 -112.5 314.5t-331.5 115.5h-152l-116 -549h245l-20 -98h-248z" />
    <glyph glyph-name="Ntilde" unicode="&#xd1;" horiz-adv-x="1679" 
d="M-39 0l41 98l107 11q57 5 87 29.5t42 78.5l213 1004q-85 107 -228 192l17 41h489l621 -971l182 852l-275 -18l52 137h604l-41 -98l-103 -10q-112 -12 -137 -132l-239 -1136l-150 -98l-696 1093l-203 -954l270 18l-49 -137h-604zM803 1673q63 113 152.5 204t152.5 91
q36 0 145.5 -63.5t137.5 -63.5q95 0 192 123l16 -20q-55 -116 -145.5 -207.5t-153.5 -91.5q-32 0 -80.5 28.5t-102.5 57t-99 28.5q-22 0 -60.5 -19.5t-64 -36t-74.5 -50.5z" />
    <glyph glyph-name="Ograve" unicode="&#xd2;" horiz-adv-x="1736" 
d="M766 -20q-145 0 -269 46.5t-210 127.5t-134.5 191.5t-48.5 236.5q0 169 79 332.5t210 286.5t312 198.5t374 75.5q143 0 266.5 -47t209 -127.5t134 -191.5t48.5 -237q0 -173 -78.5 -337t-209 -285.5t-310.5 -195.5t-373 -74zM473 616q0 -218 103.5 -362.5t265.5 -144.5
q122 0 224.5 67t166.5 174t99.5 234.5t35.5 253.5q0 218 -103 363t-264 145q-99 0 -186 -45.5t-148 -120.5t-106 -170t-66.5 -196t-21.5 -198zM866 1884q9 46 43 82.5t70 36.5q27 0 83.5 -79t104.5 -165.5t80 -154.5l-24 -23l-213 100q-76 35 -100 55q-63 53 -44 148z" />
    <glyph glyph-name="Oacute" unicode="&#xd3;" horiz-adv-x="1736" 
d="M766 -20q-145 0 -269 46.5t-210 127.5t-134.5 191.5t-48.5 236.5q0 169 79 332.5t210 286.5t312 198.5t374 75.5q143 0 266.5 -47t209 -127.5t134 -191.5t48.5 -237q0 -173 -78.5 -337t-209 -285.5t-310.5 -195.5t-373 -74zM473 616q0 -218 103.5 -362.5t265.5 -144.5
q122 0 224.5 67t166.5 174t99.5 234.5t35.5 253.5q0 218 -103 363t-264 145q-99 0 -186 -45.5t-148 -120.5t-106 -170t-66.5 -196t-21.5 -198zM926 1604q368 401 434 401q35 0 53.5 -35.5t9.5 -81.5q-8 -38 -27.5 -69.5t-38 -50t-53 -37.5t-51.5 -26t-55 -22l-256 -102z" />
    <glyph glyph-name="Ocircumflex" unicode="&#xd4;" horiz-adv-x="1736" 
d="M766 -20q-145 0 -269 46.5t-210 127.5t-134.5 191.5t-48.5 236.5q0 169 79 332.5t210 286.5t312 198.5t374 75.5q143 0 266.5 -47t209 -127.5t134 -191.5t48.5 -237q0 -173 -78.5 -337t-209 -285.5t-310.5 -195.5t-373 -74zM473 616q0 -218 103.5 -362.5t265.5 -144.5
q122 0 224.5 67t166.5 174t99.5 234.5t35.5 253.5q0 218 -103 363t-264 145q-99 0 -186 -45.5t-148 -120.5t-106 -170t-66.5 -196t-21.5 -198zM795 1604q114 137 243 268t162 131t100 -127.5t125 -271.5l-28 -23l-248 195l-338 -195z" />
    <glyph glyph-name="Otilde" unicode="&#xd5;" horiz-adv-x="1736" 
d="M766 -20q-145 0 -269 46.5t-210 127.5t-134.5 191.5t-48.5 236.5q0 169 79 332.5t210 286.5t312 198.5t374 75.5q143 0 266.5 -47t209 -127.5t134 -191.5t48.5 -237q0 -173 -78.5 -337t-209 -285.5t-310.5 -195.5t-373 -74zM473 616q0 -218 103.5 -362.5t265.5 -144.5
q122 0 224.5 67t166.5 174t99.5 234.5t35.5 253.5q0 218 -103 363t-264 145q-99 0 -186 -45.5t-148 -120.5t-106 -170t-66.5 -196t-21.5 -198zM791 1673q63 113 152.5 204t152.5 91q36 0 145 -63.5t137 -63.5q96 0 193 123l16 -20q-55 -116 -145.5 -207.5t-153.5 -91.5
q-32 0 -80.5 28.5t-102.5 57t-99 28.5q-22 0 -60.5 -19.5t-64 -36t-74.5 -50.5z" />
    <glyph glyph-name="Odieresis" unicode="&#xd6;" horiz-adv-x="1736" 
d="M766 -20q-145 0 -269 46.5t-210 127.5t-134.5 191.5t-48.5 236.5q0 169 79 332.5t210 286.5t312 198.5t374 75.5q143 0 266.5 -47t209 -127.5t134 -191.5t48.5 -237q0 -173 -78.5 -337t-209 -285.5t-310.5 -195.5t-373 -74zM473 616q0 -218 103.5 -362.5t265.5 -144.5
q122 0 224.5 67t166.5 174t99.5 234.5t35.5 253.5q0 218 -103 363t-264 145q-99 0 -186 -45.5t-148 -120.5t-106 -170t-66.5 -196t-21.5 -198zM825 1747q0 62 52.5 111t117.5 49q44 0 73.5 -29.5t29.5 -73.5q0 -64 -50.5 -113t-111.5 -49q-50 0 -80.5 30t-30.5 75z
M1171 1747q0 62 52.5 111t117.5 49q45 0 74 -29t29 -74q0 -64 -50 -113t-112 -49q-49 0 -80 30t-31 75z" />
    <glyph glyph-name="multiply" unicode="&#xd7;" horiz-adv-x="921" 
d="M37 195l307 254l-197 249l115 97l197 -252l307 254l82 -105l-307 -252l196 -250l-116 -94l-195 248l-307 -252z" />
    <glyph glyph-name="Oslash" unicode="&#xd8;" horiz-adv-x="1748" 
d="M766 -20q-285 0 -473 170l-184 -150h-166l278 225q-117 158 -117 357q0 169 79 332.5t210 286.5t312 198.5t374 75.5q284 0 471 -172l191 153h166l-285 -231q115 -152 115 -353q0 -173 -78.5 -337t-209 -285.5t-310.5 -195.5t-373 -74zM473 616q0 -88 19 -172l823 668
q-47 108 -129.5 171t-184.5 63q-99 0 -186 -45.5t-148 -120.5t-106 -170t-66.5 -196t-21.5 -198zM528 340q46 -107 128.5 -169t185.5 -62q122 0 224.5 67t166.5 174t99.5 234.5t35.5 253.5q0 88 -18 168z" />
    <glyph glyph-name="Ugrave" unicode="&#xd9;" horiz-adv-x="1644" 
d="M786 -20q-301 0 -452 128.5t-105 346.5l189 880l-185 -18l52 137h690l-41 -98l-80 -19q-119 -34 -149 -182l-134 -623q-38 -180 50 -281t274 -101q170 0 285 92t153 266l176 827l-229 -18l49 137h512l-41 -98l-51 -10q-60 -12 -91 -45t-46 -103l-142 -657
q-56 -267 -238 -414t-446 -147zM946 1884q9 46 43 82.5t70 36.5q27 0 83.5 -79t104.5 -165.5t80 -154.5l-24 -23l-213 100q-76 35 -100 55q-63 53 -44 148z" />
    <glyph glyph-name="Uacute" unicode="&#xda;" horiz-adv-x="1644" 
d="M786 -20q-301 0 -452 128.5t-105 346.5l189 880l-185 -18l52 137h690l-41 -98l-80 -19q-119 -34 -149 -182l-134 -623q-38 -180 50 -281t274 -101q170 0 285 92t153 266l176 827l-229 -18l49 137h512l-41 -98l-51 -10q-60 -12 -91 -45t-46 -103l-142 -657
q-56 -267 -238 -414t-446 -147zM1006 1604q368 401 434 401q35 0 53.5 -35.5t9.5 -81.5q-8 -38 -27.5 -69.5t-38 -50t-53 -37.5t-51.5 -26t-55 -22l-256 -102z" />
    <glyph glyph-name="Ucircumflex" unicode="&#xdb;" horiz-adv-x="1644" 
d="M786 -20q-301 0 -452 128.5t-105 346.5l189 880l-185 -18l52 137h690l-41 -98l-80 -19q-119 -34 -149 -182l-134 -623q-38 -180 50 -281t274 -101q170 0 285 92t153 266l176 827l-229 -18l49 137h512l-41 -98l-51 -10q-60 -12 -91 -45t-46 -103l-142 -657
q-56 -267 -238 -414t-446 -147zM874 1604q114 136 243.5 267.5t162.5 131.5t100 -127.5t125 -271.5l-28 -23l-248 195l-338 -195z" />
    <glyph glyph-name="Udieresis" unicode="&#xdc;" horiz-adv-x="1644" 
d="M786 -20q-301 0 -452 128.5t-105 346.5l189 880l-185 -18l52 137h690l-41 -98l-80 -19q-119 -34 -149 -182l-134 -623q-38 -180 50 -281t274 -101q170 0 285 92t153 266l176 827l-229 -18l49 137h512l-41 -98l-51 -10q-60 -12 -91 -45t-46 -103l-142 -657
q-56 -267 -238 -414t-446 -147zM905 1747q0 62 52 111t116 49q46 0 75.5 -29.5t29.5 -73.5q0 -64 -50.5 -113t-111.5 -49q-50 0 -80.5 30t-30.5 75zM1251 1747q0 62 52.5 111t117.5 49q44 0 73.5 -29.5t29.5 -73.5q0 -64 -50.5 -113t-111.5 -49q-50 0 -80.5 30t-30.5 75z
" />
    <glyph glyph-name="Yacute" unicode="&#xdd;" horiz-adv-x="1574" 
d="M348 0l41 98l51 19q73 28 112.5 70.5t53.5 105.5l70 315l-289 727l-178 -18l51 137h737l-39 -98l-104 -19q-70 -12 -87 -42t9 -91l185 -461l481 592l-217 -18l49 137h524l-41 -98l-88 -17q-45 -8 -83 -35t-91 -92l-494 -604l-106 -489l235 18l-49 -137h-733zM942 1604
q368 401 434 401q35 0 54 -35.5t10 -81.5q-6 -28 -18 -52t-23.5 -41t-33.5 -33.5t-34.5 -25.5t-40 -21.5t-37.5 -16.5t-39 -15l-256 -102z" />
    <glyph glyph-name="Thorn" unicode="&#xde;" horiz-adv-x="1490" 
d="M-23 0l41 98l66 17q61 17 92.5 50.5t42.5 86.5l232 1083l-201 -18l51 137h676l-39 -98l-70 -19q-97 -26 -120 -137l-9 -41h185q275 0 423 -86t148 -254q0 -118 -60 -218t-158.5 -166t-223.5 -103t-258 -37h-242l-37 -176l199 18l-49 -137h-689zM578 403h157
q119 0 212 55.5t139.5 139t46.5 176.5q0 120 -69 193t-196 73h-155z" />
    <glyph glyph-name="germandbls" unicode="&#xdf;" horiz-adv-x="1533" 
d="M-424 -492q-45 0 -68 20.5t-16 55.5q13 63 53.5 124t79.5 61q35 0 154 -44t164 -44q67 0 107 81t71 242l184 928h-207l21 104h209q70 261 259.5 401t469.5 140q174 0 291.5 -78.5t117.5 -204.5q0 -51 -32.5 -99.5t-80.5 -85t-105 -73t-105 -65t-80.5 -59.5t-32.5 -58
q0 -23 24 -56.5t50.5 -58.5t74.5 -67.5t66 -59.5q166 -160 166 -313q0 -141 -105.5 -230t-299.5 -89q-77 0 -164.5 24t-147 61t-59.5 72q0 65 29.5 123.5t83.5 58.5q33 0 87.5 -32.5t103.5 -71.5t101.5 -71.5t81.5 -32.5q19 0 31 12.5t12 32.5q0 98 -168 280
q-120 125 -152 169q-57 78 -57 145q0 38 20 77.5t51.5 76t70 74t76.5 76.5t69.5 77.5t51.5 83t20 88.5q0 81 -40.5 116t-119.5 35q-147 0 -217 -77t-104 -253l-203 -1022q-62 -314 -278.5 -454t-608.5 -140z" />
    <glyph glyph-name="agrave" unicode="&#xe0;" horiz-adv-x="1161" 
d="M238 -20q-105 0 -156 82t-51 219q0 208 79 384.5t225 284t327 107.5q75 0 198 -94l195 198h59l-205 -835q-13 -32 -4.5 -58t47.5 -26q54 0 166 51l-8 -115q-92 -80 -210 -139t-202 -59q-115 0 -92 129l35 213h-25q-86 -160 -184 -251t-194 -91zM336 301q0 -30 10 -47.5
t25 -17.5q69 0 175 153t171 399q-116 97 -176 97q-46 0 -96 -124t-79.5 -260.5t-29.5 -199.5zM379 1454q0 55 30.5 119.5t75.5 64.5q19 0 84 -93t148.5 -219.5t120.5 -172.5l-23 -23l-252 121q-184 85 -184 203z" />
    <glyph glyph-name="aacute" unicode="&#xe1;" horiz-adv-x="1161" 
d="M238 -20q-105 0 -156 82t-51 219q0 208 79 384.5t225 284t327 107.5q75 0 198 -94l195 198h59l-205 -835q-13 -32 -4.5 -58t47.5 -26q54 0 166 51l-8 -115q-92 -80 -210 -139t-202 -59q-115 0 -92 129l35 213h-25q-86 -160 -184 -251t-194 -91zM336 301q0 -30 10 -47.5
t25 -17.5q69 0 175 153t171 399q-116 97 -176 97q-46 0 -96 -124t-79.5 -260.5t-29.5 -199.5zM494 1153q74 101 162 207t176.5 192t123.5 86q45 0 64 -48t10 -101q-8 -35 -31 -66t-62.5 -58.5t-63.5 -41t-70 -37.5l-291 -156z" />
    <glyph glyph-name="acircumflex" unicode="&#xe2;" horiz-adv-x="1161" 
d="M238 -20q-105 0 -156 82t-51 219q0 208 79 384.5t225 284t327 107.5q75 0 198 -94l195 198h59l-205 -835q-13 -32 -4.5 -58t47.5 -26q54 0 166 51l-8 -115q-92 -80 -210 -139t-202 -59q-115 0 -92 129l35 213h-25q-86 -160 -184 -251t-194 -91zM336 301q0 -30 10 -47.5
t25 -17.5q69 0 175 153t171 399q-116 97 -176 97q-46 0 -96 -124t-79.5 -260.5t-29.5 -199.5zM385 1186l40 50t50 62t52.5 64t57 68.5t53.5 62.5t52.5 58.5t43.5 44t36.5 32t22.5 10.5q10 0 23.5 -16.5t29.5 -50.5t30 -67t33 -85t30 -83t29 -84t23 -66l-26 -23l-232 219
l-330 -219z" />
    <glyph glyph-name="atilde" unicode="&#xe3;" horiz-adv-x="1161" 
d="M238 -20q-105 0 -156 82t-51 219q0 208 79 384.5t225 284t327 107.5q75 0 198 -94l195 198h59l-205 -835q-13 -32 -4.5 -58t47.5 -26q54 0 166 51l-8 -115q-92 -80 -210 -139t-202 -59q-115 0 -92 129l35 213h-25q-86 -160 -184 -251t-194 -91zM328 1241
q65 111 161.5 202t159.5 91q36 0 145.5 -63.5t137.5 -63.5q95 0 192 123l21 -23q-54 -115 -146.5 -206t-156.5 -91q-26 0 -62.5 18t-68.5 39.5t-74 39.5t-78 18q-33 0 -96.5 -33.5t-114.5 -72.5zM336 301q0 -30 10 -47.5t25 -17.5q69 0 175 153t171 399q-116 97 -176 97
q-46 0 -96 -124t-79.5 -260.5t-29.5 -199.5z" />
    <glyph glyph-name="adieresis" unicode="&#xe4;" horiz-adv-x="1161" 
d="M238 -20q-105 0 -156 82t-51 219q0 208 79 384.5t225 284t327 107.5q75 0 198 -94l195 198h59l-205 -835q-13 -32 -4.5 -58t47.5 -26q54 0 166 51l-8 -115q-92 -80 -210 -139t-202 -59q-115 0 -92 129l35 213h-25q-86 -160 -184 -251t-194 -91zM336 301q0 -30 10 -47.5
t25 -17.5q69 0 175 153t171 399q-116 97 -176 97q-46 0 -96 -124t-79.5 -260.5t-29.5 -199.5zM385 1354q0 70 58.5 124t129.5 54q51 0 83 -32.5t32 -82.5q0 -70 -56 -125t-124 -55q-55 0 -89 33.5t-34 83.5zM770 1354q0 70 58.5 124t129.5 54q51 0 83 -32.5t32 -82.5
q0 -70 -56 -125t-124 -55q-55 0 -89 33.5t-34 83.5z" />
    <glyph glyph-name="aring" unicode="&#xe5;" horiz-adv-x="1161" 
d="M238 -20q-105 0 -156 82t-51 219q0 208 79 384.5t225 284t327 107.5q75 0 198 -94l195 198h59l-205 -835q-13 -32 -4.5 -58t47.5 -26q54 0 166 51l-8 -115q-92 -80 -210 -139t-202 -59q-115 0 -92 129l35 213h-25q-86 -160 -184 -251t-194 -91zM336 301q0 -30 10 -47.5
t25 -17.5q69 0 175 153t171 399q-116 97 -176 97q-46 0 -96 -124t-79.5 -260.5t-29.5 -199.5zM453 1307q0 102 92 170.5t225 68.5q103 0 164 -43t61 -114q0 -102 -96 -171t-219 -69q-104 0 -165.5 43.5t-61.5 114.5zM639 1296q0 -40 14 -65t39 -25q34 0 63.5 37t43.5 81
t14 75q0 40 -14 65t-41 25q-33 0 -62 -36.5t-43 -80.5t-14 -76z" />
    <glyph glyph-name="ae" unicode="&#xe6;" horiz-adv-x="1501" 
d="M231 -20q-105 0 -156.5 84t-51.5 221q0 213 79 389t224 279.5t327 103.5q94 0 260 -144q188 144 387 144q99 0 157.5 -49.5t58.5 -120.5q0 -219 -504 -422l-6 102q85 48 138.5 116.5t53.5 133.5q0 82 -61 82q-55 0 -107.5 -74t-83.5 -184.5t-31 -216.5q0 -199 160 -199
q80 0 169.5 49t174.5 136l25 -115q-83 -140 -216.5 -227.5t-293.5 -87.5q-151 0 -245.5 97.5t-94.5 258.5q0 201 145 399q-138 150 -215 150q-46 0 -94 -124t-75 -260t-27 -200q0 -30 9.5 -47.5t24.5 -17.5q27 0 71.5 21.5t84.5 55.5l21 -110q-73 -106 -153 -164.5
t-155 -58.5z" />
    <glyph glyph-name="ccedilla" unicode="&#xe7;" horiz-adv-x="952" 
d="M160 -545q127 110 127 199q0 37 -21.5 63.5t-72.5 65.5l153 203q-136 23 -216.5 124t-80.5 248q0 93 32.5 192.5t93.5 189t140.5 161t181.5 114t208 42.5q84 0 186 -25.5t102 -62.5q0 -67 -41.5 -137t-81.5 -70q-15 0 -59 27.5t-100.5 55t-100.5 27.5q-71 0 -129 -74.5
t-86 -172t-28 -185.5q0 -100 41.5 -155.5t119.5 -55.5q139 0 308 172l24 -114q-71 -135 -185.5 -218t-238.5 -89l-28 -68q112 -69 112 -150q0 -96 -109 -192t-233 -137z" />
    <glyph glyph-name="egrave" unicode="&#xe8;" horiz-adv-x="960" 
d="M545 1251q-185 86 -185 203q0 55 31 119.5t76 64.5q19 0 84 -93t147.5 -219.5t120.5 -172.5l-22 -23zM43 336q0 124 61 254.5t158 233t228 168t260 65.5q99 0 157 -49.5t58 -120.5q0 -53 -27.5 -103.5t-79 -95t-106.5 -81.5t-131.5 -73.5t-130.5 -59.5t-125 -50
q0 -195 159 -195q81 0 170.5 47.5t173.5 133.5l25 -115q-83 -140 -216.5 -227.5t-293.5 -87.5q-151 0 -245.5 97.5t-94.5 258.5zM381 545q125 67 193.5 129.5t68.5 138.5q0 82 -61 82q-41 0 -83.5 -57t-71.5 -134.5t-46 -158.5z" />
    <glyph glyph-name="eacute" unicode="&#xe9;" horiz-adv-x="960" 
d="M473 1153q74 101 162 207t177 192t124 86q45 0 64 -48t10 -101q-8 -35 -31 -66t-63 -58.5t-63.5 -41t-70.5 -37.5l-290 -156zM43 336q0 124 61 254.5t158 233t228 168t260 65.5q99 0 157 -49.5t58 -120.5q0 -53 -27.5 -103.5t-79 -95t-106.5 -81.5t-131.5 -73.5
t-130.5 -59.5t-125 -50q0 -195 159 -195q81 0 170.5 47.5t173.5 133.5l25 -115q-83 -140 -216.5 -227.5t-293.5 -87.5q-151 0 -245.5 97.5t-94.5 258.5zM381 545q125 67 193.5 129.5t68.5 138.5q0 82 -61 82q-41 0 -83.5 -57t-71.5 -134.5t-46 -158.5z" />
    <glyph glyph-name="ecircumflex" unicode="&#xea;" horiz-adv-x="960" 
d="M944 1163l-231 219l-330 -219l-18 23q11 13 40.5 50.5t49.5 62t52.5 64.5t56.5 68t53.5 62.5t52 58t43.5 44.5t36 31.5t23 10.5q10 0 23.5 -16t30 -51.5t30 -66t33.5 -85.5t30 -83t29.5 -84.5t22.5 -65.5zM43 336q0 124 61 254.5t158 233t228 168t260 65.5
q99 0 157 -49.5t58 -120.5q0 -53 -27.5 -103.5t-79 -95t-106.5 -81.5t-131.5 -73.5t-130.5 -59.5t-125 -50q0 -195 159 -195q81 0 170.5 47.5t173.5 133.5l25 -115q-83 -140 -216.5 -227.5t-293.5 -87.5q-151 0 -245.5 97.5t-94.5 258.5zM381 545q125 67 193.5 129.5
t68.5 138.5q0 82 -61 82q-41 0 -83.5 -57t-71.5 -134.5t-46 -158.5z" />
    <glyph glyph-name="edieresis" unicode="&#xeb;" horiz-adv-x="960" 
d="M872 1237q-55 0 -88.5 33.5t-33.5 83.5q0 70 58.5 124t129.5 54q51 0 83 -32.5t32 -82.5q0 -70 -56.5 -125t-124.5 -55zM43 336q0 124 61 254.5t158 233t228 168t260 65.5q99 0 157 -49.5t58 -120.5q0 -53 -27.5 -103.5t-79 -95t-106.5 -81.5t-131.5 -73.5t-130.5 -59.5
t-125 -50q0 -195 159 -195q81 0 170.5 47.5t173.5 133.5l25 -115q-83 -140 -216.5 -227.5t-293.5 -87.5q-151 0 -245.5 97.5t-94.5 258.5zM365 1354q0 70 58.5 124t129.5 54q51 0 83 -32.5t32 -82.5q0 -70 -56.5 -125t-124.5 -55q-55 0 -88.5 33.5t-33.5 83.5zM381 545
q125 67 193.5 129.5t68.5 138.5q0 82 -61 82q-41 0 -83.5 -57t-71.5 -134.5t-46 -158.5z" />
    <glyph glyph-name="igrave" unicode="&#xec;" horiz-adv-x="784" 
d="M238 -20q-89 0 -111.5 60.5t18.5 201.5l123 417q18 60 -28 96.5t-150 26.5l-16 111q121 61 270 112.5t264 51.5q32 0 48.5 -8t22.5 -31.5t-9 -65.5l-189 -628q-11 -41 1.5 -61.5t41.5 -20.5q30 0 85 14.5t104 36.5l-8 -115q-86 -74 -232.5 -136t-234.5 -62zM256 1454
q0 55 30.5 119.5t75.5 64.5q19 0 84 -93t148.5 -219.5t120.5 -172.5l-23 -23l-252 121q-184 85 -184 203z" />
    <glyph glyph-name="iacute" unicode="&#xed;" horiz-adv-x="784" 
d="M238 -20q-89 0 -111.5 60.5t18.5 201.5l123 417q18 60 -28 96.5t-150 26.5l-16 111q121 61 270 112.5t264 51.5q32 0 48.5 -8t22.5 -31.5t-9 -65.5l-189 -628q-11 -41 1.5 -61.5t41.5 -20.5q30 0 85 14.5t104 36.5l-8 -115q-86 -74 -232.5 -136t-234.5 -62zM371 1153
q74 101 162 207t177 192t124 86q45 0 63.5 -48t9.5 -101q-8 -35 -31 -66t-62.5 -58.5t-63.5 -41t-70 -37.5l-291 -156z" />
    <glyph glyph-name="icircumflex" unicode="&#xee;" horiz-adv-x="784" 
d="M238 -20q-89 0 -111.5 60.5t18.5 201.5l123 417q18 60 -28 96.5t-150 26.5l-16 111q121 61 270 112.5t264 51.5q32 0 48.5 -8t22.5 -31.5t-9 -65.5l-189 -628q-11 -41 1.5 -61.5t41.5 -20.5q30 0 85 14.5t104 36.5l-8 -115q-86 -74 -232.5 -136t-234.5 -62zM262 1186
l40 50t50 62t52.5 64t57 68.5t53.5 62.5t52.5 58.5t43.5 44t36.5 32t22.5 10.5q10 0 23.5 -16.5t29.5 -50.5t30 -67t33 -85t30 -83t29 -84t23 -66l-26 -23l-232 219l-329 -219z" />
    <glyph glyph-name="idieresis" unicode="&#xef;" horiz-adv-x="784" 
d="M238 -20q-89 0 -111.5 60.5t18.5 201.5l123 417q18 60 -28 96.5t-150 26.5l-16 111q121 61 270 112.5t264 51.5q32 0 48.5 -8t22.5 -31.5t-9 -65.5l-189 -628q-11 -41 1.5 -61.5t41.5 -20.5q30 0 85 14.5t104 36.5l-8 -115q-86 -74 -232.5 -136t-234.5 -62zM262 1354
q0 70 59 124t130 54q51 0 82.5 -32.5t31.5 -82.5q0 -70 -56 -125t-124 -55q-55 0 -89 33.5t-34 83.5zM647 1354q0 70 59 124t130 54q51 0 82.5 -32.5t31.5 -82.5q0 -70 -56 -125t-124 -55q-55 0 -89 33.5t-34 83.5z" />
    <glyph glyph-name="eth" unicode="&#xf0;" horiz-adv-x="1169" 
d="M451 -20q-159 0 -265 111t-106 292q0 94 23.5 187t73 178t119 150t167.5 103.5t211 38.5q34 0 69 -6q-34 128 -106 232l-231 -150l-62 72l231 149q-94 98 -223 140l60 79q168 -49 303 -131l227 148l62 -72l-205 -131q152 -114 238.5 -274t86.5 -359q0 -108 -25 -214
t-79.5 -204.5t-132 -173.5t-190 -120t-246.5 -45zM401 410q0 -150 34.5 -232t101.5 -82q53 0 100.5 69.5t77.5 172.5t47.5 215t17.5 203q0 48 -2 73q-69 101 -172 101q-40 0 -72 -20t-53 -50.5t-36.5 -77t-23.5 -90t-13 -99.5t-6 -95.5t-1 -87.5z" />
    <glyph glyph-name="ntilde" unicode="&#xf1;" horiz-adv-x="1374" 
d="M66 860q97 76 244 136.5t268 60.5q49 0 63.5 -20.5t-2.5 -84.5l-131 -434h18q58 110 119 202t130.5 170t144.5 122.5t145 44.5q105 0 167 -62t32 -159l-156 -512q-14 -48 -1.5 -65t44.5 -17q54 0 166 51l-8 -115q-89 -77 -219 -137.5t-216 -60.5q-89 0 -113.5 60.5
t15.5 201.5l150 501q10 44 4.5 55t-25.5 11q-47 0 -148 -131t-200.5 -320.5t-138.5 -337.5l-312 -40l156 679q15 63 -25 88t-155 3zM522 1241q64 111 161 202t161 91q36 0 145 -63.5t137 -63.5q96 0 193 123l20 -23q-54 -115 -146.5 -206t-156.5 -91q-26 0 -62.5 18
t-68 39.5t-73.5 39.5t-78 18q-33 0 -96.5 -33.5t-114.5 -72.5z" />
    <glyph glyph-name="ograve" unicode="&#xf2;" horiz-adv-x="1028" 
d="M362 -18q-148 0 -231.5 100t-83.5 264q0 116 48.5 242t129.5 230t197.5 171.5t241.5 67.5q147 0 230 -107.5t83 -275.5q0 -121 -48 -245t-128.5 -223t-196.5 -161.5t-242 -62.5zM317 1454q0 55 31 119.5t76 64.5q19 0 84 -93t147.5 -219.5t120.5 -172.5l-22 -23l-252 121
q-185 86 -185 203zM352 627q0 -94 26.5 -197t72.5 -175.5t96 -72.5q39 0 68.5 40t42 92.5t12.5 105.5q0 95 -27 196t-72 170.5t-92 69.5q-36 0 -62.5 -21.5t-39.5 -57.5t-19 -73t-6 -77z" />
    <glyph glyph-name="oacute" unicode="&#xf3;" horiz-adv-x="1028" 
d="M362 -18q-148 0 -231.5 100t-83.5 264q0 116 48.5 242t129.5 230t197.5 171.5t241.5 67.5q147 0 230 -107.5t83 -275.5q0 -121 -48 -245t-128.5 -223t-196.5 -161.5t-242 -62.5zM352 627q0 -94 26.5 -197t72.5 -175.5t96 -72.5q39 0 68.5 40t42 92.5t12.5 105.5
q0 95 -27 196t-72 170.5t-92 69.5q-36 0 -62.5 -21.5t-39.5 -57.5t-19 -73t-6 -77zM430 1153q74 101 162 207t177 192t124 86q45 0 64 -48t10 -101q-8 -35 -31 -66t-63 -58.5t-63.5 -41t-70.5 -37.5l-290 -156z" />
    <glyph glyph-name="ocircumflex" unicode="&#xf4;" horiz-adv-x="1028" 
d="M362 -18q-148 0 -231.5 100t-83.5 264q0 116 48.5 242t129.5 230t197.5 171.5t241.5 67.5q147 0 230 -107.5t83 -275.5q0 -121 -48 -245t-128.5 -223t-196.5 -161.5t-242 -62.5zM322 1186q11 13 40.5 50.5t49.5 62t52.5 64.5t56.5 68t53.5 62.5t52 58t43.5 44.5t36 31.5
t23 10.5q10 0 23.5 -16t30 -51.5t30 -66t33.5 -85.5t30 -83t29.5 -84.5t22.5 -65.5l-27 -23l-231 219l-330 -219zM352 627q0 -94 26.5 -197t72.5 -175.5t96 -72.5q39 0 68.5 40t42 92.5t12.5 105.5q0 95 -27 196t-72 170.5t-92 69.5q-36 0 -62.5 -21.5t-39.5 -57.5t-19 -73
t-6 -77z" />
    <glyph glyph-name="otilde" unicode="&#xf5;" horiz-adv-x="1028" 
d="M362 -18q-148 0 -231.5 100t-83.5 264q0 116 48.5 242t129.5 230t197.5 171.5t241.5 67.5q147 0 230 -107.5t83 -275.5q0 -121 -48 -245t-128.5 -223t-196.5 -161.5t-242 -62.5zM266 1241q64 111 161 202t161 91q36 0 145 -63.5t137 -63.5q96 0 193 123l20 -23
q-54 -115 -146.5 -206t-156.5 -91q-26 0 -62.5 18t-68 39.5t-73.5 39.5t-78 18q-33 0 -96.5 -33.5t-114.5 -72.5zM352 627q0 -94 26.5 -197t72.5 -175.5t96 -72.5q39 0 68.5 40t42 92.5t12.5 105.5q0 95 -27 196t-72 170.5t-92 69.5q-36 0 -62.5 -21.5t-39.5 -57.5t-19 -73
t-6 -77z" />
    <glyph glyph-name="odieresis" unicode="&#xf6;" horiz-adv-x="1028" 
d="M362 -18q-148 0 -231.5 100t-83.5 264q0 116 48.5 242t129.5 230t197.5 171.5t241.5 67.5q147 0 230 -107.5t83 -275.5q0 -121 -48 -245t-128.5 -223t-196.5 -161.5t-242 -62.5zM322 1354q0 70 58.5 124t129.5 54q51 0 83 -32.5t32 -82.5q0 -70 -56.5 -125t-124.5 -55
q-55 0 -88.5 33.5t-33.5 83.5zM352 627q0 -94 26.5 -197t72.5 -175.5t96 -72.5q39 0 68.5 40t42 92.5t12.5 105.5q0 95 -27 196t-72 170.5t-92 69.5q-36 0 -62.5 -21.5t-39.5 -57.5t-19 -73t-6 -77zM707 1354q0 70 58.5 124t129.5 54q51 0 83 -32.5t32 -82.5
q0 -70 -56.5 -125t-124.5 -55q-55 0 -88.5 33.5t-33.5 83.5z" />
    <glyph glyph-name="divide" unicode="&#xf7;" horiz-adv-x="1040" 
d="M86 436l29 135h831l-28 -135h-832zM328 166q0 55 44.5 97t100.5 42q42 0 67 -25t25 -65q0 -58 -43 -100.5t-98 -42.5q-43 0 -69.5 26.5t-26.5 67.5zM463 795q0 56 43.5 98.5t99.5 42.5q42 0 68 -26t26 -66q0 -57 -43.5 -99.5t-99.5 -42.5q-42 0 -68 26.5t-26 66.5z" />
    <glyph glyph-name="oslash" unicode="&#xf8;" horiz-adv-x="1019" 
d="M362 -18q-95 0 -165 42.5t-107 120.5l-168 -145h-137l270 231l6 -6q-14 52 -14 121q0 116 48.5 242t129.5 230t197.5 171.5t241.5 67.5q161 0 247 -133l133 112h138l-230 -198q25 -77 25 -164q0 -121 -48 -245t-128.5 -223t-196.5 -161.5t-242 -62.5zM352 627
q0 -66 17 -156l252 215q-29 77 -66.5 123.5t-75.5 46.5q-36 0 -62.5 -21.5t-39.5 -57.5t-19 -73t-6 -77zM395 377q29 -87 69.5 -141t82.5 -54q39 0 68.5 40t42 92.5t12.5 105.5q0 80 -23 174z" />
    <glyph glyph-name="ugrave" unicode="&#xf9;" horiz-adv-x="1325" 
d="M264 -20q-104 0 -166 61.5t-24 144.5q110 233 184 527q10 40 -2 61t-41 21q-52 0 -166 -52l8 115q89 77 219 138t216 61q169 0 112 -219q-62 -244 -176 -557q-13 -39 29 -39q61 0 157.5 129t182.5 310t127 335l313 41l-178 -733q-11 -49 0.5 -65.5t42.5 -16.5
q30 0 88 14.5t106 36.5l-8 -115q-89 -77 -218 -137.5t-214 -60.5q-90 0 -114.5 61t16.5 201l78 254h-19q-54 -102 -119.5 -193t-137 -164t-149 -116t-147.5 -43zM489 1454q0 55 31 119.5t76 64.5q19 0 84 -93t147.5 -219.5t120.5 -172.5l-22 -23l-252 121q-185 86 -185 203z
" />
    <glyph glyph-name="uacute" unicode="&#xfa;" horiz-adv-x="1325" 
d="M264 -20q-104 0 -166 61.5t-24 144.5q110 233 184 527q10 40 -2 61t-41 21q-52 0 -166 -52l8 115q89 77 219 138t216 61q169 0 112 -219q-62 -244 -176 -557q-13 -39 29 -39q61 0 157.5 129t182.5 310t127 335l313 41l-178 -733q-11 -49 0.5 -65.5t42.5 -16.5
q30 0 88 14.5t106 36.5l-8 -115q-89 -77 -218 -137.5t-214 -60.5q-90 0 -114.5 61t16.5 201l78 254h-19q-54 -102 -119.5 -193t-137 -164t-149 -116t-147.5 -43zM604 1153q74 101 162 207t177 192t124 86q45 0 64 -48t10 -101q-8 -35 -31 -66t-63 -58.5t-63.5 -41
t-70.5 -37.5l-290 -156z" />
    <glyph glyph-name="ucircumflex" unicode="&#xfb;" horiz-adv-x="1325" 
d="M264 -20q-104 0 -166 61.5t-24 144.5q110 233 184 527q10 40 -2 61t-41 21q-52 0 -166 -52l8 115q89 77 219 138t216 61q169 0 112 -219q-62 -244 -176 -557q-13 -39 29 -39q61 0 157.5 129t182.5 310t127 335l313 41l-178 -733q-11 -49 0.5 -65.5t42.5 -16.5
q30 0 88 14.5t106 36.5l-8 -115q-89 -77 -218 -137.5t-214 -60.5q-90 0 -114.5 61t16.5 201l78 254h-19q-54 -102 -119.5 -193t-137 -164t-149 -116t-147.5 -43zM496 1186q11 13 40.5 50.5t49.5 62t52.5 64.5t56.5 68t53.5 62.5t52 58t43.5 44.5t36 31.5t23 10.5
q10 0 23.5 -16t30 -51.5t30 -66t33.5 -85.5t30 -83t29.5 -84.5t22.5 -65.5l-27 -23l-231 219l-330 -219z" />
    <glyph glyph-name="udieresis" unicode="&#xfc;" horiz-adv-x="1325" 
d="M264 -20q-104 0 -166 61.5t-24 144.5q110 233 184 527q10 40 -2 61t-41 21q-52 0 -166 -52l8 115q89 77 219 138t216 61q169 0 112 -219q-62 -244 -176 -557q-13 -39 29 -39q61 0 157.5 129t182.5 310t127 335l313 41l-178 -733q-11 -49 0.5 -65.5t42.5 -16.5
q30 0 88 14.5t106 36.5l-8 -115q-89 -77 -218 -137.5t-214 -60.5q-90 0 -114.5 61t16.5 201l78 254h-19q-54 -102 -119.5 -193t-137 -164t-149 -116t-147.5 -43zM496 1354q0 70 58.5 124t129.5 54q51 0 83 -32.5t32 -82.5q0 -70 -56.5 -125t-124.5 -55q-55 0 -88.5 33.5
t-33.5 83.5zM881 1354q0 70 58.5 124t129.5 54q51 0 83 -32.5t32 -82.5q0 -70 -56 -125t-124 -55q-55 0 -89 33.5t-34 83.5z" />
    <glyph glyph-name="yacute" unicode="&#xfd;" horiz-adv-x="1165" 
d="M-215 -330q23 -2 74 -2q77 0 148 11t139.5 34.5t123.5 67t86 102.5q64 119 64 307q0 103 -23 215t-57.5 198t-77.5 142t-82 56q-68 0 -143 -53l-10 114q73 68 184 131.5t182 63.5q82 0 148 -91.5t100.5 -238t34.5 -315.5q0 -43 -8 -187q83 152 144 351t69 407
q0 33 23 53.5t57 20.5q36 0 90.5 -16.5t98 -43t42.5 -51.5q-5 -103 -80.5 -258t-213 -350.5t-292 -391t-358.5 -435.5q-106 0 -237 17t-226 46v96zM553 1153q74 101 162 207t177 192t124 86q45 0 64 -48t10 -101q-8 -35 -31 -66t-63 -58.5t-63.5 -41t-70.5 -37.5l-291 -156z
" />
    <glyph glyph-name="thorn" unicode="&#xfe;" horiz-adv-x="1136" 
d="M-178 -393q81 18 120.5 58.5t57.5 115.5l340 1472q12 54 -2.5 78t-69 31.5t-159.5 -6.5v110q93 44 276 77.5t338 33.5l-252 -870h16q84 164 180.5 257t192.5 93q118 0 176 -90.5t58 -235.5q0 -153 -47 -291t-129.5 -239.5t-202.5 -161t-258 -59.5q-29 0 -97 14l-81 -361
l319 41l-25 -145l-768 -18zM420 248q56 -43 112.5 -69.5t94.5 -26.5q40 0 79.5 101t60.5 212t21 168q0 168 -59 168q-67 0 -156.5 -146.5t-152.5 -406.5z" />
    <glyph glyph-name="ydieresis" unicode="&#xff;" horiz-adv-x="1165" 
d="M-215 -330q23 -2 74 -2q77 0 148 11t139.5 34.5t123.5 67t86 102.5q64 119 64 307q0 103 -23 215t-57.5 198t-77.5 142t-82 56q-68 0 -143 -53l-10 114q73 68 184 131.5t182 63.5q82 0 148 -91.5t100.5 -238t34.5 -315.5q0 -43 -8 -187q83 152 144 351t69 407
q0 33 23 53.5t57 20.5q36 0 90.5 -16.5t98 -43t42.5 -51.5q-5 -103 -80.5 -258t-213 -350.5t-292 -391t-358.5 -435.5q-106 0 -237 17t-226 46v96zM444 1354q0 70 59 124t130 54q51 0 83 -32.5t32 -82.5q0 -70 -56.5 -125t-124.5 -55q-55 0 -89 33.5t-34 83.5zM829 1354
q0 70 59 124t130 54q51 0 83 -32.5t32 -82.5q0 -70 -56.5 -125t-124.5 -55q-55 0 -89 33.5t-34 83.5z" />
    <glyph glyph-name="Amacron" unicode="&#x100;" horiz-adv-x="1683" 
d="M823 0l41 98l72 19q64 17 88.5 48.5t24.5 90.5l-2 141h-566l-237 -278l217 18l-49 -137h-531l41 98l103 19q15 3 29 8.5t24.5 10.5t25 17t21.5 18t23 23t21 23t24 28.5t24 28.5l805 945q-50 133 -252 194l16 41h562l18 -1335l213 18l-51 -137h-705zM582 516h465l-9 537z
M805 1642q7 31 44 80.5t62 49.5h596q-7 -38 -39.5 -84t-66.5 -46h-596z" />
    <glyph glyph-name="amacron" unicode="&#x101;" horiz-adv-x="1161" 
d="M238 -20q-105 0 -156 82t-51 219q0 208 79 384.5t225 284t327 107.5q75 0 198 -94l195 198h59l-205 -835q-13 -32 -4.5 -58t47.5 -26q54 0 166 51l-8 -115q-92 -80 -210 -139t-202 -59q-115 0 -92 129l35 213h-25q-86 -160 -184 -251t-194 -91zM336 301q0 -30 10 -47.5
t25 -17.5q69 0 175 153t171 399q-116 97 -176 97q-46 0 -96 -124t-79.5 -260.5t-29.5 -199.5zM375 1223q7 31 44 80t62 49h596q-7 -38 -39.5 -83.5t-66.5 -45.5h-596z" />
    <glyph glyph-name="Abreve" unicode="&#x102;" horiz-adv-x="1683" 
d="M823 0l41 98l72 19q64 17 88.5 48.5t24.5 90.5l-2 141h-566l-237 -278l217 18l-49 -137h-531l41 98l103 19q15 3 29 8.5t24.5 10.5t25 17t21.5 18t23 23t21 23t24 28.5t24 28.5l805 945q-50 133 -252 194l16 41h562l18 -1335l213 18l-51 -137h-705zM582 516h465l-9 537z
M915 1980l29 19q-6 -90 52 -152.5t163 -62.5q106 0 191 62.5t118 154.5l21 -21q-41 -166 -146 -281.5t-231 -115.5q-131 0 -182.5 115t-14.5 282z" />
    <glyph glyph-name="abreve" unicode="&#x103;" horiz-adv-x="1161" 
d="M238 -20q-105 0 -156 82t-51 219q0 208 79 384.5t225 284t327 107.5q75 0 198 -94l195 198h59l-205 -835q-13 -32 -4.5 -58t47.5 -26q54 0 166 51l-8 -115q-92 -80 -210 -139t-202 -59q-115 0 -92 129l35 213h-25q-86 -160 -184 -251t-194 -91zM336 301q0 -30 10 -47.5
t25 -17.5q69 0 175 153t171 399q-116 97 -176 97q-46 0 -96 -124t-79.5 -260.5t-29.5 -199.5zM487 1561l29 18q-6 -90 52 -152.5t163 -62.5q106 0 191 62.5t118 154.5l21 -20q-41 -166 -146 -282t-231 -116q-131 0 -182.5 115.5t-14.5 282.5z" />
    <glyph glyph-name="Aogonek" unicode="&#x104;" horiz-adv-x="1683" 
d="M823 0l41 98l72 19q64 17 88.5 48.5t24.5 90.5l-2 141h-566l-237 -278l217 18l-49 -137h-531l41 98l103 19q15 3 29 8.5t24.5 10.5t25 17t21.5 18t23 23t21 23t24 28.5t24 28.5l805 945q-50 133 -252 194l16 41h562l18 -1335l213 18l-51 -137h-215q-73 -53 -120.5 -126.5
t-47.5 -102.5q0 -35 25.5 -59.5t68.5 -24.5q77 0 139 37l21 -23q-33 -34 -155.5 -110t-139.5 -76q-81 0 -127.5 34t-46.5 93q0 68 68 169t176 189h-351zM582 516h465l-9 537z" />
    <glyph glyph-name="aogonek" unicode="&#x105;" horiz-adv-x="1161" 
d="M238 -20q-105 0 -156 82t-51 219q0 208 79 384.5t225 284t327 107.5q75 0 198 -94l195 198h59l-205 -835q-13 -32 -4.5 -58t47.5 -26q54 0 166 51l-8 -115q-112 -97 -242 -153q-70 -54 -115.5 -126.5t-45.5 -99.5q0 -35 25.5 -59.5t68.5 -24.5q77 0 139 37l21 -22
q-33 -34 -156 -110.5t-139 -76.5q-81 0 -127.5 34t-46.5 93t51 144t137 166q-94 13 -74 129l35 213h-25q-86 -160 -184 -251t-194 -91zM336 301q0 -30 10 -47.5t25 -17.5q69 0 175 153t171 399q-116 97 -176 97q-46 0 -96 -124t-79.5 -260.5t-29.5 -199.5z" />
    <glyph glyph-name="Cacute" unicode="&#x106;" horiz-adv-x="1538" 
d="M780 -20q-308 0 -494 156t-186 417q0 184 80 354.5t214.5 294.5t319 198.5t384.5 74.5q260 0 487 -107l-67 -418h-84q-35 201 -127.5 298.5t-272.5 97.5q-96 0 -180.5 -36t-146 -97.5t-109.5 -141t-77.5 -170t-44.5 -181t-15 -177.5q0 -207 93 -320.5t265 -113.5
q115 0 208 44t172 127t177 228h84l-180 -463q-225 -65 -500 -65zM907 1604q368 401 434 401q35 0 54 -35.5t10 -81.5q-8 -38 -27.5 -69.5t-38 -50t-53 -37.5t-51.5 -26t-55 -22l-256 -102z" />
    <glyph glyph-name="cacute" unicode="&#x107;" horiz-adv-x="952" 
d="M420 -20q-167 0 -269 106t-102 272q0 93 32.5 192.5t93.5 189t140.5 161t181.5 114t208 42.5q84 0 186 -25.5t102 -62.5q0 -67 -41.5 -137t-81.5 -70q-15 0 -59 27.5t-100.5 55t-100.5 27.5q-71 0 -129 -74.5t-86 -172t-28 -185.5q0 -100 41.5 -155.5t119.5 -55.5
q139 0 308 172l24 -114q-74 -140 -193 -223.5t-247 -83.5zM512 1153q74 101 162 207t177 192t124 86q45 0 64 -48t10 -101q-8 -35 -31 -66t-63 -58.5t-63.5 -41t-70.5 -37.5l-291 -156z" />
    <glyph glyph-name="Ccircumflex" unicode="&#x108;" horiz-adv-x="1538" 
d="M780 -20q-308 0 -494 156t-186 417q0 184 80 354.5t214.5 294.5t319 198.5t384.5 74.5q260 0 487 -107l-67 -418h-84q-35 201 -127.5 298.5t-272.5 97.5q-96 0 -180.5 -36t-146 -97.5t-109.5 -141t-77.5 -170t-44.5 -181t-15 -177.5q0 -207 93 -320.5t265 -113.5
q115 0 208 44t172 127t177 228h84l-180 -463q-225 -65 -500 -65zM778 1604q114 136 243.5 267.5t162.5 131.5t100 -127.5t125 -271.5l-29 -23l-247 195l-338 -195z" />
    <glyph glyph-name="ccircumflex" unicode="&#x109;" horiz-adv-x="952" 
d="M420 -20q-167 0 -269 106t-102 272q0 93 32.5 192.5t93.5 189t140.5 161t181.5 114t208 42.5q84 0 186 -25.5t102 -62.5q0 -67 -41.5 -137t-81.5 -70q-15 0 -59 27.5t-100.5 55t-100.5 27.5q-71 0 -129 -74.5t-86 -172t-28 -185.5q0 -100 41.5 -155.5t119.5 -55.5
q139 0 308 172l24 -114q-74 -140 -193 -223.5t-247 -83.5zM403 1186l40 50t50 62t52.5 64t57 68.5t53.5 62.5t52.5 58.5t43.5 44t36.5 32t22.5 10.5q10 0 23.5 -16t30 -51.5t30 -66t33.5 -85.5t30 -83t29.5 -84.5t22.5 -65.5l-27 -23l-231 219l-330 -219z" />
    <glyph glyph-name="Cdotaccent" unicode="&#x10a;" horiz-adv-x="1538" 
d="M780 -20q-308 0 -494 156t-186 417q0 184 80 354.5t214.5 294.5t319 198.5t384.5 74.5q260 0 487 -107l-67 -418h-84q-35 201 -127.5 298.5t-272.5 97.5q-96 0 -180.5 -36t-146 -97.5t-109.5 -141t-77.5 -170t-44.5 -181t-15 -177.5q0 -207 93 -320.5t265 -113.5
q115 0 208 44t172 127t177 228h84l-180 -463q-225 -65 -500 -65zM940 1757q3 87 76.5 155t163.5 68q67 0 107.5 -42.5t37.5 -106.5q-1 -89 -72.5 -158t-158.5 -69q-70 0 -113 44t-41 109z" />
    <glyph glyph-name="cdotaccent" unicode="&#x10b;" horiz-adv-x="952" 
d="M420 -20q-167 0 -269 106t-102 272q0 93 32.5 192.5t93.5 189t140.5 161t181.5 114t208 42.5q84 0 186 -25.5t102 -62.5q0 -67 -41.5 -137t-81.5 -70q-15 0 -59 27.5t-100.5 55t-100.5 27.5q-71 0 -129 -74.5t-86 -172t-28 -185.5q0 -100 41.5 -155.5t119.5 -55.5
q139 0 308 172l24 -114q-74 -140 -193 -223.5t-247 -83.5zM555 1339q3 87 76.5 155.5t163.5 68.5q67 0 107.5 -43t37.5 -107q-1 -89 -72.5 -158t-158.5 -69q-70 0 -113 44t-41 109z" />
    <glyph glyph-name="Ccaron" unicode="&#x10c;" horiz-adv-x="1538" 
d="M780 -20q-308 0 -494 156t-186 417q0 184 80 354.5t214.5 294.5t319 198.5t384.5 74.5q260 0 487 -107l-67 -418h-84q-35 201 -127.5 298.5t-272.5 97.5q-96 0 -180.5 -36t-146 -97.5t-109.5 -141t-77.5 -170t-44.5 -181t-15 -177.5q0 -207 93 -320.5t265 -113.5
q115 0 208 44t172 127t177 228h84l-180 -463q-225 -65 -500 -65zM846 1982l28 23l248 -195l338 195l17 -23q-114 -136 -243.5 -267.5t-162.5 -131.5t-100 127.5t-125 271.5z" />
    <glyph glyph-name="ccaron" unicode="&#x10d;" horiz-adv-x="952" 
d="M420 -20q-167 0 -269 106t-102 272q0 93 32.5 192.5t93.5 189t140.5 161t181.5 114t208 42.5q84 0 186 -25.5t102 -62.5q0 -67 -41.5 -137t-81.5 -70q-15 0 -59 27.5t-100.5 55t-100.5 27.5q-71 0 -129 -74.5t-86 -172t-28 -185.5q0 -100 41.5 -155.5t119.5 -55.5
q139 0 308 172l24 -114q-74 -140 -193 -223.5t-247 -83.5zM485 1618l27 20l231 -219l334 219l19 -22q-232 -288 -315 -375q-74 -78 -95 -78q-10 0 -23.5 17.5t-29.5 50t-31 68.5t-33 84t-31 85t-29 83t-24 67z" />
    <glyph glyph-name="Dcaron" unicode="&#x10e;" horiz-adv-x="1728" 
d="M-23 0l43 98l64 17q54 14 91.5 50t47.5 87l230 1083l-203 -18l51 137h731q160 0 293.5 -42.5t223 -116.5t139 -175.5t49.5 -218.5q0 -113 -34.5 -225t-96.5 -211.5t-153.5 -185t-200 -147.5t-241 -97t-272.5 -35h-762zM518 119h246q109 0 207 45.5t170.5 123t125.5 178
t80 213.5t27 226q0 199 -112.5 314.5t-331.5 115.5h-152zM801 1982l28 23l248 -195l338 195l17 -23q-114 -136 -243.5 -267.5t-162.5 -131.5t-100 127.5t-125 271.5z" />
    <glyph glyph-name="dcaron" unicode="&#x10f;" horiz-adv-x="1212" 
d="M252 -20q-107 0 -159 82.5t-52 218.5q0 120 29 234.5t84.5 212t131 171.5t175.5 116t211 42q49 0 116 -39l58 235q5 28 4.5 47.5t-11 32t-23.5 20t-34.5 10.5t-44 2.5t-51 -2.5t-56.5 -5q-12 -1 -18 -2v110q93 45 275 78t338 33l-291 -1251q-8 -36 2 -60t41 -24
q30 0 87 14.5t105 36.5l-8 -115q-92 -80 -209 -139t-200 -59q-70 0 -109.5 49.5t-26.5 138.5l21 131h-23l2 4q-84 -151 -178.5 -237t-185.5 -86zM346 299q0 -63 29 -63q70 0 180.5 154t175.5 398q-116 97 -188 97q-48 0 -96 -124t-74.5 -260t-26.5 -202zM1237 1038l74 328
q12 51 22.5 80.5t30 57t50.5 39t77 11.5q48 0 77 -21t29 -60q0 -25 -17 -57t-90 -124t-216 -254h-37z" />
    <glyph glyph-name="Dcroat" unicode="&#x110;" horiz-adv-x="1728" 
d="M125 688l18 98h193l117 549l-203 -18l51 137h731q160 0 293.5 -42.5t223 -116.5t139 -175.5t49.5 -218.5q0 -113 -34.5 -225t-96.5 -211.5t-153.5 -185t-200 -147.5t-241 -97t-272.5 -35h-762l43 98l64 17q54 14 91.5 50t47.5 87l92 436h-190zM518 119h246
q109 0 207 45.5t170.5 123t125.5 178t80 213.5t27 226q0 199 -112.5 314.5t-331.5 115.5h-152l-116 -549h245l-20 -98h-248z" />
    <glyph glyph-name="dcroat" unicode="&#x111;" horiz-adv-x="1212" 
d="M565 1149l17 98h262l2 6q5 28 4.5 47.5t-11 32t-23.5 20t-34.5 10.5t-44 2.5t-51 -2.5t-56.5 -5q-12 -1 -18 -2v110q93 45 275 78t338 33l-76 -330h141l-16 -98h-150l-190 -823q-8 -36 2 -60t41 -24q30 0 87 14.5t105 36.5l-8 -115q-92 -80 -209 -139t-200 -59
q-70 0 -109.5 49.5t-26.5 138.5l21 131h-23l2 4q-84 -151 -178.5 -237t-185.5 -86q-107 0 -159 82.5t-52 218.5q0 120 29 234.5t84.5 212t131 171.5t175.5 116t211 42q49 0 116 -39l33 131h-256zM346 299q0 -63 29 -63q70 0 180.5 154t175.5 398q-116 97 -188 97
q-48 0 -96 -124t-74.5 -260t-26.5 -202z" />
    <glyph glyph-name="Emacron" unicode="&#x112;" horiz-adv-x="1474" 
d="M-23 0l41 98l66 17q113 30 135 131l232 1089l-201 -18l51 137h864q138 0 287 57l-37 -520h-84q-40 177 -101 260.5t-179 83.5h-275l-114 -532h149q83 0 140.5 50t109.5 181h84l-121 -569h-84q3 130 -33.5 178.5t-120.5 48.5h-147l-123 -573h346q218 0 447 401h84
l-219 -577q-114 57 -265 57h-932zM676 1640q7 31 44 80t62 49h596q-7 -38 -39.5 -83.5t-66.5 -45.5h-596z" />
    <glyph glyph-name="emacron" unicode="&#x113;" horiz-adv-x="960" 
d="M356 1223q7 31 44.5 80t62.5 49h596q-7 -38 -39.5 -83.5t-67.5 -45.5h-596zM43 336q0 124 61 254.5t158 233t228 168t260 65.5q99 0 157 -49.5t58 -120.5q0 -53 -27.5 -103.5t-79 -95t-106.5 -81.5t-131.5 -73.5t-130.5 -59.5t-125 -50q0 -195 159 -195q81 0 170.5 47.5
t173.5 133.5l25 -115q-83 -140 -216.5 -227.5t-293.5 -87.5q-151 0 -245.5 97.5t-94.5 258.5zM381 545q125 67 193.5 129.5t68.5 138.5q0 82 -61 82q-41 0 -83.5 -57t-71.5 -134.5t-46 -158.5z" />
    <glyph glyph-name="Edotaccent" unicode="&#x116;" horiz-adv-x="1474" 
d="M-23 0l41 98l66 17q113 30 135 131l232 1089l-201 -18l51 137h864q138 0 287 57l-37 -520h-84q-40 177 -101 260.5t-179 83.5h-275l-114 -532h149q83 0 140.5 50t109.5 181h84l-121 -569h-84q3 130 -33.5 178.5t-120.5 48.5h-147l-123 -573h346q218 0 447 401h84
l-219 -577q-114 57 -265 57h-932zM836 1757q3 87 76 155t163 68q67 0 108 -42.5t38 -106.5q-1 -88 -73 -157.5t-159 -69.5q-69 0 -112 43.5t-41 109.5z" />
    <glyph glyph-name="edotaccent" unicode="&#x117;" horiz-adv-x="960" 
d="M670 1186q-70 0 -113 44t-41 109q3 87 76.5 155.5t163.5 68.5q67 0 107.5 -43t37.5 -107q-1 -89 -72.5 -158t-158.5 -69zM43 336q0 124 61 254.5t158 233t228 168t260 65.5q99 0 157 -49.5t58 -120.5q0 -53 -27.5 -103.5t-79 -95t-106.5 -81.5t-131.5 -73.5t-130.5 -59.5
t-125 -50q0 -195 159 -195q81 0 170.5 47.5t173.5 133.5l25 -115q-83 -140 -216.5 -227.5t-293.5 -87.5q-151 0 -245.5 97.5t-94.5 258.5zM381 545q125 67 193.5 129.5t68.5 138.5q0 82 -61 82q-41 0 -83.5 -57t-71.5 -134.5t-46 -158.5z" />
    <glyph glyph-name="Eogonek" unicode="&#x118;" horiz-adv-x="1474" 
d="M-23 0l41 98l66 17q113 30 135 131l232 1089l-201 -18l51 137h864q138 0 287 57l-37 -520h-84q-40 177 -101 260.5t-179 83.5h-275l-114 -532h149q83 0 140.5 50t109.5 181h84l-121 -569h-84q3 130 -33.5 178.5t-120.5 48.5h-147l-123 -573h346q218 0 447 401h84
l-219 -577q-114 57 -265 57h-2q-73 -53 -120.5 -126.5t-47.5 -102.5q0 -35 26 -59.5t69 -24.5q77 0 139 37l20 -23q-33 -34 -155.5 -110t-139.5 -76q-81 0 -127.5 34t-46.5 93q0 68 68 169t176 189h-791z" />
    <glyph glyph-name="eogonek" unicode="&#x119;" horiz-adv-x="960" 
d="M408 -453q-81 0 -128 34t-47 93t50.5 143t134.5 165q-10 -2 -35 -2q-151 0 -245.5 97.5t-94.5 258.5q0 124 61 254.5t158 233t228 168t260 65.5q99 0 157 -49.5t58 -120.5q0 -53 -27.5 -103.5t-79 -95t-106.5 -81.5t-131.5 -73.5t-130.5 -59.5t-125 -50q0 -195 159 -195
q81 0 170.5 47.5t173.5 133.5l25 -115q-102 -177 -272 -258q-75 -54 -123.5 -129.5t-48.5 -104.5q0 -35 25.5 -59.5t68.5 -24.5q77 0 139 37l20 -22q-33 -35 -155.5 -111t-138.5 -76zM381 545q125 67 193.5 129.5t68.5 138.5q0 82 -61 82q-41 0 -83.5 -57t-71.5 -134.5
t-46 -158.5z" />
    <glyph glyph-name="Ecaron" unicode="&#x11a;" horiz-adv-x="1474" 
d="M-23 0l41 98l66 17q113 30 135 131l232 1089l-201 -18l51 137h864q138 0 287 57l-37 -520h-84q-40 177 -101 260.5t-179 83.5h-275l-114 -532h149q83 0 140.5 50t109.5 181h84l-121 -569h-84q3 130 -33.5 178.5t-120.5 48.5h-147l-123 -573h346q218 0 447 401h84
l-219 -577q-114 57 -265 57h-932zM743 1982l29 23l248 -195l338 195l16 -23q-114 -137 -243 -268t-162 -131t-101 128t-125 271z" />
    <glyph glyph-name="ecaron" unicode="&#x11b;" horiz-adv-x="960" 
d="M647 1163q-10 0 -23.5 17.5t-29.5 50t-31 68.5t-33 84t-31 85t-29 83t-24 67l27 20l232 -219l333 219l19 -22q-232 -288 -315 -375q-74 -78 -95 -78zM43 336q0 124 61 254.5t158 233t228 168t260 65.5q99 0 157 -49.5t58 -120.5q0 -53 -27.5 -103.5t-79 -95t-106.5 -81.5
t-131.5 -73.5t-130.5 -59.5t-125 -50q0 -195 159 -195q81 0 170.5 47.5t173.5 133.5l25 -115q-83 -140 -216.5 -227.5t-293.5 -87.5q-151 0 -245.5 97.5t-94.5 258.5zM381 545q125 67 193.5 129.5t68.5 138.5q0 82 -61 82q-41 0 -83.5 -57t-71.5 -134.5t-46 -158.5z" />
    <glyph glyph-name="Gcircumflex" unicode="&#x11c;" horiz-adv-x="1712" 
d="M809 -20q-331 0 -521 150.5t-190 408.5q0 187 79 359t214 299t326 202.5t405 75.5q247 0 467 -62l-55 -455h-84q-30 177 -133.5 282.5t-290.5 105.5q-111 0 -205.5 -50.5t-159.5 -132.5t-111 -188t-67.5 -216t-21.5 -216q0 -204 98.5 -319t280.5 -115q276 0 317 186
l80 375l-317 -19l47 121h745l-41 -92q-117 0 -137 -100l-61 -297q-1 -5 -2 -12.5t-2 -13t-1 -9.5q0 -66 76 -66l-4 -65q-225 -74 -385 -105.5t-346 -31.5zM834 1604q114 137 243 268t162 131t100 -127.5t125 -271.5l-28 -23l-248 195l-338 -195z" />
    <glyph glyph-name="gcircumflex" unicode="&#x11d;" horiz-adv-x="1124" 
d="M426 -492q-111 0 -208 15t-178 46.5t-128 86.5t-47 127q0 99 89.5 163.5t225.5 90.5q-71 61 -71 133q0 32 79 83.5t174 90.5q-140 17 -223.5 86.5t-83.5 171.5q0 116 78 221.5t206 168.5t269 63q73 0 148 -21q56 76 121 133l-228 215l-330 -219l-18 23l40 50t50 62
t52.5 64t57 68.5t53.5 62.5t52.5 58.5t43.5 44t36.5 32t22.5 10.5t18 -10t21.5 -31t22.5 -44t24.5 -57.5t24 -61.5t24.5 -67.5t22.5 -64t21.5 -61.5t17 -51q133 94 293 94q41 0 41 -45q0 -79 -40 -147t-93 -68q-141 0 -256 -33q61 -39 94 -94t33 -119q0 -112 -71 -212
t-188.5 -161.5t-250.5 -66.5q-18 -41 -18 -80q0 -12 28 -31t76 -37l258 -90q98 -35 144 -77t46 -107q0 -54 -23.5 -110t-72 -109.5t-115.5 -95.5t-161.5 -67.5t-202.5 -25.5zM186 -154q0 -77 103 -123.5t264 -46.5q84 0 136 22t52 50q0 39 -90 76l-379 160q-86 -57 -86 -138
zM377 770q0 -56 21.5 -124t64.5 -121.5t94 -53.5q84 0 84 143q0 42 -10.5 93t-30 100.5t-52.5 83t-73 33.5q-52 0 -75 -44.5t-23 -109.5z" />
    <glyph glyph-name="Gbreve" unicode="&#x11e;" horiz-adv-x="1712" 
d="M809 -20q-331 0 -521 150.5t-190 408.5q0 187 79 359t214 299t326 202.5t405 75.5q247 0 467 -62l-55 -455h-84q-30 177 -133.5 282.5t-290.5 105.5q-111 0 -205.5 -50.5t-159.5 -132.5t-111 -188t-67.5 -216t-21.5 -216q0 -204 98.5 -319t280.5 -115q276 0 317 186
l80 375l-317 -19l47 121h745l-41 -92q-117 0 -137 -100l-61 -297q-1 -5 -2 -12.5t-2 -13t-1 -9.5q0 -66 76 -66l-4 -65q-225 -74 -385 -105.5t-346 -31.5zM946 1978l29 19q-6 -90 52 -152.5t163 -62.5q106 0 191 62.5t118 154.5l21 -21q-41 -166 -146 -281.5t-231 -115.5
q-131 0 -182.5 115t-14.5 282z" />
    <glyph glyph-name="gbreve" unicode="&#x11f;" horiz-adv-x="1124" 
d="M426 -492q-111 0 -208 15t-178 46.5t-128 86.5t-47 127q0 99 89.5 163.5t225.5 90.5q-71 61 -71 133q0 32 79 83.5t174 90.5q-140 17 -223.5 86.5t-83.5 171.5q0 116 78 221.5t206 168.5t269 63q73 0 148 -21q179 250 442 250q41 0 41 -45q0 -79 -40 -147t-93 -68
q-141 0 -256 -33q61 -39 94 -94t33 -119q0 -112 -71 -212t-188.5 -161.5t-250.5 -66.5q-18 -41 -18 -80q0 -12 28 -31t76 -37l258 -90q98 -35 144 -77t46 -107q0 -54 -23.5 -110t-72 -109.5t-115.5 -95.5t-161.5 -67.5t-202.5 -25.5zM186 -154q0 -77 103 -123.5t264 -46.5
q84 0 136 22t52 50q0 39 -90 76l-379 160q-86 -57 -86 -138zM377 770q0 -56 21.5 -124t64.5 -121.5t94 -53.5q84 0 84 143q0 42 -10.5 93t-30 100.5t-52.5 83t-73 33.5q-52 0 -75 -44.5t-23 -109.5zM401 1561l29 18q-6 -90 52 -152.5t163 -62.5q106 0 191 62.5t118 154.5
l21 -20q-41 -166 -146 -282t-231 -116q-131 0 -182.5 115.5t-14.5 282.5z" />
    <glyph glyph-name="Gdotaccent" unicode="&#x120;" horiz-adv-x="1712" 
d="M809 -20q-331 0 -521 150.5t-190 408.5q0 187 79 359t214 299t326 202.5t405 75.5q247 0 467 -62l-55 -455h-84q-30 177 -133.5 282.5t-290.5 105.5q-111 0 -205.5 -50.5t-159.5 -132.5t-111 -188t-67.5 -216t-21.5 -216q0 -204 98.5 -319t280.5 -115q276 0 317 186
l80 375l-317 -19l47 121h745l-41 -92q-117 0 -137 -100l-61 -297q-1 -5 -2 -12.5t-2 -13t-1 -9.5q0 -66 76 -66l-4 -65q-225 -74 -385 -105.5t-346 -31.5zM995 1757q3 87 76.5 155t163.5 68q67 0 107.5 -42.5t37.5 -106.5q-1 -89 -72.5 -158t-158.5 -69q-70 0 -113 44
t-41 109z" />
    <glyph glyph-name="gdotaccent" unicode="&#x121;" horiz-adv-x="1124" 
d="M426 -492q-111 0 -208 15t-178 46.5t-128 86.5t-47 127q0 99 89.5 163.5t225.5 90.5q-71 61 -71 133q0 32 79 83.5t174 90.5q-140 17 -223.5 86.5t-83.5 171.5q0 116 78 221.5t206 168.5t269 63q73 0 148 -21q179 250 442 250q41 0 41 -45q0 -79 -40 -147t-93 -68
q-141 0 -256 -33q61 -39 94 -94t33 -119q0 -112 -71 -212t-188.5 -161.5t-250.5 -66.5q-18 -41 -18 -80q0 -12 28 -31t76 -37l258 -90q98 -35 144 -77t46 -107q0 -54 -23.5 -110t-72 -109.5t-115.5 -95.5t-161.5 -67.5t-202.5 -25.5zM186 -154q0 -77 103 -123.5t264 -46.5
q84 0 136 22t52 50q0 39 -90 76l-379 160q-86 -57 -86 -138zM377 770q0 -56 21.5 -124t64.5 -121.5t94 -53.5q84 0 84 143q0 42 -10.5 93t-30 100.5t-52.5 83t-73 33.5q-52 0 -75 -44.5t-23 -109.5zM453 1339q3 87 76 155.5t163 68.5q67 0 108 -43t38 -107
q-1 -88 -73 -157.5t-159 -69.5q-69 0 -112 43.5t-41 109.5z" />
    <glyph glyph-name="uni0122" unicode="&#x122;" horiz-adv-x="1712" 
d="M809 -20q-331 0 -521 150.5t-190 408.5q0 187 79 359t214 299t326 202.5t405 75.5q247 0 467 -62l-55 -455h-84q-30 177 -133.5 282.5t-290.5 105.5q-111 0 -205.5 -50.5t-159.5 -132.5t-111 -188t-67.5 -216t-21.5 -216q0 -204 98.5 -319t280.5 -115q276 0 317 186
l80 375l-317 -19l47 121h745l-41 -92q-117 0 -137 -100l-61 -297q-1 -5 -2 -12.5t-2 -13t-1 -9.5q0 -66 76 -66l-4 -65q-225 -74 -385 -105.5t-346 -31.5zM571 -643q142 138 142 248q0 33 -15.5 57t-34.5 35t-34.5 25.5t-14.5 31.5q2 56 59 103t126 47q68 0 104.5 -37
t36.5 -100t-32 -128t-87 -121t-111 -100.5t-120 -83.5z" />
    <glyph glyph-name="uni0123" unicode="&#x123;" horiz-adv-x="1124" 
d="M426 -492q-111 0 -208 15t-178 46.5t-128 86.5t-47 127q0 99 89.5 163.5t225.5 90.5q-71 61 -71 133q0 32 79 83.5t174 90.5q-140 17 -223.5 86.5t-83.5 171.5q0 116 78 221.5t206 168.5t269 63q73 0 148 -21q179 250 442 250q41 0 41 -45q0 -79 -40 -147t-93 -68
q-141 0 -256 -33q61 -39 94 -94t33 -119q0 -112 -71 -212t-188.5 -161.5t-250.5 -66.5q-18 -41 -18 -80q0 -12 28 -31t76 -37l258 -90q98 -35 144 -77t46 -107q0 -54 -23.5 -110t-72 -109.5t-115.5 -95.5t-161.5 -67.5t-202.5 -25.5zM186 -154q0 -77 103 -123.5t264 -46.5
q84 0 136 22t52 50q0 39 -90 76l-379 160q-86 -57 -86 -138zM377 770q0 -56 21.5 -124t64.5 -121.5t94 -53.5q84 0 84 143q0 42 -10.5 93t-30 100.5t-52.5 83t-73 33.5q-52 0 -75 -44.5t-23 -109.5zM471 1286q0 63 32 128t87 121t111 99.5t120 83.5l19 -22
q-142 -138 -142 -248q0 -27 10.5 -48t25 -33t29.5 -22t25 -21.5t9 -25.5q-2 -56 -59 -102.5t-126 -46.5q-68 0 -104.5 37t-36.5 100z" />
    <glyph glyph-name="Hcircumflex" unicode="&#x124;" horiz-adv-x="1861" 
d="M989 0l43 98l68 17q99 25 121 141l90 420h-678l-117 -557l199 18l-49 -137h-689l41 98l64 17q62 18 94.5 52t44.5 89l228 1079l-199 -18l51 137h676l-43 -98l-68 -19q-98 -28 -123 -141l-84 -401h676l115 540l-199 -18l49 137h676l-41 -98l-67 -19q-98 -27 -123 -141
l-227 -1077l198 18l-51 -137h-676zM840 1604q114 137 243 268t162 131t100 -127.5t125 -271.5l-28 -23l-248 195l-338 -195z" />
    <glyph glyph-name="hcircumflex" unicode="&#x125;" horiz-adv-x="1329" 
d="M350 1257q17 75 -33 95.5t-208 3.5v110q92 44 278 77.5t342 33.5l-285 -1075h21q60 113 125 207.5t138 175t153 126.5t155 46q94 0 152 -62.5t29 -158.5l-156 -512q-14 -48 -1.5 -65t44.5 -17q54 0 166 51l-8 -115q-89 -77 -218 -137.5t-215 -60.5q-90 0 -114.5 61
t16.5 201l148 501q10 44 4.5 55t-25.5 11q-47 0 -151 -131t-207 -321t-142 -337l-313 -40zM217 1647l40 50t50 62t52.5 64t57 68.5t53.5 62.5t52.5 58.5t43.5 44t36.5 32t22.5 10.5q10 0 23.5 -16.5t29.5 -50.5t30 -67t33 -85t30 -83t29 -84t23 -66l-26 -23l-232 219
l-329 -219z" />
    <glyph glyph-name="Hbar" unicode="&#x126;" horiz-adv-x="1882" 
d="M219 1016l21 98h172l47 221l-199 -18l51 137h676l-43 -98l-67 -19q-98 -28 -123 -141l-17 -82h676l47 221l-198 -18l49 137h676l-41 -98l-68 -19q-98 -27 -123 -141l-16 -82h174l-21 -98h-176l-188 -897l198 18l-51 -137h-676l43 98l68 17q99 25 121 141l90 420h-678
l-117 -557l199 18l-49 -137h-688l41 98l63 17q62 18 94.5 52t44.5 89l160 760h-172zM670 795h676l47 221h-678z" />
    <glyph glyph-name="hbar" unicode="&#x127;" horiz-adv-x="1329" 
d="M174 1149l16 98h158l2 10q17 75 -33 95.5t-208 3.5v110q92 44 278 77.5t342 33.5l-88 -330h258l-16 -98h-267l-172 -647h21q60 113 125 207.5t138 175t153 126.5t155 46q94 0 152 -62.5t29 -158.5l-156 -512q-14 -48 -1.5 -65t44.5 -17q54 0 166 51l-8 -115
q-89 -77 -218 -137.5t-215 -60.5q-90 0 -114.5 61t16.5 201l148 501q10 44 4.5 55t-25.5 11q-47 0 -151 -131t-207 -321t-142 -337l-313 -40l279 1169h-150z" />
    <glyph glyph-name="Itilde" unicode="&#x128;" horiz-adv-x="880" 
d="M-12 0l41 98l65 17q61 17 92.5 50.5t42.5 86.5l232 1083l-201 -18l51 137h676l-39 -98l-69 -19q-98 -26 -121 -137l-232 -1081l199 18l-49 -137h-688zM367 1673q63 113 152.5 204t152.5 91q36 0 145 -63.5t137 -63.5q96 0 193 123l16 -20q-55 -116 -145.5 -207.5
t-153.5 -91.5q-32 0 -80.5 28.5t-102.5 57t-99 28.5q-22 0 -60.5 -19.5t-64 -36t-74.5 -50.5z" />
    <glyph glyph-name="itilde" unicode="&#x129;" horiz-adv-x="784" 
d="M238 -20q-89 0 -111.5 60.5t18.5 201.5l123 417q18 60 -28 96.5t-150 26.5l-16 111q121 61 270 112.5t264 51.5q32 0 48.5 -8t22.5 -31.5t-9 -65.5l-189 -628q-11 -41 1.5 -61.5t41.5 -20.5q30 0 85 14.5t104 36.5l-8 -115q-86 -74 -232.5 -136t-234.5 -62zM205 1241
q65 111 161.5 202t159.5 91q36 0 145.5 -63.5t137.5 -63.5q95 0 192 123l21 -23q-54 -115 -146.5 -206t-156.5 -91q-26 0 -62.5 18t-68.5 39.5t-74 39.5t-78 18q-33 0 -96.5 -33.5t-114.5 -72.5z" />
    <glyph glyph-name="Imacron" unicode="&#x12a;" horiz-adv-x="880" 
d="M-12 0l41 98l65 17q61 17 92.5 50.5t42.5 86.5l232 1083l-201 -18l51 137h676l-39 -98l-69 -19q-98 -26 -121 -137l-232 -1081l199 18l-49 -137h-688zM373 1640q7 31 44 80t62 49h596q-7 -38 -39.5 -83.5t-66.5 -45.5h-596z" />
    <glyph glyph-name="imacron" unicode="&#x12b;" horiz-adv-x="784" 
d="M238 -20q-89 0 -111.5 60.5t18.5 201.5l123 417q18 60 -28 96.5t-150 26.5l-16 111q121 61 270 112.5t264 51.5q32 0 48.5 -8t22.5 -31.5t-9 -65.5l-189 -628q-11 -41 1.5 -61.5t41.5 -20.5q30 0 85 14.5t104 36.5l-8 -115q-86 -74 -232.5 -136t-234.5 -62zM252 1223
q7 31 44 80t62 49h596q-7 -38 -39.5 -83.5t-66.5 -45.5h-596z" />
    <glyph glyph-name="Iogonek" unicode="&#x12e;" horiz-adv-x="880" 
d="M-12 0l41 98l65 17q61 17 92.5 50.5t42.5 86.5l232 1083l-201 -18l51 137h676l-39 -98l-69 -19q-98 -26 -121 -137l-232 -1081l199 18l-49 -137h-234q-73 -53 -120.5 -126.5t-47.5 -102.5q0 -35 26 -59.5t69 -24.5q77 0 139 37l20 -23q-33 -34 -155.5 -110t-139.5 -76
q-81 0 -127.5 34t-46.5 93q0 68 68 169t176 189h-315z" />
    <glyph glyph-name="iogonek" unicode="&#x12f;" horiz-adv-x="784" 
d="M238 -20q-89 0 -111.5 60.5t18.5 201.5l123 417q18 60 -28 96.5t-150 26.5l-16 111q121 61 270 112.5t264 51.5q32 0 48.5 -8t22.5 -31.5t-9 -65.5l-189 -628q-11 -41 1.5 -61.5t41.5 -20.5q30 0 85 14.5t104 36.5l-8 -115q-72 -64 -209 -127q-59 -36 -107 -92t-69 -97.5
t-21 -58.5q0 -35 25.5 -59.5t68.5 -24.5q77 0 139 37l21 -22q-33 -34 -156 -110.5t-139 -76.5q-81 0 -127.5 34t-46.5 93t50.5 142.5t135.5 165.5q-12 -2 -32 -2zM414 1339q3 87 76 155.5t163 68.5q67 0 108 -43t38 -107q-1 -88 -73 -157.5t-159 -69.5q-69 0 -112 43.5
t-41 109.5z" />
    <glyph glyph-name="Idotaccent" unicode="&#x130;" horiz-adv-x="880" 
d="M-12 0l41 98l65 17q61 17 92.5 50.5t42.5 86.5l232 1083l-201 -18l51 137h676l-39 -98l-69 -19q-98 -26 -121 -137l-232 -1081l199 18l-49 -137h-688zM535 1757q3 87 76 155t163 68q67 0 108 -42.5t38 -106.5q-1 -88 -73 -157.5t-159 -69.5q-69 0 -112 43.5t-41 109.5z
" />
    <glyph glyph-name="dotlessi" unicode="&#x131;" horiz-adv-x="784" 
d="M238 -20q-89 0 -111.5 60.5t18.5 201.5l123 417q18 60 -28 96.5t-150 26.5l-16 111q121 61 270 112.5t264 51.5q32 0 48.5 -8t22.5 -31.5t-9 -65.5l-189 -628q-11 -41 1.5 -61.5t41.5 -20.5q30 0 85 14.5t104 36.5l-8 -115q-86 -74 -232.5 -136t-234.5 -62z" />
    <glyph glyph-name="IJ" unicode="&#x132;" horiz-adv-x="1601" 
d="M-12 0l41 98l65 17q61 17 92.5 50.5t42.5 86.5l232 1083l-201 -18l51 137h676l-39 -98l-69 -19q-98 -26 -121 -137l-232 -1081l199 18l-49 -137h-688zM586 -397q179 125 299.5 290t169.5 394l221 1048l-256 -18l49 137h737l-41 -98l-79 -21q-43 -12 -72.5 -50t-40.5 -93
l-191 -883q-33 -156 -95.5 -286.5t-139 -219t-167.5 -151t-180.5 -92t-176.5 -31.5z" />
    <glyph glyph-name="ij" unicode="&#x133;" horiz-adv-x="1521" 
d="M238 -20q-89 0 -111.5 60.5t18.5 201.5l123 417q18 60 -28 96.5t-150 26.5l-16 111q121 61 270 112.5t264 51.5q32 0 48.5 -8t22.5 -31.5t-9 -65.5l-189 -628q-11 -41 1.5 -61.5t41.5 -20.5q30 0 85 14.5t104 36.5l-8 -115q-86 -74 -232.5 -136t-234.5 -62zM342 -416
q0 63 38 139t77 76q44 0 158.5 -51t158.5 -51q62 0 99 70.5t71 222.5l146 669q17 78 -26.5 106t-154.5 17l-16 111q64 32 107 52t117.5 50.5t144.5 46t131 15.5q46 0 60.5 -21.5t2.5 -83.5l-168 -805q-66 -323 -265.5 -481t-582.5 -158q-53 0 -75.5 23.5t-22.5 52.5z
M414 1339q3 87 76 155.5t163 68.5q67 0 108 -43t38 -107q-1 -88 -73 -157.5t-159 -69.5q-69 0 -112 43.5t-41 109.5zM1198 1339q3 87 76.5 155.5t163.5 68.5q67 0 107.5 -43t37.5 -107q-1 -89 -72.5 -158t-158.5 -69q-70 0 -113 44t-41 109z" />
    <glyph glyph-name="Jcircumflex" unicode="&#x134;" horiz-adv-x="720" 
d="M-295 -397q179 125 299.5 290t169.5 394l221 1048l-256 -18l49 137h738l-41 -98l-80 -21q-43 -12 -72.5 -50t-40.5 -93l-190 -883q-33 -156 -95.5 -286.5t-139.5 -219t-168 -151t-180.5 -92t-176.5 -31.5zM291 1604q114 137 243 268t162 131t101 -128t125 -271l-29 -23
l-248 195l-338 -195z" />
    <glyph glyph-name="jcircumflex" unicode="&#x135;" horiz-adv-x="743" 
d="M-336 -492q-53 0 -75.5 23.5t-22.5 52.5q0 63 38 139t77 76q44 0 158.5 -51t158.5 -51q62 0 99 70.5t71 222.5l145 669q17 78 -26 106t-154 17l-16 111q64 32 107 52t117.5 50.5t144 46t130.5 15.5q46 0 61 -21.5t3 -83.5l-168 -805q-66 -323 -265.5 -481t-582.5 -158z
M270 1186l40 50t50 62t52.5 64t57 68.5t53.5 62.5t52.5 58.5t43.5 44t36.5 32t22.5 10.5q10 0 23.5 -16t30 -51.5t30 -66t33.5 -85.5t30 -83t29.5 -84.5t22.5 -65.5l-27 -23l-232 219l-329 -219z" />
    <glyph glyph-name="uni0136" unicode="&#x136;" horiz-adv-x="1728" 
d="M1575 -20q-273 0 -410.5 51.5t-208.5 177.5l-254 448l9 37l778 637l-252 -14l49 137h600l-41 -98q-115 -14 -182.5 -47.5t-144.5 -98.5l-529 -432l291 -465q71 -116 135 -176.5t180 -116.5zM-20 0l43 98l63 17q53 14 89 51t46 90l232 1079l-203 -18l51 137h676l-41 -98
l-68 -19q-96 -29 -118 -137l-232 -1081l180 18l-51 -137h-667zM573 -643q142 138 142 248q0 33 -15.5 57t-34.5 35t-34.5 25.5t-14.5 31.5q2 56 59 103t126 47q68 0 104.5 -37t36.5 -100t-32 -128t-87 -121t-111 -100.5t-120 -83.5z" />
    <glyph glyph-name="uni0137" unicode="&#x137;" horiz-adv-x="1232" 
d="M784 -20q-71 0 -107.5 57.5t-60.5 177.5l-41 213q-152 -172 -206 -408l-314 -40l295 1306q12 54 -3 78t-70 31.5t-160 -6.5v110q93 45 273.5 78t334.5 33l-254 -1129q72 115 155.5 217.5t172.5 183t180.5 128t169.5 47.5q28 0 46.5 -14t18.5 -39q0 -54 -30.5 -145
t-77.5 -107q-225 -74 -385 -195l86 -174q26 -53 70.5 -82t93.5 -29q65 0 174 50l8 -115q-97 -100 -197 -163.5t-172 -63.5zM260 -643q141 137 141 248q0 33 -15.5 57t-34 35t-34 25.5t-14.5 31.5q2 56 59 103t125 47t105 -37t37 -100t-32 -128t-87 -121t-111 -100.5
t-120 -83.5z" />
    <glyph glyph-name="kgreenlandic" unicode="&#x138;" horiz-adv-x="1277" 
d="M262 659q15 63 -25 88t-155 3l-16 110q97 76 244 136.5t268 60.5q49 0 63 -20.5t-2 -84.5l-131 -454h20q97 152 209 276t234.5 203.5t222.5 79.5q28 0 47 -14t19 -39q0 -30 -11 -81.5t-37.5 -105.5t-60.5 -65q-225 -74 -385 -195l88 -178q26 -50 70 -78.5t92 -28.5
q65 0 174 50l8 -115q-97 -100 -197 -163.5t-172 -63.5q-71 0 -107 57.5t-60 177.5l-41 213q-123 -139 -183 -315l-20 -93l-312 -40z" />
    <glyph glyph-name="Lacute" unicode="&#x139;" horiz-adv-x="1300" 
d="M-23 0l41 98l64 17q116 29 137 133l232 1087l-201 -18l51 137h737l-41 -98l-125 -19q-59 -9 -84.5 -36.5t-42.5 -104.5l-229 -1077h219q116 0 232.5 111.5t218.5 289.5h84l-219 -577q-121 57 -265 57h-809zM508 1571q74 101 162 207t177 192t124 86q45 0 63.5 -48
t9.5 -101q-8 -35 -31 -66t-62.5 -58.5t-63.5 -41t-70 -37.5l-291 -156z" />
    <glyph glyph-name="lacute" unicode="&#x13a;" horiz-adv-x="739" 
d="M340 1253q19 79 -26.5 99.5t-204.5 3.5v110q93 45 275.5 78t338.5 33l-299 -1253q-10 -52 0 -67t41 -15q70 0 182 51l-8 -115q-87 -76 -225.5 -137t-225.5 -61t-106.5 60t16.5 202zM342 1630q74 101 162 207.5t177 192.5t124 86q45 0 64 -48.5t10 -101.5q-8 -35 -31 -66
t-63 -58.5t-63.5 -41t-70.5 -37.5l-291 -155z" />
    <glyph glyph-name="uni013B" unicode="&#x13b;" horiz-adv-x="1300" 
d="M-23 0l41 98l64 17q116 29 137 133l232 1087l-201 -18l51 137h737l-41 -98l-125 -19q-59 -9 -84.5 -36.5t-42.5 -104.5l-229 -1077h219q116 0 232.5 111.5t218.5 289.5h84l-219 -577q-121 57 -265 57h-809zM365 -643q141 137 141 248q0 33 -15.5 57t-34 35t-34 25.5
t-14.5 31.5q2 56 59 103t125 47t104.5 -37t36.5 -100t-32 -128t-87 -121t-111 -100.5t-120 -83.5z" />
    <glyph glyph-name="uni013C" unicode="&#x13c;" horiz-adv-x="739" 
d="M340 1253q19 79 -26.5 99.5t-204.5 3.5v110q93 45 275.5 78t338.5 33l-299 -1253q-10 -52 0 -67t41 -15q70 0 182 51l-8 -115q-87 -76 -225.5 -137t-225.5 -61t-106.5 60t16.5 202zM-2 -643q141 137 141 248q0 33 -15.5 57t-34 35t-34 25.5t-14.5 31.5q2 56 59 103
t125 47t105 -37t37 -100q0 -51 -22.5 -104.5t-57 -98t-82.5 -89t-93.5 -77.5t-95.5 -64z" />
    <glyph glyph-name="Lcaron" unicode="&#x13d;" horiz-adv-x="1300" 
d="M-23 0l41 98l64 17q116 29 137 133l232 1087l-201 -18l51 137h737l-41 -98l-125 -19q-59 -9 -84.5 -36.5t-42.5 -104.5l-229 -1077h219q116 0 232.5 111.5t218.5 289.5h84l-219 -577q-121 57 -265 57h-809zM1141 938l73 328q23 102 58 145t123 43q48 0 77 -21.5t29 -60.5
q0 -25 -17 -57t-90 -123.5t-216 -253.5h-37z" />
    <glyph glyph-name="lcaron" unicode="&#x13e;" horiz-adv-x="739" 
d="M340 1253q19 79 -26.5 99.5t-204.5 3.5v110q93 45 275.5 78t338.5 33l-299 -1253q-10 -52 0 -67t41 -15q70 0 182 51l-8 -115q-87 -76 -225.5 -137t-225.5 -61t-106.5 60t16.5 202zM727 1038l74 328q12 51 22.5 80.5t30 57t50.5 39t77 11.5q48 0 77 -21t29 -60
q0 -25 -17 -57t-90 -124t-216 -254h-37z" />
    <glyph glyph-name="Lslash" unicode="&#x141;" horiz-adv-x="1300" 
d="M-23 0l41 98l64 17q116 29 137 133l76 360l-191 -57l23 104l190 58l134 622l-201 -18l51 137h737l-41 -98l-125 -19q-59 -9 -84.5 -36.5t-42.5 -104.5l-81 -381l362 107l-22 -105l-361 -106l-127 -592h219q116 0 232.5 111.5t218.5 289.5h84l-219 -577q-121 57 -265 57
h-809z" />
    <glyph glyph-name="lslash" unicode="&#x142;" horiz-adv-x="739" 
d="M340 1253q19 79 -26.5 99.5t-204.5 3.5v110q93 45 275.5 78t338.5 33l-172 -721l174 66l-20 -113l-181 -70l-100 -415q-10 -52 0 -67t41 -15q70 0 182 51l-8 -115q-87 -76 -225.5 -137t-225.5 -61t-106.5 60t16.5 202l88 370l-182 -69l21 112l190 72z" />
    <glyph glyph-name="Nacute" unicode="&#x143;" horiz-adv-x="1679" 
d="M-39 0l41 98l107 11q57 5 87 29.5t42 78.5l213 1004q-85 107 -228 192l17 41h489l621 -971l182 852l-275 -18l52 137h604l-41 -98l-103 -10q-112 -12 -137 -132l-239 -1136l-150 -98l-696 1093l-203 -954l270 18l-49 -137h-604zM938 1604q368 401 434 401q35 0 54 -35.5
t10 -81.5q-6 -28 -18 -52t-23.5 -41t-33.5 -33.5t-34.5 -25.5t-40 -21.5t-37.5 -16.5t-39 -15l-256 -102z" />
    <glyph glyph-name="nacute" unicode="&#x144;" horiz-adv-x="1374" 
d="M66 860q97 76 244 136.5t268 60.5q49 0 63.5 -20.5t-2.5 -84.5l-131 -434h18q58 110 119 202t130.5 170t144.5 122.5t145 44.5q105 0 167 -62t32 -159l-156 -512q-14 -48 -1.5 -65t44.5 -17q54 0 166 51l-8 -115q-89 -77 -219 -137.5t-216 -60.5q-89 0 -113.5 60.5
t15.5 201.5l150 501q10 44 4.5 55t-25.5 11q-47 0 -148 -131t-200.5 -320.5t-138.5 -337.5l-312 -40l156 679q15 63 -25 88t-155 3zM688 1153q74 101 162 207t177 192t124 86q45 0 64 -48t10 -101q-8 -35 -31 -66t-63 -58.5t-63.5 -41t-70.5 -37.5l-290 -156z" />
    <glyph glyph-name="uni0145" unicode="&#x145;" horiz-adv-x="1679" 
d="M-39 0l41 98l107 11q57 5 87 29.5t42 78.5l213 1004q-85 107 -228 192l17 41h489l621 -971l182 852l-275 -18l52 137h604l-41 -98l-103 -10q-112 -12 -137 -132l-239 -1136l-150 -98l-696 1093l-203 -954l270 18l-49 -137h-604zM594 -643q141 137 141 248q0 33 -15.5 57
t-34 35t-34 25.5t-14.5 31.5q2 56 59 103t125 47t105 -37t37 -100q0 -51 -22.5 -104.5t-57 -98t-82.5 -89t-93.5 -77.5t-95.5 -64z" />
    <glyph glyph-name="uni0146" unicode="&#x146;" horiz-adv-x="1374" 
d="M66 860q97 76 244 136.5t268 60.5q49 0 63.5 -20.5t-2.5 -84.5l-131 -434h18q58 110 119 202t130.5 170t144.5 122.5t145 44.5q105 0 167 -62t32 -159l-156 -512q-14 -48 -1.5 -65t44.5 -17q54 0 166 51l-8 -115q-89 -77 -219 -137.5t-216 -60.5q-89 0 -113.5 60.5
t15.5 201.5l150 501q10 44 4.5 55t-25.5 11q-47 0 -148 -131t-200.5 -320.5t-138.5 -337.5l-312 -40l156 679q15 63 -25 88t-155 3zM317 -643q142 138 142 248q0 33 -15.5 57t-34.5 35t-34.5 25.5t-14.5 31.5q2 56 59 103t126 47q68 0 104.5 -37t36.5 -100t-32 -128
t-87 -121t-111 -100.5t-120 -83.5z" />
    <glyph glyph-name="Ncaron" unicode="&#x147;" horiz-adv-x="1679" 
d="M-39 0l41 98l107 11q57 5 87 29.5t42 78.5l213 1004q-85 107 -228 192l17 41h489l621 -971l182 852l-275 -18l52 137h604l-41 -98l-103 -10q-112 -12 -137 -132l-239 -1136l-150 -98l-696 1093l-203 -954l270 18l-49 -137h-604zM877 1982l28 23l248 -195l338 195l16 -23
q-114 -137 -243 -268t-162 -131t-100 127.5t-125 271.5z" />
    <glyph glyph-name="ncaron" unicode="&#x148;" horiz-adv-x="1374" 
d="M66 860q97 76 244 136.5t268 60.5q49 0 63.5 -20.5t-2.5 -84.5l-131 -434h18q58 110 119 202t130.5 170t144.5 122.5t145 44.5q105 0 167 -62t32 -159l-156 -512q-14 -48 -1.5 -65t44.5 -17q54 0 166 51l-8 -115q-89 -77 -219 -137.5t-216 -60.5q-89 0 -113.5 60.5
t15.5 201.5l150 501q10 44 4.5 55t-25.5 11q-47 0 -148 -131t-200.5 -320.5t-138.5 -337.5l-312 -40l156 679q15 63 -25 88t-155 3zM662 1618l26 20l232 -219l333 219l19 -22q-232 -288 -315 -375q-74 -78 -95 -78q-14 0 -34 31.5t-44.5 92.5t-43 109.5t-45 125t-33.5 96.5z
" />
    <glyph glyph-name="Eng" unicode="&#x14a;" horiz-adv-x="1679" 
d="M850 -397q131 53 232 149.5t155 237.5l-690 1083l-203 -954l270 18l-49 -137h-604l41 98l107 11q57 5 87 29.5t42 78.5l213 1002q-47 61 -100.5 105t-127.5 89l17 41h489l621 -973l182 854l-275 -18l52 137h604l-41 -98l-103 -10q-112 -12 -137 -132l-239 -1136
q-25 -112 -79 -209.5t-123.5 -165.5t-147 -112.5t-154.5 -61.5z" />
    <glyph glyph-name="eng" unicode="&#x14b;" horiz-adv-x="1298" 
d="M201 -492q-53 0 -76 23.5t-23 52.5q0 63 38 139t77 76q44 0 159 -51t159 -51q22 0 39.5 8t33 28.5t27 41t24.5 59.5t22 70t24 86l208 753q10 44 5 55t-25 11q-46 0 -147.5 -131t-202.5 -321t-140 -337l-313 -40l158 679q15 63 -25 88t-155 3l-17 110q97 76 244 136.5
t268 60.5q49 0 64 -20.5t-2 -84.5l-133 -434h20l-2 -4q58 111 120 203.5t132 171.5t145 123.5t146 44.5q105 0 165.5 -62t32.5 -159l-190 -689q-44 -160 -109 -274t-166 -198.5t-246 -125.5t-339 -41z" />
    <glyph glyph-name="Omacron" unicode="&#x14c;" horiz-adv-x="1736" 
d="M766 -20q-145 0 -269 46.5t-210 127.5t-134.5 191.5t-48.5 236.5q0 169 79 332.5t210 286.5t312 198.5t374 75.5q143 0 266.5 -47t209 -127.5t134 -191.5t48.5 -237q0 -173 -78.5 -337t-209 -285.5t-310.5 -195.5t-373 -74zM473 616q0 -218 103.5 -362.5t265.5 -144.5
q122 0 224.5 67t166.5 174t99.5 234.5t35.5 253.5q0 218 -103 363t-264 145q-99 0 -186 -45.5t-148 -120.5t-106 -170t-66.5 -196t-21.5 -198zM797 1640q7 31 44 80t62 49h596q-7 -38 -39.5 -83.5t-66.5 -45.5h-596z" />
    <glyph glyph-name="omacron" unicode="&#x14d;" horiz-adv-x="1028" 
d="M362 -18q-148 0 -231.5 100t-83.5 264q0 116 48.5 242t129.5 230t197.5 171.5t241.5 67.5q147 0 230 -107.5t83 -275.5q0 -121 -48 -245t-128.5 -223t-196.5 -161.5t-242 -62.5zM313 1223q7 31 44.5 80t62.5 49h596q-7 -38 -39.5 -83.5t-67.5 -45.5h-596zM352 627
q0 -94 26.5 -197t72.5 -175.5t96 -72.5q39 0 68.5 40t42 92.5t12.5 105.5q0 95 -27 196t-72 170.5t-92 69.5q-36 0 -62.5 -21.5t-39.5 -57.5t-19 -73t-6 -77z" />
    <glyph glyph-name="Ohungarumlaut" unicode="&#x150;" horiz-adv-x="1736" 
d="M766 -20q-145 0 -269 46.5t-210 127.5t-134.5 191.5t-48.5 236.5q0 169 79 332.5t210 286.5t312 198.5t374 75.5q143 0 266.5 -47t209 -127.5t134 -191.5t48.5 -237q0 -173 -78.5 -337t-209 -285.5t-310.5 -195.5t-373 -74zM473 616q0 -218 103.5 -362.5t265.5 -144.5
q122 0 224.5 67t166.5 174t99.5 234.5t35.5 253.5q0 218 -103 363t-264 145q-99 0 -186 -45.5t-148 -120.5t-106 -170t-66.5 -196t-21.5 -198zM899 1628q237 428 326 428q35 0 60.5 -32t19.5 -60q-8 -35 -54.5 -80t-140.5 -121l-192 -157zM1102 1604q94 138 203 254t151 116
q30 0 48 -19.5t22 -41t0 -37.5q-9 -37 -50 -71.5t-147 -98.5l-211 -125z" />
    <glyph glyph-name="ohungarumlaut" unicode="&#x151;" horiz-adv-x="1028" 
d="M362 -18q-148 0 -231.5 100t-83.5 264q0 116 48.5 242t129.5 230t197.5 171.5t241.5 67.5q147 0 230 -107.5t83 -275.5q0 -121 -48 -245t-128.5 -223t-196.5 -161.5t-242 -62.5zM352 627q0 -94 26.5 -197t72.5 -175.5t96 -72.5q39 0 68.5 40t42 92.5t12.5 105.5
q0 95 -27 196t-72 170.5t-92 69.5q-36 0 -62.5 -21.5t-39.5 -57.5t-19 -73t-6 -77zM414 1210q237 428 325 428q35 0 60.5 -32t19.5 -60q-8 -35 -54 -79.5t-140 -120.5l-193 -158zM616 1186q94 138 203.5 254t151.5 116q30 0 48 -19.5t21.5 -41t-0.5 -37.5q-9 -37 -49.5 -72
t-146.5 -98l-211 -125z" />
    <glyph glyph-name="OE" unicode="&#x152;" horiz-adv-x="2344" 
d="M799 0q-314 0 -506.5 158.5t-192.5 410.5q0 182 89.5 348t235 282.5t336.5 185.5t388 69h885q141 0 286 57l-34 -520h-84q-20 86 -42 145.5t-54.5 106.5t-78.5 69.5t-108 22.5h-274l-115 -532h166q84 0 142 50t110 181h84l-121 -569h-84q1 130 -35.5 178.5t-120.5 48.5
h-164l-123 -573h349q217 0 446 401h84l-221 -577q-114 57 -264 57h-979zM461 561q0 -206 102.5 -324t288.5 -118h207l260 1216h-227q-125 0 -231 -48.5t-178.5 -127.5t-123.5 -181t-74.5 -208t-23.5 -209z" />
    <glyph glyph-name="oe" unicode="&#x153;" horiz-adv-x="1583" 
d="M1006 -20q-92 0 -166 38t-117 107q-163 -143 -361 -143q-148 0 -231.5 100t-83.5 264q0 116 48.5 242t129.5 230t197.5 171.5t241.5 67.5q96 0 166 -48.5t108 -134.5q210 183 434 183q99 0 157 -49.5t58 -120.5q0 -219 -504 -422l-6 102q85 48 139 116.5t54 133.5
q0 82 -62 82q-55 0 -107.5 -74t-83 -184.5t-30.5 -216.5q0 -199 160 -199q80 0 169.5 49t174.5 136l25 -115q-83 -140 -216.5 -227.5t-293.5 -87.5zM352 627q0 -94 26.5 -197t72.5 -175.5t96 -72.5t81 57t40 134q0 12 2 18v29q0 95 -27 196t-72 170.5t-92 69.5
q-36 0 -62.5 -21.5t-39.5 -57.5t-19 -73t-6 -77z" />
    <glyph glyph-name="Racute" unicode="&#x154;" horiz-adv-x="1703" 
d="M-23 0l41 98l80 23q99 23 125 145l228 1069l-201 -18l51 137h664q257 0 408 -87t151 -251q0 -170 -130.5 -295t-308.5 -153l162 -355q50 -114 117.5 -172t198.5 -121l-21 -40q-292 0 -434.5 48.5t-183.5 184.5l-129 408h-172l-107 -502l199 18l-49 -137h-689zM643 719
h154q110 0 196.5 59t130 148.5t43.5 187.5q0 103 -63.5 162t-175.5 59h-152zM860 1604q368 401 434 401q35 0 54 -35.5t10 -81.5q-8 -38 -27.5 -69.5t-38 -50t-53 -37.5t-51.5 -26t-55 -22l-256 -102z" />
    <glyph glyph-name="racute" unicode="&#x155;" horiz-adv-x="993" 
d="M66 860q103 81 230 139t245 58q49 0 63.5 -19.5t-2.5 -85.5l-104 -350h18q101 212 223 333.5t258 121.5q31 0 48.5 -20.5t17.5 -57.5q0 -94 -52.5 -183t-133.5 -116l-203 -68q-80 -54 -140 -186t-128 -377l-7 -29l-317 -40l180 679q16 63 -24.5 88t-155.5 3zM547 1153
q74 101 162 207t177 192t124 86q45 0 63.5 -48t9.5 -101q-8 -35 -31 -66t-62.5 -58.5t-63.5 -41t-70 -37.5l-291 -156z" />
    <glyph glyph-name="uni0156" unicode="&#x156;" horiz-adv-x="1703" 
d="M-23 0l41 98l80 23q99 23 125 145l228 1069l-201 -18l51 137h664q257 0 408 -87t151 -251q0 -170 -130.5 -295t-308.5 -153l162 -355q50 -114 117.5 -172t198.5 -121l-21 -40q-292 0 -434.5 48.5t-183.5 184.5l-129 408h-172l-107 -502l199 18l-49 -137h-689zM537 -643
q141 137 141 248q0 33 -15.5 57t-34 35t-34 25.5t-14.5 31.5q2 56 59 103t125 47t104.5 -37t36.5 -100t-32 -128t-87 -121t-111 -100.5t-120 -83.5zM643 719h154q110 0 196.5 59t130 148.5t43.5 187.5q0 103 -63.5 162t-175.5 59h-152z" />
    <glyph glyph-name="uni0157" unicode="&#x157;" horiz-adv-x="993" 
d="M66 860q103 81 230 139t245 58q49 0 63.5 -19.5t-2.5 -85.5l-104 -350h18q101 212 223 333.5t258 121.5q31 0 48.5 -20.5t17.5 -57.5q0 -94 -52.5 -183t-133.5 -116l-203 -68q-80 -54 -140 -186t-128 -377l-7 -29l-317 -40l180 679q16 63 -24.5 88t-155.5 3zM-10 -643
q141 137 141 248q0 33 -15.5 57t-34 35t-34 25.5t-14.5 31.5q2 56 59 103t125 47t104.5 -37t36.5 -100t-32 -128t-87 -121t-111 -100.5t-120 -83.5z" />
    <glyph glyph-name="Rcaron" unicode="&#x158;" horiz-adv-x="1703" 
d="M-23 0l41 98l80 23q99 23 125 145l228 1069l-201 -18l51 137h664q257 0 408 -87t151 -251q0 -170 -130.5 -295t-308.5 -153l162 -355q50 -114 117.5 -172t198.5 -121l-21 -40q-292 0 -434.5 48.5t-183.5 184.5l-129 408h-172l-107 -502l199 18l-49 -137h-689zM643 719
h154q110 0 196.5 59t130 148.5t43.5 187.5q0 103 -63.5 162t-175.5 59h-152zM799 1982l28 23l248 -195l338 195l17 -23q-114 -136 -243.5 -267.5t-162.5 -131.5t-100 127.5t-125 271.5z" />
    <glyph glyph-name="rcaron" unicode="&#x159;" horiz-adv-x="993" 
d="M66 860q103 81 230 139t245 58q49 0 63.5 -19.5t-2.5 -85.5l-104 -350h18q101 212 223 333.5t258 121.5q31 0 48.5 -20.5t17.5 -57.5q0 -94 -52.5 -183t-133.5 -116l-203 -68q-80 -54 -140 -186t-128 -377l-7 -29l-317 -40l180 679q16 63 -24.5 88t-155.5 3zM520 1618
l27 20l231 -219l334 219l18 -22q-8 -10 -40.5 -50.5t-50 -62t-52.5 -64t-57 -68.5t-53.5 -62.5t-52.5 -59t-43.5 -44t-37 -32t-22.5 -10.5q-10 0 -23.5 17.5t-29.5 50t-31 68.5t-33 84t-31 85t-29 83t-24 67z" />
    <glyph glyph-name="Sacute" unicode="&#x15a;" horiz-adv-x="1196" 
d="M514 -20q-250 0 -485 81l47 467h84q43 -207 151.5 -313t259.5 -106q127 0 211 75t84 178q0 81 -77 132t-246 98q-203 55 -290 137t-87 197t55.5 217.5t147.5 175t216.5 114.5t258.5 42q147 0 373 -66l-66 -420h-86q-42 352 -313 352q-134 0 -220 -76.5t-86 -179.5
q0 -66 73.5 -115t260.5 -100q190 -51 275.5 -136t85.5 -206q0 -104 -46.5 -203t-127 -175.5t-199.5 -123t-254 -46.5zM653 1604q368 401 434 401q35 0 54 -35.5t10 -81.5q-8 -38 -27.5 -69.5t-38 -50t-53 -37.5t-51.5 -26t-55 -22l-256 -102z" />
    <glyph glyph-name="sacute" unicode="&#x15b;" horiz-adv-x="946" 
d="M-4 137q0 43 11 91t38 88t64 40q33 0 87.5 -35.5t103.5 -78t102 -78t83 -35.5q17 0 28 12.5t11 32.5q0 51 -45 119.5t-121 138.5q-204 188 -204 305q0 60 32.5 117t90.5 102.5t146 73t191 27.5q44 0 100.5 -7.5t117.5 -22.5t102 -45t41 -69q0 -27 -18.5 -75.5
t-50.5 -90.5t-62 -42q-29 0 -75.5 31.5t-88.5 68.5t-91 68.5t-81 31.5q-25 0 -38 -13t-13 -46q0 -92 157 -242q95 -93 152 -172.5t57 -148.5q0 -130 -107 -216.5t-300 -86.5q-78 0 -177 24t-171 61.5t-72 71.5zM463 1153q74 101 162 207t177 192t124 86q45 0 63.5 -48
t9.5 -101q-8 -35 -31 -66t-62.5 -58.5t-63.5 -41t-70 -37.5l-291 -156z" />
    <glyph glyph-name="Scircumflex" unicode="&#x15c;" horiz-adv-x="1196" 
d="M514 -20q-250 0 -485 81l47 467h84q43 -207 151.5 -313t259.5 -106q127 0 211 75t84 178q0 81 -77 132t-246 98q-203 55 -290 137t-87 197t55.5 217.5t147.5 175t216.5 114.5t258.5 42q147 0 373 -66l-66 -420h-86q-42 352 -313 352q-134 0 -220 -76.5t-86 -179.5
q0 -66 73.5 -115t260.5 -100q190 -51 275.5 -136t85.5 -206q0 -104 -46.5 -203t-127 -175.5t-199.5 -123t-254 -46.5zM522 1604q114 136 243.5 267.5t162.5 131.5t100 -127.5t125 -271.5l-29 -23l-247 195l-338 -195z" />
    <glyph glyph-name="scircumflex" unicode="&#x15d;" horiz-adv-x="946" 
d="M-4 137q0 43 11 91t38 88t64 40q33 0 87.5 -35.5t103.5 -78t102 -78t83 -35.5q17 0 28 12.5t11 32.5q0 51 -45 119.5t-121 138.5q-204 188 -204 305q0 60 32.5 117t90.5 102.5t146 73t191 27.5q44 0 100.5 -7.5t117.5 -22.5t102 -45t41 -69q0 -27 -18.5 -75.5
t-50.5 -90.5t-62 -42q-29 0 -75.5 31.5t-88.5 68.5t-91 68.5t-81 31.5q-25 0 -38 -13t-13 -46q0 -92 157 -242q95 -93 152 -172.5t57 -148.5q0 -130 -107 -216.5t-300 -86.5q-78 0 -177 24t-171 61.5t-72 71.5zM354 1186l40 50t50 62t52.5 64t57 68.5t53.5 62.5t52.5 58.5
t43.5 44t36.5 32t22.5 10.5q10 0 23.5 -16t30 -51.5t30 -66t33.5 -85.5t30 -83t29.5 -84.5t22.5 -65.5l-27 -23l-232 219l-329 -219z" />
    <glyph glyph-name="Scedilla" unicode="&#x15e;" horiz-adv-x="1196" 
d="M295 -545q127 110 127 199q0 37 -21.5 63.5t-72.5 65.5l149 197q-229 5 -448 81l47 467h84q43 -207 151.5 -313t259.5 -106q127 0 211 75t84 178q0 81 -77 132t-246 98q-203 55 -290 137t-87 197t55.5 217.5t147.5 175t216.5 114.5t258.5 42q147 0 373 -66l-66 -420h-86
q-42 352 -313 352q-134 0 -220 -76.5t-86 -179.5q0 -66 73.5 -115t260.5 -100q190 -51 275.5 -136t85.5 -206q0 -132 -70.5 -251.5t-202 -200.5t-295.5 -94l-30 -70q112 -69 112 -150q0 -96 -109 -192t-233 -137z" />
    <glyph glyph-name="scedilla" unicode="&#x15f;" horiz-adv-x="946" 
d="M-4 137q0 43 11 91t38 88t64 40q33 0 87.5 -35.5t103.5 -78t102 -78t83 -35.5q17 0 28 12.5t11 32.5q0 51 -45 119.5t-121 138.5q-204 188 -204 305q0 60 32.5 117t90.5 102.5t146 73t191 27.5q44 0 100.5 -7.5t117.5 -22.5t102 -45t41 -69q0 -27 -18.5 -75.5
t-50.5 -90.5t-62 -42q-29 0 -75.5 31.5t-88.5 68.5t-91 68.5t-81 31.5q-25 0 -38 -13t-13 -46q0 -92 157 -242q95 -93 152 -172.5t57 -148.5q0 -126 -102.5 -212.5t-286.5 -90.5l-28 -68q112 -69 112 -150q0 -96 -109 -192t-233 -137l-18 22q127 110 127 199q0 37 -22 63.5
t-73 65.5l154 201q-123 16 -235.5 62.5t-112.5 90.5z" />
    <glyph glyph-name="Scaron" unicode="&#x160;" horiz-adv-x="1196" 
d="M514 -20q-250 0 -485 81l47 467h84q43 -207 151.5 -313t259.5 -106q127 0 211 75t84 178q0 81 -77 132t-246 98q-203 55 -290 137t-87 197t55.5 217.5t147.5 175t216.5 114.5t258.5 42q147 0 373 -66l-66 -420h-86q-42 352 -313 352q-134 0 -220 -76.5t-86 -179.5
q0 -66 73.5 -115t260.5 -100q190 -51 275.5 -136t85.5 -206q0 -104 -46.5 -203t-127 -175.5t-199.5 -123t-254 -46.5zM592 1982l29 23l247 -195l338 195l17 -23q-114 -136 -243.5 -267.5t-162.5 -131.5t-100 127.5t-125 271.5z" />
    <glyph glyph-name="scaron" unicode="&#x161;" horiz-adv-x="946" 
d="M-4 137q0 43 11 91t38 88t64 40q33 0 87.5 -35.5t103.5 -78t102 -78t83 -35.5q17 0 28 12.5t11 32.5q0 51 -45 119.5t-121 138.5q-204 188 -204 305q0 60 32.5 117t90.5 102.5t146 73t191 27.5q44 0 100.5 -7.5t117.5 -22.5t102 -45t41 -69q0 -27 -18.5 -75.5
t-50.5 -90.5t-62 -42q-29 0 -75.5 31.5t-88.5 68.5t-91 68.5t-81 31.5q-25 0 -38 -13t-13 -46q0 -92 157 -242q95 -93 152 -172.5t57 -148.5q0 -130 -107 -216.5t-300 -86.5q-78 0 -177 24t-171 61.5t-72 71.5zM436 1618l27 20l231 -219l334 219l19 -22q-232 -288 -315 -375
q-74 -78 -95 -78q-10 0 -23.5 17.5t-29.5 50t-31 68.5t-33 84t-31 85t-29 83t-24 67z" />
    <glyph glyph-name="uni0162" unicode="&#x162;" horiz-adv-x="1456" 
d="M262 0l41 98l92 27q114 35 142 162l223 1048h-148q-53 0 -99.5 -21.5t-88 -67t-75 -96t-75.5 -126.5h-84l142 471q119 -41 272 -41h690q143 0 293 41l-59 -471h-84q-28 156 -52 209q-41 92 -132 101q-11 1 -23 1h-152l-260 -1216l240 18l-49 -137h-350l-39 -88
q112 -69 112 -150q0 -96 -109 -192t-233 -137l-18 22q127 110 127 199q0 37 -21.5 63.5t-72.5 65.5l166 217h-316z" />
    <glyph glyph-name="uni0163" unicode="&#x163;" horiz-adv-x="890" 
d="M154 215l168 719h-197l20 102l246 66l281 270h76l-80 -336h317l-20 -102h-320l-145 -612q-19 -82 57 -82q44 0 124 35t138 83v-114q-92 -98 -203 -167t-213 -89l-32 -76q112 -69 112 -150q0 -96 -109 -192t-233 -137l-18 22q127 110 127 199q0 37 -21.5 63.5t-72.5 65.5
l151 197q-99 9 -136.5 73.5t-16.5 161.5z" />
    <glyph glyph-name="Tcaron" unicode="&#x164;" horiz-adv-x="1456" 
d="M262 0l41 98l92 27q114 35 142 162l223 1048h-148q-53 0 -99.5 -21.5t-88 -67t-75 -96t-75.5 -126.5h-84l142 471q119 -41 272 -41h690q143 0 293 41l-59 -471h-84q-28 156 -52 209q-41 92 -132 101q-11 1 -23 1h-152l-260 -1216l240 18l-49 -137h-754zM735 1982l29 23
l248 -195l338 195l16 -23q-114 -137 -243 -268t-162 -131t-101 128t-125 271z" />
    <glyph glyph-name="tcaron" unicode="&#x165;" horiz-adv-x="890" 
d="M154 215l168 719h-197l20 102l246 66l281 270h76l-80 -336h317l-20 -102h-320l-145 -612q-19 -82 57 -82q44 0 124 35t138 83v-114q-110 -117 -243 -190.5t-246 -73.5q-111 0 -155 66.5t-21 168.5zM813 1128l74 328q12 51 22.5 80.5t30 57.5t50.5 39.5t77 11.5
q48 0 77.5 -21.5t29.5 -60.5q0 -25 -17 -57.5t-90.5 -124t-216.5 -253.5h-37z" />
    <glyph glyph-name="Tbar" unicode="&#x166;" horiz-adv-x="1456" 
d="M262 0l41 98l92 27q114 35 142 162l71 342h-366l20 98h369l129 608h-148q-53 0 -99.5 -21.5t-88 -67t-75 -96t-75.5 -126.5h-84l142 471q119 -41 272 -41h690q143 0 293 41l-59 -471h-84q-28 156 -52 209q-41 92 -132 101q-11 1 -23 1h-152l-131 -608h369l-23 -98h-366
l-109 -510l240 18l-49 -137h-754z" />
    <glyph glyph-name="tbar" unicode="&#x167;" horiz-adv-x="890" 
d="M72 543l22 98h158l70 293h-197l20 102l246 66l281 270h76l-80 -336h317l-20 -102h-320l-70 -293h285l-22 -98h-287l-51 -221q-19 -82 57 -82q44 0 124 35t138 83v-114q-110 -117 -243 -190.5t-246 -73.5q-111 0 -155 66.5t-21 168.5l75 328h-157z" />
    <glyph glyph-name="Utilde" unicode="&#x168;" horiz-adv-x="1644" 
d="M786 -20q-301 0 -452 128.5t-105 346.5l189 880l-185 -18l52 137h690l-41 -98l-80 -19q-119 -34 -149 -182l-134 -623q-38 -180 50 -281t274 -101q170 0 285 92t153 266l176 827l-229 -18l49 137h512l-41 -98l-51 -10q-60 -12 -91 -45t-46 -103l-142 -657
q-56 -267 -238 -414t-446 -147zM870 1673q63 113 153 204t153 91q36 0 145 -63.5t137 -63.5q96 0 193 123l16 -20q-55 -116 -145.5 -207.5t-153.5 -91.5q-32 0 -80.5 28.5t-103 57t-99.5 28.5q-22 0 -61 -19.5t-62 -35t-75 -51.5z" />
    <glyph glyph-name="utilde" unicode="&#x169;" horiz-adv-x="1325" 
d="M264 -20q-104 0 -166 61.5t-24 144.5q110 233 184 527q10 40 -2 61t-41 21q-52 0 -166 -52l8 115q89 77 219 138t216 61q169 0 112 -219q-62 -244 -176 -557q-13 -39 29 -39q61 0 157.5 129t182.5 310t127 335l313 41l-178 -733q-11 -49 0.5 -65.5t42.5 -16.5
q30 0 88 14.5t106 36.5l-8 -115q-89 -77 -218 -137.5t-214 -60.5q-90 0 -114.5 61t16.5 201l78 254h-19q-54 -102 -119.5 -193t-137 -164t-149 -116t-147.5 -43zM438 1241q64 111 161 202t161 91q36 0 145 -63.5t137 -63.5q96 0 193 123l20 -23q-54 -115 -146.5 -206
t-156.5 -91q-26 0 -62.5 18t-68 39.5t-73.5 39.5t-78 18q-33 0 -96.5 -33.5t-114.5 -72.5z" />
    <glyph glyph-name="Umacron" unicode="&#x16a;" horiz-adv-x="1644" 
d="M786 -20q-301 0 -452 128.5t-105 346.5l189 880l-185 -18l52 137h690l-41 -98l-80 -19q-119 -34 -149 -182l-134 -623q-38 -180 50 -281t274 -101q170 0 285 92t153 266l176 827l-229 -18l49 137h512l-41 -98l-51 -10q-60 -12 -91 -45t-46 -103l-142 -657
q-56 -267 -238 -414t-446 -147zM877 1640q7 31 44 80t62 49h596q-7 -38 -39.5 -83.5t-66.5 -45.5h-596z" />
    <glyph glyph-name="umacron" unicode="&#x16b;" horiz-adv-x="1325" 
d="M264 -20q-104 0 -166 61.5t-24 144.5q110 233 184 527q10 40 -2 61t-41 21q-52 0 -166 -52l8 115q89 77 219 138t216 61q169 0 112 -219q-62 -244 -176 -557q-13 -39 29 -39q61 0 157.5 129t182.5 310t127 335l313 41l-178 -733q-11 -49 0.5 -65.5t42.5 -16.5
q30 0 88 14.5t106 36.5l-8 -115q-89 -77 -218 -137.5t-214 -60.5q-90 0 -114.5 61t16.5 201l78 254h-19q-54 -102 -119.5 -193t-137 -164t-149 -116t-147.5 -43zM485 1223q7 31 44.5 80t62.5 49h596q-7 -38 -39.5 -83.5t-67.5 -45.5h-596z" />
    <glyph glyph-name="Ubreve" unicode="&#x16c;" horiz-adv-x="1644" 
d="M786 -20q-301 0 -452 128.5t-105 346.5l189 880l-185 -18l52 137h690l-41 -98l-80 -19q-119 -34 -149 -182l-134 -623q-38 -180 50 -281t274 -101q170 0 285 92t153 266l176 827l-229 -18l49 137h512l-41 -98l-51 -10q-60 -12 -91 -45t-46 -103l-142 -657
q-56 -267 -238 -414t-446 -147zM987 1978l29 19q-6 -90 52 -152.5t163 -62.5q106 0 191 62.5t118 154.5l21 -21q-41 -166 -146 -281.5t-231 -115.5q-131 0 -182.5 115t-14.5 282z" />
    <glyph glyph-name="ubreve" unicode="&#x16d;" horiz-adv-x="1325" 
d="M264 -20q-104 0 -166 61.5t-24 144.5q110 233 184 527q10 40 -2 61t-41 21q-52 0 -166 -52l8 115q89 77 219 138t216 61q169 0 112 -219q-62 -244 -176 -557q-13 -39 29 -39q61 0 157.5 129t182.5 310t127 335l313 41l-178 -733q-11 -49 0.5 -65.5t42.5 -16.5
q30 0 88 14.5t106 36.5l-8 -115q-89 -77 -218 -137.5t-214 -60.5q-90 0 -114.5 61t16.5 201l78 254h-19q-54 -102 -119.5 -193t-137 -164t-149 -116t-147.5 -43zM596 1561l29 18q-6 -90 52 -152.5t163 -62.5q106 0 191 62.5t118 154.5l20 -20q-41 -166 -145.5 -282
t-230.5 -116q-131 0 -182.5 115.5t-14.5 282.5z" />
    <glyph glyph-name="Uring" unicode="&#x16e;" horiz-adv-x="1644" 
d="M786 -20q-301 0 -452 128.5t-105 346.5l189 880l-185 -18l52 137h690l-41 -98l-80 -19q-119 -34 -149 -182l-134 -623q-38 -180 50 -281t274 -101q170 0 285 92t153 266l176 827l-229 -18l49 137h512l-41 -98l-51 -10q-60 -12 -91 -45t-46 -103l-142 -657
q-56 -267 -238 -414t-446 -147zM965 1720q0 96 87 153.5t208 57.5q102 0 158.5 -37t56.5 -102q0 -91 -81.5 -150t-211.5 -59q-102 0 -159.5 37t-57.5 100zM1151 1702q0 -62 43 -62q32 0 55.5 35t32 73t8.5 69q0 57 -43 57q-32 0 -55.5 -34.5t-32 -71.5t-8.5 -66z" />
    <glyph glyph-name="uring" unicode="&#x16f;" horiz-adv-x="1325" 
d="M264 -20q-104 0 -166 61.5t-24 144.5q110 233 184 527q10 40 -2 61t-41 21q-52 0 -166 -52l8 115q89 77 219 138t216 61q169 0 112 -219q-62 -244 -176 -557q-13 -39 29 -39q61 0 157.5 129t182.5 310t127 335l313 41l-178 -733q-11 -49 0.5 -65.5t42.5 -16.5
q30 0 88 14.5t106 36.5l-8 -115q-89 -77 -218 -137.5t-214 -60.5q-90 0 -114.5 61t16.5 201l78 254h-19q-54 -102 -119.5 -193t-137 -164t-149 -116t-147.5 -43zM563 1307q0 102 92.5 170.5t225.5 68.5q103 0 164 -43t61 -114q0 -102 -96 -171t-219 -69q-104 0 -166 43.5
t-62 114.5zM750 1296q0 -40 14 -65t39 -25q34 0 63.5 37t43.5 81t14 75q0 40 -14.5 65t-41.5 25q-33 0 -61.5 -36.5t-42.5 -80.5t-14 -76z" />
    <glyph glyph-name="Uhungarumlaut" unicode="&#x170;" horiz-adv-x="1644" 
d="M786 -20q-301 0 -452 128.5t-105 346.5l189 880l-185 -18l52 137h690l-41 -98l-80 -19q-119 -34 -149 -182l-134 -623q-38 -180 50 -281t274 -101q170 0 285 92t153 266l176 827l-229 -18l49 137h512l-41 -98l-51 -10q-60 -12 -91 -45t-46 -103l-142 -657
q-56 -267 -238 -414t-446 -147zM977 1628q237 428 326 428q35 0 60 -32t19 -60q-8 -35 -54.5 -80.5t-139.5 -120.5l-193 -157zM1180 1604q94 138 203 254t151 116q30 0 48 -19.5t22 -41t0 -37.5q-9 -37 -50 -71.5t-147 -98.5l-211 -125z" />
    <glyph glyph-name="uhungarumlaut" unicode="&#x171;" horiz-adv-x="1325" 
d="M264 -20q-104 0 -166 61.5t-24 144.5q110 233 184 527q10 40 -2 61t-41 21q-52 0 -166 -52l8 115q89 77 219 138t216 61q169 0 112 -219q-62 -244 -176 -557q-13 -39 29 -39q61 0 157.5 129t182.5 310t127 335l313 41l-178 -733q-11 -49 0.5 -65.5t42.5 -16.5
q30 0 88 14.5t106 36.5l-8 -115q-89 -77 -218 -137.5t-214 -60.5q-90 0 -114.5 61t16.5 201l78 254h-19q-54 -102 -119.5 -193t-137 -164t-149 -116t-147.5 -43zM588 1210q237 428 325 428q35 0 60.5 -32t19.5 -60q-8 -35 -54 -79.5t-140 -120.5l-193 -158zM791 1186
q94 138 203 254t151 116q30 0 48 -19.5t21.5 -41t-0.5 -37.5q-9 -37 -49.5 -72t-146.5 -98l-211 -125z" />
    <glyph glyph-name="Uogonek" unicode="&#x172;" horiz-adv-x="1644" 
d="M786 -20q-301 0 -452 128.5t-105 346.5l189 880l-185 -18l52 137h690l-41 -98l-80 -19q-119 -34 -149 -182l-134 -623q-38 -180 50 -281t274 -101q170 0 285 92t153 266l176 827l-229 -18l49 137h512l-41 -98l-51 -10q-60 -12 -91 -45t-46 -103l-142 -657
q-38 -178 -132 -304.5t-234 -191.5q-66 -53 -110 -122.5t-44 -94.5q0 -35 25.5 -59.5t68.5 -24.5q78 0 140 37l20 -23q-33 -34 -155.5 -110t-139.5 -76q-81 0 -127.5 34t-46.5 93q0 55 45 132.5t121 156.5q-49 -8 -115 -8z" />
    <glyph glyph-name="uogonek" unicode="&#x173;" horiz-adv-x="1325" 
d="M264 -20q-104 0 -166 61.5t-24 144.5q110 233 184 527q10 40 -2 61t-41 21q-52 0 -166 -52l8 115q89 77 219 138t216 61q169 0 112 -219q-62 -244 -176 -557q-13 -39 29 -39q61 0 157.5 129t182.5 310t127 335l313 41l-178 -733q-11 -49 0.5 -65.5t42.5 -16.5
q30 0 88 14.5t106 36.5l-8 -115q-78 -69 -198 -129q-58 -36 -105 -91.5t-67.5 -96.5t-20.5 -58q0 -35 25.5 -59.5t68.5 -24.5q77 0 139 37l21 -22q-33 -34 -156 -110.5t-139 -76.5q-81 0 -127.5 34t-46.5 93t50 143t134 163h-10q-90 0 -114.5 61t16.5 201l78 254h-19
q-54 -102 -119.5 -193t-137 -164t-149 -116t-147.5 -43z" />
    <glyph glyph-name="Wcircumflex" unicode="&#x174;" horiz-adv-x="2281" 
d="M1450 -20l-160 884l-604 -884h-63l-234 1355l-178 -10l49 129h707l-41 -98l-76 -19q-58 -13 -78 -53.5t-8 -116.5l117 -692l381 555l-56 305l-170 -10l49 129h734l-39 -98l-94 -19q-67 -12 -88.5 -50.5t-8.5 -125.5l99 -620l446 794l-236 -10l50 129h557l-41 -98l-99 -19
q-63 -12 -103.5 -48t-86.5 -120l-662 -1189h-63zM1163 1604q114 136 243.5 267.5t162.5 131.5t100 -127.5t125 -271.5l-29 -23l-247 195l-338 -195z" />
    <glyph glyph-name="wcircumflex" unicode="&#x175;" horiz-adv-x="1605" 
d="M27 862q66 68 174.5 131.5t175.5 63.5t121 -89t87 -238.5t46 -342.5q51 55 82.5 101.5t52 104t18.5 123t-26 144.5q-15 54 45 125.5t129 71.5q35 0 53.5 -17t40.5 -71q52 -132 81 -300t13 -335q83 133 137 294t60 322q0 107 80 107q50 0 104.5 -16.5t91 -42.5t35.5 -52
q-3 -109 -54.5 -228t-126 -219.5t-175 -203.5t-186.5 -175t-177 -140h-37q11 194 -20 473q-156 -185 -453 -473h-34q-16 268 -33 432.5t-40.5 249.5t-47.5 112t-62 27q-58 0 -145 -53zM623 1186q11 13 40.5 50.5t49.5 62t52.5 64.5t56.5 68t53.5 62.5t52 58t43.5 44.5
t36 31.5t23 10.5q10 0 23.5 -16t30 -51.5t30 -66t33.5 -85.5t30 -83t29.5 -84.5t22.5 -65.5l-27 -23l-231 219l-330 -219z" />
    <glyph glyph-name="Ycircumflex" unicode="&#x176;" horiz-adv-x="1574" 
d="M348 0l41 98l51 19q73 28 112.5 70.5t53.5 105.5l70 315l-289 727l-178 -18l51 137h737l-39 -98l-104 -19q-70 -12 -87 -42t9 -91l185 -461l481 592l-217 -18l49 137h524l-41 -98l-88 -17q-45 -8 -83 -35t-91 -92l-494 -604l-106 -489l235 18l-49 -137h-733zM811 1604
q114 136 243.5 267.5t162.5 131.5t100 -127.5t125 -271.5l-29 -23l-248 195l-338 -195z" />
    <glyph glyph-name="ycircumflex" unicode="&#x177;" horiz-adv-x="1165" 
d="M-215 -330q23 -2 74 -2q77 0 148 11t139.5 34.5t123.5 67t86 102.5q64 119 64 307q0 103 -23 215t-57.5 198t-77.5 142t-82 56q-68 0 -143 -53l-10 114q73 68 184 131.5t182 63.5q82 0 148 -91.5t100.5 -238t34.5 -315.5q0 -43 -8 -187q83 152 144 351t69 407
q0 33 23 53.5t57 20.5q36 0 90.5 -16.5t98 -43t42.5 -51.5q-5 -103 -80.5 -258t-213 -350.5t-292 -391t-358.5 -435.5q-106 0 -237 17t-226 46v96zM444 1186l40 50t50 62t52.5 64t57 68.5t53.5 62.5t52.5 58.5t43.5 44t36.5 32t22.5 10.5q10 0 23.5 -16t30 -51.5t30 -66
t33.5 -85.5t30 -83t29.5 -84.5t22.5 -65.5l-27 -23l-231 219l-330 -219z" />
    <glyph glyph-name="Ydieresis" unicode="&#x178;" horiz-adv-x="1574" 
d="M348 0l41 98l51 19q73 28 112.5 70.5t53.5 105.5l70 315l-289 727l-178 -18l51 137h737l-39 -98l-104 -19q-70 -12 -87 -42t9 -91l185 -461l481 592l-217 -18l49 137h524l-41 -98l-88 -17q-45 -8 -83 -35t-91 -92l-494 -604l-106 -489l235 18l-49 -137h-733zM842 1747
q0 62 52.5 111t117.5 49q44 0 73 -29.5t29 -73.5q0 -64 -50.5 -113t-111.5 -49q-50 0 -80 30t-30 75zM1188 1747q0 62 52.5 111t117.5 49q45 0 73.5 -29t28.5 -74q0 -64 -50 -113t-112 -49q-49 0 -79.5 30t-30.5 75z" />
    <glyph glyph-name="Zacute" unicode="&#x179;" horiz-adv-x="1267" 
d="M-68 0l-18 119l1157 1229l-395 -13q-262 -8 -467 -389h-84l194 549q124 -41 308 -41h811l20 -119l-1163 -1231l397 15q75 2 131.5 23.5t109.5 74.5t100 126t110 194h84l-131 -578q-124 41 -308 41h-856zM709 1604q368 401 434 401q35 0 53.5 -35.5t9.5 -81.5
q-8 -38 -27.5 -69.5t-38 -50t-53 -37.5t-51.5 -26t-55 -22l-256 -102z" />
    <glyph glyph-name="zacute" unicode="&#x17a;" horiz-adv-x="989" 
d="M618 -207q-64 0 -123.5 25t-104.5 61t-87 72t-88 61t-90 25q-20 0 -58.5 -18.5t-60.5 -38.5l-104 40l764 762h-138q-132 0 -209.5 -35.5t-168.5 -152.5h-80l170 483q64 -41 303 -41h415l39 -71l-702 -707q40 -12 84 -41t75.5 -56t76.5 -48t92 -21q45 0 73 8t55 33
t49 70.5t48 122.5h80q-2 -139 -41 -260t-110.5 -197t-158.5 -76zM451 1153q74 101 162 207t176.5 192t123.5 86q45 0 64 -48t10 -101q-8 -35 -31 -66t-62.5 -58.5t-63.5 -41t-70 -37.5l-291 -156z" />
    <glyph glyph-name="Zdotaccent" unicode="&#x17b;" horiz-adv-x="1267" 
d="M-68 0l-18 119l1157 1229l-395 -13q-262 -8 -467 -389h-84l194 549q124 -41 308 -41h811l20 -119l-1163 -1231l397 15q75 2 131.5 23.5t109.5 74.5t100 126t110 194h84l-131 -578q-124 41 -308 41h-856zM741 1757q3 87 76.5 155t163.5 68q67 0 107.5 -42.5t37.5 -106.5
q-1 -89 -72.5 -158t-158.5 -69q-70 0 -113 44t-41 109z" />
    <glyph glyph-name="zdotaccent" unicode="&#x17c;" horiz-adv-x="989" 
d="M618 -207q-64 0 -123.5 25t-104.5 61t-87 72t-88 61t-90 25q-20 0 -58.5 -18.5t-60.5 -38.5l-104 40l764 762h-138q-132 0 -209.5 -35.5t-168.5 -152.5h-80l170 483q64 -41 303 -41h415l39 -71l-702 -707q40 -12 84 -41t75.5 -56t76.5 -48t92 -21q45 0 73 8t55 33
t49 70.5t48 122.5h80q-2 -139 -41 -260t-110.5 -197t-158.5 -76zM494 1339q3 87 76 155.5t163 68.5q67 0 108 -43t38 -107q-1 -88 -73 -157.5t-159 -69.5q-69 0 -112 43.5t-41 109.5z" />
    <glyph glyph-name="Zcaron" unicode="&#x17d;" horiz-adv-x="1267" 
d="M-68 0l-18 119l1157 1229l-395 -13q-262 -8 -467 -389h-84l194 549q124 -41 308 -41h811l20 -119l-1163 -1231l397 15q75 2 131.5 23.5t109.5 74.5t100 126t110 194h84l-131 -578q-124 41 -308 41h-856zM649 1982l29 23l248 -195l338 195l16 -23q-114 -136 -243.5 -267.5
t-162.5 -131.5t-100 127.5t-125 271.5z" />
    <glyph glyph-name="zcaron" unicode="&#x17e;" horiz-adv-x="989" 
d="M618 -207q-64 0 -123.5 25t-104.5 61t-87 72t-88 61t-90 25q-20 0 -58.5 -18.5t-60.5 -38.5l-104 40l764 762h-138q-132 0 -209.5 -35.5t-168.5 -152.5h-80l170 483q64 -41 303 -41h415l39 -71l-702 -707q40 -12 84 -41t75.5 -56t76.5 -48t92 -21q45 0 73 8t55 33
t49 70.5t48 122.5h80q-2 -139 -41 -260t-110.5 -197t-158.5 -76zM424 1618l27 20l231 -219l334 219l18 -22q-8 -10 -40.5 -50.5t-50 -62t-52.5 -64t-57 -68.5t-53.5 -62.5t-52.5 -59t-43.5 -44t-37 -32t-22.5 -10.5q-10 0 -23.5 17.5t-29.5 50t-31 68.5t-33 84t-31 85
t-29 83t-24 67z" />
    <glyph glyph-name="florin" unicode="&#x192;" horiz-adv-x="927" 
d="M377 1075q30 230 146.5 356t326.5 125q126 0 244 -22.5t118 -54.5q0 -81 -36.5 -139t-94.5 -58q-17 0 -39 8t-40.5 17.5t-48.5 30t-47.5 33.5t-55 42t-53.5 41h-21q-21 0 -34.5 -11.5t-22.5 -47t-14 -66t-13 -100.5l-26 -209h403v-113h-418l-98 -768q-31 -230 -146 -356
t-327 -125q-125 0 -244 23t-119 55q0 81 36.5 138.5t94.5 57.5q15 0 32 -4.5t37.5 -15.5t37.5 -21t42.5 -28.5t42 -31t47 -36t46.5 -35.5h21q39 0 53.5 47t30.5 179l118 921h-215v82l230 51h2z" />
    <glyph glyph-name="uni0218" unicode="&#x218;" horiz-adv-x="1196" 
d="M514 -20q-250 0 -485 81l47 467h84q43 -207 151.5 -313t259.5 -106q127 0 211 75t84 178q0 81 -77 132t-246 98q-203 55 -290 137t-87 197t55.5 217.5t147.5 175t216.5 114.5t258.5 42q147 0 373 -66l-66 -420h-86q-42 352 -313 352q-134 0 -220 -76.5t-86 -179.5
q0 -66 73.5 -115t260.5 -100q190 -51 275.5 -136t85.5 -206q0 -104 -46.5 -203t-127 -175.5t-199.5 -123t-254 -46.5zM295 -643q141 137 141 248q0 33 -15.5 57t-34 35t-34 25.5t-14.5 31.5q2 56 59 103t125 47t105 -37t37 -100q0 -51 -22.5 -104.5t-57 -98t-82.5 -89
t-93.5 -77.5t-95.5 -64z" />
    <glyph glyph-name="uni0219" unicode="&#x219;" horiz-adv-x="946" 
d="M-4 137q0 43 11 91t38 88t64 40q33 0 87.5 -35.5t103.5 -78t102 -78t83 -35.5q17 0 28 12.5t11 32.5q0 51 -45 119.5t-121 138.5q-204 188 -204 305q0 60 32.5 117t90.5 102.5t146 73t191 27.5q44 0 100.5 -7.5t117.5 -22.5t102 -45t41 -69q0 -27 -18.5 -75.5
t-50.5 -90.5t-62 -42q-29 0 -75.5 31.5t-88.5 68.5t-91 68.5t-81 31.5q-25 0 -38 -13t-13 -46q0 -92 157 -242q95 -93 152 -172.5t57 -148.5q0 -130 -107 -216.5t-300 -86.5q-78 0 -177 24t-171 61.5t-72 71.5zM158 -643q141 137 141 248q0 33 -15.5 57t-34 35t-34 25.5
t-14.5 31.5q2 56 59 103t125 47t104.5 -37t36.5 -100t-32 -128t-87 -121t-111 -100.5t-120 -83.5z" />
    <glyph glyph-name="uni021A" unicode="&#x21a;" horiz-adv-x="1456" 
d="M262 0l41 98l92 27q114 35 142 162l223 1048h-148q-53 0 -99.5 -21.5t-88 -67t-75 -96t-75.5 -126.5h-84l142 471q119 -41 272 -41h690q143 0 293 41l-59 -471h-84q-28 156 -52 209q-41 92 -132 101q-11 1 -23 1h-152l-260 -1216l240 18l-49 -137h-754zM377 -643
q141 137 141 248q0 33 -15.5 57t-34 35t-34 25.5t-14.5 31.5q2 56 59 103t125 47t104.5 -37t36.5 -100t-32 -128t-87 -121t-111 -100.5t-120 -83.5z" />
    <glyph glyph-name="uni021B" unicode="&#x21b;" horiz-adv-x="890" 
d="M154 215l168 719h-197l20 102l246 66l281 270h76l-80 -336h317l-20 -102h-320l-145 -612q-19 -82 57 -82q44 0 124 35t138 83v-114q-110 -117 -243 -190.5t-246 -73.5q-111 0 -155 66.5t-21 168.5zM123 -643q141 137 141 248q0 33 -15.5 57t-34 35t-34 25.5t-14.5 31.5
q2 56 59 103t125 47t105 -37t37 -100q0 -51 -22.5 -104.5t-57 -98t-82.5 -89t-93.5 -77.5t-95.5 -64z" />
    <glyph glyph-name="uni0237" unicode="&#x237;" horiz-adv-x="743" 
d="M-336 -492q-53 0 -75.5 23.5t-22.5 52.5q0 63 38 139t77 76q44 0 158.5 -51t158.5 -51q62 0 99 70.5t71 222.5l145 669q17 78 -26 106t-154 17l-16 111q64 32 107 52t117.5 50.5t144 46t130.5 15.5q46 0 61 -21.5t3 -83.5l-168 -805q-66 -323 -265.5 -481t-582.5 -158z
" />
    <glyph glyph-name="circumflex" unicode="&#x2c6;" horiz-adv-x="708" 
d="M782 1163l-231 219l-330 -219l-18 23q11 13 40.5 50.5t49.5 62t52.5 64.5t56.5 68t53.5 62.5t52 58t43.5 44.5t36 31.5t23 10.5q10 0 23.5 -16t30 -51.5t30 -66t33.5 -85.5t30 -83t29.5 -84.5t22.5 -65.5z" />
    <glyph glyph-name="caron" unicode="&#x2c7;" horiz-adv-x="720" 
d="M475 1163q-10 0 -23.5 17.5t-29.5 50t-31 68.5t-33 84t-31 85t-29 83t-24 67l27 20l231 -219l334 219l19 -22q-232 -288 -315 -375q-74 -78 -95 -78z" />
    <glyph glyph-name="breve" unicode="&#x2d8;" horiz-adv-x="671" 
d="M485 1163q-88 0 -142 56t-64.5 144.5t10.5 197.5l28 18q-6 -90 52 -152.5t163 -62.5q106 0 191.5 62.5t118.5 154.5l20 -20q-41 -166 -146 -282t-231 -116z" />
    <glyph glyph-name="dotaccent" unicode="&#x2d9;" horiz-adv-x="526" 
d="M438 1186q-69 0 -112 43.5t-41 109.5q3 87 76 155.5t163 68.5q67 0 108 -43t38 -107q-1 -88 -73 -157.5t-159 -69.5z" />
    <glyph glyph-name="ring" unicode="&#x2da;" horiz-adv-x="583" 
d="M455 1149q-104 0 -166 43.5t-62 114.5q0 102 92.5 170.5t225.5 68.5q103 0 164 -43t61 -114q0 -102 -96 -171t-219 -69zM414 1296q0 -40 14 -65t39 -25q34 0 63.5 37t43.5 81t14 75q0 40 -14.5 65t-41.5 25q-33 0 -61.5 -36.5t-42.5 -80.5t-14 -76z" />
    <glyph glyph-name="ogonek" unicode="&#x2db;" horiz-adv-x="393" 
d="M-18 -485q-81 0 -128 34t-47 93q0 95 120.5 237t287.5 227l10 -83q-87 -51 -144.5 -135t-57.5 -117q0 -35 25.5 -59.5t68.5 -24.5q77 0 139 37l20 -23q-33 -34 -155 -110t-139 -76z" />
    <glyph glyph-name="tilde" unicode="&#x2dc;" horiz-adv-x="798" 
d="M205 1241q65 111 161.5 202t159.5 91q36 0 145.5 -63.5t137.5 -63.5q95 0 192 123l21 -23q-54 -115 -146.5 -206t-156.5 -91q-26 0 -62.5 18t-68.5 39.5t-74 39.5t-78 18q-33 0 -96.5 -33.5t-114.5 -72.5z" />
    <glyph glyph-name="hungarumlaut" unicode="&#x2dd;" horiz-adv-x="581" 
d="M170 1210q237 428 326 428q35 0 60 -32t19 -60q-8 -35 -54 -79.5t-140 -120.5l-193 -158zM373 1186q94 138 203 254t151 116q30 0 48 -19.5t22 -41t0 -37.5q-9 -37 -50 -71.5t-147 -98.5l-211 -125z" />
    <glyph glyph-name="gravecomb" unicode="&#x300;" 
d="M432 1251q-184 85 -184 203q0 55 30.5 119.5t75.5 64.5q19 0 84 -93t148.5 -219.5t120.5 -172.5l-23 -23z" />
    <glyph glyph-name="acutecomb" unicode="&#x301;" 
d="M186 1153q74 101 162 207t177 192t124 86q45 0 64 -48t10 -101q-8 -35 -31 -66t-62.5 -58.5t-63.5 -41t-70 -37.5l-291 -156z" />
    <glyph glyph-name="uni0302" unicode="&#x302;" 
d="M782 1163l-231 219l-330 -219l-18 23q11 13 40.5 50.5t49.5 62t52.5 64.5t56.5 68t53.5 62.5t52 58t43.5 44.5t36 31.5t23 10.5q10 0 23.5 -16t30 -51.5t30 -66t33.5 -85.5t30 -83t29.5 -84.5t22.5 -65.5z" />
    <glyph glyph-name="tildecomb" unicode="&#x303;" 
d="M205 1241q65 111 161.5 202t159.5 91q36 0 145.5 -63.5t137.5 -63.5q95 0 192 123l21 -23q-54 -115 -146.5 -206t-156.5 -91q-26 0 -62.5 18t-68.5 39.5t-74 39.5t-78 18q-33 0 -96.5 -33.5t-114.5 -72.5z" />
    <glyph glyph-name="uni0304" unicode="&#x304;" 
d="M203 1223q7 31 44 80t62 49h596q-7 -38 -39.5 -83.5t-66.5 -45.5h-596z" />
    <glyph glyph-name="uni0306" unicode="&#x306;" 
d="M485 1163q-88 0 -142 56t-64.5 144.5t10.5 197.5l28 18q-6 -90 52 -152.5t163 -62.5q106 0 191.5 62.5t118.5 154.5l20 -20q-41 -166 -146 -282t-231 -116z" />
    <glyph glyph-name="uni0307" unicode="&#x307;" 
d="M438 1186q-69 0 -112 43.5t-41 109.5q3 87 76 155.5t163 68.5q67 0 108 -43t38 -107q-1 -88 -73 -157.5t-159 -69.5z" />
    <glyph glyph-name="uni0308" unicode="&#x308;" 
d="M791 1221q-55 0 -89 33t-34 83q0 70 58.5 124.5t129.5 54.5q51 0 83 -32.5t32 -82.5q0 -70 -56 -125t-124 -55zM283 1337q0 70 58.5 124.5t129.5 54.5q51 0 83 -32.5t32 -82.5q0 -70 -56 -125t-124 -55q-55 0 -89 33t-34 83z" />
    <glyph glyph-name="uni030A" unicode="&#x30a;" 
d="M455 1149q-104 0 -166 43.5t-62 114.5q0 102 92.5 170.5t225.5 68.5q103 0 164 -43t61 -114q0 -102 -96 -171t-219 -69zM414 1296q0 -40 14 -65t39 -25q34 0 63.5 37t43.5 81t14 75q0 40 -14.5 65t-41.5 25q-33 0 -61.5 -36.5t-42.5 -80.5t-14 -76z" />
    <glyph glyph-name="uni030B" unicode="&#x30b;" 
d="M170 1210q237 428 326 428q35 0 60 -32t19 -60q-8 -35 -54 -79.5t-140 -120.5l-193 -158zM373 1186q94 138 203 254t151 116q30 0 48 -19.5t22 -41t0 -37.5q-9 -37 -50 -71.5t-147 -98.5l-211 -125z" />
    <glyph glyph-name="uni030C" unicode="&#x30c;" 
d="M475 1163q-10 0 -23.5 17.5t-29.5 50t-31 68.5t-33 84t-31 85t-29 83t-24 67l27 20l231 -219l334 219l19 -22q-232 -288 -315 -375q-74 -78 -95 -78z" />
    <glyph glyph-name="uni0312" unicode="&#x312;" 
d="M606 1694q-141 -137 -141 -248q0 -27 10.5 -48t25 -33t29 -22t24.5 -21.5t9 -25.5q-2 -56 -58.5 -102.5t-125.5 -46.5q-68 0 -104.5 37t-36.5 100t32 128t87 121t111 99.5t120 83.5z" />
    <glyph glyph-name="uni0326" unicode="&#x326;" 
d="M-207 -643q141 137 141 248q0 33 -15.5 57t-34 35t-34 25.5t-14.5 31.5q2 56 59 103t125 47t105 -37t37 -100t-32 -128t-87 -121t-111 -100.5t-120 -83.5z" />
    <glyph glyph-name="uni0327" unicode="&#x327;" 
d="M-188 -561q127 110 127 199q0 37 -22 63.5t-73 65.5l217 284h66l-68 -155q113 -70 113 -150q0 -96 -109 -192.5t-233 -137.5z" />
    <glyph glyph-name="uni0328" unicode="&#x328;" 
d="M-18 -485q-81 0 -128 34t-47 93q0 95 120.5 237t287.5 227l10 -83q-87 -51 -144.5 -135t-57.5 -117q0 -35 25.5 -59.5t68.5 -24.5q77 0 139 37l20 -23q-33 -34 -155 -110t-139 -76z" />
    <glyph glyph-name="uni0394" unicode="&#x394;" horiz-adv-x="1384" 
d="M-119 0l965 1454h53l346 -1454h-1364zM104 127h758l-200 846z" />
    <glyph glyph-name="uni03A9" unicode="&#x3a9;" horiz-adv-x="1660" 
d="M831 135q259 237 372.5 428t113.5 408q0 171 -81 273t-228 102q-85 0 -162 -30.5t-135.5 -82t-106 -119.5t-77.5 -144t-46 -153t-16 -149q0 -70 10.5 -132.5t25.5 -109t45 -102t54 -91.5t68 -98l-70 -135h-641l41 289l408 -53q-94 83 -152 152.5t-96.5 164t-38.5 201.5
q0 149 76 284t202 230t293 151t344 56q297 0 466 -143.5t169 -379.5q0 -99 -30.5 -190.5t-78.5 -162.5t-123 -141.5t-147 -122.5t-168 -112l437 33l-74 -256h-641z" />
    <glyph glyph-name="uni03BC" unicode="&#x3bc;" horiz-adv-x="1380" 
d="M266 -20q-17 0 -53 4q6 -171 96 -353l-309 -123q-35 116 -3 353t91 356h2q98 214 170 496q10 40 -2 61t-41 21q-52 0 -166 -52l8 115q89 77 219 138t216 61q169 0 112 -219q-62 -244 -176 -557q-13 -39 29 -39q61 0 157.5 129t182.5 310t127 335l313 41l-178 -733
q-11 -49 0.5 -65.5t42.5 -16.5q30 0 88 14.5t106 36.5l-8 -115q-89 -77 -218 -137.5t-214 -60.5q-90 0 -114.5 61t16.5 201l78 254h-19q-54 -102 -119.5 -193t-137 -164t-149 -116t-147.5 -43z" />
    <glyph glyph-name="pi" unicode="&#x3c0;" horiz-adv-x="1273" 
d="M682 -20q-55 0 -91 37.5t-36 125.5q0 167 160 582h-240q-99 -472 -184 -745q-102 -1 -176 34t-95 90q5 8 62.5 89.5t84.5 123.5t74 119.5t78.5 148.5t51.5 140h-11q-31 0 -67.5 -4t-78 -12.5t-66.5 -14.5t-68 -17.5t-49 -12.5l-17 20q39 74 110 149.5t167.5 131
t183.5 55.5h727q-6 -51 -39 -154.5t-65 -140.5h-228q-20 -123 -20 -211q0 -35 0.5 -50t2 -46t5.5 -46.5t11.5 -39t19.5 -35.5t29 -25t41.5 -18.5t54.5 -5.5q38 0 100 10l2 -92q-306 -186 -434 -186z" />
    <glyph glyph-name="uni0400" unicode="&#x400;" horiz-adv-x="1474" 
d="M-23 0l41 98l66 17q113 30 135 131l232 1089l-201 -18l51 137h864q138 0 287 57l-37 -520h-84q-40 177 -101 260.5t-179 83.5h-275l-114 -532h149q83 0 140.5 50t109.5 181h84l-121 -569h-84q3 130 -33.5 178.5t-120.5 48.5h-147l-123 -573h346q218 0 447 401h84
l-219 -577q-114 57 -265 57h-932zM745 1884q9 46 43 82.5t70 36.5q27 0 83.5 -79t104.5 -165.5t80 -154.5l-24 -23l-213 100q-76 35 -100 55q-63 53 -44 148z" />
    <glyph glyph-name="uni0401" unicode="&#x401;" horiz-adv-x="1474" 
d="M-23 0l41 98l66 17q113 30 135 131l232 1089l-201 -18l51 137h864q138 0 287 57l-37 -520h-84q-40 177 -101 260.5t-179 83.5h-275l-114 -532h149q83 0 140.5 50t109.5 181h84l-121 -569h-84q3 130 -33.5 178.5t-120.5 48.5h-147l-123 -573h346q218 0 447 401h84
l-219 -577q-114 57 -265 57h-932zM705 1747q0 63 52 111.5t117 48.5q44 0 73.5 -29.5t29.5 -73.5q0 -64 -50.5 -113t-111.5 -49q-50 0 -80 30t-30 75zM1051 1747q0 62 52.5 111t117.5 49q45 0 73.5 -29t28.5 -74q0 -64 -50 -113t-112 -49q-49 0 -79.5 30t-30.5 75z" />
    <glyph glyph-name="uni0402" unicode="&#x402;" horiz-adv-x="1818" 
d="M995 -379q-61 0 -123 16.5t-100.5 44.5t-32.5 56q11 51 66 99t106 48l236 -131q114 122 187 321t73 343q0 134 -62 209t-182 75q-105 0 -223 -45l-115 -538l240 18l-49 -137h-754l41 98l92 27q114 35 142 162l223 1048h-148q-53 0 -99.5 -21.5t-88 -67t-75 -96
t-75.5 -126.5h-84l142 471q119 -41 272 -41h690q143 0 293 41l-59 -471h-84q-28 156 -52 209q-41 92 -132 101q-11 1 -23 1h-152l-116 -540q189 106 385 106q195 0 302 -116.5t107 -299.5q0 -117 -42.5 -242t-118 -234.5t-171 -197.5t-210 -139t-226.5 -51z" />
    <glyph glyph-name="uni0403" unicode="&#x403;" horiz-adv-x="1325" 
d="M-23 0l39 98l66 17q61 18 93 51.5t44 89.5l230 1079l-199 -18l51 137h829q165 0 300 41l-60 -471h-84q0 2 -1 7q-34 154 -60 207q-47 92 -145 97h-9h-141q-87 0 -128 -32t-59 -107l-227 -1077l199 18l-49 -137h-689zM811 1604q368 401 434 401q35 0 54 -35.5t10 -81.5
q-6 -28 -18 -52t-23.5 -41t-33.5 -33.5t-34.5 -25.5t-40 -21.5t-37.5 -16.5t-39 -15l-256 -102z" />
    <glyph glyph-name="uni0404" unicode="&#x404;" horiz-adv-x="1560" 
d="M762 -20q-184 0 -328.5 70t-227.5 202.5t-83 306.5t72.5 340.5t196.5 293.5t302 204.5t375 77.5q306 0 541 -111l-68 -414h-84q-42 194 -140.5 297t-275.5 103q-101 0 -189.5 -47.5t-153 -129t-111 -178t-76.5 -207.5h270q87 0 141.5 49.5t108.5 178.5h84l-121 -565h-84
q3 126 -31 176.5t-122 50.5h-271q-18 -105 -18 -195q0 -177 74 -275.5t225 -98.5q276 0 535 354q86 -5 131.5 -57.5t23.5 -124.5q-16 -64 -71 -117t-129.5 -86.5t-164.5 -56t-173 -32t-158 -9.5z" />
    <glyph glyph-name="uni0405" unicode="&#x405;" horiz-adv-x="1148" 
d="M532 -20q-250 0 -485 81l47 467h84q43 -207 152 -313t260 -106q127 0 211 75t84 178q0 81 -77.5 132t-246.5 98q-203 55 -290 137t-87 197t55.5 217.5t147.5 175t216.5 114.5t258.5 42q147 0 373 -66l-66 -420h-86q-42 352 -313 352q-134 0 -219.5 -76t-85.5 -180
q0 -66 73.5 -115t260.5 -100q189 -51 274.5 -136t85.5 -206q0 -104 -46.5 -203t-127 -175.5t-199.5 -123t-254 -46.5z" />
    <glyph glyph-name="uni0406" unicode="&#x406;" horiz-adv-x="847" 
d="M-12 0l41 98l65 17q61 17 92.5 50.5t42.5 86.5l232 1083l-201 -18l51 137h676l-39 -98l-69 -19q-98 -26 -121 -137l-232 -1081l199 18l-49 -137h-688z" />
    <glyph glyph-name="uni0407" unicode="&#x407;" horiz-adv-x="847" 
d="M-12 0l41 98l65 17q61 17 92.5 50.5t42.5 86.5l232 1083l-201 -18l51 137h676l-39 -98l-69 -19q-98 -26 -121 -137l-232 -1081l199 18l-49 -137h-688zM377 1747q0 62 52.5 111t117.5 49q45 0 73.5 -29t28.5 -74q0 -64 -50 -113t-112 -49q-49 0 -79.5 30t-30.5 75z
M723 1747q0 62 53 111t117 49q45 0 73.5 -29t28.5 -74q0 -64 -49.5 -113t-111.5 -49q-49 0 -80 30t-31 75z" />
    <glyph glyph-name="uni0408" unicode="&#x408;" horiz-adv-x="827" 
d="M-295 -397q179 125 299.5 290t169.5 394l221 1048l-256 -18l49 137h738l-41 -98l-80 -21q-43 -12 -72.5 -50t-40.5 -93l-190 -883q-33 -156 -95.5 -286.5t-139.5 -219t-168 -151t-180.5 -92t-176.5 -31.5z" />
    <glyph glyph-name="uni0409" unicode="&#x409;" horiz-adv-x="2170" 
d="M137 -16q-58 0 -138.5 70.5t-68.5 140.5q141 33 255.5 115.5t192 198t128 240.5t80.5 267l65 309l-274 -8l55 137h1239l-45 -115l-74 -6q-47 -6 -73 -39.5t-39 -95.5l-72 -338h150q265 0 415 -90.5t150 -247.5q0 -109 -53 -207t-140.5 -166.5t-205 -108.5t-242.5 -40
h-774l45 115l65 2q108 3 135 139l230 1069h-373l-59 -285q-35 -163 -86 -316.5t-121.5 -300.5t-165 -263t-201.5 -176zM1210 119h123q92 0 168.5 34.5t124.5 91.5t74 127t26 144q0 106 -61.5 165.5t-173.5 59.5h-148z" />
    <glyph glyph-name="uni040A" unicode="&#x40a;" horiz-adv-x="2453" 
d="M-23 0l39 98l66 17q61 18 93 51.5t44 89.5l230 1079l-199 -18l51 137h676l-43 -98l-68 -19q-98 -28 -123 -141l-79 -377h651l110 516l-198 -18l49 137h676l-41 -98l-70 -19q-54 -14 -79 -39.5t-38 -85.5l-84 -393h150q270 0 420.5 -82.5t150.5 -236.5q0 -145 -90 -261
t-235 -177.5t-314 -61.5h-757l41 98l75 19q88 23 115 141l94 442h-651l-123 -581l199 18l-49 -137h-689zM1491 119h123q183 0 286 109t103 266q0 100 -63 153t-177 53h-147z" />
    <glyph glyph-name="uni040B" unicode="&#x40b;" horiz-adv-x="2007" 
d="M1147 0l39 98l59 19q100 32 121 141l45 213q26 119 -8 183.5t-123 64.5q-148 0 -340 -62l-115 -538l240 18l-49 -137h-754l41 98l92 27q114 35 142 162l223 1048h-148q-53 0 -99.5 -21.5t-88 -67t-75 -96t-75.5 -126.5h-84l142 471q119 -41 272 -41h690q143 0 293 41
l-59 -471h-84q-28 156 -52 209q-41 92 -132 101q-11 1 -23 1h-152l-118 -549q239 132 467 132q73 0 130 -14.5t94.5 -41.5t62 -61.5t34 -77t9 -86.5t-10.5 -92l-90 -426l199 18l-50 -137h-665z" />
    <glyph glyph-name="uni040C" unicode="&#x40c;" horiz-adv-x="1728" 
d="M1575 -20q-273 0 -410.5 51.5t-208.5 177.5l-254 448l9 37l778 637l-252 -14l49 137h600l-41 -98q-115 -14 -182.5 -47.5t-144.5 -98.5l-529 -432l291 -465q71 -116 135 -176.5t180 -116.5zM-20 0l43 98l63 17q53 14 89 51t46 90l232 1079l-203 -18l51 137h676l-41 -98
l-68 -19q-96 -29 -118 -137l-232 -1081l180 18l-51 -137h-667zM934 1604q368 401 434 401q35 0 54 -35.5t10 -81.5q-6 -28 -18 -52t-23.5 -41t-33.5 -33.5t-34.5 -25.5t-40 -21.5t-37.5 -16.5t-39 -15l-256 -102z" />
    <glyph glyph-name="uni040D" unicode="&#x40d;" horiz-adv-x="1869" 
d="M516 115v2l-24 -117h-515l39 98l66 17q61 18 93 51.5t44 89.5l230 1079l-199 -18l51 137h676l-43 -98l-68 -19q-98 -28 -123 -141l-170 -807l785 776q37 37 64.5 86.5t35.5 87.5l25 115h502l-41 -98l-68 -19q-98 -27 -123 -141l-227 -1077l198 18l-51 -137h-676l41 98
l68 17q97 25 123 141l166 780l-787 -776q-29 -25 -57 -67.5t-35 -77.5zM1001 1884q9 46 43 82.5t70 36.5q27 0 83.5 -79t104.5 -165.5t80 -154.5l-24 -23l-213 100q-76 35 -100 55q-63 53 -44 148z" />
    <glyph glyph-name="uni040E" unicode="&#x40e;" horiz-adv-x="1486" 
d="M199 -20q-41 0 -66.5 26t-33 66t-7.5 80t8 77q26 0 90 -1t88 -0.5t73 5t77 14t65 28.5t70 47q113 94 72 217l-262 796l-162 -10l49 129h739l-41 -98l-102 -10q-69 -6 -95.5 -43t-6.5 -99l151 -448l443 579l-189 -10l49 129h502l-43 -98l-86 -8q-40 -3 -80 -33.5
t-96 -102.5l-584 -757q-205 -265 -347 -370t-275 -105zM764 1851q0 43 63 76.5t118.5 34.5t68.5 -20q17 -100 54.5 -141.5t100.5 -41.5q71 0 137 63.5t148 184.5q45 0 73 -16.5t11 -48.5q-14 -27 -33 -57t-63.5 -84.5t-93 -94.5t-121.5 -71t-150 -31q-126 0 -219.5 76
t-93.5 171z" />
    <glyph glyph-name="uni040F" unicode="&#x40f;" horiz-adv-x="1808" 
d="M-49 0l49 137l190 -18l259 1216l-199 -18l51 137h676l-43 -98l-68 -17q-95 -24 -121 -141l-229 -1079h467q89 0 129 31t55 106l230 1077l-199 -18l49 137h688l-41 -98l-65 -17q-61 -17 -93 -50t-44 -89l-228 -1079l199 18l-51 -137h-778q8 -152 -25 -471h-246
q92 299 174 471h-786z" />
    <glyph glyph-name="uni0410" unicode="&#x410;" horiz-adv-x="1683" 
d="M823 0l41 98l72 19q64 17 88.5 48.5t24.5 90.5l-2 141h-566l-237 -278l217 18l-49 -137h-531l41 98l103 19q15 3 29 8.5t24.5 10.5t25 17t21.5 18t23 23t21 23t24 28.5t24 28.5l805 945q-50 133 -252 194l16 41h562l18 -1335l213 18l-51 -137h-705zM582 516h465l-9 537z
" />
    <glyph glyph-name="uni0411" unicode="&#x411;" horiz-adv-x="1472" 
d="M-23 0l37 98l68 17q49 13 77.5 40.5t39.5 84.5l233 1095l-182 -18l51 137h842q164 0 299 41l-60 -471h-84q-1 2 -2 7q-35 156 -62 209q-54 92 -151 95h-194q-132 0 -158 -123l-74 -352h170q266 0 417 -90.5t151 -247.5q0 -109 -53 -207t-141 -166.5t-205 -108.5t-242 -40
h-777zM500 119h143q92 0 168.5 34.5t124.5 91.5t74 127t26 144q0 106 -60.5 165.5t-172.5 59.5h-172z" />
    <glyph glyph-name="uni0412" unicode="&#x412;" horiz-adv-x="1503" 
d="M-23 0l37 98l68 17q54 13 81 44t38 85l233 1091l-184 -18l51 137h715q211 0 330.5 -76t119.5 -202q0 -152 -121.5 -265.5t-297.5 -140.5q171 -20 266.5 -95.5t95.5 -189.5q0 -95 -55.5 -185.5t-144.5 -155.5t-204 -104.5t-231 -39.5h-797zM500 119h164q80 0 144 17.5
t105 48.5t70 68t43.5 80.5t20.5 80.5t6 75q0 97 -61 152t-179 55h-190zM645 803h193q72 0 129.5 35.5t90 90.5t49.5 113.5t17 112.5q0 90 -54 135t-157 45h-153z" />
    <glyph glyph-name="uni0413" unicode="&#x413;" horiz-adv-x="1325" 
d="M-23 0l39 98l66 17q61 18 93 51.5t44 89.5l230 1079l-199 -18l51 137h829q165 0 300 41l-60 -471h-84q0 2 -1 7q-34 154 -60 207q-47 92 -145 97h-9h-141q-87 0 -128 -32t-59 -107l-227 -1077l199 18l-49 -137h-689z" />
    <glyph glyph-name="uni0414" unicode="&#x414;" horiz-adv-x="1607" 
d="M-154 -471q15 390 70 608l154 -8q104 54 195 157t155 230.5t109 254t73 255.5l66 309l-283 -8l55 127h1272l-45 -104l-70 -9q-49 -4 -75 -37.5t-39 -97.5l-230 -1087l258 18q-55 -323 -215 -608h-86q125 471 -65 471h-946q-37 0 -67.5 -19.5t-55 -53.5t-49.5 -96.5
t-46.5 -129.5t-50.5 -172h-84zM291 119h528q108 0 135 137l232 1079h-402l-61 -284q-59 -274 -170.5 -526.5t-261.5 -405.5z" />
    <glyph glyph-name="uni0415" unicode="&#x415;" horiz-adv-x="1474" 
d="M-23 0l41 98l66 17q113 30 135 131l232 1089l-201 -18l51 137h864q138 0 287 57l-37 -520h-84q-40 177 -101 260.5t-179 83.5h-275l-114 -532h149q83 0 140.5 50t109.5 181h84l-121 -569h-84q3 130 -33.5 178.5t-120.5 48.5h-147l-123 -573h346q218 0 447 401h84
l-219 -577q-114 57 -265 57h-932z" />
    <glyph glyph-name="uni0416" unicode="&#x416;" horiz-adv-x="2484" 
d="M772 0l39 98l66 17q52 14 88.5 50.5t46.5 86.5l229 1083l-199 -18l50 137h675l-41 -98l-67 -19q-47 -14 -79 -49.5t-42 -87.5l-227 -1081l182 18l-49 -137h-672zM-88 20q150 61 242.5 120.5t197.5 172.5l463 502l-311 395q-47 61 -107 96.5t-170 49.5l43 98h598l-49 -137
l-252 14l469 -614l-4 -21l-403 -487q-107 -130 -269 -179.5t-446 -49.5zM1505 696l4 21l736 614l-260 -14l51 137h598l-41 -98q-35 -4 -63.5 -10t-54.5 -16.5t-42 -17t-39.5 -23t-32 -23t-35 -28.5t-34.5 -28l-506 -415l239 -482q58 -114 125 -173.5t193 -119.5l-21 -40
q-283 0 -424 49.5t-194 179.5z" />
    <glyph glyph-name="uni0417" unicode="&#x417;" horiz-adv-x="1339" 
d="M502 -20q-84 0 -172.5 16t-167.5 47t-129.5 83t-50.5 116q0 80 70.5 151.5t164.5 71.5q51 -164 73 -212q53 -112 140 -146q49 -19 115 -19q96 0 178 55t128 142.5t46 183.5q0 108 -91.5 163.5t-289.5 55.5l-12 119q99 0 189.5 26.5t161.5 74t113 121t42 161.5
q0 79 -54 127.5t-155 48.5q-74 0 -140.5 -28t-123.5 -81.5t-102 -112.5t-95 -140h-84l125 401q226 70 455 70q248 0 384 -73t136 -200q0 -142 -117 -253t-297 -173q318 -43 318 -264q0 -116 -67 -218t-175 -169.5t-243.5 -106t-272.5 -38.5z" />
    <glyph glyph-name="uni0418" unicode="&#x418;" horiz-adv-x="1869" 
d="M516 115v2l-24 -117h-515l39 98l66 17q61 18 93 51.5t44 89.5l230 1079l-199 -18l51 137h676l-43 -98l-68 -19q-98 -28 -123 -141l-170 -807l785 776q37 37 64.5 86.5t35.5 87.5l25 115h502l-41 -98l-68 -19q-98 -27 -123 -141l-227 -1077l198 18l-51 -137h-676l41 98
l68 17q97 25 123 141l166 780l-787 -776q-29 -25 -57 -67.5t-35 -77.5z" />
    <glyph glyph-name="uni0419" unicode="&#x419;" horiz-adv-x="1869" 
d="M516 115v2l-24 -117h-515l39 98l66 17q61 18 93 51.5t44 89.5l230 1079l-199 -18l51 137h676l-43 -98l-68 -19q-98 -28 -123 -141l-170 -807l785 776q37 37 64.5 86.5t35.5 87.5l25 115h502l-41 -98l-68 -19q-98 -27 -123 -141l-227 -1077l198 18l-51 -137h-676l41 98
l68 17q97 25 123 141l166 780l-787 -776q-29 -25 -57 -67.5t-35 -77.5zM895 1851q0 43 63 76.5t118.5 34.5t68.5 -20q17 -100 54.5 -141.5t100.5 -41.5q71 0 137 63.5t148 184.5q45 0 73 -16.5t11 -48.5q-14 -27 -33 -57t-63.5 -84.5t-93 -94.5t-121.5 -71t-150 -31
q-126 0 -219.5 76t-93.5 171z" />
    <glyph glyph-name="uni041A" unicode="&#x41a;" horiz-adv-x="1728" 
d="M1575 -20q-273 0 -410.5 51.5t-208.5 177.5l-254 448l9 37l778 637l-252 -14l49 137h600l-41 -98q-115 -14 -182.5 -47.5t-144.5 -98.5l-529 -432l291 -465q71 -116 135 -176.5t180 -116.5zM-20 0l43 98l63 17q53 14 89 51t46 90l232 1079l-203 -18l51 137h676l-41 -98
l-68 -19q-96 -29 -118 -137l-232 -1081l180 18l-51 -137h-667z" />
    <glyph glyph-name="uni041B" unicode="&#x41b;" horiz-adv-x="1585" 
d="M123 -20q-58 0 -131.5 76.5t-59.5 146.5q113 27 209 84t165 132t123.5 172.5t89.5 197.5t59 215l71 331l-280 -8l55 127h1276l-45 -104l-70 -9q-49 -4 -75.5 -38t-39.5 -97l-229 -1087l199 18l-51 -137h-693l45 115l66 2q108 3 135 139l232 1079h-406l-66 -307
q-35 -164 -86.5 -318t-122 -298t-166 -257.5t-204.5 -174.5z" />
    <glyph glyph-name="uni041C" unicode="&#x41c;" horiz-adv-x="2119" 
d="M2 0l43 98l82 19q92 20 115 110l258 1008q-58 72 -226 178l19 41h541l266 -954l626 954h529l-33 -65l-51 -19q-77 -31 -114.5 -69.5t-49.5 -100.5l-190 -1081l198 18l-49 -137h-678l43 98l64 17q102 26 121 145l159 907l-768 -1187h-37l2 6l-4 -6l-295 1077l-233 -938
l223 18l-51 -137h-510z" />
    <glyph glyph-name="uni041D" unicode="&#x41d;" horiz-adv-x="1861" 
d="M989 0l43 98l68 17q99 25 121 141l90 420h-678l-117 -557l199 18l-49 -137h-689l41 98l64 17q62 18 94.5 52t44.5 89l228 1079l-199 -18l51 137h676l-43 -98l-68 -19q-98 -28 -123 -141l-84 -401h676l115 540l-199 -18l49 137h676l-41 -98l-67 -19q-98 -27 -123 -141
l-227 -1077l198 18l-51 -137h-676z" />
    <glyph glyph-name="uni041E" unicode="&#x41e;" horiz-adv-x="1736" 
d="M766 -20q-145 0 -269 46.5t-210 127.5t-134.5 191.5t-48.5 236.5q0 169 79 332.5t210 286.5t312 198.5t374 75.5q143 0 266.5 -47t209 -127.5t134 -191.5t48.5 -237q0 -173 -78.5 -337t-209 -285.5t-310.5 -195.5t-373 -74zM473 616q0 -218 103.5 -362.5t265.5 -144.5
q122 0 224.5 67t166.5 174t99.5 234.5t35.5 253.5q0 218 -103 363t-264 145q-99 0 -186 -45.5t-148 -120.5t-106 -170t-66.5 -196t-21.5 -198z" />
    <glyph glyph-name="uni041F" unicode="&#x41f;" horiz-adv-x="1808" 
d="M-23 0l39 98l66 17q61 18 93 51.5t44 89.5l230 1079l-199 -18l51 137h1622l-41 -98l-67 -19q-98 -27 -123 -141l-228 -1077l199 18l-51 -137h-676l41 98l67 17q97 25 123 141l230 1079h-467q-88 0 -128.5 -31.5t-58.5 -107.5l-227 -1077l199 18l-49 -137h-689z" />
    <glyph glyph-name="uni0420" unicode="&#x420;" horiz-adv-x="1443" 
d="M-23 0l37 98l86 25q97 29 121 135l230 1077l-201 -18l51 137h682q275 0 423 -86t148 -256q0 -117 -60 -217t-158.5 -166.5t-224 -103.5t-257.5 -37h-238l-100 -469l223 18l-49 -137h-713zM639 696h156q119 0 211.5 56t139 140t46.5 177q0 121 -68.5 193.5t-195.5 72.5
h-152z" />
    <glyph glyph-name="uni0421" unicode="&#x421;" horiz-adv-x="1538" 
d="M780 -20q-308 0 -494 156t-186 417q0 184 80 354.5t214.5 294.5t319 198.5t384.5 74.5q260 0 487 -107l-67 -418h-84q-35 201 -127.5 298.5t-272.5 97.5q-96 0 -180.5 -36t-146 -97.5t-109.5 -141t-77.5 -170t-44.5 -181t-15 -177.5q0 -207 93 -320.5t265 -113.5
q115 0 208 44t172 127t177 228h84l-180 -463q-225 -65 -500 -65z" />
    <glyph glyph-name="uni0422" unicode="&#x422;" horiz-adv-x="1456" 
d="M262 0l41 98l92 27q114 35 142 162l223 1048h-148q-53 0 -99.5 -21.5t-88 -67t-75 -96t-75.5 -126.5h-84l142 471q119 -41 272 -41h690q143 0 293 41l-59 -471h-84q-28 156 -52 209q-41 92 -132 101q-11 1 -23 1h-152l-260 -1216l240 18l-49 -137h-754z" />
    <glyph glyph-name="uni0423" unicode="&#x423;" horiz-adv-x="1486" 
d="M199 -20q-41 0 -66.5 26t-33 66t-7.5 80t8 77q26 0 90 -1t88 -0.5t73 5t77 14t65 28.5t70 47q113 94 72 217l-262 796l-162 -10l49 129h739l-41 -98l-102 -10q-69 -6 -95.5 -43t-6.5 -99l151 -448l443 579l-189 -10l49 129h502l-43 -98l-86 -8q-40 -3 -80 -33.5
t-96 -102.5l-584 -757q-205 -265 -347 -370t-275 -105z" />
    <glyph glyph-name="uni0424" unicode="&#x424;" horiz-adv-x="1802" 
d="M414 0l41 98l108 17q97 14 123 145q-258 31 -411.5 148.5t-153.5 281.5q0 91 44 174t119.5 147t175.5 115t211 83.5t228 47.5l29 140l-223 -19l49 138h741l-41 -99l-108 -18q-90 -16 -121 -137q264 -29 421.5 -147.5t157.5 -283.5q0 -115 -68.5 -216.5t-182 -172.5
t-253 -118t-288.5 -64l-29 -141l240 18l-52 -137h-757zM463 684q0 -114 64.5 -200t181.5 -122l168 797q-180 -47 -297 -176.5t-117 -298.5zM1032 356q185 44 307.5 175.5t122.5 302.5q0 118 -68.5 206t-191.5 121z" />
    <glyph glyph-name="uni0425" unicode="&#x425;" horiz-adv-x="1691" 
d="M709 0l43 98l116 19q65 9 91 39t2 73l-175 334l-432 -452l238 26l-51 -137h-607l43 98l125 19q104 15 220 131l407 424l-348 663l-172 -18l51 137h817l-41 -98l-94 -19q-74 -15 -101.5 -44t-6.5 -68l182 -353l457 463l-236 -18l49 137h567l-41 -98l-96 -19
q-49 -9 -93.5 -36.5t-102.5 -86.5l-445 -452l334 -643l176 18l-49 -137h-827z" />
    <glyph glyph-name="uni0426" unicode="&#x426;" horiz-adv-x="1835" 
d="M1432 -471q125 471 -58 471h-1423l49 137l190 -18l259 1216l-199 -18l51 137h676l-43 -98l-68 -17q-95 -24 -121 -141l-229 -1079h467q89 0 129 31.5t55 107.5l230 1077l-199 -18l49 137h688l-41 -98l-65 -17q-61 -18 -93 -51.5t-44 -89.5l-228 -1079l269 18
q-58 -329 -217 -608h-84z" />
    <glyph glyph-name="uni0427" unicode="&#x427;" horiz-adv-x="1767" 
d="M686 528q-74 0 -133 14.5t-97 41t-63.5 61t-36 77t-10.5 87t10 92.5l93 434l-199 -18l51 137h666l-43 -98l-58 -19q-53 -17 -82 -51t-41 -90l-47 -221q-16 -78 -14 -133t40 -85t116 -30q98 0 208.5 25.5t198.5 64.5l111 518l-182 -18l51 137h659l-43 -98l-67 -19
q-98 -28 -123 -141l-228 -1077l199 18l-49 -137h-676l39 98l70 17q94 24 120 141l97 453q-107 -77 -247 -129t-290 -52z" />
    <glyph glyph-name="uni0428" unicode="&#x428;" horiz-adv-x="2486" 
d="M-49 0l49 137l190 -18l259 1216l-199 -18l51 137h676l-43 -98l-68 -17q-95 -24 -121 -141l-229 -1079h332q90 0 129.5 31.5t56.5 115.5l228 1069l-191 -18l51 137h676l-43 -98l-59 -17q-62 -18 -93.5 -51.5t-43.5 -89.5l-230 -1079h338q87 0 124.5 31t53.5 106l230 1079
l-191 -18l51 137h680l-43 -98l-63 -17q-62 -18 -93.5 -51.5t-45.5 -89.5l-228 -1079l199 18l-49 -137h-2341z" />
    <glyph glyph-name="uni0429" unicode="&#x429;" horiz-adv-x="2486" 
d="M-49 0l49 137l190 -18l259 1216l-199 -18l51 137h676l-43 -98l-68 -17q-95 -24 -121 -141l-229 -1079h332q90 0 129.5 31.5t56.5 115.5l228 1069l-191 -18l51 137h676l-43 -98l-59 -17q-62 -18 -93.5 -51.5t-43.5 -89.5l-230 -1079h338q87 0 124.5 31t53.5 106l230 1079
l-191 -18l51 137h680l-43 -98l-63 -17q-62 -18 -93.5 -51.5t-45.5 -89.5l-228 -1077l2 4l318 27q-53 -331 -217 -623h-84q125 471 -64 471h-2146z" />
    <glyph glyph-name="uni042A" unicode="&#x42a;" horiz-adv-x="1804" 
d="M291 0l41 98l63 17q63 18 95.5 52t44.5 89l229 1079h-137q-56 0 -102 -20t-87.5 -64.5t-73 -89t-79.5 -119.5q-2 -4 -3.5 -6t-3.5 -5.5t-4 -6.5h-84l142 471q119 -41 280 -41h678l-41 -98l-67 -19q-98 -27 -123 -141l-72 -336h162q266 0 415.5 -90.5t149.5 -247.5
q0 -109 -53 -207t-140.5 -166.5t-205 -108.5t-242.5 -40h-782zM829 119h136q92 0 168.5 34.5t124.5 91.5t74 127t26 144q0 106 -62 165.5t-172 59.5h-161z" />
    <glyph glyph-name="uni042B" unicode="&#x42b;" horiz-adv-x="2215" 
d="M-23 0l39 98l66 17q61 18 93 51.5t44 89.5l230 1079l-199 -18l51 137h676l-43 -98l-68 -19q-98 -28 -123 -141l-71 -336h149q274 0 421 -89t147 -247q0 -146 -88 -267t-235 -189t-318 -68h-771zM516 119h121q92 0 168.5 34.5t124.5 91.5t74 127t26 144q0 106 -60.5 165.5
t-172.5 59.5h-150zM1333 0l41 98l66 17q61 17 92.5 50.5t42.5 86.5l231 1083l-200 -18l51 137h676l-39 -98l-70 -19q-98 -26 -121 -137l-231 -1081l199 18l-50 -137h-688z" />
    <glyph glyph-name="uni042C" unicode="&#x42c;" horiz-adv-x="1509" 
d="M-23 0l39 98l66 17q61 18 93 51.5t44 89.5l230 1079l-199 -18l51 137h676l-43 -98l-68 -19q-98 -28 -123 -141l-71 -336h182q266 0 416.5 -90.5t150.5 -247.5q0 -109 -53 -207t-141 -166.5t-205 -108.5t-242 -40h-803zM516 119h154q92 0 168.5 34.5t124.5 91.5t74 127
t26 144q0 106 -61 165.5t-173 59.5h-182z" />
    <glyph glyph-name="uni042D" unicode="&#x42d;" horiz-adv-x="1505" 
d="M551 -20q-71 0 -146 8.5t-152 29t-137 50t-98 76.5t-38 104q0 87 67 148.5t166 66.5q109 -354 383 -354q85 0 160.5 33.5t132 88t103.5 130t78 153.5t52 164h-270q-86 0 -143 -48t-109 -179h-84l121 565h84q-3 -129 31.5 -178.5t121.5 -49.5h271q14 83 14 166
q0 186 -81 291t-226 105q-177 0 -319 -103.5t-265 -296.5h-84l107 414q282 111 588 111q288 0 459 -155.5t171 -418.5q0 -148 -50 -288.5t-140.5 -254t-209 -199t-263 -132.5t-295.5 -47z" />
    <glyph glyph-name="uni042E" unicode="&#x42e;" horiz-adv-x="2304" 
d="M1399 -20q-170 0 -305 70.5t-212 201t-77 297.5q0 53 10 121h-180l-119 -551l199 18l-49 -137h-689l41 98l66 17q61 17 92.5 50.5t42.5 86.5l232 1083l-201 -18l51 137h676l-39 -98l-70 -19q-97 -26 -120 -137l-89 -412h183q58 185 187 341t311 251t376 95
q171 0 306.5 -71t212.5 -201t77 -296q0 -169 -75 -338t-198 -298t-292.5 -210t-347.5 -81zM1176 565q0 -209 85 -332.5t238 -123.5q85 0 159.5 55.5t125 142t87.5 192t54 205t17 181.5q0 212 -86 336.5t-240 124.5q-70 0 -134 -39t-110.5 -104.5t-85 -147t-62 -169.5
t-36 -170.5t-12.5 -150.5z" />
    <glyph glyph-name="uni042F" unicode="&#x42f;" horiz-adv-x="1687" 
d="M815 0l41 98l68 17q97 25 120 141l232 1079h-154q-161 0 -262.5 -102.5t-101.5 -259.5q0 -211 321 -211l-4 -21l-426 -528q-109 -135 -269.5 -184t-447.5 -49l-2 40q155 63 247.5 121.5t193.5 171.5l350 396q-64 8 -118 26.5t-100.5 49.5t-73 81t-26.5 113
q0 120 62.5 213.5t168.5 149t234 84t269 28.5h665l-43 -98l-67 -19q-99 -28 -121 -141l-228 -1077l197 18l-49 -137h-676z" />
    <glyph glyph-name="uni0430" unicode="&#x430;" horiz-adv-x="1161" 
d="M238 -20q-105 0 -156 82t-51 219q0 208 79 384.5t225 284t327 107.5q75 0 198 -94l195 198h59l-205 -835q-13 -32 -4.5 -58t47.5 -26q54 0 166 51l-8 -115q-92 -80 -210 -139t-202 -59q-115 0 -92 129l35 213h-25q-86 -160 -184 -251t-194 -91zM336 301q0 -30 10 -47.5
t25 -17.5q69 0 175 153t171 399q-116 97 -176 97q-46 0 -96 -124t-79.5 -260.5t-29.5 -199.5z" />
    <glyph glyph-name="uni0431" unicode="&#x431;" horiz-adv-x="1042" 
d="M641 1423q62 13 281 68q91 23 133 96h94q-13 -317 -258 -407q-80 -28 -266 -45q-95 -9 -186.5 -99.5t-143.5 -242.5q69 93 154.5 136.5t168.5 43.5q175 0 271 -99.5t96 -265.5q0 -160 -74 -304.5t-201.5 -233t-273.5 -88.5q-90 0 -159 36.5t-109 98.5t-60 136.5
t-20 158.5q0 155 33 304.5t88.5 267.5t126 212.5t149.5 152.5t156 74zM371 528q0 -77 28 -161t75 -142.5t97 -58.5q59 0 95 79.5t36 174.5q0 143 -58 250.5t-136 107.5q-58 0 -97.5 -74.5t-39.5 -175.5z" />
    <glyph glyph-name="uni0432" unicode="&#x432;" horiz-adv-x="1042" 
d="M33 336q0 124 61 254.5t158 233t227.5 168t259.5 65.5q99 0 157 -49.5t58 -120.5q0 -162 -260 -322q110 -32 177 -89.5t67 -127.5q0 -77 -35.5 -141t-91.5 -105t-127 -69.5t-139 -40.5t-131 -12q-155 0 -268 99.5t-113 256.5zM354 399q4 -65 25 -123.5t64 -101.5t100 -43
q98 0 98 180q0 114 -90 176q-50 -26 -197 -88zM365 514q284 157 284 299q0 37 -22.5 59.5t-55.5 22.5q-44 0 -88.5 -64.5t-73.5 -149t-44 -167.5z" />
    <glyph glyph-name="uni0433" unicode="&#x433;" horiz-adv-x="868" 
d="M221 -20q-110 0 -182 48.5t-72 127.5q0 86 61.5 154.5t198.5 162.5l121 82q61 42 92 79t31 83q0 57 -34 85.5t-85 28.5t-116 -36.5t-123 -98.5l-25 115q81 113 203.5 179.5t247.5 66.5q132 0 207 -55t75 -150q0 -43 -18.5 -81t-63.5 -80t-89 -74.5t-126 -88.5l-69 -49
q-66 -44 -103 -89.5t-37 -82.5q0 -47 25 -74.5t68 -27.5q60 0 132.5 37.5t178.5 113.5l24 -114q-126 -123 -263 -192.5t-259 -69.5z" />
    <glyph glyph-name="uni0434" unicode="&#x434;" horiz-adv-x="978" 
d="M37 354q0 118 42.5 242.5t114 226t175.5 167t217 65.5q7 0 20 -1t19 -1q-33 183 -119 282t-248 99q-71 0 -139 -35l-25 114q102 64 232 64q104 0 196.5 -35t161 -94.5t123.5 -136.5t89.5 -164t52.5 -174t18 -168q0 -221 -85 -410.5t-231 -301t-317 -111.5
q-147 0 -222 99.5t-75 272.5zM326 635q0 -99 24.5 -204t69.5 -179t94 -74q64 0 101.5 109t37.5 307q0 107 -2 158q-63 49 -122 79.5t-91 30.5q-62 0 -87 -55t-25 -172z" />
    <glyph glyph-name="uni0435" unicode="&#x435;" horiz-adv-x="960" 
d="M43 336q0 124 61 254.5t158 233t228 168t260 65.5q99 0 157 -49.5t58 -120.5q0 -53 -27.5 -103.5t-79 -95t-106.5 -81.5t-131.5 -73.5t-130.5 -59.5t-125 -50q0 -195 159 -195q81 0 170.5 47.5t173.5 133.5l25 -115q-83 -140 -216.5 -227.5t-293.5 -87.5
q-151 0 -245.5 97.5t-94.5 258.5zM381 545q125 67 193.5 129.5t68.5 138.5q0 82 -61 82q-41 0 -83.5 -57t-71.5 -134.5t-46 -158.5z" />
    <glyph glyph-name="uni0436" unicode="&#x436;" horiz-adv-x="1904" 
d="M938 1020l266 37l-90 -389q73 109 157 188.5t165.5 121t152 60.5t135.5 19q76 0 145.5 -25t69.5 -65q0 -67 -33 -130t-73 -63q-14 0 -36.5 18.5t-44 40t-55.5 40t-69 18.5q-47 0 -87 -46.5t-64 -113t-37 -132t-13 -112.5q0 -262 127 -262q57 0 121 28.5t109 74.5l24 -115
q-55 -108 -146.5 -170.5t-191.5 -62.5q-153 0 -229 92t-76 237q0 211 142 436q-72 -89 -125 -172t-114 -226.5t-99 -313.5l-4 -17l-273 -36l90 382q-72 -108 -155 -186t-163 -119t-149.5 -59t-134.5 -18q-77 0 -146 25t-69 65q0 67 33 129.5t74 62.5q14 0 35.5 -18.5t43 -40
t55 -40t68.5 -18.5q47 0 87 46.5t64 113t37 132t13 112.5q0 262 -127 262q-57 0 -120.5 -28t-108.5 -74l-25 114q57 108 148 171t190 63q153 0 230 -92.5t77 -237.5q0 -206 -135 -426q98 121 174.5 263t132.5 345z" />
    <glyph glyph-name="uni0437" unicode="&#x437;" horiz-adv-x="1005" 
d="M322 -20q-157 0 -259.5 39t-99.5 98q3 85 39 124.5t90 39.5q21 0 43 -19t43.5 -46t46.5 -54.5t62 -46.5t80 -19q77 0 135.5 63.5t58.5 151.5q0 66 -44 108t-126 42q-41 0 -74 -4l-10 100q89 13 163.5 42.5t123.5 77t49 101.5q0 56 -45 82.5t-115 26.5q-153 0 -288 -94
l-27 114q80 63 199.5 106.5t222.5 43.5q179 0 277 -66.5t98 -165.5q0 -100 -100.5 -171t-258.5 -93q146 -21 218.5 -82t72.5 -147q0 -72 -35 -132t-92 -100t-132.5 -67.5t-155 -40t-160.5 -12.5z" />
    <glyph glyph-name="uni0438" unicode="&#x438;" horiz-adv-x="1325" 
d="M264 -20q-104 0 -166 61.5t-24 144.5q110 233 184 527q10 40 -2 61t-41 21q-52 0 -166 -52l8 115q89 77 219 138t216 61q169 0 112 -219q-62 -244 -176 -557q-13 -39 29 -39q61 0 157.5 129t182.5 310t127 335l313 41l-178 -733q-11 -49 0.5 -65.5t42.5 -16.5
q30 0 88 14.5t106 36.5l-8 -115q-89 -77 -218 -137.5t-214 -60.5q-90 0 -114.5 61t16.5 201l78 254h-19q-54 -102 -119.5 -193t-137 -164t-149 -116t-147.5 -43z" />
    <glyph glyph-name="uni0439" unicode="&#x439;" horiz-adv-x="1325" 
d="M264 -20q-104 0 -166 61.5t-24 144.5q110 233 184 527q10 40 -2 61t-41 21q-52 0 -166 -52l8 115q89 77 219 138t216 61q169 0 112 -219q-62 -244 -176 -557q-13 -39 29 -39q61 0 157.5 129t182.5 310t127 335l313 41l-178 -733q-11 -49 0.5 -65.5t42.5 -16.5
q30 0 88 14.5t106 36.5l-8 -115q-89 -77 -218 -137.5t-214 -60.5q-90 0 -114.5 61t16.5 201l78 254h-19q-54 -102 -119.5 -193t-137 -164t-149 -116t-147.5 -43zM449 1434q0 43 63 76.5t118 34t68 -20.5q17 -100 55 -141.5t101 -41.5q71 0 137 63.5t148 184.5q45 0 73 -16.5
t11 -48.5q-14 -27 -33 -57t-63.5 -84.5t-93 -94.5t-121.5 -71t-150 -31q-125 0 -219 76.5t-94 171.5z" />
    <glyph glyph-name="uni043A" unicode="&#x43a;" horiz-adv-x="1318" 
d="M51 860q97 76 244 136.5t268 60.5q48 0 62.5 -20.5t-0.5 -84.5l-238 -932l-311 -40l172 679q16 63 -24.5 88t-155.5 3zM569 481v21q150 234 331.5 394.5t328.5 160.5q27 0 45 -14t18 -39q0 -31 -10 -83.5t-36 -107t-60 -61.5q-95 -21 -211 -66.5t-203 -97.5l115 -205
q29 -52 72 -81.5t90 -29.5q65 0 174 50l8 -115q-97 -100 -197 -163.5t-172 -63.5q-70 0 -112.5 57t-85.5 178z" />
    <glyph glyph-name="uni043B" unicode="&#x43b;" horiz-adv-x="1243" 
d="M975 319q-11 -47 0 -62t43 -15q54 0 166 51l-8 -115q-89 -77 -219 -137.5t-216 -60.5q-88 0 -111 58t11 195l145 572q5 21 5.5 36.5t-1 26t-11.5 17.5t-17 10.5t-27 5.5t-31.5 2h-39.5h-17q-84 0 -131 -2l-156 -604q-37 -146 -97 -231.5t-140 -85.5q-83 0 -126 83
t-33 165.5t54 82.5q42 0 69 1.5t62 10t57.5 23.5t43 43.5t31.5 69.5l114 436q-76 -3 -190 -12v121q147 16 452 34.5t387 18.5q34 0 52.5 -15.5t25.5 -59t-14 -120.5z" />
    <glyph glyph-name="uni043C" unicode="&#x43c;" horiz-adv-x="1413" 
d="M1247 319q-11 -46 1 -61.5t44 -15.5q54 0 166 51l-8 -115q-89 -77 -218.5 -137.5t-215.5 -60.5q-89 0 -113 58t12 195l127 484l-479 -737h-20l-90 782l-113 -465q-34 -146 -94 -233t-140 -87q-83 0 -125.5 83t-32.5 166t54 83q33 0 57.5 1.5t54 6.5t51 15t42 26t35 41.5
t22.5 59.5l111 454q-62 -8 -203 -22v121q74 14 244 29.5t225 15.5q74 0 84 -96l45 -453l317 508l338 41z" />
    <glyph glyph-name="uni043D" unicode="&#x43d;" horiz-adv-x="1363" 
d="M35 860q97 76 244 136.5t268 60.5q48 0 62 -20.5t-1 -84.5l-88 -352h336l105 416l313 41l-178 -738q-11 -46 1 -61.5t44 -15.5q54 0 166 51l-9 -115q-89 -77 -218.5 -137.5t-215.5 -60.5q-88 0 -111.5 58t11.5 195l63 252h-338l-116 -465l-314 -40l174 679q15 63 -26 88
t-156 3z" />
    <glyph glyph-name="uni043E" unicode="&#x43e;" horiz-adv-x="1028" 
d="M362 -18q-148 0 -231.5 100t-83.5 264q0 116 48.5 242t129.5 230t197.5 171.5t241.5 67.5q147 0 230 -107.5t83 -275.5q0 -121 -48 -245t-128.5 -223t-196.5 -161.5t-242 -62.5zM352 627q0 -94 26.5 -197t72.5 -175.5t96 -72.5q39 0 68.5 40t42 92.5t12.5 105.5
q0 95 -27 196t-72 170.5t-92 69.5q-36 0 -62.5 -21.5t-39.5 -57.5t-19 -73t-6 -77z" />
    <glyph glyph-name="uni043F" unicode="&#x43f;" horiz-adv-x="1374" 
d="M66 860q97 76 244 136.5t268 60.5q49 0 63.5 -20.5t-2.5 -84.5l-131 -434h18q58 110 119 202t130.5 170t144.5 122.5t145 44.5q105 0 167 -62t32 -159l-156 -512q-14 -48 -1.5 -65t44.5 -17q54 0 166 51l-8 -115q-89 -77 -219 -137.5t-216 -60.5q-89 0 -113.5 60.5
t15.5 201.5l150 501q10 44 4.5 55t-25.5 11q-47 0 -148 -131t-200.5 -320.5t-138.5 -337.5l-312 -40l156 679q15 63 -25 88t-155 3z" />
    <glyph glyph-name="uni0440" unicode="&#x440;" horiz-adv-x="1177" 
d="M-137 -393q81 18 121.5 59t58.5 115l209 878q15 63 -25.5 88t-154.5 3l-17 110q99 78 237.5 137.5t258.5 59.5q33 0 50.5 -8t23 -31.5t-14.5 -65.5l-98 -245h16q84 164 180.5 257t192.5 93q118 0 176 -90.5t58 -235.5q0 -153 -47 -291t-129.5 -239.5t-202.5 -161
t-258 -59.5q-29 0 -97 14l-82 -361l320 41l-25 -145l-768 -18zM461 248q56 -43 112.5 -69.5t94.5 -26.5q40 0 79.5 101t60.5 212t21 168q0 168 -59 168q-67 0 -156.5 -146.5t-152.5 -406.5z" />
    <glyph glyph-name="uni0441" unicode="&#x441;" horiz-adv-x="952" 
d="M420 -20q-167 0 -269 106t-102 272q0 93 32.5 192.5t93.5 189t140.5 161t181.5 114t208 42.5q84 0 186 -25.5t102 -62.5q0 -67 -41.5 -137t-81.5 -70q-15 0 -59 27.5t-100.5 55t-100.5 27.5q-71 0 -129 -74.5t-86 -172t-28 -185.5q0 -100 41.5 -155.5t119.5 -55.5
q139 0 308 172l24 -114q-74 -140 -193 -223.5t-247 -83.5z" />
    <glyph glyph-name="uni0442" unicode="&#x442;" horiz-adv-x="1908" 
d="M66 860q96 76 244.5 136.5t269.5 60.5q48 0 62.5 -21.5t-1.5 -83.5l-125 -411h19q55 106 112.5 194.5t121.5 163t131 116.5t128 42q101 0 144.5 -59.5t11.5 -161.5l-86 -277h18q53 104 108.5 189.5t116.5 157t125.5 111.5t124.5 40q112 0 175 -61.5t32 -159.5l-158 -512
q-14 -48 -1.5 -65t44.5 -17q54 0 166 51l-8 -115q-92 -80 -214.5 -139t-217.5 -59q-89 0 -113.5 61t15.5 201l145 493q12 51 7 62.5t-25 11.5q-46 0 -137 -132t-178.5 -319.5t-127.5 -337.5l-315 -40l215 759q9 47 4 58.5t-25 11.5q-46 0 -140 -131.5t-185 -320t-131 -337.5
l-312 -40l156 679q15 63 -24.5 88t-155.5 3z" />
    <glyph glyph-name="uni0443" unicode="&#x443;" horiz-adv-x="1165" 
d="M-215 -330q23 -2 74 -2q77 0 148 11t139.5 34.5t123.5 67t86 102.5q64 119 64 307q0 103 -23 215t-57.5 198t-77.5 142t-82 56q-68 0 -143 -53l-10 114q73 68 184 131.5t182 63.5q82 0 148 -91.5t100.5 -238t34.5 -315.5q0 -43 -8 -187q83 152 144 351t69 407
q0 33 23 53.5t57 20.5q36 0 90.5 -16.5t98 -43t42.5 -51.5q-5 -103 -80.5 -258t-213 -350.5t-292 -391t-358.5 -435.5q-106 0 -237 17t-226 46v96z" />
    <glyph glyph-name="uni0444" unicode="&#x444;" horiz-adv-x="1521" 
d="M-37 -492q-86 0 -86 76q0 57 47 121t88 64q34 0 152.5 -44t163.5 -44q68 0 113 84t75 239l62 313q-159 -337 -338 -337q-195 0 -195 301q0 150 43 290.5t118.5 248t188.5 172.5t244 65q39 0 84 -25q71 270 279.5 407.5t582.5 137.5q46 0 69.5 -20.5t16.5 -55.5
q-13 -62 -54.5 -123t-80.5 -61q-34 0 -152 44t-163 44q-68 0 -126 -107t-89 -266l-62 -313q160 338 338 338q195 0 195 -301q0 -150 -43 -290.5t-118.5 -248t-188 -172.5t-242.5 -65q-41 0 -88 26q-76 -264 -276.5 -381t-557.5 -117zM313 299q0 -28 14.5 -45.5t32.5 -17.5
q65 0 155 148.5t155 397.5l2 6q-107 97 -160 97q-48 0 -96.5 -124t-75.5 -260t-27 -202zM850 248q106 -96 160 -96q48 0 96.5 124t75 259t26.5 202q0 28 -14.5 46t-32.5 18q-65 0 -155.5 -150t-155.5 -401v-2z" />
    <glyph glyph-name="uni0445" unicode="&#x445;" horiz-adv-x="1148" 
d="M709 -20q-68 0 -120 44.5t-73 129.5l-55 211l-123 -267q-51 -118 -240 -118q-82 0 -126 40t12 89l450 358l-57 223q-12 52 -40.5 81.5t-66.5 29.5q-25 0 -82 -21t-108 -53l-8 115q65 78 169 138t189 60q69 0 123 -44.5t76 -129.5l63 -252l139 324q50 119 244 119
q82 0 125.5 -36.5t-8.5 -86.5l-475 -408l49 -196q29 -111 102 -111q27 0 83 20.5t108 53.5l8 -115q-65 -78 -169 -138t-189 -60z" />
    <glyph glyph-name="uni0446" unicode="&#x446;" horiz-adv-x="1325" 
d="M264 -20q-104 0 -166 61.5t-24 144.5q110 233 184 527q10 40 -2 61t-41 21q-52 0 -166 -52l8 115q89 77 219 138t216 61q169 0 112 -219q-62 -244 -176 -557q-13 -39 29 -39q61 0 157.5 129t182.5 310t127 335l313 41l-178 -733q-11 -49 0.5 -65.5t42.5 -16.5
q30 0 88 14.5t106 36.5l-8 -115q-94 -82 -237 -147q-85 -53 -103 -72q-14 -16 -14 -29q0 -14 15 -33t36 -37.5t42.5 -38t36.5 -41.5t15 -42q0 -33 -35 -73.5t-84 -73t-91.5 -55.5t-67.5 -32l-70 52q35 18 75 55.5t40 66.5q0 28 -37.5 65t-75 71.5t-37.5 56.5q0 46 107 115
q-112 35 -45 256l78 254h-19q-54 -102 -119.5 -193t-137 -164t-149 -116t-147.5 -43z" />
    <glyph glyph-name="uni0447" unicode="&#x447;" horiz-adv-x="1339" 
d="M360 264q-103 0 -161.5 61.5t-22.5 145.5q57 136 82 242q10 40 -2 61t-41 21q-52 0 -166 -52l8 115q89 77 219 138t216 61q169 0 112 -219l-82 -273q-26 -92 33 -92q81 0 195.5 160.5t173.5 382.5l313 41l-195 -733q-12 -49 -0.5 -65.5t43.5 -16.5q30 0 88.5 14.5
t106.5 36.5l-8 -115q-89 -77 -218 -137.5t-214 -60.5q-91 0 -118 63t19 199l127 370h-18q-99 -181 -220 -264.5t-270 -83.5z" />
    <glyph glyph-name="uni0448" unicode="&#x448;" horiz-adv-x="1701" 
d="M223 -20q-103 0 -157 61t-15 145q113 239 182 527q10 40 -1 61t-39 21q-52 0 -166 -52l8 115q91 79 212.5 139t205.5 60q169 0 112 -219q-66 -258 -178 -557q-13 -39 29 -39q40 0 118 114.5t161 299t130 360.5l314 41l-250 -772q-16 -43 26 -43q31 0 85.5 70t113 178
t116.5 250.5t93 275.5l313 41l-225 -733q-13 -34 -7.5 -52.5t16.5 -24t32 -5.5q30 0 89.5 14.5t107.5 36.5l-9 -115q-92 -80 -202.5 -139t-182.5 -59q-91 0 -128 55t-1 153l107 299h-19q-15 -28 -40.5 -76.5t-40.5 -76t-39 -70t-40 -68t-39.5 -59.5t-42.5 -53.5t-44 -42
t-48 -34t-50.5 -19.5t-55.5 -8q-89 0 -133 59t-12 147l104 301h-18q-47 -87 -86.5 -153t-91 -136t-98.5 -115t-103.5 -74t-112.5 -29z" />
    <glyph glyph-name="uni0449" unicode="&#x449;" horiz-adv-x="1701" 
d="M223 -20q-103 0 -157 61t-15 145q113 239 182 527q10 40 -1 61t-39 21q-52 0 -166 -52l8 115q91 79 212.5 139t205.5 60q169 0 112 -219q-66 -258 -178 -557q-13 -39 29 -39q40 0 118 114.5t161 299t130 360.5l314 41l-250 -772q-16 -43 26 -43q31 0 85.5 70t113 178
t116.5 250.5t93 275.5l313 41l-225 -733q-13 -34 -7.5 -52.5t16.5 -24t32 -5.5q30 0 89.5 14.5t107.5 36.5l-9 -115q-106 -91 -225 -151q-31 -20 -43.5 -28t-32 -22.5t-27 -25.5t-7.5 -21q0 -14 15 -33t36.5 -37.5t42.5 -38t36 -41.5t15 -42q0 -33 -35 -73.5t-84.5 -73
t-92 -55.5t-67.5 -32l-69 52q35 18 75 55.5t40 66.5q0 28 -37.5 65t-75 71.5t-37.5 56.5q0 47 115 121q-51 21 -66.5 70t10.5 126l107 299h-19q-15 -28 -40.5 -76.5t-40.5 -76t-39 -70t-40 -68t-39.5 -59.5t-42.5 -53.5t-44 -42t-48 -34t-50.5 -19.5t-55.5 -8q-89 0 -133 59
t-12 147l104 301h-18q-47 -87 -86.5 -153t-91 -136t-98.5 -115t-103.5 -74t-112.5 -29z" />
    <glyph glyph-name="uni044A" unicode="&#x44a;" horiz-adv-x="1370" 
d="M369 66l215 847q-79 -6 -137 -23t-104.5 -50.5t-80 -71t-76.5 -100.5h-84l125 413q149 -45 295 -45h398l-181 -530h21q58 94 143 158.5t178 64.5q56 0 98 -25t64 -67t32.5 -88.5t10.5 -97.5q0 -217 -143 -344t-375 -127q-71 0 -209 28t-190 58zM709 231q86 -77 172 -77
q48 0 82 59t34 154q0 110 -86 110q-63 0 -120 -70t-82 -176z" />
    <glyph glyph-name="uni044B" unicode="&#x44b;" horiz-adv-x="1671" 
d="M449 -20q-68 0 -191 27.5t-176 58.5l151 593q15 63 -26 88t-156 3l-16 110q97 76 244 136.5t268 60.5q33 0 50 -8.5t22.5 -32t-11.5 -64.5l-155 -430h18q49 89 123.5 148t163.5 59q56 0 98 -25t64 -67t32.5 -88.5t10.5 -97.5q0 -217 -142.5 -344t-371.5 -127zM422 231
q22 -40 60.5 -58.5t74.5 -18.5q48 0 82.5 59t34.5 154q0 110 -86 110q-108 0 -166 -246zM958 893q120 61 270 112.5t265 51.5q32 0 48 -8t22 -31.5t-9 -65.5l-188 -628q-11 -41 1.5 -61.5t41.5 -20.5t84 14.5t104 36.5l-8 -115q-86 -74 -232.5 -136t-234.5 -62
q-89 0 -111.5 60.5t19.5 201.5l123 417q18 60 -28 96.5t-150 26.5z" />
    <glyph glyph-name="uni044C" unicode="&#x44c;" horiz-adv-x="1196" 
d="M592 -20q-71 0 -209 28t-190 58l151 593q16 63 -25 88t-155 3l-17 110q97 76 244 136.5t268 60.5q33 0 50 -8.5t22 -32t-12 -64.5l-156 -446h21q58 94 143 158.5t178 64.5q56 0 98 -25t64 -67t32.5 -88.5t10.5 -97.5q0 -217 -143 -344t-375 -127zM532 231q86 -77 173 -77
q48 0 82 59t34 154q0 110 -84 110q-64 0 -122 -70t-83 -176z" />
    <glyph glyph-name="uni044D" unicode="&#x44d;" horiz-adv-x="995" 
d="M561 1057q177 0 276 -114t99 -286q0 -178 -85 -333t-236 -249.5t-332 -94.5q-85 0 -198.5 25.5t-113.5 62.5q0 68 41 137t82 69q14 0 62.5 -28t112.5 -56t116 -28q84 0 143 69.5t82 200.5l-293 -24q-58 -5 -99 68q-30 54 -24 90q2 15 13 14q66 -4 206 -17.5t208 -17.5
q2 16 2 51q0 104 -46 180t-122 76q-62 0 -124 -31t-169 -116l-25 114q80 104 191 171t233 67z" />
    <glyph glyph-name="uni044E" unicode="&#x44e;" horiz-adv-x="1599" 
d="M934 -18q-148 0 -232 100t-84 264q0 111 41 223q-105 -134 -185.5 -282t-104.5 -260l-2 -7l-312 -40l158 679q15 63 -24.5 88t-153.5 3l-17 110q97 76 244 136.5t268 60.5q49 0 63 -21t-3 -84l-137 -440h18q72 112 153 206t176.5 172.5t204 122.5t218.5 44h12
q147 0 230 -107.5t83 -275.5q0 -96 -30 -196t-86.5 -188t-130.5 -157.5t-170 -110t-197 -40.5zM924 627q0 -94 26 -197t72 -175.5t96 -72.5q39 0 68.5 40t42 92.5t12.5 105.5q0 95 -26.5 196t-71.5 170.5t-92 69.5q-36 0 -62.5 -21.5t-39.5 -57.5t-19 -73t-6 -77z" />
    <glyph glyph-name="uni044F" unicode="&#x44f;" horiz-adv-x="1206" 
d="M938 319q-11 -46 0.5 -61.5t42.5 -15.5q54 0 166 51l-8 -115q-89 -77 -218 -137.5t-214 -60.5q-88 0 -112 58t11 195l156 621q-56 35 -118.5 57.5t-98.5 22.5q-51 0 -85 -63.5t-34 -153.5q0 -99 39 -153t113 -54h43l-11 -37q-30 -22 -73 -72.5t-76 -107.5l-43 -74
q-141 -239 -268 -239q-61 0 -93.5 81t-25.5 161.5t41 80.5q219 0 305 103l16 20q-119 23 -199.5 86t-80.5 164q0 100 68.5 189t175.5 140.5t221 51.5q91 0 270 -35l268 35z" />
    <glyph glyph-name="uni0450" unicode="&#x450;" horiz-adv-x="960" 
d="M545 1251q-185 86 -185 203q0 55 31 119.5t76 64.5q19 0 84 -93t147.5 -219.5t120.5 -172.5l-22 -23zM43 336q0 124 61 254.5t158 233t228 168t260 65.5q99 0 157 -49.5t58 -120.5q0 -53 -27.5 -103.5t-79 -95t-106.5 -81.5t-131.5 -73.5t-130.5 -59.5t-125 -50
q0 -195 159 -195q81 0 170.5 47.5t173.5 133.5l25 -115q-83 -140 -216.5 -227.5t-293.5 -87.5q-151 0 -245.5 97.5t-94.5 258.5zM381 545q125 67 193.5 129.5t68.5 138.5q0 82 -61 82q-41 0 -83.5 -57t-71.5 -134.5t-46 -158.5z" />
    <glyph glyph-name="uni0451" unicode="&#x451;" horiz-adv-x="960" 
d="M872 1237q-55 0 -88.5 33.5t-33.5 83.5q0 70 58.5 124t129.5 54q51 0 83 -32.5t32 -82.5q0 -70 -56.5 -125t-124.5 -55zM43 336q0 124 61 254.5t158 233t228 168t260 65.5q99 0 157 -49.5t58 -120.5q0 -53 -27.5 -103.5t-79 -95t-106.5 -81.5t-131.5 -73.5t-130.5 -59.5
t-125 -50q0 -195 159 -195q81 0 170.5 47.5t173.5 133.5l25 -115q-83 -140 -216.5 -227.5t-293.5 -87.5q-151 0 -245.5 97.5t-94.5 258.5zM365 1354q0 70 58.5 124t129.5 54q51 0 83 -32.5t32 -82.5q0 -70 -56.5 -125t-124.5 -55q-55 0 -88.5 33.5t-33.5 83.5zM381 545
q125 67 193.5 129.5t68.5 138.5q0 82 -61 82q-41 0 -83.5 -57t-71.5 -134.5t-46 -158.5z" />
    <glyph glyph-name="uni0452" unicode="&#x452;" horiz-adv-x="1271" 
d="M145 -492q-53 0 -75.5 23.5t-22.5 52.5q0 63 38 139t77 76q44 0 158.5 -51t158.5 -51q59 0 97 77q21 42 71 208l2 8l230 753q10 44 4.5 55t-25.5 11q-47 0 -151 -131t-207 -321t-142 -337l-313 -40l279 1169h-150l16 98h158l2 10q17 75 -33 95.5t-208 3.5v110
q92 44 278 77.5t342 33.5l-88 -330h258l-16 -98h-267l-172 -647h21q60 113 125 207.5t138 175t153 126.5t155 46q94 0 152 -62.5t29 -158.5l-209 -689q-49 -163 -114.5 -276.5t-166.5 -198t-244.5 -124.5t-337.5 -40z" />
    <glyph glyph-name="uni0453" unicode="&#x453;" horiz-adv-x="868" 
d="M221 -20q-110 0 -182 48.5t-72 127.5q0 86 61.5 154.5t198.5 162.5l121 82q61 42 92 79t31 83q0 57 -34 85.5t-85 28.5t-116 -36.5t-123 -98.5l-25 115q81 113 203.5 179.5t247.5 66.5q132 0 207 -55t75 -150q0 -43 -18.5 -81t-63.5 -80t-89 -74.5t-126 -88.5l-69 -49
q-66 -44 -103 -89.5t-37 -82.5q0 -47 25 -74.5t68 -27.5q60 0 132.5 37.5t178.5 113.5l24 -114q-126 -123 -263 -192.5t-259 -69.5zM369 1153q74 101 162 207t176.5 192t123.5 86q45 0 64 -48t10 -101q-8 -35 -31 -66t-62.5 -58.5t-63.5 -41t-70 -37.5l-291 -156z" />
    <glyph glyph-name="uni0454" unicode="&#x454;" horiz-adv-x="983" 
d="M412 -20q-167 0 -269 106t-102 272q0 117 52 241t138 225.5t209.5 167t255.5 65.5q86 0 198 -25.5t112 -62.5q0 -67 -41.5 -137t-81.5 -70q-15 0 -64 27.5t-111 55t-106 27.5q-74 0 -131 -76.5t-88 -189.5q67 4 197.5 16.5t189.5 16.5q20 1 12 -44q-12 -61 -55 -101
q-32 -30 -68 -27l-299 27q-2 -18 -2 -54q0 -97 49.5 -154t129.5 -57q158 0 311 156l24 -115q-71 -135 -198.5 -212.5t-261.5 -77.5z" />
    <glyph glyph-name="uni0455" unicode="&#x455;" horiz-adv-x="946" 
d="M-4 137q0 43 11 91t38 88t64 40q33 0 87.5 -35.5t103.5 -78t102 -78t83 -35.5q17 0 28 12.5t11 32.5q0 51 -45 119.5t-121 138.5q-204 188 -204 305q0 60 32.5 117t90.5 102.5t146 73t191 27.5q44 0 100.5 -7.5t117.5 -22.5t102 -45t41 -69q0 -27 -18.5 -75.5
t-50.5 -90.5t-62 -42q-29 0 -75.5 31.5t-88.5 68.5t-91 68.5t-81 31.5q-25 0 -38 -13t-13 -46q0 -92 157 -242q95 -93 152 -172.5t57 -148.5q0 -130 -107 -216.5t-300 -86.5q-78 0 -177 24t-171 61.5t-72 71.5z" />
    <glyph glyph-name="uni0456" unicode="&#x456;" horiz-adv-x="784" 
d="M238 -20q-89 0 -111.5 60.5t18.5 201.5l123 417q18 60 -28 96.5t-150 26.5l-16 111q121 61 270 112.5t264 51.5q32 0 48.5 -8t22.5 -31.5t-9 -65.5l-189 -628q-11 -41 1.5 -61.5t41.5 -20.5q30 0 85 14.5t104 36.5l-8 -115q-86 -74 -232.5 -136t-234.5 -62zM414 1339
q3 87 76 155.5t163 68.5q67 0 108 -43t38 -107q-1 -88 -73 -157.5t-159 -69.5q-69 0 -112 43.5t-41 109.5z" />
    <glyph glyph-name="uni0457" unicode="&#x457;" horiz-adv-x="784" 
d="M238 -20q-89 0 -111.5 60.5t18.5 201.5l123 417q18 60 -28 96.5t-150 26.5l-16 111q121 61 270 112.5t264 51.5q32 0 48.5 -8t22.5 -31.5t-9 -65.5l-189 -628q-11 -41 1.5 -61.5t41.5 -20.5q30 0 85 14.5t104 36.5l-8 -115q-86 -74 -232.5 -136t-234.5 -62zM262 1354
q0 70 59 124t130 54q51 0 82.5 -32.5t31.5 -82.5q0 -70 -56 -125t-124 -55q-55 0 -89 33.5t-34 83.5zM647 1354q0 70 59 124t130 54q51 0 82.5 -32.5t31.5 -82.5q0 -70 -56 -125t-124 -55q-55 0 -89 33.5t-34 83.5z" />
    <glyph glyph-name="uni0458" unicode="&#x458;" horiz-adv-x="743" 
d="M-336 -492q-53 0 -75.5 23.5t-22.5 52.5q0 63 38 139t77 76q44 0 158.5 -51t158.5 -51q62 0 99 70.5t71 222.5l145 669q17 78 -26 106t-154 17l-16 111q64 32 107 52t117.5 50.5t144 46t130.5 15.5q46 0 61 -21.5t3 -83.5l-168 -805q-66 -323 -265.5 -481t-582.5 -158z
M422 1339q3 87 76.5 155.5t163.5 68.5q67 0 107.5 -43t37.5 -107q-1 -88 -73 -157.5t-159 -69.5q-69 0 -112 43.5t-41 109.5z" />
    <glyph glyph-name="uni0459" unicode="&#x459;" horiz-adv-x="1597" 
d="M123 -23q-83 0 -126 83t-33 166t54 83q34 0 57.5 1.5t53 6t50.5 14.5t42 26t36 42t24 60l114 436q-76 -3 -190 -12v121q147 16 450 34.5t385 18.5q25 0 44.5 -10t32.5 -31t10.5 -61.5t-23.5 -94.5l-137 -354h18q61 95 145 159t177 64q56 0 98 -25t64 -67t32 -88.5
t10 -97.5q0 -217 -143 -344t-375 -127q-71 0 -209 28t-190 58l178 698q11 41 10.5 67.5t-6 41.5t-28.5 21.5t-41 7.5t-59 1h-5q-82 0 -127 -2l-156 -604q-37 -147 -97.5 -233.5t-139.5 -86.5zM934 231q45 -40 91.5 -58.5t80.5 -18.5q48 0 82.5 59t34.5 154q0 110 -84 110
q-63 0 -121 -70t-84 -176z" />
    <glyph glyph-name="uni045A" unicode="&#x45a;" horiz-adv-x="1730" 
d="M1126 -20q-71 0 -209 28t-190 58l104 419h-342l-116 -465l-314 -40l174 679q15 63 -26 88t-156 3l-16 110q97 76 244 136.5t268 60.5q48 0 62 -20.5t-1 -84.5l-88 -352h340l103 416l311 41l-150 -516h17q60 83 137 135.5t162 52.5q56 0 98 -25t64 -67t32.5 -88.5
t10.5 -97.5q0 -217 -143.5 -344t-375.5 -127zM1067 231q86 -77 172 -77q48 0 82.5 59t34.5 154q0 110 -84 110q-61 0 -117 -63t-84 -162z" />
    <glyph glyph-name="uni045B" unicode="&#x45b;" horiz-adv-x="1329" 
d="M174 1149l16 98h158l2 10q17 75 -33 95.5t-208 3.5v110q92 44 278 77.5t342 33.5l-88 -330h258l-16 -98h-267l-172 -647h21q60 113 125 207.5t138 175t153 126.5t155 46q94 0 152 -62.5t29 -158.5l-156 -512q-14 -48 -1.5 -65t44.5 -17q54 0 166 51l-8 -115
q-89 -77 -218 -137.5t-215 -60.5q-90 0 -114.5 61t16.5 201l148 501q10 44 4.5 55t-25.5 11q-47 0 -151 -131t-207 -321t-142 -337l-313 -40l279 1169h-150z" />
    <glyph glyph-name="uni045C" unicode="&#x45c;" horiz-adv-x="1318" 
d="M51 860q97 76 244 136.5t268 60.5q48 0 62.5 -20.5t-0.5 -84.5l-238 -932l-311 -40l172 679q16 63 -24.5 88t-155.5 3zM569 481v21q150 234 331.5 394.5t328.5 160.5q27 0 45 -14t18 -39q0 -31 -10 -83.5t-36 -107t-60 -61.5q-95 -21 -211 -66.5t-203 -97.5l115 -205
q29 -52 72 -81.5t90 -29.5q65 0 174 50l8 -115q-97 -100 -197 -163.5t-172 -63.5q-70 0 -112.5 57t-85.5 178zM676 1153q74 101 162 207t177 192t124 86q45 0 63.5 -48t9.5 -101q-8 -35 -31 -66t-62.5 -58.5t-63.5 -41t-70 -37.5l-291 -156z" />
    <glyph glyph-name="uni045D" unicode="&#x45d;" horiz-adv-x="1325" 
d="M264 -20q-104 0 -166 61.5t-24 144.5q110 233 184 527q10 40 -2 61t-41 21q-52 0 -166 -52l8 115q89 77 219 138t216 61q169 0 112 -219q-62 -244 -176 -557q-13 -39 29 -39q61 0 157.5 129t182.5 310t127 335l313 41l-178 -733q-11 -49 0.5 -65.5t42.5 -16.5
q30 0 88 14.5t106 36.5l-8 -115q-89 -77 -218 -137.5t-214 -60.5q-90 0 -114.5 61t16.5 201l78 254h-19q-54 -102 -119.5 -193t-137 -164t-149 -116t-147.5 -43zM489 1454q0 55 31 119.5t76 64.5q19 0 84 -93t147.5 -219.5t120.5 -172.5l-22 -23l-252 121q-185 86 -185 203z
" />
    <glyph glyph-name="uni045E" unicode="&#x45e;" horiz-adv-x="1165" 
d="M-215 -330q23 -2 74 -2q77 0 148 11t139.5 34.5t123.5 67t86 102.5q64 119 64 307q0 103 -23 215t-57.5 198t-77.5 142t-82 56q-68 0 -143 -53l-10 114q73 68 184 131.5t182 63.5q82 0 148 -91.5t100.5 -238t34.5 -315.5q0 -43 -8 -187q83 152 144 351t69 407
q0 33 23 53.5t57 20.5q36 0 90.5 -16.5t98 -43t42.5 -51.5q-5 -103 -80.5 -258t-213 -350.5t-292 -391t-358.5 -435.5q-106 0 -237 17t-226 46v96zM399 1434q0 43 63 76.5t118.5 34t68.5 -20.5q17 -100 55 -141.5t101 -41.5q71 0 137 63.5t148 184.5q45 0 73 -16.5t11 -48.5
q-14 -27 -33 -57t-63.5 -84.5t-93 -94.5t-121.5 -71t-150 -31q-126 0 -220 76.5t-94 171.5z" />
    <glyph glyph-name="uni045F" unicode="&#x45f;" horiz-adv-x="1327" 
d="M240 -20q-104 0 -166.5 61.5t-24.5 144.5q110 233 184 527q10 40 -2 61t-41 21q-51 0 -165 -52l8 115q89 77 219 138t215 61q170 0 113 -219q-60 -234 -177 -557q-13 -39 29 -39q61 0 157.5 129t182.5 310t127 335l313 41l-178 -733q-11 -49 0.5 -65.5t42.5 -16.5
q30 0 88.5 14.5t106.5 36.5l-8 -115q-89 -77 -218 -137.5t-215 -60.5q-90 0 -114.5 61t16.5 201l78 254h-18q-54 -102 -119.5 -193t-137 -164t-149 -116t-147.5 -43zM342 -160q0 49 106.5 121t139.5 78l69 -49q-77 -58 -77 -90q0 -22 36 -55t72.5 -70t36.5 -68
q0 -33 -29.5 -67.5t-74 -61t-79.5 -43.5t-63 -27l-69 52q82 42 82 88q0 22 -23.5 50.5t-51.5 50.5t-51.5 47.5t-23.5 43.5z" />
    <glyph glyph-name="uni0490" unicode="&#x490;" horiz-adv-x="1226" 
d="M-23 0l39 98l66 17q61 18 93 51.5t44 89.5l230 1079l-199 -18l51 137h795q70 0 133.5 46t97.5 92t108 162q6 8 9 13h84l-142 -471q-112 39 -223 39h-233q-87 0 -128 -32t-59 -107l-227 -1077l199 18l-49 -137h-689z" />
    </font>
</defs>
</svg>
