<?xml version="1.0" standalone="no"?>
<!DOCTYPE svg PUBLIC "-//W3C//DTD SVG 1.1//EN" "http://www.w3.org/Graphics/SVG/1.1/DTD/svg11.dtd" >
<svg xmlns="http://www.w3.org/2000/svg" xmlns:xlink="http://www.w3.org/1999/xlink" version="1.1">
<metadata>
Created by FontForge 20170731 at Fri Dec  9 10:59:13 2022
 By Aleksey,,,
(c) Pangram Pangram 2022
</metadata>
<defs>
<font id="PPWriter-Thin" horiz-adv-x="532" >
  <font-face 
    font-family="PP Writer Thin"
    font-weight="100"
    font-stretch="normal"
    units-per-em="2048"
    panose-1="0 0 0 0 0 0 0 0 0 0"
    ascent="1638"
    descent="-410"
    x-height="1004"
    cap-height="1454"
    bbox="-317 -573 12669 2068"
    underline-thickness="102"
    underline-position="-358"
    unicode-range="U+0021-1F415"
  />
<missing-glyph horiz-adv-x="1013" 
d="M831 1556v-2027h-643v2027h643zM338 -332h338v68h-207l141 96h66v66h-338v-66h143l-143 -96v-68zM338 -55h338v229h-338v-229zM338 295h338v229h-203v-112h68v45h67v-95h-202v162h-68v-229zM338 569h338v203h-68v-133h-270v-70zM338 684h203v143h135v66h-338v-66h135v-75
h-135v-68zM338 948h338v70h-135v141h-203v-211zM338 1212h338v66h-135v76h135v67h-336v-67h133v-76h-135v-66zM406 12v94h202v-94h-202zM406 1018v72h67v-72h-67z" />
    <glyph glyph-name="f_f" unicode="ff" horiz-adv-x="1177" 
d="M41 0l20 41l62 10q47 8 69.5 52t22.5 133v727h-143v30l143 11v92q0 208 101.5 309.5t277.5 101.5q137 0 217 -73q88 143 297 143q43 0 107.5 -12.5t110.5 -28t46 -23.5q0 -23 -28 -50t-50 -27q-11 0 -28.5 4.5t-43.5 15t-47 19.5t-58 25.5t-58 25.5h-21
q-75 0 -126.5 -56.5t-51.5 -175.5v-290h322v-41h-322v-922l236 10l-21 -51h-481l20 41l62 10q36 6 53 15.5t28 40t11 88.5v768h-461v-922l236 10l-21 -51h-481zM307 1004h461v206q0 124 -62 185t-161 61q-238 0 -238 -305v-147z" />
    <glyph glyph-name="f_f_i" unicode="ffi" horiz-adv-x="1638" 
d="M72 963v30l143 11v92q0 208 101.5 309.5t277.5 101.5q135 0 221 -96q47 78 132 122t198 44q77 0 139.5 -23t99 -58.5t55.5 -73.5t19 -72q0 -31 -31 -55.5t-92 -24.5q-2 59 -11.5 101t-34 79.5t-71.5 56.5t-118 19q-37 0 -75.5 -13.5t-77 -42.5t-63 -85.5t-24.5 -131.5
v-249h479l95 81h20q-39 -116 -50 -200t-11 -252v-592l215 10l-21 -51h-461l21 41l61 10q92 14 92 162v750h-440v-922l195 10l-21 -51h-440l20 41l62 10q47 8 69.5 52t22.5 133v727h-461v-922l236 10l-21 -51h-481l20 41l62 10q47 8 69.5 52t22.5 133v727h-143zM307 1004h461
v83q0 108 -17 182.5t-49 114t-69.5 56t-87.5 16.5q-238 0 -238 -305v-147z" />
    <glyph glyph-name="f_f_l" unicode="ffl" horiz-adv-x="1654" 
d="M594 0l20 41l62 10q47 8 69.5 52t22.5 133v727h-461v-922l236 10l-21 -51h-481l20 41l62 10q47 8 69.5 52t22.5 133v727h-143v30l143 11v71q0 211 103 321.5t276 110.5q152 0 233 -114q46 91 120 137.5t163 46.5q71 0 138.5 -25.5t107.5 -70.5q24 41 67 75h11
q-21 -283 -21 -426v-1089l211 10l-20 -51h-461l20 39l60 10q98 16 98 152v1040q0 132 -59.5 208.5t-184.5 76.5q-37 0 -73.5 -16.5t-69.5 -49.5t-53.5 -92t-20.5 -135v-229h322v-41h-322v-922l236 10l-21 -51h-481zM307 1004h461v83q0 108 -17 182.5t-49 114t-69.5 56
t-87.5 16.5q-107 0 -172.5 -80t-65.5 -246v-126z" />
    <glyph glyph-name="f_i" unicode="fi" horiz-adv-x="1085" 
d="M41 0l20 41l62 10q47 8 69.5 52t22.5 133v727h-143v30l143 11v221q0 159 103 255.5t274 96.5q77 0 139.5 -23t99 -58.5t55.5 -73.5t19 -72q0 -31 -31 -55.5t-92 -24.5q-2 59 -11.5 101t-34 79.5t-71.5 56.5t-118 19q-37 0 -75.5 -13.5t-77 -42.5t-63 -85.5t-24.5 -131.5
v-249h479l95 81h20q-39 -116 -50 -200t-11 -252v-592l215 10l-21 -51h-461l21 41l61 10q93 14 93 162v750h-441v-922l195 10l-21 -51h-440z" />
    <glyph glyph-name="f_l" unicode="fl" horiz-adv-x="1101" 
d="M41 0l20 41l62 10q47 8 69.5 52t22.5 133v727h-143v30l143 11v92q0 120 27.5 214t75.5 151t108.5 86.5t130.5 29.5q71 0 138.5 -25.5t107.5 -70.5q24 41 67 75h11q-21 -284 -21 -426v-1089l211 10l-20 -51h-461l20 39l60 10q98 16 98 152v1040q0 132 -59.5 208.5
t-184.5 76.5q-37 0 -73.5 -16.5t-69.5 -49.5t-53.5 -92t-20.5 -135v-229h322v-41h-322v-922l236 10l-21 -51h-481z" />
    <glyph glyph-name=".notdef" horiz-adv-x="1013" 
d="M831 1556v-2027h-643v2027h643zM338 -332h338v68h-207l141 96h66v66h-338v-66h143l-143 -96v-68zM338 -55h338v229h-338v-229zM338 295h338v229h-203v-112h68v45h67v-95h-202v162h-68v-229zM338 569h338v203h-68v-133h-270v-70zM338 684h203v143h135v66h-338v-66h135v-75
h-135v-68zM338 948h338v70h-135v141h-203v-211zM338 1212h338v66h-135v76h135v67h-336v-67h133v-76h-135v-66zM406 12v94h202v-94h-202zM406 1018v72h67v-72h-67z" />
    <glyph glyph-name=".null" horiz-adv-x="0" 
 />
    <glyph glyph-name="nonmarkingreturn" horiz-adv-x="682" 
 />
    <glyph glyph-name="space" unicode="&#xa0;" 
 />
    <glyph glyph-name="space" unicode=" " 
 />
    <glyph glyph-name="exclam" unicode="!" 
d="M231 334q0 237 -19 583t-42 578q-3 38 20 60t56 22t56 -22t20 -60q-23 -230 -41.5 -576t-18.5 -585h-31zM164 63q0 32 25 57t59 25q32 0 56 -25t24 -57q0 -34 -24 -58.5t-56 -24.5q-34 0 -59 24.5t-25 58.5z" />
    <glyph glyph-name="quotedbl" unicode="&#x22;" horiz-adv-x="765" 
d="M168 1454q-9 54 5.5 78t55.5 24t56 -24t6 -78l-51 -287h-21zM434 1454q-9 54 6 78t56 24t55.5 -24t5.5 -78l-51 -287h-21z" />
    <glyph glyph-name="numbersign" unicode="#" horiz-adv-x="1411" 
d="M702 0l105 410h-408l-104 -410h-64l105 410h-234l13 51h233l137 532h-235l14 51h234l104 410h64l-105 -410h408l104 410h64l-105 -410h236l-13 -51h-235l-137 -532h237l-14 -51h-236l-104 -410h-64zM412 461h407l137 532h-407z" />
    <glyph glyph-name="dollar" unicode="$" horiz-adv-x="1058" 
d="M492 1671q-4 26 9 40.5t40 14.5t40 -14.5t9 -40.5l-35 -196h16q112 0 194 -25.5t161 -79.5l39 -326h-31q-33 110 -77 184.5t-98 113.5t-110.5 55t-128.5 16q-145 0 -238.5 -77.5t-93.5 -200.5q0 -80 32 -134t119 -108t255 -121q97 -38 164.5 -75.5t121.5 -85t80.5 -106.5
t26.5 -132q0 -162 -121 -272t-307 -121l33 -203q4 -26 -9 -41t-40 -15t-40 15t-9 41l30 203q-109 1 -217 36t-176 80l-59 367h30q23 -103 61.5 -180t83.5 -122.5t102.5 -73t111.5 -37t119 -9.5q145 0 238 79t93 202q0 117 -84 198.5t-295 165.5q-229 92 -324 178.5
t-95 218.5q0 159 115.5 267.5t295.5 122.5z" />
    <glyph glyph-name="percent" unicode="%" horiz-adv-x="1726" 
d="M453 0l755 1249h47l-753 -1249h-49zM41 885q0 151 99.5 255.5t244.5 104.5t244.5 -104.5t99.5 -255.5q0 -153 -100 -259t-244 -106t-244 106t-100 259zM143 883q0 -134 70.5 -228t171.5 -94t171.5 94t70.5 228t-70.5 227.5t-171.5 93.5t-171.5 -93.5t-70.5 -227.5z
M997 346q0 151 100 256t244 105q145 0 245 -105t100 -256q0 -152 -100 -258t-245 -106t-244.5 106t-99.5 258zM1100 344q0 -134 70 -227.5t171 -93.5t171.5 93.5t70.5 227.5t-70.5 228t-171.5 94t-171 -94t-70 -228z" />
    <glyph glyph-name="ampersand" unicode="&#x26;" horiz-adv-x="1589" 
d="M1214 0q-78 69 -221 190q-103 -103 -213 -156.5t-248 -53.5q-206 0 -333 108t-127 281q0 240 313 440q-156 197 -156 326q0 155 103.5 247.5t259.5 92.5q87 0 163.5 -30t127.5 -93.5t51 -147.5q0 -89 -67 -170t-165 -133l-10 10q139 133 139 293q0 96 -73.5 157.5
t-186.5 61.5q-116 0 -177.5 -76.5t-61.5 -183.5q0 -53 27.5 -117t65.5 -122t109 -139.5t126.5 -139t148.5 -151.5q125 -125 223 -201q47 59 82 154.5t35 175.5q0 104 -50 146t-145 42l21 41h522l-20 -51l-252 10q13 -154 -33.5 -295.5t-130.5 -245.5q221 -165 446 -250
l-10 -20h-283zM182 397q0 -151 108 -243.5t290 -92.5q223 0 383 154q-158 139 -252 236q-18 18 -80.5 84t-88.5 93.5t-68.5 75t-72.5 84.5q-219 -206 -219 -391z" />
    <glyph glyph-name="quotesingle" unicode="'" horiz-adv-x="499" 
d="M168 1454q-9 54 5.5 78t55.5 24t56 -24t6 -78l-51 -287h-21z" />
    <glyph glyph-name="parenleft" unicode="(" horiz-adv-x="598" 
d="M547 -362q-124 70 -226 224t-160.5 354t-58.5 402q0 201 58.5 396t160 343.5t226.5 219.5l20 -10q-177 -188 -264.5 -432.5t-87.5 -516.5q0 -291 88 -545t264 -425z" />
    <glyph glyph-name="parenright" unicode=")" horiz-adv-x="598" 
d="M31 -352q176 171 264 425t88 545q0 272 -87.5 516.5t-264.5 432.5l20 10q125 -71 226.5 -219.5t160 -343.5t58.5 -396q0 -202 -58.5 -402t-160.5 -354t-226 -224z" />
    <glyph glyph-name="asterisk" unicode="*" horiz-adv-x="1134" 
d="M782 836q-19 -14 -37.5 -11t-25.5 21l-125 246l203 -193q13 -12 8.5 -31.5t-23.5 -31.5zM168 1280q6 21 23 29.5t32 -0.5l246 -127l-276 37q-18 1 -25.5 19.5t0.5 41.5zM303 897l197 195l-121 -252q-7 -17 -27 -18.5t-39 12.5q-18 13 -21 32t11 31zM496 1511
q-3 19 11.5 32t37.5 13t36.5 -13t10.5 -32l-45 -272zM625 1182l243 133q17 9 34.5 -1t23.5 -32q7 -22 -1.5 -38.5t-27.5 -18.5z" />
    <glyph glyph-name="plus" unicode="+" horiz-adv-x="1105" 
d="M518 102v379h-375v62h375v379h72v-379h373v-62h-373v-379h-72z" />
    <glyph glyph-name="comma" unicode="," horiz-adv-x="552" 
d="M164 -295q86 124 86 223q0 36 -21 67.5t-42 53t-21 33.5q0 36 26.5 58t55.5 22q39 0 69.5 -32t30.5 -107q0 -81 -46.5 -171.5t-117.5 -152.5z" />
    <glyph glyph-name="hyphen" unicode="-" horiz-adv-x="706" 
d="M102 483v62h492v-62h-492z" />
    <glyph glyph-name="period" unicode="." 
d="M248 -20q-34 0 -59 24.5t-25 58.5q0 32 25 57t59 25q32 0 56 -25t24 -57q0 -34 -24 -58.5t-56 -24.5z" />
    <glyph glyph-name="slash" unicode="/" horiz-adv-x="829" 
d="M102 -342l535 1898h49l-534 -1898h-50z" />
    <glyph glyph-name="zero" unicode="0" horiz-adv-x="1187" 
d="M594 -20q-143 0 -263 78.5t-189.5 214t-69.5 296.5t69.5 296.5t189.5 213.5t263 78t263 -78t189.5 -213.5t69.5 -296.5t-69.5 -296.5t-189.5 -214t-263 -78.5zM133 569q0 -204 134.5 -345.5t326.5 -141.5t326.5 141.5t134.5 345.5q0 202 -134.5 344t-326.5 142
t-326.5 -142t-134.5 -344z" />
    <glyph glyph-name="one" unicode="1" horiz-adv-x="737" 
d="M102 0l21 41l119 10q33 3 53 18t29 46t11.5 62.5t2.5 86.5v719l-256 -43v31q136 48 207 87.5t119 98.5l32 -20q-20 -117 -20 -293v-803l235 10l-20 -51h-533z" />
    <glyph glyph-name="two" unicode="2" horiz-adv-x="968" 
d="M41 39q107 75 193 142.5t171 149t142 157.5t92 163t35 170q0 125 -63.5 189.5t-170.5 64.5q-155 0 -323 -164l-21 21q71 98 173 161.5t204 63.5q131 0 217 -75.5t86 -211.5q0 -89 -30 -174t-79.5 -159t-130.5 -154t-166.5 -148.5t-203.5 -152.5h438q127 0 179 40t94 175
h30l-45 -317q-112 20 -258 20h-547z" />
    <glyph glyph-name="three" unicode="3" horiz-adv-x="880" 
d="M-47 -430q168 30 305.5 92.5t222 140t129.5 161t45 161.5q0 148 -91.5 236t-282.5 88l-21 26q132 61 220.5 170.5t88.5 228.5q0 94 -48 152.5t-142 58.5q-169 0 -311 -139l-21 21q87 97 175.5 143.5t195.5 46.5q117 0 190.5 -72.5t73.5 -191.5q0 -103 -90 -213.5
t-219 -179.5q168 -6 276.5 -97.5t108.5 -240.5q0 -102 -56 -206t-155 -192.5t-249.5 -152t-324.5 -82.5z" />
    <glyph glyph-name="four" unicode="4" horiz-adv-x="1075" 
d="M727 -471v471h-696l-21 20l778 1137l21 -16v-1069h272l-20 -72h-252v-471h-82zM102 72h625v907z" />
    <glyph glyph-name="five" unicode="5" horiz-adv-x="866" 
d="M-68 -430q169 30 305.5 93t222 144.5t130.5 173.5t45 185q0 73 -28.5 137.5t-70 111t-106.5 91t-120 72.5t-130 61q47 108 61.5 220.5t14.5 277.5h182q203 0 344 18v-100h-477l-41 -346q75 -35 134.5 -68.5t125.5 -83.5t110.5 -102.5t73.5 -123.5t29 -149
q0 -110 -55.5 -218.5t-155 -198t-249 -153.5t-324.5 -83z" />
    <glyph glyph-name="six" unicode="6" horiz-adv-x="1007" 
d="M475 -20q-177 0 -290 129t-113 331q0 150 47.5 291t129.5 255t192.5 210.5t235.5 165.5t259 113l20 -21q-138 -45 -272.5 -131.5t-247 -200t-184.5 -259t-78 -294.5q66 111 170.5 177.5t212.5 66.5q148 0 255.5 -108t107.5 -248q0 -208 -128 -342.5t-317 -134.5zM176 498
q9 -198 103.5 -322.5t236.5 -124.5q134 0 228 92t94 232t-96 248t-226 108q-95 0 -188 -64t-152 -169z" />
    <glyph glyph-name="seven" unicode="7" horiz-adv-x="952" 
d="M92 -471l762 1526h-438q-56 0 -91.5 -5t-72 -22t-62 -49t-50.5 -85t-48 -132h-31l72 395q147 -20 262 -20h516l21 -41l-717 -1567h-123z" />
    <glyph glyph-name="eight" unicode="8" horiz-adv-x="956" 
d="M469 -20q-167 0 -282 97.5t-115 241.5q0 264 323 461q-53 35 -82.5 55t-70 56.5t-61.5 68.5t-36.5 79t-15.5 100q0 86 43.5 162.5t125 125t181.5 48.5q128 0 222 -79t94 -210q0 -75 -24.5 -136.5t-71 -107.5t-88.5 -74.5t-103 -60.5l10 -6q72 -45 120 -78t99 -77
t80.5 -85t48.5 -93t19 -110q0 -191 -111 -284.5t-305 -93.5zM174 381q0 -144 92.5 -247t231.5 -103q122 0 205 85.5t83 207.5q0 56 -19 107.5t-47 90t-79.5 83.5t-94.5 75.5t-116 77.5q-1 0 -2 1t-2 1q-64 -54 -98 -86.5t-75.5 -82.5t-60 -101t-18.5 -109zM217 1188
q0 -107 69 -194t189 -167q43 30 62.5 44.5t55.5 49t53 64.5t31.5 77.5t14.5 102.5q0 120 -72.5 190t-181.5 70q-97 0 -159 -67.5t-62 -169.5z" />
    <glyph glyph-name="nine" unicode="9" horiz-adv-x="950" 
d="M-12 -430q143 69 278.5 182t238 242t173 268t90.5 262q-67 -78 -150.5 -125t-168.5 -47q-154 0 -265.5 102.5t-111.5 260.5q0 119 61 222t158.5 161.5t204.5 58.5q169 0 276 -137t107 -365q0 -154 -72.5 -322.5t-193 -317t-278 -276t-327.5 -210.5zM174 756
q0 -150 93.5 -245t224.5 -95q80 0 154 41.5t128 109.5q2 16 2 47q0 196 -92.5 333.5t-224.5 137.5q-112 0 -198.5 -96.5t-86.5 -232.5z" />
    <glyph glyph-name="colon" unicode=":" 
d="M248 -20q-34 0 -59 24.5t-25 58.5q0 32 25 57t59 25q32 0 56 -25t24 -57q0 -34 -24 -58.5t-56 -24.5zM164 780q0 32 25 57t59 25q32 0 56 -25t24 -57q0 -34 -24 -59t-56 -25q-34 0 -59 25t-25 59z" />
    <glyph glyph-name="semicolon" unicode=";" horiz-adv-x="561" 
d="M276 696q-34 0 -58.5 25t-24.5 59q0 32 24.5 57t58.5 25q32 0 56 -25t24 -57q0 -34 -24 -59t-56 -25zM164 -295q86 124 86 223q0 36 -21 67.5t-42 53t-21 33.5q0 36 26.5 58t55.5 22q39 0 69.5 -32t30.5 -107q0 -81 -46.5 -171.5t-117.5 -152.5z" />
    <glyph glyph-name="less" unicode="&#x3c;" horiz-adv-x="921" 
d="M102 545l717 459v-72l-672 -430l672 -430v-72l-717 459v86z" />
    <glyph glyph-name="equal" unicode="=" horiz-adv-x="1024" 
d="M143 606v62h738v-62h-738zM143 311v62h738v-62h-738z" />
    <glyph glyph-name="greater" unicode="&#x3e;" horiz-adv-x="921" 
d="M819 459l-717 -459v72l672 430l-672 430v72l717 -459v-86z" />
    <glyph glyph-name="question" unicode="?" horiz-adv-x="704" 
d="M219 293q-8 30 -20 68.5t-17 58t-9.5 53.5t-4.5 76q0 66 20 121t52.5 94t71.5 73.5t78.5 69.5t72 74t52.5 94t20 121q0 38 -19 72t-46.5 58t-72 47t-81.5 37.5t-89 31.5q-11 4 -37 49t-26 55q0 31 47 31q35 0 81 -18t97.5 -58t94 -94.5t70.5 -136t28 -174.5
q0 -62 -19.5 -113t-50.5 -88.5t-68.5 -72t-75.5 -72t-69 -80.5t-50.5 -105t-19.5 -137q0 -18 2 -36.5t4.5 -30.5t7.5 -33.5t7 -34.5h-31zM188 63q0 32 25 57t59 25q32 0 56 -25t24 -57q0 -34 -24 -58.5t-56 -24.5q-34 0 -59 24.5t-25 58.5z" />
    <glyph glyph-name="at" unicode="@" horiz-adv-x="1843" 
d="M799 -348q-200 0 -367 105t-263.5 286t-96.5 397q0 187 70 356t189 291t284 193.5t348 71.5q166 0 316 -59t258 -158.5t171.5 -238.5t63.5 -292q0 -280 -115 -452t-309 -172q-66 0 -116.5 18.5t-76 45.5t-37.5 51t-12 42h-21q-71 -77 -150 -117t-147 -40q-90 0 -146 45.5
t-56 111.5q0 24 7 46t24.5 43.5t32 36.5t46 37t48 33t58 35.5t56.5 34.5l238 150v170q0 122 -48 186t-126 64q-46 0 -102.5 -27t-76.5 -61v-64q0 -51 -25.5 -73.5t-58.5 -22.5q-67 0 -67 63q0 18 34 56t85.5 78.5t125 71t140.5 30.5q121 0 169 -81.5t40 -272.5
q-3 -73 -3.5 -136.5t0.5 -158.5t1 -150q0 -33 9.5 -65t30 -62t57.5 -48.5t87 -18.5q137 0 219 147t82 385q0 196 -102 361t-278.5 260.5t-387.5 95.5q-200 0 -367 -106.5t-263.5 -290t-96.5 -402.5q0 -205 88.5 -376.5t241.5 -271t336 -99.5q204 0 409 73l21 -20
q-90 -60 -216 -97.5t-255 -37.5zM686 162q0 -55 44 -83t101 -28q83 0 174 66t91 121v270l-201 -133q-113 -75 -161 -121t-48 -92z" />
    <glyph glyph-name="A" unicode="A" horiz-adv-x="1501" 
d="M1004 0l20 41l109 10q62 6 72 32t-21 93l-121 260h-684l-156 -395l211 10l-20 -51h-404l21 41l73 10q45 6 73.5 34t55.5 97l433 1094q-86 114 -242 158l10 20h271l659 -1413l127 10l-21 -51h-466zM395 477h649l-346 742l-6 14z" />
    <glyph glyph-name="B" unicode="B" horiz-adv-x="1269" 
d="M84 0l20 41l89 10q83 9 83 111v1251l-194 -10l20 51h551q218 0 345.5 -94.5t127.5 -257.5q0 -142 -81 -234t-222 -112q175 -20 275 -119t100 -254q0 -177 -141.5 -280t-384.5 -103h-588zM379 41h342q163 0 258.5 92t95.5 250q0 160 -113 254t-305 94h-278v-690zM379 772
h301q149 0 236.5 89t87.5 241q0 143 -105 227t-283 84h-237v-641z" />
    <glyph glyph-name="C" unicode="C" horiz-adv-x="1437" 
d="M813 -20q-159 0 -298.5 57.5t-235.5 153.5t-151.5 223.5t-55.5 265.5q0 228 96 410t264 283.5t377 101.5q114 0 231 -30.5t199 -74.5l80 -366h-31q-48 125 -104.5 209t-122.5 129t-133 63t-152 18q-160 0 -293 -88.5t-210.5 -245.5t-77.5 -348q0 -144 44.5 -273t124 -226
t198 -154t259.5 -57q185 0 301.5 102.5t212.5 337.5h31l-119 -389q-73 -34 -116 -51t-130 -34t-188 -17z" />
    <glyph glyph-name="D" unicode="D" horiz-adv-x="1454" 
d="M84 0l20 41l89 10q83 9 83 111v1251l-194 -10l20 51h512q181 0 328.5 -53.5t242.5 -147t146 -217.5t51 -268q0 -224 -84.5 -398.5t-241 -272t-360.5 -97.5h-612zM379 41h287q190 0 325.5 88.5t202 241.5t66.5 356q0 200 -74.5 355t-217 243t-333.5 88h-256v-1372z" />
    <glyph glyph-name="E" unicode="E" horiz-adv-x="1271" 
d="M84 0l20 41l89 10q41 4 62 33.5t21 75.5v1253l-194 -10l20 51h713q119 0 283 21l61 -398h-31q-29 136 -66.5 209.5t-84.5 100t-121 26.5h-477v-635h283q33 0 51 2t41 14t35.5 35.5t24 67.5t17.5 109h31v-496h-31q-6 65 -17.5 109t-24 67.5t-36 35t-40.5 13.5t-51 2h-283
v-696h518q34 0 57.5 4t51.5 16.5t50.5 38t47.5 66.5t48.5 104t47.5 148h31l-103 -438q-102 20 -182 20h-862z" />
    <glyph glyph-name="F" unicode="F" horiz-adv-x="1118" 
d="M84 0l20 41l86 10q42 4 64 32.5t22 74.5v1255l-194 -10l20 51h672q118 0 283 21l61 -398h-31q-29 136 -66.5 209.5t-84.5 100t-121 26.5h-436v-676h301q28 0 46.5 7.5t35.5 30t28.5 69.5t18.5 121h31v-496h-31q-9 98 -27.5 149t-41 64.5t-60.5 13.5h-301v-655l256 10
l-21 -51h-530z" />
    <glyph glyph-name="G" unicode="G" horiz-adv-x="1527" 
d="M811 -20q-161 0 -299.5 54.5t-234.5 149t-150.5 224.5t-54.5 278q0 125 31 241.5t93 216t149 173.5t206.5 116t257.5 42q114 0 231 -30.5t199 -74.5l80 -366h-31q-48 125 -104.5 209t-122.5 129t-133 63t-152 18q-119 0 -217.5 -41.5t-164.5 -110.5t-112 -160
t-66.5 -187.5t-20.5 -196.5q0 -194 80 -353.5t221.5 -251t314.5 -91.5q84 0 158.5 15t122 37t75 46.5t27.5 44.5v537l-346 -19l20 51h588l-22 -38q-82 0 -115 -28t-33 -106v-358q0 -36 17 -48.5t69 -12.5l8 -29q-186 -77 -306.5 -110t-262.5 -33z" />
    <glyph glyph-name="H" unicode="H" horiz-adv-x="1691" 
d="M1118 0l21 41l86 10q42 4 64 32.5t22 74.5v549h-932v-666l194 10l-20 -51h-469l20 41l86 10q42 4 64 32.5t22 74.5v1255l-194 -10l20 51h473l-20 -41l-86 -10q-90 -12 -90 -133v-522h932v665l-195 -10l21 51h473l-21 -41l-86 -10q-90 -12 -90 -133v-1229l195 10l-21 -51
h-469z" />
    <glyph glyph-name="I" unicode="I" horiz-adv-x="657" 
d="M84 0l20 41l86 10q49 6 67.5 28.5t18.5 78.5v1255l-194 -10l20 51h473l-20 -41l-86 -10q-90 -12 -90 -133v-1229l194 10l-20 -51h-469z" />
    <glyph glyph-name="J" unicode="J" horiz-adv-x="561" 
d="M-72 -451q139 81 221 234.5t82 372.5v1257l-231 -10l20 51h531l-21 -41l-127 -10q-36 -3 -52.5 -30.5t-16.5 -82.5v-1054q0 -148 -32 -270t-88.5 -207t-125 -141.5t-149.5 -88.5z" />
    <glyph glyph-name="K" unicode="K" horiz-adv-x="1421" 
d="M1389 -20q-146 0 -230 32t-153 107l-512 565v21l677 708l-237 -10l20 51h457l-20 -41q-103 -7 -152.5 -30.5t-112.5 -88.5l-546 -569l444 -471q95 -100 177 -156t198 -98zM82 1403l20 51h473l-20 -41l-86 -10q-90 -12 -90 -133v-1229l194 10l-20 -51h-469l20 41l86 10
q42 4 64 32.5t22 74.5v1255z" />
    <glyph glyph-name="L" unicode="L" horiz-adv-x="1198" 
d="M84 0l20 41l86 10q42 4 64 32.5t22 74.5v1255l-194 -10l20 51h514l-20 -41l-86 -2q-45 -1 -72.5 -11t-39.5 -31.5t-15.5 -42t-3.5 -56.5v-1229h455q34 0 57.5 4t51.5 16.5t50.5 38t47.5 66.5t48.5 104t47.5 148h30l-102 -438q-103 20 -182 20h-799z" />
    <glyph glyph-name="M" unicode="M" horiz-adv-x="1859" 
d="M397 1167l-28 62l-50 -1188l193 10l-20 -51h-404l21 41l79 10q46 6 68 27.5t23 62.5l49 1155q-44 62 -100.5 92t-145.5 46l10 20h291l571 -1298l535 1298h311l-20 -41l-64 -10q-59 -9 -84 -44.5t-22 -105.5l51 -1212l188 10l-20 -51h-496l21 41l102 10q56 6 77.5 40.5
t18.5 111.5l-49 1161l-573 -1384h-10z" />
    <glyph glyph-name="N" unicode="N" horiz-adv-x="1527" 
d="M334 1167q-43 55 -53 66v-1192l190 10l-20 -51h-431l21 41l100 10q58 6 76.5 31.5t18.5 99.5v1100q-107 107 -211 152l10 20h207l1024 -1302v1261l-189 -10l21 51h430l-21 -41l-100 -10q-59 -6 -77.5 -31t-18.5 -98v-1251l-45 -43z" />
    <glyph glyph-name="O" unicode="O" horiz-adv-x="1546" 
d="M772 -20q-150 0 -280 55.5t-222.5 153.5t-145 237t-52.5 301q0 216 90 387t249.5 266t360.5 95q150 0 280.5 -55.5t223.5 -153.5t146 -237.5t53 -301.5t-53 -301t-146 -237t-223.5 -153.5t-280.5 -55.5zM186 768q0 -211 76.5 -375t224.5 -258t347 -94q232 0 379 171
t147 474q0 211 -77.5 375t-225.5 258t-346 94q-234 0 -379.5 -171t-145.5 -474z" />
    <glyph glyph-name="P" unicode="P" horiz-adv-x="1245" 
d="M84 0l20 41l86 10q42 4 64 32.5t22 74.5v1255l-194 -10l20 51h508q264 0 419 -110.5t155 -299.5q0 -196 -133 -312t-359 -116h-313v-575l235 10l-20 -51h-510zM379 657h268q192 0 304 98t112 265q0 181 -123 287t-334 106h-227v-756z" />
    <glyph glyph-name="Q" unicode="Q" horiz-adv-x="1544" 
d="M1528 -360q-38 0 -75.5 12.5t-68.5 30.5t-66.5 52t-61 62.5t-61 77.5t-57.5 82t-59 90q-143 -67 -307 -67q-150 0 -280 55.5t-222.5 153.5t-145 237t-52.5 301q0 216 90 387t249.5 266t360.5 95q150 0 280.5 -55.5t223.5 -153.5t146 -237.5t53 -301.5
q0 -211 -86.5 -378.5t-239.5 -262.5q48 -67 84.5 -113t86 -97.5t93.5 -82.5t98 -51.5t109 -20.5q107 0 211 50l10 -21q-184 -110 -313 -110zM186 768q0 -159 43 -289q77 49 162.5 81t155.5 32t137.5 -27.5t118.5 -65.5t111.5 -105.5t99 -119t97.5 -134.5q6 -9 9 -13
q112 79 176 222t64 337q0 211 -77.5 375t-225.5 258t-346 94q-234 0 -379.5 -171t-145.5 -474zM244 440q72 -187 224 -293t366 -106q119 0 219 47q-52 81 -90 134t-95 118t-108.5 103.5t-119 65t-138.5 26.5q-116 0 -258 -95z" />
    <glyph glyph-name="R" unicode="R" horiz-adv-x="1359" 
d="M84 0l20 41l86 10q42 4 64 32.5t22 74.5v1255l-194 -10l20 51h469q268 0 427 -108t159 -281q0 -81 -34.5 -151t-92.5 -118t-131.5 -78.5t-153.5 -39.5l291 -416q84 -120 150.5 -176.5t163.5 -85.5l-11 -20q-131 0 -218.5 47.5t-151.5 144.5l-322 487h-268v-618l194 10
l-20 -51h-469zM379 700h219q208 0 322 97.5t114 267.5q0 151 -117.5 249.5t-320.5 98.5h-217v-713z" />
    <glyph glyph-name="S" unicode="S" horiz-adv-x="1058" 
d="M528 -20q-108 0 -218.5 35.5t-178.5 80.5l-59 367h30q23 -103 61.5 -180t83.5 -122.5t102.5 -73t111.5 -37t119 -9.5q145 0 238 79t93 202q0 117 -84 198.5t-295 165.5q-229 92 -324 178.5t-95 218.5q0 169 131 280.5t327 111.5q112 0 194 -25.5t161 -79.5l39 -326h-31
q-33 110 -77 184.5t-98 113.5t-110.5 55t-128.5 16q-145 0 -238.5 -77.5t-93.5 -200.5q0 -80 32 -134t119 -108t255 -121q97 -38 164.5 -75.5t121.5 -85t80.5 -106.5t26.5 -132q0 -169 -131.5 -281t-327.5 -112z" />
    <glyph glyph-name="T" unicode="T" horiz-adv-x="1288" 
d="M362 0l21 41l127 10q42 3 64 31.5t22 75.5v1255h-262q-74 0 -121.5 -26.5t-85 -100t-66.5 -209.5h-30l61 398q164 -21 283 -21h538q119 0 283 21l61 -398h-30q-29 136 -66.5 209.5t-85 100t-121.5 26.5h-256v-1372l215 10l-20 -51h-531z" />
    <glyph glyph-name="U" unicode="U" horiz-adv-x="1628" 
d="M854 -20q-260 0 -421 134t-161 361v938l-190 -10l20 51h469l-20 -41l-107 -10q-36 -3 -52.5 -30.5t-16.5 -82.5v-794q0 -207 144 -326t378 -119q186 0 306 125t120 320v917l-215 -10l20 51h418l-20 -41l-86 -10q-37 -4 -53.5 -31.5t-16.5 -81.5v-794
q0 -227 -144.5 -371.5t-371.5 -144.5z" />
    <glyph glyph-name="V" unicode="V" horiz-adv-x="1583" 
d="M768 -20l-584 1433l-174 -10l21 51h540l-20 -41l-141 -4q-62 -3 -75.5 -30t9.5 -76l471 -1158l522 1268l-264 -10l21 51h479l-21 -41l-94 -10q-44 -5 -72 -33t-57 -98l-530 -1292h-31z" />
    <glyph glyph-name="W" unicode="W" horiz-adv-x="2215" 
d="M1522 -20l-359 1009l-407 -1009h-31l-541 1433l-174 -10l21 51h518l-21 -41l-88 -10q-82 -9 -99 -41t15 -117l416 -1100l369 912l-127 356l-183 -10l21 51h516l-20 -41l-91 -10q-78 -9 -91.5 -37.5t18.5 -122.5l379 -1077l389 1247l-285 -10l21 51h518l-21 -41l-94 -10
q-56 -6 -86.5 -49.5t-62.5 -145.5l-390 -1228h-30z" />
    <glyph glyph-name="X" unicode="X" horiz-adv-x="1521" 
d="M897 0l21 41l131 10q146 11 67 117l-371 512l-493 -639l246 10l-21 -51h-467l21 41l90 10q85 9 182 131l416 535l-504 696l-184 -10l20 51h584l-21 -41l-133 -6q-63 -3 -76 -37.5t27 -89.5l363 -502l491 635l-246 -10l21 51h450l-20 -41l-88 -10q-42 -4 -80 -35t-88 -96
l-412 -533l504 -698l168 10l-20 -51h-578z" />
    <glyph glyph-name="Y" unicode="Y" horiz-adv-x="1402" 
d="M444 0l21 41l59 10q68 12 100.5 49t32.5 103v418l-487 792l-160 -10l21 51h506l-21 -41l-86 -10q-69 -8 -85 -30t15 -75l385 -624l439 739l-211 -10l20 51h400l-21 -41l-84 -8q-39 -4 -58 -18t-44 -54l-426 -712v-580l215 10l-21 -51h-510z" />
    <glyph glyph-name="Z" unicode="Z" horiz-adv-x="1198" 
d="M72 0l-21 41l977 1380l-635 -14q-109 -3 -183.5 -96.5t-117.5 -294.5h-31l91 459q164 -21 282 -21h692l21 -41l-977 -1380l661 14q103 3 171 111t114 321h31l-74 -499q-157 20 -282 20h-719z" />
    <glyph glyph-name="bracketleft" unicode="[" 
d="M164 -342v1898h338v-40h-236v-1817h236v-41h-338z" />
    <glyph glyph-name="backslash" unicode="\" horiz-adv-x="706" 
d="M625 -342h-50l-534 1898h49z" />
    <glyph glyph-name="bracketright" unicode="]" 
d="M369 -342h-338v41h235v1817h-235v40h338v-1898z" />
    <glyph glyph-name="asciicircum" unicode="^" horiz-adv-x="704" 
d="M610 1004l-258 407l-258 -407h-80l285 450h107l284 -450h-80z" />
    <glyph glyph-name="underscore" unicode="_" horiz-adv-x="1024" 
d="M-8 -342v41h1040v-41h-1040z" />
    <glyph glyph-name="grave" unicode="`" horiz-adv-x="499" 
d="M496 1157l-13 -10l-288 270q-4 4 -15 14.5t-14.5 13.5t-12 11.5t-11 12.5t-7.5 11.5t-7 12.5t-3.5 11.5t-1.5 13.5q0 17 11 27.5t28 10.5q20 0 334 -399z" />
    <glyph glyph-name="a" unicode="a" horiz-adv-x="905" 
d="M678 -20q-15 0 -25 3.5t-16.5 14.5t-10.5 21.5t-5.5 35t-2 44t-0.5 59.5h-20q-94 -94 -161 -136t-152 -42q-98 0 -155.5 50t-57.5 136q0 72 58 134t161 106l317 135v235q0 84 -49 125t-125 41q-84 0 -158 -68v-94q0 -37 -25.5 -56t-55.5 -19q-42 0 -66.5 21t-24.5 42
q0 23 74.5 85.5t169 116.5t141.5 54q116 0 171.5 -62t52.5 -169q-14 -404 -8 -717l169 -10v-31q-133 -55 -196 -55zM174 213q0 -66 42.5 -106.5t105.5 -40.5q64 0 128.5 25t111 75.5t46.5 112.5v219l-262 -115q-85 -38 -128.5 -78.5t-43.5 -91.5z" />
    <glyph glyph-name="b" unicode="b" horiz-adv-x="1050" 
d="M483 -20q-148 0 -391 40v11q30 43 41.5 65t21 71.5t9.5 129.5v1165l-174 33v31q167 30 254 30h32q-20 -269 -20 -659q59 59 141.5 93t165.5 34q192 0 304 -136.5t112 -369.5q0 -249 -133.5 -393.5t-362.5 -144.5zM256 268q0 -48 6.5 -84.5t17 -61.5t30 -42.5t38 -27
t50 -14.5t56.5 -6t66 -1q166 0 263.5 126t97.5 341q0 204 -96.5 324t-260.5 120q-72 0 -144.5 -24t-123.5 -64v-586z" />
    <glyph glyph-name="c" unicode="c" horiz-adv-x="907" 
d="M500 -20q-85 0 -162 33t-136.5 93t-94.5 153.5t-35 205.5q0 146 57 272.5t166.5 206.5t249.5 80q97 0 182.5 -26.5t85.5 -49.5t-30.5 -59.5t-51.5 -36.5q-7 0 -16.5 2.5t-22.5 8t-23 10t-27.5 14.5t-25.5 14.5t-28 16t-25 14.5l-61 35h-23q-124 0 -214.5 -130.5
t-90.5 -318.5q0 -106 30.5 -192.5t81.5 -141t115.5 -83.5t135.5 -29q84 0 147 24t141 82l11 -10q-49 -86 -136.5 -137t-199.5 -51z" />
    <glyph glyph-name="d" unicode="d" horiz-adv-x="1085" 
d="M475 -20q-174 0 -288.5 135.5t-114.5 357.5q0 253 129.5 402t343.5 149q148 0 254 -72v510l-174 33v31q53 11 135 20.5t119 9.5h32q-20 -313 -20 -557v-923l174 -10v-31q-172 -55 -236 -55h-20l-10 129h-21q-63 -60 -144.5 -94.5t-158.5 -34.5zM174 496q0 -193 101 -314
t241 -121q146 0 283 103v543q0 123 -76 194.5t-207 71.5q-159 0 -250.5 -127.5t-91.5 -349.5z" />
    <glyph glyph-name="e" unicode="e" horiz-adv-x="917" 
d="M510 -20q-190 0 -314 134.5t-124 360.5q0 148 53.5 273t153 200.5t225.5 75.5q144 0 232.5 -83t88.5 -206q0 -71 -22 -102h-621q-8 -47 -8 -113q0 -204 92 -327t269 -123q178 0 311 108l10 -10q-121 -188 -346 -188zM188 668l455 16q74 3 74 82q0 96 -58.5 153.5
t-160.5 57.5q-110 0 -194.5 -84t-115.5 -225z" />
    <glyph glyph-name="f" unicode="f" horiz-adv-x="624" 
d="M41 0l20 41l62 10q36 6 53 15.5t28 40t11 88.5v768h-143v30l143 11v262q0 135 88 223t252 88q43 0 107.5 -12.5t110.5 -28t46 -23.5q0 -23 -28 -50t-50 -27q-11 0 -28.5 4.5t-43.5 15t-47 19.5t-58 25.5t-58 25.5h-21q-75 0 -126.5 -56.5t-51.5 -175.5v-290h322v-41h-322
v-922l236 10l-21 -51h-481z" />
    <glyph glyph-name="g" unicode="g" horiz-adv-x="1005" 
d="M496 -492q-128 0 -237 38t-174 106t-65 151q0 66 39.5 122t94 88.5t114.5 45.5q-32 32 -72 92t-40 78q0 22 62 57.5t140 53.5q-107 28 -175 115t-68 200q0 154 107.5 261.5t262.5 107.5q90 0 160 -43q147 109 216 146q77 40 128 40q38 0 23 -53q-13 -44 -39 -66l-10 -6
l-295 -73q65 -45 103 -117t38 -156q0 -154 -104.5 -261t-255.5 -107q-50 0 -113.5 -39.5t-63.5 -83.5q0 -76 172 -84l293 -15q109 -6 164 -71.5t55 -157.5q0 -109 -63.5 -194.5t-167.5 -130t-229 -44.5zM129 -180q0 -78 61 -139.5t146 -91t170 -29.5q168 0 266 75.5
t98 210.5q0 33 -11 62.5t-34.5 57t-68.5 45t-107 20.5l-325 16q-29 -1 -61 -15t-63 -40t-51 -71.5t-20 -100.5zM209 713q0 -146 83 -240t212 -94q93 0 152 73t59 187q0 146 -83 240t-212 94q-93 0 -152 -73t-59 -187z" />
    <glyph glyph-name="h" unicode="h" horiz-adv-x="1126" 
d="M31 0l20 41l62 10q54 8 73 32.5t19 111.5v1265l-174 29v33q157 34 266 34h20q-20 -270 -20 -440v-229h10q80 59 177 98t184 39q264 0 264 -289v-694l205 10l-21 -51h-450l20 41l62 10q54 8 73 32.5t19 111.5v499q0 248 -189 248q-177 0 -354 -96v-805l215 10l-20 -51
h-461z" />
    <glyph glyph-name="i" unicode="i" 
d="M41 0l20 41l62 10q52 8 72 32t20 89v756l-174 30v31q180 35 266 35h21q-21 -133 -21 -268v-715l195 10l-21 -51h-440zM174 1368q0 33 24.5 57.5t57.5 24.5q32 0 55 -24.5t23 -57.5q0 -34 -23 -57t-55 -23q-34 0 -58 24t-24 56z" />
    <glyph glyph-name="j" unicode="j" horiz-adv-x="479" 
d="M10 -481q80 72 142.5 199.5t62.5 283.5v926l-174 30v31q179 35 266 35h21q-21 -205 -21 -371v-651q0 -95 -27.5 -180t-72 -145t-91.5 -102t-96 -67zM174 1368q0 33 24.5 57.5t57.5 24.5q32 0 55 -24.5t23 -57.5q0 -34 -23 -57t-55 -23q-34 0 -58 24t-24 56z" />
    <glyph glyph-name="k" unicode="k" horiz-adv-x="1130" 
d="M895 -20q-94 0 -205 137l-291 364v21l455 461l-252 -11l21 52h497l-20 -41q-83 0 -133 -13t-82.5 -36t-87.5 -78l-312 -312q161 -210 291 -340q8 -8 29 -28t28 -26.5t24.5 -20.5t28.5 -19t29 -12t37.5 -9.5t42.5 -2.5h74l10 -15q-108 -71 -184 -71zM31 0l20 41l62 10
q52 8 72 33t20 88v1288l-174 29v33q174 34 266 34h20q-20 -263 -20 -552v-963l174 10l-20 -51h-420z" />
    <glyph glyph-name="l" unicode="l" 
d="M31 0l20 41l45 6q62 8 85.5 29t23.5 84v1300l-174 29v33q156 34 266 34h20q-20 -270 -20 -426v-1089l205 10l-21 -51h-450z" />
    <glyph glyph-name="m" unicode="m" horiz-adv-x="1679" 
d="M1208 0l21 41l61 10q54 8 73 32.5t19 111.5v532q0 103 -48.5 159t-139.5 56q-20 0 -39 -1t-33.5 -2t-32 -5.5t-27.5 -6t-28.5 -9t-26 -10t-29 -13t-28 -13.5t-33 -16.5t-34.5 -17.5q8 -33 8 -80v-727l215 10l-21 -51h-460l20 41l62 10q54 8 73 32.5t19 111.5v532
q0 103 -49 159t-140 56q-34 0 -63 -3.5t-47 -6t-47 -14.5t-39 -17t-51 -26t-56 -29v-805l215 10l-20 -51h-461l20 41l62 10q53 8 72.5 36.5t19.5 107.5v712l-174 31v29q153 49 215 57h20l21 -137h20q9 6 53.5 38.5t60 41t51.5 27t69.5 24.5t73.5 6q187 0 245 -137h19
q4 3 39.5 28t43.5 30t38.5 23.5t46 24t43 15.5t53.5 13t55 3q129 0 198 -66.5t69 -189.5v-727l215 10l-21 -51h-461z" />
    <glyph glyph-name="n" unicode="n" horiz-adv-x="1126" 
d="M666 0l20 41l51 8q30 5 44 8.5t30.5 14t22.5 30t6 50.5v577q0 100 -56.5 156.5t-160.5 56.5q-91 0 -165.5 -26.5t-150.5 -69.5v-805l215 10l-20 -51h-461l20 41l62 10q53 8 72.5 26t19.5 75v755l-174 31v31q27 7 80.5 22t88 24t46.5 9h20l21 -137h20q54 39 91.5 62.5
t108 49t138.5 25.5q137 0 207 -71t70 -205v-707l205 10l-21 -51h-450z" />
    <glyph glyph-name="o" unicode="o" horiz-adv-x="1060" 
d="M530 -20q-101 0 -187.5 39t-145.5 107t-92 161t-33 198q0 148 60.5 272t166 195.5t231.5 71.5q135 0 240.5 -68.5t162 -183.5t56.5 -254q0 -148 -61 -272t-166.5 -195t-231.5 -71zM174 526q0 -202 119 -343.5t289 -141.5q89 0 159 58t108 157t38 221q0 203 -119 344.5
t-289 141.5q-134 0 -219.5 -125.5t-85.5 -311.5z" />
    <glyph glyph-name="p" unicode="p" horiz-adv-x="1095" 
d="M41 -471l20 41l62 10q50 8 71 31t21 84v1233l-174 10v31q27 10 123.5 32.5t111.5 22.5h21v-129h20q63 57 150.5 93t163.5 36q174 0 288.5 -136t114.5 -358q0 -253 -129.5 -401.5t-343.5 -148.5q-150 0 -254 71v-481l256 10l-20 -51h-502zM307 297q0 -123 76 -194.5
t207 -71.5q159 0 250.5 127.5t91.5 349.5q0 193 -101 313.5t-241 120.5q-69 0 -144.5 -25t-136.5 -69l-2 -8v-543z" />
    <glyph glyph-name="q" unicode="q" horiz-adv-x="1071" 
d="M487 -20q-192 0 -303.5 136t-111.5 369q0 249 133 394t362 145q135 0 391 -41v-10q-41 -55 -56 -111t-15 -137v-1155l174 10l-21 -51h-501l20 41l164 10q43 3 57.5 23.5t14.5 77.5v425q-58 -58 -141 -92t-167 -34zM170 506q0 -204 96 -324.5t260 -120.5q71 0 143.5 24.5
t125.5 64.5v585q0 61 -12.5 104t-33.5 69t-56.5 40.5t-72.5 19.5t-90 5q-166 0 -263 -126t-97 -341z" />
    <glyph glyph-name="r" unicode="r" horiz-adv-x="751" 
d="M41 0l20 41l62 10q23 4 33.5 6.5t24.5 11t19.5 22.5t10 39t4.5 63v735l-174 30v31q171 35 225 35h21l10 -219h31q33 17 114 73.5t147.5 101t82.5 44.5q39 0 39 -45q0 -24 -11.5 -52.5t-31.5 -35.5l-301 -115q-37 -13 -48.5 -41.5t-11.5 -95.5v-598l215 10l-20 -51h-461z
" />
    <glyph glyph-name="s" unicode="s" horiz-adv-x="841" 
d="M418 -20q-179 0 -326 81l-20 261h30q84 -295 344 -295q90 0 144.5 46t54.5 138q0 86 -61.5 145t-194.5 121q-148 68 -216.5 130t-68.5 157q0 101 86.5 180.5t233.5 79.5q169 0 264 -61l21 -261h-31q-22 81 -55 138t-72 86.5t-76.5 42t-77.5 12.5q-88 0 -144 -50t-56 -136
q0 -42 18 -77t57.5 -65.5t80 -53t106.5 -52.5q156 -71 218 -135.5t62 -167.5q0 -119 -85.5 -191.5t-235.5 -72.5z" />
    <glyph glyph-name="t" unicode="t" horiz-adv-x="659" 
d="M377 -20q-96 0 -150.5 49.5t-54.5 144.5v789h-141v41l141 16l64 188h28v-204h352v-41h-352v-752q0 -76 35.5 -116t130.5 -40q96 0 188 27l11 -10q-116 -92 -252 -92z" />
    <glyph glyph-name="u" unicode="u" horiz-adv-x="1146" 
d="M449 -20q-107 0 -165.5 67.5t-58.5 188.5v696l-174 31v30q189 31 246 31h20v-748q0 -118 42.5 -166.5t134.5 -48.5q168 0 335 99v772l-174 31v30q118 31 246 31h21v-928l174 -30v-31q-54 -23 -120.5 -39t-94.5 -16h-21l-20 137h-21q-102 -70 -190 -103.5t-180 -33.5z" />
    <glyph glyph-name="v" unicode="v" horiz-adv-x="1095" 
d="M547 -20l-404 983l-133 -11l17 52h469l-21 -41l-123 -7q-60 -3 -67.5 -42.5t24.5 -106.5l271 -662l311 818l-197 -11l21 52h370l-20 -41l-41 -2q-59 -3 -79 -23.5t-46 -87.5l-332 -870h-20z" />
    <glyph glyph-name="w" unicode="w" horiz-adv-x="1591" 
d="M1096 -20l-271 710l-313 -710h-20l-349 983l-133 -11l21 52h440l-20 -41h-123q-49 0 -57 -29t16 -92l243 -699l271 607l-80 213l-182 -11l20 52h490l-21 -41h-115q-53 0 -66 -26.5t9 -78.5l272 -700l263 805l-199 -11l20 52h369l-20 -41h-43q-45 0 -69 -23t-52 -106
l-281 -854h-20z" />
    <glyph glyph-name="x" unicode="x" horiz-adv-x="1128" 
d="M614 41q188 0 196 35q3 12 -13 33l-258 342l-318 -410l197 10l-21 -51h-387l21 41h78q33 0 53 13t53 55l293 383l-354 471l-144 -11l23 52h483l-20 -41q-193 0 -191 -45q1 -11 12 -25l258 -342l320 412l-195 -11l23 52h395l-20 -41l-94 -7q-35 -1 -58 -15t-49 -50
l-293 -379l354 -471l146 10l-21 -51h-489z" />
    <glyph glyph-name="y" unicode="y" horiz-adv-x="1136" 
d="M215 -492q-49 0 -88 66q-30 49 -22 71q2 7 8 7h151q45 0 76.5 11.5t58 42t45.5 66.5t48 103l47 111l-387 977l-142 -11l21 52h465l-21 -41h-125q-54 0 -64.5 -20t15.5 -89l291 -743l360 852l-215 -11l21 52h368l-20 -41h-55q-31 0 -49 -24.5t-52 -104.5l-409 -963
q-79 -187 -153 -275t-173 -88z" />
    <glyph glyph-name="z" unicode="z" horiz-adv-x="940" 
d="M98 0l-20 41l676 930l-346 -8q-62 -1 -103.5 -25.5t-82.5 -86.5t-99 -187h-31l90 360q120 -20 232 -20h422l20 -41l-676 -932l340 10q63 2 104.5 15.5t81.5 53t75 107t77 180.5h31l-90 -397h-701z" />
    <glyph glyph-name="braceleft" unicode="{" horiz-adv-x="536" 
d="M41 637q86 4 134 52t48 124q0 82 -57 251t-57 251q0 262 387 262l-21 -51l-133 4q-139 3 -139 -195q0 -59 28.5 -145t57 -176.5t28.5 -159.5q0 -102 -70.5 -170t-146.5 -68q76 0 146.5 -67.5t70.5 -169.5q0 -69 -28.5 -159t-57 -175.5t-28.5 -144.5q0 -198 139 -195
l133 4l21 -51q-387 0 -387 262q0 82 57 250t57 250q0 76 -48 124t-134 52v41z" />
    <glyph glyph-name="bar" unicode="|" horiz-adv-x="430" 
d="M184 -342v1970h62v-1970h-62z" />
    <glyph glyph-name="braceright" unicode="}" horiz-adv-x="536" 
d="M496 637v-41q-86 -4 -134.5 -52t-48.5 -124q0 -82 57.5 -250t57.5 -250q0 -262 -387 -262l20 51l134 -4q139 -3 139 195q0 47 -18 112t-39.5 119.5t-39.5 123.5t-18 124q0 102 70.5 169.5t146.5 67.5q-76 0 -146.5 68t-70.5 170q0 55 18 124t39.5 124t39.5 120.5
t18 112.5q0 198 -139 195l-134 -4l-20 51q387 0 387 -262q0 -82 -57.5 -251t-57.5 -251q0 -76 48.5 -124t134.5 -52z" />
    <glyph glyph-name="asciitilde" unicode="~" horiz-adv-x="1032" 
d="M102 293q40 118 106 184t144 66q55 0 108.5 -22t88.5 -49t75.5 -49t71.5 -22q123 0 183 179l51 -11q-19 -105 -77.5 -172t-152.5 -67q-48 0 -97.5 22t-84 48.5t-79 48.5t-83.5 22q-58 0 -101.5 -43.5t-100.5 -144.5z" />
    <glyph glyph-name="exclamdown" unicode="&#xa1;" 
d="M262 670q0 -239 18.5 -585.5t41.5 -576.5q3 -38 -20 -59.5t-56 -21.5t-56 21.5t-20 59.5q23 232 42 578.5t19 583.5h31zM164 940q0 34 25 59t59 25q32 0 56 -25t24 -59q0 -32 -24 -57t-56 -25q-34 0 -59 25t-25 57z" />
    <glyph glyph-name="cent" unicode="&#xa2;" horiz-adv-x="907" 
d="M449 1419q-4 26 9 41t40 15t40 -15t9 -41l-31 -176h29q97 0 182.5 -26.5t85.5 -49.5t-30.5 -59.5t-51.5 -36.5q-7 0 -16.5 2.5t-22.5 8t-23 10t-27.5 14.5t-25.5 14.5t-28 16t-25 14.5l-61 35h-23q-124 0 -214.5 -130.5t-90.5 -318.5q0 -106 30.5 -192.5t81.5 -141
t115.5 -83.5t135.5 -29q84 0 147 24t141 82l11 -10q-47 -81 -129.5 -131.5t-186.5 -56.5l27 -164q4 -26 -9 -40.5t-40 -14.5t-40 14.5t-9 40.5l24 164q-169 11 -285 141t-116 344q0 134 48.5 252.5t142 201t214.5 101.5z" />
    <glyph glyph-name="sterling" unicode="&#xa3;" horiz-adv-x="1292" 
d="M100 41q68 2 126.5 23t109.5 63t80.5 118.5t29.5 178.5q0 105 -24 213h-287v61h271q-9 30 -30 94t-31.5 100.5t-20 93.5t-9.5 110q0 78 27 143t70.5 107.5t100 72.5t113 43t111.5 13q71 0 135 -15.5t98 -31t96 -48.5q12 -7 19 -10l39 -366h-30q-43 214 -137.5 316.5
t-251.5 102.5q-133 0 -209 -77t-76 -201q0 -82 13.5 -152.5t44.5 -165.5t40 -129h438l-10 -61h-414q17 -87 17 -172q0 -178 -76.5 -282.5t-210.5 -141.5q367 0 539 22q167 21 270 125t129 289h31q0 -99 -13 -175.5t-30.5 -126.5t-52.5 -84.5t-62.5 -52t-77 -26.5t-80 -10.5
t-86.5 -1.5h-768l21 41h18z" />
    <glyph glyph-name="currency" unicode="&#xa4;" horiz-adv-x="1228" 
d="M623 190q-198 0 -328 140l-154 -154l-43 43l160 160q-94 133 -94 317q0 194 100 340l-168 168l43 45l164 -164q63 71 145.5 110.5t174.5 39.5q207 0 338 -154l165 166l41 -45l-170 -170q84 -136 84 -303q0 -185 -94 -328l180 -180l-43 -45l-174 174
q-63 -75 -147.5 -117.5t-179.5 -42.5zM266 737q0 -202 119 -343.5t289 -141.5q89 0 159 58t108 157t38 221q0 203 -119 344.5t-289 141.5q-134 0 -219.5 -125.5t-85.5 -311.5z" />
    <glyph glyph-name="yen" unicode="&#xa5;" horiz-adv-x="1402" 
d="M444 0l21 41l59 10q68 12 100.5 49t32.5 103v108h-389v62h389v172h-389v61h389v15l-487 792l-160 -10l21 51h506l-21 -41l-86 -10q-69 -8 -85 -30t15 -75l385 -624l439 739l-211 -10l20 51h400l-21 -41l-84 -8q-39 -4 -58 -18t-44 -54l-426 -712v-15h389v-61h-389v-172
h389v-62h-389v-270l215 10l-21 -51h-510z" />
    <glyph glyph-name="brokenbar" unicode="&#xa6;" horiz-adv-x="430" 
d="M184 956v672h62v-672h-62zM184 -342v672h62v-672h-62z" />
    <glyph glyph-name="section" unicode="&#xa7;" horiz-adv-x="1071" 
d="M440 -360q-78 0 -134.5 12.5t-143.5 44.5l-90 401h30q35 -103 69.5 -174.5t67 -117t70.5 -71t75.5 -35t86.5 -9.5q133 0 201.5 62.5t68.5 180.5q0 30 -7 60.5t-15.5 55t-30 57t-36.5 54t-49 60.5t-54.5 61t-66 70.5t-70.5 75.5q-144 155 -201.5 282.5t-43.5 233.5t91 227
q7 145 108 224.5t265 79.5q78 0 133.5 -13t144.5 -45l90 -401h-30q-35 103 -69.5 174.5t-67 117t-70.5 71t-75.5 35t-86.5 9.5q-133 0 -201.5 -62.5t-68.5 -180.5q0 -30 7 -60.5t15.5 -55t30 -57t36.5 -54t49 -60.5t54.5 -61t66 -70.5t70.5 -75.5q144 -155 201.5 -282.5
t43.5 -233.5t-91 -227q-7 -145 -108 -224t-265 -79zM260 1116q-39 -85 -34.5 -178.5t66 -208.5t181.5 -248l66 -72t61 -67t50 -57t46 -55t36 -47.5t32 -48.5l21.5 -43t17.5 -47t8 -46q39 85 34.5 178.5t-66 208.5t-181.5 248l-66 72t-61 67t-50 57t-46 55t-36 47.5t-32 48.5
l-21.5 43t-17.5 47t-8 46z" />
    <glyph glyph-name="dieresis" unicode="&#xa8;" horiz-adv-x="479" 
d="M373 1268q-34 0 -57 23t-23 55t23 54.5t57 22.5q32 0 54 -22.5t22 -54.5q0 -34 -22 -56t-54 -22zM31 1346q0 32 23 54.5t57 22.5q32 0 53.5 -22.5t21.5 -54.5q0 -33 -21.5 -55.5t-53.5 -22.5q-34 0 -57 23t-23 55z" />
    <glyph glyph-name="copyright" unicode="&#xa9;" horiz-adv-x="1605" 
d="M803 -20q-201 0 -369 99.5t-265 271t-97 376.5q0 153 57.5 291.5t155 238.5t233 159t285.5 59t285.5 -59t233 -159t155 -238.5t57.5 -291.5q0 -205 -97 -376.5t-265 -271t-369 -99.5zM164 727q0 -191 85 -351t232 -252.5t322 -92.5t322 92.5t232 252.5t85 351t-85 351
t-232 252.5t-322 92.5t-322 -92.5t-232 -252.5t-85 -351zM412 700q0 206 117.5 336.5t301.5 130.5q71 0 144 -24.5t125 -57.5l33 -206h-31q-57 121 -123 184t-166 63q-132 0 -215.5 -109t-83.5 -280q0 -180 91.5 -294.5t234.5 -114.5q30 0 56 5.5t45.5 13t39 24.5t31.5 29.5
t29.5 39.5t26.5 42.5t28 51t30 54.5h31l-70 -254q-51 -20 -125.5 -33.5t-138.5 -13.5q-181 0 -296 115.5t-115 297.5z" />
    <glyph glyph-name="ordfeminine" unicode="&#xaa;" horiz-adv-x="757" 
d="M565 623q-33 0 -40 28t-7 117h-16q-76 -76 -131.5 -110.5t-124.5 -34.5q-80 0 -127 41.5t-47 111.5q0 59 47.5 110t130.5 85l260 110v191q0 69 -39.5 102t-101.5 33q-70 0 -129 -53v-78q0 -31 -21.5 -46.5t-46.5 -15.5q-33 0 -53.5 17.5t-20.5 34.5q0 19 61.5 70t139 95
t115.5 44q94 0 138.5 -50.5t41.5 -138.5q-12 -343 -6 -584l139 -8v-26q-110 -45 -162 -45zM156 813q0 -54 34 -86.5t86 -32.5q83 0 158.5 49t75.5 123v181l-215 -95q-139 -60 -139 -139z" />
    <glyph glyph-name="guillemotleft" unicode="&#xab;" horiz-adv-x="831" 
d="M512 502l248 -297h-41l-320 287v20l320 287h41zM102 492v20l340 348h41l-268 -358l268 -359h-41z" />
    <glyph glyph-name="logicalnot" unicode="&#xac;" horiz-adv-x="860" 
d="M102 627v61h656v-401h-72v340h-584z" />
    <glyph glyph-name="uni00AD" unicode="&#xad;" horiz-adv-x="706" 
d="M102 483v62h492v-62h-492z" />
    <glyph glyph-name="registered" unicode="&#xae;" horiz-adv-x="929" 
d="M465 852q-166 0 -279.5 110.5t-113.5 270.5q0 162 114 273.5t279 111.5t279 -111.5t114 -273.5q0 -160 -113.5 -270.5t-279.5 -110.5zM123 1235q0 -145 98.5 -243.5t243.5 -98.5t243.5 98.5t98.5 243.5t-98.5 243.5t-243.5 98.5t-243.5 -98.5t-98.5 -243.5zM279 1024
l10 20h30q27 0 27 56v334h-55l10 20h150q75 0 123.5 -33.5t48.5 -85.5q0 -37 -25 -65.5t-66 -42.5l56 -92q31 -54 102 -97l-2 -14q-92 0 -119 41l-92 149h-22h-47v-170h51l-10 -20h-170zM408 1229h20q56 0 89.5 30t33.5 78q0 99 -123 99h-20v-207z" />
    <glyph glyph-name="macron" unicode="&#xaf;" horiz-adv-x="526" 
d="M20 1262q0 25 14.5 38t37.5 13h434q0 -25 -14 -38t-37 -13h-435z" />
    <glyph glyph-name="degree" unicode="&#xb0;" horiz-adv-x="555" 
d="M279 1004q-99 0 -168.5 69t-69.5 168q0 97 70 165.5t168 68.5q97 0 166 -68.5t69 -165.5q0 -99 -69 -168t-166 -69zM84 1239q0 -82 56.5 -138.5t138.5 -56.5t138 56.5t56 138.5q0 83 -56 140t-138 57t-138.5 -57t-56.5 -140z" />
    <glyph glyph-name="plusminus" unicode="&#xb1;" horiz-adv-x="1024" 
d="M477 225v338h-334v62h334v338h72v-338h332v-62h-332v-338h-72zM154 0v61h716v-61h-716z" />
    <glyph glyph-name="uni00B2" unicode="&#xb2;" horiz-adv-x="688" 
d="M-20 897q94 65 158 112.5t132 106.5t108 109t65.5 107.5t25.5 113.5q0 73 -48.5 119.5t-121.5 46.5q-62 0 -114.5 -31.5t-127.5 -101.5l-20 20q74 93 141 138.5t154 45.5q95 0 157 -62.5t62 -168.5q0 -70 -36 -140.5t-105 -138t-148 -127.5t-186 -128h303q37 0 63.5 4
t48.5 17t36 27.5t28.5 45t24.5 60t26 81.5h31l-62 -317q-61 14 -112 17t-146 3h-317z" />
    <glyph glyph-name="uni00B3" unicode="&#xb3;" horiz-adv-x="671" 
d="M330 838q-73 0 -146.5 15t-111.5 36l-11 256h31q23 -141 90 -198.5t164 -57.5q74 0 133.5 49t59.5 133q0 93 -72 143t-172 50l-16 20q103 39 144.5 93t41.5 124q0 51 -35.5 81t-93.5 30q-68 0 -118 -29.5t-118 -93.5l-20 20q60 87 124.5 132t155.5 45q79 0 133 -49
t54 -126q0 -132 -152 -208q90 -13 158 -70t68 -143q0 -114 -89.5 -183t-201.5 -69z" />
    <glyph glyph-name="acute" unicode="&#xb4;" horiz-adv-x="499" 
d="M4 1157q313 399 334 399q17 0 28 -10.5t11 -27.5q0 -7 -1.5 -13.5t-3.5 -11.5t-7 -12.5t-7.5 -11.5t-11 -12.5t-12 -11.5t-14.5 -13.5t-15 -14.5l-289 -270z" />
    <glyph glyph-name="uni00B5" unicode="&#xb5;" horiz-adv-x="1105" 
d="M449 -20q-107 0 -165.5 67.5t-58.5 188.5v696l-174 31v30q189 31 246 31h20v-748q0 -118 42.5 -166.5t134.5 -48.5q168 0 335 99v772l-174 31v30q118 31 246 31h21v-928l174 -30v-31q-54 -23 -120.5 -39t-94.5 -16h-21l-20 137h-21q-102 -70 -190 -103.5t-180 -33.5z
M188 297l29 -21q-9 -100 -10 -181.5t7 -174t34.5 -176.5t70.5 -154l-122 -82q-17 30 -27.5 76t-13.5 107t-3.5 115t5 132.5t9 125.5t11.5 126.5t10 106.5z" />
    <glyph glyph-name="paragraph" unicode="&#xb6;" horiz-adv-x="1134" 
d="M500 557q-113 0 -210 54t-157.5 158t-60.5 237q0 127 66 231t173 160.5t230 56.5h512l-21 -41l-86 -10q-90 -12 -90 -133v-1084q0 -230 -71 -352t-236 -176l-8 29q99 53 152.5 119t77.5 168t24 266v1173h-103v-856h-192z" />
    <glyph glyph-name="periodcentered" unicode="&#xb7;" 
d="M248 430q-34 0 -59 25t-25 59q0 32 25 57t59 25q32 0 56 -25t24 -57q0 -34 -24 -59t-56 -25z" />
    <glyph glyph-name="cedilla" unicode="&#xb8;" horiz-adv-x="313" 
d="M31 -500q100 34 142 89.5t42 101.5q0 42 -31 76t-98 73l41 160h49l-18 -78q6 -4 24.5 -17t25.5 -18t22.5 -18t22 -21t17.5 -22.5t15 -27t8 -30t4 -36.5q0 -152 -256 -244z" />
    <glyph glyph-name="uni00B9" unicode="&#xb9;" horiz-adv-x="593" 
d="M51 856l21 41h102q56 0 79 19t23 75v553l-215 -51v31q104 32 164 66t111 93l33 -20q-14 -98 -17.5 -192.5t-3.5 -278.5v-295l195 10l-21 -51h-471z" />
    <glyph glyph-name="ordmasculine" unicode="&#xba;" horiz-adv-x="892" 
d="M446 623q-166 0 -270 118t-104 293q0 185 108.5 313t265.5 128q165 0 270 -119.5t105 -292.5q0 -184 -109 -312t-266 -128zM156 1069q0 -166 96.5 -281.5t234.5 -115.5q111 0 180.5 102t69.5 254q0 166 -96.5 281.5t-234.5 115.5q-111 0 -180.5 -102t-69.5 -254z" />
    <glyph glyph-name="guillemotright" unicode="&#xbb;" horiz-adv-x="831" 
d="M319 502l-247 297h41l319 -287v-20l-319 -287h-41zM348 143l268 359l-268 358h41l340 -348v-20l-340 -349h-41z" />
    <glyph glyph-name="onequarter" unicode="&#xbc;" horiz-adv-x="1441" 
d="M51 649l21 41h102q56 0 79 19t23 75v553l-215 -51v31q103 32 163.5 66t111.5 94l33 -21q-14 -98 -17.5 -192.5t-3.5 -278.5v-295l195 10l-21 -51h-471zM393 4l795 1471l49 -25l-795 -1470zM803 219l448 608l13 -8v-579h127l-21 -62h-106v-178h-72v178h-369zM868 240h324
v438z" />
    <glyph glyph-name="onehalf" unicode="&#xbd;" horiz-adv-x="1470" 
d="M51 649l21 41h102q56 0 79 19t23 75v553l-215 -51v31q103 32 163.5 66t111.5 94l33 -21q-14 -98 -17.5 -192.5t-3.5 -278.5v-295l195 10l-21 -51h-471zM287 4l794 1471l49 -25l-794 -1470zM762 41q94 65 158 112.5t132 106.5t108 109t65.5 107.5t25.5 113.5
q0 73 -48.5 119.5t-121.5 46.5q-62 0 -113.5 -31t-127.5 -102l-21 20q74 93 141 138.5t154 45.5q95 0 157 -62.5t62 -168.5q0 -70 -36 -140.5t-104.5 -138.5t-148 -128t-186.5 -128h303q37 0 64 4t48.5 17t36 28t29 45.5t24.5 60.5t26 81h30l-61 -317q-61 14 -112 17t-146 3
h-318z" />
    <glyph glyph-name="threequarters" unicode="&#xbe;" horiz-adv-x="1374" 
d="M330 629q-73 0 -146.5 15t-111.5 36l-11 256h31q23 -141 90 -198.5t164 -57.5q74 0 133.5 49t59.5 133q0 93 -72 143t-172 50l-16 20q103 39 144.5 93t41.5 124q0 51 -35.5 81t-93.5 30q-68 0 -118 -29.5t-118 -93.5l-20 20q60 87 124.5 132t155.5 45q79 0 133 -48.5
t54 -125.5q0 -133 -152 -209q90 -13 158 -70t68 -143q0 -114 -89.5 -183t-201.5 -69zM313 4l795 1471l49 -25l-795 -1470zM735 219l449 608l12 -8v-579h127l-20 -62h-107v-178h-72v178h-368zM801 240h323v438z" />
    <glyph glyph-name="questiondown" unicode="&#xbf;" horiz-adv-x="704" 
d="M485 713q8 -31 20 -69t17.5 -57.5t10 -53.5t4.5 -76q0 -66 -20 -121t-52.5 -94t-71.5 -73.5t-78.5 -69.5t-72 -74t-52.5 -94t-20 -121q0 -38 18.5 -72t46 -58t72 -47t81.5 -37.5t89 -31.5q11 -4 37.5 -49.5t26.5 -55.5q0 -30 -47 -30q-35 0 -81 18t-97.5 58t-94 94.5
t-70.5 136t-28 174.5q0 62 19.5 113t50.5 88.5t68.5 72t75 72t68.5 80.5t50.5 105t19.5 137q0 18 -2 36.5t-4 29.5t-7 35t-7 34h30zM352 942q0 34 24 59t56 25q34 0 59 -25t25 -59q0 -32 -25 -57t-59 -25q-32 0 -56 25t-24 57z" />
    <glyph glyph-name="Agrave" unicode="&#xc0;" horiz-adv-x="1501" 
d="M1004 0l20 41l109 10q62 6 72 32t-21 93l-121 260h-684l-156 -395l211 10l-20 -51h-404l21 41l73 10q45 6 73.5 34t55.5 97l433 1094q-86 114 -242 158l10 20h271l659 -1413l127 10l-21 -51h-466zM395 477h649l-346 742l-6 14zM403 1880q0 20 10 33.5t23 13.5q5 0 17 -9
t33 -29.5t40.5 -40t52.5 -54l55 -57.5t61.5 -65t58.5 -62l-6 -11l-275 203q-6 4 -19 14t-17.5 13.5t-13 11t-11.5 12.5t-6 12t-3 15z" />
    <glyph glyph-name="Aacute" unicode="&#xc1;" horiz-adv-x="1501" 
d="M1004 0l20 41l109 10q62 6 72 32t-21 93l-121 260h-684l-156 -395l211 10l-20 -51h-404l21 41l73 10q45 6 73.5 34t55.5 97l433 1094q-86 114 -242 158l10 20h271l659 -1413l127 10l-21 -51h-466zM395 477h649l-346 742l-6 14zM451 1610q22 23 59 62.5t60.5 64.5t55 58
t52 53.5t41 40t32.5 29t17 9.5q13 0 23 -13.5t10 -33.5q0 -8 -3 -15t-6 -12t-11.5 -12.5t-13 -11t-17.5 -13.5t-19 -14l-274 -203z" />
    <glyph glyph-name="Acircumflex" unicode="&#xc2;" horiz-adv-x="1501" 
d="M1004 0l20 41l109 10q62 6 72 32t-21 93l-121 260h-684l-156 -395l211 10l-20 -51h-404l21 41l73 10q45 6 73.5 34t55.5 97l433 1094q-86 114 -242 158l10 20h271l659 -1413l127 10l-21 -51h-466zM303 1610q82 102 180.5 209.5t118.5 107.5t120.5 -108.5t178.5 -208.5
l-12 -11l-287 236l-287 -236zM395 477h649l-346 742l-6 14z" />
    <glyph glyph-name="Atilde" unicode="&#xc3;" horiz-adv-x="1501" 
d="M1004 0l20 41l109 10q62 6 72 32t-21 93l-121 260h-684l-156 -395l211 10l-20 -51h-404l21 41l73 10q45 6 73.5 34t55.5 97l433 1094q-86 114 -242 158l10 20h271l659 -1413l127 10l-21 -51h-466zM301 1673q41 72 93.5 116t103.5 44q48 0 136.5 -47t119.5 -47
q33 0 64.5 26t72.5 78l12 -10q-38 -68 -87.5 -119t-94.5 -51q-41 0 -137 47t-127 47q-66 0 -144 -94zM395 477h649l-346 742l-6 14z" />
    <glyph glyph-name="Adieresis" unicode="&#xc4;" horiz-adv-x="1501" 
d="M1004 0l20 41l109 10q62 6 72 32t-21 93l-121 260h-684l-156 -395l211 10l-20 -51h-404l21 41l73 10q45 6 73.5 34t55.5 97l433 1094q-86 114 -242 158l10 20h271l659 -1413l127 10l-21 -51h-466zM395 477h649l-346 742l-6 14zM416 1798q0 30 20.5 51t50.5 21
q29 0 48.5 -21t19.5 -51q0 -29 -19.5 -49t-48.5 -20q-31 0 -51 20t-20 49zM651 1798q0 30 21 51t51 21q29 0 48.5 -21t19.5 -51q0 -29 -19.5 -49t-48.5 -20q-31 0 -51.5 20t-20.5 49z" />
    <glyph glyph-name="Aring" unicode="&#xc5;" horiz-adv-x="1501" 
d="M1004 0l20 41l109 10q62 6 72 32t-21 93l-121 260h-684l-156 -395l211 10l-20 -51h-404l21 41l73 10q45 6 73.5 34t55.5 97l433 1094q-86 114 -242 158l10 20h271l659 -1413l127 10l-21 -51h-466zM395 477h649l-346 742l-6 14zM446 1753q0 52 45.5 88.5t110.5 36.5
t109.5 -36.5t44.5 -88.5t-44.5 -88.5t-109.5 -36.5t-110.5 36.5t-45.5 88.5zM528 1753q0 -41 22 -72.5t52 -31.5q29 0 50.5 32t21.5 72t-21.5 72.5t-50.5 32.5q-30 0 -52 -32t-22 -73z" />
    <glyph glyph-name="AE" unicode="&#xc6;" horiz-adv-x="1961" 
d="M10 0l21 41l73 10q41 6 62.5 30t66.5 101l658 1147q16 28 -7.5 52t-79.5 38.5t-132 14.5l10 20h283l2 -2v2h538q118 0 283 21l61 -398h-30q-29 136 -66.5 209.5t-85 100t-121.5 26.5h-477v-676h344q28 0 43 1.5t36 8t33 21t24.5 39t20.5 64t13 94.5h31v-496h-31
q-5 55 -13 94.5t-20.5 64t-24.5 38.5t-33 20.5t-36 8t-43 1.5h-344v-655h518q34 0 57.5 4t51.5 16.5t50.5 38t47.5 66.5t48.5 104t47.5 148h31l-102 -438q-103 20 -183 20h-862l21 41l88 10q41 4 62.5 33.5t21.5 75.5v536h-383l-377 -655l207 10l-21 -51h-383zM606 737h361
v627z" />
    <glyph glyph-name="Ccedilla" unicode="&#xc7;" horiz-adv-x="1437" 
d="M813 -20h-10l-8 -37q4 -3 24.5 -17t26 -18.5l22 -18t22.5 -21t17 -22.5t15 -27.5t8 -30t4 -36.5q0 -152 -256 -244l-10 13q100 34 142 89t42 101q0 42 -31 76.5t-98 73.5l31 121q-196 14 -353 113.5t-243 254t-86 330.5q0 228 96 410t264 283.5t377 101.5
q114 0 231 -30.5t199 -74.5l80 -366h-31q-48 125 -104.5 209t-122.5 129t-133 63t-152 18q-160 0 -293 -88.5t-210.5 -245.5t-77.5 -348q0 -144 44.5 -273t124 -226t198 -154t259.5 -57q185 0 301.5 102.5t212.5 337.5h31l-119 -389q-73 -34 -116 -51t-130 -34t-188 -17z
" />
    <glyph glyph-name="Egrave" unicode="&#xc8;" horiz-adv-x="1271" 
d="M84 0l20 41l89 10q41 4 62 33.5t21 75.5v1253l-194 -10l20 51h713q119 0 283 21l61 -398h-31q-29 136 -66.5 209.5t-84.5 100t-121 26.5h-477v-635h283q33 0 51 2t41 14t35.5 35.5t24 67.5t17.5 109h31v-496h-31q-6 65 -17.5 109t-24 67.5t-36 35t-40.5 13.5t-51 2h-283
v-696h518q34 0 57.5 4t51.5 16.5t50.5 38t47.5 66.5t48.5 104t47.5 148h31l-103 -438q-102 20 -182 20h-862zM473 1878q0 20 10 33.5t23 13.5q5 0 17 -9.5t32.5 -29t41 -40t52 -53.5t55 -58t60.5 -64.5t59 -62.5l-6 -11l-274 203q-6 4 -19 14t-17.5 13.5t-13 11t-11.5 12.5
t-6 12t-3 15z" />
    <glyph glyph-name="Eacute" unicode="&#xc9;" horiz-adv-x="1271" 
d="M84 0l20 41l89 10q41 4 62 33.5t21 75.5v1253l-194 -10l20 51h713q119 0 283 21l61 -398h-31q-29 136 -66.5 209.5t-84.5 100t-121 26.5h-477v-635h283q33 0 51 2t41 14t35.5 35.5t24 67.5t17.5 109h31v-496h-31q-6 65 -17.5 109t-24 67.5t-36 35t-40.5 13.5t-51 2h-283
v-696h518q34 0 57.5 4t51.5 16.5t50.5 38t47.5 66.5t48.5 104t47.5 148h31l-103 -438q-102 20 -182 20h-862zM520 1608q19 20 58.5 62t61.5 65l55 57.5t52.5 54t40.5 40t33 29.5t17 9q12 0 22 -13.5t10 -33.5q0 -7 -1.5 -12.5t-5.5 -11.5t-7 -10t-11 -10.5t-12 -10
t-15.5 -11.5t-16.5 -12l-275 -203z" />
    <glyph glyph-name="Ecircumflex" unicode="&#xca;" horiz-adv-x="1271" 
d="M84 0l20 41l89 10q41 4 62 33.5t21 75.5v1253l-194 -10l20 51h713q119 0 283 21l61 -398h-31q-29 136 -66.5 209.5t-84.5 100t-121 26.5h-477v-635h283q33 0 51 2t41 14t35.5 35.5t24 67.5t17.5 109h31v-496h-31q-6 65 -17.5 109t-24 67.5t-36 35t-40.5 13.5t-51 2h-283
v-696h518q34 0 57.5 4t51.5 16.5t50.5 38t47.5 66.5t48.5 104t47.5 148h31l-103 -438q-102 20 -182 20h-862zM373 1608q82 102 180.5 209.5t118.5 107.5t120.5 -108.5t178.5 -208.5l-13 -11l-286 236l-287 -236z" />
    <glyph glyph-name="Edieresis" unicode="&#xcb;" horiz-adv-x="1271" 
d="M84 0l20 41l89 10q41 4 62 33.5t21 75.5v1253l-194 -10l20 51h713q119 0 283 21l61 -398h-31q-29 136 -66.5 209.5t-84.5 100t-121 26.5h-477v-635h283q33 0 51 2t41 14t35.5 35.5t24 67.5t17.5 109h31v-496h-31q-6 65 -17.5 109t-24 67.5t-36 35t-40.5 13.5t-51 2h-283
v-696h518q34 0 57.5 4t51.5 16.5t50.5 38t47.5 66.5t48.5 104t47.5 148h31l-103 -438q-102 20 -182 20h-862zM485 1796q0 30 21 51t51 21q29 0 48.5 -21t19.5 -51q0 -29 -19.5 -49.5t-48.5 -20.5q-31 0 -51.5 20.5t-20.5 49.5zM721 1796q0 30 21 51t51 21q29 0 48 -21
t19 -51t-19 -50t-48 -20q-31 0 -51.5 20.5t-20.5 49.5z" />
    <glyph glyph-name="Igrave" unicode="&#xcc;" horiz-adv-x="657" 
d="M84 0l20 41l86 10q49 6 67.5 28.5t18.5 78.5v1255l-194 -10l20 51h473l-20 -41l-86 -10q-90 -12 -90 -133v-1229l194 10l-20 -51h-469zM139 1878q0 20 10 33.5t23 13.5q5 0 17 -9.5t32.5 -29t41 -40t52 -53.5t55 -58t60.5 -64.5t59 -62.5l-6 -11l-274 203q-6 4 -19 14
t-17.5 13.5t-13 11t-11.5 12.5t-6 12t-3 15z" />
    <glyph glyph-name="Iacute" unicode="&#xcd;" horiz-adv-x="657" 
d="M84 0l20 41l86 10q49 6 67.5 28.5t18.5 78.5v1255l-194 -10l20 51h473l-20 -41l-86 -10q-90 -12 -90 -133v-1229l194 10l-20 -51h-469zM186 1608q19 20 58.5 62t61.5 65l55 57.5t52.5 54t40.5 40t33 29.5t17 9q13 0 23 -13.5t10 -33.5q0 -8 -3 -15t-6 -12t-11.5 -12.5
t-13 -11t-17.5 -13.5t-19 -14l-274 -203z" />
    <glyph glyph-name="Icircumflex" unicode="&#xce;" horiz-adv-x="657" 
d="M84 0l20 41l86 10q49 6 67.5 28.5t18.5 78.5v1255l-194 -10l20 51h473l-20 -41l-86 -10q-90 -12 -90 -133v-1229l194 10l-20 -51h-469zM39 1608q82 102 180.5 209.5t118.5 107.5t120.5 -108.5t178.5 -208.5l-12 -11l-287 236l-287 -236z" />
    <glyph glyph-name="Idieresis" unicode="&#xcf;" horiz-adv-x="657" 
d="M84 0l20 41l86 10q49 6 67.5 28.5t18.5 78.5v1255l-194 -10l20 51h473l-20 -41l-86 -10q-90 -12 -90 -133v-1229l194 10l-20 -51h-469zM152 1796q0 30 20.5 51t50.5 21q29 0 48.5 -21t19.5 -51q0 -29 -19.5 -49.5t-48.5 -20.5q-31 0 -51 20t-20 50zM387 1796q0 30 21 51
t51 21q29 0 48 -21t19 -51t-19 -50t-48 -20q-31 0 -51.5 20.5t-20.5 49.5z" />
    <glyph glyph-name="Eth" unicode="&#xd0;" horiz-adv-x="1484" 
d="M82 707v30h225v676l-194 -10l20 51h512q181 0 328.5 -53.5t242.5 -147t146 -217.5t51 -268q0 -224 -84.5 -398.5t-241 -272t-360.5 -97.5h-612l20 41l88 10q84 9 84 111v545h-225zM410 41h286q190 0 325.5 88.5t202 241.5t66.5 356q0 201 -74 355.5t-216.5 242.5
t-333.5 88h-256v-676h256v-30h-256v-666z" />
    <glyph glyph-name="Ntilde" unicode="&#xd1;" horiz-adv-x="1527" 
d="M334 1167q-43 55 -53 66v-1192l190 10l-20 -51h-431l21 41l100 10q58 6 76.5 31.5t18.5 99.5v1100q-107 107 -211 152l10 20h207l1024 -1302v1261l-189 -10l21 51h430l-21 -41l-100 -10q-59 -6 -77.5 -31t-18.5 -98v-1251l-45 -43zM506 1671q41 72 93 116t103 44
q48 0 136.5 -47t119.5 -47q33 0 65.5 26t72.5 78l12 -10q-38 -68 -87.5 -119t-94.5 -51q-40 0 -136 47t-128 47q-66 0 -144 -94z" />
    <glyph glyph-name="Ograve" unicode="&#xd2;" horiz-adv-x="1546" 
d="M772 -20q-150 0 -280 55.5t-222.5 153.5t-145 237t-52.5 301q0 216 90 387t249.5 266t360.5 95q150 0 280.5 -55.5t223.5 -153.5t146 -237.5t53 -301.5t-53 -301t-146 -237t-223.5 -153.5t-280.5 -55.5zM186 768q0 -211 76.5 -375t224.5 -258t347 -94q232 0 379 171
t147 474q0 211 -77.5 375t-225.5 258t-346 94q-234 0 -379.5 -171t-145.5 -474zM571 1878q0 20 10 33.5t23 13.5q5 0 17 -9t33 -29.5t40.5 -40t52.5 -54l55 -57.5t61.5 -65t58.5 -62l-7 -11l-274 203q-6 4 -19 14t-17.5 13.5t-13 11t-11.5 12.5t-6 12t-3 15z" />
    <glyph glyph-name="Oacute" unicode="&#xd3;" horiz-adv-x="1546" 
d="M772 -20q-150 0 -280 55.5t-222.5 153.5t-145 237t-52.5 301q0 216 90 387t249.5 266t360.5 95q150 0 280.5 -55.5t223.5 -153.5t146 -237.5t53 -301.5t-53 -301t-146 -237t-223.5 -153.5t-280.5 -55.5zM186 768q0 -211 76.5 -375t224.5 -258t347 -94q232 0 379 171
t147 474q0 211 -77.5 375t-225.5 258t-346 94q-234 0 -379.5 -171t-145.5 -474zM618 1608q19 20 58.5 62t61.5 65l55 57.5t52.5 54t40.5 40t33 29.5t17 9q13 0 23 -13.5t10 -33.5q0 -8 -3 -15t-6 -12t-11.5 -12.5t-13 -11t-17.5 -13.5t-19 -14l-274 -203z" />
    <glyph glyph-name="Ocircumflex" unicode="&#xd4;" horiz-adv-x="1546" 
d="M772 -20q-150 0 -280 55.5t-222.5 153.5t-145 237t-52.5 301q0 216 90 387t249.5 266t360.5 95q150 0 280.5 -55.5t223.5 -153.5t146 -237.5t53 -301.5t-53 -301t-146 -237t-223.5 -153.5t-280.5 -55.5zM186 768q0 -211 76.5 -375t224.5 -258t347 -94q232 0 379 171
t147 474q0 211 -77.5 375t-225.5 258t-346 94q-234 0 -379.5 -171t-145.5 -474zM471 1608q82 102 180.5 209.5t118.5 107.5t120.5 -108.5t178.5 -208.5l-12 -11l-287 236l-287 -236z" />
    <glyph glyph-name="Otilde" unicode="&#xd5;" horiz-adv-x="1546" 
d="M772 -20q-150 0 -280 55.5t-222.5 153.5t-145 237t-52.5 301q0 216 90 387t249.5 266t360.5 95q150 0 280.5 -55.5t223.5 -153.5t146 -237.5t53 -301.5t-53 -301t-146 -237t-223.5 -153.5t-280.5 -55.5zM186 768q0 -211 76.5 -375t224.5 -258t347 -94q232 0 379 171
t147 474q0 211 -77.5 375t-225.5 258t-346 94q-234 0 -379.5 -171t-145.5 -474zM469 1671q41 72 93.5 116t103.5 44q48 0 136.5 -47t119.5 -47q33 0 64.5 26t72.5 78l12 -10q-38 -68 -87.5 -119t-94.5 -51q-41 0 -137 47t-127 47q-66 0 -144 -94z" />
    <glyph glyph-name="Odieresis" unicode="&#xd6;" horiz-adv-x="1546" 
d="M772 -20q-150 0 -280 55.5t-222.5 153.5t-145 237t-52.5 301q0 216 90 387t249.5 266t360.5 95q150 0 280.5 -55.5t223.5 -153.5t146 -237.5t53 -301.5t-53 -301t-146 -237t-223.5 -153.5t-280.5 -55.5zM186 768q0 -211 76.5 -375t224.5 -258t347 -94q232 0 379 171
t147 474q0 211 -77.5 375t-225.5 258t-346 94q-234 0 -379.5 -171t-145.5 -474zM584 1796q0 30 20.5 51t50.5 21q29 0 48.5 -21t19.5 -51q0 -29 -19.5 -49.5t-48.5 -20.5q-31 0 -51 20t-20 50zM819 1796q0 30 21 51t51 21q29 0 48 -21t19 -51t-19 -50t-48 -20
q-31 0 -51.5 20.5t-20.5 49.5z" />
    <glyph glyph-name="multiply" unicode="&#xd7;" horiz-adv-x="917" 
d="M143 188l271 271l-267 264l43 43l267 -264l266 266l51 -49l-268 -268l264 -265l-43 -43l-264 265l-268 -269z" />
    <glyph glyph-name="Oslash" unicode="&#xd8;" horiz-adv-x="1546" 
d="M74 0l182 205q-184 206 -184 522q0 216 90 387t249.5 266t360.5 95q271 0 465 -172l135 153h58l-162 -182q99 -102 153 -242t54 -305q0 -162 -53 -301t-146 -237t-223.5 -153.5t-280.5 -55.5q-289 0 -487 192l-154 -172h-57zM186 768q0 -290 142 -483l841 942
q-177 186 -458 186q-234 0 -379.5 -171t-145.5 -474zM354 250q177 -209 480 -209q232 0 379 171t147 474q0 310 -164 510z" />
    <glyph glyph-name="Ugrave" unicode="&#xd9;" horiz-adv-x="1628" 
d="M854 -20q-260 0 -421 134t-161 361v938l-190 -10l20 51h469l-20 -41l-107 -10q-36 -3 -52.5 -30.5t-16.5 -82.5v-794q0 -207 144 -326t378 -119q186 0 306 125t120 320v917l-215 -10l20 51h418l-20 -41l-86 -10q-37 -4 -53.5 -31.5t-16.5 -81.5v-794
q0 -227 -144.5 -371.5t-371.5 -144.5zM668 1878q0 20 10 33.5t22 13.5q5 0 17 -9t33 -29.5t40.5 -40t52.5 -54l55 -57.5t61.5 -65t58.5 -62l-6 -11l-275 203q-5 4 -16.5 12t-15.5 11.5t-12 10t-11 10.5t-7 10t-5.5 11.5t-1.5 12.5z" />
    <glyph glyph-name="Uacute" unicode="&#xda;" horiz-adv-x="1628" 
d="M854 -20q-260 0 -421 134t-161 361v938l-190 -10l20 51h469l-20 -41l-107 -10q-36 -3 -52.5 -30.5t-16.5 -82.5v-794q0 -207 144 -326t378 -119q186 0 306 125t120 320v917l-215 -10l20 51h418l-20 -41l-86 -10q-37 -4 -53.5 -31.5t-16.5 -81.5v-794
q0 -227 -144.5 -371.5t-371.5 -144.5zM715 1608q22 23 59 62.5t60.5 64.5t55 58t52 53.5t41 40t32.5 29t17 9.5q13 0 23 -13.5t10 -33.5q0 -8 -3 -15t-6 -12t-11.5 -12.5t-13 -11t-17.5 -13.5t-19 -14l-274 -203z" />
    <glyph glyph-name="Ucircumflex" unicode="&#xdb;" horiz-adv-x="1628" 
d="M854 -20q-260 0 -421 134t-161 361v938l-190 -10l20 51h469l-20 -41l-107 -10q-36 -3 -52.5 -30.5t-16.5 -82.5v-794q0 -207 144 -326t378 -119q186 0 306 125t120 320v917l-215 -10l20 51h418l-20 -41l-86 -10q-37 -4 -53.5 -31.5t-16.5 -81.5v-794
q0 -227 -144.5 -371.5t-371.5 -144.5zM567 1608q82 102 180.5 209.5t118.5 107.5t120.5 -108.5t178.5 -208.5l-12 -11l-287 236l-286 -236z" />
    <glyph glyph-name="Udieresis" unicode="&#xdc;" horiz-adv-x="1628" 
d="M854 -20q-260 0 -421 134t-161 361v938l-190 -10l20 51h469l-20 -41l-107 -10q-36 -3 -52.5 -30.5t-16.5 -82.5v-794q0 -207 144 -326t378 -119q186 0 306 125t120 320v917l-215 -10l20 51h418l-20 -41l-86 -10q-37 -4 -53.5 -31.5t-16.5 -81.5v-794
q0 -227 -144.5 -371.5t-371.5 -144.5zM680 1796q0 30 21 51t51 21q29 0 48 -21t19 -51t-19 -50t-48 -20q-31 0 -51.5 20.5t-20.5 49.5zM915 1796q0 30 21 51t51 21q29 0 48.5 -21t19.5 -51q0 -29 -19.5 -49.5t-48.5 -20.5q-31 0 -51.5 20.5t-20.5 49.5z" />
    <glyph glyph-name="Yacute" unicode="&#xdd;" horiz-adv-x="1402" 
d="M444 0l21 41l59 10q68 12 100.5 49t32.5 103v418l-487 792l-160 -10l21 51h506l-21 -41l-86 -10q-69 -8 -85 -30t15 -75l385 -624l439 739l-211 -10l20 51h400l-21 -41l-84 -8q-39 -4 -58 -18t-44 -54l-426 -712v-580l215 10l-21 -51h-510zM606 1608q19 20 58.5 62
t61.5 65l55 57.5t52.5 54t40.5 40t33 29.5t17 9q12 0 22 -13.5t10 -33.5q0 -7 -1.5 -12.5t-5.5 -11.5t-7 -10t-11 -10.5t-12 -10t-15.5 -11.5t-16.5 -12l-275 -203z" />
    <glyph glyph-name="Thorn" unicode="&#xde;" horiz-adv-x="1275" 
d="M84 0l20 41l86 10q49 6 67.5 28.5t18.5 78.5v1255l-194 -10l20 51h473l-20 -41l-86 -10q-90 -12 -90 -133v-123h262q264 0 418.5 -110.5t154.5 -299.5q0 -197 -132.5 -312.5t-358.5 -115.5h-344v-268l194 10l-20 -51h-469zM379 350h299q192 0 304 98t112 265
q0 181 -123 287t-334 106h-258v-756z" />
    <glyph glyph-name="germandbls" unicode="&#xdf;" horiz-adv-x="1232" 
d="M772 -20q-63 0 -143.5 23t-143.5 58l-20 301h41q37 -146 124 -238.5t187 -92.5q84 0 148.5 60t64.5 157q0 80 -39.5 154.5t-114 140t-153.5 117t-186 108.5q29 18 92 61v2q77 54 123 102t76 120.5t30 163.5q0 141 -76 225t-198 84q-132 0 -214.5 -91t-82.5 -243v-1192
h-246l20 41l41 6q46 7 69.5 29t23.5 76v985q0 198 106 319t274 121q170 0 278 -97t108 -257q0 -58 -14 -108t-37 -88.5t-63.5 -77.5t-81 -69.5t-101.5 -70.5q81 -52 142.5 -95.5t125.5 -99t105 -107.5t67 -113.5t26 -123.5q0 -133 -102 -211.5t-256 -78.5z" />
    <glyph glyph-name="agrave" unicode="&#xe0;" horiz-adv-x="905" 
d="M678 -20q-15 0 -25 3.5t-16.5 14.5t-10.5 21.5t-5.5 35t-2 44t-0.5 59.5h-20q-94 -94 -161 -136t-152 -42q-98 0 -155.5 50t-57.5 136q0 72 58 134t161 106l317 135v235q0 84 -49 125t-125 41q-84 0 -158 -68v-94q0 -37 -25.5 -56t-55.5 -19q-42 0 -66.5 21t-24.5 42
q0 23 74.5 85.5t169 116.5t141.5 54q116 0 171.5 -62t52.5 -169q-14 -404 -8 -717l169 -10v-31q-133 -55 -196 -55zM174 213q0 -66 42.5 -106.5t105.5 -40.5q64 0 128.5 25t111 75.5t46.5 112.5v219l-262 -115q-85 -38 -128.5 -78.5t-43.5 -91.5zM240 1518q0 17 11 27.5
t28 10.5q19 0 333 -399l-12 -10l-289 270q-3 3 -12 11.5t-12 11.5l-10 10t-9.5 10t-8 9t-7 9.5t-5 9t-4.5 10t-2 10t-1 10.5z" />
    <glyph glyph-name="aacute" unicode="&#xe1;" horiz-adv-x="905" 
d="M678 -20q-15 0 -25 3.5t-16.5 14.5t-10.5 21.5t-5.5 35t-2 44t-0.5 59.5h-20q-94 -94 -161 -136t-152 -42q-98 0 -155.5 50t-57.5 136q0 72 58 134t161 106l317 135v235q0 84 -49 125t-125 41q-84 0 -158 -68v-94q0 -37 -25.5 -56t-55.5 -19q-42 0 -66.5 21t-24.5 42
q0 23 74.5 85.5t169 116.5t141.5 54q116 0 171.5 -62t52.5 -169q-14 -404 -8 -717l169 -10v-31q-133 -55 -196 -55zM174 213q0 -66 42.5 -106.5t105.5 -40.5q64 0 128.5 25t111 75.5t46.5 112.5v219l-262 -115q-85 -38 -128.5 -78.5t-43.5 -91.5zM313 1157q313 399 334 399
q17 0 28 -10.5t11 -27.5q0 -7 -1.5 -13.5t-3.5 -11.5t-7 -12.5t-7.5 -11.5t-11 -12.5t-12 -11.5t-14.5 -13.5t-15 -14.5l-288 -270z" />
    <glyph glyph-name="acircumflex" unicode="&#xe2;" horiz-adv-x="905" 
d="M678 -20q-15 0 -25 3.5t-16.5 14.5t-10.5 21.5t-5.5 35t-2 44t-0.5 59.5h-20q-94 -94 -161 -136t-152 -42q-98 0 -155.5 50t-57.5 136q0 72 58 134t161 106l317 135v235q0 84 -49 125t-125 41q-84 0 -158 -68v-94q0 -37 -25.5 -56t-55.5 -19q-42 0 -66.5 21t-24.5 42
q0 23 74.5 85.5t169 116.5t141.5 54q116 0 171.5 -62t52.5 -169q-14 -404 -8 -717l169 -10v-31q-133 -55 -196 -55zM174 213q0 -66 42.5 -106.5t105.5 -40.5q64 0 128.5 25t111 75.5t46.5 112.5v219l-262 -115q-85 -38 -128.5 -78.5t-43.5 -91.5zM184 1157q248 399 279 399
q30 0 278 -399l-12 -10l-266 307l-266 -307z" />
    <glyph glyph-name="atilde" unicode="&#xe3;" horiz-adv-x="905" 
d="M678 -20q-15 0 -25 3.5t-16.5 14.5t-10.5 21.5t-5.5 35t-2 44t-0.5 59.5h-20q-94 -94 -161 -136t-152 -42q-98 0 -155.5 50t-57.5 136q0 72 58 134t161 106l317 135v235q0 84 -49 125t-125 41q-84 0 -158 -68v-94q0 -37 -25.5 -56t-55.5 -19q-42 0 -66.5 21t-24.5 42
q0 23 74.5 85.5t169 116.5t141.5 54q116 0 171.5 -62t52.5 -169q-14 -404 -8 -717l169 -10v-31q-133 -55 -196 -55zM174 213q0 -66 42.5 -106.5t105.5 -40.5q64 0 128.5 25t111 75.5t46.5 112.5v219l-262 -115q-85 -38 -128.5 -78.5t-43.5 -91.5zM180 1200q39 97 91 149
t106 52q30 0 65 -18t61 -39.5t56.5 -39.5t52.5 -18q36 0 69 34.5t69 111.5l12 -11q-33 -92 -83.5 -151.5t-98.5 -59.5q-40 0 -126 57.5t-118 57.5q-39 0 -73 -31t-70 -104z" />
    <glyph glyph-name="adieresis" unicode="&#xe4;" horiz-adv-x="905" 
d="M678 -20q-15 0 -25 3.5t-16.5 14.5t-10.5 21.5t-5.5 35t-2 44t-0.5 59.5h-20q-94 -94 -161 -136t-152 -42q-98 0 -155.5 50t-57.5 136q0 72 58 134t161 106l317 135v235q0 84 -49 125t-125 41q-84 0 -158 -68v-94q0 -37 -25.5 -56t-55.5 -19q-42 0 -66.5 21t-24.5 42
q0 23 74.5 85.5t169 116.5t141.5 54q116 0 171.5 -62t52.5 -169q-14 -404 -8 -717l169 -10v-31q-133 -55 -196 -55zM174 213q0 -66 42.5 -106.5t105.5 -40.5q64 0 128.5 25t111 75.5t46.5 112.5v219l-262 -115q-85 -38 -128.5 -78.5t-43.5 -91.5zM254 1346q0 32 23 54.5
t57 22.5q32 0 54 -22.5t22 -54.5t-22 -55t-54 -23q-34 0 -57 23t-23 55zM516 1346q0 32 23 54.5t57 22.5q32 0 54 -22.5t22 -54.5q0 -34 -22 -56t-54 -22q-34 0 -57 23t-23 55z" />
    <glyph glyph-name="aring" unicode="&#xe5;" horiz-adv-x="905" 
d="M678 -20q-15 0 -25 3.5t-16.5 14.5t-10.5 21.5t-5.5 35t-2 44t-0.5 59.5h-20q-94 -94 -161 -136t-152 -42q-98 0 -155.5 50t-57.5 136q0 72 58 134t161 106l317 135v235q0 84 -49 125t-125 41q-84 0 -158 -68v-94q0 -37 -25.5 -56t-55.5 -19q-42 0 -66.5 21t-24.5 42
q0 23 74.5 85.5t169 116.5t141.5 54q116 0 171.5 -62t52.5 -169q-14 -404 -8 -717l169 -10v-31q-133 -55 -196 -55zM174 213q0 -66 42.5 -106.5t105.5 -40.5q64 0 128.5 25t111 75.5t46.5 112.5v219l-262 -115q-85 -38 -128.5 -78.5t-43.5 -91.5zM307 1309q0 66 45 105.5
t111 39.5t109.5 -39.5t43.5 -105.5t-43.5 -106t-109.5 -40t-111 40t-45 106zM389 1309q0 -54 21 -84.5t53 -30.5q31 0 51.5 31t20.5 84t-20.5 83.5t-51.5 30.5q-32 0 -53 -30t-21 -84z" />
    <glyph glyph-name="ae" unicode="&#xe6;" horiz-adv-x="1429" 
d="M1032 -20q-190 0 -314 134.5t-124 360.5v21l-258 -113q-85 -38 -128.5 -78.5t-43.5 -91.5q0 -66 42 -106.5t105 -40.5q56 0 116 21t103 58l17 -26q-74 -71 -136 -105t-137 -34q-98 0 -155.5 50t-57.5 136q0 72 58.5 134t161.5 106l315 133q4 42 8 59v178q0 84 -49 125
t-125 41q-84 0 -158 -68v-94q0 -37 -26 -56t-56 -19q-41 0 -65.5 21t-24.5 42q0 23 74.5 85.5t169 116.5t141.5 54q100 0 154 -46.5t63 -131.5q58 84 141.5 131t182.5 47q145 0 233.5 -83t88.5 -206q0 -70 -23 -102h-481v33l321 18q74 3 74 82q0 96 -58.5 153.5t-160.5 57.5
q-126 0 -216.5 -108t-105.5 -285v-23q-2 -14 -2 -41q0 -204 92 -327t269 -123q178 0 311 108l10 -10q-121 -188 -346 -188z" />
    <glyph glyph-name="ccedilla" unicode="&#xe7;" horiz-adv-x="907" 
d="M369 -479q100 34 142 89t42 101q0 42 -31 76.5t-98 73.5l31 121q-163 18 -273 146.5t-110 336.5q0 146 57 272.5t166.5 206.5t249.5 80q97 0 182.5 -26.5t85.5 -49.5t-30.5 -59.5t-51.5 -36.5q-7 0 -16.5 2.5t-22.5 8t-23 10t-27.5 14.5t-25.5 14.5t-28 16t-25 14.5
l-61 35h-23q-124 0 -214.5 -130.5t-90.5 -318.5q0 -106 30.5 -192.5t81.5 -141t115.5 -83.5t135.5 -29q84 0 147 24t141 82l11 -10q-49 -85 -135 -136t-197 -52l-8 -37q4 -3 24.5 -17t26 -18.5l22 -18t22.5 -21t17 -22.5t15 -27.5t8 -30t4 -36.5q0 -152 -256 -244z" />
    <glyph glyph-name="egrave" unicode="&#xe8;" horiz-adv-x="917" 
d="M510 -20q-190 0 -314 134.5t-124 360.5q0 148 53.5 273t153 200.5t225.5 75.5q144 0 232.5 -83t88.5 -206q0 -71 -22 -102h-621q-8 -47 -8 -113q0 -204 92 -327t269 -123q178 0 311 108l10 -10q-121 -188 -346 -188zM188 668l455 16q74 3 74 82q0 96 -58.5 153.5
t-160.5 57.5q-110 0 -194.5 -84t-115.5 -225zM285 1518q0 17 11 27.5t28 10.5q19 0 333 -399l-12 -10l-289 270q-3 3 -12 11.5t-12 11.5l-10 10t-9.5 10t-8 9t-7 9.5t-5 9t-4.5 10t-2 10t-1 10.5z" />
    <glyph glyph-name="eacute" unicode="&#xe9;" horiz-adv-x="917" 
d="M510 -20q-190 0 -314 134.5t-124 360.5q0 148 53.5 273t153 200.5t225.5 75.5q144 0 232.5 -83t88.5 -206q0 -71 -22 -102h-621q-8 -47 -8 -113q0 -204 92 -327t269 -123q178 0 311 108l10 -10q-121 -188 -346 -188zM188 668l455 16q74 3 74 82q0 96 -58.5 153.5
t-160.5 57.5q-110 0 -194.5 -84t-115.5 -225zM358 1157q314 399 334 399q17 0 28 -10.5t11 -27.5q0 -7 -1.5 -13.5t-3.5 -11.5t-7 -12.5t-7.5 -11.5t-11 -12.5t-12 -11.5t-14.5 -13.5t-15 -14.5l-288 -270z" />
    <glyph glyph-name="ecircumflex" unicode="&#xea;" horiz-adv-x="917" 
d="M510 -20q-190 0 -314 134.5t-124 360.5q0 148 53.5 273t153 200.5t225.5 75.5q144 0 232.5 -83t88.5 -206q0 -71 -22 -102h-621q-8 -47 -8 -113q0 -204 92 -327t269 -123q178 0 311 108l10 -10q-121 -188 -346 -188zM188 668l455 16q74 3 74 82q0 96 -58.5 153.5
t-160.5 57.5q-110 0 -194.5 -84t-115.5 -225zM229 1157q248 399 279 399q30 0 278 -399l-12 -10l-266 307l-266 -307z" />
    <glyph glyph-name="edieresis" unicode="&#xeb;" horiz-adv-x="917" 
d="M510 -20q-190 0 -314 134.5t-124 360.5q0 148 53.5 273t153 200.5t225.5 75.5q144 0 232.5 -83t88.5 -206q0 -71 -22 -102h-621q-8 -47 -8 -113q0 -204 92 -327t269 -123q178 0 311 108l10 -10q-121 -188 -346 -188zM188 668l455 16q74 3 74 82q0 96 -58.5 153.5
t-160.5 57.5q-110 0 -194.5 -84t-115.5 -225zM299 1346q0 32 23 54.5t57 22.5q32 0 54 -22.5t22 -54.5t-22 -55t-54 -23q-34 0 -57 23t-23 55zM561 1346q0 32 23 54.5t57 22.5q32 0 54 -22.5t22 -54.5q0 -34 -22 -56t-54 -22q-34 0 -57 23t-23 55z" />
    <glyph glyph-name="igrave" unicode="&#xec;" 
d="M41 0l20 41l62 10q52 8 72 32t20 89v756l-174 30v31q180 35 266 35h21q-21 -133 -21 -268v-715l195 10l-21 -51h-440zM31 1518q0 17 11 27.5t28 10.5q19 0 333 -399l-12 -10l-289 270q-3 3 -12 11.5t-12 11.5l-10 10t-9.5 10t-8 9t-7 9.5t-5 9t-4.5 10t-2 10t-1 10.5z
" />
    <glyph glyph-name="iacute" unicode="&#xed;" 
d="M41 0l20 41l62 10q52 8 72 32t20 89v756l-174 30v31q180 35 266 35h21q-21 -133 -21 -268v-715l195 10l-21 -51h-440zM104 1157q314 399 334 399q17 0 28 -10.5t11 -27.5q0 -5 -1 -10.5t-2 -10t-4.5 -10t-5 -9t-7 -9.5t-8 -9t-9.5 -10l-10 -10t-12 -11.5t-12 -11.5
l-289 -270z" />
    <glyph glyph-name="icircumflex" unicode="&#xee;" 
d="M41 0l20 41l62 10q52 8 72 32t20 89v756l-174 30v31q180 35 266 35h21q-21 -133 -21 -268v-715l195 10l-21 -51h-440zM-25 1157q248 399 279 399q30 0 278 -399l-12 -10l-266 307l-266 -307z" />
    <glyph glyph-name="idieresis" unicode="&#xef;" 
d="M41 0l20 41l62 10q52 8 72 32t20 89v756l-174 30v31q180 35 266 35h21q-21 -133 -21 -268v-715l195 10l-21 -51h-440zM45 1346q0 32 23 54.5t57 22.5q32 0 54 -22.5t22 -54.5t-22 -55t-54 -23q-34 0 -57 23t-23 55zM307 1346q0 32 23 54.5t57 22.5q32 0 54 -22.5
t22 -54.5q0 -34 -22 -56t-54 -22q-34 0 -57 23t-23 55z" />
    <glyph glyph-name="eth" unicode="&#xf0;" horiz-adv-x="1060" 
d="M530 -20q-101 0 -187.5 39t-145.5 107t-92 161t-33 198q0 150 62 272.5t177 194.5t260 72q141 0 246 -63q-88 235 -282 385l-191 -191l-25 19l191 190q-143 105 -350 166l20 26q214 -56 367 -155l158 158l24 -19l-156 -156q416 -279 416 -804q0 -147 -35.5 -263t-98 -189
t-145.5 -110.5t-180 -37.5zM174 526q0 -202 119 -343.5t289 -141.5q142 0 224.5 124t82.5 374q0 157 -31 290q-36 29 -57.5 44t-66.5 40.5t-98.5 37.5t-115.5 12q-162 0 -254 -123.5t-92 -313.5z" />
    <glyph glyph-name="ntilde" unicode="&#xf1;" horiz-adv-x="1126" 
d="M666 0l20 41l51 8q30 5 44 8.5t30.5 14t22.5 30t6 50.5v577q0 100 -56.5 156.5t-160.5 56.5q-91 0 -165.5 -26.5t-150.5 -69.5v-805l215 10l-20 -51h-461l20 41l62 10q53 8 72.5 26t19.5 75v755l-174 31v31q27 7 80.5 22t88 24t46.5 9h20l21 -137h20q54 39 91.5 62.5
t108 49t138.5 25.5q137 0 207 -71t70 -205v-707l205 10l-21 -51h-450zM322 1200q39 98 90.5 149.5t105.5 51.5q38 0 82.5 -28.5t85 -57.5t68.5 -29q36 0 68.5 34.5t68.5 111.5l12 -11q-33 -92 -83.5 -151.5t-98.5 -59.5q-33 0 -80 29t-92 57.5t-72 28.5q-39 0 -73 -31
t-70 -104z" />
    <glyph glyph-name="ograve" unicode="&#xf2;" horiz-adv-x="1060" 
d="M530 -20q-101 0 -187.5 39t-145.5 107t-92 161t-33 198q0 148 60.5 272t166 195.5t231.5 71.5q135 0 240.5 -68.5t162 -183.5t56.5 -254q0 -148 -61 -272t-166.5 -195t-231.5 -71zM174 526q0 -202 119 -343.5t289 -141.5q89 0 159 58t108 157t38 221q0 203 -119 344.5
t-289 141.5q-134 0 -219.5 -125.5t-85.5 -311.5zM311 1518q0 17 11 27.5t28 10.5q20 0 334 -399l-12 -10l-289 270q-4 4 -15 14.5t-14.5 13.5t-12 11.5t-11 12.5t-7.5 11.5t-7 12.5t-3.5 11.5t-1.5 13.5z" />
    <glyph glyph-name="oacute" unicode="&#xf3;" horiz-adv-x="1060" 
d="M530 -20q-101 0 -187.5 39t-145.5 107t-92 161t-33 198q0 148 60.5 272t166 195.5t231.5 71.5q135 0 240.5 -68.5t162 -183.5t56.5 -254q0 -148 -61 -272t-166.5 -195t-231.5 -71zM174 526q0 -202 119 -343.5t289 -141.5q89 0 159 58t108 157t38 221q0 203 -119 344.5
t-289 141.5q-134 0 -219.5 -125.5t-85.5 -311.5zM385 1157q313 399 334 399q17 0 28 -10.5t11 -27.5q0 -7 -1.5 -13.5t-3.5 -11.5t-7 -12.5t-7.5 -11.5t-11 -12.5t-12 -11.5t-14.5 -13.5t-15 -14.5l-289 -270z" />
    <glyph glyph-name="ocircumflex" unicode="&#xf4;" horiz-adv-x="1060" 
d="M530 -20q-101 0 -187.5 39t-145.5 107t-92 161t-33 198q0 148 60.5 272t166 195.5t231.5 71.5q135 0 240.5 -68.5t162 -183.5t56.5 -254q0 -148 -61 -272t-166.5 -195t-231.5 -71zM174 526q0 -202 119 -343.5t289 -141.5q89 0 159 58t108 157t38 221q0 203 -119 344.5
t-289 141.5q-134 0 -219.5 -125.5t-85.5 -311.5zM256 1157q248 399 279 399q30 0 278 -399l-12 -10l-266 307l-267 -307z" />
    <glyph glyph-name="otilde" unicode="&#xf5;" horiz-adv-x="1060" 
d="M530 -20q-101 0 -187.5 39t-145.5 107t-92 161t-33 198q0 148 60.5 272t166 195.5t231.5 71.5q135 0 240.5 -68.5t162 -183.5t56.5 -254q0 -148 -61 -272t-166.5 -195t-231.5 -71zM174 526q0 -202 119 -343.5t289 -141.5q89 0 159 58t108 157t38 221q0 203 -119 344.5
t-289 141.5q-134 0 -219.5 -125.5t-85.5 -311.5zM252 1200q39 97 91 149t106 52q30 0 65 -18t61 -39.5t56.5 -39.5t52.5 -18q36 0 68.5 34.5t68.5 111.5l13 -11q-33 -91 -84 -151t-99 -60q-41 0 -126 57.5t-117 57.5q-40 0 -74 -31t-70 -104z" />
    <glyph glyph-name="odieresis" unicode="&#xf6;" horiz-adv-x="1060" 
d="M530 -20q-101 0 -187.5 39t-145.5 107t-92 161t-33 198q0 148 60.5 272t166 195.5t231.5 71.5q135 0 240.5 -68.5t162 -183.5t56.5 -254q0 -148 -61 -272t-166.5 -195t-231.5 -71zM174 526q0 -202 119 -343.5t289 -141.5q89 0 159 58t108 157t38 221q0 203 -119 344.5
t-289 141.5q-134 0 -219.5 -125.5t-85.5 -311.5zM326 1346q0 32 23 54.5t57 22.5q32 0 53.5 -22.5t21.5 -54.5q0 -33 -21.5 -55.5t-53.5 -22.5q-34 0 -57 23t-23 55zM588 1346q0 32 23 54.5t57 22.5q32 0 53.5 -22.5t21.5 -54.5q0 -34 -21.5 -56t-53.5 -22q-34 0 -57 23
t-23 55z" />
    <glyph glyph-name="divide" unicode="&#xf7;" horiz-adv-x="962" 
d="M143 471v61h676v-61h-676zM422 266q0 25 17 42.5t42 17.5t42.5 -17.5t17.5 -42.5q0 -24 -17.5 -41.5t-42.5 -17.5t-42 17t-17 42zM422 737q0 25 17 42.5t42 17.5t42.5 -17.5t17.5 -42.5q0 -23 -17.5 -41t-42.5 -18t-42 17t-17 42z" />
    <glyph glyph-name="oslash" unicode="&#xf8;" horiz-adv-x="1060" 
d="M57 0l129 139q-114 139 -114 346q0 148 60.5 272t166 195.5t231.5 71.5q208 0 338 -156l127 136h58l-158 -168q94 -137 94 -318q0 -148 -61 -272t-166.5 -195t-231.5 -71q-189 0 -315 129l-100 -109h-58zM174 526q0 -176 90 -305l529 567q-57 81 -139 128t-175 47
q-134 0 -219.5 -125.5t-85.5 -311.5zM289 188q118 -147 293 -147q89 0 159 58t108 157t38 221q0 148 -70 275z" />
    <glyph glyph-name="ugrave" unicode="&#xf9;" horiz-adv-x="1146" 
d="M449 -20q-107 0 -165.5 67.5t-58.5 188.5v696l-174 31v30q189 31 246 31h20v-748q0 -118 42.5 -166.5t134.5 -48.5q168 0 335 99v772l-174 31v30q118 31 246 31h21v-928l174 -30v-31q-54 -23 -120.5 -39t-94.5 -16h-21l-20 137h-21q-102 -70 -190 -103.5t-180 -33.5z
M328 1518q0 17 11 27.5t28 10.5q19 0 333 -399l-12 -10l-289 270q-3 3 -12 11.5t-12 11.5l-10 10t-9.5 10t-8 9t-7 9.5t-5 9t-4.5 10t-2 10t-1 10.5z" />
    <glyph glyph-name="uacute" unicode="&#xfa;" horiz-adv-x="1146" 
d="M449 -20q-107 0 -165.5 67.5t-58.5 188.5v696l-174 31v30q189 31 246 31h20v-748q0 -118 42.5 -166.5t134.5 -48.5q168 0 335 99v772l-174 31v30q118 31 246 31h21v-928l174 -30v-31q-54 -23 -120.5 -39t-94.5 -16h-21l-20 137h-21q-102 -70 -190 -103.5t-180 -33.5z
M401 1157q313 399 334 399q17 0 28 -10.5t11 -27.5q0 -7 -1.5 -13.5t-3.5 -11.5t-7 -12.5t-7.5 -11.5t-11 -12.5t-12 -11.5t-14.5 -13.5t-15 -14.5l-288 -270z" />
    <glyph glyph-name="ucircumflex" unicode="&#xfb;" horiz-adv-x="1146" 
d="M449 -20q-107 0 -165.5 67.5t-58.5 188.5v696l-174 31v30q189 31 246 31h20v-748q0 -118 42.5 -166.5t134.5 -48.5q168 0 335 99v772l-174 31v30q118 31 246 31h21v-928l174 -30v-31q-54 -23 -120.5 -39t-94.5 -16h-21l-20 137h-21q-102 -70 -190 -103.5t-180 -33.5z
M272 1157q248 399 279 399q30 0 278 -399l-12 -10l-266 307l-266 -307z" />
    <glyph glyph-name="udieresis" unicode="&#xfc;" horiz-adv-x="1146" 
d="M449 -20q-107 0 -165.5 67.5t-58.5 188.5v696l-174 31v30q189 31 246 31h20v-748q0 -118 42.5 -166.5t134.5 -48.5q168 0 335 99v772l-174 31v30q118 31 246 31h21v-928l174 -30v-31q-54 -23 -120.5 -39t-94.5 -16h-21l-20 137h-21q-102 -70 -190 -103.5t-180 -33.5z
M342 1346q0 32 23 54.5t57 22.5q32 0 54 -22.5t22 -54.5t-22 -55t-54 -23q-34 0 -57 23t-23 55zM604 1346q0 32 23 54.5t57 22.5q32 0 54 -22.5t22 -54.5q0 -34 -22 -56t-54 -22q-34 0 -57 23t-23 55z" />
    <glyph glyph-name="yacute" unicode="&#xfd;" horiz-adv-x="1136" 
d="M215 -492q-49 0 -88 66q-30 49 -22 71q2 7 8 7h151q45 0 76.5 11.5t58 42t45.5 66.5t48 103l47 111l-387 977l-142 -11l21 52h465l-21 -41h-125q-54 0 -64.5 -20t15.5 -89l291 -743l360 852l-215 -11l21 52h368l-20 -41h-55q-31 0 -49 -24.5t-52 -104.5l-409 -963
q-79 -187 -153 -275t-173 -88zM451 1157q313 399 333 399q17 0 28 -10.5t11 -27.5q0 -5 -1 -10.5t-2 -10t-4.5 -10t-5 -9t-7 -9.5t-8 -9t-9.5 -10l-10 -10t-12 -11.5t-12 -11.5l-289 -270z" />
    <glyph glyph-name="thorn" unicode="&#xfe;" horiz-adv-x="1085" 
d="M31 -471l20 41l62 10q48 8 70 50t22 134v1696l-174 29v33q157 34 266 34h20q-20 -270 -20 -440v-221h10q63 57 150.5 93t163.5 36q174 0 288.5 -136t114.5 -358q0 -253 -129.5 -401.5t-343.5 -148.5q-150 0 -254 71v-481l256 10l-21 -51h-501zM297 297q0 -123 76 -194.5
t207 -71.5q159 0 250.5 127.5t91.5 349.5q0 193 -101 313.5t-241 120.5q-69 0 -144.5 -25t-136.5 -69l-2 -8v-543z" />
    <glyph glyph-name="ydieresis" unicode="&#xff;" horiz-adv-x="1136" 
d="M215 -492q-49 0 -88 66q-30 49 -22 71q2 7 8 7h151q45 0 76.5 11.5t58 42t45.5 66.5t48 103l47 111l-387 977l-142 -11l21 52h465l-21 -41h-125q-54 0 -64.5 -20t15.5 -89l291 -743l360 852l-215 -11l21 52h368l-20 -41h-55q-31 0 -49 -24.5t-52 -104.5l-409 -963
q-79 -187 -153 -275t-173 -88zM391 1346q0 32 23 54.5t57 22.5q32 0 54 -22.5t22 -54.5t-22 -55t-54 -23q-34 0 -57 23t-23 55zM653 1346q0 32 23 54.5t57 22.5q32 0 54 -22.5t22 -54.5q0 -34 -22 -56t-54 -22q-34 0 -57 23t-23 55z" />
    <glyph glyph-name="Amacron" unicode="&#x100;" horiz-adv-x="1501" 
d="M1004 0l20 41l109 10q62 6 72 32t-21 93l-121 260h-684l-156 -395l211 10l-20 -51h-404l21 41l73 10q45 6 73.5 34t55.5 97l433 1094q-86 114 -242 158l10 20h271l659 -1413l127 10l-21 -51h-466zM356 1714q0 25 14.5 38t37.5 13h434q0 -25 -14 -38t-37 -13h-435z
M395 477h649l-346 742l-6 14z" />
    <glyph glyph-name="amacron" unicode="&#x101;" horiz-adv-x="905" 
d="M678 -20q-15 0 -25 3.5t-16.5 14.5t-10.5 21.5t-5.5 35t-2 44t-0.5 59.5h-20q-94 -94 -161 -136t-152 -42q-98 0 -155.5 50t-57.5 136q0 72 58 134t161 106l317 135v235q0 84 -49 125t-125 41q-84 0 -158 -68v-94q0 -37 -25.5 -56t-55.5 -19q-42 0 -66.5 21t-24.5 42
q0 23 74.5 85.5t169 116.5t141.5 54q116 0 171.5 -62t52.5 -169q-14 -404 -8 -717l169 -10v-31q-133 -55 -196 -55zM174 213q0 -66 42.5 -106.5t105.5 -40.5q64 0 128.5 25t111 75.5t46.5 112.5v219l-262 -115q-85 -38 -128.5 -78.5t-43.5 -91.5zM217 1262q0 25 14 38t37 13
h434q0 -25 -14 -38t-37 -13h-434z" />
    <glyph glyph-name="Abreve" unicode="&#x102;" horiz-adv-x="1501" 
d="M1004 0l20 41l109 10q62 6 72 32t-21 93l-121 260h-684l-156 -395l211 10l-20 -51h-404l21 41l73 10q45 6 73.5 34t55.5 97l433 1094q-86 114 -242 158l10 20h271l659 -1413l127 10l-21 -51h-466zM358 1966l13 10q7 -46 23.5 -88.5t43 -81t69 -61.5t95.5 -23
q146 0 232 254l12 -10q-7 -62 -23.5 -116t-44.5 -103t-73.5 -78t-102.5 -29q-75 0 -132.5 50.5t-84.5 123.5t-27 152zM395 477h649l-346 742l-6 14z" />
    <glyph glyph-name="abreve" unicode="&#x103;" horiz-adv-x="905" 
d="M678 -20q-15 0 -25 3.5t-16.5 14.5t-10.5 21.5t-5.5 35t-2 44t-0.5 59.5h-20q-94 -94 -161 -136t-152 -42q-98 0 -155.5 50t-57.5 136q0 72 58 134t161 106l317 135v235q0 84 -49 125t-125 41q-84 0 -158 -68v-94q0 -37 -25.5 -56t-55.5 -19q-42 0 -66.5 21t-24.5 42
q0 23 74.5 85.5t169 116.5t141.5 54q116 0 171.5 -62t52.5 -169q-14 -404 -8 -717l169 -10v-31q-133 -55 -196 -55zM174 213q0 -66 42.5 -106.5t105.5 -40.5q64 0 128.5 25t111 75.5t46.5 112.5v219l-262 -115q-85 -38 -128.5 -78.5t-43.5 -91.5zM219 1513l12 11
q7 -46 23.5 -88.5t43.5 -81t69.5 -61.5t95.5 -23q45 0 83.5 22.5t66 62.5t46 79.5t35.5 89.5l13 -11q-7 -62 -23.5 -116t-44.5 -103t-73.5 -77.5t-102.5 -28.5q-75 0 -132.5 50.5t-84.5 123t-27 151.5z" />
    <glyph glyph-name="Aogonek" unicode="&#x104;" horiz-adv-x="1501" 
d="M1004 0l20 41l109 10q62 6 72 32t-21 93l-121 260h-684l-156 -395l211 10l-20 -51h-404l21 41l73 10q45 6 73.5 34t55.5 97l433 1094q-86 114 -242 158l10 20h271l659 -1413l127 10l-21 -51h-210q-57 -43 -94.5 -105.5t-37.5 -113.5q0 -54 36.5 -87.5t101.5 -33.5
q89 0 166 72l10 -15q-51 -62 -109.5 -100.5t-113.5 -38.5q-67 0 -118.5 46t-51.5 116q0 58 42.5 131.5t120.5 128.5h-208zM395 477h649l-346 742l-6 14z" />
    <glyph glyph-name="aogonek" unicode="&#x105;" horiz-adv-x="905" 
d="M678 -20q-15 0 -25 3.5t-16.5 14.5t-10.5 21.5t-5.5 35t-2 44t-0.5 59.5h-20q-94 -94 -161 -136t-152 -42q-98 0 -155.5 50t-57.5 136q0 72 58 134t161 106l317 135v235q0 84 -49 125t-125 41q-84 0 -158 -68v-94q0 -37 -25.5 -56t-55.5 -19q-42 0 -66.5 21t-24.5 42
q0 23 74.5 85.5t169 116.5t141.5 54q116 0 171.5 -62t52.5 -169q-14 -404 -8 -717l169 -10v-31q-33 -14 -94 -35q-58 -41 -95.5 -104t-37.5 -115q0 -54 36.5 -87.5t100.5 -33.5q89 0 166 72l11 -15q-51 -62 -110 -100.5t-114 -38.5q-67 0 -118.5 46t-51.5 116q0 52 37 120
t103 122q-5 0 -15 -1t-14 -1zM174 213q0 -66 42.5 -106.5t105.5 -40.5q64 0 128.5 25t111 75.5t46.5 112.5v219l-262 -115q-85 -38 -128.5 -78.5t-43.5 -91.5z" />
    <glyph glyph-name="Cacute" unicode="&#x106;" horiz-adv-x="1437" 
d="M813 -20q-159 0 -298.5 57.5t-235.5 153.5t-151.5 223.5t-55.5 265.5q0 228 96 410t264 283.5t377 101.5q114 0 231 -30.5t199 -74.5l80 -366h-31q-48 125 -104.5 209t-122.5 129t-133 63t-152 18q-160 0 -293 -88.5t-210.5 -245.5t-77.5 -348q0 -144 44.5 -273t124 -226
t198 -154t259.5 -57q185 0 301.5 102.5t212.5 337.5h31l-119 -389q-73 -34 -116 -51t-130 -34t-188 -17zM659 1608q19 20 58.5 62t61.5 65l55 57.5t52.5 54t40.5 40t33 29.5t17 9q13 0 23 -13.5t10 -33.5q0 -8 -3 -15t-6 -12t-11.5 -12.5t-13 -11t-17.5 -13.5t-19 -14
l-274 -203z" />
    <glyph glyph-name="cacute" unicode="&#x107;" horiz-adv-x="907" 
d="M500 -20q-85 0 -162 33t-136.5 93t-94.5 153.5t-35 205.5q0 146 57 272.5t166.5 206.5t249.5 80q97 0 182.5 -26.5t85.5 -49.5t-30.5 -59.5t-51.5 -36.5q-7 0 -16.5 2.5t-22.5 8t-23 10t-27.5 14.5t-25.5 14.5t-28 16t-25 14.5l-61 35h-23q-124 0 -214.5 -130.5
t-90.5 -318.5q0 -106 30.5 -192.5t81.5 -141t115.5 -83.5t135.5 -29q84 0 147 24t141 82l11 -10q-49 -86 -136.5 -137t-199.5 -51zM401 1157q313 399 334 399q17 0 28 -10.5t11 -27.5q0 -7 -1.5 -13.5t-3.5 -11.5t-7 -12.5t-7.5 -11.5t-11 -12.5t-12 -11.5t-14.5 -13.5
t-15 -14.5l-288 -270z" />
    <glyph glyph-name="Ccircumflex" unicode="&#x108;" horiz-adv-x="1437" 
d="M813 -20q-159 0 -298.5 57.5t-235.5 153.5t-151.5 223.5t-55.5 265.5q0 228 96 410t264 283.5t377 101.5q114 0 231 -30.5t199 -74.5l80 -366h-31q-48 125 -104.5 209t-122.5 129t-133 63t-152 18q-160 0 -293 -88.5t-210.5 -245.5t-77.5 -348q0 -144 44.5 -273t124 -226
t198 -154t259.5 -57q185 0 301.5 102.5t212.5 337.5h31l-119 -389q-73 -34 -116 -51t-130 -34t-188 -17zM512 1608q82 102 180.5 209.5t118.5 107.5t120.5 -108.5t178.5 -208.5l-12 -11l-287 236l-287 -236z" />
    <glyph glyph-name="ccircumflex" unicode="&#x109;" horiz-adv-x="907" 
d="M500 -20q-85 0 -162 33t-136.5 93t-94.5 153.5t-35 205.5q0 146 57 272.5t166.5 206.5t249.5 80q97 0 182.5 -26.5t85.5 -49.5t-30.5 -59.5t-51.5 -36.5q-7 0 -16.5 2.5t-22.5 8t-23 10t-27.5 14.5t-25.5 14.5t-28 16t-25 14.5l-61 35h-23q-124 0 -214.5 -130.5
t-90.5 -318.5q0 -106 30.5 -192.5t81.5 -141t115.5 -83.5t135.5 -29q84 0 147 24t141 82l11 -10q-49 -86 -136.5 -137t-199.5 -51zM272 1157q248 399 279 399q30 0 278 -399l-12 -10l-266 307l-266 -307z" />
    <glyph glyph-name="Cdotaccent" unicode="&#x10a;" horiz-adv-x="1437" 
d="M813 -20q-159 0 -298.5 57.5t-235.5 153.5t-151.5 223.5t-55.5 265.5q0 228 96 410t264 283.5t377 101.5q114 0 231 -30.5t199 -74.5l80 -366h-31q-48 125 -104.5 209t-122.5 129t-133 63t-152 18q-160 0 -293 -88.5t-210.5 -245.5t-77.5 -348q0 -144 44.5 -273t124 -226
t198 -154t259.5 -57q185 0 301.5 102.5t212.5 337.5h31l-119 -389q-73 -34 -116 -51t-130 -34t-188 -17zM731 1819q0 33 24.5 57.5t57.5 24.5q32 0 55 -24.5t23 -57.5q0 -34 -23 -57t-55 -23q-34 0 -58 24t-24 56z" />
    <glyph glyph-name="cdotaccent" unicode="&#x10b;" horiz-adv-x="907" 
d="M500 -20q-85 0 -162 33t-136.5 93t-94.5 153.5t-35 205.5q0 146 57 272.5t166.5 206.5t249.5 80q97 0 182.5 -26.5t85.5 -49.5t-30.5 -59.5t-51.5 -36.5q-7 0 -16.5 2.5t-22.5 8t-23 10t-27.5 14.5t-25.5 14.5t-28 16t-25 14.5l-61 35h-23q-124 0 -214.5 -130.5
t-90.5 -318.5q0 -106 30.5 -192.5t81.5 -141t115.5 -83.5t135.5 -29q84 0 147 24t141 82l11 -10q-49 -86 -136.5 -137t-199.5 -51zM471 1368q0 33 24.5 57.5t57.5 24.5q32 0 55 -24.5t23 -57.5q0 -34 -23 -57t-55 -23q-34 0 -58 24t-24 56z" />
    <glyph glyph-name="Ccaron" unicode="&#x10c;" horiz-adv-x="1437" 
d="M813 -20q-159 0 -298.5 57.5t-235.5 153.5t-151.5 223.5t-55.5 265.5q0 228 96 410t264 283.5t377 101.5q114 0 231 -30.5t199 -74.5l80 -366h-31q-48 125 -104.5 209t-122.5 129t-133 63t-152 18q-160 0 -293 -88.5t-210.5 -245.5t-77.5 -348q0 -144 44.5 -273t124 -226
t198 -154t259.5 -57q185 0 301.5 102.5t212.5 337.5h31l-119 -389q-73 -34 -116 -51t-130 -34t-188 -17zM512 1915l12 10l287 -235l287 235l12 -10q-79 -100 -179 -209t-120 -109t-118 107.5t-181 210.5z" />
    <glyph glyph-name="ccaron" unicode="&#x10d;" horiz-adv-x="907" 
d="M500 -20q-85 0 -162 33t-136.5 93t-94.5 153.5t-35 205.5q0 146 57 272.5t166.5 206.5t249.5 80q97 0 182.5 -26.5t85.5 -49.5t-30.5 -59.5t-51.5 -36.5q-7 0 -16.5 2.5t-22.5 8t-23 10t-27.5 14.5t-25.5 14.5t-28 16t-25 14.5l-61 35h-23q-124 0 -214.5 -130.5
t-90.5 -318.5q0 -106 30.5 -192.5t81.5 -141t115.5 -83.5t135.5 -29q84 0 147 24t141 82l11 -10q-49 -86 -136.5 -137t-199.5 -51zM268 1546l13 10l266 -307l266 307l12 -10q-248 -399 -278 -399q-31 0 -279 399z" />
    <glyph glyph-name="Dcaron" unicode="&#x10e;" horiz-adv-x="1454" 
d="M84 0l20 41l89 10q83 9 83 111v1251l-194 -10l20 51h512q181 0 328.5 -53.5t242.5 -147t146 -217.5t51 -268q0 -224 -84.5 -398.5t-241 -272t-360.5 -97.5h-612zM379 41h287q190 0 325.5 88.5t202 241.5t66.5 356q0 200 -74.5 355t-217 243t-333.5 88h-256v-1372z
M410 1915l12 10l287 -235l286 235l13 -10q-79 -100 -179 -209t-120 -109t-118 107.5t-181 210.5z" />
    <glyph glyph-name="dcaron" unicode="&#x10f;" horiz-adv-x="1085" 
d="M475 -20q-174 0 -288.5 135.5t-114.5 357.5q0 253 129.5 402t343.5 149q148 0 254 -72v510l-174 33v31q53 11 135 20.5t119 9.5h32q-20 -313 -20 -557v-923l174 -10v-31q-172 -55 -236 -55h-20l-10 129h-21q-63 -60 -144.5 -94.5t-158.5 -34.5zM174 496q0 -193 101 -314
t241 -121q146 0 283 103v543q0 123 -76 194.5t-207 71.5q-159 0 -250.5 -127.5t-91.5 -349.5zM1036 1147v328q0 38 17 59.5t45 21.5q72 0 37 -122l-78 -287h-21z" />
    <glyph glyph-name="Dcroat" unicode="&#x110;" horiz-adv-x="1484" 
d="M82 707v30h225v676l-194 -10l20 51h512q181 0 328.5 -53.5t242.5 -147t146 -217.5t51 -268q0 -224 -84.5 -398.5t-241 -272t-360.5 -97.5h-612l20 41l88 10q84 9 84 111v545h-225zM410 41h286q190 0 325.5 88.5t202 241.5t66.5 356q0 201 -74 355.5t-216.5 242.5
t-333.5 88h-256v-676h256v-30h-256v-666z" />
    <glyph glyph-name="dcroat" unicode="&#x111;" horiz-adv-x="1116" 
d="M434 1217v30h365v215l-174 33v31q53 11 135 20.5t119 9.5h32q-12 -210 -16 -309h201v-30h-201q-4 -144 -4 -218v-923l174 -10v-31q-172 -55 -236 -55h-20l-10 129h-21q-63 -60 -144.5 -94.5t-158.5 -34.5q-174 0 -288.5 135.5t-114.5 357.5q0 253 129.5 402t343.5 149
q148 0 254 -72v265h-365zM174 496q0 -193 101 -314t241 -121q146 0 283 103v543q0 123 -76 194.5t-207 71.5q-159 0 -250.5 -127.5t-91.5 -349.5z" />
    <glyph glyph-name="Emacron" unicode="&#x112;" horiz-adv-x="1271" 
d="M84 0l20 41l89 10q41 4 62 33.5t21 75.5v1253l-194 -10l20 51h713q119 0 283 21l61 -398h-31q-29 136 -66.5 209.5t-84.5 100t-121 26.5h-477v-635h283q33 0 51 2t41 14t35.5 35.5t24 67.5t17.5 109h31v-496h-31q-6 65 -17.5 109t-24 67.5t-36 35t-40.5 13.5t-51 2h-283
v-696h518q34 0 57.5 4t51.5 16.5t50.5 38t47.5 66.5t48.5 104t47.5 148h31l-103 -438q-102 20 -182 20h-862zM426 1712q0 25 14 38t37 13h434q0 -25 -14 -38t-37 -13h-434z" />
    <glyph glyph-name="emacron" unicode="&#x113;" horiz-adv-x="917" 
d="M510 -20q-190 0 -314 134.5t-124 360.5q0 148 53.5 273t153 200.5t225.5 75.5q144 0 232.5 -83t88.5 -206q0 -71 -22 -102h-621q-8 -47 -8 -113q0 -204 92 -327t269 -123q178 0 311 108l10 -10q-121 -188 -346 -188zM188 668l455 16q74 3 74 82q0 96 -58.5 153.5
t-160.5 57.5q-110 0 -194.5 -84t-115.5 -225zM262 1262q0 25 14 38t37 13h435q0 -25 -14.5 -38t-37.5 -13h-434z" />
    <glyph glyph-name="Edotaccent" unicode="&#x116;" horiz-adv-x="1271" 
d="M84 0l20 41l89 10q41 4 62 33.5t21 75.5v1253l-194 -10l20 51h713q119 0 283 21l61 -398h-31q-29 136 -66.5 209.5t-84.5 100t-121 26.5h-477v-635h283q33 0 51 2t41 14t35.5 35.5t24 67.5t17.5 109h31v-496h-31q-6 65 -17.5 109t-24 67.5t-36 35t-40.5 13.5t-51 2h-283
v-696h518q34 0 57.5 4t51.5 16.5t50.5 38t47.5 66.5t48.5 104t47.5 148h31l-103 -438q-102 20 -182 20h-862zM592 1819q0 33 24.5 57.5t57.5 24.5q32 0 55 -24.5t23 -57.5q0 -34 -23 -57t-55 -23q-34 0 -58 24t-24 56z" />
    <glyph glyph-name="edotaccent" unicode="&#x117;" horiz-adv-x="917" 
d="M510 -20q-190 0 -314 134.5t-124 360.5q0 148 53.5 273t153 200.5t225.5 75.5q144 0 232.5 -83t88.5 -206q0 -71 -22 -102h-621q-8 -47 -8 -113q0 -204 92 -327t269 -123q178 0 311 108l10 -10q-121 -188 -346 -188zM188 668l455 16q74 3 74 82q0 96 -58.5 153.5
t-160.5 57.5q-110 0 -194.5 -84t-115.5 -225zM428 1368q0 33 24.5 57.5t57.5 24.5q32 0 55 -24.5t23 -57.5q0 -34 -23 -57t-55 -23q-34 0 -58 24t-24 56z" />
    <glyph glyph-name="Eogonek" unicode="&#x118;" horiz-adv-x="1271" 
d="M84 0l20 41l89 10q41 4 62 33.5t21 75.5v1253l-194 -10l20 51h713q119 0 283 21l61 -398h-31q-29 136 -66.5 209.5t-84.5 100t-121 26.5h-477v-635h283q33 0 51 2t41 14t35.5 35.5t24 67.5t17.5 109h31v-496h-31q-6 65 -17.5 109t-24 67.5t-36 35t-40.5 13.5t-51 2h-283
v-696h518q34 0 57.5 4t51.5 16.5t50.5 38t47.5 66.5t48.5 104t47.5 148h31l-103 -438q-84 17 -147 20q-56 -42 -93.5 -105.5t-37.5 -113.5q0 -54 36.5 -87.5t100.5 -33.5q89 0 166 72l10 -15q-51 -62 -109.5 -100.5t-113.5 -38.5q-67 0 -118.5 46t-51.5 116q0 58 43 131.5
t121 128.5h-850z" />
    <glyph glyph-name="eogonek" unicode="&#x119;" horiz-adv-x="917" 
d="M510 -20q-190 0 -314 134.5t-124 360.5q0 148 53.5 273t153 200.5t225.5 75.5q144 0 232.5 -83t88.5 -206q0 -71 -22 -102h-621q-8 -47 -8 -113q0 -204 92 -327t269 -123q178 0 311 108l10 -10q-54 -82 -133 -131q-54 -43 -89.5 -104t-35.5 -111q0 -54 36.5 -87.5
t100.5 -33.5q89 0 166 72l10 -15q-51 -62 -109.5 -100.5t-113.5 -38.5q-67 0 -118.5 46t-51.5 116q0 46 28 104t81 109q-65 -14 -117 -14zM188 668l455 16q74 3 74 82q0 96 -58.5 153.5t-160.5 57.5q-110 0 -194.5 -84t-115.5 -225z" />
    <glyph glyph-name="Ecaron" unicode="&#x11a;" horiz-adv-x="1271" 
d="M84 0l20 41l89 10q41 4 62 33.5t21 75.5v1253l-194 -10l20 51h713q119 0 283 21l61 -398h-31q-29 136 -66.5 209.5t-84.5 100t-121 26.5h-477v-635h283q33 0 51 2t41 14t35.5 35.5t24 67.5t17.5 109h31v-496h-31q-6 65 -17.5 109t-24 67.5t-36 35t-40.5 13.5t-51 2h-283
v-696h518q34 0 57.5 4t51.5 16.5t50.5 38t47.5 66.5t48.5 104t47.5 148h31l-103 -438q-102 20 -182 20h-862zM373 1915l12 10l287 -235l286 235l13 -10q-79 -100 -179 -209t-120 -109t-118 107.5t-181 210.5z" />
    <glyph glyph-name="ecaron" unicode="&#x11b;" horiz-adv-x="917" 
d="M510 -20q-190 0 -314 134.5t-124 360.5q0 148 53.5 273t153 200.5t225.5 75.5q144 0 232.5 -83t88.5 -206q0 -71 -22 -102h-621q-8 -47 -8 -113q0 -204 92 -327t269 -123q178 0 311 108l10 -10q-121 -188 -346 -188zM188 668l455 16q74 3 74 82q0 96 -58.5 153.5
t-160.5 57.5q-110 0 -194.5 -84t-115.5 -225zM225 1546l13 10l266 -307l266 307l12 -10q-248 -399 -278 -399q-31 0 -279 399z" />
    <glyph glyph-name="Gcircumflex" unicode="&#x11c;" horiz-adv-x="1527" 
d="M811 -20q-161 0 -299.5 54.5t-234.5 149t-150.5 224.5t-54.5 278q0 125 31 241.5t93 216t149 173.5t206.5 116t257.5 42q114 0 231 -30.5t199 -74.5l80 -366h-31q-48 125 -104.5 209t-122.5 129t-133 63t-152 18q-119 0 -217.5 -41.5t-164.5 -110.5t-112 -160
t-66.5 -187.5t-20.5 -196.5q0 -194 80 -353.5t221.5 -251t314.5 -91.5q84 0 158.5 15t122 37t75 46.5t27.5 44.5v537l-346 -19l20 51h588l-22 -38q-82 0 -115 -28t-33 -106v-358q0 -36 17 -48.5t69 -12.5l8 -29q-186 -77 -306.5 -110t-262.5 -33zM535 1608
q82 102 180.5 209.5t118.5 107.5t120.5 -108.5t178.5 -208.5l-13 -11l-286 236l-287 -236z" />
    <glyph glyph-name="gcircumflex" unicode="&#x11d;" horiz-adv-x="1005" 
d="M496 -492q-128 0 -237 38t-174 106t-65 151q0 66 39.5 122t94 88.5t114.5 45.5q-32 32 -72 92t-40 78q0 22 62 57.5t140 53.5q-107 28 -175 115t-68 200q0 154 107.5 261.5t262.5 107.5q90 0 160 -43q147 109 216 146q77 40 128 40q38 0 23 -53q-13 -44 -39 -66l-10 -6
l-295 -73q65 -45 103 -117t38 -156q0 -154 -104.5 -261t-255.5 -107q-50 0 -113.5 -39.5t-63.5 -83.5q0 -76 172 -84l293 -15q109 -6 164 -71.5t55 -157.5q0 -109 -63.5 -194.5t-167.5 -130t-229 -44.5zM129 -180q0 -78 61 -139.5t146 -91t170 -29.5q168 0 266 75.5
t98 210.5q0 33 -11 62.5t-34.5 57t-68.5 45t-107 20.5l-325 16q-29 -1 -61 -15t-63 -40t-51 -71.5t-20 -100.5zM205 1157q248 399 278 399q31 0 279 -399l-12 -10l-267 307l-266 -307zM209 713q0 -146 83 -240t212 -94q93 0 152 73t59 187q0 146 -83 240t-212 94
q-93 0 -152 -73t-59 -187z" />
    <glyph glyph-name="Gbreve" unicode="&#x11e;" horiz-adv-x="1527" 
d="M811 -20q-161 0 -299.5 54.5t-234.5 149t-150.5 224.5t-54.5 278q0 125 31 241.5t93 216t149 173.5t206.5 116t257.5 42q114 0 231 -30.5t199 -74.5l80 -366h-31q-48 125 -104.5 209t-122.5 129t-133 63t-152 18q-119 0 -217.5 -41.5t-164.5 -110.5t-112 -160
t-66.5 -187.5t-20.5 -196.5q0 -194 80 -353.5t221.5 -251t314.5 -91.5q84 0 158.5 15t122 37t75 46.5t27.5 44.5v537l-346 -19l20 51h588l-22 -38q-82 0 -115 -28t-33 -106v-358q0 -36 17 -48.5t69 -12.5l8 -29q-186 -77 -306.5 -110t-262.5 -33zM590 1964l12 10
q7 -46 23.5 -88.5t43.5 -81t69.5 -61.5t95.5 -23q45 0 83.5 22.5t66 62.5t46 79.5t35.5 89.5l12 -10q-7 -62 -23.5 -116t-44 -103t-73 -78t-102.5 -29q-75 0 -132.5 50.5t-84.5 123.5t-27 152z" />
    <glyph glyph-name="gbreve" unicode="&#x11f;" horiz-adv-x="1005" 
d="M496 -492q-128 0 -237 38t-174 106t-65 151q0 66 39.5 122t94 88.5t114.5 45.5q-32 32 -72 92t-40 78q0 22 62 57.5t140 53.5q-107 28 -175 115t-68 200q0 154 107.5 261.5t262.5 107.5q90 0 160 -43q147 109 216 146q77 40 128 40q38 0 23 -53q-13 -44 -39 -66l-10 -6
l-295 -73q65 -45 103 -117t38 -156q0 -154 -104.5 -261t-255.5 -107q-50 0 -113.5 -39.5t-63.5 -83.5q0 -76 172 -84l293 -15q109 -6 164 -71.5t55 -157.5q0 -109 -63.5 -194.5t-167.5 -130t-229 -44.5zM129 -180q0 -78 61 -139.5t146 -91t170 -29.5q168 0 266 75.5
t98 210.5q0 33 -11 62.5t-34.5 57t-68.5 45t-107 20.5l-325 16q-29 -1 -61 -15t-63 -40t-51 -71.5t-20 -100.5zM209 713q0 -146 83 -240t212 -94q93 0 152 73t59 187q0 146 -83 240t-212 94q-93 0 -152 -73t-59 -187zM240 1513l12 11q7 -46 23.5 -88.5t43 -81t69 -61.5
t95.5 -23q146 0 232 254l12 -11q-7 -62 -23.5 -116t-44.5 -103t-73.5 -77.5t-102.5 -28.5q-75 0 -132 50.5t-84 123t-27 151.5z" />
    <glyph glyph-name="Gdotaccent" unicode="&#x120;" horiz-adv-x="1527" 
d="M811 -20q-161 0 -299.5 54.5t-234.5 149t-150.5 224.5t-54.5 278q0 125 31 241.5t93 216t149 173.5t206.5 116t257.5 42q114 0 231 -30.5t199 -74.5l80 -366h-31q-48 125 -104.5 209t-122.5 129t-133 63t-152 18q-119 0 -217.5 -41.5t-164.5 -110.5t-112 -160
t-66.5 -187.5t-20.5 -196.5q0 -194 80 -353.5t221.5 -251t314.5 -91.5q84 0 158.5 15t122 37t75 46.5t27.5 44.5v537l-346 -19l20 51h588l-22 -38q-82 0 -115 -28t-33 -106v-358q0 -36 17 -48.5t69 -12.5l8 -29q-186 -77 -306.5 -110t-262.5 -33zM754 1819q0 33 24.5 57.5
t57.5 24.5q32 0 54.5 -24.5t22.5 -57.5q0 -34 -22.5 -57t-54.5 -23q-34 0 -58 24t-24 56z" />
    <glyph glyph-name="gdotaccent" unicode="&#x121;" horiz-adv-x="1005" 
d="M496 -492q-128 0 -237 38t-174 106t-65 151q0 66 39.5 122t94 88.5t114.5 45.5q-32 32 -72 92t-40 78q0 22 62 57.5t140 53.5q-107 28 -175 115t-68 200q0 154 107.5 261.5t262.5 107.5q90 0 160 -43q147 109 216 146q77 40 128 40q38 0 23 -53q-13 -44 -39 -66l-10 -6
l-295 -73q65 -45 103 -117t38 -156q0 -154 -104.5 -261t-255.5 -107q-50 0 -113.5 -39.5t-63.5 -83.5q0 -76 172 -84l293 -15q109 -6 164 -71.5t55 -157.5q0 -109 -63.5 -194.5t-167.5 -130t-229 -44.5zM129 -180q0 -78 61 -139.5t146 -91t170 -29.5q168 0 266 75.5
t98 210.5q0 33 -11 62.5t-34.5 57t-68.5 45t-107 20.5l-325 16q-29 -1 -61 -15t-63 -40t-51 -71.5t-20 -100.5zM209 713q0 -146 83 -240t212 -94q93 0 152 73t59 187q0 146 -83 240t-212 94q-93 0 -152 -73t-59 -187zM403 1368q0 33 24.5 57.5t57.5 24.5q32 0 55 -24.5
t23 -57.5q0 -34 -23 -57t-55 -23q-34 0 -58 24t-24 56z" />
    <glyph glyph-name="uni0122" unicode="&#x122;" horiz-adv-x="1527" 
d="M811 -20q-161 0 -299.5 54.5t-234.5 149t-150.5 224.5t-54.5 278q0 125 31 241.5t93 216t149 173.5t206.5 116t257.5 42q114 0 231 -30.5t199 -74.5l80 -366h-31q-48 125 -104.5 209t-122.5 129t-133 63t-152 18q-119 0 -217.5 -41.5t-164.5 -110.5t-112 -160
t-66.5 -187.5t-20.5 -196.5q0 -194 80 -353.5t221.5 -251t314.5 -91.5q84 0 158.5 15t122 37t75 46.5t27.5 44.5v537l-346 -19l20 51h588l-22 -38q-82 0 -115 -28t-33 -106v-358q0 -36 17 -48.5t69 -12.5l8 -29q-186 -77 -306.5 -110t-262.5 -33zM700 -197q0 36 26.5 58
t55.5 22q38 0 69.5 -29t31.5 -90q0 -78 -37 -154t-94 -128l-21 6q66 97 66 182q0 28 -15 51t-33.5 35t-33.5 24.5t-15 22.5z" />
    <glyph glyph-name="uni0123" unicode="&#x123;" horiz-adv-x="1005" 
d="M496 -492q-128 0 -237 38t-174 106t-65 151q0 66 39.5 122t94 88.5t114.5 45.5q-32 32 -72 92t-40 78q0 22 62 57.5t140 53.5q-107 28 -175 115t-68 200q0 154 107.5 261.5t262.5 107.5q90 0 160 -43q147 109 216 146q77 40 128 40q38 0 23 -53q-13 -44 -39 -66l-10 -6
l-295 -73q65 -45 103 -117t38 -156q0 -154 -104.5 -261t-255.5 -107q-50 0 -113.5 -39.5t-63.5 -83.5q0 -76 172 -84l293 -15q109 -6 164 -71.5t55 -157.5q0 -109 -63.5 -194.5t-167.5 -130t-229 -44.5zM129 -180q0 -78 61 -139.5t146 -91t170 -29.5q168 0 266 75.5
t98 210.5q0 33 -11 62.5t-34.5 57t-68.5 45t-107 20.5l-325 16q-29 -1 -61 -15t-63 -40t-51 -71.5t-20 -100.5zM209 713q0 -146 83 -240t212 -94q93 0 152 73t59 187q0 146 -83 240t-212 94q-93 0 -152 -73t-59 -187zM393 1262q0 78 37 154t94 128l21 -6q-66 -97 -66 -182
q0 -28 15 -51t33 -35t33 -24.5t15 -22.5q0 -37 -26 -58.5t-55 -21.5q-38 0 -69.5 29t-31.5 90z" />
    <glyph glyph-name="Hcircumflex" unicode="&#x124;" horiz-adv-x="1691" 
d="M1118 0l21 41l86 10q42 4 64 32.5t22 74.5v549h-932v-666l194 10l-20 -51h-469l20 41l86 10q42 4 64 32.5t22 74.5v1255l-194 -10l20 51h473l-20 -41l-86 -10q-90 -12 -90 -133v-522h932v665l-195 -10l21 51h473l-21 -41l-86 -10q-90 -12 -90 -133v-1229l195 10l-21 -51
h-469zM575 1608q82 102 180.5 209.5t118.5 107.5t121 -109t179 -208l-13 -11l-287 236l-286 -236z" />
    <glyph glyph-name="hcircumflex" unicode="&#x125;" horiz-adv-x="1126" 
d="M31 0l20 41l62 10q54 8 73 32.5t19 111.5v1265l-174 29v33q157 34 266 34h20q-20 -270 -20 -440v-229h10q80 59 177 98t184 39q264 0 264 -289v-694l205 10l-21 -51h-450l20 41l62 10q54 8 73 32.5t19 111.5v499q0 248 -189 248q-177 0 -354 -96v-805l215 10l-20 -51
h-461zM-70 1669q248 399 279 399q30 0 278 -399l-12 -10l-266 307l-266 -307z" />
    <glyph glyph-name="Hbar" unicode="&#x126;" horiz-adv-x="1742" 
d="M92 1044v41h225v328l-194 -10l20 51h473l-20 -41l-86 -10q-90 -12 -90 -133v-185h932v328l-195 -10l21 51h473l-21 -41l-86 -10q-90 -12 -90 -133v-185h123v-41h-123v-1003l195 10l-21 -51h-469l21 41l86 10q42 4 64 32.5t22 74.5v549h-932v-666l194 10l-20 -51h-469
l20 41l86 10q42 4 64 32.5t22 74.5v886h-225zM420 748h932v296h-932v-296z" />
    <glyph glyph-name="hbar" unicode="&#x127;" horiz-adv-x="1136" 
d="M31 1217v30h184v213l-174 29v33q157 34 266 34h21q-17 -249 -19 -309h383v-30h-383q-2 -37 -2 -101v-229h10q80 59 177 98t184 39q264 0 264 -289v-694l205 10l-21 -51h-450l20 41l62 10q54 8 73 32.5t19 111.5v499q0 248 -188 248q-178 0 -355 -96v-805l215 10l-20 -51
h-461l20 41l62 10q54 8 73 32.5t19 111.5v1022h-184z" />
    <glyph glyph-name="Itilde" unicode="&#x128;" horiz-adv-x="657" 
d="M84 0l20 41l86 10q49 6 67.5 28.5t18.5 78.5v1255l-194 -10l20 51h473l-20 -41l-86 -10q-90 -12 -90 -133v-1229l194 10l-20 -51h-469zM37 1671q41 72 93 116t103 44q48 0 136.5 -47t119.5 -47q33 0 65.5 26t72.5 78l12 -10q-38 -68 -87.5 -119t-94.5 -51q-41 0 -137 47
t-127 47q-66 0 -144 -94z" />
    <glyph glyph-name="itilde" unicode="&#x129;" 
d="M41 0l20 41l62 10q52 8 72 32t20 89v756l-174 30v31q180 35 266 35h21q-21 -133 -21 -268v-715l195 10l-21 -51h-440zM-29 1200q39 97 91 149t106 52q30 0 65 -18t61 -39.5t56.5 -39.5t52.5 -18q36 0 69 34.5t69 111.5l12 -11q-33 -92 -83.5 -151.5t-98.5 -59.5
q-41 0 -126.5 57.5t-117.5 57.5q-39 0 -73 -31t-70 -104z" />
    <glyph glyph-name="Imacron" unicode="&#x12a;" horiz-adv-x="657" 
d="M84 0l20 41l86 10q49 6 67.5 28.5t18.5 78.5v1255l-194 -10l20 51h473l-20 -41l-86 -10q-90 -12 -90 -133v-1229l194 10l-20 -51h-469zM92 1712q0 25 14 38t37 13h435q0 -25 -14.5 -38t-37.5 -13h-434z" />
    <glyph glyph-name="imacron" unicode="&#x12b;" 
d="M41 0l20 41l62 10q52 8 72 32t20 89v756l-174 30v31q180 35 266 35h21q-21 -133 -21 -268v-715l195 10l-21 -51h-440zM8 1262q0 25 14 38t37 13h435q0 -25 -14.5 -38t-37.5 -13h-434z" />
    <glyph glyph-name="Iogonek" unicode="&#x12e;" horiz-adv-x="657" 
d="M84 0l20 41l86 10q49 6 67.5 28.5t18.5 78.5v1255l-194 -10l20 51h473l-20 -41l-86 -10q-90 -12 -90 -133v-1229l194 10l-20 -51h-231q-44 -43 -72.5 -96.5t-28.5 -96.5q0 -54 36 -87t101 -33q90 0 166 71l11 -14q-51 -62 -110 -100.5t-114 -38.5q-67 0 -118.5 46
t-51.5 116q0 50 33.5 114.5t95.5 118.5h-186z" />
    <glyph glyph-name="iogonek" unicode="&#x12f;" 
d="M41 0l20 41l62 10q52 8 72 32t20 89v756l-174 30v31q180 35 266 35h21q-21 -133 -21 -268v-715l195 10l-21 -51h-186q-57 -42 -94 -105t-37 -114q0 -54 36.5 -87.5t100.5 -33.5q89 0 166 72l10 -15q-51 -62 -109.5 -100.5t-113.5 -38.5q-67 0 -118.5 46t-51.5 116
q0 58 43 131.5t121 128.5h-207zM174 1368q0 33 24.5 57.5t57.5 24.5q32 0 55 -24.5t23 -57.5q0 -34 -23 -57t-55 -23q-34 0 -58 24t-24 56z" />
    <glyph glyph-name="Idotaccent" unicode="&#x130;" horiz-adv-x="657" 
d="M84 0l20 41l86 10q49 6 67.5 28.5t18.5 78.5v1255l-194 -10l20 51h473l-20 -41l-86 -10q-90 -12 -90 -133v-1229l194 10l-20 -51h-469zM258 1819q0 33 24.5 57.5t57.5 24.5q32 0 55 -24.5t23 -57.5q0 -34 -23 -57t-55 -23q-34 0 -58 24t-24 56z" />
    <glyph glyph-name="dotlessi" unicode="&#x131;" 
d="M41 0l20 41l62 10q52 8 72 32t20 89v756l-174 30v31q180 35 266 35h21q-21 -133 -21 -268v-715l195 10l-21 -51h-440z" />
    <glyph glyph-name="IJ" unicode="&#x132;" horiz-adv-x="1232" 
d="M84 0l20 41l86 10q49 6 67.5 28.5t18.5 78.5v1255l-194 -10l20 51h473l-20 -41l-86 -10q-90 -12 -90 -133v-1229l194 10l-20 -51h-469zM600 -451q139 81 221 234.5t82 372.5v1257l-231 -10l20 51h531l-21 -41l-127 -10q-36 -3 -52.5 -30.5t-16.5 -82.5v-1054
q0 -148 -32 -270t-89 -207t-125.5 -141.5t-149.5 -88.5z" />
    <glyph glyph-name="ij" unicode="&#x133;" horiz-adv-x="972" 
d="M41 0l20 41l62 10q52 8 72 32t20 89v756l-174 30v31q180 35 266 35h21q-21 -133 -21 -268v-715l195 10l-21 -51h-440zM174 1368q0 33 24.5 57.5t57.5 24.5q32 0 55 -24.5t23 -57.5q0 -34 -23 -57t-55 -23q-34 0 -58 24t-24 56zM504 -481q80 72 142.5 199.5t62.5 283.5
v926l-174 30v31q179 35 266 35h20q-20 -195 -20 -371v-651q0 -95 -27.5 -180t-72 -145t-91.5 -102t-96 -67zM668 1368q0 33 24.5 57.5t57.5 24.5q32 0 54.5 -24.5t22.5 -57.5q0 -34 -22.5 -57t-54.5 -23q-34 0 -58 24t-24 56z" />
    <glyph glyph-name="Jcircumflex" unicode="&#x134;" horiz-adv-x="561" 
d="M-72 -451q139 81 221 234.5t82 372.5v1257l-231 -10l20 51h531l-21 -41l-127 -10q-36 -3 -52.5 -30.5t-16.5 -82.5v-1054q0 -148 -32 -270t-88.5 -207t-125 -141.5t-149.5 -88.5zM-14 1608q82 102 180.5 209.5t118.5 107.5t120.5 -108.5t178.5 -208.5l-13 -11l-286 236
l-287 -236z" />
    <glyph glyph-name="jcircumflex" unicode="&#x135;" horiz-adv-x="479" 
d="M10 -481q80 72 142.5 199.5t62.5 283.5v926l-174 30v31q179 35 266 35h21q-21 -205 -21 -371v-651q0 -95 -27.5 -180t-72 -145t-91.5 -102t-96 -67zM-25 1157q248 399 279 399q30 0 278 -399l-12 -10l-266 307l-266 -307z" />
    <glyph glyph-name="uni0136" unicode="&#x136;" horiz-adv-x="1421" 
d="M1389 -20q-146 0 -230 32t-153 107l-512 565v21l677 708l-237 -10l20 51h457l-20 -41q-103 -7 -152.5 -30.5t-112.5 -88.5l-546 -569l444 -471q95 -100 177 -156t198 -98zM82 1403l20 51h473l-20 -41l-86 -10q-90 -12 -90 -133v-1229l194 10l-20 -51h-469l20 41l86 10
q42 4 64 32.5t22 74.5v1255zM700 -197q0 36 26.5 58t55.5 22q38 0 69.5 -29t31.5 -90q0 -78 -37 -154t-94 -128l-21 6q66 97 66 182q0 28 -15 51t-33.5 35t-33.5 24.5t-15 22.5z" />
    <glyph glyph-name="uni0137" unicode="&#x137;" horiz-adv-x="1130" 
d="M895 -20q-94 0 -205 137l-291 364v21l455 461l-252 -11l21 52h497l-20 -41q-83 0 -133 -13t-82.5 -36t-87.5 -78l-312 -312q161 -210 291 -340q8 -8 29 -28t28 -26.5t24.5 -20.5t28.5 -19t29 -12t37.5 -9.5t42.5 -2.5h74l10 -15q-108 -71 -184 -71zM31 0l20 41l62 10
q52 8 72 33t20 88v1288l-174 29v33q174 34 266 34h20q-20 -263 -20 -552v-963l174 10l-20 -51h-420zM489 -197q0 36 26.5 58t55.5 22q38 0 69.5 -29t31.5 -90q0 -78 -37 -154t-94 -128l-21 6q66 97 66 182q0 28 -15 51t-33.5 35t-33.5 24.5t-15 22.5z" />
    <glyph glyph-name="kgreenlandic" unicode="&#x138;" horiz-adv-x="1130" 
d="M895 -20q-94 0 -205 137l-291 364v21l455 461l-252 -11l21 52h497l-20 -41q-83 0 -133 -13t-82.5 -36t-87.5 -78l-312 -312q161 -210 291 -340q8 -8 29 -28t28 -26.5t24.5 -20.5t28.5 -19t29 -12t37.5 -9.5t42.5 -2.5h74l10 -15q-108 -71 -184 -71zM41 0l20 41l62 10
q48 8 70 50.5t22 134.5v671l-174 31v31q215 55 246 55h20v-983l215 10l-20 -51h-461z" />
    <glyph glyph-name="Lacute" unicode="&#x139;" horiz-adv-x="1198" 
d="M84 0l20 41l86 10q42 4 64 32.5t22 74.5v1255l-194 -10l20 51h514l-20 -41l-86 -2q-45 -1 -72.5 -11t-39.5 -31.5t-15.5 -42t-3.5 -56.5v-1229h455q34 0 57.5 4t51.5 16.5t50.5 38t47.5 66.5t48.5 104t47.5 148h30l-102 -438q-103 20 -182 20h-799zM190 1608
q313 399 334 399q17 0 28 -11t11 -28q0 -7 -1.5 -13.5t-3 -11.5t-6.5 -12t-8 -11t-11 -12.5t-11.5 -11.5t-14.5 -13.5t-15 -14.5l-289 -271z" />
    <glyph glyph-name="lacute" unicode="&#x13a;" 
d="M31 0l20 41l45 6q62 8 85.5 29t23.5 84v1300l-174 29v33q156 34 266 34h20q-20 -270 -20 -426v-1089l205 10l-21 -51h-450zM113 1651q313 399 333 399q17 0 28 -11t11 -28q0 -7 -1.5 -13.5t-3 -11.5t-6.5 -12t-8 -11t-11 -12.5t-11.5 -11.5t-14.5 -13.5t-15 -14.5
l-289 -271z" />
    <glyph glyph-name="uni013B" unicode="&#x13b;" horiz-adv-x="1198" 
d="M84 0l20 41l86 10q42 4 64 32.5t22 74.5v1255l-194 -10l20 51h514l-20 -41l-86 -2q-45 -1 -72.5 -11t-39.5 -31.5t-15.5 -42t-3.5 -56.5v-1229h455q34 0 57.5 4t51.5 16.5t50.5 38t47.5 66.5t48.5 104t47.5 148h30l-102 -438q-103 20 -182 20h-799zM598 -197
q0 36 26.5 58t55.5 22q38 0 69 -29t31 -90q0 -78 -37 -154t-94 -128l-20 6q65 96 65 182q0 28 -15 51t-33 35t-33 24.5t-15 22.5z" />
    <glyph glyph-name="uni013C" unicode="&#x13c;" 
d="M31 0l20 41l45 6q62 8 85.5 29t23.5 84v1300l-174 29v33q156 34 266 34h20q-20 -270 -20 -426v-1089l205 10l-21 -51h-450zM152 -197q0 37 26 58.5t55 21.5q38 0 69.5 -29t31.5 -90q0 -78 -37 -154t-94 -128l-21 6q66 97 66 182q0 28 -15 51t-33 35t-33 24.5t-15 22.5z
" />
    <glyph glyph-name="Lcaron" unicode="&#x13d;" horiz-adv-x="1198" 
d="M84 0l20 41l86 10q42 4 64 32.5t22 74.5v1255l-194 -10l20 51h514l-20 -41l-86 -2q-45 -1 -72.5 -11t-39.5 -31.5t-15.5 -42t-3.5 -56.5v-1229h455q34 0 57.5 4t51.5 16.5t50.5 38t47.5 66.5t48.5 104t47.5 148h30l-102 -438q-103 20 -182 20h-799zM864 1044v328
q0 38 17 60t45 22q72 0 37 -123l-78 -287h-21z" />
    <glyph glyph-name="lcaron" unicode="&#x13e;" 
d="M31 0l20 41l45 6q62 8 85.5 29t23.5 84v1300l-174 29v33q156 34 266 34h20q-20 -270 -20 -426v-1089l205 10l-21 -51h-450zM440 1147v328q0 38 17 59.5t45 21.5q72 0 37 -122l-78 -287h-21z" />
    <glyph glyph-name="Lslash" unicode="&#x141;" horiz-adv-x="1228" 
d="M51 623v32l225 74v684l-194 -10l20 51h514l-20 -41l-86 -2q-45 -1 -72.5 -11t-39.5 -31.5t-15.5 -42t-3.5 -56.5v-508l297 98v-33l-297 -98v-688h455q34 0 57.5 4t51.5 16.5t50.5 38t47.5 66.5t48.5 104t47.5 148h30l-102 -438q-103 20 -182 20h-799l20 41l86 10
q42 4 64 32.5t22 74.5v538z" />
    <glyph glyph-name="lslash" unicode="&#x142;" 
d="M70 621v34l135 64v741l-174 29v33q156 34 266 34h20q-20 -270 -20 -426v-368l166 78v-35l-166 -78v-686l205 10l-21 -51h-450l20 41l45 6q62 8 85.5 29t23.5 84v524z" />
    <glyph glyph-name="Nacute" unicode="&#x143;" horiz-adv-x="1527" 
d="M334 1167q-43 55 -53 66v-1192l190 10l-20 -51h-431l21 41l100 10q58 6 76.5 31.5t18.5 99.5v1100q-107 107 -211 152l10 20h207l1024 -1302v1261l-189 -10l21 51h430l-21 -41l-100 -10q-59 -6 -77.5 -31t-18.5 -98v-1251l-45 -43zM655 1608q19 20 58.5 62t61.5 65
l55 57.5t52.5 54t40.5 40t33 29.5t17 9q13 0 23 -13.5t10 -33.5q0 -8 -3 -15t-6 -12t-11.5 -12.5t-13 -11t-17.5 -13.5t-19 -14l-274 -203z" />
    <glyph glyph-name="nacute" unicode="&#x144;" horiz-adv-x="1126" 
d="M666 0l20 41l51 8q30 5 44 8.5t30.5 14t22.5 30t6 50.5v577q0 100 -56.5 156.5t-160.5 56.5q-91 0 -165.5 -26.5t-150.5 -69.5v-805l215 10l-20 -51h-461l20 41l62 10q53 8 72.5 26t19.5 75v755l-174 31v31q27 7 80.5 22t88 24t46.5 9h20l21 -137h20q54 39 91.5 62.5
t108 49t138.5 25.5q137 0 207 -71t70 -205v-707l205 10l-21 -51h-450zM455 1157q313 399 333 399q17 0 28 -10.5t11 -27.5q0 -5 -1 -10.5t-2 -10t-4.5 -10t-5 -9t-7 -9.5t-8 -9t-9.5 -10l-10 -10t-12 -11.5t-12 -11.5l-289 -270z" />
    <glyph glyph-name="uni0145" unicode="&#x145;" horiz-adv-x="1527" 
d="M334 1167q-43 55 -53 66v-1192l190 10l-20 -51h-431l21 41l100 10q58 6 76.5 31.5t18.5 99.5v1100q-107 107 -211 152l10 20h207l1024 -1302v1261l-189 -10l21 51h430l-21 -41l-100 -10q-59 -6 -77.5 -31t-18.5 -98v-1251l-45 -43zM688 -197q0 36 26.5 58t55.5 22
q38 0 69 -29t31 -90q0 -78 -37 -154t-94 -128l-20 6q65 96 65 182q0 28 -15 51t-33 35t-33 24.5t-15 22.5z" />
    <glyph glyph-name="uni0146" unicode="&#x146;" horiz-adv-x="1126" 
d="M666 0l20 41l51 8q30 5 44 8.5t30.5 14t22.5 30t6 50.5v577q0 100 -56.5 156.5t-160.5 56.5q-91 0 -165.5 -26.5t-150.5 -69.5v-805l215 10l-20 -51h-461l20 41l62 10q53 8 72.5 26t19.5 75v755l-174 31v31q27 7 80.5 22t88 24t46.5 9h20l21 -137h20q54 39 91.5 62.5
t108 49t138.5 25.5q137 0 207 -71t70 -205v-707l205 10l-21 -51h-450zM485 -197q0 36 26.5 58t55.5 22q38 0 69.5 -29t31.5 -90q0 -78 -37 -154t-94 -128l-21 6q66 97 66 182q0 28 -15 51t-33.5 35t-33.5 24.5t-15 22.5z" />
    <glyph glyph-name="Ncaron" unicode="&#x147;" horiz-adv-x="1527" 
d="M334 1167q-43 55 -53 66v-1192l190 10l-20 -51h-431l21 41l100 10q58 6 76.5 31.5t18.5 99.5v1100q-107 107 -211 152l10 20h207l1024 -1302v1261l-189 -10l21 51h430l-21 -41l-100 -10q-59 -6 -77.5 -31t-18.5 -98v-1251l-45 -43zM508 1915l12 10l287 -235l287 235
l12 -10q-79 -100 -179 -209t-120 -109t-118 107.5t-181 210.5z" />
    <glyph glyph-name="ncaron" unicode="&#x148;" horiz-adv-x="1126" 
d="M666 0l20 41l51 8q30 5 44 8.5t30.5 14t22.5 30t6 50.5v577q0 100 -56.5 156.5t-160.5 56.5q-91 0 -165.5 -26.5t-150.5 -69.5v-805l215 10l-20 -51h-461l20 41l62 10q53 8 72.5 26t19.5 75v755l-174 31v31q27 7 80.5 22t88 24t46.5 9h20l21 -137h20q54 39 91.5 62.5
t108 49t138.5 25.5q137 0 207 -71t70 -205v-707l205 10l-21 -51h-450zM322 1546l12 10l266 -307l266 307l13 -10q-248 -399 -279 -399q-30 0 -278 399z" />
    <glyph glyph-name="Eng" unicode="&#x14a;" horiz-adv-x="1527" 
d="M924 -451q59 24 114.5 66.5t103 98.5t78.5 129.5t35 150.5l-974 1239v-1192l190 10l-20 -51h-431l21 41l100 10q58 6 76.5 31.5t18.5 99.5v1100q-107 107 -211 152l10 20h207l1024 -1302v1261l-189 -10l21 51h430l-21 -41l-100 -10q-59 -6 -77.5 -31t-18.5 -98v-1251
q0 -81 -25 -154t-64 -125.5t-91 -96.5t-99.5 -71t-97.5 -47z" />
    <glyph glyph-name="eng" unicode="&#x14b;" horiz-adv-x="1073" 
d="M625 -481q79 72 141.5 199t62.5 284v727q0 100 -56.5 156.5t-160.5 56.5q-60 0 -121 -16t-96.5 -32t-84.5 -41q-9 -5 -13 -7v-805l215 10l-20 -51h-461l20 41l62 10q48 8 70 50.5t22 134.5v671l-174 31v31q27 7 80.5 22t88 24t46.5 9h20l21 -137h20q6 4 34 22.5
t41.5 26.5t42.5 25t50.5 25.5t50.5 18.5t59 14.5t60 4.5q137 0 207 -71t70 -205v-746q0 -95 -27.5 -180t-72 -145t-91.5 -102t-96 -67z" />
    <glyph glyph-name="Omacron" unicode="&#x14c;" horiz-adv-x="1546" 
d="M772 -20q-150 0 -280 55.5t-222.5 153.5t-145 237t-52.5 301q0 216 90 387t249.5 266t360.5 95q150 0 280.5 -55.5t223.5 -153.5t146 -237.5t53 -301.5t-53 -301t-146 -237t-223.5 -153.5t-280.5 -55.5zM186 768q0 -211 76.5 -375t224.5 -258t347 -94q232 0 379 171
t147 474q0 211 -77.5 375t-225.5 258t-346 94q-234 0 -379.5 -171t-145.5 -474zM524 1712q0 25 14 38t37 13h435q0 -25 -14.5 -38t-37.5 -13h-434z" />
    <glyph glyph-name="omacron" unicode="&#x14d;" horiz-adv-x="1060" 
d="M530 -20q-101 0 -187.5 39t-145.5 107t-92 161t-33 198q0 148 60.5 272t166 195.5t231.5 71.5q135 0 240.5 -68.5t162 -183.5t56.5 -254q0 -148 -61 -272t-166.5 -195t-231.5 -71zM174 526q0 -202 119 -343.5t289 -141.5q89 0 159 58t108 157t38 221q0 203 -119 344.5
t-289 141.5q-134 0 -219.5 -125.5t-85.5 -311.5zM289 1262q0 25 14 38t37 13h434q0 -25 -14 -38t-37 -13h-434z" />
    <glyph glyph-name="Ohungarumlaut" unicode="&#x150;" horiz-adv-x="1546" 
d="M772 -20q-150 0 -280 55.5t-222.5 153.5t-145 237t-52.5 301q0 216 90 387t249.5 266t360.5 95q150 0 280.5 -55.5t223.5 -153.5t146 -237.5t53 -301.5t-53 -301t-146 -237t-223.5 -153.5t-280.5 -55.5zM186 768q0 -211 76.5 -375t224.5 -258t347 -94q232 0 379 171
t147 474q0 211 -77.5 375t-225.5 258t-346 94q-234 0 -379.5 -171t-145.5 -474zM653 1608q40 119 106.5 259t88.5 140q39 0 39 -57q0 -13 -10 -35.5t-27.5 -50t-32 -49.5t-33.5 -48.5t-22 -31.5l-96 -138zM852 1608q170 358 199 358q11 0 25 -18t14 -37q0 -45 -134 -203
l-92 -111z" />
    <glyph glyph-name="ohungarumlaut" unicode="&#x151;" horiz-adv-x="1060" 
d="M530 -20q-101 0 -187.5 39t-145.5 107t-92 161t-33 198q0 148 60.5 272t166 195.5t231.5 71.5q135 0 240.5 -68.5t162 -183.5t56.5 -254q0 -148 -61 -272t-166.5 -195t-231.5 -71zM174 526q0 -202 119 -343.5t289 -141.5q89 0 159 58t108 157t38 221q0 203 -119 344.5
t-289 141.5q-134 0 -219.5 -125.5t-85.5 -311.5zM418 1157q40 120 106 259.5t88 139.5q39 0 39 -57q0 -13 -10 -35.5t-27.5 -50t-32 -49.5t-33.5 -48.5t-22 -31.5l-96 -137zM616 1157q171 359 199 359q11 0 25 -18.5t14 -37.5q0 -46 -133 -203l-92 -110z" />
    <glyph glyph-name="OE" unicode="&#x152;" horiz-adv-x="2111" 
d="M803 0q-333 0 -532 199t-199 528q0 334 208.5 530.5t583.5 196.5h791q117 0 282 21l62 -398h-31q-29 136 -66.5 209.5t-84.5 100t-121 26.5h-477v-635h344q28 0 43 1.5t36 8t33 21t24.5 39t20.5 64t13 94.5h30v-496h-30q-5 55 -13 94.5t-20.5 64t-24.5 38.5t-33 20.5
t-36 8t-43 1.5h-344v-696h518q34 0 57.5 4t51.5 16.5t50.5 38t47.5 66.5t48.5 104t47.5 148h31l-103 -438q-102 20 -182 20h-983zM195 768q0 -157 46.5 -291.5t131 -230.5t209 -150.5t274.5 -54.5h260v1372h-242q-310 0 -494.5 -170t-184.5 -475z" />
    <glyph glyph-name="oe" unicode="&#x153;" horiz-adv-x="1742" 
d="M1335 -20q-137 0 -243.5 73.5t-157.5 204.5q-60 -127 -167 -202.5t-237 -75.5q-101 0 -187.5 39t-145.5 107t-92 161t-33 198q0 148 60.5 272t166 195.5t231.5 71.5q145 0 254.5 -77.5t163.5 -207.5q53 130 152.5 207.5t228.5 77.5q145 0 233.5 -83t88.5 -206
q0 -70 -23 -102h-481v33l321 18q74 3 74 82q0 96 -58.5 153.5t-160.5 57.5q-138 0 -231 -127.5t-93 -329.5q0 -204 92 -327t269 -123q178 0 311 108l10 -10q-121 -188 -346 -188zM174 526q0 -202 119 -343.5t289 -141.5q89 0 159 58t108 157t38 221q0 203 -119 344.5
t-289 141.5q-134 0 -219.5 -125.5t-85.5 -311.5z" />
    <glyph glyph-name="Racute" unicode="&#x154;" horiz-adv-x="1359" 
d="M84 0l20 41l86 10q42 4 64 32.5t22 74.5v1255l-194 -10l20 51h469q268 0 427 -108t159 -281q0 -81 -34.5 -151t-92.5 -118t-131.5 -78.5t-153.5 -39.5l291 -416q84 -120 150.5 -176.5t163.5 -85.5l-11 -20q-131 0 -218.5 47.5t-151.5 144.5l-322 487h-268v-618l194 10
l-20 -51h-469zM379 700h219q208 0 322 97.5t114 267.5q0 151 -117.5 249.5t-320.5 98.5h-217v-713zM489 1608q19 20 58.5 62t61.5 65l55 57.5t52.5 54t40.5 40t33 29.5t17 9q13 0 23 -13.5t10 -33.5q0 -8 -3 -15t-6 -12t-11.5 -12.5t-13 -11t-17.5 -13.5t-19 -14l-274 -203z
" />
    <glyph glyph-name="racute" unicode="&#x155;" horiz-adv-x="751" 
d="M41 0l20 41l62 10q23 4 33.5 6.5t24.5 11t19.5 22.5t10 39t4.5 63v735l-174 30v31q171 35 225 35h21l10 -219h31q33 17 114 73.5t147.5 101t82.5 44.5q39 0 39 -45q0 -24 -11.5 -52.5t-31.5 -35.5l-301 -115q-37 -13 -48.5 -41.5t-11.5 -95.5v-598l215 10l-20 -51h-461z
M293 1157q313 399 334 399q17 0 28 -10.5t11 -27.5q0 -7 -1.5 -13.5t-3.5 -11.5t-7 -12.5t-7.5 -11.5t-11 -12.5t-12 -11.5t-14.5 -13.5t-15 -14.5l-289 -270z" />
    <glyph glyph-name="uni0156" unicode="&#x156;" horiz-adv-x="1359" 
d="M84 0l20 41l86 10q42 4 64 32.5t22 74.5v1255l-194 -10l20 51h469q268 0 427 -108t159 -281q0 -81 -34.5 -151t-92.5 -118t-131.5 -78.5t-153.5 -39.5l291 -416q84 -120 150.5 -176.5t163.5 -85.5l-11 -20q-131 0 -218.5 47.5t-151.5 144.5l-322 487h-268v-618l194 10
l-20 -51h-469zM379 700h219q208 0 322 97.5t114 267.5q0 151 -117.5 249.5t-320.5 98.5h-217v-713zM680 -197q0 36 26.5 58t55.5 22q38 0 69 -29t31 -90q0 -78 -37 -154t-94 -128l-20 6q65 96 65 182q0 28 -15 51t-33 35t-33 24.5t-15 22.5z" />
    <glyph glyph-name="uni0157" unicode="&#x157;" horiz-adv-x="751" 
d="M41 0l20 41l62 10q23 4 33.5 6.5t24.5 11t19.5 22.5t10 39t4.5 63v735l-174 30v31q171 35 225 35h21l10 -219h31q33 17 114 73.5t147.5 101t82.5 44.5q39 0 39 -45q0 -24 -11.5 -52.5t-31.5 -35.5l-301 -115q-37 -13 -48.5 -41.5t-11.5 -95.5v-598l215 10l-20 -51h-461z
M152 -197q0 37 26 58.5t55 21.5q38 0 69.5 -29t31.5 -90q0 -78 -37 -154t-94 -128l-21 6q66 97 66 182q0 28 -15 51t-33 35t-33 24.5t-15 22.5z" />
    <glyph glyph-name="Rcaron" unicode="&#x158;" horiz-adv-x="1359" 
d="M84 0l20 41l86 10q42 4 64 32.5t22 74.5v1255l-194 -10l20 51h469q268 0 427 -108t159 -281q0 -81 -34.5 -151t-92.5 -118t-131.5 -78.5t-153.5 -39.5l291 -416q84 -120 150.5 -176.5t163.5 -85.5l-11 -20q-131 0 -218.5 47.5t-151.5 144.5l-322 487h-268v-618l194 10
l-20 -51h-469zM342 1915l12 10l287 -235l287 235l12 -10q-79 -100 -179 -209t-120 -109t-118 107.5t-181 210.5zM379 700h219q208 0 322 97.5t114 267.5q0 151 -117.5 249.5t-320.5 98.5h-217v-713z" />
    <glyph glyph-name="rcaron" unicode="&#x159;" horiz-adv-x="751" 
d="M41 0l20 41l62 10q23 4 33.5 6.5t24.5 11t19.5 22.5t10 39t4.5 63v735l-174 30v31q171 35 225 35h21l10 -219h31q33 17 114 73.5t147.5 101t82.5 44.5q39 0 39 -45q0 -24 -11.5 -52.5t-31.5 -35.5l-301 -115q-37 -13 -48.5 -41.5t-11.5 -95.5v-598l215 10l-20 -51h-461z
M160 1546l12 10l266 -307l267 307l12 -10q-248 -399 -279 -399q-30 0 -278 399z" />
    <glyph glyph-name="Sacute" unicode="&#x15a;" horiz-adv-x="1058" 
d="M528 -20q-108 0 -218.5 35.5t-178.5 80.5l-59 367h30q23 -103 61.5 -180t83.5 -122.5t102.5 -73t111.5 -37t119 -9.5q145 0 238 79t93 202q0 117 -84 198.5t-295 165.5q-229 92 -324 178.5t-95 218.5q0 169 131 280.5t327 111.5q112 0 194 -25.5t161 -79.5l39 -326h-31
q-33 110 -77 184.5t-98 113.5t-110.5 55t-128.5 16q-145 0 -238.5 -77.5t-93.5 -200.5q0 -80 32 -134t119 -108t255 -121q97 -38 164.5 -75.5t121.5 -85t80.5 -106.5t26.5 -132q0 -169 -131.5 -281t-327.5 -112zM426 1608q22 23 59 62.5t60.5 64.5t55 58t52 53.5t41 40
t32.5 29t17 9.5q13 0 23 -13.5t10 -33.5q0 -7 -1.5 -12.5t-5.5 -11.5t-7 -10t-11 -10.5t-12 -10t-15.5 -11.5t-16.5 -12l-275 -203z" />
    <glyph glyph-name="sacute" unicode="&#x15b;" horiz-adv-x="841" 
d="M418 -20q-179 0 -326 81l-20 261h30q84 -295 344 -295q90 0 144.5 46t54.5 138q0 86 -61.5 145t-194.5 121q-148 68 -216.5 130t-68.5 157q0 101 86.5 180.5t233.5 79.5q169 0 264 -61l21 -261h-31q-22 81 -55 138t-72 86.5t-76.5 42t-77.5 12.5q-88 0 -144 -50t-56 -136
q0 -42 18 -77t57.5 -65.5t80 -53t106.5 -52.5q156 -71 218 -135.5t62 -167.5q0 -119 -85.5 -191.5t-235.5 -72.5zM295 1157q313 399 334 399q17 0 28 -10.5t11 -27.5q0 -7 -1.5 -13.5t-3.5 -11.5t-7 -12.5t-7.5 -11.5t-11 -12.5t-12 -11.5t-14.5 -13.5t-15 -14.5l-289 -270z
" />
    <glyph glyph-name="Scircumflex" unicode="&#x15c;" horiz-adv-x="1058" 
d="M528 -20q-108 0 -218.5 35.5t-178.5 80.5l-59 367h30q23 -103 61.5 -180t83.5 -122.5t102.5 -73t111.5 -37t119 -9.5q145 0 238 79t93 202q0 117 -84 198.5t-295 165.5q-229 92 -324 178.5t-95 218.5q0 169 131 280.5t327 111.5q112 0 194 -25.5t161 -79.5l39 -326h-31
q-33 110 -77 184.5t-98 113.5t-110.5 55t-128.5 16q-145 0 -238.5 -77.5t-93.5 -200.5q0 -80 32 -134t119 -108t255 -121q97 -38 164.5 -75.5t121.5 -85t80.5 -106.5t26.5 -132q0 -169 -131.5 -281t-327.5 -112zM279 1608q82 102 180.5 209.5t118.5 107.5t120.5 -108.5
t178.5 -208.5l-13 -11l-286 236l-287 -236z" />
    <glyph glyph-name="scircumflex" unicode="&#x15d;" horiz-adv-x="841" 
d="M418 -20q-179 0 -326 81l-20 261h30q84 -295 344 -295q90 0 144.5 46t54.5 138q0 86 -61.5 145t-194.5 121q-148 68 -216.5 130t-68.5 157q0 101 86.5 180.5t233.5 79.5q169 0 264 -61l21 -261h-31q-22 81 -55 138t-72 86.5t-76.5 42t-77.5 12.5q-88 0 -144 -50t-56 -136
q0 -42 18 -77t57.5 -65.5t80 -53t106.5 -52.5q156 -71 218 -135.5t62 -167.5q0 -119 -85.5 -191.5t-235.5 -72.5zM166 1157q248 399 278 399q31 0 279 -399l-12 -10l-267 307l-266 -307z" />
    <glyph glyph-name="Scedilla" unicode="&#x15e;" horiz-adv-x="1058" 
d="M528 -20q-108 0 -218.5 35.5t-178.5 80.5l-59 367h30q23 -103 61.5 -180t83.5 -122.5t102.5 -73t111.5 -37t119 -9.5q145 0 238 79t93 202q0 117 -84 198.5t-295 165.5q-229 92 -324 178.5t-95 218.5q0 169 131 280.5t327 111.5q112 0 194 -25.5t161 -79.5l39 -326h-31
q-33 110 -77 184.5t-98 113.5t-110.5 55t-128.5 16q-145 0 -238.5 -77.5t-93.5 -200.5q0 -80 32 -134t119 -108t255 -121q97 -38 164.5 -75.5t121.5 -85t80.5 -106.5t26.5 -132q0 -155 -112 -263.5t-285 -125.5l-10 -41q4 -3 24.5 -17t26 -18.5l22 -18t22.5 -21t17 -22.5
t15 -27.5t8 -30t4 -36.5q0 -152 -256 -244l-10 13q100 34 142 89t42 101q0 42 -31 76.5t-98 73.5l31 119h-11z" />
    <glyph glyph-name="scedilla" unicode="&#x15f;" horiz-adv-x="841" 
d="M287 -479q100 34 142 89t42 101q0 42 -31 76.5t-98 73.5l31 121q-155 9 -281 79l-20 261h30q84 -295 344 -295q90 0 144.5 46t54.5 138q0 86 -61.5 145t-194.5 121q-148 68 -216.5 130t-68.5 157q0 101 86.5 180.5t233.5 79.5q169 0 264 -61l21 -261h-31q-22 81 -55 138
t-72 86.5t-76.5 42t-77.5 12.5q-88 0 -144 -50t-56 -136q0 -42 18 -77t57.5 -65.5t80 -53t106.5 -52.5q156 -71 218 -135.5t62 -167.5q0 -118 -84.5 -190.5t-232.5 -73.5l-8 -37q4 -3 24.5 -17t26 -18.5l22 -18t22.5 -21t17 -22.5t15 -27.5t8 -30t4 -36.5q0 -152 -256 -244z
" />
    <glyph glyph-name="Scaron" unicode="&#x160;" horiz-adv-x="1058" 
d="M528 -20q-108 0 -218.5 35.5t-178.5 80.5l-59 367h30q23 -103 61.5 -180t83.5 -122.5t102.5 -73t111.5 -37t119 -9.5q145 0 238 79t93 202q0 117 -84 198.5t-295 165.5q-229 92 -324 178.5t-95 218.5q0 169 131 280.5t327 111.5q112 0 194 -25.5t161 -79.5l39 -326h-31
q-33 110 -77 184.5t-98 113.5t-110.5 55t-128.5 16q-145 0 -238.5 -77.5t-93.5 -200.5q0 -80 32 -134t119 -108t255 -121q97 -38 164.5 -75.5t121.5 -85t80.5 -106.5t26.5 -132q0 -169 -131.5 -281t-327.5 -112zM279 1915l12 10l287 -235l286 235l13 -10q-79 -100 -179 -209
t-120 -109t-118 107.5t-181 210.5z" />
    <glyph glyph-name="scaron" unicode="&#x161;" horiz-adv-x="841" 
d="M418 -20q-179 0 -326 81l-20 261h30q84 -295 344 -295q90 0 144.5 46t54.5 138q0 86 -61.5 145t-194.5 121q-148 68 -216.5 130t-68.5 157q0 101 86.5 180.5t233.5 79.5q169 0 264 -61l21 -261h-31q-22 81 -55 138t-72 86.5t-76.5 42t-77.5 12.5q-88 0 -144 -50t-56 -136
q0 -42 18 -77t57.5 -65.5t80 -53t106.5 -52.5q156 -71 218 -135.5t62 -167.5q0 -119 -85.5 -191.5t-235.5 -72.5zM162 1546l12 10l266 -307l267 307l12 -10q-248 -399 -279 -399q-30 0 -278 399z" />
    <glyph glyph-name="uni0162" unicode="&#x162;" horiz-adv-x="1288" 
d="M362 0l21 41l127 10q42 3 64 31.5t22 75.5v1255h-262q-74 0 -121.5 -26.5t-85 -100t-66.5 -209.5h-30l61 398q164 -21 283 -21h538q119 0 283 21l61 -398h-30q-29 136 -66.5 209.5t-85 100t-121.5 26.5h-256v-1372l215 10l-20 -51h-215l-14 -57q4 -3 24.5 -17t26 -18.5
l22 -18t22.5 -21t17 -22.5t15 -27.5t8 -30t4 -36.5q0 -152 -256 -244l-10 13q100 34 142 89t42 101q0 42 -31 76.5t-98 73.5l35 139h-265z" />
    <glyph glyph-name="uni0163" unicode="&#x163;" horiz-adv-x="659" 
d="M272 -479q54 18 92.5 44.5t57.5 54t27 50t8 41.5q0 42 -31 76.5t-98 73.5l30 119q-88 5 -137 54t-49 140v789h-141v41l141 16l64 188h28v-204h352v-41h-352v-752q0 -76 35.5 -116t130.5 -40q96 0 188 27l11 -10q-101 -82 -219 -90l-11 -39q5 -4 24.5 -17.5l26 -18
t22.5 -17.5t22.5 -21t17 -22.5t15 -27.5t8.5 -30.5t4 -36.5q0 -152 -256 -244z" />
    <glyph glyph-name="Tcaron" unicode="&#x164;" horiz-adv-x="1288" 
d="M362 0l21 41l127 10q42 3 64 31.5t22 75.5v1255h-262q-74 0 -121.5 -26.5t-85 -100t-66.5 -209.5h-30l61 398q164 -21 283 -21h538q119 0 283 21l61 -398h-30q-29 136 -66.5 209.5t-85 100t-121.5 26.5h-256v-1372l215 10l-20 -51h-531zM348 1915l12 10l287 -235l287 235
l12 -10q-79 -100 -179 -209t-120 -109t-118 107.5t-181 210.5z" />
    <glyph glyph-name="tcaron" unicode="&#x165;" horiz-adv-x="659" 
d="M377 -20q-96 0 -150.5 49.5t-54.5 144.5v789h-141v41l141 16l64 188h28v-204h352v-41h-352v-752q0 -76 35.5 -116t130.5 -40q96 0 188 27l11 -10q-116 -92 -252 -92zM500 1108v328q0 38 16.5 60t44.5 22q72 0 37 -123l-78 -287h-20z" />
    <glyph glyph-name="Tbar" unicode="&#x166;" horiz-adv-x="1288" 
d="M227 655v41h369v717h-262q-74 0 -121.5 -26.5t-85 -100t-66.5 -209.5h-30l61 398q164 -21 283 -21h538q119 0 283 21l61 -398h-30q-29 136 -66.5 209.5t-85 100t-121.5 26.5h-256v-717h369v-41h-369v-614l215 10l-20 -51h-531l21 41l127 10q42 3 64 31.5t22 75.5v497
h-369z" />
    <glyph glyph-name="tbar" unicode="&#x167;" horiz-adv-x="659" 
d="M61 520v31h111v412h-141v41l141 16l64 188h28v-204h352v-41h-352v-412h334v-31h-334v-309q0 -76 35.5 -116t130.5 -40q96 0 188 27l11 -10q-116 -92 -252 -92q-96 0 -150.5 49.5t-54.5 144.5v346h-111z" />
    <glyph glyph-name="Utilde" unicode="&#x168;" horiz-adv-x="1628" 
d="M854 -20q-260 0 -421 134t-161 361v938l-190 -10l20 51h469l-20 -41l-107 -10q-36 -3 -52.5 -30.5t-16.5 -82.5v-794q0 -207 144 -326t378 -119q186 0 306 125t120 320v917l-215 -10l20 51h418l-20 -41l-86 -10q-37 -4 -53.5 -31.5t-16.5 -81.5v-794
q0 -227 -144.5 -371.5t-371.5 -144.5zM565 1671q41 72 93.5 116t103.5 44q48 0 136.5 -47t119.5 -47q33 0 64.5 26t72.5 78l12 -10q-38 -68 -87.5 -119t-94.5 -51q-41 0 -137 47t-127 47q-65 0 -143 -94z" />
    <glyph glyph-name="utilde" unicode="&#x169;" horiz-adv-x="1146" 
d="M449 -20q-107 0 -165.5 67.5t-58.5 188.5v696l-174 31v30q189 31 246 31h20v-748q0 -118 42.5 -166.5t134.5 -48.5q168 0 335 99v772l-174 31v30q118 31 246 31h21v-928l174 -30v-31q-54 -23 -120.5 -39t-94.5 -16h-21l-20 137h-21q-102 -70 -190 -103.5t-180 -33.5z
M268 1200q39 97 91 149t106 52q30 0 65 -18t61 -39.5t56.5 -39.5t52.5 -18q36 0 69 34.5t69 111.5l12 -11q-33 -92 -83.5 -151.5t-98.5 -59.5q-33 0 -80 29t-92 57.5t-72 28.5q-39 0 -73 -31t-70 -104z" />
    <glyph glyph-name="Umacron" unicode="&#x16a;" horiz-adv-x="1628" 
d="M854 -20q-260 0 -421 134t-161 361v938l-190 -10l20 51h469l-20 -41l-107 -10q-36 -3 -52.5 -30.5t-16.5 -82.5v-794q0 -207 144 -326t378 -119q186 0 306 125t120 320v917l-215 -10l20 51h418l-20 -41l-86 -10q-37 -4 -53.5 -31.5t-16.5 -81.5v-794
q0 -227 -144.5 -371.5t-371.5 -144.5zM621 1712q0 25 14 38t37 13h434q0 -25 -14 -38t-37 -13h-434z" />
    <glyph glyph-name="umacron" unicode="&#x16b;" horiz-adv-x="1146" 
d="M449 -20q-107 0 -165.5 67.5t-58.5 188.5v696l-174 31v30q189 31 246 31h20v-748q0 -118 42.5 -166.5t134.5 -48.5q168 0 335 99v772l-174 31v30q118 31 246 31h21v-928l174 -30v-31q-54 -23 -120.5 -39t-94.5 -16h-21l-20 137h-21q-102 -70 -190 -103.5t-180 -33.5z
M305 1262q0 25 14 38t37 13h435q0 -25 -14.5 -38t-37.5 -13h-434z" />
    <glyph glyph-name="Ubreve" unicode="&#x16c;" horiz-adv-x="1628" 
d="M854 -20q-260 0 -421 134t-161 361v938l-190 -10l20 51h469l-20 -41l-107 -10q-36 -3 -52.5 -30.5t-16.5 -82.5v-794q0 -207 144 -326t378 -119q186 0 306 125t120 320v917l-215 -10l20 51h418l-20 -41l-86 -10q-37 -4 -53.5 -31.5t-16.5 -81.5v-794
q0 -227 -144.5 -371.5t-371.5 -144.5zM623 1964l12 10q7 -46 23.5 -88.5t43 -81t69 -61.5t95.5 -23q146 0 232 254l12 -10q-7 -62 -23.5 -116t-44.5 -103t-73.5 -78t-102.5 -29q-75 0 -132 50.5t-84 123.5t-27 152z" />
    <glyph glyph-name="ubreve" unicode="&#x16d;" horiz-adv-x="1146" 
d="M449 -20q-107 0 -165.5 67.5t-58.5 188.5v696l-174 31v30q189 31 246 31h20v-748q0 -118 42.5 -166.5t134.5 -48.5q168 0 335 99v772l-174 31v30q118 31 246 31h21v-928l174 -30v-31q-54 -23 -120.5 -39t-94.5 -16h-21l-20 137h-21q-102 -70 -190 -103.5t-180 -33.5z
M307 1513l12 11q7 -46 23.5 -88.5t43.5 -81t69.5 -61.5t95.5 -23q45 0 83.5 22.5t66 62.5t46 79.5t35.5 89.5l13 -11q-7 -62 -23.5 -116t-44.5 -103t-73.5 -77.5t-102.5 -28.5q-75 0 -132.5 50.5t-84.5 123t-27 151.5z" />
    <glyph glyph-name="Uring" unicode="&#x16e;" horiz-adv-x="1628" 
d="M854 -20q-260 0 -421 134t-161 361v938l-190 -10l20 51h469l-20 -41l-107 -10q-36 -3 -52.5 -30.5t-16.5 -82.5v-794q0 -207 144 -326t378 -119q186 0 306 125t120 320v917l-215 -10l20 51h418l-20 -41l-86 -10q-37 -4 -53.5 -31.5t-16.5 -81.5v-794
q0 -227 -144.5 -371.5t-371.5 -144.5zM711 1751q0 52 45 88.5t110 36.5t109.5 -36.5t44.5 -88.5t-44.5 -88.5t-109.5 -36.5t-110 36.5t-45 88.5zM793 1751q0 -41 21.5 -72.5t51.5 -31.5q29 0 50.5 32t21.5 72t-21.5 72t-50.5 32q-30 0 -51.5 -31.5t-21.5 -72.5z" />
    <glyph glyph-name="uring" unicode="&#x16f;" horiz-adv-x="1146" 
d="M449 -20q-107 0 -165.5 67.5t-58.5 188.5v696l-174 31v30q189 31 246 31h20v-748q0 -118 42.5 -166.5t134.5 -48.5q168 0 335 99v772l-174 31v30q118 31 246 31h21v-928l174 -30v-31q-54 -23 -120.5 -39t-94.5 -16h-21l-20 137h-21q-102 -70 -190 -103.5t-180 -33.5z
M395 1309q0 66 45 105.5t111 39.5t110 -39.5t44 -105.5t-44 -106t-110 -40t-111 40t-45 106zM477 1309q0 -54 21 -84.5t53 -30.5q31 0 51.5 31t20.5 84t-20.5 83.5t-51.5 30.5q-32 0 -53 -30t-21 -84z" />
    <glyph glyph-name="Uhungarumlaut" unicode="&#x170;" horiz-adv-x="1628" 
d="M854 -20q-260 0 -421 134t-161 361v938l-190 -10l20 51h469l-20 -41l-107 -10q-36 -3 -52.5 -30.5t-16.5 -82.5v-794q0 -207 144 -326t378 -119q186 0 306 125t120 320v917l-215 -10l20 51h418l-20 -41l-86 -10q-37 -4 -53.5 -31.5t-16.5 -81.5v-794
q0 -227 -144.5 -371.5t-371.5 -144.5zM750 1608q40 120 106 259.5t88 139.5q39 0 39 -57q0 -13 -10 -35.5t-27.5 -50t-32 -49.5t-33.5 -48.5t-22 -31.5l-96 -138zM948 1608q170 358 199 358q11 0 25 -18t14 -37q0 -46 -133 -203l-92 -111z" />
    <glyph glyph-name="uhungarumlaut" unicode="&#x171;" horiz-adv-x="1146" 
d="M449 -20q-107 0 -165.5 67.5t-58.5 188.5v696l-174 31v30q189 31 246 31h20v-748q0 -118 42.5 -166.5t134.5 -48.5q168 0 335 99v772l-174 31v30q118 31 246 31h21v-928l174 -30v-31q-54 -23 -120.5 -39t-94.5 -16h-21l-20 137h-21q-102 -70 -190 -103.5t-180 -33.5z
M434 1157q40 119 106.5 259t88.5 140q39 0 39 -57q0 -13 -10 -35.5t-27.5 -50t-32 -49.5t-33.5 -48.5t-22 -31.5l-97 -137zM633 1157q171 359 198 359q11 0 25 -18.5t14 -37.5q0 -46 -133 -203l-92 -110z" />
    <glyph glyph-name="Uogonek" unicode="&#x172;" horiz-adv-x="1628" 
d="M854 -20q-260 0 -421 134t-161 361v938l-190 -10l20 51h469l-20 -41l-107 -10q-36 -3 -52.5 -30.5t-16.5 -82.5v-794q0 -207 144 -326t378 -119q186 0 306 125t120 320v917l-215 -10l20 51h418l-20 -41l-86 -10q-37 -4 -53.5 -31.5t-16.5 -81.5v-794q0 -154 -68.5 -272.5
t-189.5 -182.5q-57 -43 -95 -106.5t-38 -114.5q0 -54 36.5 -87.5t100.5 -33.5q89 0 166 72l10 -15q-51 -62 -109.5 -100.5t-113.5 -38.5q-67 0 -118.5 46t-51.5 116q0 47 30.5 108.5t86.5 114.5q-77 -22 -162 -22z" />
    <glyph glyph-name="uogonek" unicode="&#x173;" horiz-adv-x="1146" 
d="M449 -20q-107 0 -165.5 67.5t-58.5 188.5v696l-174 31v30q189 31 246 31h20v-748q0 -118 42.5 -166.5t134.5 -48.5q168 0 335 99v772l-174 31v30q118 31 246 31h21v-928l174 -30v-31q-65 -39 -110.5 -109t-45.5 -127q0 -54 36.5 -87.5t100.5 -33.5q89 0 166 72l10 -14
q-51 -62 -109.5 -100.5t-113.5 -38.5q-67 0 -118.5 45.5t-51.5 115.5q0 54 37.5 122.5t106.5 123.5q-80 -24 -123 -24h-21l-20 137h-21q-102 -70 -190 -103.5t-180 -33.5z" />
    <glyph glyph-name="Wcircumflex" unicode="&#x174;" horiz-adv-x="2215" 
d="M1522 -20l-359 1009l-407 -1009h-31l-541 1433l-174 -10l21 51h518l-21 -41l-88 -10q-82 -9 -99 -41t15 -117l416 -1100l369 912l-127 356l-183 -10l21 51h516l-20 -41l-91 -10q-78 -9 -91.5 -37.5t18.5 -122.5l379 -1077l389 1247l-285 -10l21 51h518l-21 -41l-94 -10
q-56 -6 -86.5 -49.5t-62.5 -145.5l-390 -1228h-30zM805 1608q82 102 180.5 209.5t118.5 107.5t120.5 -108.5t178.5 -208.5l-12 -11l-287 236l-287 -236z" />
    <glyph glyph-name="wcircumflex" unicode="&#x175;" horiz-adv-x="1591" 
d="M1096 -20l-271 710l-313 -710h-20l-349 983l-133 -11l21 52h440l-20 -41h-123q-49 0 -57 -29t16 -92l243 -699l271 607l-80 213l-182 -11l20 52h490l-21 -41h-115q-53 0 -66 -26.5t9 -78.5l272 -700l263 805l-199 -11l20 52h369l-20 -41h-43q-45 0 -69 -23t-52 -106
l-281 -854h-20zM520 1157q248 399 279 399q30 0 278 -399l-12 -10l-266 307l-267 -307z" />
    <glyph glyph-name="Ycircumflex" unicode="&#x176;" horiz-adv-x="1402" 
d="M444 0l21 41l59 10q68 12 100.5 49t32.5 103v418l-487 792l-160 -10l21 51h506l-21 -41l-86 -10q-69 -8 -85 -30t15 -75l385 -624l439 739l-211 -10l20 51h400l-21 -41l-84 -8q-39 -4 -58 -18t-44 -54l-426 -712v-580l215 10l-21 -51h-510zM459 1608q82 102 180.5 209.5
t118.5 107.5t120.5 -108.5t178.5 -208.5l-13 -11l-286 236l-287 -236z" />
    <glyph glyph-name="ycircumflex" unicode="&#x177;" horiz-adv-x="1136" 
d="M215 -492q-49 0 -88 66q-30 49 -22 71q2 7 8 7h151q45 0 76.5 11.5t58 42t45.5 66.5t48 103l47 111l-387 977l-142 -11l21 52h465l-21 -41h-125q-54 0 -64.5 -20t15.5 -89l291 -743l360 852l-215 -11l21 52h368l-20 -41h-55q-31 0 -49 -24.5t-52 -104.5l-409 -963
q-79 -187 -153 -275t-173 -88zM322 1157q248 399 278 399q31 0 279 -399l-13 -10l-266 307l-266 -307z" />
    <glyph glyph-name="Ydieresis" unicode="&#x178;" horiz-adv-x="1402" 
d="M444 0l21 41l59 10q68 12 100.5 49t32.5 103v418l-487 792l-160 -10l21 51h506l-21 -41l-86 -10q-69 -8 -85 -30t15 -75l385 -624l439 739l-211 -10l20 51h400l-21 -41l-84 -8q-39 -4 -58 -18t-44 -54l-426 -712v-580l215 10l-21 -51h-510zM571 1796q0 30 21 51t51 21
q29 0 48.5 -21t19.5 -51q0 -29 -19.5 -49.5t-48.5 -20.5q-31 0 -51.5 20.5t-20.5 49.5zM807 1796q0 30 21 51t51 21q29 0 48 -21t19 -51t-19 -50t-48 -20q-31 0 -51.5 20.5t-20.5 49.5z" />
    <glyph glyph-name="Zacute" unicode="&#x179;" horiz-adv-x="1198" 
d="M72 0l-21 41l977 1380l-635 -14q-109 -3 -183.5 -96.5t-117.5 -294.5h-31l91 459q164 -21 282 -21h692l21 -41l-977 -1380l661 14q103 3 171 111t114 321h31l-74 -499q-157 20 -282 20h-719zM473 1608q19 20 58.5 62t61.5 65l55 57.5t52.5 54t40.5 40t33 29.5t17 9
q12 0 22 -13.5t10 -33.5q0 -7 -1.5 -12.5t-5.5 -11.5t-7 -10t-11 -10.5t-12 -10t-15.5 -11.5t-16.5 -12l-275 -203z" />
    <glyph glyph-name="zacute" unicode="&#x17a;" horiz-adv-x="940" 
d="M98 0l-20 41l676 930l-346 -8q-62 -1 -103.5 -25.5t-82.5 -86.5t-99 -187h-31l90 360q120 -20 232 -20h422l20 -41l-676 -932l340 10q63 2 104.5 15.5t81.5 53t75 107t77 180.5h31l-90 -397h-701zM375 1157q313 399 334 399q17 0 28 -10.5t11 -27.5q0 -7 -1.5 -13.5
t-3.5 -11.5t-7 -12.5t-7.5 -11.5t-11 -12.5t-12 -11.5t-14.5 -13.5t-15 -14.5l-289 -270z" />
    <glyph glyph-name="Zdotaccent" unicode="&#x17b;" horiz-adv-x="1198" 
d="M72 0l-21 41l977 1380l-635 -14q-109 -3 -183.5 -96.5t-117.5 -294.5h-31l91 459q164 -21 282 -21h692l21 -41l-977 -1380l661 14q103 3 171 111t114 321h31l-74 -499q-157 20 -282 20h-719zM545 1819q0 33 24.5 57.5t57.5 24.5q32 0 55 -24.5t23 -57.5q0 -34 -23 -57
t-55 -23q-34 0 -58 24t-24 56z" />
    <glyph glyph-name="zdotaccent" unicode="&#x17c;" horiz-adv-x="940" 
d="M98 0l-20 41l676 930l-346 -8q-62 -1 -103.5 -25.5t-82.5 -86.5t-99 -187h-31l90 360q120 -20 232 -20h422l20 -41l-676 -932l340 10q63 2 104.5 15.5t81.5 53t75 107t77 180.5h31l-90 -397h-701zM444 1368q0 33 24.5 57.5t57.5 24.5q32 0 55 -24.5t23 -57.5
q0 -34 -23 -57t-55 -23q-34 0 -58 24t-24 56z" />
    <glyph glyph-name="Zcaron" unicode="&#x17d;" horiz-adv-x="1198" 
d="M72 0l-21 41l977 1380l-635 -14q-109 -3 -183.5 -96.5t-117.5 -294.5h-31l91 459q164 -21 282 -21h692l21 -41l-977 -1380l661 14q103 3 171 111t114 321h31l-74 -499q-157 20 -282 20h-719zM326 1915l12 10l287 -235l286 235l13 -10q-79 -100 -179 -209t-120 -109
t-118 107.5t-181 210.5z" />
    <glyph glyph-name="zcaron" unicode="&#x17e;" horiz-adv-x="940" 
d="M98 0l-20 41l676 930l-346 -8q-62 -1 -103.5 -25.5t-82.5 -86.5t-99 -187h-31l90 360q120 -20 232 -20h422l20 -41l-676 -932l340 10q63 2 104.5 15.5t81.5 53t75 107t77 180.5h31l-90 -397h-701zM242 1546l12 10l266 -307l266 307l13 -10q-248 -399 -279 -399
q-30 0 -278 399z" />
    <glyph glyph-name="florin" unicode="&#x192;" horiz-adv-x="1228" 
d="M649 1245q8 67 30 121t61 98t102.5 68t146.5 24q43 0 107.5 -12.5t110.5 -27.5t46 -23q0 -24 -28 -61t-49 -37q-11 0 -32 7t-49.5 20t-55 25.5t-62.5 30t-57 27.5h-21q-67 0 -104 -52t-54 -179l-32 -268l6 -2h362v-41h-375l-124 -994q-8 -67 -30 -121t-61 -98t-102.5 -68
t-146.5 -24q-43 0 -107.5 12.5t-111 27.5t-46.5 23q0 24 28.5 61.5t49.5 37.5q14 0 45.5 -12t61 -26.5t78 -38t71.5 -34.5h21q67 0 103.5 52.5t53.5 179.5l129 1022h-217v30l224 27z" />
    <glyph glyph-name="uni0218" unicode="&#x218;" horiz-adv-x="1058" 
d="M528 -20q-108 0 -218.5 35.5t-178.5 80.5l-59 367h30q23 -103 61.5 -180t83.5 -122.5t102.5 -73t111.5 -37t119 -9.5q145 0 238 79t93 202q0 117 -84 198.5t-295 165.5q-229 92 -324 178.5t-95 218.5q0 169 131 280.5t327 111.5q112 0 194 -25.5t161 -79.5l39 -326h-31
q-33 110 -77 184.5t-98 113.5t-110.5 55t-128.5 16q-145 0 -238.5 -77.5t-93.5 -200.5q0 -80 32 -134t119 -108t255 -121q97 -38 164.5 -75.5t121.5 -85t80.5 -106.5t26.5 -132q0 -169 -131.5 -281t-327.5 -112zM465 -197q0 36 26.5 58t55.5 22q38 0 69 -29t31 -90
q0 -78 -37 -154t-94 -128l-20 6q65 96 65 182q0 28 -15 51t-33 35t-33 24.5t-15 22.5z" />
    <glyph glyph-name="uni0219" unicode="&#x219;" horiz-adv-x="841" 
d="M418 -20q-179 0 -326 81l-20 261h30q84 -295 344 -295q90 0 144.5 46t54.5 138q0 86 -61.5 145t-194.5 121q-148 68 -216.5 130t-68.5 157q0 101 86.5 180.5t233.5 79.5q169 0 264 -61l21 -261h-31q-22 81 -55 138t-72 86.5t-76.5 42t-77.5 12.5q-88 0 -144 -50t-56 -136
q0 -42 18 -77t57.5 -65.5t80 -53t106.5 -52.5q156 -71 218 -135.5t62 -167.5q0 -119 -85.5 -191.5t-235.5 -72.5zM299 -197q0 36 26.5 58t55.5 22q38 0 69 -29t31 -90q0 -78 -37 -154t-94 -128l-20 6q65 96 65 182q0 28 -15 51t-33 35t-33 24.5t-15 22.5z" />
    <glyph glyph-name="uni021A" unicode="&#x21a;" horiz-adv-x="1288" 
d="M362 0l21 41l127 10q42 3 64 31.5t22 75.5v1255h-262q-74 0 -121.5 -26.5t-85 -100t-66.5 -209.5h-30l61 398q164 -21 283 -21h538q119 0 283 21l61 -398h-30q-29 136 -66.5 209.5t-85 100t-121.5 26.5h-256v-1372l215 10l-20 -51h-531zM549 -197q0 36 26.5 58t55.5 22
q38 0 69 -29t31 -90q0 -78 -37 -154t-94 -128l-20 6q65 96 65 182q0 28 -15 51t-33 35t-33 24.5t-15 22.5z" />
    <glyph glyph-name="uni021B" unicode="&#x21b;" horiz-adv-x="659" 
d="M377 -20q-96 0 -150.5 49.5t-54.5 144.5v789h-141v41l141 16l64 188h28v-204h352v-41h-352v-752q0 -76 35.5 -116t130.5 -40q96 0 188 27l11 -10q-116 -92 -252 -92zM285 -197q0 36 26.5 58t55.5 22q38 0 69 -29t31 -90q0 -78 -37 -154t-94 -128l-21 6q66 97 66 182
q0 28 -15 51t-33 35t-33 24.5t-15 22.5z" />
    <glyph glyph-name="uni0237" unicode="&#x237;" horiz-adv-x="479" 
d="M10 -481q80 72 142.5 199.5t62.5 283.5v926l-174 30v31q179 35 266 35h21q-21 -205 -21 -371v-651q0 -95 -27.5 -180t-72 -145t-91.5 -102t-96 -67z" />
    <glyph glyph-name="circumflex" unicode="&#x2c6;" horiz-adv-x="598" 
d="M565 1147l-266 307l-266 -307l-13 10q248 399 279 399t279 -399z" />
    <glyph glyph-name="caron" unicode="&#x2c7;" horiz-adv-x="598" 
d="M578 1546q-248 -399 -279 -399t-279 399l13 10l266 -307l266 307z" />
    <glyph glyph-name="breve" unicode="&#x2d8;" horiz-adv-x="487" 
d="M244 1188q-75 0 -132.5 50.5t-84.5 123t-27 151.5l12 11q7 -46 23.5 -88.5t43.5 -81t69.5 -61.5t95.5 -23q45 0 83.5 22.5t66 62.5t46 79.5t35.5 89.5l12 -11q-6 -48 -17 -92t-30.5 -87.5t-46 -75t-65 -51t-84.5 -19.5z" />
    <glyph glyph-name="dotaccent" unicode="&#x2d9;" horiz-adv-x="204" 
d="M104 1288q-34 0 -57.5 24t-23.5 56q0 33 24 57.5t57 24.5q32 0 55 -24.5t23 -57.5q0 -34 -23 -57t-55 -23z" />
    <glyph glyph-name="ring" unicode="&#x2da;" horiz-adv-x="370" 
d="M186 1163q-66 0 -110.5 40t-44.5 106t44.5 105.5t110.5 39.5t110 -39.5t44 -105.5t-44 -106t-110 -40zM113 1309q0 -54 20.5 -84.5t52.5 -30.5q31 0 51.5 31t20.5 84t-20.5 83.5t-51.5 30.5q-32 0 -52.5 -30t-20.5 -84z" />
    <glyph glyph-name="ogonek" unicode="&#x2db;" horiz-adv-x="419" 
d="M238 -401q-67 0 -118.5 45.5t-51.5 115.5q0 68 57.5 154t159.5 139l18 -16q-65 -39 -110.5 -109t-45.5 -127q0 -54 36.5 -87t101.5 -33q90 0 166 71l10 -14q-51 -62 -109.5 -100.5t-113.5 -38.5z" />
    <glyph glyph-name="tilde" unicode="&#x2dc;" horiz-adv-x="698" 
d="M61 1200q39 97 91 149t106 52q38 0 82.5 -28.5t85 -57.5t68.5 -29q36 0 68.5 34.5t68.5 111.5l12 -11q-33 -92 -83.5 -151.5t-98.5 -59.5q-33 0 -80 29t-92 57.5t-72 28.5q-39 0 -73 -31t-70 -104z" />
    <glyph glyph-name="hungarumlaut" unicode="&#x2dd;" horiz-adv-x="407" 
d="M0 1157q40 119 106.5 259t88.5 140q38 0 38 -57q0 -13 -10 -35t-27.5 -50.5t-31.5 -50t-33 -48.5t-22 -31l-97 -137zM199 1157q171 359 198 359q11 0 25 -18.5t14 -37.5q0 -46 -133 -203l-92 -110z" />
    <glyph glyph-name="gravecomb" unicode="&#x300;" horiz-adv-x="0" 
d="M496 1157l-13 -10l-288 270q-4 4 -15 14.5t-14.5 13.5t-12 11.5t-11 12.5t-7.5 11.5t-7 12.5t-3.5 11.5t-1.5 13.5q0 17 11 27.5t28 10.5q20 0 334 -399z" />
    <glyph glyph-name="acutecomb" unicode="&#x301;" horiz-adv-x="0" 
d="M4 1157q313 399 334 399q17 0 28 -10.5t11 -27.5q0 -7 -1.5 -13.5t-3.5 -11.5t-7 -12.5t-7.5 -11.5t-11 -12.5t-12 -11.5t-14.5 -13.5t-15 -14.5l-289 -270z" />
    <glyph glyph-name="uni0302" unicode="&#x302;" horiz-adv-x="0" 
d="M565 1147l-266 307l-266 -307l-13 10q248 399 279 399t279 -399z" />
    <glyph glyph-name="tildecomb" unicode="&#x303;" horiz-adv-x="0" 
d="M61 1200q39 97 91 149t106 52q38 0 82.5 -28.5t85 -57.5t68.5 -29q36 0 68.5 34.5t68.5 111.5l12 -11q-33 -92 -83.5 -151.5t-98.5 -59.5q-33 0 -80 29t-92 57.5t-72 28.5q-39 0 -73 -31t-70 -104z" />
    <glyph glyph-name="uni0304" unicode="&#x304;" horiz-adv-x="0" 
d="M20 1262q0 25 14.5 38t37.5 13h434q0 -25 -14 -38t-37 -13h-435z" />
    <glyph glyph-name="uni0306" unicode="&#x306;" horiz-adv-x="0" 
d="M244 1188q-75 0 -132.5 50.5t-84.5 123t-27 151.5l12 11q7 -46 23.5 -88.5t43.5 -81t69.5 -61.5t95.5 -23q45 0 83.5 22.5t66 62.5t46 79.5t35.5 89.5l12 -11q-6 -48 -17 -92t-30.5 -87.5t-46 -75t-65 -51t-84.5 -19.5z" />
    <glyph glyph-name="uni0307" unicode="&#x307;" horiz-adv-x="0" 
d="M104 1288q-34 0 -57.5 24t-23.5 56q0 33 24 57.5t57 24.5q32 0 55 -24.5t23 -57.5q0 -34 -23 -57t-55 -23z" />
    <glyph glyph-name="uni0308" unicode="&#x308;" horiz-adv-x="0" 
d="M373 1268q-34 0 -57 23t-23 55t23 54.5t57 22.5q32 0 54 -22.5t22 -54.5q0 -34 -22 -56t-54 -22zM31 1346q0 32 23 54.5t57 22.5q32 0 53.5 -22.5t21.5 -54.5q0 -33 -21.5 -55.5t-53.5 -22.5q-34 0 -57 23t-23 55z" />
    <glyph glyph-name="uni030A" unicode="&#x30a;" horiz-adv-x="0" 
d="M186 1163q-66 0 -110.5 40t-44.5 106t44.5 105.5t110.5 39.5t110 -39.5t44 -105.5t-44 -106t-110 -40zM113 1309q0 -54 20.5 -84.5t52.5 -30.5q31 0 51.5 31t20.5 84t-20.5 83.5t-51.5 30.5q-32 0 -52.5 -30t-20.5 -84z" />
    <glyph glyph-name="uni030B" unicode="&#x30b;" horiz-adv-x="0" 
d="M0 1157q40 119 106.5 259t88.5 140q38 0 38 -57q0 -13 -10 -35t-27.5 -50.5t-31.5 -50t-33 -48.5t-22 -31l-97 -137zM199 1157q171 359 198 359q11 0 25 -18.5t14 -37.5q0 -46 -133 -203l-92 -110z" />
    <glyph glyph-name="uni030C" unicode="&#x30c;" horiz-adv-x="0" 
d="M578 1546q-248 -399 -279 -399t-279 399l13 10l266 -307l266 307z" />
    <glyph glyph-name="uni0312" unicode="&#x312;" horiz-adv-x="0" 
d="M252 1538q-66 -97 -66 -182q0 -28 15 -51t33.5 -35t33.5 -24.5t15 -22.5q0 -36 -26.5 -58t-55.5 -22q-38 0 -69.5 29t-31.5 90q0 78 37 154t94 128z" />
    <glyph glyph-name="uni0326" unicode="&#x326;" horiz-adv-x="0" 
d="M109 -512q65 96 65 182q0 28 -15 51t-33 35t-33 24.5t-15 22.5q0 36 26.5 58t55.5 22q38 0 69 -29t31 -90q0 -78 -37 -154t-94 -128z" />
    <glyph glyph-name="uni0327" unicode="&#x327;" horiz-adv-x="0" 
d="M31 -500q100 34 142 89.5t42 101.5q0 42 -31 76t-98 73l41 160h49l-18 -78q6 -4 24.5 -17t25.5 -18t22.5 -18t22 -21t17.5 -22.5t15 -27t8 -30t4 -36.5q0 -152 -256 -244z" />
    <glyph glyph-name="uni0328" unicode="&#x328;" horiz-adv-x="0" 
d="M238 -401q-67 0 -118.5 45.5t-51.5 115.5q0 68 57.5 154t159.5 139l18 -16q-65 -39 -110.5 -109t-45.5 -127q0 -54 36.5 -87t101.5 -33q90 0 166 71l10 -14q-51 -62 -109.5 -100.5t-113.5 -38.5z" />
    <glyph glyph-name="uni0394" unicode="&#x394;" horiz-adv-x="1218" 
d="M10 0l594 1454h10l594 -1454h-1198zM88 51h985l-489 1227z" />
    <glyph glyph-name="uni03A9" unicode="&#x3a9;" horiz-adv-x="1589" 
d="M852 41q142 115 233 204t155.5 182.5t92 186.5t27.5 205q0 134 -44 248t-120 191.5t-180 121t-221 43.5q-157 0 -285.5 -74t-204.5 -213t-76 -317q0 -112 27.5 -205t92 -186.5t155.5 -182.5t233 -204l-41 -41h-624l-21 113l588 -62q-58 44 -89 68t-83 66.5t-81 70.5
t-70 72t-64.5 79.5t-50.5 83t-41 93.5t-23.5 101t-9.5 114q0 148 52 275t142 214.5t212.5 137t261.5 49.5q186 0 337.5 -84t240.5 -239.5t89 -352.5q0 -59 -9.5 -114t-23.5 -101t-41 -93.5t-50.5 -83t-64.5 -79.5t-70 -72t-81 -70.5t-83 -66.5t-89 -68l588 62l-20 -113h-625
z" />
    <glyph glyph-name="uni03BC" unicode="&#x3bc;" horiz-adv-x="1105" 
d="M449 -20q-107 0 -165.5 67.5t-58.5 188.5v696l-174 31v30q189 31 246 31h20v-748q0 -118 42.5 -166.5t134.5 -48.5q168 0 335 99v772l-174 31v30q118 31 246 31h21v-928l174 -30v-31q-54 -23 -120.5 -39t-94.5 -16h-21l-20 137h-21q-102 -70 -190 -103.5t-180 -33.5z
M188 297l29 -21q-9 -100 -10 -181.5t7 -174t34.5 -176.5t70.5 -154l-122 -82q-17 30 -27.5 76t-13.5 107t-3.5 115t5 132.5t9 125.5t11.5 126.5t10 106.5z" />
    <glyph glyph-name="pi" unicode="&#x3c0;" horiz-adv-x="1122" 
d="M885 -20q-33 0 -57 10t-45.5 37.5t-36.5 80t-23 132.5q-15 159 -8.5 309.5t39.5 382.5h-308q0 -236 -16.5 -523.5t-46.5 -428.5q-35 -1 -61.5 3.5t-38.5 9.5t-37 17q65 135 115 428t26 494h-8q-138 0 -307 -113l-21 21q60 86 137.5 125t210.5 39h662q3 -27 -1.5 -40.5
t-10.5 -17t-29 -14.5h-203q-65 -501 -18 -656q14 -47 28.5 -78.5t38 -60t53.5 -40t75.5 -9t103.5 22.5l14 -31q-161 -100 -227 -100z" />
    <glyph glyph-name="uni0400" unicode="&#x400;" horiz-adv-x="1271" 
d="M84 0l20 41l89 10q41 4 62 33.5t21 75.5v1253l-194 -10l20 51h713q119 0 283 21l61 -398h-31q-29 136 -66.5 209.5t-84.5 100t-121 26.5h-477v-635h283q33 0 51 2t41 14t35.5 35.5t24 67.5t17.5 109h31v-496h-31q-6 65 -17.5 109t-24 67.5t-36 35t-40.5 13.5t-51 2h-283
v-696h518q34 0 57.5 4t51.5 16.5t50.5 38t47.5 66.5t48.5 104t47.5 148h31l-103 -438q-102 20 -182 20h-862zM473 1878q0 20 10 33.5t23 13.5q5 0 17 -9.5t32.5 -29t41 -40t52 -53.5t55 -58t60.5 -64.5t59 -62.5l-6 -11l-274 203q-6 4 -19 14t-17.5 13.5t-13 11t-11.5 12.5
t-6 12t-3 15z" />
    <glyph glyph-name="uni0401" unicode="&#x401;" horiz-adv-x="1271" 
d="M84 0l20 41l89 10q41 4 62 33.5t21 75.5v1253l-194 -10l20 51h713q119 0 283 21l61 -398h-31q-29 136 -66.5 209.5t-84.5 100t-121 26.5h-477v-635h283q33 0 51 2t41 14t35.5 35.5t24 67.5t17.5 109h31v-496h-31q-6 65 -17.5 109t-24 67.5t-36 35t-40.5 13.5t-51 2h-283
v-696h518q34 0 57.5 4t51.5 16.5t50.5 38t47.5 66.5t48.5 104t47.5 148h31l-103 -438q-102 20 -182 20h-862zM485 1796q0 30 21 51t51 21q29 0 48.5 -21t19.5 -51q0 -29 -19.5 -49.5t-48.5 -20.5q-31 0 -51.5 20.5t-20.5 49.5zM721 1796q0 30 21 51t51 21q29 0 48 -21
t19 -51t-19 -50t-48 -20q-31 0 -51.5 20.5t-20.5 49.5z" />
    <glyph glyph-name="uni0402" unicode="&#x402;" horiz-adv-x="1646" 
d="M1071 -362q-72 0 -123 24.5t-51 79.5q0 53 45 53l262 -92q127 61 190.5 208.5t63.5 422.5q0 131 -27 221t-80 138.5t-118.5 68.5t-155.5 20q-201 0 -379 -108v-633l215 10l-20 -51h-531l21 41l127 10q42 3 64 31.5t22 75.5v1255h-262q-74 0 -121.5 -26.5t-85 -100
t-66.5 -209.5h-30l61 398q164 -21 283 -21h538q119 0 283 21l61 -398h-30q-29 136 -66.5 209.5t-85 100t-121.5 26.5h-256v-682q223 133 420 133q103 0 181.5 -24.5t140.5 -81t94.5 -158t32.5 -246.5q0 -207 -57 -367.5t-170.5 -254.5t-268.5 -94z" />
    <glyph glyph-name="uni0403" unicode="&#x403;" horiz-adv-x="1120" 
d="M84 0l20 41l86 10q86 10 86 111v1251l-194 -10l20 51h633q119 0 283 21l61 -398h-30q-29 136 -66.5 209.5t-85 100t-121.5 26.5h-307q-45 0 -67.5 -35.5t-22.5 -97.5v-1239l235 10l-20 -51h-510zM508 1608q22 23 59 62.5t60.5 64.5t55 58t52 53.5t41 40t32.5 29t17 9.5
q13 0 23 -13.5t10 -33.5q0 -8 -3 -15t-6 -12t-11.5 -12.5t-13 -11t-17.5 -13.5t-19 -14l-274 -203z" />
    <glyph glyph-name="uni0404" unicode="&#x404;" horiz-adv-x="1409" 
d="M752 -20q-202 0 -358.5 99.5t-239 267.5t-82.5 374q0 158 50.5 296t141.5 239.5t226.5 160t297.5 58.5q127 0 247.5 -30.5t203.5 -74.5l80 -366h-31q-48 125 -104.5 209t-122.5 129t-133 63t-152 18q-134 0 -244 -52t-183.5 -143t-113.5 -216t-40 -271v-12h426
q28 0 43 1.5t36 8t33 20.5t24.5 38.5t20.5 64t13 94.5h30v-495h-30q-5 55 -13 94.5t-20.5 64t-24.5 38.5t-33 20.5t-36 8t-43 1.5h-424q6 -136 46.5 -254.5t110 -208.5t174.5 -142t232 -52q193 0 305 82t178 282q109 0 109 -106q0 -51 -46 -105.5t-123.5 -99.5t-192 -74.5
t-238.5 -29.5z" />
    <glyph glyph-name="uni0405" unicode="&#x405;" horiz-adv-x="1058" 
d="M528 -20q-108 0 -218.5 35.5t-178.5 80.5l-59 367h30q23 -103 61.5 -180t83.5 -122.5t102.5 -73t111.5 -37t119 -9.5q145 0 238 79t93 202q0 117 -84 198.5t-295 165.5q-229 92 -324 178.5t-95 218.5q0 169 131 280.5t327 111.5q112 0 194 -25.5t161 -79.5l39 -326h-31
q-33 110 -77 184.5t-98 113.5t-110.5 55t-128.5 16q-145 0 -238.5 -77.5t-93.5 -200.5q0 -80 32 -134t119 -108t255 -121q97 -38 164.5 -75.5t121.5 -85t80.5 -106.5t26.5 -132q0 -169 -131.5 -281t-327.5 -112z" />
    <glyph glyph-name="uni0406" unicode="&#x406;" horiz-adv-x="657" 
d="M84 0l20 41l86 10q49 6 67.5 28.5t18.5 78.5v1255l-194 -10l20 51h473l-20 -41l-86 -10q-90 -12 -90 -133v-1229l194 10l-20 -51h-469z" />
    <glyph glyph-name="uni0407" unicode="&#x407;" horiz-adv-x="657" 
d="M84 0l20 41l86 10q49 6 67.5 28.5t18.5 78.5v1255l-194 -10l20 51h473l-20 -41l-86 -10q-90 -12 -90 -133v-1229l194 10l-20 -51h-469zM152 1796q0 30 20.5 51t50.5 21q29 0 48.5 -21t19.5 -51q0 -29 -19.5 -49.5t-48.5 -20.5q-31 0 -51 20t-20 50zM387 1796q0 30 21 51
t51 21q29 0 48 -21t19 -51t-19 -50t-48 -20q-31 0 -51.5 20.5t-20.5 49.5z" />
    <glyph glyph-name="uni0408" unicode="&#x408;" horiz-adv-x="591" 
d="M-72 -451q139 81 221 234.5t82 372.5v1257l-231 -10l20 51h531l-21 -41l-127 -10q-36 -3 -52.5 -30.5t-16.5 -82.5v-1054q0 -148 -32 -270t-88.5 -207t-125 -141.5t-149.5 -88.5z" />
    <glyph glyph-name="uni0409" unicode="&#x409;" horiz-adv-x="1955" 
d="M166 -20q-33 0 -69 42t-36 78q66 20 118.5 57t89 83.5t63.5 110.5t43 129t25.5 148t12.5 158t3 168v459l-275 -10l21 51h1141l-21 -41l-86 -10q-90 -12 -90 -133v-451h258q240 0 380 -110t140 -299t-141.5 -299.5t-384.5 -110.5h-547l20 41l89 10q84 9 84 111v1251h-545
v-434q0 -80 -0.5 -133.5t-2.5 -126.5t-6.5 -123.5t-12 -114t-19 -109t-27 -97.5t-37.5 -91t-49 -78t-62 -70t-77 -56zM1106 41h301q163 0 258.5 99.5t95.5 269.5t-113 269t-305 99h-237v-737z" />
    <glyph glyph-name="uni040A" unicode="&#x40a;" horiz-adv-x="2187" 
d="M84 0l20 41l86 10q42 4 64 32.5t22 74.5v1255l-194 -10l20 51h473l-20 -41l-86 -10q-90 -12 -90 -133v-482h846v625l-195 -10l21 51h473l-21 -41l-86 -10q-90 -12 -90 -133v-482h258q246 0 388.5 -96.5t142.5 -281.5q0 -188 -146.5 -299t-390.5 -111h-547l21 41l88 10
q84 9 84 111v586h-846v-707l194 10l-20 -51h-469zM1327 41h301q164 0 264.5 100t100.5 269q0 166 -115 252t-313 86h-238v-707z" />
    <glyph glyph-name="uni040B" unicode="&#x40b;" horiz-adv-x="1843" 
d="M1268 0l20 41l86 10q90 12 90 133v314q0 148 -78 216t-247 68q-106 0 -227 -30.5t-214 -81.5v-629l215 10l-20 -51h-531l21 41l127 10q42 3 64 31.5t22 75.5v1255h-262q-74 0 -121.5 -26.5t-85 -100t-66.5 -209.5h-30l61 398q164 -21 283 -21h538q119 0 283 21l61 -398
h-30q-29 136 -66.5 209.5t-85 100t-121.5 26.5h-256v-684q116 62 249 98.5t233 36.5q198 0 292.5 -88.5t94.5 -277.5v-457l194 10l-20 -51h-473z" />
    <glyph glyph-name="uni040C" unicode="&#x40c;" horiz-adv-x="1421" 
d="M1389 -20q-146 0 -230 32t-153 107l-512 565v21l677 708l-237 -10l20 51h457l-20 -41q-103 -7 -152.5 -30.5t-112.5 -88.5l-546 -569l444 -471q95 -100 177 -156t198 -98zM82 1403l20 51h473l-20 -41l-86 -10q-90 -12 -90 -133v-1229l194 10l-20 -51h-469l20 41l86 10
q42 4 64 32.5t22 74.5v1255zM590 1608q22 23 59 62.5t60.5 64.5t55 58t52 53.5t41 40t32.5 29t17 9.5q13 0 23 -13.5t10 -33.5q0 -8 -3 -15t-6 -12t-11.5 -12.5t-13 -11t-17.5 -13.5t-19 -14l-274 -203z" />
    <glyph glyph-name="uni040D" unicode="&#x40d;" horiz-adv-x="1650" 
d="M379 61v-61h-295l20 41l86 10q42 4 64 32.5t22 74.5v1255l-194 -10l20 51h473l-20 -41l-86 -10q-90 -12 -90 -133v-1049l833 1018q32 40 45 74t13 80v61h299l-21 -41l-86 -10q-90 -12 -90 -133v-1229l195 10l-21 -51h-469l21 41l86 10q42 4 64 32.5t22 74.5v1077
l-834 -1020q-32 -38 -44.5 -72t-12.5 -82zM700 1878q0 20 10 33.5t23 13.5q5 0 17 -9t33 -29.5t40.5 -40t52.5 -54l55 -57.5t61.5 -65t58.5 -62l-7 -11l-274 203q-6 4 -19 14t-17.5 13.5t-13 11t-11.5 12.5t-6 12t-3 15z" />
    <glyph glyph-name="uni040E" unicode="&#x40e;" horiz-adv-x="1402" 
d="M270 -20q-96 0 -96 106q176 0 303 48t172 151q23 52 31 87t-1.5 86t-45.5 115l-463 840l-160 -10l21 51h518l-21 -41l-118 -8q-116 -7 -60 -107l422 -774l406 889l-205 -10l20 51h400l-21 -41l-84 -8q-42 -5 -62.5 -18t-39.5 -54l-486 -1063q-37 -82 -92 -142t-115 -90.5
t-115 -44t-108 -13.5zM504 1819q0 112 114 112q-29 -141 14 -223t146 -82t147 82t15 223q115 0 115 -112q0 -98 -75.5 -161t-201.5 -63q-124 0 -199 63t-75 161z" />
    <glyph glyph-name="uni040F" unicode="&#x40f;" horiz-adv-x="1607" 
d="M82 0l20 51l195 -10v1372l-195 -10l21 51h469l-21 -41l-86 -10q-42 -4 -64 -32.5t-22 -74.5v-1255h740q45 0 67.5 35.5t22.5 97.5v1239l-195 -10l21 51h469l-21 -41l-86 -10q-42 -4 -64 -32.5t-22 -74.5v-1255l195 10l-21 -51h-678q33 -322 33 -471h-98q0 149 33 471
h-713z" />
    <glyph glyph-name="uni0410" unicode="&#x410;" horiz-adv-x="1501" 
d="M1004 0l20 41l109 10q62 6 72 32t-21 93l-121 260h-684l-156 -395l211 10l-20 -51h-404l21 41l73 10q45 6 73.5 34t55.5 97l433 1094q-86 114 -242 158l10 20h271l659 -1413l127 10l-21 -51h-466zM395 477h649l-346 742l-6 14z" />
    <glyph glyph-name="uni0411" unicode="&#x411;" horiz-adv-x="1249" 
d="M84 0l20 41l89 10q83 9 83 111v1251l-194 -10l20 51h654q118 0 282 21l62 -398h-31q-29 136 -66.5 209.5t-84.5 100t-121 26.5h-328q-45 0 -67.5 -35.5t-22.5 -97.5v-461h278q240 0 380.5 -110t140.5 -299t-142 -299.5t-385 -110.5h-567zM379 41h321q163 0 259 99.5
t96 269.5t-113 269t-305 99h-258v-737z" />
    <glyph glyph-name="uni0412" unicode="&#x412;" horiz-adv-x="1269" 
d="M84 0l20 41l89 10q83 9 83 111v1251l-194 -10l20 51h551q218 0 345.5 -94.5t127.5 -257.5q0 -142 -81 -234t-222 -112q175 -20 275 -119t100 -254q0 -177 -141.5 -280t-384.5 -103h-588zM379 41h342q163 0 258.5 92t95.5 250q0 160 -113 254t-305 94h-278v-690zM379 772
h301q149 0 236.5 89t87.5 241q0 143 -105 227t-283 84h-237v-641z" />
    <glyph glyph-name="uni0413" unicode="&#x413;" horiz-adv-x="1120" 
d="M84 0l20 41l86 10q86 10 86 111v1251l-194 -10l20 51h633q119 0 283 21l61 -398h-30q-29 136 -66.5 209.5t-85 100t-121.5 26.5h-307q-45 0 -67.5 -35.5t-22.5 -97.5v-1239l235 10l-20 -51h-510z" />
    <glyph glyph-name="uni0414" unicode="&#x414;" horiz-adv-x="1556" 
d="M123 -471q-103 279 -103 522l195 -4q75 42 129 104t88 138.5t54.5 181.5t28 218.5t7.5 264.5v459l-274 -10l20 51h1225l-20 -41l-87 -10q-90 -12 -90 -133v-1229l240 10q0 -245 -102 -522h-31q61 238 37 354.5t-144 116.5h-1013q-136 0 -163.5 -116.5t34.5 -354.5h-31z
M383 41h725q47 0 66.5 29t19.5 88v1255h-629v-434q0 -139 -2 -236.5t-8.5 -201.5t-19 -176t-32.5 -138.5t-50 -111.5t-70 -74z" />
    <glyph glyph-name="uni0415" unicode="&#x415;" horiz-adv-x="1271" 
d="M84 0l20 41l89 10q41 4 62 33.5t21 75.5v1253l-194 -10l20 51h713q119 0 283 21l61 -398h-31q-29 136 -66.5 209.5t-84.5 100t-121 26.5h-477v-635h283q33 0 51 2t41 14t35.5 35.5t24 67.5t17.5 109h31v-496h-31q-6 65 -17.5 109t-24 67.5t-36 35t-40.5 13.5t-51 2h-283
v-696h518q34 0 57.5 4t51.5 16.5t50.5 38t47.5 66.5t48.5 104t47.5 148h31l-103 -438q-102 20 -182 20h-862z" />
    <glyph glyph-name="uni0416" unicode="&#x416;" horiz-adv-x="2084" 
d="M799 0l20 41l86 10q42 4 64 32.5t22 74.5v1255l-194 -10l20 51h473l-20 -41l-86 -10q-90 -12 -90 -133v-1229l194 10l-20 -51h-469zM31 1413l20 41h457l-21 -51l-223 10l613 -659v-21l-441 -614q-57 -80 -142.5 -109.5t-240.5 -29.5l-10 20q147 42 221.5 93t153.5 161
l375 522l-480 518q-59 64 -116.5 87.5t-165.5 31.5zM1208 733v21l613 659l-224 -10l-20 51h457l20 -41q-108 -8 -165.5 -31.5t-116.5 -87.5l-480 -518l375 -522q79 -110 153.5 -161t221.5 -93l-10 -20q-155 0 -240.5 29.5t-142.5 109.5z" />
    <glyph glyph-name="uni0417" unicode="&#x417;" horiz-adv-x="1118" 
d="M569 -20q-122 0 -234.5 37t-187.5 110t-75 164q0 38 22 60t60 22q69 -180 170 -261t258 -81q162 0 252 90t90 250q0 163 -138 261.5t-372 98.5l-19 55q220 0 348.5 97.5t128.5 263.5q0 129 -80 202.5t-225 73.5q-76 0 -133 -17.5t-111 -63t-99.5 -129t-86.5 -209.5h-31
l39 366q73 41 186 73t224 32q199 0 319.5 -89t120.5 -239q0 -126 -108 -235.5t-248 -133.5q173 -18 290.5 -119t117.5 -245q0 -206 -130 -320t-348 -114z" />
    <glyph glyph-name="uni0418" unicode="&#x418;" horiz-adv-x="1650" 
d="M379 61v-61h-295l20 41l86 10q42 4 64 32.5t22 74.5v1255l-194 -10l20 51h473l-20 -41l-86 -10q-90 -12 -90 -133v-1049l833 1018q32 40 45 74t13 80v61h299l-21 -41l-86 -10q-90 -12 -90 -133v-1229l195 10l-21 -51h-469l21 41l86 10q42 4 64 32.5t22 74.5v1077
l-834 -1020q-32 -38 -44.5 -72t-12.5 -82z" />
    <glyph glyph-name="uni0419" unicode="&#x419;" horiz-adv-x="1650" 
d="M379 61v-61h-295l20 41l86 10q42 4 64 32.5t22 74.5v1255l-194 -10l20 51h473l-20 -41l-86 -10q-90 -12 -90 -133v-1049l833 1018q32 40 45 74t13 80v61h299l-21 -41l-86 -10q-90 -12 -90 -133v-1229l195 10l-21 -51h-469l21 41l86 10q42 4 64 32.5t22 74.5v1077
l-834 -1020q-32 -38 -44.5 -72t-12.5 -82zM625 1819q0 112 114 112q-29 -141 14 -223t146 -82t147 82t15 223q115 0 115 -112q0 -98 -75.5 -161t-201.5 -63q-124 0 -199 63t-75 161z" />
    <glyph glyph-name="uni041A" unicode="&#x41a;" horiz-adv-x="1421" 
d="M1389 -20q-146 0 -230 32t-153 107l-512 565v21l677 708l-237 -10l20 51h457l-20 -41q-103 -7 -152.5 -30.5t-112.5 -88.5l-546 -569l444 -471q95 -100 177 -156t198 -98zM82 1403l20 51h473l-20 -41l-86 -10q-90 -12 -90 -133v-1229l194 10l-20 -51h-469l20 41l86 10
q42 4 64 32.5t22 74.5v1255z" />
    <glyph glyph-name="uni041B" unicode="&#x41b;" horiz-adv-x="1468" 
d="M166 -20q-33 0 -69 42t-36 78q66 20 118.5 57t89 83.5t63.5 110.5t43 129t25.5 148t12.5 158t3 168v459l-275 -10l21 51h1224l-20 -41l-86 -10q-90 -12 -90 -133v-1229l194 10l-20 -51h-469l20 41l86 10q49 6 67.5 28.5t18.5 78.5v1255h-628v-434q0 -80 -0.5 -133.5
t-2.5 -126.5t-6.5 -123.5t-12 -114t-19 -109t-27 -97.5t-37.5 -91t-49 -78t-62 -70t-77 -56z" />
    <glyph glyph-name="uni041C" unicode="&#x41c;" horiz-adv-x="1886" 
d="M397 1167l-28 62l-50 -1188l193 10l-20 -51h-404l21 41l79 10q46 6 68 27.5t23 62.5l49 1155q-44 62 -100.5 92t-145.5 46l10 20h291l571 -1298l535 1298h311l-20 -41l-64 -10q-59 -9 -84 -44.5t-22 -105.5l51 -1212l188 10l-20 -51h-496l21 41l102 10q56 6 77.5 40.5
t18.5 111.5l-49 1161l-573 -1384h-10z" />
    <glyph glyph-name="uni041D" unicode="&#x41d;" horiz-adv-x="1691" 
d="M1118 0l21 41l86 10q42 4 64 32.5t22 74.5v549h-932v-666l194 10l-20 -51h-469l20 41l86 10q42 4 64 32.5t22 74.5v1255l-194 -10l20 51h473l-20 -41l-86 -10q-90 -12 -90 -133v-522h932v665l-195 -10l21 51h473l-21 -41l-86 -10q-90 -12 -90 -133v-1229l195 10l-21 -51
h-469z" />
    <glyph glyph-name="uni041E" unicode="&#x41e;" horiz-adv-x="1544" 
d="M772 -20q-150 0 -280 55.5t-222.5 153.5t-145 237t-52.5 301q0 216 90 387t249.5 266t360.5 95q150 0 280.5 -55.5t223.5 -153.5t146 -237.5t53 -301.5t-53 -301t-146 -237t-223.5 -153.5t-280.5 -55.5zM186 768q0 -211 76.5 -375t224.5 -258t347 -94q232 0 379 171
t147 474q0 211 -77.5 375t-225.5 258t-346 94q-234 0 -379.5 -171t-145.5 -474z" />
    <glyph glyph-name="uni041F" unicode="&#x41f;" horiz-adv-x="1589" 
d="M84 0l20 41l86 10q42 4 64 32.5t22 74.5v1255l-194 -10l20 51h1405l-20 -41l-86 -10q-90 -12 -90 -133v-1229l194 10l-20 -51h-469l20 41l86 10q42 4 64 32.5t22 74.5v1255h-739q-45 0 -67.5 -35.5t-22.5 -97.5v-1239l194 10l-20 -51h-469z" />
    <glyph glyph-name="uni0420" unicode="&#x420;" horiz-adv-x="1153" 
d="M84 0l20 41l86 10q42 4 64 32.5t22 74.5v1255l-194 -10l20 51h508q264 0 419 -110.5t155 -299.5q0 -196 -133 -312t-359 -116h-313v-575l235 10l-20 -51h-510zM379 657h268q192 0 304 98t112 265q0 181 -123 287t-334 106h-227v-756z" />
    <glyph glyph-name="uni0421" unicode="&#x421;" horiz-adv-x="1437" 
d="M813 -20q-159 0 -298.5 57.5t-235.5 153.5t-151.5 223.5t-55.5 265.5q0 228 96 410t264 283.5t377 101.5q114 0 231 -30.5t199 -74.5l80 -366h-31q-48 125 -104.5 209t-122.5 129t-133 63t-152 18q-160 0 -293 -88.5t-210.5 -245.5t-77.5 -348q0 -144 44.5 -273t124 -226
t198 -154t259.5 -57q185 0 301.5 102.5t212.5 337.5h31l-119 -389q-73 -34 -116 -51t-130 -34t-188 -17z" />
    <glyph glyph-name="uni0422" unicode="&#x422;" horiz-adv-x="1284" 
d="M362 0l21 41l127 10q42 3 64 31.5t22 75.5v1255h-262q-74 0 -121.5 -26.5t-85 -100t-66.5 -209.5h-30l61 398q164 -21 283 -21h538q119 0 283 21l61 -398h-30q-29 136 -66.5 209.5t-85 100t-121.5 26.5h-256v-1372l215 10l-20 -51h-531z" />
    <glyph glyph-name="uni0423" unicode="&#x423;" horiz-adv-x="1402" 
d="M270 -20q-96 0 -96 106q176 0 303 48t172 151q23 52 31 87t-1.5 86t-45.5 115l-463 840l-160 -10l21 51h518l-21 -41l-118 -8q-116 -7 -60 -107l422 -774l406 889l-205 -10l20 51h400l-21 -41l-84 -8q-42 -5 -62.5 -18t-39.5 -54l-486 -1063q-37 -82 -92 -142t-115 -90.5
t-115 -44t-108 -13.5z" />
    <glyph glyph-name="uni0424" unicode="&#x424;" horiz-adv-x="1523" 
d="M518 0l21 41l86 10q49 6 67.5 28.5t18.5 78.5v114q-296 12 -467.5 144t-171.5 350t171.5 350t467.5 144v215l-195 -11l21 52h473l-21 -41l-86 -11q-90 -12 -90 -133v-71q296 -12 467.5 -144t171.5 -350t-171.5 -350t-467.5 -144v-231l195 10l-21 -51h-469zM195 766
q0 -194 139.5 -316.5t376.5 -134.5v902q-237 -12 -376.5 -134.5t-139.5 -316.5zM813 315q237 12 376.5 134.5t139.5 316.5t-139.5 316.5t-376.5 134.5v-902z" />
    <glyph glyph-name="uni0425" unicode="&#x425;" horiz-adv-x="1521" 
d="M897 0l21 41l131 10q146 11 67 117l-371 512l-493 -639l246 10l-21 -51h-467l21 41l90 10q85 9 182 131l416 535l-504 696l-184 -10l20 51h584l-21 -41l-133 -6q-63 -3 -76 -37.5t27 -89.5l363 -502l491 635l-246 -10l21 51h450l-20 -41l-88 -10q-42 -4 -80 -35t-88 -96
l-412 -533l504 -698l168 10l-20 -51h-578z" />
    <glyph glyph-name="uni0426" unicode="&#x426;" horiz-adv-x="1536" 
d="M1434 -471q61 238 37 354.5t-144 116.5h-1245l20 51l195 -10v1372l-195 -10l21 51h469l-21 -41l-86 -10q-42 -4 -64 -32.5t-22 -74.5v-1255h740q45 0 67.5 35.5t22.5 97.5v1239l-195 -10l21 51h469l-21 -41l-86 -10q-42 -4 -64 -32.5t-22 -74.5v-1255l236 10
q0 -243 -103 -522h-30z" />
    <glyph glyph-name="uni0427" unicode="&#x427;" horiz-adv-x="1568" 
d="M664 549q-198 0 -293 88.5t-95 277.5v498l-194 -10l20 51h473l-20 -41l-86 -10q-90 -12 -90 -133v-355q0 -148 78.5 -216t247.5 -68q119 0 253.5 38t229.5 99v645l-195 -10l21 51h473l-21 -41l-86 -10q-90 -12 -90 -133v-1229l195 10l-21 -51h-469l21 41l86 10
q42 4 64 32.5t22 74.5v551q-120 -72 -267 -116t-257 -44z" />
    <glyph glyph-name="uni0428" unicode="&#x428;" horiz-adv-x="2150" 
d="M82 0l20 51l195 -10v1372l-195 -10l21 51h469l-21 -41l-86 -10q-42 -4 -64 -32.5t-22 -74.5v-1255h545q45 0 67.5 35.5t22.5 97.5v1239l-194 -10l20 51h469l-20 -41l-86 -10q-42 -4 -64 -32.5t-22 -74.5v-1255h544q45 0 68 35.5t23 97.5v1239l-195 -10l20 51h469l-20 -41
l-86 -10q-42 -4 -64 -32.5t-22 -74.5v-1255l194 10l-20 -51h-1966z" />
    <glyph glyph-name="uni0429" unicode="&#x429;" horiz-adv-x="2150" 
d="M82 0l20 51l195 -10v1372l-195 -10l21 51h469l-21 -41l-86 -10q-42 -4 -64 -32.5t-22 -74.5v-1255h545q45 0 67.5 35.5t22.5 97.5v1239l-194 -10l20 51h469l-20 -41l-86 -10q-42 -4 -64 -32.5t-22 -74.5v-1255h544q45 0 68 35.5t23 97.5v1239l-195 -10l20 51h469l-20 -41
l-86 -10q-42 -4 -64 -32.5t-22 -74.5v-1253l235 10q0 -247 -102 -524h-31q61 238 37.5 354.5t-143.5 116.5h-1788z" />
    <glyph glyph-name="uni042A" unicode="&#x42a;" horiz-adv-x="1517" 
d="M362 0l21 41l88 10q84 9 84 111v1251h-221q-74 0 -121.5 -26.5t-85 -100t-66.5 -209.5h-30l61 398q164 -21 283 -21h479l-20 -41l-86 -10q-91 -12 -91 -133v-451h269q240 0 380 -110t140 -299t-141.5 -299.5t-384.5 -110.5h-558zM657 41h312q163 0 258.5 99.5t95.5 269.5
t-113 269t-305 99h-248v-737z" />
    <glyph glyph-name="uni042B" unicode="&#x42b;" horiz-adv-x="1826" 
d="M84 0l20 41l89 10q83 9 83 111v1251l-194 -10l20 51h473l-20 -41l-86 -10q-90 -12 -90 -133v-451h258q240 0 380 -110t140 -299t-141.5 -299.5t-384.5 -110.5h-547zM379 41h301q163 0 258.5 99.5t95.5 269.5t-113 269t-305 99h-237v-737zM1251 1403l21 51h473l-21 -41
l-86 -10q-90 -12 -90 -133v-1229l195 10l-21 -51h-469l21 41l86 10q49 6 67.5 28.5t18.5 78.5v1255z" />
    <glyph glyph-name="uni042C" unicode="&#x42c;" horiz-adv-x="1259" 
d="M84 0l20 41l89 10q83 9 83 111v1251l-194 -10l20 51h473l-20 -41l-86 -10q-90 -12 -90 -133v-451h289q240 0 380 -110t140 -299t-141.5 -299.5t-384.5 -110.5h-578zM379 41h332q163 0 258.5 99.5t95.5 269.5t-113 269t-305 99h-268v-737z" />
    <glyph glyph-name="uni042D" unicode="&#x42d;" horiz-adv-x="1409" 
d="M657 -20q-124 0 -238.5 29.5t-192 74.5t-123.5 99.5t-46 105.5q0 106 109 106q66 -200 178 -282t305 -82q127 0 232 52t174.5 142t110 208.5t46.5 254.5h-424q-28 0 -43 -1.5t-36 -8t-33 -20.5t-24.5 -38.5t-20.5 -64t-13 -94.5h-30v495h30q5 -55 13 -94.5t20.5 -64
t24.5 -38.5t33 -20.5t36 -8t43 -1.5h426v12q0 146 -40 271t-113.5 216t-183.5 143t-244 52q-85 0 -152 -18t-133 -63t-122.5 -129t-104.5 -209h-31l80 366q83 44 203.5 74.5t247.5 30.5q162 0 297.5 -58.5t226.5 -160t141.5 -239.5t50.5 -296q0 -206 -82.5 -374t-239 -267.5
t-358.5 -99.5z" />
    <glyph glyph-name="uni042E" unicode="&#x42e;" horiz-adv-x="2064" 
d="M1343 -20q-133 0 -251 54t-204.5 148.5t-138 230t-55.5 292.5h-315v-664l194 10l-20 -51h-469l20 41l86 10q49 6 67.5 28.5t18.5 78.5v1255l-194 -10l20 51h473l-20 -41l-86 -10q-90 -12 -90 -133v-525h315q3 158 54.5 294.5t138.5 231.5t205 149.5t251 54.5
q135 0 255 -56t207 -153.5t137.5 -237.5t50.5 -301t-50.5 -301t-137.5 -237.5t-207 -153t-255 -55.5zM817 768q0 -155 45.5 -289.5t123 -228t184.5 -146.5t227 -53q98 0 183.5 41.5t150.5 120t102 200.5t37 273q0 155 -45 289.5t-123 228t-184 146.5t-226 53
q-205 0 -340 -168t-135 -467z" />
    <glyph glyph-name="uni042F" unicode="&#x42f;" horiz-adv-x="1378" 
d="M805 0l20 41l86 10q49 6 67.5 28.5t18.5 78.5v1255h-217q-206 0 -322 -89.5t-116 -238.5q0 -167 112.5 -255.5t323.5 -88.5v-20l-370 -549q-67 -99 -153.5 -145.5t-217.5 -46.5l-10 20q95 28 159 83.5t154 178.5l328 453q-85 3 -163.5 27t-143.5 66.5t-103.5 110.5
t-38.5 152q0 172 158.5 277.5t427.5 105.5h491l-20 -41l-86 -10q-90 -12 -90 -133v-1229l194 10l-20 -51h-469z" />
    <glyph glyph-name="uni0430" unicode="&#x430;" horiz-adv-x="905" 
d="M678 -20q-15 0 -25 3.5t-16.5 14.5t-10.5 21.5t-5.5 35t-2 44t-0.5 59.5h-20q-94 -94 -161 -136t-152 -42q-98 0 -155.5 50t-57.5 136q0 72 58 134t161 106l317 135v235q0 84 -49 125t-125 41q-84 0 -158 -68v-94q0 -37 -25.5 -56t-55.5 -19q-42 0 -66.5 21t-24.5 42
q0 23 74.5 85.5t169 116.5t141.5 54q116 0 171.5 -62t52.5 -169q-14 -404 -8 -717l169 -10v-31q-133 -55 -196 -55zM174 213q0 -66 42.5 -106.5t105.5 -40.5q64 0 128.5 25t111 75.5t46.5 112.5v219l-262 -115q-85 -38 -128.5 -78.5t-43.5 -91.5z" />
    <glyph glyph-name="uni0431" unicode="&#x431;" horiz-adv-x="1085" 
d="M530 -20q-199 0 -328.5 166.5t-129.5 461.5q0 327 119.5 527t330.5 231q44 6 145.5 15t155.5 20q46 9 77 44t41.5 68.5t10.5 63.5l31 -21q0 -58 -9 -102t-21.5 -68t-31 -40t-31.5 -21.5t-30 -9.5q-69 -17 -187.5 -27t-156.5 -16q-67 -11 -129.5 -48t-117 -101t-90.5 -166
t-42 -228h10q17 38 39 74.5t58.5 78t78.5 71.5t101 50.5t125 20.5q143 0 244 -69t148.5 -181.5t47.5 -255.5q0 -148 -61 -272t-166.5 -195t-231.5 -71zM174 526q0 -207 113 -346t295 -139q137 0 221 119.5t84 316.5q0 215 -105.5 350.5t-263.5 135.5q-138 0 -241 -128
t-103 -309z" />
    <glyph glyph-name="uni0432" unicode="&#x432;" horiz-adv-x="935" 
d="M31 0l20 41l62 10q54 8 73 32.5t19 111.5v768l-174 -11l20 52h443q167 0 264.5 -70.5t97.5 -190.5q0 -87 -69 -156t-195 -83q148 -12 225.5 -75.5t77.5 -168.5q0 -120 -102 -190t-277 -70h-485zM297 41h203q135 0 214 59t79 160t-79 161t-214 60h-203v-440zM297 522h203
q117 0 185.5 60t68.5 161t-68.5 160.5t-185.5 59.5h-203v-441z" />
    <glyph glyph-name="uni0433" unicode="&#x433;" horiz-adv-x="876" 
d="M31 0l20 41l62 10q54 8 73 32.5t19 111.5v768l-174 -11l20 52h535q111 0 231 20l29 -360h-31q-37 179 -84 239t-139 60h-193q-58 0 -80 -39.5t-22 -112.5v-770l195 10l-21 -51h-440z" />
    <glyph glyph-name="uni0434" unicode="&#x434;" horiz-adv-x="1212" 
d="M121 -471q-52 163 -71 271t-19 253l129 -6q96 35 160.5 107.5t101 191t51 265t14.5 352.5l-219 -11l21 52h891l-21 -41l-51 -9q-102 -16 -102 -143v-768l217 10q0 -145 -19 -253t-71 -271h-31q3 19 11.5 61t13.5 68.5t11 68.5t6.5 70t-1 62.5t-11.5 57t-25.5 43
t-41.5 30.5t-61 10h-754q-35 0 -61 -10t-41.5 -30.5t-25.5 -43t-11.5 -57t-1 -62.5t6.5 -70t11 -68.5t13.5 -68.5t11.5 -61h-31zM360 41h461q50 0 71 32t21 122v768h-378q0 -409 -35.5 -622t-139.5 -300z" />
    <glyph glyph-name="uni0435" unicode="&#x435;" horiz-adv-x="917" 
d="M510 -20q-190 0 -314 134.5t-124 360.5q0 148 53.5 273t153 200.5t225.5 75.5q144 0 232.5 -83t88.5 -206q0 -71 -22 -102h-621q-8 -47 -8 -113q0 -204 92 -327t269 -123q178 0 311 108l10 -10q-121 -188 -346 -188zM188 668l455 16q74 3 74 82q0 96 -58.5 153.5
t-160.5 57.5q-110 0 -194.5 -84t-115.5 -225z" />
    <glyph glyph-name="uni0436" unicode="&#x436;" horiz-adv-x="1738" 
d="M1534 -20q-107 0 -205 137l-270 385v20l434 441l-252 -11l21 52h497l-20 -41q-83 0 -133 -13t-82.5 -36t-87.5 -78l-297 -297q67 -104 166 -227.5t102 -127.5q46 -64 96 -91t131 -27h74l10 -15q-108 -71 -184 -71zM-20 963l20 41h498l-21 -52l-231 11l434 -441v-20
l-270 -385q-98 -137 -205 -137q-77 0 -185 71l11 15h73q81 0 133 27.5t97 90.5l100 126q99 125 166 229l-297 297q-76 76 -139 101.5t-184 25.5zM649 0l21 41l61 10q54 8 73 32.5t19 111.5v768l-174 -11l21 52h420l-21 -41l-51 -9q-30 -5 -43.5 -8.5t-30.5 -13.5t-23 -29.5
t-6 -50.5v-811l175 10l-21 -51h-420z" />
    <glyph glyph-name="uni0437" unicode="&#x437;" horiz-adv-x="870" 
d="M442 -20q-161 0 -276 61.5t-115 120.5q0 43 17 74.5t55 31.5q99 -248 315 -248q124 0 206.5 69.5t82.5 186.5q0 96 -73.5 162t-204.5 66q-34 0 -50 -2l-20 41q157 0 233 57.5t76 175.5q0 92 -64 149.5t-190 57.5q-113 0 -178.5 -69.5t-128.5 -266.5h-31l41 328
q149 49 291 49q164 0 263.5 -70.5t99.5 -177.5q0 -97 -64.5 -168t-179.5 -84q133 -10 207.5 -77.5t74.5 -170.5q0 -136 -107.5 -216t-279.5 -80z" />
    <glyph glyph-name="uni0438" unicode="&#x438;" horiz-adv-x="1177" 
d="M307 41v-41h-266l20 41l62 10q54 8 73 32.5t19 111.5v768l-174 -11l20 52h420l-20 -41l-51 -9q-49 -8 -76 -44t-27 -99v-596l504 578q28 34 43.5 71.5t15.5 98.5v41h267l-21 -41l-51 -9q-30 -5 -43.5 -8.5t-30 -13.5t-22.5 -29.5t-6 -50.5v-811l174 10l-21 -51h-420
l21 41l61 10q48 8 70 50.5t22 134.5v552l-503 -577q-19 -23 -30 -40t-20.5 -51.5t-9.5 -78.5z" />
    <glyph glyph-name="uni0439" unicode="&#x439;" horiz-adv-x="1177" 
d="M307 41v-41h-266l20 41l62 10q54 8 73 32.5t19 111.5v768l-174 -11l20 52h420l-20 -41l-51 -9q-49 -8 -76 -44t-27 -99v-596l504 578q28 34 43.5 71.5t15.5 98.5v41h267l-21 -41l-51 -9q-30 -5 -43.5 -8.5t-30 -13.5t-22.5 -29.5t-6 -50.5v-811l174 10l-21 -51h-420
l21 41l61 10q48 8 70 50.5t22 134.5v552l-503 -577q-19 -23 -30 -40t-20.5 -51.5t-9.5 -78.5zM371 1368q0 113 114 113q-29 -141 14 -223t146 -82t147 82t15 223q54 0 84.5 -28t30.5 -85q0 -98 -75.5 -160.5t-201.5 -62.5q-124 0 -199 62.5t-75 160.5z" />
    <glyph glyph-name="uni043A" unicode="&#x43a;" horiz-adv-x="1181" 
d="M20 0l21 41l61 10q28 4 42 9t27.5 19.5t18.5 42t5 73.5v768l-175 -11l21 52h420l-21 -41l-51 -9q-30 -5 -43.5 -8.5t-30 -13.5t-22.5 -29.5t-6 -50.5v-811l174 10l-21 -51h-420zM430 502v20l475 441l-252 -11l21 52h497l-20 -41q-42 0 -72 -2t-58.5 -11.5t-43 -14.5
t-43 -26.5t-38.5 -30t-48 -42.5l-332 -291q90 -119 125.5 -165t84.5 -105.5t81 -90.5q8 -8 29 -28t28 -26.5t24.5 -20.5t28.5 -19t29 -12t37.5 -9.5t42.5 -2.5h74l10 -15q-108 -71 -184 -71q-99 0 -205 137z" />
    <glyph glyph-name="uni043B" unicode="&#x43b;" horiz-adv-x="1081" 
d="M600 0l21 41l61 10q54 8 73 32.5t19 111.5v768h-358q0 -109 -2 -189.5t-7 -165.5t-14 -147.5t-24 -126t-36.5 -111.5t-51.5 -93.5t-68.5 -82t-87.5 -67.5q-33 0 -69 43t-36 79q74 24 128 58.5t93 88t63.5 118t39 157.5t20 195.5t5.5 243.5l-219 -11l20 52h870l-20 -41
l-51 -9q-30 -5 -43.5 -8.5t-30.5 -13.5t-23 -29.5t-6 -50.5v-811l174 10l-20 -51h-420z" />
    <glyph glyph-name="uni043C" unicode="&#x43c;" horiz-adv-x="1345" 
d="M274 784v-743l175 10l-21 -51h-383l21 41l61 10q68 11 87 30t19 93v694q-26 44 -71 67.5t-135 27.5l20 41h232l415 -875l412 875h240l-21 -41l-51 -9q-49 -8 -76 -44t-27 -99v-770l175 10l-21 -51h-430l20 41l62 10q29 5 43.5 9.5t30.5 19t22 42.5t6 73v659l-405 -874
h-21v4z" />
    <glyph glyph-name="uni043D" unicode="&#x43d;" horiz-adv-x="1177" 
d="M696 0l21 41l61 10q54 8 73 32.5t19 111.5v297h-563v-451l174 10l-20 -51h-420l20 41l62 10q54 8 73 32.5t19 111.5v768l-174 -11l20 52h420l-20 -41l-51 -9q-30 -5 -43.5 -8.5t-30.5 -13.5t-23 -29.5t-6 -50.5v-320h563v431l-174 -11l21 52h420l-21 -41l-51 -9
q-30 -5 -43.5 -8.5t-30 -13.5t-22.5 -29.5t-6 -50.5v-811l174 10l-21 -51h-420z" />
    <glyph glyph-name="uni043E" unicode="&#x43e;" horiz-adv-x="1060" 
d="M530 -20q-101 0 -187.5 39t-145.5 107t-92 161t-33 198q0 148 60.5 272t166 195.5t231.5 71.5q135 0 240.5 -68.5t162 -183.5t56.5 -254q0 -148 -61 -272t-166.5 -195t-231.5 -71zM174 526q0 -202 119 -343.5t289 -141.5q89 0 159 58t108 157t38 221q0 203 -119 344.5
t-289 141.5q-134 0 -219.5 -125.5t-85.5 -311.5z" />
    <glyph glyph-name="uni043F" unicode="&#x43f;" horiz-adv-x="1157" 
d="M41 0l20 41l62 10q54 8 73 32.5t19 111.5v768l-174 -11l20 52h1055l-20 -41l-52 -9q-30 -5 -43.5 -8.5t-30 -13.5t-22.5 -29.5t-6 -50.5v-811l174 10l-20 -51h-420l20 41l62 10q54 8 73 32.5t19 111.5v768h-440q-50 0 -76.5 -26t-26.5 -87v-809l174 10l-20 -51h-420z" />
    <glyph glyph-name="uni0440" unicode="&#x440;" horiz-adv-x="1095" 
d="M41 -471l20 41l62 10q50 8 71 31t21 84v1233l-174 10v31q27 10 123.5 32.5t111.5 22.5h21v-129h20q63 57 150.5 93t163.5 36q174 0 288.5 -136t114.5 -358q0 -253 -129.5 -401.5t-343.5 -148.5q-150 0 -254 71v-481l256 10l-20 -51h-502zM307 297q0 -123 76 -194.5
t207 -71.5q159 0 250.5 127.5t91.5 349.5q0 193 -101 313.5t-241 120.5q-69 0 -144.5 -25t-136.5 -69l-2 -8v-543z" />
    <glyph glyph-name="uni0441" unicode="&#x441;" horiz-adv-x="907" 
d="M500 -20q-85 0 -162 33t-136.5 93t-94.5 153.5t-35 205.5q0 146 57 272.5t166.5 206.5t249.5 80q97 0 182.5 -26.5t85.5 -49.5t-30.5 -59.5t-51.5 -36.5q-7 0 -16.5 2.5t-22.5 8t-23 10t-27.5 14.5t-25.5 14.5t-28 16t-25 14.5l-61 35h-23q-124 0 -214.5 -130.5
t-90.5 -318.5q0 -106 30.5 -192.5t81.5 -141t115.5 -83.5t135.5 -29q84 0 147 24t141 82l11 -10q-49 -86 -136.5 -137t-199.5 -51z" />
    <glyph glyph-name="uni0442" unicode="&#x442;" horiz-adv-x="1284" 
d="M422 0l20 41l62 10q54 8 73 32.5t19 111.5v768h-193q-92 0 -139 -60t-84 -239h-30l28 360q120 -20 232 -20h464q112 0 232 20l29 -360h-31q-37 179 -84 239t-139 60h-193v-922l195 10l-21 -51h-440z" />
    <glyph glyph-name="uni0443" unicode="&#x443;" horiz-adv-x="1136" 
d="M215 -492q-49 0 -88 66q-30 49 -22 71q2 7 8 7h151q45 0 76.5 11.5t58 42t45.5 66.5t48 103l47 111l-387 977l-142 -11l21 52h465l-21 -41h-125q-54 0 -64.5 -20t15.5 -89l291 -743l360 852l-215 -11l21 52h368l-20 -41h-55q-31 0 -49 -24.5t-52 -104.5l-409 -963
q-79 -187 -153 -275t-173 -88z" />
    <glyph glyph-name="uni0444" unicode="&#x444;" horiz-adv-x="1443" 
d="M461 -471l20 41l86 6q61 5 85 27t24 86v317q-73 -26 -146 -26q-101 0 -187.5 39t-145.5 107t-92 161t-33 198q0 150 57 272.5t162.5 194.5t238.5 72q70 0 146 -27v463l-174 29v33q156 34 266 34h20q-20 -270 -20 -426v-133q76 27 145 27q135 0 240.5 -67.5t162 -182.5
t56.5 -256q0 -229 -129 -383.5t-330 -154.5q-72 0 -145 26v-436l205 10l-21 -51h-491zM174 526q0 -214 114 -354.5t273 -140.5q71 0 115 20v899q-67 23 -156 23q-161 0 -253.5 -128t-92.5 -319zM768 53q64 -22 156 -22q108 0 189 61t121 161t40 224q0 214 -114 355t-273 141
q-61 0 -119 -21v-899z" />
    <glyph glyph-name="uni0445" unicode="&#x445;" horiz-adv-x="1128" 
d="M614 41q188 0 196 35q3 12 -13 33l-258 342l-318 -410l197 10l-21 -51h-387l21 41h78q33 0 53 13t53 55l293 383l-354 471l-144 -11l23 52h483l-20 -41q-193 0 -191 -45q1 -11 12 -25l258 -342l320 412l-195 -11l23 52h395l-20 -41l-94 -7q-35 -1 -58 -15t-49 -50
l-293 -379l354 -471l146 10l-21 -51h-489z" />
    <glyph glyph-name="uni0446" unicode="&#x446;" horiz-adv-x="1177" 
d="M1067 -471q18 101 27.5 172.5t10.5 125.5t-6 86.5t-25 52.5t-42.5 27t-62.5 7h-928l20 51l175 -10v922l-175 -11l21 52h420l-21 -41l-61 -11q-28 -4 -41.5 -9t-27.5 -19t-18.5 -41.5t-4.5 -73.5v-768h450q55 0 79 16.5t24 75.5v830l-174 -11l20 52h420l-21 -41l-61 -11
q-28 -4 -41.5 -9t-27.5 -19t-18.5 -41.5t-4.5 -73.5v-768l215 10q0 -145 -19 -251.5t-71 -270.5h-31z" />
    <glyph glyph-name="uni0447" unicode="&#x447;" horiz-adv-x="1136" 
d="M471 342q-137 0 -206.5 70.5t-69.5 205.5v345l-175 -11l21 52h420l-21 -41l-51 -9q-102 -16 -102 -143v-174q0 -100 56.5 -156.5t160.5 -56.5q33 0 67 5t58 10.5t58 18.5t48.5 19t50.5 23t43 20v443l-174 -11l21 52h420l-21 -41l-51 -9q-30 -5 -43.5 -8.5t-30 -13.5
t-22.5 -29.5t-6 -50.5v-811l174 10l-21 -51h-420l21 41l61 10q54 8 73 32.5t19 111.5v284h-20q-6 -4 -34 -22.5t-41.5 -26.5t-42.5 -25t-50.5 -25.5t-50.5 -18.5t-59 -14.5t-60 -4.5z" />
    <glyph glyph-name="uni0448" unicode="&#x448;" horiz-adv-x="1556" 
d="M41 0l20 51l175 -10v922l-175 -11l21 52h420l-21 -41l-61 -11q-28 -4 -41.5 -9t-27.5 -19t-18.5 -41.5t-4.5 -73.5v-768h317q62 0 82.5 23.5t20.5 89.5v809l-175 -11l21 52h420l-21 -41l-61 -11q-28 -4 -41.5 -9t-27.5 -19t-18.5 -41.5t-4.5 -73.5v-768h317
q62 0 82.5 23.5t20.5 89.5v809l-175 -11l21 52h420l-21 -41l-61 -11q-28 -4 -41.5 -9t-27.5 -19t-18.5 -41.5t-4.5 -73.5v-768l174 10l-21 -51h-1464z" />
    <glyph glyph-name="uni0449" unicode="&#x449;" horiz-adv-x="1556" 
d="M41 0l20 51l175 -10v922l-175 -11l21 52h420l-21 -41l-61 -11q-28 -4 -41.5 -9t-27.5 -19t-18.5 -41.5t-4.5 -73.5v-768h317q62 0 82.5 23.5t20.5 89.5v809l-175 -11l21 52h420l-21 -41l-61 -11q-28 -4 -41.5 -9t-27.5 -19t-18.5 -41.5t-4.5 -73.5v-768h317
q62 0 82.5 23.5t20.5 89.5v809l-175 -11l21 52h420l-21 -41l-61 -11q-28 -4 -41.5 -9t-27.5 -19t-18.5 -41.5t-4.5 -73.5v-766l217 14q0 -146 -19 -256t-71 -272h-31q18 101 27.5 172.5t10.5 125.5t-6 86.5t-25 52.5t-42.5 27t-62.5 7h-1309z" />
    <glyph glyph-name="uni044A" unicode="&#x44a;" horiz-adv-x="1157" 
d="M283 0l20 41l62 10q54 8 73 32.5t19 111.5v768h-172q-62 0 -100.5 -24t-68 -88.5t-55.5 -186.5h-30l28 360q120 -20 232 -20h432l-21 -41l-51 -9q-29 -5 -43.5 -9t-30.5 -14.5t-22 -30t-6 -50.5v-328h209q166 0 262 -70.5t96 -191.5q0 -120 -96 -190t-262 -70h-475z
M549 41h209q118 0 187 59t69 160q0 102 -69 161.5t-187 59.5h-209v-440z" />
    <glyph glyph-name="uni044B" unicode="&#x44b;" horiz-adv-x="1370" 
d="M889 0l20 41l62 10q54 8 73 32.5t19 111.5v768l-174 -11l20 52h420l-20 -41l-52 -9q-51 -8 -76.5 -35t-25.5 -88v-790l174 10l-20 -51h-420zM41 0l20 41l62 10q54 8 73 32.5t19 111.5v768l-174 -11l20 52h420l-20 -41l-51 -9q-51 -8 -77 -35t-26 -88v-309h209
q166 0 262 -70.5t96 -191.5q0 -120 -96 -190t-262 -70h-475zM307 41h209q118 0 187 59t69 160q0 102 -69 161.5t-187 59.5h-209v-440z" />
    <glyph glyph-name="uni044C" unicode="&#x44c;" horiz-adv-x="915" 
d="M31 0l20 41l62 10q54 8 73 32.5t19 111.5v768l-174 -11l20 52h420l-20 -41l-52 -9q-51 -8 -76.5 -35t-25.5 -88v-309h219q166 0 262 -70.5t96 -191.5q0 -120 -96 -190t-262 -70h-485zM297 41h219q118 0 187 59t69 160q0 102 -69 161.5t-187 59.5h-219v-440z" />
    <glyph glyph-name="uni044D" unicode="&#x44d;" horiz-adv-x="999" 
d="M428 -20q-74 0 -144 21.5t-117.5 53t-76.5 66t-29 61.5q0 88 72 88q40 -99 124.5 -164t201.5 -65q176 0 271 122t95 314v6l-454 -16q-38 -1 -55 35q-14 30 3 42q5 3 13 3q278 -18 491 -21q-11 194 -108.5 320.5t-257.5 126.5q-50 0 -91 -9t-83.5 -33.5t-75.5 -64.5
t-62.5 -106t-48.5 -154h-30l40 330q60 38 152.5 63t196.5 25q145 0 253.5 -69.5t164 -188t55.5 -268.5q0 -140 -62 -258t-177.5 -189t-260.5 -71z" />
    <glyph glyph-name="uni044E" unicode="&#x44e;" horiz-adv-x="1536" 
d="M31 0l20 41l62 10q54 8 73 32.5t19 111.5v768l-174 -11l20 52h420l-20 -41l-52 -9q-30 -5 -43.5 -8.5t-30 -13.5t-22.5 -29.5t-6 -50.5v-330h250q12 213 143.5 357.5t315.5 144.5q135 0 240.5 -68.5t161.5 -183.5t56 -254q0 -111 -36 -210.5t-97 -171.5t-146 -114
t-179 -42q-202 0 -329.5 143.5t-129.5 357.5h-250v-440l174 10l-20 -51h-420zM649 526q0 -202 119 -343.5t289 -141.5q89 0 159 58t108 157t38 221q0 203 -119 344.5t-289 141.5q-134 0 -219.5 -125.5t-85.5 -311.5z" />
    <glyph glyph-name="uni044F" unicode="&#x44f;" horiz-adv-x="1007" 
d="M125 -20q-85 0 -145 71l10 15h47q79 0 133.5 32t97.5 92q181 244 230 289q-181 7 -293.5 79t-112.5 179q0 117 100.5 192t258.5 75h516l-21 -41l-51 -9q-51 -9 -76.5 -30t-25.5 -72v-811l174 10l-21 -51h-420l21 41l61 10q92 14 92 144v768h-241q-107 0 -175.5 -63
t-68.5 -163q0 -99 78 -157t227 -58h78v-20l-223 -328q-66 -98 -122.5 -146t-127.5 -48z" />
    <glyph glyph-name="uni0450" unicode="&#x450;" horiz-adv-x="917" 
d="M510 -20q-190 0 -314 134.5t-124 360.5q0 148 53.5 273t153 200.5t225.5 75.5q144 0 232.5 -83t88.5 -206q0 -71 -22 -102h-621q-8 -47 -8 -113q0 -204 92 -327t269 -123q178 0 311 108l10 -10q-121 -188 -346 -188zM188 668l455 16q74 3 74 82q0 96 -58.5 153.5
t-160.5 57.5q-110 0 -194.5 -84t-115.5 -225zM285 1518q0 17 11 27.5t28 10.5q19 0 333 -399l-12 -10l-289 270q-3 3 -12 11.5t-12 11.5l-10 10t-9.5 10t-8 9t-7 9.5t-5 9t-4.5 10t-2 10t-1 10.5z" />
    <glyph glyph-name="uni0451" unicode="&#x451;" horiz-adv-x="917" 
d="M510 -20q-190 0 -314 134.5t-124 360.5q0 148 53.5 273t153 200.5t225.5 75.5q144 0 232.5 -83t88.5 -206q0 -71 -22 -102h-621q-8 -47 -8 -113q0 -204 92 -327t269 -123q178 0 311 108l10 -10q-121 -188 -346 -188zM188 668l455 16q74 3 74 82q0 96 -58.5 153.5
t-160.5 57.5q-110 0 -194.5 -84t-115.5 -225zM299 1346q0 32 23 54.5t57 22.5q32 0 54 -22.5t22 -54.5t-22 -55t-54 -23q-34 0 -57 23t-23 55zM561 1346q0 32 23 54.5t57 22.5q32 0 54 -22.5t22 -54.5q0 -34 -22 -56t-54 -22q-34 0 -57 23t-23 55z" />
    <glyph glyph-name="uni0452" unicode="&#x452;" horiz-adv-x="1077" 
d="M635 -481q80 72 142.5 199.5t62.5 283.5v692q0 248 -189 248q-177 0 -354 -96v-805l215 10l-20 -51h-461l20 41l62 10q54 8 73 32.5t19 111.5v1022h-174v30h174v213l-174 29v33q157 34 266 34h20q-14 -211 -18 -309h393v-30h-393q-2 -37 -2 -101v-229h10q80 59 177 98
t184 39q264 0 264 -289v-733q0 -95 -27.5 -180t-72 -145t-91.5 -102t-96 -67z" />
    <glyph glyph-name="uni0453" unicode="&#x453;" horiz-adv-x="876" 
d="M31 0l20 41l62 10q54 8 73 32.5t19 111.5v768l-174 -11l20 52h535q111 0 231 20l29 -360h-31q-37 179 -84 239t-139 60h-193q-58 0 -80 -39.5t-22 -112.5v-770l195 10l-21 -51h-440zM369 1157q313 399 333 399q17 0 28 -10.5t11 -27.5q0 -5 -1 -10.5t-2 -10t-4.5 -10
t-5 -9t-7 -9.5t-8 -9t-9.5 -10l-10 -10t-12 -11.5t-12 -11.5l-289 -270z" />
    <glyph glyph-name="uni0454" unicode="&#x454;" horiz-adv-x="999" 
d="M571 -20q-145 0 -260 71t-177 189t-62 258q0 150 55.5 268.5t164 188t253.5 69.5q104 0 196 -25t152 -63l41 -330h-31q-24 110 -61.5 184.5t-86.5 113t-99 54t-113 15.5q-160 0 -258 -126.5t-109 -320.5q215 3 492 21q22 1 21 -24q0 -30 -28 -47q-14 -10 -32 -9l-455 16
v-6q0 -192 95.5 -314t271.5 -122q116 0 200.5 65t124.5 164q72 0 72 -88q0 -27 -29 -61.5t-76.5 -66t-117.5 -53t-144 -21.5z" />
    <glyph glyph-name="uni0455" unicode="&#x455;" horiz-adv-x="841" 
d="M418 -20q-179 0 -326 81l-20 261h30q84 -295 344 -295q90 0 144.5 46t54.5 138q0 86 -61.5 145t-194.5 121q-148 68 -216.5 130t-68.5 157q0 101 86.5 180.5t233.5 79.5q169 0 264 -61l21 -261h-31q-22 81 -55 138t-72 86.5t-76.5 42t-77.5 12.5q-88 0 -144 -50t-56 -136
q0 -42 18 -77t57.5 -65.5t80 -53t106.5 -52.5q156 -71 218 -135.5t62 -167.5q0 -119 -85.5 -191.5t-235.5 -72.5z" />
    <glyph glyph-name="uni0456" unicode="&#x456;" 
d="M41 0l20 41l62 10q52 8 72 32t20 89v756l-174 30v31q180 35 266 35h21q-21 -133 -21 -268v-715l195 10l-21 -51h-440zM174 1368q0 33 24.5 57.5t57.5 24.5q32 0 55 -24.5t23 -57.5q0 -34 -23 -57t-55 -23q-34 0 -58 24t-24 56z" />
    <glyph glyph-name="uni0457" unicode="&#x457;" 
d="M41 0l20 41l62 10q52 8 72 32t20 89v756l-174 30v31q180 35 266 35h21q-21 -133 -21 -268v-715l195 10l-21 -51h-440zM45 1346q0 32 23 54.5t57 22.5q32 0 54 -22.5t22 -54.5t-22 -55t-54 -23q-34 0 -57 23t-23 55zM307 1346q0 32 23 54.5t57 22.5q32 0 54 -22.5
t22 -54.5q0 -34 -22 -56t-54 -22q-34 0 -57 23t-23 55z" />
    <glyph glyph-name="uni0458" unicode="&#x458;" horiz-adv-x="479" 
d="M10 -481q80 72 142.5 199.5t62.5 283.5v926l-174 30v31q179 35 266 35h21q-21 -205 -21 -371v-651q0 -95 -27.5 -180t-72 -145t-91.5 -102t-96 -67zM174 1368q0 33 24.5 57.5t57.5 24.5q32 0 55 -24.5t23 -57.5q0 -34 -23 -57t-55 -23q-34 0 -58 24t-24 56z" />
    <glyph glyph-name="uni0459" unicode="&#x459;" horiz-adv-x="1495" 
d="M125 -20q-33 0 -69 43t-36 79q74 24 128 58.5t93 88t63.5 118t39 157.5t20 195.5t5.5 243.5l-219 -11l20 52h891l-21 -41l-51 -9q-29 -5 -43.5 -9t-30.5 -14.5t-22 -30t-6 -50.5v-328h209q166 0 262 -70.5t96 -191.5q0 -120 -96 -190t-262 -70h-475l20 41l61 10
q28 4 42 9t27.5 19.5t18.5 42t5 73.5v768h-379q0 -109 -2 -189.5t-7 -165.5t-14 -147.5t-24 -126t-36.5 -111.5t-51.5 -93.5t-68.5 -82t-87.5 -67.5zM887 41h209q118 0 187 59t69 160q0 102 -69 161.5t-187 59.5h-209v-440z" />
    <glyph glyph-name="uni045A" unicode="&#x45a;" horiz-adv-x="1570" 
d="M41 0l20 41l62 10q54 8 73 32.5t19 111.5v768l-174 -11l20 52h420l-20 -41l-51 -9q-55 -9 -79 -32.5t-24 -69.5v-330h563v441l-174 -11l21 52h420l-21 -41l-51 -9q-55 -9 -78.5 -32.5t-23.5 -69.5v-330h208q166 0 262.5 -70.5t96.5 -191.5q0 -120 -96.5 -190t-262.5 -70
h-475l21 41l61 10q54 8 73 32.5t19 111.5v286h-563v-440l174 10l-20 -51h-420zM963 41h208q118 0 187 59t69 160q0 102 -69 161.5t-187 59.5h-208v-440z" />
    <glyph glyph-name="uni045B" unicode="&#x45b;" horiz-adv-x="1136" 
d="M31 1217v30h184v213l-174 29v33q157 34 266 34h21q-17 -249 -19 -309h383v-30h-383q-2 -37 -2 -101v-229h10q80 59 177 98t184 39q264 0 264 -289v-694l205 10l-21 -51h-450l20 41l62 10q54 8 73 32.5t19 111.5v499q0 248 -188 248q-178 0 -355 -96v-805l215 10l-20 -51
h-461l20 41l62 10q54 8 73 32.5t19 111.5v1022h-184z" />
    <glyph glyph-name="uni045C" unicode="&#x45c;" horiz-adv-x="1181" 
d="M20 0l21 41l61 10q28 4 42 9t27.5 19.5t18.5 42t5 73.5v768l-175 -11l21 52h420l-21 -41l-51 -9q-30 -5 -43.5 -8.5t-30 -13.5t-22.5 -29.5t-6 -50.5v-811l174 10l-21 -51h-420zM430 502v20l475 441l-252 -11l21 52h497l-20 -41q-42 0 -72 -2t-58.5 -11.5t-43 -14.5
t-43 -26.5t-38.5 -30t-48 -42.5l-332 -291q90 -119 125.5 -165t84.5 -105.5t81 -90.5q8 -8 29 -28t28 -26.5t24.5 -20.5t28.5 -19t29 -12t37.5 -9.5t42.5 -2.5h74l10 -15q-108 -71 -184 -71q-99 0 -205 137zM430 1157q314 399 334 399q17 0 28 -10.5t11 -27.5
q0 -7 -1.5 -13.5t-3.5 -11.5t-7 -12.5t-7.5 -11.5t-11 -12.5t-12 -11.5t-14.5 -13.5t-15 -14.5l-289 -270z" />
    <glyph glyph-name="uni045D" unicode="&#x45d;" horiz-adv-x="1177" 
d="M307 41v-41h-266l20 41l62 10q54 8 73 32.5t19 111.5v768l-174 -11l20 52h420l-20 -41l-51 -9q-49 -8 -76 -44t-27 -99v-596l504 578q28 34 43.5 71.5t15.5 98.5v41h267l-21 -41l-51 -9q-30 -5 -43.5 -8.5t-30 -13.5t-22.5 -29.5t-6 -50.5v-811l174 10l-21 -51h-420
l21 41l61 10q48 8 70 50.5t22 134.5v552l-503 -577q-19 -23 -30 -40t-20.5 -51.5t-9.5 -78.5zM422 1518q0 17 11 27.5t28 10.5q20 0 334 -399l-13 -10l-288 270q-4 4 -15 14.5t-14.5 13.5t-12 11.5t-11 12.5t-7.5 11.5t-7 12.5t-3.5 11.5t-1.5 13.5z" />
    <glyph glyph-name="uni045E" unicode="&#x45e;" horiz-adv-x="1136" 
d="M215 -492q-49 0 -88 66q-30 49 -22 71q2 7 8 7h151q45 0 76.5 11.5t58 42t45.5 66.5t48 103l47 111l-387 977l-142 -11l21 52h465l-21 -41h-125q-54 0 -64.5 -20t15.5 -89l291 -743l360 852l-215 -11l21 52h368l-20 -41h-55q-31 0 -49 -24.5t-52 -104.5l-409 -963
q-79 -187 -153 -275t-173 -88zM326 1368q0 113 114 113q-29 -141 14 -223t146 -82t147 82t15 223q54 0 84.5 -28t30.5 -85q0 -98 -75.5 -160.5t-201.5 -62.5q-124 0 -199 62.5t-75 160.5z" />
    <glyph glyph-name="uni045F" unicode="&#x45f;" horiz-adv-x="1218" 
d="M41 0l20 51l175 -10v922l-175 -11l21 52h420l-21 -41l-61 -11q-28 -4 -41.5 -9t-27.5 -19t-18.5 -41.5t-4.5 -73.5v-768h450q50 0 76.5 26t26.5 87v809l-174 -11l20 52h420l-21 -41l-61 -11q-28 -4 -41.5 -9t-27.5 -19t-18.5 -41.5t-4.5 -73.5v-768l215 10l-21 -51h-520
q3 -47 8.5 -131t8 -124t4.5 -100.5t2 -115.5h-78q0 110 22 471h-573z" />
    <glyph glyph-name="uni0490" unicode="&#x490;" horiz-adv-x="1099" 
d="M84 0l20 41l86 10q86 10 86 111v1251l-194 -10l20 51h674q109 0 169.5 62.5t103.5 232.5h30l-61 -356q-157 20 -283 20h-266q-45 0 -67.5 -35.5t-22.5 -97.5v-1239l235 10l-20 -51h-510z" />
    <glyph glyph-name="uni0491" unicode="&#x491;" horiz-adv-x="856" 
d="M31 0l20 41l62 10q54 8 73 32.5t19 111.5v768l-174 -11l20 52h541q92 0 139 60t84 239h31l-29 -361q-126 21 -231 21h-187q-58 0 -80 -39.5t-22 -112.5v-770l195 10l-21 -51h-440z" />
    <glyph glyph-name="uni0492" unicode="&#x492;" horiz-adv-x="1069" 
d="M51 702v41h225v670l-194 -10l20 51h633q119 0 283 21l61 -398h-30q-29 136 -66.5 209.5t-85 100t-121.5 26.5h-307q-45 0 -67.5 -35.5t-22.5 -97.5v-537h416v-41h-416v-661l235 10l-20 -51h-510l20 41l86 10q86 10 86 111v540h-225z" />
    <glyph glyph-name="uni0493" unicode="&#x493;" horiz-adv-x="876" 
d="M72 496v32h133v435l-174 -11l20 52h535q111 0 231 20l29 -360h-31q-37 179 -84 239t-139 60h-193q-58 0 -80 -39.5t-22 -112.5v-283h299v-32h-299v-455l195 10l-21 -51h-440l20 41l62 10q54 8 73 32.5t19 111.5v301h-133z" />
    <glyph glyph-name="uni0496" unicode="&#x496;" horiz-adv-x="2084" 
d="M799 0l20 41l86 10q42 4 64 32.5t22 74.5v1255l-194 -10l20 51h473l-20 -41l-86 -10q-90 -12 -90 -133v-1229l194 10l-20 -51h-469zM31 1413l20 41h457l-21 -51l-223 10l613 -659v-21l-441 -614q-57 -80 -142.5 -109.5t-240.5 -29.5l-10 20q147 42 221.5 93t153.5 161
l375 522l-480 518q-59 64 -116.5 87.5t-165.5 31.5zM1208 733v21l613 659l-224 -10l-20 51h457l20 -41q-108 -8 -165.5 -31.5t-116.5 -87.5l-480 -518l375 -522q60 -84 113 -130t131 -79l188 8q0 -247 -102 -524h-31q49 191 43.5 304.5t-70.5 148.5q-108 8 -174.5 39
t-115.5 98z" />
    <glyph glyph-name="uni0497" unicode="&#x497;" horiz-adv-x="1738" 
d="M1534 -20q-107 0 -205 137l-270 385v20l434 441l-252 -11l21 52h497l-20 -41q-83 0 -133 -13t-82.5 -36t-87.5 -78l-297 -297q67 -104 166 -227.5t102 -127.5q46 -64 96 -91t131 -27h4l125 8q0 -146 -19 -256.5t-71 -272.5h-31q41 229 38 328t-54 127q-52 -20 -92 -20z
M-20 963l20 41h498l-21 -52l-231 11l434 -441v-20l-270 -385q-98 -137 -205 -137q-77 0 -185 71l11 15h73q81 0 133 27.5t97 90.5l100 126q99 125 166 229l-297 297q-76 76 -139 101.5t-184 25.5zM649 0l21 41l61 10q54 8 73 32.5t19 111.5v768l-174 -11l21 52h420l-21 -41
l-51 -9q-30 -5 -43.5 -8.5t-30.5 -13.5t-23 -29.5t-6 -50.5v-811l175 10l-21 -51h-420z" />
    <glyph glyph-name="uni049A" unicode="&#x49a;" horiz-adv-x="1421" 
d="M84 0l20 41l86 10q42 4 64 32.5t22 74.5v1255l-194 -10l20 51h473l-20 -41l-86 -10q-90 -12 -90 -133v-1229l194 10l-20 -51h-469zM494 684v21l677 708l-237 -10l20 51h457l-20 -41q-103 -7 -152.5 -30.5t-112.5 -88.5l-546 -569l444 -471q136 -142 262 -205l117 4
q0 -245 -103 -524h-30q61 238 37 354.5t-144 116.5v10q-85 31 -157 109z" />
    <glyph glyph-name="uni049B" unicode="&#x49b;" horiz-adv-x="1181" 
d="M20 0l21 41l61 10q28 4 42 9t27.5 19.5t18.5 42t5 73.5v768l-175 -11l21 52h420l-21 -41l-51 -9q-30 -5 -43.5 -8.5t-30 -13.5t-22.5 -29.5t-6 -50.5v-811l174 10l-21 -51h-420zM430 502v20l475 441l-252 -11l21 52h497l-20 -41q-42 0 -72 -2t-58.5 -11.5t-43 -14.5
t-43 -26.5t-38.5 -30t-48 -42.5l-332 -291q90 -119 125.5 -165t84.5 -105.5t81 -90.5q8 -8 29 -28t28 -26.5t24.5 -20.5t28.5 -19t29 -12t37.5 -9.5t42.5 -2.5h14l125 8q0 -146 -19 -256.5t-71 -272.5h-31q42 233 38 333t-58 126q-57 -24 -98 -24q-99 0 -205 137z" />
    <glyph glyph-name="uni04A2" unicode="&#x4a2;" horiz-adv-x="1691" 
d="M1118 0l21 41l86 10q42 4 64 32.5t22 74.5v549h-932v-666l194 10l-20 -51h-469l20 41l86 10q42 4 64 32.5t22 74.5v1255l-194 -10l20 51h473l-20 -41l-86 -10q-90 -12 -90 -133v-522h932v665l-195 -10l21 51h473l-21 -41l-86 -10q-90 -12 -90 -133v-1225l182 8v-2h13
l-13 -33q-5 -224 -102 -489h-31q61 238 37.5 354.5t-143.5 116.5h-238z" />
    <glyph glyph-name="uni04A3" unicode="&#x4a3;" horiz-adv-x="1177" 
d="M696 0l21 41l61 10q54 8 73 32.5t19 111.5v297h-563v-451l174 10l-20 -51h-420l20 41l62 10q54 8 73 32.5t19 111.5v768l-174 -11l20 52h420l-20 -41l-51 -9q-30 -5 -43.5 -8.5t-30.5 -13.5t-23 -29.5t-6 -50.5v-320h563v431l-174 -11l21 52h420l-21 -41l-51 -9
q-30 -5 -43.5 -8.5t-30 -13.5t-22.5 -29.5t-6 -50.5v-809l217 14q0 -146 -19 -256t-71 -272h-31q18 101 27.5 172.5t10.5 125.5t-6 86.5t-25 52.5t-42.5 27t-62.5 7h-265z" />
    <glyph glyph-name="uni04AE" unicode="&#x4ae;" horiz-adv-x="1402" 
d="M444 0l21 41l59 10q68 12 100.5 49t32.5 103v418l-487 792l-160 -10l21 51h506l-21 -41l-86 -10q-69 -8 -85 -30t15 -75l385 -624l439 739l-211 -10l20 51h400l-21 -41l-84 -8q-39 -4 -58 -18t-44 -54l-426 -712v-580l215 10l-21 -51h-510z" />
    <glyph glyph-name="uni04AF" unicode="&#x4af;" horiz-adv-x="1095" 
d="M297 -471l20 41l86 6q61 5 85 27t24 86v415l-369 859l-133 -11l17 52h469l-21 -41l-123 -7q-31 -1 -47 -11.5t-17 -31.5t6 -45t23 -61l269 -617l305 773l-197 -11l21 52h370l-20 -41l-41 -2q-59 -3 -79 -23.5t-46 -87.5l-295 -746v-534l205 10l-21 -51h-491z" />
    <glyph glyph-name="uni04B0" unicode="&#x4b0;" horiz-adv-x="1402" 
d="M268 522v41h389v58l-487 792l-160 -10l21 51h506l-21 -41l-86 -10q-69 -8 -85 -30t15 -75l385 -624l439 739l-211 -10l20 51h400l-21 -41l-84 -8q-39 -4 -58 -18t-44 -54l-426 -712v-58h389v-41h-389v-481l215 10l-21 -51h-510l21 41l59 10q68 12 100.5 49t32.5 103v319
h-389z" />
    <glyph glyph-name="uni04B1" unicode="&#x4b1;" horiz-adv-x="1095" 
d="M154 0v41h358v63l-369 859l-133 -11l17 52h469l-21 -41l-123 -7q-31 -1 -47 -11.5t-17 -31.5t6 -45t23 -61l269 -617l305 773l-197 -11l21 52h370l-20 -41l-41 -2q-59 -3 -79 -23.5t-46 -87.5l-295 -746v-63h359v-41h-359v-430l205 10l-21 -51h-491l20 41l86 6
q61 5 85 27t24 86v311h-358z" />
    <glyph glyph-name="uni04B2" unicode="&#x4b2;" horiz-adv-x="1521" 
d="M897 0l21 41l131 10q146 11 67 117l-371 512l-493 -639l246 10l-21 -51h-467l21 41l90 10q85 9 182 131l416 535l-504 696l-184 -10l20 51h584l-21 -41l-133 -6q-63 -3 -76 -37.5t27 -89.5l363 -502l491 635l-246 -10l21 51h450l-20 -41l-88 -10q-42 -4 -80 -35t-88 -96
l-412 -533l496 -686l235 10q0 -247 -102 -524h-31q51 202 42 317t-85 144h-481z" />
    <glyph glyph-name="uni04B3" unicode="&#x4b3;" horiz-adv-x="1128" 
d="M614 41q188 0 196 35q3 12 -13 33l-258 342l-318 -410l197 10l-21 -51h-387l21 41h78q33 0 53 13t53 55l293 383l-354 471l-144 -11l23 52h483l-20 -41q-193 0 -191 -45q1 -11 12 -25l258 -342l320 412l-195 -11l23 52h395l-20 -41l-94 -7q-35 -1 -58 -15t-49 -50
l-293 -379l354 -471v2l218 14q0 -145 -19.5 -254.5t-71.5 -273.5h-30q36 201 37 300.5t-30 135t-106 35.5h-362z" />
    <glyph glyph-name="uni04B6" unicode="&#x4b6;" horiz-adv-x="1568" 
d="M664 549q-198 0 -293 88.5t-95 277.5v498l-194 -10l20 51h473l-20 -41l-86 -10q-90 -12 -90 -133v-355q0 -148 78.5 -216t247.5 -68q119 0 253.5 38t229.5 99v645l-195 -10l21 51h473l-21 -41l-86 -10q-90 -12 -90 -133v-1227l236 10q0 -245 -103 -524h-30
q61 238 37 354.5t-144 116.5h-291l21 41l86 10q42 4 64 32.5t22 74.5v551q-120 -72 -267 -116t-257 -44z" />
    <glyph glyph-name="uni04B7" unicode="&#x4b7;" horiz-adv-x="1136" 
d="M471 342q-137 0 -206.5 70.5t-69.5 205.5v345l-175 -11l21 52h420l-21 -41l-51 -9q-102 -16 -102 -143v-174q0 -100 56.5 -156.5t160.5 -56.5q33 0 67 5t58 10.5t58 18.5t48.5 19t50.5 23t43 20v443l-174 -11l21 52h420l-21 -41l-51 -9q-30 -5 -43.5 -8.5t-30 -13.5
t-22.5 -29.5t-6 -50.5v-809l217 14q0 -146 -19 -256t-71 -272h-31q18 101 27.5 172.5t10.5 125.5t-6 86.5t-25 52.5t-42.5 27t-62.5 7h-265l21 41l61 10q54 8 73 32.5t19 111.5v284h-20q-6 -4 -34 -22.5t-41.5 -26.5t-42.5 -25t-50.5 -25.5t-50.5 -18.5t-59 -14.5t-60 -4.5z
" />
    <glyph glyph-name="uni04BA" unicode="&#x4ba;" horiz-adv-x="1423" 
d="M909 0l21 41l86 10q90 12 90 133v334q0 148 -78.5 216.5t-247.5 68.5q-94 0 -201.5 -25t-199.5 -67v-670l194 10l-20 -51h-469l20 41l86 10q49 6 67.5 28.5t18.5 78.5v493q-18 -12 -20 -14v61q15 10 20 15v700l-194 -10l20 51h473l-20 -41l-86 -10q-90 -12 -90 -133v-500
q111 53 230.5 84t211.5 31q198 0 292.5 -89t94.5 -278v-477l195 10l-21 -51h-473z" />
    <glyph glyph-name="uni04BB" unicode="&#x4bb;" horiz-adv-x="1126" 
d="M31 0l20 41l62 10q54 8 73 32.5t19 111.5v1265l-174 29v33q157 34 266 34h20q-20 -270 -20 -440v-229h10q80 59 177 98t184 39q264 0 264 -289v-694l205 10l-21 -51h-450l20 41l62 10q54 8 73 32.5t19 111.5v499q0 248 -189 248q-177 0 -354 -96v-805l215 10l-20 -51
h-461z" />
    <glyph glyph-name="uni04C0" unicode="&#x4c0;" horiz-adv-x="657" 
d="M84 0l20 41l86 10q49 6 67.5 28.5t18.5 78.5v1255l-194 -10l20 51h473l-20 -41l-86 -10q-90 -12 -90 -133v-1229l194 10l-20 -51h-469z" />
    <glyph glyph-name="uni04D8" unicode="&#x4d8;" horiz-adv-x="1439" 
d="M733 -20q-297 0 -479 192t-182 510q0 74 75 74h1098q-9 307 -162.5 487t-398.5 180q-203 0 -328.5 -106.5t-203.5 -312.5h-31l80 366q202 105 491 105q193 0 346 -91t241.5 -263.5t88.5 -399.5q0 -162 -43.5 -298.5t-123.5 -234.5t-200 -153t-268 -55zM195 666
q0 -278 150 -456.5t388 -178.5q159 0 275.5 88t176 241.5t60.5 354.5h-989q-28 0 -44.5 -13t-16.5 -36z" />
    <glyph glyph-name="uni04D9" unicode="&#x4d9;" horiz-adv-x="999" 
d="M485 -20q-200 0 -320 119.5t-120 310.5q0 58 12 82h768v6q0 212 -96.5 343.5t-261.5 131.5q-144 0 -226 -87.5t-124 -279.5h-31l35 334q135 84 346 84q210 0 335.5 -140.5t125.5 -365.5q0 -238 -122 -388t-321 -150zM147 389q0 -161 91 -259.5t247 -98.5
q160 0 245.5 108.5t94.5 311.5h-624q-23 0 -38.5 -17t-15.5 -45z" />
    <glyph glyph-name="uni04E2" unicode="&#x4e2;" horiz-adv-x="1650" 
d="M379 61v-61h-295l20 41l86 10q42 4 64 32.5t22 74.5v1255l-194 -10l20 51h473l-20 -41l-86 -10q-90 -12 -90 -133v-1049l833 1018q32 40 45 74t13 80v61h299l-21 -41l-86 -10q-90 -12 -90 -133v-1229l195 10l-21 -51h-469l21 41l86 10q42 4 64 32.5t22 74.5v1077
l-834 -1020q-32 -38 -44.5 -72t-12.5 -82zM653 1712q0 25 14.5 38t37.5 13h434q0 -25 -14.5 -38t-37.5 -13h-434z" />
    <glyph glyph-name="uni04E3" unicode="&#x4e3;" horiz-adv-x="1228" 
d="M307 41v-41h-266l20 41l62 10q54 8 73 32.5t19 111.5v768l-174 -11l20 52h420l-20 -41l-51 -9q-49 -8 -76 -44t-27 -99v-596l504 578q28 34 43.5 71.5t15.5 98.5v41h267l-21 -41l-51 -9q-30 -5 -43.5 -8.5t-30 -13.5t-22.5 -29.5t-6 -50.5v-811l174 10l-21 -51h-420
l21 41l61 10q48 8 70 50.5t22 134.5v552l-503 -577q-19 -23 -30 -40t-20.5 -51.5t-9.5 -78.5zM399 1262q0 25 14.5 38t37.5 13h434q0 -25 -14 -38t-37 -13h-435z" />
    <glyph glyph-name="uni04E8" unicode="&#x4e8;" horiz-adv-x="1546" 
d="M772 -20q-150 0 -280 55.5t-222.5 153.5t-145 237t-52.5 301q0 216 90 387t249.5 266t360.5 95q150 0 280.5 -55.5t223.5 -153.5t146 -237.5t53 -301.5t-53 -301t-146 -237t-223.5 -153.5t-280.5 -55.5zM186 748h1172q-18 297 -191.5 481t-455.5 184q-234 0 -379.5 -171
t-145.5 -474v-20zM188 707q18 -298 190.5 -482t455.5 -184q232 0 379 171t147 474v21h-1172z" />
    <glyph glyph-name="uni04E9" unicode="&#x4e9;" horiz-adv-x="1060" 
d="M530 -20q-101 0 -187.5 39t-145.5 107t-92 161t-33 198q0 148 60.5 272t166 195.5t231.5 71.5q135 0 240.5 -68.5t162 -183.5t56.5 -254q0 -148 -61 -272t-166.5 -195t-231.5 -71zM174 522h711q-14 187 -130 314t-276 127q-134 0 -219.5 -125.5t-85.5 -311.5v-4zM176 481
q14 -187 129.5 -313.5t276.5 -126.5q89 0 159 58t108 157t38 221v4h-711z" />
    <glyph glyph-name="uni04EE" unicode="&#x4ee;" horiz-adv-x="1402" 
d="M270 -20q-96 0 -96 106q176 0 303 48t172 151q23 52 31 87t-1.5 86t-45.5 115l-463 840l-160 -10l21 51h518l-21 -41l-118 -8q-116 -7 -60 -107l422 -774l406 889l-205 -10l20 51h400l-21 -41l-84 -8q-42 -5 -62.5 -18t-39.5 -54l-486 -1063q-37 -82 -92 -142t-115 -90.5
t-115 -44t-108 -13.5zM532 1712q0 25 14.5 38t37.5 13h434q0 -25 -14 -38t-37 -13h-435z" />
    <glyph glyph-name="uni04EF" unicode="&#x4ef;" horiz-adv-x="1228" 
d="M215 -492q-49 0 -88 66q-30 49 -22 71q2 7 8 7h151q45 0 76.5 11.5t58 42t45.5 66.5t48 103l47 111l-387 977l-142 -11l21 52h465l-21 -41h-125q-54 0 -64.5 -20t15.5 -89l291 -743l360 852l-215 -11l21 52h368l-20 -41h-55q-31 0 -49 -24.5t-52 -104.5l-409 -963
q-79 -187 -153 -275t-173 -88zM354 1262q0 25 14.5 38t37.5 13h434q0 -25 -14.5 -38t-37.5 -13h-434z" />
    <glyph glyph-name="uni1E20" unicode="&#x1e20;" horiz-adv-x="1527" 
d="M811 -20q-161 0 -299.5 54.5t-234.5 149t-150.5 224.5t-54.5 278q0 125 31 241.5t93 216t149 173.5t206.5 116t257.5 42q114 0 231 -30.5t199 -74.5l80 -366h-31q-48 125 -104.5 209t-122.5 129t-133 63t-152 18q-119 0 -217.5 -41.5t-164.5 -110.5t-112 -160
t-66.5 -187.5t-20.5 -196.5q0 -194 80 -353.5t221.5 -251t314.5 -91.5q84 0 158.5 15t122 37t75 46.5t27.5 44.5v537l-346 -19l20 51h588l-22 -38q-82 0 -115 -28t-33 -106v-358q0 -36 17 -48.5t69 -12.5l8 -29q-186 -77 -306.5 -110t-262.5 -33zM588 1712q0 25 14 38t37 13
h434q0 -25 -14 -38t-37 -13h-434z" />
    <glyph glyph-name="uni1E21" unicode="&#x1e21;" horiz-adv-x="1005" 
d="M496 -492q-128 0 -237 38t-174 106t-65 151q0 66 39.5 122t94 88.5t114.5 45.5q-32 32 -72 92t-40 78q0 22 62 57.5t140 53.5q-107 28 -175 115t-68 200q0 154 107.5 261.5t262.5 107.5q90 0 160 -43q147 109 216 146q77 40 128 40q38 0 23 -53q-13 -44 -39 -66l-10 -6
l-295 -73q65 -45 103 -117t38 -156q0 -154 -104.5 -261t-255.5 -107q-50 0 -113.5 -39.5t-63.5 -83.5q0 -76 172 -84l293 -15q109 -6 164 -71.5t55 -157.5q0 -109 -63.5 -194.5t-167.5 -130t-229 -44.5zM129 -180q0 -78 61 -139.5t146 -91t170 -29.5q168 0 266 75.5
t98 210.5q0 33 -11 62.5t-34.5 57t-68.5 45t-107 20.5l-325 16q-29 -1 -61 -15t-63 -40t-51 -71.5t-20 -100.5zM209 713q0 -146 83 -240t212 -94q93 0 152 73t59 187q0 146 -83 240t-212 94q-93 0 -152 -73t-59 -187zM238 1262q0 25 14 38t37 13h434q0 -25 -14 -38t-37 -13
h-434z" />
    <glyph glyph-name="Wgrave" unicode="&#x1e80;" horiz-adv-x="2215" 
d="M1522 -20l-359 1009l-407 -1009h-31l-541 1433l-174 -10l21 51h518l-21 -41l-88 -10q-82 -9 -99 -41t15 -117l416 -1100l369 912l-127 356l-183 -10l21 51h516l-20 -41l-91 -10q-78 -9 -91.5 -37.5t18.5 -122.5l379 -1077l389 1247l-285 -10l21 51h518l-21 -41l-94 -10
q-56 -6 -86.5 -49.5t-62.5 -145.5l-390 -1228h-30zM905 1878q0 20 10 33.5t23 13.5q5 0 17 -9.5t32.5 -29t41 -40t52 -53.5t55 -58t60.5 -64.5t59 -62.5l-6 -11l-274 203q-6 4 -19 14t-17.5 13.5t-13 11t-11.5 12.5t-6 12t-3 15z" />
    <glyph glyph-name="wgrave" unicode="&#x1e81;" horiz-adv-x="1591" 
d="M1096 -20l-271 710l-313 -710h-20l-349 983l-133 -11l21 52h440l-20 -41h-123q-49 0 -57 -29t16 -92l243 -699l271 607l-80 213l-182 -11l20 52h490l-21 -41h-115q-53 0 -66 -26.5t9 -78.5l272 -700l263 805l-199 -11l20 52h369l-20 -41h-43q-45 0 -69 -23t-52 -106
l-281 -854h-20zM575 1518q0 17 11 27.5t28 10.5q20 0 334 -399l-12 -10l-289 270q-4 4 -15 14.5t-14.5 13.5t-12 11.5t-11 12.5t-7.5 11.5t-7 12.5t-3.5 11.5t-1.5 13.5z" />
    </font>
</defs>
</svg>
